%TF.GenerationSoftware,KiCad,Pcbnew,9.0.6-9.0.6~ubuntu24.04.1*%
%TF.CreationDate,2025-12-10T16:52:24+00:00*%
%TF.ProjectId,FPSP Camera,46505350-2043-4616-9d65-72612e6b6963,rev?*%
%TF.SameCoordinates,Original*%
%TF.FileFunction,Legend,Top*%
%TF.FilePolarity,Positive*%
%FSLAX46Y46*%
G04 Gerber Fmt 4.6, Leading zero omitted, Abs format (unit mm)*
G04 Created by KiCad (PCBNEW 9.0.6-9.0.6~ubuntu24.04.1) date 2025-12-10 16:52:24*
%MOMM*%
%LPD*%
G01*
G04 APERTURE LIST*
%ADD10C,0.125000*%
%ADD11C,0.150000*%
%ADD12C,0.120000*%
%ADD13C,0.191421*%
%ADD14C,0.127000*%
%ADD15C,0.200000*%
G04 APERTURE END LIST*
D10*
X22131286Y-26440263D02*
X22339620Y-27440263D01*
X22339620Y-27440263D02*
X22797953Y-26440263D01*
X23006286Y-27440263D02*
X23131286Y-26440263D01*
X23131286Y-26440263D02*
X23369382Y-26440263D01*
X23369382Y-26440263D02*
X23506286Y-26487882D01*
X23506286Y-26487882D02*
X23589620Y-26583120D01*
X23589620Y-26583120D02*
X23625334Y-26678358D01*
X23625334Y-26678358D02*
X23649144Y-26868834D01*
X23649144Y-26868834D02*
X23631286Y-27011691D01*
X23631286Y-27011691D02*
X23559858Y-27202167D01*
X23559858Y-27202167D02*
X23500334Y-27297405D01*
X23500334Y-27297405D02*
X23393191Y-27392644D01*
X23393191Y-27392644D02*
X23244382Y-27440263D01*
X23244382Y-27440263D02*
X23006286Y-27440263D01*
X24006286Y-27440263D02*
X24131286Y-26440263D01*
X24131286Y-26440263D02*
X24369382Y-26440263D01*
X24369382Y-26440263D02*
X24506286Y-26487882D01*
X24506286Y-26487882D02*
X24589620Y-26583120D01*
X24589620Y-26583120D02*
X24625334Y-26678358D01*
X24625334Y-26678358D02*
X24649144Y-26868834D01*
X24649144Y-26868834D02*
X24631286Y-27011691D01*
X24631286Y-27011691D02*
X24559858Y-27202167D01*
X24559858Y-27202167D02*
X24500334Y-27297405D01*
X24500334Y-27297405D02*
X24393191Y-27392644D01*
X24393191Y-27392644D02*
X24244382Y-27440263D01*
X24244382Y-27440263D02*
X24006286Y-27440263D01*
X22278905Y-29440263D02*
X22897953Y-29440263D01*
X22897953Y-29440263D02*
X22517001Y-29821215D01*
X22517001Y-29821215D02*
X22659858Y-29821215D01*
X22659858Y-29821215D02*
X22749143Y-29868834D01*
X22749143Y-29868834D02*
X22790810Y-29916453D01*
X22790810Y-29916453D02*
X22826524Y-30011691D01*
X22826524Y-30011691D02*
X22796762Y-30249786D01*
X22796762Y-30249786D02*
X22737239Y-30345024D01*
X22737239Y-30345024D02*
X22683667Y-30392644D01*
X22683667Y-30392644D02*
X22582477Y-30440263D01*
X22582477Y-30440263D02*
X22296762Y-30440263D01*
X22296762Y-30440263D02*
X22207477Y-30392644D01*
X22207477Y-30392644D02*
X22165810Y-30345024D01*
X23213429Y-30345024D02*
X23255096Y-30392644D01*
X23255096Y-30392644D02*
X23201524Y-30440263D01*
X23201524Y-30440263D02*
X23159858Y-30392644D01*
X23159858Y-30392644D02*
X23213429Y-30345024D01*
X23213429Y-30345024D02*
X23201524Y-30440263D01*
X23707476Y-29440263D02*
X24326524Y-29440263D01*
X24326524Y-29440263D02*
X23945572Y-29821215D01*
X23945572Y-29821215D02*
X24088429Y-29821215D01*
X24088429Y-29821215D02*
X24177714Y-29868834D01*
X24177714Y-29868834D02*
X24219381Y-29916453D01*
X24219381Y-29916453D02*
X24255095Y-30011691D01*
X24255095Y-30011691D02*
X24225333Y-30249786D01*
X24225333Y-30249786D02*
X24165810Y-30345024D01*
X24165810Y-30345024D02*
X24112238Y-30392644D01*
X24112238Y-30392644D02*
X24011048Y-30440263D01*
X24011048Y-30440263D02*
X23725333Y-30440263D01*
X23725333Y-30440263D02*
X23636048Y-30392644D01*
X23636048Y-30392644D02*
X23594381Y-30345024D01*
X22314620Y-32535501D02*
X22368191Y-32487882D01*
X22368191Y-32487882D02*
X22469381Y-32440263D01*
X22469381Y-32440263D02*
X22707477Y-32440263D01*
X22707477Y-32440263D02*
X22796762Y-32487882D01*
X22796762Y-32487882D02*
X22838429Y-32535501D01*
X22838429Y-32535501D02*
X22874143Y-32630739D01*
X22874143Y-32630739D02*
X22862239Y-32725977D01*
X22862239Y-32725977D02*
X22796762Y-32868834D01*
X22796762Y-32868834D02*
X22153905Y-33440263D01*
X22153905Y-33440263D02*
X22772953Y-33440263D01*
X23213429Y-33345024D02*
X23255096Y-33392644D01*
X23255096Y-33392644D02*
X23201524Y-33440263D01*
X23201524Y-33440263D02*
X23159858Y-33392644D01*
X23159858Y-33392644D02*
X23213429Y-33345024D01*
X23213429Y-33345024D02*
X23201524Y-33440263D01*
X23892000Y-32868834D02*
X23802714Y-32821215D01*
X23802714Y-32821215D02*
X23761048Y-32773596D01*
X23761048Y-32773596D02*
X23725333Y-32678358D01*
X23725333Y-32678358D02*
X23731286Y-32630739D01*
X23731286Y-32630739D02*
X23790810Y-32535501D01*
X23790810Y-32535501D02*
X23844381Y-32487882D01*
X23844381Y-32487882D02*
X23945572Y-32440263D01*
X23945572Y-32440263D02*
X24136048Y-32440263D01*
X24136048Y-32440263D02*
X24225333Y-32487882D01*
X24225333Y-32487882D02*
X24267000Y-32535501D01*
X24267000Y-32535501D02*
X24302714Y-32630739D01*
X24302714Y-32630739D02*
X24296762Y-32678358D01*
X24296762Y-32678358D02*
X24237238Y-32773596D01*
X24237238Y-32773596D02*
X24183667Y-32821215D01*
X24183667Y-32821215D02*
X24082476Y-32868834D01*
X24082476Y-32868834D02*
X23892000Y-32868834D01*
X23892000Y-32868834D02*
X23790810Y-32916453D01*
X23790810Y-32916453D02*
X23737238Y-32964072D01*
X23737238Y-32964072D02*
X23677714Y-33059310D01*
X23677714Y-33059310D02*
X23653905Y-33249786D01*
X23653905Y-33249786D02*
X23689619Y-33345024D01*
X23689619Y-33345024D02*
X23731286Y-33392644D01*
X23731286Y-33392644D02*
X23820572Y-33440263D01*
X23820572Y-33440263D02*
X24011048Y-33440263D01*
X24011048Y-33440263D02*
X24112238Y-33392644D01*
X24112238Y-33392644D02*
X24165810Y-33345024D01*
X24165810Y-33345024D02*
X24225333Y-33249786D01*
X24225333Y-33249786D02*
X24249143Y-33059310D01*
X24249143Y-33059310D02*
X24213429Y-32964072D01*
X24213429Y-32964072D02*
X24171762Y-32916453D01*
X24171762Y-32916453D02*
X24082476Y-32868834D01*
X22772953Y-36440263D02*
X22201524Y-36440263D01*
X22487239Y-36440263D02*
X22612239Y-35440263D01*
X22612239Y-35440263D02*
X22499143Y-35583120D01*
X22499143Y-35583120D02*
X22392001Y-35678358D01*
X22392001Y-35678358D02*
X22290810Y-35725977D01*
X23213429Y-36345024D02*
X23255096Y-36392644D01*
X23255096Y-36392644D02*
X23201524Y-36440263D01*
X23201524Y-36440263D02*
X23159858Y-36392644D01*
X23159858Y-36392644D02*
X23213429Y-36345024D01*
X23213429Y-36345024D02*
X23201524Y-36440263D01*
X24278905Y-35440263D02*
X23802714Y-35440263D01*
X23802714Y-35440263D02*
X23695572Y-35916453D01*
X23695572Y-35916453D02*
X23749143Y-35868834D01*
X23749143Y-35868834D02*
X23850333Y-35821215D01*
X23850333Y-35821215D02*
X24088429Y-35821215D01*
X24088429Y-35821215D02*
X24177714Y-35868834D01*
X24177714Y-35868834D02*
X24219381Y-35916453D01*
X24219381Y-35916453D02*
X24255095Y-36011691D01*
X24255095Y-36011691D02*
X24225333Y-36249786D01*
X24225333Y-36249786D02*
X24165810Y-36345024D01*
X24165810Y-36345024D02*
X24112238Y-36392644D01*
X24112238Y-36392644D02*
X24011048Y-36440263D01*
X24011048Y-36440263D02*
X23772952Y-36440263D01*
X23772952Y-36440263D02*
X23683667Y-36392644D01*
X23683667Y-36392644D02*
X23642000Y-36345024D01*
D11*
X65581845Y-36662001D02*
X65629465Y-36709620D01*
X65629465Y-36709620D02*
X65677084Y-36852477D01*
X65677084Y-36852477D02*
X65677084Y-36947715D01*
X65677084Y-36947715D02*
X65629465Y-37090572D01*
X65629465Y-37090572D02*
X65534226Y-37185810D01*
X65534226Y-37185810D02*
X65438988Y-37233429D01*
X65438988Y-37233429D02*
X65248512Y-37281048D01*
X65248512Y-37281048D02*
X65105655Y-37281048D01*
X65105655Y-37281048D02*
X64915179Y-37233429D01*
X64915179Y-37233429D02*
X64819941Y-37185810D01*
X64819941Y-37185810D02*
X64724703Y-37090572D01*
X64724703Y-37090572D02*
X64677084Y-36947715D01*
X64677084Y-36947715D02*
X64677084Y-36852477D01*
X64677084Y-36852477D02*
X64724703Y-36709620D01*
X64724703Y-36709620D02*
X64772322Y-36662001D01*
X65677084Y-35709620D02*
X65677084Y-36281048D01*
X65677084Y-35995334D02*
X64677084Y-35995334D01*
X64677084Y-35995334D02*
X64819941Y-36090572D01*
X64819941Y-36090572D02*
X64915179Y-36185810D01*
X64915179Y-36185810D02*
X64962798Y-36281048D01*
X64772322Y-35328667D02*
X64724703Y-35281048D01*
X64724703Y-35281048D02*
X64677084Y-35185810D01*
X64677084Y-35185810D02*
X64677084Y-34947715D01*
X64677084Y-34947715D02*
X64724703Y-34852477D01*
X64724703Y-34852477D02*
X64772322Y-34804858D01*
X64772322Y-34804858D02*
X64867560Y-34757239D01*
X64867560Y-34757239D02*
X64962798Y-34757239D01*
X64962798Y-34757239D02*
X65105655Y-34804858D01*
X65105655Y-34804858D02*
X65677084Y-35376286D01*
X65677084Y-35376286D02*
X65677084Y-34757239D01*
X67581845Y-36685810D02*
X67629465Y-36733429D01*
X67629465Y-36733429D02*
X67677084Y-36876286D01*
X67677084Y-36876286D02*
X67677084Y-36971524D01*
X67677084Y-36971524D02*
X67629465Y-37114381D01*
X67629465Y-37114381D02*
X67534226Y-37209619D01*
X67534226Y-37209619D02*
X67438988Y-37257238D01*
X67438988Y-37257238D02*
X67248512Y-37304857D01*
X67248512Y-37304857D02*
X67105655Y-37304857D01*
X67105655Y-37304857D02*
X66915179Y-37257238D01*
X66915179Y-37257238D02*
X66819941Y-37209619D01*
X66819941Y-37209619D02*
X66724703Y-37114381D01*
X66724703Y-37114381D02*
X66677084Y-36971524D01*
X66677084Y-36971524D02*
X66677084Y-36876286D01*
X66677084Y-36876286D02*
X66724703Y-36733429D01*
X66724703Y-36733429D02*
X66772322Y-36685810D01*
X66677084Y-35781048D02*
X66677084Y-36257238D01*
X66677084Y-36257238D02*
X67153274Y-36304857D01*
X67153274Y-36304857D02*
X67105655Y-36257238D01*
X67105655Y-36257238D02*
X67058036Y-36162000D01*
X67058036Y-36162000D02*
X67058036Y-35923905D01*
X67058036Y-35923905D02*
X67105655Y-35828667D01*
X67105655Y-35828667D02*
X67153274Y-35781048D01*
X67153274Y-35781048D02*
X67248512Y-35733429D01*
X67248512Y-35733429D02*
X67486607Y-35733429D01*
X67486607Y-35733429D02*
X67581845Y-35781048D01*
X67581845Y-35781048D02*
X67629465Y-35828667D01*
X67629465Y-35828667D02*
X67677084Y-35923905D01*
X67677084Y-35923905D02*
X67677084Y-36162000D01*
X67677084Y-36162000D02*
X67629465Y-36257238D01*
X67629465Y-36257238D02*
X67581845Y-36304857D01*
X53555598Y-29838724D02*
X53507979Y-29886344D01*
X53507979Y-29886344D02*
X53365122Y-29933963D01*
X53365122Y-29933963D02*
X53269884Y-29933963D01*
X53269884Y-29933963D02*
X53127027Y-29886344D01*
X53127027Y-29886344D02*
X53031789Y-29791105D01*
X53031789Y-29791105D02*
X52984170Y-29695867D01*
X52984170Y-29695867D02*
X52936551Y-29505391D01*
X52936551Y-29505391D02*
X52936551Y-29362534D01*
X52936551Y-29362534D02*
X52984170Y-29172058D01*
X52984170Y-29172058D02*
X53031789Y-29076820D01*
X53031789Y-29076820D02*
X53127027Y-28981582D01*
X53127027Y-28981582D02*
X53269884Y-28933963D01*
X53269884Y-28933963D02*
X53365122Y-28933963D01*
X53365122Y-28933963D02*
X53507979Y-28981582D01*
X53507979Y-28981582D02*
X53555598Y-29029201D01*
X54507979Y-29933963D02*
X53936551Y-29933963D01*
X54222265Y-29933963D02*
X54222265Y-28933963D01*
X54222265Y-28933963D02*
X54127027Y-29076820D01*
X54127027Y-29076820D02*
X54031789Y-29172058D01*
X54031789Y-29172058D02*
X53936551Y-29219677D01*
X66677084Y-36662001D02*
X66200893Y-36995334D01*
X66677084Y-37233429D02*
X65677084Y-37233429D01*
X65677084Y-37233429D02*
X65677084Y-36852477D01*
X65677084Y-36852477D02*
X65724703Y-36757239D01*
X65724703Y-36757239D02*
X65772322Y-36709620D01*
X65772322Y-36709620D02*
X65867560Y-36662001D01*
X65867560Y-36662001D02*
X66010417Y-36662001D01*
X66010417Y-36662001D02*
X66105655Y-36709620D01*
X66105655Y-36709620D02*
X66153274Y-36757239D01*
X66153274Y-36757239D02*
X66200893Y-36852477D01*
X66200893Y-36852477D02*
X66200893Y-37233429D01*
X66677084Y-35709620D02*
X66677084Y-36281048D01*
X66677084Y-35995334D02*
X65677084Y-35995334D01*
X65677084Y-35995334D02*
X65819941Y-36090572D01*
X65819941Y-36090572D02*
X65915179Y-36185810D01*
X65915179Y-36185810D02*
X65962798Y-36281048D01*
X65677084Y-35090572D02*
X65677084Y-34995334D01*
X65677084Y-34995334D02*
X65724703Y-34900096D01*
X65724703Y-34900096D02*
X65772322Y-34852477D01*
X65772322Y-34852477D02*
X65867560Y-34804858D01*
X65867560Y-34804858D02*
X66058036Y-34757239D01*
X66058036Y-34757239D02*
X66296131Y-34757239D01*
X66296131Y-34757239D02*
X66486607Y-34804858D01*
X66486607Y-34804858D02*
X66581845Y-34852477D01*
X66581845Y-34852477D02*
X66629465Y-34900096D01*
X66629465Y-34900096D02*
X66677084Y-34995334D01*
X66677084Y-34995334D02*
X66677084Y-35090572D01*
X66677084Y-35090572D02*
X66629465Y-35185810D01*
X66629465Y-35185810D02*
X66581845Y-35233429D01*
X66581845Y-35233429D02*
X66486607Y-35281048D01*
X66486607Y-35281048D02*
X66296131Y-35328667D01*
X66296131Y-35328667D02*
X66058036Y-35328667D01*
X66058036Y-35328667D02*
X65867560Y-35281048D01*
X65867560Y-35281048D02*
X65772322Y-35233429D01*
X65772322Y-35233429D02*
X65724703Y-35185810D01*
X65724703Y-35185810D02*
X65677084Y-35090572D01*
X81979407Y-31373963D02*
X81646074Y-30897772D01*
X81407979Y-31373963D02*
X81407979Y-30373963D01*
X81407979Y-30373963D02*
X81788931Y-30373963D01*
X81788931Y-30373963D02*
X81884169Y-30421582D01*
X81884169Y-30421582D02*
X81931788Y-30469201D01*
X81931788Y-30469201D02*
X81979407Y-30564439D01*
X81979407Y-30564439D02*
X81979407Y-30707296D01*
X81979407Y-30707296D02*
X81931788Y-30802534D01*
X81931788Y-30802534D02*
X81884169Y-30850153D01*
X81884169Y-30850153D02*
X81788931Y-30897772D01*
X81788931Y-30897772D02*
X81407979Y-30897772D01*
X82931788Y-31373963D02*
X82360360Y-31373963D01*
X82646074Y-31373963D02*
X82646074Y-30373963D01*
X82646074Y-30373963D02*
X82550836Y-30516820D01*
X82550836Y-30516820D02*
X82455598Y-30612058D01*
X82455598Y-30612058D02*
X82360360Y-30659677D01*
X83265122Y-30373963D02*
X83931788Y-30373963D01*
X83931788Y-30373963D02*
X83503217Y-31373963D01*
X69305598Y-20673963D02*
X68829408Y-20673963D01*
X68829408Y-20673963D02*
X68829408Y-19673963D01*
X70162741Y-20673963D02*
X69591313Y-20673963D01*
X69877027Y-20673963D02*
X69877027Y-19673963D01*
X69877027Y-19673963D02*
X69781789Y-19816820D01*
X69781789Y-19816820D02*
X69686551Y-19912058D01*
X69686551Y-19912058D02*
X69591313Y-19959677D01*
X35860360Y-33323963D02*
X35860360Y-34133486D01*
X35860360Y-34133486D02*
X35907979Y-34228724D01*
X35907979Y-34228724D02*
X35955598Y-34276344D01*
X35955598Y-34276344D02*
X36050836Y-34323963D01*
X36050836Y-34323963D02*
X36241312Y-34323963D01*
X36241312Y-34323963D02*
X36336550Y-34276344D01*
X36336550Y-34276344D02*
X36384169Y-34228724D01*
X36384169Y-34228724D02*
X36431788Y-34133486D01*
X36431788Y-34133486D02*
X36431788Y-33323963D01*
X37336550Y-33323963D02*
X37146074Y-33323963D01*
X37146074Y-33323963D02*
X37050836Y-33371582D01*
X37050836Y-33371582D02*
X37003217Y-33419201D01*
X37003217Y-33419201D02*
X36907979Y-33562058D01*
X36907979Y-33562058D02*
X36860360Y-33752534D01*
X36860360Y-33752534D02*
X36860360Y-34133486D01*
X36860360Y-34133486D02*
X36907979Y-34228724D01*
X36907979Y-34228724D02*
X36955598Y-34276344D01*
X36955598Y-34276344D02*
X37050836Y-34323963D01*
X37050836Y-34323963D02*
X37241312Y-34323963D01*
X37241312Y-34323963D02*
X37336550Y-34276344D01*
X37336550Y-34276344D02*
X37384169Y-34228724D01*
X37384169Y-34228724D02*
X37431788Y-34133486D01*
X37431788Y-34133486D02*
X37431788Y-33895391D01*
X37431788Y-33895391D02*
X37384169Y-33800153D01*
X37384169Y-33800153D02*
X37336550Y-33752534D01*
X37336550Y-33752534D02*
X37241312Y-33704915D01*
X37241312Y-33704915D02*
X37050836Y-33704915D01*
X37050836Y-33704915D02*
X36955598Y-33752534D01*
X36955598Y-33752534D02*
X36907979Y-33800153D01*
X36907979Y-33800153D02*
X36860360Y-33895391D01*
X72488931Y-43423963D02*
X72488931Y-44138248D01*
X72488931Y-44138248D02*
X72441312Y-44281105D01*
X72441312Y-44281105D02*
X72346074Y-44376344D01*
X72346074Y-44376344D02*
X72203217Y-44423963D01*
X72203217Y-44423963D02*
X72107979Y-44423963D01*
X72965122Y-44423963D02*
X72965122Y-43423963D01*
X72965122Y-43423963D02*
X73346074Y-43423963D01*
X73346074Y-43423963D02*
X73441312Y-43471582D01*
X73441312Y-43471582D02*
X73488931Y-43519201D01*
X73488931Y-43519201D02*
X73536550Y-43614439D01*
X73536550Y-43614439D02*
X73536550Y-43757296D01*
X73536550Y-43757296D02*
X73488931Y-43852534D01*
X73488931Y-43852534D02*
X73441312Y-43900153D01*
X73441312Y-43900153D02*
X73346074Y-43947772D01*
X73346074Y-43947772D02*
X72965122Y-43947772D01*
X73917503Y-43519201D02*
X73965122Y-43471582D01*
X73965122Y-43471582D02*
X74060360Y-43423963D01*
X74060360Y-43423963D02*
X74298455Y-43423963D01*
X74298455Y-43423963D02*
X74393693Y-43471582D01*
X74393693Y-43471582D02*
X74441312Y-43519201D01*
X74441312Y-43519201D02*
X74488931Y-43614439D01*
X74488931Y-43614439D02*
X74488931Y-43709677D01*
X74488931Y-43709677D02*
X74441312Y-43852534D01*
X74441312Y-43852534D02*
X73869884Y-44423963D01*
X73869884Y-44423963D02*
X74488931Y-44423963D01*
X40741845Y-27612001D02*
X40789465Y-27659620D01*
X40789465Y-27659620D02*
X40837084Y-27802477D01*
X40837084Y-27802477D02*
X40837084Y-27897715D01*
X40837084Y-27897715D02*
X40789465Y-28040572D01*
X40789465Y-28040572D02*
X40694226Y-28135810D01*
X40694226Y-28135810D02*
X40598988Y-28183429D01*
X40598988Y-28183429D02*
X40408512Y-28231048D01*
X40408512Y-28231048D02*
X40265655Y-28231048D01*
X40265655Y-28231048D02*
X40075179Y-28183429D01*
X40075179Y-28183429D02*
X39979941Y-28135810D01*
X39979941Y-28135810D02*
X39884703Y-28040572D01*
X39884703Y-28040572D02*
X39837084Y-27897715D01*
X39837084Y-27897715D02*
X39837084Y-27802477D01*
X39837084Y-27802477D02*
X39884703Y-27659620D01*
X39884703Y-27659620D02*
X39932322Y-27612001D01*
X39932322Y-27231048D02*
X39884703Y-27183429D01*
X39884703Y-27183429D02*
X39837084Y-27088191D01*
X39837084Y-27088191D02*
X39837084Y-26850096D01*
X39837084Y-26850096D02*
X39884703Y-26754858D01*
X39884703Y-26754858D02*
X39932322Y-26707239D01*
X39932322Y-26707239D02*
X40027560Y-26659620D01*
X40027560Y-26659620D02*
X40122798Y-26659620D01*
X40122798Y-26659620D02*
X40265655Y-26707239D01*
X40265655Y-26707239D02*
X40837084Y-27278667D01*
X40837084Y-27278667D02*
X40837084Y-26659620D01*
X39837084Y-25802477D02*
X39837084Y-25992953D01*
X39837084Y-25992953D02*
X39884703Y-26088191D01*
X39884703Y-26088191D02*
X39932322Y-26135810D01*
X39932322Y-26135810D02*
X40075179Y-26231048D01*
X40075179Y-26231048D02*
X40265655Y-26278667D01*
X40265655Y-26278667D02*
X40646607Y-26278667D01*
X40646607Y-26278667D02*
X40741845Y-26231048D01*
X40741845Y-26231048D02*
X40789465Y-26183429D01*
X40789465Y-26183429D02*
X40837084Y-26088191D01*
X40837084Y-26088191D02*
X40837084Y-25897715D01*
X40837084Y-25897715D02*
X40789465Y-25802477D01*
X40789465Y-25802477D02*
X40741845Y-25754858D01*
X40741845Y-25754858D02*
X40646607Y-25707239D01*
X40646607Y-25707239D02*
X40408512Y-25707239D01*
X40408512Y-25707239D02*
X40313274Y-25754858D01*
X40313274Y-25754858D02*
X40265655Y-25802477D01*
X40265655Y-25802477D02*
X40218036Y-25897715D01*
X40218036Y-25897715D02*
X40218036Y-26088191D01*
X40218036Y-26088191D02*
X40265655Y-26183429D01*
X40265655Y-26183429D02*
X40313274Y-26231048D01*
X40313274Y-26231048D02*
X40408512Y-26278667D01*
X62807084Y-22385810D02*
X62330893Y-22719143D01*
X62807084Y-22957238D02*
X61807084Y-22957238D01*
X61807084Y-22957238D02*
X61807084Y-22576286D01*
X61807084Y-22576286D02*
X61854703Y-22481048D01*
X61854703Y-22481048D02*
X61902322Y-22433429D01*
X61902322Y-22433429D02*
X61997560Y-22385810D01*
X61997560Y-22385810D02*
X62140417Y-22385810D01*
X62140417Y-22385810D02*
X62235655Y-22433429D01*
X62235655Y-22433429D02*
X62283274Y-22481048D01*
X62283274Y-22481048D02*
X62330893Y-22576286D01*
X62330893Y-22576286D02*
X62330893Y-22957238D01*
X61807084Y-21528667D02*
X61807084Y-21719143D01*
X61807084Y-21719143D02*
X61854703Y-21814381D01*
X61854703Y-21814381D02*
X61902322Y-21862000D01*
X61902322Y-21862000D02*
X62045179Y-21957238D01*
X62045179Y-21957238D02*
X62235655Y-22004857D01*
X62235655Y-22004857D02*
X62616607Y-22004857D01*
X62616607Y-22004857D02*
X62711845Y-21957238D01*
X62711845Y-21957238D02*
X62759465Y-21909619D01*
X62759465Y-21909619D02*
X62807084Y-21814381D01*
X62807084Y-21814381D02*
X62807084Y-21623905D01*
X62807084Y-21623905D02*
X62759465Y-21528667D01*
X62759465Y-21528667D02*
X62711845Y-21481048D01*
X62711845Y-21481048D02*
X62616607Y-21433429D01*
X62616607Y-21433429D02*
X62378512Y-21433429D01*
X62378512Y-21433429D02*
X62283274Y-21481048D01*
X62283274Y-21481048D02*
X62235655Y-21528667D01*
X62235655Y-21528667D02*
X62188036Y-21623905D01*
X62188036Y-21623905D02*
X62188036Y-21814381D01*
X62188036Y-21814381D02*
X62235655Y-21909619D01*
X62235655Y-21909619D02*
X62283274Y-21957238D01*
X62283274Y-21957238D02*
X62378512Y-22004857D01*
X81979407Y-29373963D02*
X81646074Y-28897772D01*
X81407979Y-29373963D02*
X81407979Y-28373963D01*
X81407979Y-28373963D02*
X81788931Y-28373963D01*
X81788931Y-28373963D02*
X81884169Y-28421582D01*
X81884169Y-28421582D02*
X81931788Y-28469201D01*
X81931788Y-28469201D02*
X81979407Y-28564439D01*
X81979407Y-28564439D02*
X81979407Y-28707296D01*
X81979407Y-28707296D02*
X81931788Y-28802534D01*
X81931788Y-28802534D02*
X81884169Y-28850153D01*
X81884169Y-28850153D02*
X81788931Y-28897772D01*
X81788931Y-28897772D02*
X81407979Y-28897772D01*
X82931788Y-29373963D02*
X82360360Y-29373963D01*
X82646074Y-29373963D02*
X82646074Y-28373963D01*
X82646074Y-28373963D02*
X82550836Y-28516820D01*
X82550836Y-28516820D02*
X82455598Y-28612058D01*
X82455598Y-28612058D02*
X82360360Y-28659677D01*
X83884169Y-29373963D02*
X83312741Y-29373963D01*
X83598455Y-29373963D02*
X83598455Y-28373963D01*
X83598455Y-28373963D02*
X83503217Y-28516820D01*
X83503217Y-28516820D02*
X83407979Y-28612058D01*
X83407979Y-28612058D02*
X83312741Y-28659677D01*
X68177084Y-24185810D02*
X67700893Y-24519143D01*
X68177084Y-24757238D02*
X67177084Y-24757238D01*
X67177084Y-24757238D02*
X67177084Y-24376286D01*
X67177084Y-24376286D02*
X67224703Y-24281048D01*
X67224703Y-24281048D02*
X67272322Y-24233429D01*
X67272322Y-24233429D02*
X67367560Y-24185810D01*
X67367560Y-24185810D02*
X67510417Y-24185810D01*
X67510417Y-24185810D02*
X67605655Y-24233429D01*
X67605655Y-24233429D02*
X67653274Y-24281048D01*
X67653274Y-24281048D02*
X67700893Y-24376286D01*
X67700893Y-24376286D02*
X67700893Y-24757238D01*
X67510417Y-23328667D02*
X68177084Y-23328667D01*
X67129465Y-23566762D02*
X67843750Y-23804857D01*
X67843750Y-23804857D02*
X67843750Y-23185810D01*
X65881845Y-24185810D02*
X65929465Y-24233429D01*
X65929465Y-24233429D02*
X65977084Y-24376286D01*
X65977084Y-24376286D02*
X65977084Y-24471524D01*
X65977084Y-24471524D02*
X65929465Y-24614381D01*
X65929465Y-24614381D02*
X65834226Y-24709619D01*
X65834226Y-24709619D02*
X65738988Y-24757238D01*
X65738988Y-24757238D02*
X65548512Y-24804857D01*
X65548512Y-24804857D02*
X65405655Y-24804857D01*
X65405655Y-24804857D02*
X65215179Y-24757238D01*
X65215179Y-24757238D02*
X65119941Y-24709619D01*
X65119941Y-24709619D02*
X65024703Y-24614381D01*
X65024703Y-24614381D02*
X64977084Y-24471524D01*
X64977084Y-24471524D02*
X64977084Y-24376286D01*
X64977084Y-24376286D02*
X65024703Y-24233429D01*
X65024703Y-24233429D02*
X65072322Y-24185810D01*
X65977084Y-23709619D02*
X65977084Y-23519143D01*
X65977084Y-23519143D02*
X65929465Y-23423905D01*
X65929465Y-23423905D02*
X65881845Y-23376286D01*
X65881845Y-23376286D02*
X65738988Y-23281048D01*
X65738988Y-23281048D02*
X65548512Y-23233429D01*
X65548512Y-23233429D02*
X65167560Y-23233429D01*
X65167560Y-23233429D02*
X65072322Y-23281048D01*
X65072322Y-23281048D02*
X65024703Y-23328667D01*
X65024703Y-23328667D02*
X64977084Y-23423905D01*
X64977084Y-23423905D02*
X64977084Y-23614381D01*
X64977084Y-23614381D02*
X65024703Y-23709619D01*
X65024703Y-23709619D02*
X65072322Y-23757238D01*
X65072322Y-23757238D02*
X65167560Y-23804857D01*
X65167560Y-23804857D02*
X65405655Y-23804857D01*
X65405655Y-23804857D02*
X65500893Y-23757238D01*
X65500893Y-23757238D02*
X65548512Y-23709619D01*
X65548512Y-23709619D02*
X65596131Y-23614381D01*
X65596131Y-23614381D02*
X65596131Y-23423905D01*
X65596131Y-23423905D02*
X65548512Y-23328667D01*
X65548512Y-23328667D02*
X65500893Y-23281048D01*
X65500893Y-23281048D02*
X65405655Y-23233429D01*
X59555598Y-27078724D02*
X59507979Y-27126344D01*
X59507979Y-27126344D02*
X59365122Y-27173963D01*
X59365122Y-27173963D02*
X59269884Y-27173963D01*
X59269884Y-27173963D02*
X59127027Y-27126344D01*
X59127027Y-27126344D02*
X59031789Y-27031105D01*
X59031789Y-27031105D02*
X58984170Y-26935867D01*
X58984170Y-26935867D02*
X58936551Y-26745391D01*
X58936551Y-26745391D02*
X58936551Y-26602534D01*
X58936551Y-26602534D02*
X58984170Y-26412058D01*
X58984170Y-26412058D02*
X59031789Y-26316820D01*
X59031789Y-26316820D02*
X59127027Y-26221582D01*
X59127027Y-26221582D02*
X59269884Y-26173963D01*
X59269884Y-26173963D02*
X59365122Y-26173963D01*
X59365122Y-26173963D02*
X59507979Y-26221582D01*
X59507979Y-26221582D02*
X59555598Y-26269201D01*
X60412741Y-26507296D02*
X60412741Y-27173963D01*
X60174646Y-26126344D02*
X59936551Y-26840629D01*
X59936551Y-26840629D02*
X60555598Y-26840629D01*
X81979407Y-30373963D02*
X81646074Y-29897772D01*
X81407979Y-30373963D02*
X81407979Y-29373963D01*
X81407979Y-29373963D02*
X81788931Y-29373963D01*
X81788931Y-29373963D02*
X81884169Y-29421582D01*
X81884169Y-29421582D02*
X81931788Y-29469201D01*
X81931788Y-29469201D02*
X81979407Y-29564439D01*
X81979407Y-29564439D02*
X81979407Y-29707296D01*
X81979407Y-29707296D02*
X81931788Y-29802534D01*
X81931788Y-29802534D02*
X81884169Y-29850153D01*
X81884169Y-29850153D02*
X81788931Y-29897772D01*
X81788931Y-29897772D02*
X81407979Y-29897772D01*
X82931788Y-30373963D02*
X82360360Y-30373963D01*
X82646074Y-30373963D02*
X82646074Y-29373963D01*
X82646074Y-29373963D02*
X82550836Y-29516820D01*
X82550836Y-29516820D02*
X82455598Y-29612058D01*
X82455598Y-29612058D02*
X82360360Y-29659677D01*
X83265122Y-29373963D02*
X83884169Y-29373963D01*
X83884169Y-29373963D02*
X83550836Y-29754915D01*
X83550836Y-29754915D02*
X83693693Y-29754915D01*
X83693693Y-29754915D02*
X83788931Y-29802534D01*
X83788931Y-29802534D02*
X83836550Y-29850153D01*
X83836550Y-29850153D02*
X83884169Y-29945391D01*
X83884169Y-29945391D02*
X83884169Y-30183486D01*
X83884169Y-30183486D02*
X83836550Y-30278724D01*
X83836550Y-30278724D02*
X83788931Y-30326344D01*
X83788931Y-30326344D02*
X83693693Y-30373963D01*
X83693693Y-30373963D02*
X83407979Y-30373963D01*
X83407979Y-30373963D02*
X83312741Y-30326344D01*
X83312741Y-30326344D02*
X83265122Y-30278724D01*
X35879345Y-36612001D02*
X35926965Y-36659620D01*
X35926965Y-36659620D02*
X35974584Y-36802477D01*
X35974584Y-36802477D02*
X35974584Y-36897715D01*
X35974584Y-36897715D02*
X35926965Y-37040572D01*
X35926965Y-37040572D02*
X35831726Y-37135810D01*
X35831726Y-37135810D02*
X35736488Y-37183429D01*
X35736488Y-37183429D02*
X35546012Y-37231048D01*
X35546012Y-37231048D02*
X35403155Y-37231048D01*
X35403155Y-37231048D02*
X35212679Y-37183429D01*
X35212679Y-37183429D02*
X35117441Y-37135810D01*
X35117441Y-37135810D02*
X35022203Y-37040572D01*
X35022203Y-37040572D02*
X34974584Y-36897715D01*
X34974584Y-36897715D02*
X34974584Y-36802477D01*
X34974584Y-36802477D02*
X35022203Y-36659620D01*
X35022203Y-36659620D02*
X35069822Y-36612001D01*
X34974584Y-36278667D02*
X34974584Y-35659620D01*
X34974584Y-35659620D02*
X35355536Y-35992953D01*
X35355536Y-35992953D02*
X35355536Y-35850096D01*
X35355536Y-35850096D02*
X35403155Y-35754858D01*
X35403155Y-35754858D02*
X35450774Y-35707239D01*
X35450774Y-35707239D02*
X35546012Y-35659620D01*
X35546012Y-35659620D02*
X35784107Y-35659620D01*
X35784107Y-35659620D02*
X35879345Y-35707239D01*
X35879345Y-35707239D02*
X35926965Y-35754858D01*
X35926965Y-35754858D02*
X35974584Y-35850096D01*
X35974584Y-35850096D02*
X35974584Y-36135810D01*
X35974584Y-36135810D02*
X35926965Y-36231048D01*
X35926965Y-36231048D02*
X35879345Y-36278667D01*
X35974584Y-34707239D02*
X35974584Y-35278667D01*
X35974584Y-34992953D02*
X34974584Y-34992953D01*
X34974584Y-34992953D02*
X35117441Y-35088191D01*
X35117441Y-35088191D02*
X35212679Y-35183429D01*
X35212679Y-35183429D02*
X35260298Y-35278667D01*
X29279407Y-37643963D02*
X28946074Y-37167772D01*
X28707979Y-37643963D02*
X28707979Y-36643963D01*
X28707979Y-36643963D02*
X29088931Y-36643963D01*
X29088931Y-36643963D02*
X29184169Y-36691582D01*
X29184169Y-36691582D02*
X29231788Y-36739201D01*
X29231788Y-36739201D02*
X29279407Y-36834439D01*
X29279407Y-36834439D02*
X29279407Y-36977296D01*
X29279407Y-36977296D02*
X29231788Y-37072534D01*
X29231788Y-37072534D02*
X29184169Y-37120153D01*
X29184169Y-37120153D02*
X29088931Y-37167772D01*
X29088931Y-37167772D02*
X28707979Y-37167772D01*
X29660360Y-36739201D02*
X29707979Y-36691582D01*
X29707979Y-36691582D02*
X29803217Y-36643963D01*
X29803217Y-36643963D02*
X30041312Y-36643963D01*
X30041312Y-36643963D02*
X30136550Y-36691582D01*
X30136550Y-36691582D02*
X30184169Y-36739201D01*
X30184169Y-36739201D02*
X30231788Y-36834439D01*
X30231788Y-36834439D02*
X30231788Y-36929677D01*
X30231788Y-36929677D02*
X30184169Y-37072534D01*
X30184169Y-37072534D02*
X29612741Y-37643963D01*
X29612741Y-37643963D02*
X30231788Y-37643963D01*
X31184169Y-37643963D02*
X30612741Y-37643963D01*
X30898455Y-37643963D02*
X30898455Y-36643963D01*
X30898455Y-36643963D02*
X30803217Y-36786820D01*
X30803217Y-36786820D02*
X30707979Y-36882058D01*
X30707979Y-36882058D02*
X30612741Y-36929677D01*
X40629345Y-36612001D02*
X40676965Y-36659620D01*
X40676965Y-36659620D02*
X40724584Y-36802477D01*
X40724584Y-36802477D02*
X40724584Y-36897715D01*
X40724584Y-36897715D02*
X40676965Y-37040572D01*
X40676965Y-37040572D02*
X40581726Y-37135810D01*
X40581726Y-37135810D02*
X40486488Y-37183429D01*
X40486488Y-37183429D02*
X40296012Y-37231048D01*
X40296012Y-37231048D02*
X40153155Y-37231048D01*
X40153155Y-37231048D02*
X39962679Y-37183429D01*
X39962679Y-37183429D02*
X39867441Y-37135810D01*
X39867441Y-37135810D02*
X39772203Y-37040572D01*
X39772203Y-37040572D02*
X39724584Y-36897715D01*
X39724584Y-36897715D02*
X39724584Y-36802477D01*
X39724584Y-36802477D02*
X39772203Y-36659620D01*
X39772203Y-36659620D02*
X39819822Y-36612001D01*
X39724584Y-36278667D02*
X39724584Y-35659620D01*
X39724584Y-35659620D02*
X40105536Y-35992953D01*
X40105536Y-35992953D02*
X40105536Y-35850096D01*
X40105536Y-35850096D02*
X40153155Y-35754858D01*
X40153155Y-35754858D02*
X40200774Y-35707239D01*
X40200774Y-35707239D02*
X40296012Y-35659620D01*
X40296012Y-35659620D02*
X40534107Y-35659620D01*
X40534107Y-35659620D02*
X40629345Y-35707239D01*
X40629345Y-35707239D02*
X40676965Y-35754858D01*
X40676965Y-35754858D02*
X40724584Y-35850096D01*
X40724584Y-35850096D02*
X40724584Y-36135810D01*
X40724584Y-36135810D02*
X40676965Y-36231048D01*
X40676965Y-36231048D02*
X40629345Y-36278667D01*
X39724584Y-35040572D02*
X39724584Y-34945334D01*
X39724584Y-34945334D02*
X39772203Y-34850096D01*
X39772203Y-34850096D02*
X39819822Y-34802477D01*
X39819822Y-34802477D02*
X39915060Y-34754858D01*
X39915060Y-34754858D02*
X40105536Y-34707239D01*
X40105536Y-34707239D02*
X40343631Y-34707239D01*
X40343631Y-34707239D02*
X40534107Y-34754858D01*
X40534107Y-34754858D02*
X40629345Y-34802477D01*
X40629345Y-34802477D02*
X40676965Y-34850096D01*
X40676965Y-34850096D02*
X40724584Y-34945334D01*
X40724584Y-34945334D02*
X40724584Y-35040572D01*
X40724584Y-35040572D02*
X40676965Y-35135810D01*
X40676965Y-35135810D02*
X40629345Y-35183429D01*
X40629345Y-35183429D02*
X40534107Y-35231048D01*
X40534107Y-35231048D02*
X40343631Y-35278667D01*
X40343631Y-35278667D02*
X40105536Y-35278667D01*
X40105536Y-35278667D02*
X39915060Y-35231048D01*
X39915060Y-35231048D02*
X39819822Y-35183429D01*
X39819822Y-35183429D02*
X39772203Y-35135810D01*
X39772203Y-35135810D02*
X39724584Y-35040572D01*
X72279407Y-24878724D02*
X72231788Y-24926344D01*
X72231788Y-24926344D02*
X72088931Y-24973963D01*
X72088931Y-24973963D02*
X71993693Y-24973963D01*
X71993693Y-24973963D02*
X71850836Y-24926344D01*
X71850836Y-24926344D02*
X71755598Y-24831105D01*
X71755598Y-24831105D02*
X71707979Y-24735867D01*
X71707979Y-24735867D02*
X71660360Y-24545391D01*
X71660360Y-24545391D02*
X71660360Y-24402534D01*
X71660360Y-24402534D02*
X71707979Y-24212058D01*
X71707979Y-24212058D02*
X71755598Y-24116820D01*
X71755598Y-24116820D02*
X71850836Y-24021582D01*
X71850836Y-24021582D02*
X71993693Y-23973963D01*
X71993693Y-23973963D02*
X72088931Y-23973963D01*
X72088931Y-23973963D02*
X72231788Y-24021582D01*
X72231788Y-24021582D02*
X72279407Y-24069201D01*
X73231788Y-24973963D02*
X72660360Y-24973963D01*
X72946074Y-24973963D02*
X72946074Y-23973963D01*
X72946074Y-23973963D02*
X72850836Y-24116820D01*
X72850836Y-24116820D02*
X72755598Y-24212058D01*
X72755598Y-24212058D02*
X72660360Y-24259677D01*
X73565122Y-23973963D02*
X74231788Y-23973963D01*
X74231788Y-23973963D02*
X73803217Y-24973963D01*
X29279407Y-34643963D02*
X28946074Y-34167772D01*
X28707979Y-34643963D02*
X28707979Y-33643963D01*
X28707979Y-33643963D02*
X29088931Y-33643963D01*
X29088931Y-33643963D02*
X29184169Y-33691582D01*
X29184169Y-33691582D02*
X29231788Y-33739201D01*
X29231788Y-33739201D02*
X29279407Y-33834439D01*
X29279407Y-33834439D02*
X29279407Y-33977296D01*
X29279407Y-33977296D02*
X29231788Y-34072534D01*
X29231788Y-34072534D02*
X29184169Y-34120153D01*
X29184169Y-34120153D02*
X29088931Y-34167772D01*
X29088931Y-34167772D02*
X28707979Y-34167772D01*
X29660360Y-33739201D02*
X29707979Y-33691582D01*
X29707979Y-33691582D02*
X29803217Y-33643963D01*
X29803217Y-33643963D02*
X30041312Y-33643963D01*
X30041312Y-33643963D02*
X30136550Y-33691582D01*
X30136550Y-33691582D02*
X30184169Y-33739201D01*
X30184169Y-33739201D02*
X30231788Y-33834439D01*
X30231788Y-33834439D02*
X30231788Y-33929677D01*
X30231788Y-33929677D02*
X30184169Y-34072534D01*
X30184169Y-34072534D02*
X29612741Y-34643963D01*
X29612741Y-34643963D02*
X30231788Y-34643963D01*
X30850836Y-33643963D02*
X30946074Y-33643963D01*
X30946074Y-33643963D02*
X31041312Y-33691582D01*
X31041312Y-33691582D02*
X31088931Y-33739201D01*
X31088931Y-33739201D02*
X31136550Y-33834439D01*
X31136550Y-33834439D02*
X31184169Y-34024915D01*
X31184169Y-34024915D02*
X31184169Y-34263010D01*
X31184169Y-34263010D02*
X31136550Y-34453486D01*
X31136550Y-34453486D02*
X31088931Y-34548724D01*
X31088931Y-34548724D02*
X31041312Y-34596344D01*
X31041312Y-34596344D02*
X30946074Y-34643963D01*
X30946074Y-34643963D02*
X30850836Y-34643963D01*
X30850836Y-34643963D02*
X30755598Y-34596344D01*
X30755598Y-34596344D02*
X30707979Y-34548724D01*
X30707979Y-34548724D02*
X30660360Y-34453486D01*
X30660360Y-34453486D02*
X30612741Y-34263010D01*
X30612741Y-34263010D02*
X30612741Y-34024915D01*
X30612741Y-34024915D02*
X30660360Y-33834439D01*
X30660360Y-33834439D02*
X30707979Y-33739201D01*
X30707979Y-33739201D02*
X30755598Y-33691582D01*
X30755598Y-33691582D02*
X30850836Y-33643963D01*
X68679407Y-27078724D02*
X68631788Y-27126344D01*
X68631788Y-27126344D02*
X68488931Y-27173963D01*
X68488931Y-27173963D02*
X68393693Y-27173963D01*
X68393693Y-27173963D02*
X68250836Y-27126344D01*
X68250836Y-27126344D02*
X68155598Y-27031105D01*
X68155598Y-27031105D02*
X68107979Y-26935867D01*
X68107979Y-26935867D02*
X68060360Y-26745391D01*
X68060360Y-26745391D02*
X68060360Y-26602534D01*
X68060360Y-26602534D02*
X68107979Y-26412058D01*
X68107979Y-26412058D02*
X68155598Y-26316820D01*
X68155598Y-26316820D02*
X68250836Y-26221582D01*
X68250836Y-26221582D02*
X68393693Y-26173963D01*
X68393693Y-26173963D02*
X68488931Y-26173963D01*
X68488931Y-26173963D02*
X68631788Y-26221582D01*
X68631788Y-26221582D02*
X68679407Y-26269201D01*
X69631788Y-27173963D02*
X69060360Y-27173963D01*
X69346074Y-27173963D02*
X69346074Y-26173963D01*
X69346074Y-26173963D02*
X69250836Y-26316820D01*
X69250836Y-26316820D02*
X69155598Y-26412058D01*
X69155598Y-26412058D02*
X69060360Y-26459677D01*
X70203217Y-26602534D02*
X70107979Y-26554915D01*
X70107979Y-26554915D02*
X70060360Y-26507296D01*
X70060360Y-26507296D02*
X70012741Y-26412058D01*
X70012741Y-26412058D02*
X70012741Y-26364439D01*
X70012741Y-26364439D02*
X70060360Y-26269201D01*
X70060360Y-26269201D02*
X70107979Y-26221582D01*
X70107979Y-26221582D02*
X70203217Y-26173963D01*
X70203217Y-26173963D02*
X70393693Y-26173963D01*
X70393693Y-26173963D02*
X70488931Y-26221582D01*
X70488931Y-26221582D02*
X70536550Y-26269201D01*
X70536550Y-26269201D02*
X70584169Y-26364439D01*
X70584169Y-26364439D02*
X70584169Y-26412058D01*
X70584169Y-26412058D02*
X70536550Y-26507296D01*
X70536550Y-26507296D02*
X70488931Y-26554915D01*
X70488931Y-26554915D02*
X70393693Y-26602534D01*
X70393693Y-26602534D02*
X70203217Y-26602534D01*
X70203217Y-26602534D02*
X70107979Y-26650153D01*
X70107979Y-26650153D02*
X70060360Y-26697772D01*
X70060360Y-26697772D02*
X70012741Y-26793010D01*
X70012741Y-26793010D02*
X70012741Y-26983486D01*
X70012741Y-26983486D02*
X70060360Y-27078724D01*
X70060360Y-27078724D02*
X70107979Y-27126344D01*
X70107979Y-27126344D02*
X70203217Y-27173963D01*
X70203217Y-27173963D02*
X70393693Y-27173963D01*
X70393693Y-27173963D02*
X70488931Y-27126344D01*
X70488931Y-27126344D02*
X70536550Y-27078724D01*
X70536550Y-27078724D02*
X70584169Y-26983486D01*
X70584169Y-26983486D02*
X70584169Y-26793010D01*
X70584169Y-26793010D02*
X70536550Y-26697772D01*
X70536550Y-26697772D02*
X70488931Y-26650153D01*
X70488931Y-26650153D02*
X70393693Y-26602534D01*
X35741845Y-27612001D02*
X35789465Y-27659620D01*
X35789465Y-27659620D02*
X35837084Y-27802477D01*
X35837084Y-27802477D02*
X35837084Y-27897715D01*
X35837084Y-27897715D02*
X35789465Y-28040572D01*
X35789465Y-28040572D02*
X35694226Y-28135810D01*
X35694226Y-28135810D02*
X35598988Y-28183429D01*
X35598988Y-28183429D02*
X35408512Y-28231048D01*
X35408512Y-28231048D02*
X35265655Y-28231048D01*
X35265655Y-28231048D02*
X35075179Y-28183429D01*
X35075179Y-28183429D02*
X34979941Y-28135810D01*
X34979941Y-28135810D02*
X34884703Y-28040572D01*
X34884703Y-28040572D02*
X34837084Y-27897715D01*
X34837084Y-27897715D02*
X34837084Y-27802477D01*
X34837084Y-27802477D02*
X34884703Y-27659620D01*
X34884703Y-27659620D02*
X34932322Y-27612001D01*
X34932322Y-27231048D02*
X34884703Y-27183429D01*
X34884703Y-27183429D02*
X34837084Y-27088191D01*
X34837084Y-27088191D02*
X34837084Y-26850096D01*
X34837084Y-26850096D02*
X34884703Y-26754858D01*
X34884703Y-26754858D02*
X34932322Y-26707239D01*
X34932322Y-26707239D02*
X35027560Y-26659620D01*
X35027560Y-26659620D02*
X35122798Y-26659620D01*
X35122798Y-26659620D02*
X35265655Y-26707239D01*
X35265655Y-26707239D02*
X35837084Y-27278667D01*
X35837084Y-27278667D02*
X35837084Y-26659620D01*
X34837084Y-26326286D02*
X34837084Y-25659620D01*
X34837084Y-25659620D02*
X35837084Y-26088191D01*
X35960360Y-24573963D02*
X35960360Y-25383486D01*
X35960360Y-25383486D02*
X36007979Y-25478724D01*
X36007979Y-25478724D02*
X36055598Y-25526344D01*
X36055598Y-25526344D02*
X36150836Y-25573963D01*
X36150836Y-25573963D02*
X36341312Y-25573963D01*
X36341312Y-25573963D02*
X36436550Y-25526344D01*
X36436550Y-25526344D02*
X36484169Y-25478724D01*
X36484169Y-25478724D02*
X36531788Y-25383486D01*
X36531788Y-25383486D02*
X36531788Y-24573963D01*
X37436550Y-24907296D02*
X37436550Y-25573963D01*
X37198455Y-24526344D02*
X36960360Y-25240629D01*
X36960360Y-25240629D02*
X37579407Y-25240629D01*
X82079407Y-28278724D02*
X82031788Y-28326344D01*
X82031788Y-28326344D02*
X81888931Y-28373963D01*
X81888931Y-28373963D02*
X81793693Y-28373963D01*
X81793693Y-28373963D02*
X81650836Y-28326344D01*
X81650836Y-28326344D02*
X81555598Y-28231105D01*
X81555598Y-28231105D02*
X81507979Y-28135867D01*
X81507979Y-28135867D02*
X81460360Y-27945391D01*
X81460360Y-27945391D02*
X81460360Y-27802534D01*
X81460360Y-27802534D02*
X81507979Y-27612058D01*
X81507979Y-27612058D02*
X81555598Y-27516820D01*
X81555598Y-27516820D02*
X81650836Y-27421582D01*
X81650836Y-27421582D02*
X81793693Y-27373963D01*
X81793693Y-27373963D02*
X81888931Y-27373963D01*
X81888931Y-27373963D02*
X82031788Y-27421582D01*
X82031788Y-27421582D02*
X82079407Y-27469201D01*
X82460360Y-27469201D02*
X82507979Y-27421582D01*
X82507979Y-27421582D02*
X82603217Y-27373963D01*
X82603217Y-27373963D02*
X82841312Y-27373963D01*
X82841312Y-27373963D02*
X82936550Y-27421582D01*
X82936550Y-27421582D02*
X82984169Y-27469201D01*
X82984169Y-27469201D02*
X83031788Y-27564439D01*
X83031788Y-27564439D02*
X83031788Y-27659677D01*
X83031788Y-27659677D02*
X82984169Y-27802534D01*
X82984169Y-27802534D02*
X82412741Y-28373963D01*
X82412741Y-28373963D02*
X83031788Y-28373963D01*
X83888931Y-27707296D02*
X83888931Y-28373963D01*
X83650836Y-27326344D02*
X83412741Y-28040629D01*
X83412741Y-28040629D02*
X84031788Y-28040629D01*
X70581845Y-36662001D02*
X70629465Y-36709620D01*
X70629465Y-36709620D02*
X70677084Y-36852477D01*
X70677084Y-36852477D02*
X70677084Y-36947715D01*
X70677084Y-36947715D02*
X70629465Y-37090572D01*
X70629465Y-37090572D02*
X70534226Y-37185810D01*
X70534226Y-37185810D02*
X70438988Y-37233429D01*
X70438988Y-37233429D02*
X70248512Y-37281048D01*
X70248512Y-37281048D02*
X70105655Y-37281048D01*
X70105655Y-37281048D02*
X69915179Y-37233429D01*
X69915179Y-37233429D02*
X69819941Y-37185810D01*
X69819941Y-37185810D02*
X69724703Y-37090572D01*
X69724703Y-37090572D02*
X69677084Y-36947715D01*
X69677084Y-36947715D02*
X69677084Y-36852477D01*
X69677084Y-36852477D02*
X69724703Y-36709620D01*
X69724703Y-36709620D02*
X69772322Y-36662001D01*
X69772322Y-36281048D02*
X69724703Y-36233429D01*
X69724703Y-36233429D02*
X69677084Y-36138191D01*
X69677084Y-36138191D02*
X69677084Y-35900096D01*
X69677084Y-35900096D02*
X69724703Y-35804858D01*
X69724703Y-35804858D02*
X69772322Y-35757239D01*
X69772322Y-35757239D02*
X69867560Y-35709620D01*
X69867560Y-35709620D02*
X69962798Y-35709620D01*
X69962798Y-35709620D02*
X70105655Y-35757239D01*
X70105655Y-35757239D02*
X70677084Y-36328667D01*
X70677084Y-36328667D02*
X70677084Y-35709620D01*
X69677084Y-34804858D02*
X69677084Y-35281048D01*
X69677084Y-35281048D02*
X70153274Y-35328667D01*
X70153274Y-35328667D02*
X70105655Y-35281048D01*
X70105655Y-35281048D02*
X70058036Y-35185810D01*
X70058036Y-35185810D02*
X70058036Y-34947715D01*
X70058036Y-34947715D02*
X70105655Y-34852477D01*
X70105655Y-34852477D02*
X70153274Y-34804858D01*
X70153274Y-34804858D02*
X70248512Y-34757239D01*
X70248512Y-34757239D02*
X70486607Y-34757239D01*
X70486607Y-34757239D02*
X70581845Y-34804858D01*
X70581845Y-34804858D02*
X70629465Y-34852477D01*
X70629465Y-34852477D02*
X70677084Y-34947715D01*
X70677084Y-34947715D02*
X70677084Y-35185810D01*
X70677084Y-35185810D02*
X70629465Y-35281048D01*
X70629465Y-35281048D02*
X70581845Y-35328667D01*
X62460360Y-25573963D02*
X62460360Y-26383486D01*
X62460360Y-26383486D02*
X62507979Y-26478724D01*
X62507979Y-26478724D02*
X62555598Y-26526344D01*
X62555598Y-26526344D02*
X62650836Y-26573963D01*
X62650836Y-26573963D02*
X62841312Y-26573963D01*
X62841312Y-26573963D02*
X62936550Y-26526344D01*
X62936550Y-26526344D02*
X62984169Y-26478724D01*
X62984169Y-26478724D02*
X63031788Y-26383486D01*
X63031788Y-26383486D02*
X63031788Y-25573963D01*
X63412741Y-25573963D02*
X64031788Y-25573963D01*
X64031788Y-25573963D02*
X63698455Y-25954915D01*
X63698455Y-25954915D02*
X63841312Y-25954915D01*
X63841312Y-25954915D02*
X63936550Y-26002534D01*
X63936550Y-26002534D02*
X63984169Y-26050153D01*
X63984169Y-26050153D02*
X64031788Y-26145391D01*
X64031788Y-26145391D02*
X64031788Y-26383486D01*
X64031788Y-26383486D02*
X63984169Y-26478724D01*
X63984169Y-26478724D02*
X63936550Y-26526344D01*
X63936550Y-26526344D02*
X63841312Y-26573963D01*
X63841312Y-26573963D02*
X63555598Y-26573963D01*
X63555598Y-26573963D02*
X63460360Y-26526344D01*
X63460360Y-26526344D02*
X63412741Y-26478724D01*
X25534170Y-35023963D02*
X25534170Y-34023963D01*
X25534170Y-34023963D02*
X25772265Y-34023963D01*
X25772265Y-34023963D02*
X25915122Y-34071582D01*
X25915122Y-34071582D02*
X26010360Y-34166820D01*
X26010360Y-34166820D02*
X26057979Y-34262058D01*
X26057979Y-34262058D02*
X26105598Y-34452534D01*
X26105598Y-34452534D02*
X26105598Y-34595391D01*
X26105598Y-34595391D02*
X26057979Y-34785867D01*
X26057979Y-34785867D02*
X26010360Y-34881105D01*
X26010360Y-34881105D02*
X25915122Y-34976344D01*
X25915122Y-34976344D02*
X25772265Y-35023963D01*
X25772265Y-35023963D02*
X25534170Y-35023963D01*
X26962741Y-34357296D02*
X26962741Y-35023963D01*
X26724646Y-33976344D02*
X26486551Y-34690629D01*
X26486551Y-34690629D02*
X27105598Y-34690629D01*
X25534170Y-29023963D02*
X25534170Y-28023963D01*
X25534170Y-28023963D02*
X25772265Y-28023963D01*
X25772265Y-28023963D02*
X25915122Y-28071582D01*
X25915122Y-28071582D02*
X26010360Y-28166820D01*
X26010360Y-28166820D02*
X26057979Y-28262058D01*
X26057979Y-28262058D02*
X26105598Y-28452534D01*
X26105598Y-28452534D02*
X26105598Y-28595391D01*
X26105598Y-28595391D02*
X26057979Y-28785867D01*
X26057979Y-28785867D02*
X26010360Y-28881105D01*
X26010360Y-28881105D02*
X25915122Y-28976344D01*
X25915122Y-28976344D02*
X25772265Y-29023963D01*
X25772265Y-29023963D02*
X25534170Y-29023963D01*
X26486551Y-28119201D02*
X26534170Y-28071582D01*
X26534170Y-28071582D02*
X26629408Y-28023963D01*
X26629408Y-28023963D02*
X26867503Y-28023963D01*
X26867503Y-28023963D02*
X26962741Y-28071582D01*
X26962741Y-28071582D02*
X27010360Y-28119201D01*
X27010360Y-28119201D02*
X27057979Y-28214439D01*
X27057979Y-28214439D02*
X27057979Y-28309677D01*
X27057979Y-28309677D02*
X27010360Y-28452534D01*
X27010360Y-28452534D02*
X26438932Y-29023963D01*
X26438932Y-29023963D02*
X27057979Y-29023963D01*
X81979407Y-33373963D02*
X81646074Y-32897772D01*
X81407979Y-33373963D02*
X81407979Y-32373963D01*
X81407979Y-32373963D02*
X81788931Y-32373963D01*
X81788931Y-32373963D02*
X81884169Y-32421582D01*
X81884169Y-32421582D02*
X81931788Y-32469201D01*
X81931788Y-32469201D02*
X81979407Y-32564439D01*
X81979407Y-32564439D02*
X81979407Y-32707296D01*
X81979407Y-32707296D02*
X81931788Y-32802534D01*
X81931788Y-32802534D02*
X81884169Y-32850153D01*
X81884169Y-32850153D02*
X81788931Y-32897772D01*
X81788931Y-32897772D02*
X81407979Y-32897772D01*
X82931788Y-33373963D02*
X82360360Y-33373963D01*
X82646074Y-33373963D02*
X82646074Y-32373963D01*
X82646074Y-32373963D02*
X82550836Y-32516820D01*
X82550836Y-32516820D02*
X82455598Y-32612058D01*
X82455598Y-32612058D02*
X82360360Y-32659677D01*
X83788931Y-32373963D02*
X83598455Y-32373963D01*
X83598455Y-32373963D02*
X83503217Y-32421582D01*
X83503217Y-32421582D02*
X83455598Y-32469201D01*
X83455598Y-32469201D02*
X83360360Y-32612058D01*
X83360360Y-32612058D02*
X83312741Y-32802534D01*
X83312741Y-32802534D02*
X83312741Y-33183486D01*
X83312741Y-33183486D02*
X83360360Y-33278724D01*
X83360360Y-33278724D02*
X83407979Y-33326344D01*
X83407979Y-33326344D02*
X83503217Y-33373963D01*
X83503217Y-33373963D02*
X83693693Y-33373963D01*
X83693693Y-33373963D02*
X83788931Y-33326344D01*
X83788931Y-33326344D02*
X83836550Y-33278724D01*
X83836550Y-33278724D02*
X83884169Y-33183486D01*
X83884169Y-33183486D02*
X83884169Y-32945391D01*
X83884169Y-32945391D02*
X83836550Y-32850153D01*
X83836550Y-32850153D02*
X83788931Y-32802534D01*
X83788931Y-32802534D02*
X83693693Y-32754915D01*
X83693693Y-32754915D02*
X83503217Y-32754915D01*
X83503217Y-32754915D02*
X83407979Y-32802534D01*
X83407979Y-32802534D02*
X83360360Y-32850153D01*
X83360360Y-32850153D02*
X83312741Y-32945391D01*
X76079407Y-30378724D02*
X76031788Y-30426344D01*
X76031788Y-30426344D02*
X75888931Y-30473963D01*
X75888931Y-30473963D02*
X75793693Y-30473963D01*
X75793693Y-30473963D02*
X75650836Y-30426344D01*
X75650836Y-30426344D02*
X75555598Y-30331105D01*
X75555598Y-30331105D02*
X75507979Y-30235867D01*
X75507979Y-30235867D02*
X75460360Y-30045391D01*
X75460360Y-30045391D02*
X75460360Y-29902534D01*
X75460360Y-29902534D02*
X75507979Y-29712058D01*
X75507979Y-29712058D02*
X75555598Y-29616820D01*
X75555598Y-29616820D02*
X75650836Y-29521582D01*
X75650836Y-29521582D02*
X75793693Y-29473963D01*
X75793693Y-29473963D02*
X75888931Y-29473963D01*
X75888931Y-29473963D02*
X76031788Y-29521582D01*
X76031788Y-29521582D02*
X76079407Y-29569201D01*
X76412741Y-29473963D02*
X77031788Y-29473963D01*
X77031788Y-29473963D02*
X76698455Y-29854915D01*
X76698455Y-29854915D02*
X76841312Y-29854915D01*
X76841312Y-29854915D02*
X76936550Y-29902534D01*
X76936550Y-29902534D02*
X76984169Y-29950153D01*
X76984169Y-29950153D02*
X77031788Y-30045391D01*
X77031788Y-30045391D02*
X77031788Y-30283486D01*
X77031788Y-30283486D02*
X76984169Y-30378724D01*
X76984169Y-30378724D02*
X76936550Y-30426344D01*
X76936550Y-30426344D02*
X76841312Y-30473963D01*
X76841312Y-30473963D02*
X76555598Y-30473963D01*
X76555598Y-30473963D02*
X76460360Y-30426344D01*
X76460360Y-30426344D02*
X76412741Y-30378724D01*
X77412741Y-29569201D02*
X77460360Y-29521582D01*
X77460360Y-29521582D02*
X77555598Y-29473963D01*
X77555598Y-29473963D02*
X77793693Y-29473963D01*
X77793693Y-29473963D02*
X77888931Y-29521582D01*
X77888931Y-29521582D02*
X77936550Y-29569201D01*
X77936550Y-29569201D02*
X77984169Y-29664439D01*
X77984169Y-29664439D02*
X77984169Y-29759677D01*
X77984169Y-29759677D02*
X77936550Y-29902534D01*
X77936550Y-29902534D02*
X77365122Y-30473963D01*
X77365122Y-30473963D02*
X77984169Y-30473963D01*
X35960360Y-28873963D02*
X35960360Y-29683486D01*
X35960360Y-29683486D02*
X36007979Y-29778724D01*
X36007979Y-29778724D02*
X36055598Y-29826344D01*
X36055598Y-29826344D02*
X36150836Y-29873963D01*
X36150836Y-29873963D02*
X36341312Y-29873963D01*
X36341312Y-29873963D02*
X36436550Y-29826344D01*
X36436550Y-29826344D02*
X36484169Y-29778724D01*
X36484169Y-29778724D02*
X36531788Y-29683486D01*
X36531788Y-29683486D02*
X36531788Y-28873963D01*
X37484169Y-28873963D02*
X37007979Y-28873963D01*
X37007979Y-28873963D02*
X36960360Y-29350153D01*
X36960360Y-29350153D02*
X37007979Y-29302534D01*
X37007979Y-29302534D02*
X37103217Y-29254915D01*
X37103217Y-29254915D02*
X37341312Y-29254915D01*
X37341312Y-29254915D02*
X37436550Y-29302534D01*
X37436550Y-29302534D02*
X37484169Y-29350153D01*
X37484169Y-29350153D02*
X37531788Y-29445391D01*
X37531788Y-29445391D02*
X37531788Y-29683486D01*
X37531788Y-29683486D02*
X37484169Y-29778724D01*
X37484169Y-29778724D02*
X37436550Y-29826344D01*
X37436550Y-29826344D02*
X37341312Y-29873963D01*
X37341312Y-29873963D02*
X37103217Y-29873963D01*
X37103217Y-29873963D02*
X37007979Y-29826344D01*
X37007979Y-29826344D02*
X36960360Y-29778724D01*
X72955598Y-28678724D02*
X72907979Y-28726344D01*
X72907979Y-28726344D02*
X72765122Y-28773963D01*
X72765122Y-28773963D02*
X72669884Y-28773963D01*
X72669884Y-28773963D02*
X72527027Y-28726344D01*
X72527027Y-28726344D02*
X72431789Y-28631105D01*
X72431789Y-28631105D02*
X72384170Y-28535867D01*
X72384170Y-28535867D02*
X72336551Y-28345391D01*
X72336551Y-28345391D02*
X72336551Y-28202534D01*
X72336551Y-28202534D02*
X72384170Y-28012058D01*
X72384170Y-28012058D02*
X72431789Y-27916820D01*
X72431789Y-27916820D02*
X72527027Y-27821582D01*
X72527027Y-27821582D02*
X72669884Y-27773963D01*
X72669884Y-27773963D02*
X72765122Y-27773963D01*
X72765122Y-27773963D02*
X72907979Y-27821582D01*
X72907979Y-27821582D02*
X72955598Y-27869201D01*
X73288932Y-27773963D02*
X73955598Y-27773963D01*
X73955598Y-27773963D02*
X73527027Y-28773963D01*
X25634170Y-32043963D02*
X25634170Y-31043963D01*
X25634170Y-31043963D02*
X25872265Y-31043963D01*
X25872265Y-31043963D02*
X26015122Y-31091582D01*
X26015122Y-31091582D02*
X26110360Y-31186820D01*
X26110360Y-31186820D02*
X26157979Y-31282058D01*
X26157979Y-31282058D02*
X26205598Y-31472534D01*
X26205598Y-31472534D02*
X26205598Y-31615391D01*
X26205598Y-31615391D02*
X26157979Y-31805867D01*
X26157979Y-31805867D02*
X26110360Y-31901105D01*
X26110360Y-31901105D02*
X26015122Y-31996344D01*
X26015122Y-31996344D02*
X25872265Y-32043963D01*
X25872265Y-32043963D02*
X25634170Y-32043963D01*
X26538932Y-31043963D02*
X27157979Y-31043963D01*
X27157979Y-31043963D02*
X26824646Y-31424915D01*
X26824646Y-31424915D02*
X26967503Y-31424915D01*
X26967503Y-31424915D02*
X27062741Y-31472534D01*
X27062741Y-31472534D02*
X27110360Y-31520153D01*
X27110360Y-31520153D02*
X27157979Y-31615391D01*
X27157979Y-31615391D02*
X27157979Y-31853486D01*
X27157979Y-31853486D02*
X27110360Y-31948724D01*
X27110360Y-31948724D02*
X27062741Y-31996344D01*
X27062741Y-31996344D02*
X26967503Y-32043963D01*
X26967503Y-32043963D02*
X26681789Y-32043963D01*
X26681789Y-32043963D02*
X26586551Y-31996344D01*
X26586551Y-31996344D02*
X26538932Y-31948724D01*
X67077084Y-24185810D02*
X66600893Y-24519143D01*
X67077084Y-24757238D02*
X66077084Y-24757238D01*
X66077084Y-24757238D02*
X66077084Y-24376286D01*
X66077084Y-24376286D02*
X66124703Y-24281048D01*
X66124703Y-24281048D02*
X66172322Y-24233429D01*
X66172322Y-24233429D02*
X66267560Y-24185810D01*
X66267560Y-24185810D02*
X66410417Y-24185810D01*
X66410417Y-24185810D02*
X66505655Y-24233429D01*
X66505655Y-24233429D02*
X66553274Y-24281048D01*
X66553274Y-24281048D02*
X66600893Y-24376286D01*
X66600893Y-24376286D02*
X66600893Y-24757238D01*
X66077084Y-23852476D02*
X66077084Y-23233429D01*
X66077084Y-23233429D02*
X66458036Y-23566762D01*
X66458036Y-23566762D02*
X66458036Y-23423905D01*
X66458036Y-23423905D02*
X66505655Y-23328667D01*
X66505655Y-23328667D02*
X66553274Y-23281048D01*
X66553274Y-23281048D02*
X66648512Y-23233429D01*
X66648512Y-23233429D02*
X66886607Y-23233429D01*
X66886607Y-23233429D02*
X66981845Y-23281048D01*
X66981845Y-23281048D02*
X67029465Y-23328667D01*
X67029465Y-23328667D02*
X67077084Y-23423905D01*
X67077084Y-23423905D02*
X67077084Y-23709619D01*
X67077084Y-23709619D02*
X67029465Y-23804857D01*
X67029465Y-23804857D02*
X66981845Y-23852476D01*
X81979407Y-32278724D02*
X81931788Y-32326344D01*
X81931788Y-32326344D02*
X81788931Y-32373963D01*
X81788931Y-32373963D02*
X81693693Y-32373963D01*
X81693693Y-32373963D02*
X81550836Y-32326344D01*
X81550836Y-32326344D02*
X81455598Y-32231105D01*
X81455598Y-32231105D02*
X81407979Y-32135867D01*
X81407979Y-32135867D02*
X81360360Y-31945391D01*
X81360360Y-31945391D02*
X81360360Y-31802534D01*
X81360360Y-31802534D02*
X81407979Y-31612058D01*
X81407979Y-31612058D02*
X81455598Y-31516820D01*
X81455598Y-31516820D02*
X81550836Y-31421582D01*
X81550836Y-31421582D02*
X81693693Y-31373963D01*
X81693693Y-31373963D02*
X81788931Y-31373963D01*
X81788931Y-31373963D02*
X81931788Y-31421582D01*
X81931788Y-31421582D02*
X81979407Y-31469201D01*
X82360360Y-31469201D02*
X82407979Y-31421582D01*
X82407979Y-31421582D02*
X82503217Y-31373963D01*
X82503217Y-31373963D02*
X82741312Y-31373963D01*
X82741312Y-31373963D02*
X82836550Y-31421582D01*
X82836550Y-31421582D02*
X82884169Y-31469201D01*
X82884169Y-31469201D02*
X82931788Y-31564439D01*
X82931788Y-31564439D02*
X82931788Y-31659677D01*
X82931788Y-31659677D02*
X82884169Y-31802534D01*
X82884169Y-31802534D02*
X82312741Y-32373963D01*
X82312741Y-32373963D02*
X82931788Y-32373963D01*
X83265122Y-31373963D02*
X83884169Y-31373963D01*
X83884169Y-31373963D02*
X83550836Y-31754915D01*
X83550836Y-31754915D02*
X83693693Y-31754915D01*
X83693693Y-31754915D02*
X83788931Y-31802534D01*
X83788931Y-31802534D02*
X83836550Y-31850153D01*
X83836550Y-31850153D02*
X83884169Y-31945391D01*
X83884169Y-31945391D02*
X83884169Y-32183486D01*
X83884169Y-32183486D02*
X83836550Y-32278724D01*
X83836550Y-32278724D02*
X83788931Y-32326344D01*
X83788931Y-32326344D02*
X83693693Y-32373963D01*
X83693693Y-32373963D02*
X83407979Y-32373963D01*
X83407979Y-32373963D02*
X83312741Y-32326344D01*
X83312741Y-32326344D02*
X83265122Y-32278724D01*
X35157084Y-19902477D02*
X35871369Y-19902477D01*
X35871369Y-19902477D02*
X36014226Y-19950096D01*
X36014226Y-19950096D02*
X36109465Y-20045334D01*
X36109465Y-20045334D02*
X36157084Y-20188191D01*
X36157084Y-20188191D02*
X36157084Y-20283429D01*
X35157084Y-19521524D02*
X35157084Y-18854858D01*
X35157084Y-18854858D02*
X36157084Y-19283429D01*
X70807084Y-22685810D02*
X70330893Y-23019143D01*
X70807084Y-23257238D02*
X69807084Y-23257238D01*
X69807084Y-23257238D02*
X69807084Y-22876286D01*
X69807084Y-22876286D02*
X69854703Y-22781048D01*
X69854703Y-22781048D02*
X69902322Y-22733429D01*
X69902322Y-22733429D02*
X69997560Y-22685810D01*
X69997560Y-22685810D02*
X70140417Y-22685810D01*
X70140417Y-22685810D02*
X70235655Y-22733429D01*
X70235655Y-22733429D02*
X70283274Y-22781048D01*
X70283274Y-22781048D02*
X70330893Y-22876286D01*
X70330893Y-22876286D02*
X70330893Y-23257238D01*
X69902322Y-22304857D02*
X69854703Y-22257238D01*
X69854703Y-22257238D02*
X69807084Y-22162000D01*
X69807084Y-22162000D02*
X69807084Y-21923905D01*
X69807084Y-21923905D02*
X69854703Y-21828667D01*
X69854703Y-21828667D02*
X69902322Y-21781048D01*
X69902322Y-21781048D02*
X69997560Y-21733429D01*
X69997560Y-21733429D02*
X70092798Y-21733429D01*
X70092798Y-21733429D02*
X70235655Y-21781048D01*
X70235655Y-21781048D02*
X70807084Y-22352476D01*
X70807084Y-22352476D02*
X70807084Y-21733429D01*
X81979407Y-34373963D02*
X81646074Y-33897772D01*
X81407979Y-34373963D02*
X81407979Y-33373963D01*
X81407979Y-33373963D02*
X81788931Y-33373963D01*
X81788931Y-33373963D02*
X81884169Y-33421582D01*
X81884169Y-33421582D02*
X81931788Y-33469201D01*
X81931788Y-33469201D02*
X81979407Y-33564439D01*
X81979407Y-33564439D02*
X81979407Y-33707296D01*
X81979407Y-33707296D02*
X81931788Y-33802534D01*
X81931788Y-33802534D02*
X81884169Y-33850153D01*
X81884169Y-33850153D02*
X81788931Y-33897772D01*
X81788931Y-33897772D02*
X81407979Y-33897772D01*
X82931788Y-34373963D02*
X82360360Y-34373963D01*
X82646074Y-34373963D02*
X82646074Y-33373963D01*
X82646074Y-33373963D02*
X82550836Y-33516820D01*
X82550836Y-33516820D02*
X82455598Y-33612058D01*
X82455598Y-33612058D02*
X82360360Y-33659677D01*
X83788931Y-33707296D02*
X83788931Y-34373963D01*
X83550836Y-33326344D02*
X83312741Y-34040629D01*
X83312741Y-34040629D02*
X83931788Y-34040629D01*
X69581845Y-36662001D02*
X69629465Y-36709620D01*
X69629465Y-36709620D02*
X69677084Y-36852477D01*
X69677084Y-36852477D02*
X69677084Y-36947715D01*
X69677084Y-36947715D02*
X69629465Y-37090572D01*
X69629465Y-37090572D02*
X69534226Y-37185810D01*
X69534226Y-37185810D02*
X69438988Y-37233429D01*
X69438988Y-37233429D02*
X69248512Y-37281048D01*
X69248512Y-37281048D02*
X69105655Y-37281048D01*
X69105655Y-37281048D02*
X68915179Y-37233429D01*
X68915179Y-37233429D02*
X68819941Y-37185810D01*
X68819941Y-37185810D02*
X68724703Y-37090572D01*
X68724703Y-37090572D02*
X68677084Y-36947715D01*
X68677084Y-36947715D02*
X68677084Y-36852477D01*
X68677084Y-36852477D02*
X68724703Y-36709620D01*
X68724703Y-36709620D02*
X68772322Y-36662001D01*
X69677084Y-35709620D02*
X69677084Y-36281048D01*
X69677084Y-35995334D02*
X68677084Y-35995334D01*
X68677084Y-35995334D02*
X68819941Y-36090572D01*
X68819941Y-36090572D02*
X68915179Y-36185810D01*
X68915179Y-36185810D02*
X68962798Y-36281048D01*
X69677084Y-34757239D02*
X69677084Y-35328667D01*
X69677084Y-35042953D02*
X68677084Y-35042953D01*
X68677084Y-35042953D02*
X68819941Y-35138191D01*
X68819941Y-35138191D02*
X68915179Y-35233429D01*
X68915179Y-35233429D02*
X68962798Y-35328667D01*
X72302243Y-40700565D02*
X72302243Y-41176756D01*
X71968910Y-40176756D02*
X72302243Y-40700565D01*
X72302243Y-40700565D02*
X72635576Y-40176756D01*
X73492719Y-41176756D02*
X72921291Y-41176756D01*
X73207005Y-41176756D02*
X73207005Y-40176756D01*
X73207005Y-40176756D02*
X73111767Y-40319613D01*
X73111767Y-40319613D02*
X73016529Y-40414851D01*
X73016529Y-40414851D02*
X72921291Y-40462470D01*
X71010360Y-17975963D02*
X71581788Y-17975963D01*
X71296074Y-18975963D02*
X71296074Y-17975963D01*
X71915122Y-18975963D02*
X71915122Y-17975963D01*
X71915122Y-17975963D02*
X72296074Y-17975963D01*
X72296074Y-17975963D02*
X72391312Y-18023582D01*
X72391312Y-18023582D02*
X72438931Y-18071201D01*
X72438931Y-18071201D02*
X72486550Y-18166439D01*
X72486550Y-18166439D02*
X72486550Y-18309296D01*
X72486550Y-18309296D02*
X72438931Y-18404534D01*
X72438931Y-18404534D02*
X72391312Y-18452153D01*
X72391312Y-18452153D02*
X72296074Y-18499772D01*
X72296074Y-18499772D02*
X71915122Y-18499772D01*
X73438931Y-18975963D02*
X72867503Y-18975963D01*
X73153217Y-18975963D02*
X73153217Y-17975963D01*
X73153217Y-17975963D02*
X73057979Y-18118820D01*
X73057979Y-18118820D02*
X72962741Y-18214058D01*
X72962741Y-18214058D02*
X72867503Y-18261677D01*
X29279407Y-28643963D02*
X28946074Y-28167772D01*
X28707979Y-28643963D02*
X28707979Y-27643963D01*
X28707979Y-27643963D02*
X29088931Y-27643963D01*
X29088931Y-27643963D02*
X29184169Y-27691582D01*
X29184169Y-27691582D02*
X29231788Y-27739201D01*
X29231788Y-27739201D02*
X29279407Y-27834439D01*
X29279407Y-27834439D02*
X29279407Y-27977296D01*
X29279407Y-27977296D02*
X29231788Y-28072534D01*
X29231788Y-28072534D02*
X29184169Y-28120153D01*
X29184169Y-28120153D02*
X29088931Y-28167772D01*
X29088931Y-28167772D02*
X28707979Y-28167772D01*
X30231788Y-28643963D02*
X29660360Y-28643963D01*
X29946074Y-28643963D02*
X29946074Y-27643963D01*
X29946074Y-27643963D02*
X29850836Y-27786820D01*
X29850836Y-27786820D02*
X29755598Y-27882058D01*
X29755598Y-27882058D02*
X29660360Y-27929677D01*
X30803217Y-28072534D02*
X30707979Y-28024915D01*
X30707979Y-28024915D02*
X30660360Y-27977296D01*
X30660360Y-27977296D02*
X30612741Y-27882058D01*
X30612741Y-27882058D02*
X30612741Y-27834439D01*
X30612741Y-27834439D02*
X30660360Y-27739201D01*
X30660360Y-27739201D02*
X30707979Y-27691582D01*
X30707979Y-27691582D02*
X30803217Y-27643963D01*
X30803217Y-27643963D02*
X30993693Y-27643963D01*
X30993693Y-27643963D02*
X31088931Y-27691582D01*
X31088931Y-27691582D02*
X31136550Y-27739201D01*
X31136550Y-27739201D02*
X31184169Y-27834439D01*
X31184169Y-27834439D02*
X31184169Y-27882058D01*
X31184169Y-27882058D02*
X31136550Y-27977296D01*
X31136550Y-27977296D02*
X31088931Y-28024915D01*
X31088931Y-28024915D02*
X30993693Y-28072534D01*
X30993693Y-28072534D02*
X30803217Y-28072534D01*
X30803217Y-28072534D02*
X30707979Y-28120153D01*
X30707979Y-28120153D02*
X30660360Y-28167772D01*
X30660360Y-28167772D02*
X30612741Y-28263010D01*
X30612741Y-28263010D02*
X30612741Y-28453486D01*
X30612741Y-28453486D02*
X30660360Y-28548724D01*
X30660360Y-28548724D02*
X30707979Y-28596344D01*
X30707979Y-28596344D02*
X30803217Y-28643963D01*
X30803217Y-28643963D02*
X30993693Y-28643963D01*
X30993693Y-28643963D02*
X31088931Y-28596344D01*
X31088931Y-28596344D02*
X31136550Y-28548724D01*
X31136550Y-28548724D02*
X31184169Y-28453486D01*
X31184169Y-28453486D02*
X31184169Y-28263010D01*
X31184169Y-28263010D02*
X31136550Y-28167772D01*
X31136550Y-28167772D02*
X31088931Y-28120153D01*
X31088931Y-28120153D02*
X30993693Y-28072534D01*
X68679407Y-26078724D02*
X68631788Y-26126344D01*
X68631788Y-26126344D02*
X68488931Y-26173963D01*
X68488931Y-26173963D02*
X68393693Y-26173963D01*
X68393693Y-26173963D02*
X68250836Y-26126344D01*
X68250836Y-26126344D02*
X68155598Y-26031105D01*
X68155598Y-26031105D02*
X68107979Y-25935867D01*
X68107979Y-25935867D02*
X68060360Y-25745391D01*
X68060360Y-25745391D02*
X68060360Y-25602534D01*
X68060360Y-25602534D02*
X68107979Y-25412058D01*
X68107979Y-25412058D02*
X68155598Y-25316820D01*
X68155598Y-25316820D02*
X68250836Y-25221582D01*
X68250836Y-25221582D02*
X68393693Y-25173963D01*
X68393693Y-25173963D02*
X68488931Y-25173963D01*
X68488931Y-25173963D02*
X68631788Y-25221582D01*
X68631788Y-25221582D02*
X68679407Y-25269201D01*
X69631788Y-26173963D02*
X69060360Y-26173963D01*
X69346074Y-26173963D02*
X69346074Y-25173963D01*
X69346074Y-25173963D02*
X69250836Y-25316820D01*
X69250836Y-25316820D02*
X69155598Y-25412058D01*
X69155598Y-25412058D02*
X69060360Y-25459677D01*
X70107979Y-26173963D02*
X70298455Y-26173963D01*
X70298455Y-26173963D02*
X70393693Y-26126344D01*
X70393693Y-26126344D02*
X70441312Y-26078724D01*
X70441312Y-26078724D02*
X70536550Y-25935867D01*
X70536550Y-25935867D02*
X70584169Y-25745391D01*
X70584169Y-25745391D02*
X70584169Y-25364439D01*
X70584169Y-25364439D02*
X70536550Y-25269201D01*
X70536550Y-25269201D02*
X70488931Y-25221582D01*
X70488931Y-25221582D02*
X70393693Y-25173963D01*
X70393693Y-25173963D02*
X70203217Y-25173963D01*
X70203217Y-25173963D02*
X70107979Y-25221582D01*
X70107979Y-25221582D02*
X70060360Y-25269201D01*
X70060360Y-25269201D02*
X70012741Y-25364439D01*
X70012741Y-25364439D02*
X70012741Y-25602534D01*
X70012741Y-25602534D02*
X70060360Y-25697772D01*
X70060360Y-25697772D02*
X70107979Y-25745391D01*
X70107979Y-25745391D02*
X70203217Y-25793010D01*
X70203217Y-25793010D02*
X70393693Y-25793010D01*
X70393693Y-25793010D02*
X70488931Y-25745391D01*
X70488931Y-25745391D02*
X70536550Y-25697772D01*
X70536550Y-25697772D02*
X70584169Y-25602534D01*
X72955598Y-27678724D02*
X72907979Y-27726344D01*
X72907979Y-27726344D02*
X72765122Y-27773963D01*
X72765122Y-27773963D02*
X72669884Y-27773963D01*
X72669884Y-27773963D02*
X72527027Y-27726344D01*
X72527027Y-27726344D02*
X72431789Y-27631105D01*
X72431789Y-27631105D02*
X72384170Y-27535867D01*
X72384170Y-27535867D02*
X72336551Y-27345391D01*
X72336551Y-27345391D02*
X72336551Y-27202534D01*
X72336551Y-27202534D02*
X72384170Y-27012058D01*
X72384170Y-27012058D02*
X72431789Y-26916820D01*
X72431789Y-26916820D02*
X72527027Y-26821582D01*
X72527027Y-26821582D02*
X72669884Y-26773963D01*
X72669884Y-26773963D02*
X72765122Y-26773963D01*
X72765122Y-26773963D02*
X72907979Y-26821582D01*
X72907979Y-26821582D02*
X72955598Y-26869201D01*
X73527027Y-27202534D02*
X73431789Y-27154915D01*
X73431789Y-27154915D02*
X73384170Y-27107296D01*
X73384170Y-27107296D02*
X73336551Y-27012058D01*
X73336551Y-27012058D02*
X73336551Y-26964439D01*
X73336551Y-26964439D02*
X73384170Y-26869201D01*
X73384170Y-26869201D02*
X73431789Y-26821582D01*
X73431789Y-26821582D02*
X73527027Y-26773963D01*
X73527027Y-26773963D02*
X73717503Y-26773963D01*
X73717503Y-26773963D02*
X73812741Y-26821582D01*
X73812741Y-26821582D02*
X73860360Y-26869201D01*
X73860360Y-26869201D02*
X73907979Y-26964439D01*
X73907979Y-26964439D02*
X73907979Y-27012058D01*
X73907979Y-27012058D02*
X73860360Y-27107296D01*
X73860360Y-27107296D02*
X73812741Y-27154915D01*
X73812741Y-27154915D02*
X73717503Y-27202534D01*
X73717503Y-27202534D02*
X73527027Y-27202534D01*
X73527027Y-27202534D02*
X73431789Y-27250153D01*
X73431789Y-27250153D02*
X73384170Y-27297772D01*
X73384170Y-27297772D02*
X73336551Y-27393010D01*
X73336551Y-27393010D02*
X73336551Y-27583486D01*
X73336551Y-27583486D02*
X73384170Y-27678724D01*
X73384170Y-27678724D02*
X73431789Y-27726344D01*
X73431789Y-27726344D02*
X73527027Y-27773963D01*
X73527027Y-27773963D02*
X73717503Y-27773963D01*
X73717503Y-27773963D02*
X73812741Y-27726344D01*
X73812741Y-27726344D02*
X73860360Y-27678724D01*
X73860360Y-27678724D02*
X73907979Y-27583486D01*
X73907979Y-27583486D02*
X73907979Y-27393010D01*
X73907979Y-27393010D02*
X73860360Y-27297772D01*
X73860360Y-27297772D02*
X73812741Y-27250153D01*
X73812741Y-27250153D02*
X73717503Y-27202534D01*
X72955598Y-29678724D02*
X72907979Y-29726344D01*
X72907979Y-29726344D02*
X72765122Y-29773963D01*
X72765122Y-29773963D02*
X72669884Y-29773963D01*
X72669884Y-29773963D02*
X72527027Y-29726344D01*
X72527027Y-29726344D02*
X72431789Y-29631105D01*
X72431789Y-29631105D02*
X72384170Y-29535867D01*
X72384170Y-29535867D02*
X72336551Y-29345391D01*
X72336551Y-29345391D02*
X72336551Y-29202534D01*
X72336551Y-29202534D02*
X72384170Y-29012058D01*
X72384170Y-29012058D02*
X72431789Y-28916820D01*
X72431789Y-28916820D02*
X72527027Y-28821582D01*
X72527027Y-28821582D02*
X72669884Y-28773963D01*
X72669884Y-28773963D02*
X72765122Y-28773963D01*
X72765122Y-28773963D02*
X72907979Y-28821582D01*
X72907979Y-28821582D02*
X72955598Y-28869201D01*
X73288932Y-28773963D02*
X73907979Y-28773963D01*
X73907979Y-28773963D02*
X73574646Y-29154915D01*
X73574646Y-29154915D02*
X73717503Y-29154915D01*
X73717503Y-29154915D02*
X73812741Y-29202534D01*
X73812741Y-29202534D02*
X73860360Y-29250153D01*
X73860360Y-29250153D02*
X73907979Y-29345391D01*
X73907979Y-29345391D02*
X73907979Y-29583486D01*
X73907979Y-29583486D02*
X73860360Y-29678724D01*
X73860360Y-29678724D02*
X73812741Y-29726344D01*
X73812741Y-29726344D02*
X73717503Y-29773963D01*
X73717503Y-29773963D02*
X73431789Y-29773963D01*
X73431789Y-29773963D02*
X73336551Y-29726344D01*
X73336551Y-29726344D02*
X73288932Y-29678724D01*
X75579407Y-35128724D02*
X75531788Y-35176344D01*
X75531788Y-35176344D02*
X75388931Y-35223963D01*
X75388931Y-35223963D02*
X75293693Y-35223963D01*
X75293693Y-35223963D02*
X75150836Y-35176344D01*
X75150836Y-35176344D02*
X75055598Y-35081105D01*
X75055598Y-35081105D02*
X75007979Y-34985867D01*
X75007979Y-34985867D02*
X74960360Y-34795391D01*
X74960360Y-34795391D02*
X74960360Y-34652534D01*
X74960360Y-34652534D02*
X75007979Y-34462058D01*
X75007979Y-34462058D02*
X75055598Y-34366820D01*
X75055598Y-34366820D02*
X75150836Y-34271582D01*
X75150836Y-34271582D02*
X75293693Y-34223963D01*
X75293693Y-34223963D02*
X75388931Y-34223963D01*
X75388931Y-34223963D02*
X75531788Y-34271582D01*
X75531788Y-34271582D02*
X75579407Y-34319201D01*
X75960360Y-34319201D02*
X76007979Y-34271582D01*
X76007979Y-34271582D02*
X76103217Y-34223963D01*
X76103217Y-34223963D02*
X76341312Y-34223963D01*
X76341312Y-34223963D02*
X76436550Y-34271582D01*
X76436550Y-34271582D02*
X76484169Y-34319201D01*
X76484169Y-34319201D02*
X76531788Y-34414439D01*
X76531788Y-34414439D02*
X76531788Y-34509677D01*
X76531788Y-34509677D02*
X76484169Y-34652534D01*
X76484169Y-34652534D02*
X75912741Y-35223963D01*
X75912741Y-35223963D02*
X76531788Y-35223963D01*
X76912741Y-34319201D02*
X76960360Y-34271582D01*
X76960360Y-34271582D02*
X77055598Y-34223963D01*
X77055598Y-34223963D02*
X77293693Y-34223963D01*
X77293693Y-34223963D02*
X77388931Y-34271582D01*
X77388931Y-34271582D02*
X77436550Y-34319201D01*
X77436550Y-34319201D02*
X77484169Y-34414439D01*
X77484169Y-34414439D02*
X77484169Y-34509677D01*
X77484169Y-34509677D02*
X77436550Y-34652534D01*
X77436550Y-34652534D02*
X76865122Y-35223963D01*
X76865122Y-35223963D02*
X77484169Y-35223963D01*
X81979407Y-35373963D02*
X81646074Y-34897772D01*
X81407979Y-35373963D02*
X81407979Y-34373963D01*
X81407979Y-34373963D02*
X81788931Y-34373963D01*
X81788931Y-34373963D02*
X81884169Y-34421582D01*
X81884169Y-34421582D02*
X81931788Y-34469201D01*
X81931788Y-34469201D02*
X81979407Y-34564439D01*
X81979407Y-34564439D02*
X81979407Y-34707296D01*
X81979407Y-34707296D02*
X81931788Y-34802534D01*
X81931788Y-34802534D02*
X81884169Y-34850153D01*
X81884169Y-34850153D02*
X81788931Y-34897772D01*
X81788931Y-34897772D02*
X81407979Y-34897772D01*
X82931788Y-35373963D02*
X82360360Y-35373963D01*
X82646074Y-35373963D02*
X82646074Y-34373963D01*
X82646074Y-34373963D02*
X82550836Y-34516820D01*
X82550836Y-34516820D02*
X82455598Y-34612058D01*
X82455598Y-34612058D02*
X82360360Y-34659677D01*
X83312741Y-34469201D02*
X83360360Y-34421582D01*
X83360360Y-34421582D02*
X83455598Y-34373963D01*
X83455598Y-34373963D02*
X83693693Y-34373963D01*
X83693693Y-34373963D02*
X83788931Y-34421582D01*
X83788931Y-34421582D02*
X83836550Y-34469201D01*
X83836550Y-34469201D02*
X83884169Y-34564439D01*
X83884169Y-34564439D02*
X83884169Y-34659677D01*
X83884169Y-34659677D02*
X83836550Y-34802534D01*
X83836550Y-34802534D02*
X83265122Y-35373963D01*
X83265122Y-35373963D02*
X83884169Y-35373963D01*
X78938931Y-22423963D02*
X78938931Y-23138248D01*
X78938931Y-23138248D02*
X78891312Y-23281105D01*
X78891312Y-23281105D02*
X78796074Y-23376344D01*
X78796074Y-23376344D02*
X78653217Y-23423963D01*
X78653217Y-23423963D02*
X78557979Y-23423963D01*
X79415122Y-23423963D02*
X79415122Y-22423963D01*
X79415122Y-22423963D02*
X79796074Y-22423963D01*
X79796074Y-22423963D02*
X79891312Y-22471582D01*
X79891312Y-22471582D02*
X79938931Y-22519201D01*
X79938931Y-22519201D02*
X79986550Y-22614439D01*
X79986550Y-22614439D02*
X79986550Y-22757296D01*
X79986550Y-22757296D02*
X79938931Y-22852534D01*
X79938931Y-22852534D02*
X79891312Y-22900153D01*
X79891312Y-22900153D02*
X79796074Y-22947772D01*
X79796074Y-22947772D02*
X79415122Y-22947772D01*
X80319884Y-22423963D02*
X80938931Y-22423963D01*
X80938931Y-22423963D02*
X80605598Y-22804915D01*
X80605598Y-22804915D02*
X80748455Y-22804915D01*
X80748455Y-22804915D02*
X80843693Y-22852534D01*
X80843693Y-22852534D02*
X80891312Y-22900153D01*
X80891312Y-22900153D02*
X80938931Y-22995391D01*
X80938931Y-22995391D02*
X80938931Y-23233486D01*
X80938931Y-23233486D02*
X80891312Y-23328724D01*
X80891312Y-23328724D02*
X80843693Y-23376344D01*
X80843693Y-23376344D02*
X80748455Y-23423963D01*
X80748455Y-23423963D02*
X80462741Y-23423963D01*
X80462741Y-23423963D02*
X80367503Y-23376344D01*
X80367503Y-23376344D02*
X80319884Y-23328724D01*
X64881845Y-25162001D02*
X64929465Y-25209620D01*
X64929465Y-25209620D02*
X64977084Y-25352477D01*
X64977084Y-25352477D02*
X64977084Y-25447715D01*
X64977084Y-25447715D02*
X64929465Y-25590572D01*
X64929465Y-25590572D02*
X64834226Y-25685810D01*
X64834226Y-25685810D02*
X64738988Y-25733429D01*
X64738988Y-25733429D02*
X64548512Y-25781048D01*
X64548512Y-25781048D02*
X64405655Y-25781048D01*
X64405655Y-25781048D02*
X64215179Y-25733429D01*
X64215179Y-25733429D02*
X64119941Y-25685810D01*
X64119941Y-25685810D02*
X64024703Y-25590572D01*
X64024703Y-25590572D02*
X63977084Y-25447715D01*
X63977084Y-25447715D02*
X63977084Y-25352477D01*
X63977084Y-25352477D02*
X64024703Y-25209620D01*
X64024703Y-25209620D02*
X64072322Y-25162001D01*
X64977084Y-24209620D02*
X64977084Y-24781048D01*
X64977084Y-24495334D02*
X63977084Y-24495334D01*
X63977084Y-24495334D02*
X64119941Y-24590572D01*
X64119941Y-24590572D02*
X64215179Y-24685810D01*
X64215179Y-24685810D02*
X64262798Y-24781048D01*
X63977084Y-23590572D02*
X63977084Y-23495334D01*
X63977084Y-23495334D02*
X64024703Y-23400096D01*
X64024703Y-23400096D02*
X64072322Y-23352477D01*
X64072322Y-23352477D02*
X64167560Y-23304858D01*
X64167560Y-23304858D02*
X64358036Y-23257239D01*
X64358036Y-23257239D02*
X64596131Y-23257239D01*
X64596131Y-23257239D02*
X64786607Y-23304858D01*
X64786607Y-23304858D02*
X64881845Y-23352477D01*
X64881845Y-23352477D02*
X64929465Y-23400096D01*
X64929465Y-23400096D02*
X64977084Y-23495334D01*
X64977084Y-23495334D02*
X64977084Y-23590572D01*
X64977084Y-23590572D02*
X64929465Y-23685810D01*
X64929465Y-23685810D02*
X64881845Y-23733429D01*
X64881845Y-23733429D02*
X64786607Y-23781048D01*
X64786607Y-23781048D02*
X64596131Y-23828667D01*
X64596131Y-23828667D02*
X64358036Y-23828667D01*
X64358036Y-23828667D02*
X64167560Y-23781048D01*
X64167560Y-23781048D02*
X64072322Y-23733429D01*
X64072322Y-23733429D02*
X64024703Y-23685810D01*
X64024703Y-23685810D02*
X63977084Y-23590572D01*
X56079407Y-27878724D02*
X56031788Y-27926344D01*
X56031788Y-27926344D02*
X55888931Y-27973963D01*
X55888931Y-27973963D02*
X55793693Y-27973963D01*
X55793693Y-27973963D02*
X55650836Y-27926344D01*
X55650836Y-27926344D02*
X55555598Y-27831105D01*
X55555598Y-27831105D02*
X55507979Y-27735867D01*
X55507979Y-27735867D02*
X55460360Y-27545391D01*
X55460360Y-27545391D02*
X55460360Y-27402534D01*
X55460360Y-27402534D02*
X55507979Y-27212058D01*
X55507979Y-27212058D02*
X55555598Y-27116820D01*
X55555598Y-27116820D02*
X55650836Y-27021582D01*
X55650836Y-27021582D02*
X55793693Y-26973963D01*
X55793693Y-26973963D02*
X55888931Y-26973963D01*
X55888931Y-26973963D02*
X56031788Y-27021582D01*
X56031788Y-27021582D02*
X56079407Y-27069201D01*
X57031788Y-27973963D02*
X56460360Y-27973963D01*
X56746074Y-27973963D02*
X56746074Y-26973963D01*
X56746074Y-26973963D02*
X56650836Y-27116820D01*
X56650836Y-27116820D02*
X56555598Y-27212058D01*
X56555598Y-27212058D02*
X56460360Y-27259677D01*
X57365122Y-26973963D02*
X57984169Y-26973963D01*
X57984169Y-26973963D02*
X57650836Y-27354915D01*
X57650836Y-27354915D02*
X57793693Y-27354915D01*
X57793693Y-27354915D02*
X57888931Y-27402534D01*
X57888931Y-27402534D02*
X57936550Y-27450153D01*
X57936550Y-27450153D02*
X57984169Y-27545391D01*
X57984169Y-27545391D02*
X57984169Y-27783486D01*
X57984169Y-27783486D02*
X57936550Y-27878724D01*
X57936550Y-27878724D02*
X57888931Y-27926344D01*
X57888931Y-27926344D02*
X57793693Y-27973963D01*
X57793693Y-27973963D02*
X57507979Y-27973963D01*
X57507979Y-27973963D02*
X57412741Y-27926344D01*
X57412741Y-27926344D02*
X57365122Y-27878724D01*
X60888931Y-17023963D02*
X60888931Y-17738248D01*
X60888931Y-17738248D02*
X60841312Y-17881105D01*
X60841312Y-17881105D02*
X60746074Y-17976344D01*
X60746074Y-17976344D02*
X60603217Y-18023963D01*
X60603217Y-18023963D02*
X60507979Y-18023963D01*
X61365122Y-18023963D02*
X61365122Y-17023963D01*
X61365122Y-17023963D02*
X61746074Y-17023963D01*
X61746074Y-17023963D02*
X61841312Y-17071582D01*
X61841312Y-17071582D02*
X61888931Y-17119201D01*
X61888931Y-17119201D02*
X61936550Y-17214439D01*
X61936550Y-17214439D02*
X61936550Y-17357296D01*
X61936550Y-17357296D02*
X61888931Y-17452534D01*
X61888931Y-17452534D02*
X61841312Y-17500153D01*
X61841312Y-17500153D02*
X61746074Y-17547772D01*
X61746074Y-17547772D02*
X61365122Y-17547772D01*
X62888931Y-18023963D02*
X62317503Y-18023963D01*
X62603217Y-18023963D02*
X62603217Y-17023963D01*
X62603217Y-17023963D02*
X62507979Y-17166820D01*
X62507979Y-17166820D02*
X62412741Y-17262058D01*
X62412741Y-17262058D02*
X62317503Y-17309677D01*
X69919407Y-42823963D02*
X69586074Y-42347772D01*
X69347979Y-42823963D02*
X69347979Y-41823963D01*
X69347979Y-41823963D02*
X69728931Y-41823963D01*
X69728931Y-41823963D02*
X69824169Y-41871582D01*
X69824169Y-41871582D02*
X69871788Y-41919201D01*
X69871788Y-41919201D02*
X69919407Y-42014439D01*
X69919407Y-42014439D02*
X69919407Y-42157296D01*
X69919407Y-42157296D02*
X69871788Y-42252534D01*
X69871788Y-42252534D02*
X69824169Y-42300153D01*
X69824169Y-42300153D02*
X69728931Y-42347772D01*
X69728931Y-42347772D02*
X69347979Y-42347772D01*
X70871788Y-42823963D02*
X70300360Y-42823963D01*
X70586074Y-42823963D02*
X70586074Y-41823963D01*
X70586074Y-41823963D02*
X70490836Y-41966820D01*
X70490836Y-41966820D02*
X70395598Y-42062058D01*
X70395598Y-42062058D02*
X70300360Y-42109677D01*
X71776550Y-41823963D02*
X71300360Y-41823963D01*
X71300360Y-41823963D02*
X71252741Y-42300153D01*
X71252741Y-42300153D02*
X71300360Y-42252534D01*
X71300360Y-42252534D02*
X71395598Y-42204915D01*
X71395598Y-42204915D02*
X71633693Y-42204915D01*
X71633693Y-42204915D02*
X71728931Y-42252534D01*
X71728931Y-42252534D02*
X71776550Y-42300153D01*
X71776550Y-42300153D02*
X71824169Y-42395391D01*
X71824169Y-42395391D02*
X71824169Y-42633486D01*
X71824169Y-42633486D02*
X71776550Y-42728724D01*
X71776550Y-42728724D02*
X71728931Y-42776344D01*
X71728931Y-42776344D02*
X71633693Y-42823963D01*
X71633693Y-42823963D02*
X71395598Y-42823963D01*
X71395598Y-42823963D02*
X71300360Y-42776344D01*
X71300360Y-42776344D02*
X71252741Y-42728724D01*
X65438931Y-44186463D02*
X65438931Y-44900748D01*
X65438931Y-44900748D02*
X65391312Y-45043605D01*
X65391312Y-45043605D02*
X65296074Y-45138844D01*
X65296074Y-45138844D02*
X65153217Y-45186463D01*
X65153217Y-45186463D02*
X65057979Y-45186463D01*
X65819884Y-44186463D02*
X66438931Y-44186463D01*
X66438931Y-44186463D02*
X66105598Y-44567415D01*
X66105598Y-44567415D02*
X66248455Y-44567415D01*
X66248455Y-44567415D02*
X66343693Y-44615034D01*
X66343693Y-44615034D02*
X66391312Y-44662653D01*
X66391312Y-44662653D02*
X66438931Y-44757891D01*
X66438931Y-44757891D02*
X66438931Y-44995986D01*
X66438931Y-44995986D02*
X66391312Y-45091224D01*
X66391312Y-45091224D02*
X66343693Y-45138844D01*
X66343693Y-45138844D02*
X66248455Y-45186463D01*
X66248455Y-45186463D02*
X65962741Y-45186463D01*
X65962741Y-45186463D02*
X65867503Y-45138844D01*
X65867503Y-45138844D02*
X65819884Y-45091224D01*
X58127084Y-31081048D02*
X58936607Y-31081048D01*
X58936607Y-31081048D02*
X59031845Y-31033429D01*
X59031845Y-31033429D02*
X59079465Y-30985810D01*
X59079465Y-30985810D02*
X59127084Y-30890572D01*
X59127084Y-30890572D02*
X59127084Y-30700096D01*
X59127084Y-30700096D02*
X59079465Y-30604858D01*
X59079465Y-30604858D02*
X59031845Y-30557239D01*
X59031845Y-30557239D02*
X58936607Y-30509620D01*
X58936607Y-30509620D02*
X58127084Y-30509620D01*
X59127084Y-29509620D02*
X59127084Y-30081048D01*
X59127084Y-29795334D02*
X58127084Y-29795334D01*
X58127084Y-29795334D02*
X58269941Y-29890572D01*
X58269941Y-29890572D02*
X58365179Y-29985810D01*
X58365179Y-29985810D02*
X58412798Y-30081048D01*
X35991845Y-32012001D02*
X36039465Y-32059620D01*
X36039465Y-32059620D02*
X36087084Y-32202477D01*
X36087084Y-32202477D02*
X36087084Y-32297715D01*
X36087084Y-32297715D02*
X36039465Y-32440572D01*
X36039465Y-32440572D02*
X35944226Y-32535810D01*
X35944226Y-32535810D02*
X35848988Y-32583429D01*
X35848988Y-32583429D02*
X35658512Y-32631048D01*
X35658512Y-32631048D02*
X35515655Y-32631048D01*
X35515655Y-32631048D02*
X35325179Y-32583429D01*
X35325179Y-32583429D02*
X35229941Y-32535810D01*
X35229941Y-32535810D02*
X35134703Y-32440572D01*
X35134703Y-32440572D02*
X35087084Y-32297715D01*
X35087084Y-32297715D02*
X35087084Y-32202477D01*
X35087084Y-32202477D02*
X35134703Y-32059620D01*
X35134703Y-32059620D02*
X35182322Y-32012001D01*
X35182322Y-31631048D02*
X35134703Y-31583429D01*
X35134703Y-31583429D02*
X35087084Y-31488191D01*
X35087084Y-31488191D02*
X35087084Y-31250096D01*
X35087084Y-31250096D02*
X35134703Y-31154858D01*
X35134703Y-31154858D02*
X35182322Y-31107239D01*
X35182322Y-31107239D02*
X35277560Y-31059620D01*
X35277560Y-31059620D02*
X35372798Y-31059620D01*
X35372798Y-31059620D02*
X35515655Y-31107239D01*
X35515655Y-31107239D02*
X36087084Y-31678667D01*
X36087084Y-31678667D02*
X36087084Y-31059620D01*
X36087084Y-30583429D02*
X36087084Y-30392953D01*
X36087084Y-30392953D02*
X36039465Y-30297715D01*
X36039465Y-30297715D02*
X35991845Y-30250096D01*
X35991845Y-30250096D02*
X35848988Y-30154858D01*
X35848988Y-30154858D02*
X35658512Y-30107239D01*
X35658512Y-30107239D02*
X35277560Y-30107239D01*
X35277560Y-30107239D02*
X35182322Y-30154858D01*
X35182322Y-30154858D02*
X35134703Y-30202477D01*
X35134703Y-30202477D02*
X35087084Y-30297715D01*
X35087084Y-30297715D02*
X35087084Y-30488191D01*
X35087084Y-30488191D02*
X35134703Y-30583429D01*
X35134703Y-30583429D02*
X35182322Y-30631048D01*
X35182322Y-30631048D02*
X35277560Y-30678667D01*
X35277560Y-30678667D02*
X35515655Y-30678667D01*
X35515655Y-30678667D02*
X35610893Y-30631048D01*
X35610893Y-30631048D02*
X35658512Y-30583429D01*
X35658512Y-30583429D02*
X35706131Y-30488191D01*
X35706131Y-30488191D02*
X35706131Y-30297715D01*
X35706131Y-30297715D02*
X35658512Y-30202477D01*
X35658512Y-30202477D02*
X35610893Y-30154858D01*
X35610893Y-30154858D02*
X35515655Y-30107239D01*
X76079407Y-32378724D02*
X76031788Y-32426344D01*
X76031788Y-32426344D02*
X75888931Y-32473963D01*
X75888931Y-32473963D02*
X75793693Y-32473963D01*
X75793693Y-32473963D02*
X75650836Y-32426344D01*
X75650836Y-32426344D02*
X75555598Y-32331105D01*
X75555598Y-32331105D02*
X75507979Y-32235867D01*
X75507979Y-32235867D02*
X75460360Y-32045391D01*
X75460360Y-32045391D02*
X75460360Y-31902534D01*
X75460360Y-31902534D02*
X75507979Y-31712058D01*
X75507979Y-31712058D02*
X75555598Y-31616820D01*
X75555598Y-31616820D02*
X75650836Y-31521582D01*
X75650836Y-31521582D02*
X75793693Y-31473963D01*
X75793693Y-31473963D02*
X75888931Y-31473963D01*
X75888931Y-31473963D02*
X76031788Y-31521582D01*
X76031788Y-31521582D02*
X76079407Y-31569201D01*
X76460360Y-31569201D02*
X76507979Y-31521582D01*
X76507979Y-31521582D02*
X76603217Y-31473963D01*
X76603217Y-31473963D02*
X76841312Y-31473963D01*
X76841312Y-31473963D02*
X76936550Y-31521582D01*
X76936550Y-31521582D02*
X76984169Y-31569201D01*
X76984169Y-31569201D02*
X77031788Y-31664439D01*
X77031788Y-31664439D02*
X77031788Y-31759677D01*
X77031788Y-31759677D02*
X76984169Y-31902534D01*
X76984169Y-31902534D02*
X76412741Y-32473963D01*
X76412741Y-32473963D02*
X77031788Y-32473963D01*
X77984169Y-32473963D02*
X77412741Y-32473963D01*
X77698455Y-32473963D02*
X77698455Y-31473963D01*
X77698455Y-31473963D02*
X77603217Y-31616820D01*
X77603217Y-31616820D02*
X77507979Y-31712058D01*
X77507979Y-31712058D02*
X77412741Y-31759677D01*
X29241907Y-31643963D02*
X28908574Y-31167772D01*
X28670479Y-31643963D02*
X28670479Y-30643963D01*
X28670479Y-30643963D02*
X29051431Y-30643963D01*
X29051431Y-30643963D02*
X29146669Y-30691582D01*
X29146669Y-30691582D02*
X29194288Y-30739201D01*
X29194288Y-30739201D02*
X29241907Y-30834439D01*
X29241907Y-30834439D02*
X29241907Y-30977296D01*
X29241907Y-30977296D02*
X29194288Y-31072534D01*
X29194288Y-31072534D02*
X29146669Y-31120153D01*
X29146669Y-31120153D02*
X29051431Y-31167772D01*
X29051431Y-31167772D02*
X28670479Y-31167772D01*
X30194288Y-31643963D02*
X29622860Y-31643963D01*
X29908574Y-31643963D02*
X29908574Y-30643963D01*
X29908574Y-30643963D02*
X29813336Y-30786820D01*
X29813336Y-30786820D02*
X29718098Y-30882058D01*
X29718098Y-30882058D02*
X29622860Y-30929677D01*
X30670479Y-31643963D02*
X30860955Y-31643963D01*
X30860955Y-31643963D02*
X30956193Y-31596344D01*
X30956193Y-31596344D02*
X31003812Y-31548724D01*
X31003812Y-31548724D02*
X31099050Y-31405867D01*
X31099050Y-31405867D02*
X31146669Y-31215391D01*
X31146669Y-31215391D02*
X31146669Y-30834439D01*
X31146669Y-30834439D02*
X31099050Y-30739201D01*
X31099050Y-30739201D02*
X31051431Y-30691582D01*
X31051431Y-30691582D02*
X30956193Y-30643963D01*
X30956193Y-30643963D02*
X30765717Y-30643963D01*
X30765717Y-30643963D02*
X30670479Y-30691582D01*
X30670479Y-30691582D02*
X30622860Y-30739201D01*
X30622860Y-30739201D02*
X30575241Y-30834439D01*
X30575241Y-30834439D02*
X30575241Y-31072534D01*
X30575241Y-31072534D02*
X30622860Y-31167772D01*
X30622860Y-31167772D02*
X30670479Y-31215391D01*
X30670479Y-31215391D02*
X30765717Y-31263010D01*
X30765717Y-31263010D02*
X30956193Y-31263010D01*
X30956193Y-31263010D02*
X31051431Y-31215391D01*
X31051431Y-31215391D02*
X31099050Y-31167772D01*
X31099050Y-31167772D02*
X31146669Y-31072534D01*
X67088931Y-18161463D02*
X67088931Y-18875748D01*
X67088931Y-18875748D02*
X67041312Y-19018605D01*
X67041312Y-19018605D02*
X66946074Y-19113844D01*
X66946074Y-19113844D02*
X66803217Y-19161463D01*
X66803217Y-19161463D02*
X66707979Y-19161463D01*
X67517503Y-18256701D02*
X67565122Y-18209082D01*
X67565122Y-18209082D02*
X67660360Y-18161463D01*
X67660360Y-18161463D02*
X67898455Y-18161463D01*
X67898455Y-18161463D02*
X67993693Y-18209082D01*
X67993693Y-18209082D02*
X68041312Y-18256701D01*
X68041312Y-18256701D02*
X68088931Y-18351939D01*
X68088931Y-18351939D02*
X68088931Y-18447177D01*
X68088931Y-18447177D02*
X68041312Y-18590034D01*
X68041312Y-18590034D02*
X67469884Y-19161463D01*
X67469884Y-19161463D02*
X68088931Y-19161463D01*
X59281845Y-35485810D02*
X59329465Y-35533429D01*
X59329465Y-35533429D02*
X59377084Y-35676286D01*
X59377084Y-35676286D02*
X59377084Y-35771524D01*
X59377084Y-35771524D02*
X59329465Y-35914381D01*
X59329465Y-35914381D02*
X59234226Y-36009619D01*
X59234226Y-36009619D02*
X59138988Y-36057238D01*
X59138988Y-36057238D02*
X58948512Y-36104857D01*
X58948512Y-36104857D02*
X58805655Y-36104857D01*
X58805655Y-36104857D02*
X58615179Y-36057238D01*
X58615179Y-36057238D02*
X58519941Y-36009619D01*
X58519941Y-36009619D02*
X58424703Y-35914381D01*
X58424703Y-35914381D02*
X58377084Y-35771524D01*
X58377084Y-35771524D02*
X58377084Y-35676286D01*
X58377084Y-35676286D02*
X58424703Y-35533429D01*
X58424703Y-35533429D02*
X58472322Y-35485810D01*
X58472322Y-35104857D02*
X58424703Y-35057238D01*
X58424703Y-35057238D02*
X58377084Y-34962000D01*
X58377084Y-34962000D02*
X58377084Y-34723905D01*
X58377084Y-34723905D02*
X58424703Y-34628667D01*
X58424703Y-34628667D02*
X58472322Y-34581048D01*
X58472322Y-34581048D02*
X58567560Y-34533429D01*
X58567560Y-34533429D02*
X58662798Y-34533429D01*
X58662798Y-34533429D02*
X58805655Y-34581048D01*
X58805655Y-34581048D02*
X59377084Y-35152476D01*
X59377084Y-35152476D02*
X59377084Y-34533429D01*
X81955598Y-36473963D02*
X81622265Y-35997772D01*
X81384170Y-36473963D02*
X81384170Y-35473963D01*
X81384170Y-35473963D02*
X81765122Y-35473963D01*
X81765122Y-35473963D02*
X81860360Y-35521582D01*
X81860360Y-35521582D02*
X81907979Y-35569201D01*
X81907979Y-35569201D02*
X81955598Y-35664439D01*
X81955598Y-35664439D02*
X81955598Y-35807296D01*
X81955598Y-35807296D02*
X81907979Y-35902534D01*
X81907979Y-35902534D02*
X81860360Y-35950153D01*
X81860360Y-35950153D02*
X81765122Y-35997772D01*
X81765122Y-35997772D02*
X81384170Y-35997772D01*
X82431789Y-36473963D02*
X82622265Y-36473963D01*
X82622265Y-36473963D02*
X82717503Y-36426344D01*
X82717503Y-36426344D02*
X82765122Y-36378724D01*
X82765122Y-36378724D02*
X82860360Y-36235867D01*
X82860360Y-36235867D02*
X82907979Y-36045391D01*
X82907979Y-36045391D02*
X82907979Y-35664439D01*
X82907979Y-35664439D02*
X82860360Y-35569201D01*
X82860360Y-35569201D02*
X82812741Y-35521582D01*
X82812741Y-35521582D02*
X82717503Y-35473963D01*
X82717503Y-35473963D02*
X82527027Y-35473963D01*
X82527027Y-35473963D02*
X82431789Y-35521582D01*
X82431789Y-35521582D02*
X82384170Y-35569201D01*
X82384170Y-35569201D02*
X82336551Y-35664439D01*
X82336551Y-35664439D02*
X82336551Y-35902534D01*
X82336551Y-35902534D02*
X82384170Y-35997772D01*
X82384170Y-35997772D02*
X82431789Y-36045391D01*
X82431789Y-36045391D02*
X82527027Y-36093010D01*
X82527027Y-36093010D02*
X82717503Y-36093010D01*
X82717503Y-36093010D02*
X82812741Y-36045391D01*
X82812741Y-36045391D02*
X82860360Y-35997772D01*
X82860360Y-35997772D02*
X82907979Y-35902534D01*
X61979407Y-34678724D02*
X61931788Y-34726344D01*
X61931788Y-34726344D02*
X61788931Y-34773963D01*
X61788931Y-34773963D02*
X61693693Y-34773963D01*
X61693693Y-34773963D02*
X61550836Y-34726344D01*
X61550836Y-34726344D02*
X61455598Y-34631105D01*
X61455598Y-34631105D02*
X61407979Y-34535867D01*
X61407979Y-34535867D02*
X61360360Y-34345391D01*
X61360360Y-34345391D02*
X61360360Y-34202534D01*
X61360360Y-34202534D02*
X61407979Y-34012058D01*
X61407979Y-34012058D02*
X61455598Y-33916820D01*
X61455598Y-33916820D02*
X61550836Y-33821582D01*
X61550836Y-33821582D02*
X61693693Y-33773963D01*
X61693693Y-33773963D02*
X61788931Y-33773963D01*
X61788931Y-33773963D02*
X61931788Y-33821582D01*
X61931788Y-33821582D02*
X61979407Y-33869201D01*
X62931788Y-34773963D02*
X62360360Y-34773963D01*
X62646074Y-34773963D02*
X62646074Y-33773963D01*
X62646074Y-33773963D02*
X62550836Y-33916820D01*
X62550836Y-33916820D02*
X62455598Y-34012058D01*
X62455598Y-34012058D02*
X62360360Y-34059677D01*
X63788931Y-34107296D02*
X63788931Y-34773963D01*
X63550836Y-33726344D02*
X63312741Y-34440629D01*
X63312741Y-34440629D02*
X63931788Y-34440629D01*
X25534170Y-26043963D02*
X25534170Y-25043963D01*
X25534170Y-25043963D02*
X25772265Y-25043963D01*
X25772265Y-25043963D02*
X25915122Y-25091582D01*
X25915122Y-25091582D02*
X26010360Y-25186820D01*
X26010360Y-25186820D02*
X26057979Y-25282058D01*
X26057979Y-25282058D02*
X26105598Y-25472534D01*
X26105598Y-25472534D02*
X26105598Y-25615391D01*
X26105598Y-25615391D02*
X26057979Y-25805867D01*
X26057979Y-25805867D02*
X26010360Y-25901105D01*
X26010360Y-25901105D02*
X25915122Y-25996344D01*
X25915122Y-25996344D02*
X25772265Y-26043963D01*
X25772265Y-26043963D02*
X25534170Y-26043963D01*
X27057979Y-26043963D02*
X26486551Y-26043963D01*
X26772265Y-26043963D02*
X26772265Y-25043963D01*
X26772265Y-25043963D02*
X26677027Y-25186820D01*
X26677027Y-25186820D02*
X26581789Y-25282058D01*
X26581789Y-25282058D02*
X26486551Y-25329677D01*
X72915598Y-30678724D02*
X72867979Y-30726344D01*
X72867979Y-30726344D02*
X72725122Y-30773963D01*
X72725122Y-30773963D02*
X72629884Y-30773963D01*
X72629884Y-30773963D02*
X72487027Y-30726344D01*
X72487027Y-30726344D02*
X72391789Y-30631105D01*
X72391789Y-30631105D02*
X72344170Y-30535867D01*
X72344170Y-30535867D02*
X72296551Y-30345391D01*
X72296551Y-30345391D02*
X72296551Y-30202534D01*
X72296551Y-30202534D02*
X72344170Y-30012058D01*
X72344170Y-30012058D02*
X72391789Y-29916820D01*
X72391789Y-29916820D02*
X72487027Y-29821582D01*
X72487027Y-29821582D02*
X72629884Y-29773963D01*
X72629884Y-29773963D02*
X72725122Y-29773963D01*
X72725122Y-29773963D02*
X72867979Y-29821582D01*
X72867979Y-29821582D02*
X72915598Y-29869201D01*
X73772741Y-29773963D02*
X73582265Y-29773963D01*
X73582265Y-29773963D02*
X73487027Y-29821582D01*
X73487027Y-29821582D02*
X73439408Y-29869201D01*
X73439408Y-29869201D02*
X73344170Y-30012058D01*
X73344170Y-30012058D02*
X73296551Y-30202534D01*
X73296551Y-30202534D02*
X73296551Y-30583486D01*
X73296551Y-30583486D02*
X73344170Y-30678724D01*
X73344170Y-30678724D02*
X73391789Y-30726344D01*
X73391789Y-30726344D02*
X73487027Y-30773963D01*
X73487027Y-30773963D02*
X73677503Y-30773963D01*
X73677503Y-30773963D02*
X73772741Y-30726344D01*
X73772741Y-30726344D02*
X73820360Y-30678724D01*
X73820360Y-30678724D02*
X73867979Y-30583486D01*
X73867979Y-30583486D02*
X73867979Y-30345391D01*
X73867979Y-30345391D02*
X73820360Y-30250153D01*
X73820360Y-30250153D02*
X73772741Y-30202534D01*
X73772741Y-30202534D02*
X73677503Y-30154915D01*
X73677503Y-30154915D02*
X73487027Y-30154915D01*
X73487027Y-30154915D02*
X73391789Y-30202534D01*
X73391789Y-30202534D02*
X73344170Y-30250153D01*
X73344170Y-30250153D02*
X73296551Y-30345391D01*
X40741845Y-31999501D02*
X40789465Y-32047120D01*
X40789465Y-32047120D02*
X40837084Y-32189977D01*
X40837084Y-32189977D02*
X40837084Y-32285215D01*
X40837084Y-32285215D02*
X40789465Y-32428072D01*
X40789465Y-32428072D02*
X40694226Y-32523310D01*
X40694226Y-32523310D02*
X40598988Y-32570929D01*
X40598988Y-32570929D02*
X40408512Y-32618548D01*
X40408512Y-32618548D02*
X40265655Y-32618548D01*
X40265655Y-32618548D02*
X40075179Y-32570929D01*
X40075179Y-32570929D02*
X39979941Y-32523310D01*
X39979941Y-32523310D02*
X39884703Y-32428072D01*
X39884703Y-32428072D02*
X39837084Y-32285215D01*
X39837084Y-32285215D02*
X39837084Y-32189977D01*
X39837084Y-32189977D02*
X39884703Y-32047120D01*
X39884703Y-32047120D02*
X39932322Y-31999501D01*
X39932322Y-31618548D02*
X39884703Y-31570929D01*
X39884703Y-31570929D02*
X39837084Y-31475691D01*
X39837084Y-31475691D02*
X39837084Y-31237596D01*
X39837084Y-31237596D02*
X39884703Y-31142358D01*
X39884703Y-31142358D02*
X39932322Y-31094739D01*
X39932322Y-31094739D02*
X40027560Y-31047120D01*
X40027560Y-31047120D02*
X40122798Y-31047120D01*
X40122798Y-31047120D02*
X40265655Y-31094739D01*
X40265655Y-31094739D02*
X40837084Y-31666167D01*
X40837084Y-31666167D02*
X40837084Y-31047120D01*
X40265655Y-30475691D02*
X40218036Y-30570929D01*
X40218036Y-30570929D02*
X40170417Y-30618548D01*
X40170417Y-30618548D02*
X40075179Y-30666167D01*
X40075179Y-30666167D02*
X40027560Y-30666167D01*
X40027560Y-30666167D02*
X39932322Y-30618548D01*
X39932322Y-30618548D02*
X39884703Y-30570929D01*
X39884703Y-30570929D02*
X39837084Y-30475691D01*
X39837084Y-30475691D02*
X39837084Y-30285215D01*
X39837084Y-30285215D02*
X39884703Y-30189977D01*
X39884703Y-30189977D02*
X39932322Y-30142358D01*
X39932322Y-30142358D02*
X40027560Y-30094739D01*
X40027560Y-30094739D02*
X40075179Y-30094739D01*
X40075179Y-30094739D02*
X40170417Y-30142358D01*
X40170417Y-30142358D02*
X40218036Y-30189977D01*
X40218036Y-30189977D02*
X40265655Y-30285215D01*
X40265655Y-30285215D02*
X40265655Y-30475691D01*
X40265655Y-30475691D02*
X40313274Y-30570929D01*
X40313274Y-30570929D02*
X40360893Y-30618548D01*
X40360893Y-30618548D02*
X40456131Y-30666167D01*
X40456131Y-30666167D02*
X40646607Y-30666167D01*
X40646607Y-30666167D02*
X40741845Y-30618548D01*
X40741845Y-30618548D02*
X40789465Y-30570929D01*
X40789465Y-30570929D02*
X40837084Y-30475691D01*
X40837084Y-30475691D02*
X40837084Y-30285215D01*
X40837084Y-30285215D02*
X40789465Y-30189977D01*
X40789465Y-30189977D02*
X40741845Y-30142358D01*
X40741845Y-30142358D02*
X40646607Y-30094739D01*
X40646607Y-30094739D02*
X40456131Y-30094739D01*
X40456131Y-30094739D02*
X40360893Y-30142358D01*
X40360893Y-30142358D02*
X40313274Y-30189977D01*
X40313274Y-30189977D02*
X40265655Y-30285215D01*
X58281845Y-36462001D02*
X58329465Y-36509620D01*
X58329465Y-36509620D02*
X58377084Y-36652477D01*
X58377084Y-36652477D02*
X58377084Y-36747715D01*
X58377084Y-36747715D02*
X58329465Y-36890572D01*
X58329465Y-36890572D02*
X58234226Y-36985810D01*
X58234226Y-36985810D02*
X58138988Y-37033429D01*
X58138988Y-37033429D02*
X57948512Y-37081048D01*
X57948512Y-37081048D02*
X57805655Y-37081048D01*
X57805655Y-37081048D02*
X57615179Y-37033429D01*
X57615179Y-37033429D02*
X57519941Y-36985810D01*
X57519941Y-36985810D02*
X57424703Y-36890572D01*
X57424703Y-36890572D02*
X57377084Y-36747715D01*
X57377084Y-36747715D02*
X57377084Y-36652477D01*
X57377084Y-36652477D02*
X57424703Y-36509620D01*
X57424703Y-36509620D02*
X57472322Y-36462001D01*
X58377084Y-35509620D02*
X58377084Y-36081048D01*
X58377084Y-35795334D02*
X57377084Y-35795334D01*
X57377084Y-35795334D02*
X57519941Y-35890572D01*
X57519941Y-35890572D02*
X57615179Y-35985810D01*
X57615179Y-35985810D02*
X57662798Y-36081048D01*
X57377084Y-34652477D02*
X57377084Y-34842953D01*
X57377084Y-34842953D02*
X57424703Y-34938191D01*
X57424703Y-34938191D02*
X57472322Y-34985810D01*
X57472322Y-34985810D02*
X57615179Y-35081048D01*
X57615179Y-35081048D02*
X57805655Y-35128667D01*
X57805655Y-35128667D02*
X58186607Y-35128667D01*
X58186607Y-35128667D02*
X58281845Y-35081048D01*
X58281845Y-35081048D02*
X58329465Y-35033429D01*
X58329465Y-35033429D02*
X58377084Y-34938191D01*
X58377084Y-34938191D02*
X58377084Y-34747715D01*
X58377084Y-34747715D02*
X58329465Y-34652477D01*
X58329465Y-34652477D02*
X58281845Y-34604858D01*
X58281845Y-34604858D02*
X58186607Y-34557239D01*
X58186607Y-34557239D02*
X57948512Y-34557239D01*
X57948512Y-34557239D02*
X57853274Y-34604858D01*
X57853274Y-34604858D02*
X57805655Y-34652477D01*
X57805655Y-34652477D02*
X57758036Y-34747715D01*
X57758036Y-34747715D02*
X57758036Y-34938191D01*
X57758036Y-34938191D02*
X57805655Y-35033429D01*
X57805655Y-35033429D02*
X57853274Y-35081048D01*
X57853274Y-35081048D02*
X57948512Y-35128667D01*
X60777084Y-32685810D02*
X60300893Y-33019143D01*
X60777084Y-33257238D02*
X59777084Y-33257238D01*
X59777084Y-33257238D02*
X59777084Y-32876286D01*
X59777084Y-32876286D02*
X59824703Y-32781048D01*
X59824703Y-32781048D02*
X59872322Y-32733429D01*
X59872322Y-32733429D02*
X59967560Y-32685810D01*
X59967560Y-32685810D02*
X60110417Y-32685810D01*
X60110417Y-32685810D02*
X60205655Y-32733429D01*
X60205655Y-32733429D02*
X60253274Y-32781048D01*
X60253274Y-32781048D02*
X60300893Y-32876286D01*
X60300893Y-32876286D02*
X60300893Y-33257238D01*
X60777084Y-31733429D02*
X60777084Y-32304857D01*
X60777084Y-32019143D02*
X59777084Y-32019143D01*
X59777084Y-32019143D02*
X59919941Y-32114381D01*
X59919941Y-32114381D02*
X60015179Y-32209619D01*
X60015179Y-32209619D02*
X60062798Y-32304857D01*
X52579407Y-30978724D02*
X52531788Y-31026344D01*
X52531788Y-31026344D02*
X52388931Y-31073963D01*
X52388931Y-31073963D02*
X52293693Y-31073963D01*
X52293693Y-31073963D02*
X52150836Y-31026344D01*
X52150836Y-31026344D02*
X52055598Y-30931105D01*
X52055598Y-30931105D02*
X52007979Y-30835867D01*
X52007979Y-30835867D02*
X51960360Y-30645391D01*
X51960360Y-30645391D02*
X51960360Y-30502534D01*
X51960360Y-30502534D02*
X52007979Y-30312058D01*
X52007979Y-30312058D02*
X52055598Y-30216820D01*
X52055598Y-30216820D02*
X52150836Y-30121582D01*
X52150836Y-30121582D02*
X52293693Y-30073963D01*
X52293693Y-30073963D02*
X52388931Y-30073963D01*
X52388931Y-30073963D02*
X52531788Y-30121582D01*
X52531788Y-30121582D02*
X52579407Y-30169201D01*
X53531788Y-31073963D02*
X52960360Y-31073963D01*
X53246074Y-31073963D02*
X53246074Y-30073963D01*
X53246074Y-30073963D02*
X53150836Y-30216820D01*
X53150836Y-30216820D02*
X53055598Y-30312058D01*
X53055598Y-30312058D02*
X52960360Y-30359677D01*
X54436550Y-30073963D02*
X53960360Y-30073963D01*
X53960360Y-30073963D02*
X53912741Y-30550153D01*
X53912741Y-30550153D02*
X53960360Y-30502534D01*
X53960360Y-30502534D02*
X54055598Y-30454915D01*
X54055598Y-30454915D02*
X54293693Y-30454915D01*
X54293693Y-30454915D02*
X54388931Y-30502534D01*
X54388931Y-30502534D02*
X54436550Y-30550153D01*
X54436550Y-30550153D02*
X54484169Y-30645391D01*
X54484169Y-30645391D02*
X54484169Y-30883486D01*
X54484169Y-30883486D02*
X54436550Y-30978724D01*
X54436550Y-30978724D02*
X54388931Y-31026344D01*
X54388931Y-31026344D02*
X54293693Y-31073963D01*
X54293693Y-31073963D02*
X54055598Y-31073963D01*
X54055598Y-31073963D02*
X53960360Y-31026344D01*
X53960360Y-31026344D02*
X53912741Y-30978724D01*
D12*
%TO.C,C12*%
X64862265Y-38251308D02*
X64862265Y-38466980D01*
X65582265Y-38251308D02*
X65582265Y-38466980D01*
%TO.C,C5*%
X66862265Y-38231308D02*
X66862265Y-38446980D01*
X67582265Y-38231308D02*
X67582265Y-38446980D01*
%TO.C,C1*%
X55630101Y-29099144D02*
X55414429Y-29099144D01*
X55630101Y-29819144D02*
X55414429Y-29819144D01*
%TO.C,R10*%
X65842265Y-38185503D02*
X65842265Y-38492785D01*
X66602265Y-38185503D02*
X66602265Y-38492785D01*
%TO.C,R17*%
X80268624Y-30539144D02*
X80575906Y-30539144D01*
X80268624Y-31299144D02*
X80575906Y-31299144D01*
%TO.C,L1*%
D13*
X68467975Y-20719144D02*
G75*
G02*
X68276555Y-20719144I-95710J0D01*
G01*
X68276555Y-20719144D02*
G75*
G02*
X68467975Y-20719144I95710J0D01*
G01*
D12*
%TO.C,U6*%
X35622265Y-34709144D02*
X37622265Y-34709144D01*
X35622265Y-36929144D02*
X37622265Y-36929144D01*
X35382265Y-34809144D02*
X35102265Y-34809144D01*
X35382265Y-34529144D01*
X35382265Y-34809144D01*
G36*
X35382265Y-34809144D02*
G01*
X35102265Y-34809144D01*
X35382265Y-34529144D01*
X35382265Y-34809144D01*
G37*
%TO.C,JP2*%
X71922265Y-42469144D02*
X71922265Y-41869144D01*
X72622265Y-41169144D02*
X74022265Y-41169144D01*
X74022265Y-43169144D02*
X72622265Y-43169144D01*
X74722265Y-41869144D02*
X74722265Y-42469144D01*
X71922265Y-41869144D02*
G75*
G02*
X72622265Y-41169144I700000J0D01*
G01*
X72622265Y-43169144D02*
G75*
G02*
X71922265Y-42469144I0J700000D01*
G01*
X74022265Y-41169144D02*
G75*
G02*
X74722265Y-41869144I1J-699999D01*
G01*
X74722265Y-42469144D02*
G75*
G02*
X74022265Y-43169144I-699999J-1D01*
G01*
%TO.C,C26*%
X38862265Y-26861308D02*
X38862265Y-27076980D01*
X39582265Y-26861308D02*
X39582265Y-27076980D01*
%TO.C,R6*%
X63142265Y-22372785D02*
X63142265Y-22065503D01*
X63902265Y-22372785D02*
X63902265Y-22065503D01*
%TO.C,R11*%
X80248624Y-28539144D02*
X80555906Y-28539144D01*
X80248624Y-29299144D02*
X80555906Y-29299144D01*
%TO.C,R4*%
X67142265Y-22065503D02*
X67142265Y-22372785D01*
X67902265Y-22065503D02*
X67902265Y-22372785D01*
%TO.C,C9*%
X65162265Y-22326980D02*
X65162265Y-22111308D01*
X65882265Y-22326980D02*
X65882265Y-22111308D01*
%TO.C,C4*%
X61610101Y-26409144D02*
X61394429Y-26409144D01*
X61610101Y-27129144D02*
X61394429Y-27129144D01*
%TO.C,R13*%
X80248624Y-29539144D02*
X80555906Y-29539144D01*
X80248624Y-30299144D02*
X80555906Y-30299144D01*
%TO.C,C31*%
X33999765Y-35861308D02*
X33999765Y-36076980D01*
X34719765Y-35861308D02*
X34719765Y-36076980D01*
%TO.C,R21*%
X30075906Y-35639144D02*
X29768624Y-35639144D01*
X30075906Y-36399144D02*
X29768624Y-36399144D01*
%TO.C,C30*%
X38749765Y-35861308D02*
X38749765Y-36076980D01*
X39469765Y-35861308D02*
X39469765Y-36076980D01*
%TO.C,C17*%
X71162265Y-24411308D02*
X71162265Y-24626980D01*
X71882265Y-24411308D02*
X71882265Y-24626980D01*
%TO.C,R20*%
X30075906Y-32639144D02*
X29768624Y-32639144D01*
X30075906Y-33399144D02*
X29768624Y-33399144D01*
%TO.C,C18*%
X69164429Y-24409144D02*
X69380101Y-24409144D01*
X69164429Y-25129144D02*
X69380101Y-25129144D01*
%TO.C,C27*%
X33862265Y-26861308D02*
X33862265Y-27076980D01*
X34582265Y-26861308D02*
X34582265Y-27076980D01*
%TO.C,U4*%
X35722265Y-25959144D02*
X37722265Y-25959144D01*
X35722265Y-28179144D02*
X37722265Y-28179144D01*
X35482265Y-26059144D02*
X35202265Y-26059144D01*
X35482265Y-25779144D01*
X35482265Y-26059144D01*
G36*
X35482265Y-26059144D02*
G01*
X35202265Y-26059144D01*
X35482265Y-25779144D01*
X35482265Y-26059144D01*
G37*
%TO.C,C24*%
X80314429Y-27559144D02*
X80530101Y-27559144D01*
X80314429Y-28279144D02*
X80530101Y-28279144D01*
%TO.C,C25*%
X69833434Y-38209101D02*
X69833434Y-38424773D01*
X70553434Y-38209101D02*
X70553434Y-38424773D01*
%TO.C,U3*%
X63290000Y-33922500D02*
X63290000Y-33472500D01*
X63740000Y-26702500D02*
X63290000Y-26702500D01*
X63740000Y-33922500D02*
X63290000Y-33922500D01*
X70060000Y-26702500D02*
X70510000Y-26702500D01*
X70060000Y-33922500D02*
X70510000Y-33922500D01*
X70510000Y-26702500D02*
X70510000Y-27152500D01*
X70510000Y-33922500D02*
X70510000Y-33472500D01*
%TO.C,D4*%
X25187265Y-35284144D02*
X25187265Y-36754144D01*
X25187265Y-36754144D02*
X27472265Y-36754144D01*
X27472265Y-35284144D02*
X25187265Y-35284144D01*
%TO.C,D2*%
X25149765Y-29284144D02*
X25149765Y-30754144D01*
X25149765Y-30754144D02*
X27434765Y-30754144D01*
X27434765Y-29284144D02*
X25149765Y-29284144D01*
%TO.C,R16*%
X80575906Y-32539144D02*
X80268624Y-32539144D01*
X80575906Y-33299144D02*
X80268624Y-33299144D01*
%TO.C,C32*%
X78162265Y-30126980D02*
X78162265Y-29911308D01*
X78882265Y-30126980D02*
X78882265Y-29911308D01*
%TO.C,U5*%
X35722265Y-30259144D02*
X37722265Y-30259144D01*
X35722265Y-32479144D02*
X37722265Y-32479144D01*
X35482265Y-30359144D02*
X35202265Y-30359144D01*
X35482265Y-30079144D01*
X35482265Y-30359144D01*
G36*
X35482265Y-30359144D02*
G01*
X35202265Y-30359144D01*
X35482265Y-30079144D01*
X35482265Y-30359144D01*
G37*
%TO.C,C7*%
X74814429Y-27959144D02*
X75030101Y-27959144D01*
X74814429Y-28679144D02*
X75030101Y-28679144D01*
%TO.C,D3*%
X25187265Y-32284144D02*
X25187265Y-33754144D01*
X25187265Y-33754144D02*
X27472265Y-33754144D01*
X27472265Y-32284144D02*
X25187265Y-32284144D01*
%TO.C,R3*%
X66142265Y-22065503D02*
X66142265Y-22372785D01*
X66902265Y-22065503D02*
X66902265Y-22372785D01*
%TO.C,C23*%
X80314429Y-31559144D02*
X80530101Y-31559144D01*
X80314429Y-32279144D02*
X80530101Y-32279144D01*
%TO.C,J7*%
X36702265Y-20949144D02*
X36702265Y-19569144D01*
X38082265Y-20949144D02*
X36702265Y-20949144D01*
X39352265Y-18189144D02*
X42002265Y-18189144D01*
X39352265Y-20949144D02*
X39352265Y-18189144D01*
X39352265Y-20949144D02*
X42002265Y-20949144D01*
X42002265Y-20949144D02*
X42002265Y-18189144D01*
%TO.C,R2*%
X71142265Y-22672785D02*
X71142265Y-22365503D01*
X71902265Y-22672785D02*
X71902265Y-22365503D01*
%TO.C,R14*%
X80575906Y-33539144D02*
X80268624Y-33539144D01*
X80575906Y-34299144D02*
X80268624Y-34299144D01*
%TO.C,C11*%
X68862265Y-38231308D02*
X68862265Y-38446980D01*
X69582265Y-38231308D02*
X69582265Y-38446980D01*
%TO.C,Y1*%
X71018434Y-36861937D02*
X71018434Y-39881937D01*
X71018434Y-39881937D02*
X74538434Y-39881937D01*
%TO.C,TP1*%
X72972265Y-19969144D02*
G75*
G02*
X71572265Y-19969144I-700000J0D01*
G01*
X71572265Y-19969144D02*
G75*
G02*
X72972265Y-19969144I700000J0D01*
G01*
%TO.C,R18*%
X30075906Y-26639144D02*
X29768624Y-26639144D01*
X30075906Y-27399144D02*
X29768624Y-27399144D01*
%TO.C,C19*%
X69164429Y-23409144D02*
X69380101Y-23409144D01*
X69164429Y-24129144D02*
X69380101Y-24129144D01*
%TO.C,C8*%
X74814429Y-26959144D02*
X75030101Y-26959144D01*
X74814429Y-27679144D02*
X75030101Y-27679144D01*
%TO.C,C3*%
X74814429Y-28959144D02*
X75030101Y-28959144D01*
X74814429Y-29679144D02*
X75030101Y-29679144D01*
%TO.C,C22*%
X77662265Y-34661308D02*
X77662265Y-34876980D01*
X78382265Y-34661308D02*
X78382265Y-34876980D01*
%TO.C,R12*%
X80575906Y-34539144D02*
X80268624Y-34539144D01*
X80575906Y-35299144D02*
X80268624Y-35299144D01*
%TO.C,JP3*%
X78372265Y-25069144D02*
X78372265Y-24469144D01*
X79072265Y-23769144D02*
X80472265Y-23769144D01*
X80472265Y-25769144D02*
X79072265Y-25769144D01*
X81172265Y-24469144D02*
X81172265Y-25069144D01*
X78372265Y-24469144D02*
G75*
G02*
X79072265Y-23769144I699999J1D01*
G01*
X79072265Y-25769144D02*
G75*
G02*
X78372265Y-25069144I-1J699999D01*
G01*
X80472265Y-23769144D02*
G75*
G02*
X81172265Y-24469144I0J-700000D01*
G01*
X81172265Y-25069144D02*
G75*
G02*
X80472265Y-25769144I-700000J0D01*
G01*
%TO.C,C10*%
X64162265Y-22326980D02*
X64162265Y-22111308D01*
X64882265Y-22326980D02*
X64882265Y-22111308D01*
%TO.C,C13*%
X59010101Y-27159144D02*
X58794429Y-27159144D01*
X59010101Y-27879144D02*
X58794429Y-27879144D01*
%TO.C,JP1*%
X60722265Y-19719144D02*
X60722265Y-19119144D01*
X61422265Y-18419144D02*
X62822265Y-18419144D01*
X62822265Y-20419144D02*
X61422265Y-20419144D01*
X63522265Y-19119144D02*
X63522265Y-19719144D01*
X60722265Y-19119144D02*
G75*
G02*
X61422265Y-18419144I700000J0D01*
G01*
X61422265Y-20419144D02*
G75*
G02*
X60722265Y-19719144I0J700000D01*
G01*
X62822265Y-18419144D02*
G75*
G02*
X63522265Y-19119144I1J-699999D01*
G01*
X63522265Y-19719144D02*
G75*
G02*
X62822265Y-20419144I-699999J-1D01*
G01*
%TO.C,R15*%
X70258624Y-40889144D02*
X70565906Y-40889144D01*
X70258624Y-41649144D02*
X70565906Y-41649144D01*
%TO.C,J3*%
X62712265Y-43321644D02*
X64202265Y-43321644D01*
X62712265Y-46141644D02*
X62712265Y-43321644D01*
X64202265Y-46141644D02*
X62712265Y-46141644D01*
X67342265Y-43321644D02*
X67342265Y-43231644D01*
X67342265Y-46141644D02*
X68832265Y-46141644D01*
X68832265Y-43321644D02*
X67342265Y-43321644D01*
X68832265Y-46141644D02*
X68832265Y-43321644D01*
D14*
%TO.C,U1*%
X57422265Y-28819144D02*
X57477265Y-28819144D01*
X57422265Y-29374144D02*
X57422265Y-28819144D01*
X57422265Y-31819144D02*
X57422265Y-31264144D01*
X57422265Y-31819144D02*
X57477265Y-31819144D01*
X59922265Y-28819144D02*
X59867265Y-28819144D01*
X59922265Y-28819144D02*
X59922265Y-29374144D01*
X59922265Y-31264144D02*
X59922265Y-31819144D01*
X59922265Y-31819144D02*
X59867265Y-31819144D01*
D15*
X59622265Y-28250144D02*
G75*
G02*
X59422265Y-28250144I-100000J0D01*
G01*
X59422265Y-28250144D02*
G75*
G02*
X59622265Y-28250144I100000J0D01*
G01*
D12*
%TO.C,C29*%
X34112265Y-31261308D02*
X34112265Y-31476980D01*
X34832265Y-31261308D02*
X34832265Y-31476980D01*
%TO.C,C21*%
X78162265Y-31911308D02*
X78162265Y-32126980D01*
X78882265Y-31911308D02*
X78882265Y-32126980D01*
%TO.C,R19*%
X30038406Y-29639144D02*
X29731124Y-29639144D01*
X30038406Y-30399144D02*
X29731124Y-30399144D01*
%TO.C,J2*%
X64962265Y-17296644D02*
X64962265Y-20116644D01*
X64962265Y-20116644D02*
X66452265Y-20116644D01*
X66452265Y-17296644D02*
X64962265Y-17296644D01*
X66452265Y-20116644D02*
X66452265Y-20206644D01*
X68392265Y-17296644D02*
X69882265Y-17296644D01*
X69882265Y-17296644D02*
X69882265Y-20116644D01*
X69882265Y-20116644D02*
X68392265Y-20116644D01*
%TO.C,C2*%
X58562265Y-33461308D02*
X58562265Y-33676980D01*
X59282265Y-33461308D02*
X59282265Y-33676980D01*
%TO.C,R9*%
X80268624Y-35639144D02*
X80575906Y-35639144D01*
X80268624Y-36399144D02*
X80575906Y-36399144D01*
%TO.C,C14*%
X60430101Y-33809144D02*
X60214429Y-33809144D01*
X60430101Y-34529144D02*
X60214429Y-34529144D01*
%TO.C,D1*%
X25187265Y-26284144D02*
X25187265Y-27754144D01*
X25187265Y-27754144D02*
X27472265Y-27754144D01*
X27472265Y-26284144D02*
X25187265Y-26284144D01*
%TO.C,C6*%
X74814429Y-29959144D02*
X75030101Y-29959144D01*
X74814429Y-30679144D02*
X75030101Y-30679144D01*
%TO.C,C28*%
X38862265Y-31248808D02*
X38862265Y-31464480D01*
X39582265Y-31248808D02*
X39582265Y-31464480D01*
%TO.C,C16*%
X57562265Y-33461308D02*
X57562265Y-33676980D01*
X58282265Y-33461308D02*
X58282265Y-33676980D01*
%TO.C,R1*%
X61042265Y-32351523D02*
X61042265Y-32686765D01*
X61802265Y-32351523D02*
X61802265Y-32686765D01*
%TO.C,C15*%
X55630101Y-30209144D02*
X55414429Y-30209144D01*
X55630101Y-30929144D02*
X55414429Y-30929144D01*
%TD*%
M02*
