M48
; DRILL file {KiCad 9.0.6-9.0.6~ubuntu24.04.1} date 2025-12-11T23:04:49+0000
; FORMAT={-:-/ absolute / metric / decimal}
; #@! TF.CreationDate,2025-12-11T23:04:49+00:00
; #@! TF.GenerationSoftware,Kicad,Pcbnew,9.0.6-9.0.6~ubuntu24.04.1
; #@! TF.FileFunction,Plated,1,4,PTH
FMAT,2
METRIC
; #@! TA.AperFunction,Plated,PTH,ComponentDrill
T1C0.250
; #@! TA.AperFunction,Plated,PTH,ViaDrill
T2C0.300
; #@! TA.AperFunction,Plated,PTH,ViaDrill
T3C0.400
; #@! TA.AperFunction,Plated,PTH,ComponentDrill
T4C1.000
%
G90
G05
T1
X65.525Y-28.938
X65.525Y-30.312
X65.525Y-31.688
X66.9Y-28.938
X66.9Y-30.312
X66.9Y-31.688
X68.275Y-28.938
X68.275Y-30.312
X68.275Y-31.688
T2
X34.072Y-28.069
X35.172Y-28.169
X35.722Y-37.269
X35.772Y-32.669
X36.722Y-25.919
X36.747Y-37.494
X36.772Y-33.069
X61.272Y-35.509
X61.422Y-33.519
X61.824Y-36.088
X61.901Y-31.292
X62.022Y-26.119
X62.422Y-36.619
X62.518Y-30.987
X63.572Y-17.969
X67.972Y-20.669
X69.342Y-36.419
X69.391Y-35.651
X69.526Y-35.015
X71.282Y-28.779
X72.122Y-31.637
X72.332Y-24.111
X72.332Y-24.911
X72.622Y-32.288
X72.635Y-31.237
X72.722Y-28.512
X73.122Y-32.813
X73.122Y-33.944
X73.141Y-23.988
X73.147Y-30.837
X73.522Y-33.338
X76.391Y-34.319
X78.522Y-31.539
X79.252Y-32.22
X79.322Y-36.019
X79.422Y-27.919
X79.422Y-29.919
X79.422Y-33.269
X79.422Y-33.919
X79.422Y-34.919
X84.172Y-35.269
X85.972Y-27.519
T3
X33.022Y-38.569
X34.572Y-33.519
X55.022Y-28.819
X57.322Y-34.019
X57.822Y-27.519
X60.422Y-26.819
X61.83Y-29.712
X64.7Y-30.364
X65.022Y-21.419
X65.418Y-39.124
X66.7Y-34.905
X66.919Y-40.01
X66.922Y-32.512
X66.925Y-28.112
X67.322Y-39.319
X68.392Y-23.889
X69.1Y-30.322
X69.722Y-24.219
X70.311Y-26.012
X71.511Y-25.669
X72.046Y-29.712
X75.122Y-39.619
X75.372Y-40.769
X75.422Y-43.069
X78.422Y-24.819
X78.422Y-30.519
X80.902Y-31.419
X81.472Y-27.919
X83.123Y-30.369
T4
X38.082Y-19.569
X40.622Y-19.569
M30
