M48
; DRILL file {KiCad 9.0.3} date 2025-12-12T23:43:21+0000
; FORMAT={-:-/ absolute / inch / decimal}
; #@! TF.CreationDate,2025-12-12T23:43:21+00:00
; #@! TF.GenerationSoftware,Kicad,Pcbnew,9.0.3
; #@! TF.FileFunction,Plated,1,4,PTH
FMAT,2
INCH
; #@! TA.AperFunction,Plated,PTH,ComponentDrill
T1C0.0098
; #@! TA.AperFunction,Plated,PTH,ViaDrill
T2C0.0118
; #@! TA.AperFunction,Plated,PTH,ViaDrill
T3C0.0157
; #@! TA.AperFunction,Plated,PTH,ComponentDrill
T4C0.0394
%
G90
G05
T1
X2.5797Y-1.1393
X2.5797Y-1.1934
X2.5797Y-1.2475
X2.6339Y-1.1393
X2.6339Y-1.1934
X2.6339Y-1.2475
X2.688Y-1.1393
X2.688Y-1.1934
X2.688Y-1.2475
T2
X1.3414Y-1.1051
X1.3847Y-1.109
X1.4064Y-1.4673
X1.4084Y-1.2862
X1.4458Y-1.0204
X1.4467Y-1.4761
X1.4477Y-1.3019
X2.4123Y-1.398
X2.4182Y-1.3197
X2.434Y-1.4208
X2.4371Y-1.232
X2.4418Y-1.0283
X2.4576Y-1.4417
X2.4614Y-1.22
X2.5028Y-0.7074
X2.6761Y-0.8137
X2.73Y-1.4338
X2.7319Y-1.4036
X2.7372Y-1.3786
X2.8064Y-1.133
X2.8395Y-1.2456
X2.8477Y-0.9493
X2.8477Y-0.9808
X2.8591Y-1.2712
X2.8596Y-1.2298
X2.8631Y-1.1225
X2.8788Y-1.2919
X2.8788Y-1.3364
X2.8796Y-0.9444
X2.8798Y-1.2141
X2.8946Y-1.3125
X3.0075Y-1.3511
X3.0914Y-1.2417
X3.1202Y-1.2685
X3.1229Y-1.4181
X3.1269Y-1.0992
X3.1269Y-1.1779
X3.1269Y-1.3098
X3.1269Y-1.3354
X3.1269Y-1.3748
X3.3139Y-1.3885
X3.3847Y-1.0834
T3
X1.3001Y-1.5185
X1.3611Y-1.3197
X2.1662Y-1.1346
X2.2568Y-1.3393
X2.2765Y-1.0834
X2.3788Y-1.0559
X2.4343Y-1.1698
X2.5472Y-1.1954
X2.5599Y-0.8433
X2.5755Y-1.5403
X2.626Y-1.3742
X2.6346Y-1.5752
X2.6347Y-1.28
X2.6348Y-1.1068
X2.6505Y-1.548
X2.6926Y-0.9405
X2.7205Y-1.1938
X2.745Y-0.9535
X2.7682Y-1.0241
X2.8154Y-1.0106
X2.8365Y-1.1698
X2.9694Y-1.6956
X2.9871Y-1.6405
X2.991Y-1.5952
X3.0875Y-0.9771
X3.0875Y-1.2015
X3.1851Y-1.237
X3.2076Y-1.0992
X3.2726Y-1.1956
T4
X1.4993Y-0.7704
X1.5993Y-0.7704
M30
