%TF.GenerationSoftware,KiCad,Pcbnew,9.0.3*%
%TF.CreationDate,2025-12-12T23:43:23+00:00*%
%TF.ProjectId,FPSP Camera,46505350-2043-4616-9d65-72612e6b6963,rev?*%
%TF.SameCoordinates,Original*%
%TF.FileFunction,Copper,L1,Top*%
%TF.FilePolarity,Positive*%
%FSLAX46Y46*%
G04 Gerber Fmt 4.6, Leading zero omitted, Abs format (unit mm)*
G04 Created by KiCad (PCBNEW 9.0.3) date 2025-12-12 23:43:23*
%MOMM*%
%LPD*%
G01*
G04 APERTURE LIST*
G04 Aperture macros list*
%AMRoundRect*
0 Rectangle with rounded corners*
0 $1 Rounding radius*
0 $2 $3 $4 $5 $6 $7 $8 $9 X,Y pos of 4 corners*
0 Add a 4 corners polygon primitive as box body*
4,1,4,$2,$3,$4,$5,$6,$7,$8,$9,$2,$3,0*
0 Add four circle primitives for the rounded corners*
1,1,$1+$1,$2,$3*
1,1,$1+$1,$4,$5*
1,1,$1+$1,$6,$7*
1,1,$1+$1,$8,$9*
0 Add four rect primitives between the rounded corners*
20,1,$1+$1,$2,$3,$4,$5,0*
20,1,$1+$1,$4,$5,$6,$7,0*
20,1,$1+$1,$6,$7,$8,$9,0*
20,1,$1+$1,$8,$9,$2,$3,0*%
%AMFreePoly0*
4,1,23,0.500000,-0.750000,0.000000,-0.750000,0.000000,-0.745722,-0.065263,-0.745722,-0.191342,-0.711940,-0.304381,-0.646677,-0.396677,-0.554381,-0.461940,-0.441342,-0.495722,-0.315263,-0.495722,-0.250000,-0.500000,-0.250000,-0.500000,0.250000,-0.495722,0.250000,-0.495722,0.315263,-0.461940,0.441342,-0.396677,0.554381,-0.304381,0.646677,-0.191342,0.711940,-0.065263,0.745722,0.000000,0.745722,
0.000000,0.750000,0.500000,0.750000,0.500000,-0.750000,0.500000,-0.750000,$1*%
%AMFreePoly1*
4,1,23,0.000000,0.745722,0.065263,0.745722,0.191342,0.711940,0.304381,0.646677,0.396677,0.554381,0.461940,0.441342,0.495722,0.315263,0.495722,0.250000,0.500000,0.250000,0.500000,-0.250000,0.495722,-0.250000,0.495722,-0.315263,0.461940,-0.441342,0.396677,-0.554381,0.304381,-0.646677,0.191342,-0.711940,0.065263,-0.745722,0.000000,-0.745722,0.000000,-0.750000,-0.500000,-0.750000,
-0.500000,0.750000,0.000000,0.750000,0.000000,0.745722,0.000000,0.745722,$1*%
%AMFreePoly2*
4,1,18,-0.437500,0.050000,-0.433694,0.069134,-0.422855,0.085355,-0.406634,0.096194,-0.387500,0.100000,0.387500,0.100000,0.437500,0.050000,0.437500,-0.050000,0.433694,-0.069134,0.422855,-0.085355,0.406634,-0.096194,0.387500,-0.100000,-0.387500,-0.100000,-0.406634,-0.096194,-0.422855,-0.085355,-0.433694,-0.069134,-0.437500,-0.050000,-0.437500,0.050000,-0.437500,0.050000,$1*%
%AMFreePoly3*
4,1,18,-0.437500,0.050000,-0.433694,0.069134,-0.422855,0.085355,-0.406634,0.096194,-0.387500,0.100000,0.387500,0.100000,0.406634,0.096194,0.422855,0.085355,0.433694,0.069134,0.437500,0.050000,0.437500,-0.050000,0.387500,-0.100000,-0.387500,-0.100000,-0.406634,-0.096194,-0.422855,-0.085355,-0.433694,-0.069134,-0.437500,-0.050000,-0.437500,0.050000,-0.437500,0.050000,$1*%
%AMFreePoly4*
4,1,18,-0.100000,0.387500,-0.050000,0.437500,0.050000,0.437500,0.069134,0.433694,0.085355,0.422855,0.096194,0.406634,0.100000,0.387500,0.100000,-0.387500,0.096194,-0.406634,0.085355,-0.422855,0.069134,-0.433694,0.050000,-0.437500,-0.050000,-0.437500,-0.069134,-0.433694,-0.085355,-0.422855,-0.096194,-0.406634,-0.100000,-0.387500,-0.100000,0.387500,-0.100000,0.387500,$1*%
%AMFreePoly5*
4,1,18,-0.100000,0.387500,-0.096194,0.406634,-0.085355,0.422855,-0.069134,0.433694,-0.050000,0.437500,0.050000,0.437500,0.100000,0.387500,0.100000,-0.387500,0.096194,-0.406634,0.085355,-0.422855,0.069134,-0.433694,0.050000,-0.437500,-0.050000,-0.437500,-0.069134,-0.433694,-0.085355,-0.422855,-0.096194,-0.406634,-0.100000,-0.387500,-0.100000,0.387500,-0.100000,0.387500,$1*%
%AMFreePoly6*
4,1,18,-0.437500,0.050000,-0.433694,0.069134,-0.422855,0.085355,-0.406634,0.096194,-0.387500,0.100000,0.387500,0.100000,0.406634,0.096194,0.422855,0.085355,0.433694,0.069134,0.437500,0.050000,0.437500,-0.050000,0.433694,-0.069134,0.422855,-0.085355,0.406634,-0.096194,0.387500,-0.100000,-0.387500,-0.100000,-0.437500,-0.050000,-0.437500,0.050000,-0.437500,0.050000,$1*%
%AMFreePoly7*
4,1,18,-0.437500,0.050000,-0.387500,0.100000,0.387500,0.100000,0.406634,0.096194,0.422855,0.085355,0.433694,0.069134,0.437500,0.050000,0.437500,-0.050000,0.433694,-0.069134,0.422855,-0.085355,0.406634,-0.096194,0.387500,-0.100000,-0.387500,-0.100000,-0.406634,-0.096194,-0.422855,-0.085355,-0.433694,-0.069134,-0.437500,-0.050000,-0.437500,0.050000,-0.437500,0.050000,$1*%
%AMFreePoly8*
4,1,18,-0.100000,0.387500,-0.096194,0.406634,-0.085355,0.422855,-0.069134,0.433694,-0.050000,0.437500,0.050000,0.437500,0.069134,0.433694,0.085355,0.422855,0.096194,0.406634,0.100000,0.387500,0.100000,-0.387500,0.050000,-0.437500,-0.050000,-0.437500,-0.069134,-0.433694,-0.085355,-0.422855,-0.096194,-0.406634,-0.100000,-0.387500,-0.100000,0.387500,-0.100000,0.387500,$1*%
%AMFreePoly9*
4,1,18,-0.100000,0.387500,-0.096194,0.406634,-0.085355,0.422855,-0.069134,0.433694,-0.050000,0.437500,0.050000,0.437500,0.069134,0.433694,0.085355,0.422855,0.096194,0.406634,0.100000,0.387500,0.100000,-0.387500,0.096194,-0.406634,0.085355,-0.422855,0.069134,-0.433694,0.050000,-0.437500,-0.050000,-0.437500,-0.100000,-0.387500,-0.100000,0.387500,-0.100000,0.387500,$1*%
G04 Aperture macros list end*
%TA.AperFunction,SMDPad,CuDef*%
%ADD10RoundRect,0.140000X-0.170000X0.140000X-0.170000X-0.140000X0.170000X-0.140000X0.170000X0.140000X0*%
%TD*%
%TA.AperFunction,SMDPad,CuDef*%
%ADD11RoundRect,0.140000X0.140000X0.170000X-0.140000X0.170000X-0.140000X-0.170000X0.140000X-0.170000X0*%
%TD*%
%TA.AperFunction,SMDPad,CuDef*%
%ADD12RoundRect,0.135000X-0.185000X0.135000X-0.185000X-0.135000X0.185000X-0.135000X0.185000X0.135000X0*%
%TD*%
%TA.AperFunction,SMDPad,CuDef*%
%ADD13RoundRect,0.135000X-0.135000X-0.185000X0.135000X-0.185000X0.135000X0.185000X-0.135000X0.185000X0*%
%TD*%
%TA.AperFunction,SMDPad,CuDef*%
%ADD14R,0.700000X1.700000*%
%TD*%
%TA.AperFunction,SMDPad,CuDef*%
%ADD15RoundRect,0.093750X-0.093750X-0.106250X0.093750X-0.106250X0.093750X0.106250X-0.093750X0.106250X0*%
%TD*%
%TA.AperFunction,HeatsinkPad*%
%ADD16R,1.000000X1.600000*%
%TD*%
%TA.AperFunction,SMDPad,CuDef*%
%ADD17FreePoly0,180.000000*%
%TD*%
%TA.AperFunction,SMDPad,CuDef*%
%ADD18FreePoly1,180.000000*%
%TD*%
%TA.AperFunction,SMDPad,CuDef*%
%ADD19RoundRect,0.135000X0.185000X-0.135000X0.185000X0.135000X-0.185000X0.135000X-0.185000X-0.135000X0*%
%TD*%
%TA.AperFunction,SMDPad,CuDef*%
%ADD20RoundRect,0.140000X0.170000X-0.140000X0.170000X0.140000X-0.170000X0.140000X-0.170000X-0.140000X0*%
%TD*%
%TA.AperFunction,SMDPad,CuDef*%
%ADD21RoundRect,0.135000X0.135000X0.185000X-0.135000X0.185000X-0.135000X-0.185000X0.135000X-0.185000X0*%
%TD*%
%TA.AperFunction,SMDPad,CuDef*%
%ADD22RoundRect,0.140000X-0.140000X-0.170000X0.140000X-0.170000X0.140000X0.170000X-0.140000X0.170000X0*%
%TD*%
%TA.AperFunction,SMDPad,CuDef*%
%ADD23FreePoly2,0.000000*%
%TD*%
%TA.AperFunction,SMDPad,CuDef*%
%ADD24RoundRect,0.050000X-0.387500X-0.050000X0.387500X-0.050000X0.387500X0.050000X-0.387500X0.050000X0*%
%TD*%
%TA.AperFunction,SMDPad,CuDef*%
%ADD25FreePoly3,0.000000*%
%TD*%
%TA.AperFunction,SMDPad,CuDef*%
%ADD26FreePoly4,0.000000*%
%TD*%
%TA.AperFunction,SMDPad,CuDef*%
%ADD27RoundRect,0.050000X-0.050000X-0.387500X0.050000X-0.387500X0.050000X0.387500X-0.050000X0.387500X0*%
%TD*%
%TA.AperFunction,SMDPad,CuDef*%
%ADD28FreePoly5,0.000000*%
%TD*%
%TA.AperFunction,SMDPad,CuDef*%
%ADD29FreePoly6,0.000000*%
%TD*%
%TA.AperFunction,SMDPad,CuDef*%
%ADD30FreePoly7,0.000000*%
%TD*%
%TA.AperFunction,SMDPad,CuDef*%
%ADD31FreePoly8,0.000000*%
%TD*%
%TA.AperFunction,SMDPad,CuDef*%
%ADD32FreePoly9,0.000000*%
%TD*%
%TA.AperFunction,ComponentPad*%
%ADD33C,0.600000*%
%TD*%
%TA.AperFunction,SMDPad,CuDef*%
%ADD34RoundRect,0.153000X1.547000X-1.547000X1.547000X1.547000X-1.547000X1.547000X-1.547000X-1.547000X0*%
%TD*%
%TA.AperFunction,SMDPad,CuDef*%
%ADD35RoundRect,0.218750X-0.218750X-0.256250X0.218750X-0.256250X0.218750X0.256250X-0.218750X0.256250X0*%
%TD*%
%TA.AperFunction,ComponentPad*%
%ADD36R,1.700000X1.700000*%
%TD*%
%TA.AperFunction,ComponentPad*%
%ADD37C,1.700000*%
%TD*%
%TA.AperFunction,SMDPad,CuDef*%
%ADD38RoundRect,0.250000X-0.300000X-0.250000X0.300000X-0.250000X0.300000X0.250000X-0.300000X0.250000X0*%
%TD*%
%TA.AperFunction,SMDPad,CuDef*%
%ADD39C,1.000000*%
%TD*%
%TA.AperFunction,SMDPad,CuDef*%
%ADD40FreePoly0,0.000000*%
%TD*%
%TA.AperFunction,SMDPad,CuDef*%
%ADD41FreePoly1,0.000000*%
%TD*%
%TA.AperFunction,SMDPad,CuDef*%
%ADD42R,0.220000X0.475000*%
%TD*%
%TA.AperFunction,SMDPad,CuDef*%
%ADD43R,0.250000X0.475000*%
%TD*%
%TA.AperFunction,SMDPad,CuDef*%
%ADD44R,0.475000X0.250000*%
%TD*%
%TA.AperFunction,SMDPad,CuDef*%
%ADD45RoundRect,0.160000X-0.160000X0.197500X-0.160000X-0.197500X0.160000X-0.197500X0.160000X0.197500X0*%
%TD*%
%TA.AperFunction,ViaPad*%
%ADD46C,0.450000*%
%TD*%
%TA.AperFunction,ViaPad*%
%ADD47C,0.600000*%
%TD*%
%TA.AperFunction,Conductor*%
%ADD48C,0.500000*%
%TD*%
%TA.AperFunction,Conductor*%
%ADD49C,0.200000*%
%TD*%
%TA.AperFunction,Conductor*%
%ADD50C,0.300000*%
%TD*%
%TA.AperFunction,Conductor*%
%ADD51C,0.400000*%
%TD*%
%TA.AperFunction,Conductor*%
%ADD52C,0.150000*%
%TD*%
G04 APERTURE END LIST*
D10*
%TO.P,C12,1*%
%TO.N,+3.3V*%
X65222265Y-37879144D03*
%TO.P,C12,2*%
%TO.N,AGND*%
X65222265Y-38839144D03*
%TD*%
%TO.P,C5,1*%
%TO.N,+1V1*%
X67222265Y-37859144D03*
%TO.P,C5,2*%
%TO.N,AGND*%
X67222265Y-38819144D03*
%TD*%
D11*
%TO.P,C1,1*%
%TO.N,+3.3V*%
X56002265Y-29459144D03*
%TO.P,C1,2*%
%TO.N,AGND*%
X55042265Y-29459144D03*
%TD*%
D12*
%TO.P,R10,1*%
%TO.N,Net-(U3-XIN)*%
X66222265Y-37829144D03*
%TO.P,R10,2*%
%TO.N,/XIN_mem1*%
X66222265Y-38849144D03*
%TD*%
D13*
%TO.P,R17,1*%
%TO.N,PWDN_1*%
X79912265Y-30919144D03*
%TO.P,R17,2*%
%TO.N,AGND*%
X80932265Y-30919144D03*
%TD*%
D14*
%TO.P,L1,1,1*%
%TO.N,+1V1*%
X68572265Y-22019144D03*
%TO.P,L1,2,2*%
%TO.N,/VREG_LX_1*%
X69972265Y-22019144D03*
%TD*%
D15*
%TO.P,U6,1,OUT*%
%TO.N,+1V5*%
X35734765Y-35169144D03*
%TO.P,U6,2,NC*%
%TO.N,unconnected-(U6-NC-Pad2)*%
X35734765Y-35819144D03*
%TO.P,U6,3,GND*%
%TO.N,AGND*%
X35734765Y-36469144D03*
%TO.P,U6,4,EN*%
%TO.N,+3.3V*%
X37509765Y-36469144D03*
%TO.P,U6,5,NC*%
%TO.N,unconnected-(U6-NC-Pad5)*%
X37509765Y-35819144D03*
%TO.P,U6,6,IN*%
%TO.N,+3.3V*%
X37509765Y-35169144D03*
D16*
%TO.P,U6,7,GND*%
%TO.N,AGND*%
X36622265Y-35819144D03*
%TD*%
D17*
%TO.P,JP2,1,A*%
%TO.N,AGND*%
X73972265Y-42169144D03*
D18*
%TO.P,JP2,2,B*%
%TO.N,Net-(JP2-B)*%
X72672265Y-42169144D03*
%TD*%
D10*
%TO.P,C26,1*%
%TO.N,+5V*%
X39222265Y-26489144D03*
%TO.P,C26,2*%
%TO.N,AGND*%
X39222265Y-27449144D03*
%TD*%
D19*
%TO.P,R6,1*%
%TO.N,/QSPI_SS_1*%
X63522265Y-22729144D03*
%TO.P,R6,2*%
%TO.N,/~{USB_BOOT_1}*%
X63522265Y-21709144D03*
%TD*%
D13*
%TO.P,R11,1*%
%TO.N,/XCLK*%
X79892265Y-28919144D03*
%TO.P,R11,2*%
%TO.N,EXT_XCLK_1*%
X80912265Y-28919144D03*
%TD*%
D12*
%TO.P,R4,1*%
%TO.N,/USB_D1-*%
X67522265Y-21709144D03*
%TO.P,R4,2*%
%TO.N,Net-(U3-USB_DM)*%
X67522265Y-22729144D03*
%TD*%
D20*
%TO.P,C9,1*%
%TO.N,+3.3V*%
X65522265Y-22699144D03*
%TO.P,C9,2*%
%TO.N,AGND*%
X65522265Y-21739144D03*
%TD*%
D11*
%TO.P,C4,1*%
%TO.N,+1V1*%
X61982265Y-26769144D03*
%TO.P,C4,2*%
%TO.N,AGND*%
X61022265Y-26769144D03*
%TD*%
D13*
%TO.P,R13,1*%
%TO.N,/XCLK*%
X79892265Y-29919144D03*
%TO.P,R13,2*%
%TO.N,INT_XCLK*%
X80912265Y-29919144D03*
%TD*%
D10*
%TO.P,C31,1*%
%TO.N,+1V5*%
X34359765Y-35489144D03*
%TO.P,C31,2*%
%TO.N,AGND*%
X34359765Y-36449144D03*
%TD*%
D21*
%TO.P,R21,1*%
%TO.N,+1V5*%
X30432265Y-36019144D03*
%TO.P,R21,2*%
%TO.N,Net-(D4-A)*%
X29412265Y-36019144D03*
%TD*%
D10*
%TO.P,C30,1*%
%TO.N,+3.3V*%
X39109765Y-35489144D03*
%TO.P,C30,2*%
%TO.N,AGND*%
X39109765Y-36449144D03*
%TD*%
%TO.P,C17,1*%
%TO.N,/VREG_AVDD_1*%
X71522265Y-24039144D03*
%TO.P,C17,2*%
%TO.N,AGND*%
X71522265Y-24999144D03*
%TD*%
D21*
%TO.P,R20,1*%
%TO.N,+2V8*%
X30432265Y-33019144D03*
%TO.P,R20,2*%
%TO.N,Net-(D3-A)*%
X29412265Y-33019144D03*
%TD*%
D22*
%TO.P,C18,1*%
%TO.N,+3.3V*%
X68792265Y-24769144D03*
%TO.P,C18,2*%
%TO.N,AGND*%
X69752265Y-24769144D03*
%TD*%
D10*
%TO.P,C27,1*%
%TO.N,+3.3V*%
X34222265Y-26489144D03*
%TO.P,C27,2*%
%TO.N,AGND*%
X34222265Y-27449144D03*
%TD*%
D15*
%TO.P,U4,1,OUT*%
%TO.N,+3.3V*%
X35834765Y-26419144D03*
%TO.P,U4,2,NC*%
%TO.N,unconnected-(U4-NC-Pad2)*%
X35834765Y-27069144D03*
%TO.P,U4,3,GND*%
%TO.N,AGND*%
X35834765Y-27719144D03*
%TO.P,U4,4,EN*%
%TO.N,+5V*%
X37609765Y-27719144D03*
%TO.P,U4,5,NC*%
%TO.N,unconnected-(U4-NC-Pad5)*%
X37609765Y-27069144D03*
%TO.P,U4,6,IN*%
%TO.N,+5V*%
X37609765Y-26419144D03*
D16*
%TO.P,U4,7,GND*%
%TO.N,AGND*%
X36722265Y-27069144D03*
%TD*%
D22*
%TO.P,C24,1*%
%TO.N,PCLK_1*%
X79942265Y-27919144D03*
%TO.P,C24,2*%
%TO.N,AGND*%
X80902265Y-27919144D03*
%TD*%
D10*
%TO.P,C25,1*%
%TO.N,+3.3V*%
X70193434Y-37836937D03*
%TO.P,C25,2*%
%TO.N,AGND*%
X70193434Y-38796937D03*
%TD*%
D23*
%TO.P,U3,1,IOVDD*%
%TO.N,+3.3V*%
X63462500Y-27512500D03*
D24*
%TO.P,U3,2,GPIO0*%
%TO.N,/GPIO0_1*%
X63462500Y-27912500D03*
%TO.P,U3,3,GPIO1*%
%TO.N,/IMU_SDO*%
X63462500Y-28312500D03*
%TO.P,U3,4,GPIO2*%
%TO.N,/IMU_SDI*%
X63462500Y-28712500D03*
%TO.P,U3,5,GPIO3*%
%TO.N,/IMU_SCLK*%
X63462500Y-29112500D03*
%TO.P,U3,6,DVDD*%
%TO.N,+1V1*%
X63462500Y-29512500D03*
%TO.P,U3,7,GPIO4*%
%TO.N,/~{IMU_CS}*%
X63462500Y-29912500D03*
%TO.P,U3,8,GPIO5*%
%TO.N,unconnected-(U3-GPIO5-Pad8)*%
X63462500Y-30312500D03*
%TO.P,U3,9,GPIO6*%
%TO.N,unconnected-(U3-GPIO6-Pad9)*%
X63462500Y-30712500D03*
%TO.P,U3,10,GPIO7*%
%TO.N,VSYNC_1*%
X63462500Y-31112500D03*
%TO.P,U3,11,IOVDD*%
%TO.N,+3.3V*%
X63462500Y-31512500D03*
%TO.P,U3,12,GPIO8*%
%TO.N,~{RESET_1}*%
X63462500Y-31912500D03*
%TO.P,U3,13,GPIO9*%
%TO.N,SCL_cam_1*%
X63462500Y-32312500D03*
%TO.P,U3,14,GPIO10*%
%TO.N,SDA_cam_1*%
X63462500Y-32712500D03*
D25*
%TO.P,U3,15,GPIO11*%
%TO.N,POSITION_OUT_1*%
X63462500Y-33112500D03*
D26*
%TO.P,U3,16,GPIO12*%
%TO.N,IMAGE_OUT_1_1-*%
X64100000Y-33750000D03*
D27*
%TO.P,U3,17,GPIO13*%
%TO.N,IMAGE_OUT_2_1-*%
X64500000Y-33750000D03*
%TO.P,U3,18,GPIO14*%
%TO.N,IMAGE_OUT_2_1+*%
X64900000Y-33750000D03*
%TO.P,U3,19,GPIO15*%
%TO.N,IMAGE_OUT_1_1+*%
X65300000Y-33750000D03*
%TO.P,U3,20,IOVDD*%
%TO.N,+3.3V*%
X65700000Y-33750000D03*
%TO.P,U3,21,XIN*%
%TO.N,Net-(U3-XIN)*%
X66100000Y-33750000D03*
%TO.P,U3,22,XOUT*%
%TO.N,unconnected-(U3-XOUT-Pad22)*%
X66500000Y-33750000D03*
%TO.P,U3,23,DVDD*%
%TO.N,+1V1*%
X66900000Y-33750000D03*
%TO.P,U3,24,SWCLK*%
%TO.N,SWCLK_1*%
X67300000Y-33750000D03*
%TO.P,U3,25,SWD*%
%TO.N,SWD_1*%
X67700000Y-33750000D03*
%TO.P,U3,26,RUN*%
%TO.N,/RUN_1*%
X68100000Y-33750000D03*
%TO.P,U3,27,GPIO16*%
%TO.N,HSYNC_1*%
X68500000Y-33750000D03*
%TO.P,U3,28,GPIO17*%
%TO.N,DATA9_1*%
X68900000Y-33750000D03*
%TO.P,U3,29,GPIO18*%
%TO.N,EXT_XCLK_1*%
X69300000Y-33750000D03*
D28*
%TO.P,U3,30,IOVDD*%
%TO.N,+3.3V*%
X69700000Y-33750000D03*
D29*
%TO.P,U3,31,GPIO19*%
%TO.N,DATA8_1*%
X70337500Y-33112500D03*
D24*
%TO.P,U3,32,GPIO20*%
%TO.N,DATA7_1*%
X70337500Y-32712500D03*
%TO.P,U3,33,GPIO21*%
%TO.N,DATA6_1*%
X70337500Y-32312500D03*
%TO.P,U3,34,GPIO22*%
%TO.N,DATA2_1*%
X70337500Y-31912500D03*
%TO.P,U3,35,GPIO23*%
%TO.N,DATA5_1*%
X70337500Y-31512500D03*
%TO.P,U3,36,GPIO24*%
%TO.N,DATA3_1*%
X70337500Y-31112500D03*
%TO.P,U3,37,GPIO25*%
%TO.N,DATA4_1*%
X70337500Y-30712500D03*
%TO.P,U3,38,IOVDD*%
%TO.N,+3.3V*%
X70337500Y-30312500D03*
%TO.P,U3,39,DVDD*%
%TO.N,+1V1*%
X70337500Y-29912500D03*
%TO.P,U3,40,GPIO26_ADC0*%
%TO.N,INT_XCLK*%
X70337500Y-29512500D03*
%TO.P,U3,41,GPIO27_ADC1*%
%TO.N,PCLK_1*%
X70337500Y-29112500D03*
%TO.P,U3,42,GPIO28_ADC2*%
%TO.N,unconnected-(U3-GPIO28_ADC2-Pad42)*%
X70337500Y-28712500D03*
%TO.P,U3,43,GPIO29_ADC3*%
%TO.N,unconnected-(U3-GPIO29_ADC3-Pad43)*%
X70337500Y-28312500D03*
%TO.P,U3,44,ADC_AVDD*%
%TO.N,+3.3V*%
X70337500Y-27912500D03*
D30*
%TO.P,U3,45,IOVDD*%
X70337500Y-27512500D03*
D31*
%TO.P,U3,46,VREG_AVDD*%
%TO.N,/VREG_AVDD_1*%
X69700000Y-26875000D03*
D27*
%TO.P,U3,47,VREG_PGND*%
%TO.N,AGND*%
X69300000Y-26875000D03*
%TO.P,U3,48,VREG_LX*%
%TO.N,/VREG_LX_1*%
X68900000Y-26875000D03*
%TO.P,U3,49,VREG_VIN*%
%TO.N,+3.3V*%
X68500000Y-26875000D03*
%TO.P,U3,50,VREG_FB*%
%TO.N,+1V1*%
X68100000Y-26875000D03*
%TO.P,U3,51,USB_DM*%
%TO.N,Net-(U3-USB_DM)*%
X67700000Y-26875000D03*
%TO.P,U3,52,USB_DP*%
%TO.N,Net-(U3-USB_DP)*%
X67300000Y-26875000D03*
%TO.P,U3,53,USB_OTP_VDD*%
%TO.N,+3.3V*%
X66900000Y-26875000D03*
%TO.P,U3,54,QSPI_IOVDD*%
X66500000Y-26875000D03*
%TO.P,U3,55,QSPI_SD3*%
%TO.N,/QSPI_SD3_1*%
X66100000Y-26875000D03*
%TO.P,U3,56,QSPI_SCLK*%
%TO.N,/QSPI_SCLK_1*%
X65700000Y-26875000D03*
%TO.P,U3,57,QSPI_SD0*%
%TO.N,/QSPI_SD0_1*%
X65300000Y-26875000D03*
%TO.P,U3,58,QSPI_SD2*%
%TO.N,/QSPI_SD2_1*%
X64900000Y-26875000D03*
%TO.P,U3,59,QSPI_SD1*%
%TO.N,/QSPI_SD1_1*%
X64500000Y-26875000D03*
D32*
%TO.P,U3,60,QSPI_SS*%
%TO.N,/QSPI_SS_1*%
X64100000Y-26875000D03*
D33*
%TO.P,U3,61,GND*%
%TO.N,AGND*%
X65525000Y-28937500D03*
X65525000Y-30312500D03*
X65525000Y-31687500D03*
X66900000Y-28937500D03*
X66900000Y-30312500D03*
D34*
X66900000Y-30312500D03*
D33*
X66900000Y-31687500D03*
X68275000Y-28937500D03*
X68275000Y-30312500D03*
X68275000Y-31687500D03*
%TD*%
D35*
%TO.P,D4,1,K*%
%TO.N,AGND*%
X25884765Y-36019144D03*
%TO.P,D4,2,A*%
%TO.N,Net-(D4-A)*%
X27459765Y-36019144D03*
%TD*%
%TO.P,D2,1,K*%
%TO.N,AGND*%
X25847265Y-30019144D03*
%TO.P,D2,2,A*%
%TO.N,Net-(D2-A)*%
X27422265Y-30019144D03*
%TD*%
D21*
%TO.P,R16,1*%
%TO.N,+3.3V*%
X80932265Y-32919144D03*
%TO.P,R16,2*%
%TO.N,~{RESET_1}*%
X79912265Y-32919144D03*
%TD*%
D20*
%TO.P,C32,1*%
%TO.N,+3.3V*%
X78522265Y-30499144D03*
%TO.P,C32,2*%
%TO.N,AGND*%
X78522265Y-29539144D03*
%TD*%
D15*
%TO.P,U5,1,OUT*%
%TO.N,+2V8*%
X35834765Y-30719144D03*
%TO.P,U5,2,NC*%
%TO.N,unconnected-(U5-NC-Pad2)*%
X35834765Y-31369144D03*
%TO.P,U5,3,GND*%
%TO.N,AGND*%
X35834765Y-32019144D03*
%TO.P,U5,4,EN*%
%TO.N,+3.3V*%
X37609765Y-32019144D03*
%TO.P,U5,5,NC*%
%TO.N,unconnected-(U5-NC-Pad5)*%
X37609765Y-31369144D03*
%TO.P,U5,6,IN*%
%TO.N,+3.3V*%
X37609765Y-30719144D03*
D16*
%TO.P,U5,7,GND*%
%TO.N,AGND*%
X36722265Y-31369144D03*
%TD*%
D22*
%TO.P,C7,1*%
%TO.N,+3.3V*%
X74442265Y-28319144D03*
%TO.P,C7,2*%
%TO.N,AGND*%
X75402265Y-28319144D03*
%TD*%
D35*
%TO.P,D3,1,K*%
%TO.N,AGND*%
X25884765Y-33019144D03*
%TO.P,D3,2,A*%
%TO.N,Net-(D3-A)*%
X27459765Y-33019144D03*
%TD*%
D12*
%TO.P,R3,1*%
%TO.N,/USB_D1+*%
X66522265Y-21709144D03*
%TO.P,R3,2*%
%TO.N,Net-(U3-USB_DP)*%
X66522265Y-22729144D03*
%TD*%
D22*
%TO.P,C23,1*%
%TO.N,~{RESET_1}*%
X79942265Y-31919144D03*
%TO.P,C23,2*%
%TO.N,AGND*%
X80902265Y-31919144D03*
%TD*%
D36*
%TO.P,J7,1,Pin_1*%
%TO.N,+5V*%
X38082265Y-19569144D03*
D37*
%TO.P,J7,2,Pin_2*%
%TO.N,AGND*%
X40622265Y-19569144D03*
%TD*%
D19*
%TO.P,R2,1*%
%TO.N,/VREG_AVDD_1*%
X71522265Y-23029144D03*
%TO.P,R2,2*%
%TO.N,+3.3V*%
X71522265Y-22009144D03*
%TD*%
D21*
%TO.P,R14,1*%
%TO.N,+3.3V*%
X80932265Y-33919144D03*
%TO.P,R14,2*%
%TO.N,SCL_cam_1*%
X79912265Y-33919144D03*
%TD*%
D10*
%TO.P,C11,1*%
%TO.N,+3.3V*%
X69222265Y-37859144D03*
%TO.P,C11,2*%
%TO.N,AGND*%
X69222265Y-38819144D03*
%TD*%
D38*
%TO.P,Y1,1,OE*%
%TO.N,+3.3V*%
X71828434Y-39121937D03*
%TO.P,Y1,2,GND*%
%TO.N,AGND*%
X73728434Y-39121937D03*
%TO.P,Y1,3,OUT*%
%TO.N,/XIN_mem1*%
X73728434Y-37621937D03*
%TO.P,Y1,4,Vdd*%
%TO.N,+3.3V*%
X71828434Y-37621937D03*
%TD*%
D39*
%TO.P,TP1,1,1*%
%TO.N,+1V1*%
X72172265Y-19369144D03*
%TD*%
D21*
%TO.P,R18,1*%
%TO.N,+5V*%
X30432265Y-27019144D03*
%TO.P,R18,2*%
%TO.N,Net-(D1-A)*%
X29412265Y-27019144D03*
%TD*%
D22*
%TO.P,C19,1*%
%TO.N,+1V1*%
X68792265Y-23769144D03*
%TO.P,C19,2*%
%TO.N,AGND*%
X69752265Y-23769144D03*
%TD*%
%TO.P,C8,1*%
%TO.N,+3.3V*%
X74442265Y-27319144D03*
%TO.P,C8,2*%
%TO.N,AGND*%
X75402265Y-27319144D03*
%TD*%
%TO.P,C3,1*%
%TO.N,+1V1*%
X74442265Y-29319144D03*
%TO.P,C3,2*%
%TO.N,AGND*%
X75402265Y-29319144D03*
%TD*%
D10*
%TO.P,C22,1*%
%TO.N,+2V8*%
X78022265Y-34289144D03*
%TO.P,C22,2*%
%TO.N,AGND*%
X78022265Y-35249144D03*
%TD*%
D21*
%TO.P,R12,1*%
%TO.N,+3.3V*%
X80932265Y-34919144D03*
%TO.P,R12,2*%
%TO.N,SDA_cam_1*%
X79912265Y-34919144D03*
%TD*%
D40*
%TO.P,JP3,1,A*%
%TO.N,DATA1_1*%
X79122265Y-24769144D03*
D41*
%TO.P,JP3,2,B*%
%TO.N,+3.3V*%
X80422265Y-24769144D03*
%TD*%
D20*
%TO.P,C10,1*%
%TO.N,+3.3V*%
X64522265Y-22699144D03*
%TO.P,C10,2*%
%TO.N,AGND*%
X64522265Y-21739144D03*
%TD*%
D11*
%TO.P,C13,1*%
%TO.N,+3.3V*%
X59382265Y-27519144D03*
%TO.P,C13,2*%
%TO.N,AGND*%
X58422265Y-27519144D03*
%TD*%
D17*
%TO.P,JP1,1,A*%
%TO.N,AGND*%
X62772265Y-19419144D03*
D18*
%TO.P,JP1,2,B*%
%TO.N,/~{USB_BOOT_1}*%
X61472265Y-19419144D03*
%TD*%
D13*
%TO.P,R15,1*%
%TO.N,/RUN_1*%
X69902265Y-41269144D03*
%TO.P,R15,2*%
%TO.N,Net-(JP2-B)*%
X70922265Y-41269144D03*
%TD*%
D42*
%TO.P,J3,1,Pin_1*%
%TO.N,IMAGE_OUT_1_1+*%
X66972265Y-43519144D03*
%TO.P,J3,2,Pin_2*%
%TO.N,unconnected-(J3-Pin_2-Pad2)*%
X66972265Y-45944144D03*
%TO.P,J3,3,Pin_3*%
%TO.N,IMAGE_OUT_2_1+*%
X66572265Y-43519144D03*
%TO.P,J3,4,Pin_4*%
%TO.N,unconnected-(J3-Pin_4-Pad4)*%
X66572265Y-45944144D03*
%TO.P,J3,5,Pin_5*%
%TO.N,IMAGE_OUT_2_1-*%
X66172265Y-43519144D03*
%TO.P,J3,6,Pin_6*%
%TO.N,unconnected-(J3-Pin_6-Pad6)*%
X66172265Y-45944144D03*
%TO.P,J3,7,Pin_7*%
%TO.N,IMAGE_OUT_1_1-*%
X65772265Y-43519144D03*
%TO.P,J3,8,Pin_8*%
%TO.N,unconnected-(J3-Pin_8-Pad8)*%
X65772265Y-45944144D03*
%TO.P,J3,9,Pin_9*%
%TO.N,POSITION_OUT_1*%
X65372265Y-43519144D03*
%TO.P,J3,10,Pin_10*%
%TO.N,unconnected-(J3-Pin_10-Pad10)*%
X65372265Y-45944144D03*
%TO.P,J3,11,Pin_11*%
%TO.N,AGND*%
X64972265Y-43519144D03*
%TO.P,J3,12,Pin_12*%
%TO.N,unconnected-(J3-Pin_12-Pad12)*%
X64972265Y-45944144D03*
%TO.P,J3,13,Pin_13*%
%TO.N,unconnected-(J3-Pin_13-Pad13)*%
X64572265Y-43519144D03*
%TO.P,J3,14,Pin_14*%
%TO.N,unconnected-(J3-Pin_14-Pad14)*%
X64572265Y-45944144D03*
%TD*%
D43*
%TO.P,U1,1,ADDR/SDO*%
%TO.N,/IMU_SDO*%
X59422265Y-29156644D03*
%TO.P,U1,2,RESV/NC*%
%TO.N,unconnected-(U1-RESV{slash}NC-Pad2)*%
X58922265Y-29156644D03*
%TO.P,U1,3,RESV/NC*%
%TO.N,unconnected-(U1-RESV{slash}NC-Pad3)*%
X58422265Y-29156644D03*
%TO.P,U1,4,INT1/INT*%
%TO.N,unconnected-(U1-INT1{slash}INT-Pad4)*%
X57922265Y-29156644D03*
D44*
%TO.P,U1,5,VDDIO*%
%TO.N,+3.3V*%
X57759765Y-29819144D03*
%TO.P,U1,6,GND*%
%TO.N,AGND*%
X57759765Y-30319144D03*
%TO.P,U1,7,RESV/NC*%
%TO.N,unconnected-(U1-RESV{slash}NC-Pad7)*%
X57759765Y-30819144D03*
D43*
%TO.P,U1,8,VDD*%
%TO.N,+3.3V*%
X57922265Y-31481644D03*
%TO.P,U1,9,INT2/FSYNC/CLKIN*%
%TO.N,unconnected-(U1-INT2{slash}FSYNC{slash}CLKIN-Pad9)*%
X58422265Y-31481644D03*
%TO.P,U1,10,RESV/NC*%
%TO.N,unconnected-(U1-RESV{slash}NC-Pad10)*%
X58922265Y-31481644D03*
%TO.P,U1,11,RESV/NC*%
%TO.N,unconnected-(U1-RESV{slash}NC-Pad11)*%
X59422265Y-31481644D03*
D44*
%TO.P,U1,12,CS*%
%TO.N,/~{IMU_CS}*%
X59584765Y-30819144D03*
%TO.P,U1,13,SCLK*%
%TO.N,/IMU_SCLK*%
X59584765Y-30319144D03*
%TO.P,U1,14,SDA/SDI*%
%TO.N,/IMU_SDI*%
X59584765Y-29819144D03*
%TD*%
D10*
%TO.P,C29,1*%
%TO.N,+2V8*%
X34472265Y-30889144D03*
%TO.P,C29,2*%
%TO.N,AGND*%
X34472265Y-31849144D03*
%TD*%
%TO.P,C21,1*%
%TO.N,+1V5*%
X78522265Y-31539144D03*
%TO.P,C21,2*%
%TO.N,AGND*%
X78522265Y-32499144D03*
%TD*%
D21*
%TO.P,R19,1*%
%TO.N,+3.3V*%
X30394765Y-30019144D03*
%TO.P,R19,2*%
%TO.N,Net-(D2-A)*%
X29374765Y-30019144D03*
%TD*%
D42*
%TO.P,J2,1,Pin_1*%
%TO.N,/USB_D1+*%
X66822265Y-19919144D03*
%TO.P,J2,2,Pin_2*%
%TO.N,unconnected-(J2-Pin_2-Pad2)*%
X66822265Y-17494144D03*
%TO.P,J2,3,Pin_3*%
%TO.N,/USB_D1-*%
X67222265Y-19919144D03*
%TO.P,J2,4,Pin_4*%
%TO.N,unconnected-(J2-Pin_4-Pad4)*%
X67222265Y-17494144D03*
%TO.P,J2,5,Pin_5*%
%TO.N,SWCLK_1*%
X67622265Y-19919144D03*
%TO.P,J2,6,Pin_6*%
%TO.N,unconnected-(J2-Pin_6-Pad6)*%
X67622265Y-17494144D03*
%TO.P,J2,7,Pin_7*%
%TO.N,SWD_1*%
X68022265Y-19919144D03*
%TO.P,J2,8,Pin_8*%
%TO.N,AGND*%
X68022265Y-17494144D03*
%TD*%
D10*
%TO.P,C2,1*%
%TO.N,+3.3V*%
X58922265Y-33089144D03*
%TO.P,C2,2*%
%TO.N,AGND*%
X58922265Y-34049144D03*
%TD*%
D13*
%TO.P,R9,1*%
%TO.N,AGND*%
X79912265Y-36019144D03*
%TO.P,R9,2*%
%TO.N,DGND*%
X80932265Y-36019144D03*
%TD*%
D11*
%TO.P,C14,1*%
%TO.N,+3.3V*%
X60802265Y-34169144D03*
%TO.P,C14,2*%
%TO.N,AGND*%
X59842265Y-34169144D03*
%TD*%
D35*
%TO.P,D1,1,K*%
%TO.N,AGND*%
X25884765Y-27019144D03*
%TO.P,D1,2,A*%
%TO.N,Net-(D1-A)*%
X27459765Y-27019144D03*
%TD*%
D22*
%TO.P,C6,1*%
%TO.N,+3.3V*%
X74442265Y-30319144D03*
%TO.P,C6,2*%
%TO.N,AGND*%
X75402265Y-30319144D03*
%TD*%
D10*
%TO.P,C28,1*%
%TO.N,+3.3V*%
X39222265Y-30876644D03*
%TO.P,C28,2*%
%TO.N,AGND*%
X39222265Y-31836644D03*
%TD*%
%TO.P,C16,1*%
%TO.N,+3.3V*%
X57922265Y-33089144D03*
%TO.P,C16,2*%
%TO.N,AGND*%
X57922265Y-34049144D03*
%TD*%
D45*
%TO.P,R1,1*%
%TO.N,/~{IMU_CS}*%
X61422265Y-31921644D03*
%TO.P,R1,2*%
%TO.N,+3.3V*%
X61422265Y-33116644D03*
%TD*%
D11*
%TO.P,C15,1*%
%TO.N,+3.3V*%
X56002265Y-30569144D03*
%TO.P,C15,2*%
%TO.N,AGND*%
X55042265Y-30569144D03*
%TD*%
D46*
%TO.N,+3.3V*%
X61901420Y-31291968D03*
D47*
X78422265Y-30519144D03*
X83123265Y-30369144D03*
X61422265Y-33519144D03*
%TO.N,+1V1*%
X61830381Y-29712500D03*
X66922265Y-32512500D03*
X69100000Y-30322211D03*
X68392266Y-23889145D03*
X66700000Y-34905276D03*
D46*
X62022265Y-26119144D03*
D47*
X72046292Y-29712500D03*
X66924784Y-28112500D03*
X64700000Y-30364129D03*
%TO.N,AGND*%
X60422265Y-26819144D03*
X36772265Y-33069144D03*
X65022265Y-21419144D03*
X70311265Y-26012461D03*
X36747265Y-37494144D03*
X35172265Y-28169144D03*
X67322265Y-39319144D03*
X71511265Y-25669144D03*
X35722265Y-37269144D03*
X63572265Y-17969144D03*
X36722265Y-25919144D03*
D46*
X79322265Y-36019144D03*
D47*
X69722265Y-24219144D03*
X57822265Y-27519144D03*
X75422265Y-43069144D03*
X34072265Y-28069144D03*
X80902265Y-31419144D03*
X55022265Y-28819144D03*
X65417755Y-39123654D03*
X35772265Y-32669144D03*
X57322265Y-34019144D03*
X81472265Y-27919144D03*
D46*
%TO.N,PCLK_1*%
X72332265Y-24911450D03*
X79422265Y-27919144D03*
D47*
X71282428Y-28779307D03*
D46*
%TO.N,~{RESET_1}*%
X79422265Y-33269141D03*
X61272265Y-35508574D03*
D47*
%TO.N,+1V5*%
X33022265Y-38569144D03*
X78522265Y-31539144D03*
%TO.N,+2V8*%
X34572265Y-33519144D03*
D46*
X76391171Y-34319144D03*
D47*
X75872265Y-41669144D03*
D46*
%TO.N,SWCLK_1*%
X85972265Y-27519144D03*
X67972265Y-20669144D03*
D47*
%TO.N,DATA1_1*%
X78422265Y-24819144D03*
D46*
%TO.N,SCL_cam_1*%
X79422265Y-33919144D03*
X61824336Y-36087651D03*
%TO.N,/XCLK*%
X79422265Y-29919144D03*
%TO.N,PWDN_1*%
X79252137Y-32219558D03*
D47*
%TO.N,/XIN_mem1*%
X75972265Y-40519144D03*
X66919167Y-40010169D03*
D46*
%TO.N,SDA_cam_1*%
X62422265Y-36619144D03*
X79422265Y-34919144D03*
%TO.N,DGND*%
X84172265Y-35269144D03*
%TO.N,INT_XCLK*%
X73140915Y-23987794D03*
X72722265Y-28512500D03*
%TO.N,EXT_XCLK_1*%
X72332265Y-24111447D03*
X69526033Y-35015376D03*
%TO.N,DATA9_1*%
X69391302Y-35651262D03*
%TO.N,DATA3_1*%
X72634613Y-31237500D03*
%TO.N,DATA2_1*%
X72622265Y-32288500D03*
%TO.N,DATA5_1*%
X72122265Y-31637500D03*
%TO.N,HSYNC_1*%
X69342000Y-36419144D03*
%TO.N,DATA8_1*%
X73122265Y-33944144D03*
%TO.N,DATA6_1*%
X73122265Y-32813500D03*
%TO.N,DATA4_1*%
X73146962Y-30837500D03*
%TO.N,VSYNC_1*%
X62518347Y-30987500D03*
%TO.N,DATA7_1*%
X73522265Y-33338500D03*
%TD*%
D48*
%TO.N,+3.3V*%
X56002265Y-28737069D02*
X56002265Y-29459144D01*
X54122265Y-34719144D02*
X54972265Y-35569144D01*
X60802265Y-34916499D02*
X60802265Y-34169144D01*
D49*
X66622265Y-27519144D02*
X66645231Y-27542110D01*
X66500000Y-24676879D02*
X64522265Y-22699144D01*
D50*
X77961265Y-30980144D02*
X74793266Y-30980144D01*
D51*
X83123265Y-30369144D02*
X83123265Y-30998143D01*
D48*
X42023265Y-28068144D02*
X39222265Y-30869144D01*
D49*
X66829909Y-27511500D02*
X66900000Y-27441409D01*
D51*
X80422265Y-21869144D02*
X78672265Y-20119144D01*
D48*
X57922265Y-33089144D02*
X54842265Y-33089144D01*
D51*
X78672265Y-20119144D02*
X73412265Y-20119144D01*
D49*
X70193434Y-34940313D02*
X70193434Y-37836937D01*
X66900000Y-26875000D02*
X66900000Y-24396879D01*
X58922265Y-33089144D02*
X57922265Y-33089144D01*
D48*
X54122265Y-32369144D02*
X54122265Y-28657069D01*
X32372265Y-26219144D02*
X33022265Y-26219144D01*
X54842265Y-33089144D02*
X54122265Y-32369144D01*
X70193434Y-37836937D02*
X70511227Y-37519144D01*
D49*
X63462500Y-27512500D02*
X63915621Y-27512500D01*
X69700000Y-34446879D02*
X70193434Y-34940313D01*
X66900000Y-24396879D02*
X65522265Y-23019144D01*
D48*
X40372265Y-35019144D02*
X39902265Y-35489144D01*
D49*
X68500000Y-26875000D02*
X68500000Y-25691409D01*
D48*
X54722265Y-28068144D02*
X42023265Y-28068144D01*
D51*
X83123265Y-30998143D02*
X81202264Y-32919144D01*
D49*
X65522265Y-23019144D02*
X65522265Y-22699144D01*
X70337500Y-27912500D02*
X70058204Y-27633205D01*
D51*
X83123265Y-26570144D02*
X81322265Y-24769144D01*
D48*
X39222265Y-30876644D02*
X39411947Y-30876644D01*
X60149620Y-35569144D02*
X60802265Y-34916499D01*
D49*
X74442265Y-27319144D02*
X74248909Y-27512500D01*
X65700000Y-37401409D02*
X65222265Y-37879144D01*
D48*
X31972265Y-26619144D02*
X32372265Y-26219144D01*
D49*
X66522265Y-27519144D02*
X66622265Y-27519144D01*
X70130856Y-27719144D02*
X69972265Y-27719144D01*
X74035621Y-27912500D02*
X74442265Y-28319144D01*
X57759765Y-29819144D02*
X56362265Y-29819144D01*
X70337500Y-30312500D02*
X69728909Y-30312500D01*
X63462500Y-27512500D02*
X62828909Y-27512500D01*
D50*
X74793266Y-30980144D02*
X74442265Y-30629143D01*
D49*
X56362265Y-29819144D02*
X56002265Y-29459144D01*
X69700000Y-33750000D02*
X69700000Y-34446879D01*
X68500000Y-25691409D02*
X68722265Y-25469144D01*
X65700000Y-33750000D02*
X65700000Y-33046879D01*
D50*
X74442265Y-35501236D02*
X72321564Y-37621937D01*
D49*
X61252265Y-33689144D02*
X61422265Y-33519144D01*
X66500000Y-27496879D02*
X66522265Y-27519144D01*
X61332265Y-33089144D02*
X61422265Y-32999144D01*
X63462500Y-31512500D02*
X62121952Y-31512500D01*
X70058204Y-27633205D02*
X69972265Y-27719144D01*
D48*
X39902265Y-35489144D02*
X39109765Y-35489144D01*
X54122265Y-32369144D02*
X54122265Y-34719144D01*
X59382265Y-27209145D02*
X59382265Y-27519144D01*
D51*
X73412265Y-20119144D02*
X71522265Y-22009144D01*
D50*
X61422265Y-33519144D02*
X60893265Y-34048144D01*
D49*
X70337500Y-27912500D02*
X74035621Y-27912500D01*
D48*
X70511227Y-37519144D02*
X71725641Y-37519144D01*
D49*
X60272265Y-33089144D02*
X60402265Y-33089144D01*
D48*
X56682340Y-26719144D02*
X58892264Y-26719144D01*
D49*
X62121952Y-31512500D02*
X61901420Y-31291968D01*
X60272265Y-33089144D02*
X61332265Y-33089144D01*
D48*
X55333340Y-28068144D02*
X56682340Y-26719144D01*
X39222265Y-30869144D02*
X39222265Y-30876644D01*
X58892264Y-26719144D02*
X59382265Y-27209145D01*
X31122265Y-30019144D02*
X31472265Y-29669144D01*
D49*
X61422265Y-32999144D02*
X61422265Y-33519144D01*
X70337500Y-30312500D02*
X74435621Y-30312500D01*
D50*
X74442265Y-30319144D02*
X74442265Y-35501236D01*
D49*
X62822265Y-27519144D02*
X59382265Y-27519144D01*
D50*
X60893265Y-34048144D02*
X60893265Y-34169144D01*
D48*
X39411947Y-30876644D02*
X40372265Y-31836962D01*
X71725641Y-37519144D02*
X71828434Y-37621937D01*
X40372265Y-31836962D02*
X40372265Y-35019144D01*
X54722265Y-28068144D02*
X55333340Y-28068144D01*
D49*
X69728909Y-30312500D02*
X69701000Y-30340409D01*
D48*
X80902265Y-33919144D02*
X80902265Y-34919144D01*
X54122265Y-28657069D02*
X54711190Y-28068144D01*
D49*
X69701000Y-30369144D02*
X69701000Y-30340409D01*
X66675841Y-27511500D02*
X66829909Y-27511500D01*
D48*
X54972265Y-35569144D02*
X60149620Y-35569144D01*
D50*
X72321564Y-37621937D02*
X71828434Y-37621937D01*
D49*
X70337500Y-27512500D02*
X70130856Y-27719144D01*
X74435621Y-30312500D02*
X74442265Y-30319144D01*
X68500000Y-26875000D02*
X68500000Y-27496879D01*
D50*
X70171227Y-37859144D02*
X70193434Y-37836937D01*
D48*
X31972265Y-29169144D02*
X31972265Y-26619144D01*
X54711190Y-28068144D02*
X54722265Y-28068144D01*
D49*
X62828909Y-27512500D02*
X62822265Y-27519144D01*
X68500000Y-27496879D02*
X68522265Y-27519144D01*
X66900000Y-27441409D02*
X66900000Y-26875000D01*
D48*
X71828434Y-39121937D02*
X71828434Y-37621937D01*
D51*
X81202264Y-32919144D02*
X80932265Y-32919144D01*
D49*
X69972265Y-27719144D02*
X69672265Y-27719144D01*
D50*
X69222265Y-37859144D02*
X70171227Y-37859144D01*
D49*
X66500000Y-26875000D02*
X66500000Y-24676879D01*
D48*
X80902265Y-32919144D02*
X80902265Y-33919144D01*
D51*
X80422265Y-24769144D02*
X81322265Y-24769144D01*
D49*
X66645231Y-27542110D02*
X66675841Y-27511500D01*
X66500000Y-26875000D02*
X66500000Y-27496879D01*
D51*
X80422265Y-24769144D02*
X80422265Y-21869144D01*
D49*
X63915621Y-27512500D02*
X64242265Y-27839144D01*
X64215621Y-31512500D02*
X64222265Y-31519144D01*
X74442265Y-28319144D02*
X74442265Y-27319144D01*
X63462500Y-31512500D02*
X64215621Y-31512500D01*
X61901420Y-31291968D02*
X61945071Y-31291968D01*
X74248909Y-27512500D02*
X70337500Y-27512500D01*
D51*
X83123265Y-26570144D02*
X83123265Y-30369144D01*
D49*
X56002265Y-29459144D02*
X56002265Y-30569144D01*
X68722265Y-24839144D02*
X68792265Y-24769144D01*
X65700000Y-33046879D02*
X65672265Y-33019144D01*
D48*
X30394765Y-30019144D02*
X31122265Y-30019144D01*
D50*
X78422265Y-30519144D02*
X77961265Y-30980144D01*
X74442265Y-30629143D02*
X74442265Y-30319144D01*
D49*
X68722265Y-25469144D02*
X68722265Y-24839144D01*
X58922265Y-33089144D02*
X60272265Y-33089144D01*
X65700000Y-33750000D02*
X65700000Y-37401409D01*
X57922265Y-33089144D02*
X57922265Y-31481644D01*
D48*
X55333340Y-28068144D02*
X56002265Y-28737069D01*
X31472265Y-29669144D02*
X31972265Y-29169144D01*
%TO.N,+5V*%
X40172265Y-25719144D02*
X40172265Y-23719144D01*
X39402265Y-26489144D02*
X40172265Y-25719144D01*
X38272265Y-26106644D02*
X39222265Y-26106644D01*
X40172265Y-23719144D02*
X38082265Y-21629144D01*
X38082265Y-21629144D02*
X38082265Y-19569144D01*
X30834765Y-27019144D02*
X30834765Y-25819144D01*
X30834765Y-25819144D02*
X31535765Y-25118144D01*
X39222265Y-26489144D02*
X39402265Y-26489144D01*
X31535765Y-25118144D02*
X37283765Y-25118144D01*
X37283765Y-25118144D02*
X38272265Y-26106644D01*
D52*
%TO.N,+1V1*%
X66900000Y-34705276D02*
X66900000Y-33750000D01*
X66572265Y-34891409D02*
X66713867Y-34891409D01*
D48*
X66700000Y-34905276D02*
X66700000Y-35119144D01*
D49*
X72046292Y-29712500D02*
X72222265Y-29888472D01*
D48*
X66700000Y-35119144D02*
X66651000Y-35168144D01*
X68572265Y-22019144D02*
X68572265Y-23549144D01*
D49*
X61830381Y-29712500D02*
X61832968Y-29715087D01*
D51*
X68572265Y-20969144D02*
X68823765Y-20717644D01*
D52*
X66713867Y-34891409D02*
X66900000Y-34705276D01*
D48*
X68512267Y-23769144D02*
X68792265Y-23769144D01*
D49*
X72222265Y-29912500D02*
X73848909Y-29912500D01*
D48*
X66651000Y-35168144D02*
X66651000Y-37105407D01*
D49*
X68392266Y-23889145D02*
X68100000Y-24181411D01*
X62274849Y-29715087D02*
X62477436Y-29512500D01*
D51*
X70520265Y-19369144D02*
X72172265Y-19369144D01*
D49*
X61982265Y-26769144D02*
X61982265Y-26159144D01*
D51*
X68823765Y-20717644D02*
X69381207Y-20717644D01*
D49*
X73848909Y-29912500D02*
X74442265Y-29319144D01*
D48*
X68572265Y-23549144D02*
X68792265Y-23769144D01*
D49*
X62477436Y-29512500D02*
X63462500Y-29512500D01*
X66800000Y-35019144D02*
X66877735Y-35019144D01*
D48*
X67222265Y-37676672D02*
X67222265Y-37859144D01*
D49*
X68100000Y-24181411D02*
X68100000Y-26875000D01*
D51*
X69381207Y-20717644D02*
X69733265Y-20365586D01*
X69733265Y-20156144D02*
X70520265Y-19369144D01*
D49*
X66700000Y-34905276D02*
X66700000Y-34919144D01*
D48*
X68392266Y-23889145D02*
X68512267Y-23769144D01*
D49*
X70337500Y-29912500D02*
X72222265Y-29912500D01*
X72222265Y-29888472D02*
X72222265Y-29912500D01*
D52*
X66586132Y-34905276D02*
X66572265Y-34891409D01*
X66700000Y-34905276D02*
X66586132Y-34905276D01*
D48*
X66651000Y-37105407D02*
X67222265Y-37676672D01*
D49*
X66700000Y-34919144D02*
X66800000Y-35019144D01*
D51*
X68572265Y-22019144D02*
X68572265Y-20969144D01*
X69733265Y-20365586D02*
X69733265Y-20156144D01*
D49*
X61982265Y-26159144D02*
X62022265Y-26119144D01*
X61832968Y-29715087D02*
X62274849Y-29715087D01*
D52*
%TO.N,AGND*%
X64972265Y-43519144D02*
X64972265Y-44419144D01*
D49*
X69628948Y-26012461D02*
X70311265Y-26012461D01*
D48*
X57352265Y-34049144D02*
X57322265Y-34019144D01*
D49*
X65222265Y-38928164D02*
X65417755Y-39123654D01*
X79322265Y-36019144D02*
X79942265Y-36019144D01*
X71511265Y-25669144D02*
X71511265Y-25430144D01*
X71522265Y-25419144D02*
X71522265Y-24999144D01*
X55042265Y-28839144D02*
X55022265Y-28819144D01*
D48*
X36722265Y-27069144D02*
X36722265Y-25919144D01*
D49*
X71772265Y-25669144D02*
X72722265Y-26619144D01*
X65022265Y-21739144D02*
X64522265Y-21739144D01*
D48*
X58422265Y-27519144D02*
X57822265Y-27519144D01*
D49*
X67222265Y-38819144D02*
X67222265Y-39219144D01*
X55042265Y-29459144D02*
X55042265Y-28839144D01*
X55042265Y-29459144D02*
X55042265Y-30569144D01*
D48*
X62772265Y-19419144D02*
X63572265Y-18619144D01*
D49*
X69244472Y-38796937D02*
X69222265Y-38819144D01*
D48*
X69752265Y-24189144D02*
X69722265Y-24219144D01*
X36722265Y-31369144D02*
X36722265Y-33019144D01*
X81472265Y-27919144D02*
X80902265Y-27919144D01*
D49*
X69222265Y-38819144D02*
X69222265Y-40319144D01*
D48*
X75402265Y-28319144D02*
X75402265Y-27319144D01*
D49*
X65522265Y-21739144D02*
X65022265Y-21739144D01*
D48*
X60472265Y-26769144D02*
X60422265Y-26819144D01*
D49*
X56822265Y-31219144D02*
X56622265Y-31419144D01*
D48*
X35834765Y-32606644D02*
X35772265Y-32669144D01*
D49*
X56622265Y-31419144D02*
X55122265Y-31419144D01*
D48*
X80902265Y-31919144D02*
X80902265Y-31419144D01*
X35622265Y-27719144D02*
X35172265Y-28169144D01*
D49*
X55122265Y-31419144D02*
X55042265Y-31339144D01*
D48*
X36747265Y-37494144D02*
X36772265Y-37519144D01*
D49*
X70193434Y-38796937D02*
X69244472Y-38796937D01*
D48*
X61022265Y-26769144D02*
X60472265Y-26769144D01*
X34222265Y-27919144D02*
X34072265Y-28069144D01*
X69752265Y-23769144D02*
X69752265Y-24189144D01*
X58922265Y-34049144D02*
X57922265Y-34049144D01*
D49*
X56822265Y-30469144D02*
X56822265Y-31219144D01*
X73728434Y-39962975D02*
X73172265Y-40519144D01*
D48*
X75402265Y-30319144D02*
X75402265Y-29319144D01*
X35834765Y-32019144D02*
X35834765Y-32606644D01*
D49*
X69222265Y-40319144D02*
X69422265Y-40519144D01*
X71511265Y-25430144D02*
X71522265Y-25419144D01*
X65222265Y-38839144D02*
X65222265Y-38928164D01*
X71511265Y-25669144D02*
X71772265Y-25669144D01*
D48*
X75402265Y-29319144D02*
X75402265Y-28319144D01*
D49*
X69300000Y-26875000D02*
X69300000Y-26341409D01*
X72722265Y-26619144D02*
X74822265Y-26619144D01*
X65022265Y-21739144D02*
X65022265Y-21419144D01*
X55042265Y-31339144D02*
X55042265Y-30569144D01*
D48*
X36622265Y-37369144D02*
X36747265Y-37494144D01*
D49*
X57759765Y-30319144D02*
X56972265Y-30319144D01*
D48*
X36622265Y-35819144D02*
X36622265Y-37369144D01*
X69752265Y-24249144D02*
X69722265Y-24219144D01*
D49*
X56972265Y-30319144D02*
X56822265Y-30469144D01*
D48*
X63572265Y-18619144D02*
X63572265Y-17969144D01*
X80902265Y-30919144D02*
X80902265Y-31419144D01*
X69752265Y-24769144D02*
X69752265Y-24249144D01*
X35834765Y-27719144D02*
X35622265Y-27719144D01*
D49*
X74822265Y-26619144D02*
X75402265Y-27199144D01*
X73172265Y-40519144D02*
X69422265Y-40519144D01*
D48*
X35734765Y-36469144D02*
X35734765Y-37256644D01*
X34222265Y-27449144D02*
X34222265Y-27919144D01*
D49*
X67222265Y-39219144D02*
X67322265Y-39319144D01*
X75402265Y-27199144D02*
X75402265Y-27319144D01*
X73728434Y-39121937D02*
X73728434Y-39962975D01*
X69300000Y-26341409D02*
X69628948Y-26012461D01*
D51*
X74872265Y-43069144D02*
X73972265Y-42169144D01*
D48*
X36722265Y-33019144D02*
X36772265Y-33069144D01*
X35734765Y-37256644D02*
X35722265Y-37269144D01*
D51*
X75422265Y-43069144D02*
X74872265Y-43069144D01*
D48*
X57922265Y-34049144D02*
X57352265Y-34049144D01*
D49*
%TO.N,PCLK_1*%
X73048000Y-25594879D02*
X77048000Y-25594879D01*
X71282428Y-28779307D02*
X71282428Y-28843898D01*
X71013826Y-29112500D02*
X70337500Y-29112500D01*
X72332265Y-24911450D02*
X72364571Y-24911450D01*
X79422265Y-27919144D02*
X79942265Y-27919144D01*
X79372265Y-27919144D02*
X79422265Y-27919144D01*
X71282428Y-28843898D02*
X71013826Y-29112500D01*
X77048000Y-25594879D02*
X79372265Y-27919144D01*
X72364571Y-24911450D02*
X73048000Y-25594879D01*
D52*
%TO.N,~{RESET_1}*%
X61272265Y-35508574D02*
X61636446Y-35508574D01*
D49*
X79592268Y-33269141D02*
X79942265Y-32919144D01*
X79942265Y-31919144D02*
X79942265Y-32919144D01*
D52*
X61636446Y-35508574D02*
X62022265Y-35122756D01*
X62022265Y-35122756D02*
X62022265Y-32119144D01*
D49*
X79422265Y-33269141D02*
X79592268Y-33269141D01*
D52*
X62022265Y-32119144D02*
X62228909Y-31912500D01*
X61270090Y-35510749D02*
X61272265Y-35508574D01*
X62228909Y-31912500D02*
X63462500Y-31912500D01*
D48*
%TO.N,+1V5*%
X31747265Y-35106644D02*
X30834765Y-36019144D01*
X33022265Y-36636962D02*
X34170083Y-35489144D01*
X34359765Y-35106644D02*
X31747265Y-35106644D01*
X34170083Y-35489144D02*
X34359765Y-35489144D01*
X33022265Y-38569144D02*
X33022265Y-36636962D01*
%TO.N,+2V8*%
X33711265Y-32658144D02*
X34572265Y-33519144D01*
X34472265Y-30889144D02*
X34282583Y-30889144D01*
X75872265Y-41669144D02*
X77772265Y-39769144D01*
X33711265Y-31460462D02*
X33711265Y-32658144D01*
X76391171Y-34626310D02*
X76391171Y-34319144D01*
D51*
X76391171Y-34319144D02*
X77172265Y-34319144D01*
D48*
X77772265Y-39769144D02*
X77772265Y-36007404D01*
D50*
X34520525Y-30889144D02*
X34472265Y-30889144D01*
D51*
X77172265Y-34319144D02*
X77272265Y-34419144D01*
D48*
X34282583Y-30889144D02*
X33711265Y-31460462D01*
D51*
X77992265Y-34319144D02*
X78022265Y-34289144D01*
D48*
X34472265Y-30506644D02*
X33347265Y-30506644D01*
D49*
X76391171Y-34319144D02*
X76401171Y-34309144D01*
D51*
X77172265Y-34319144D02*
X77992265Y-34319144D01*
D48*
X77772265Y-36007404D02*
X76391171Y-34626310D01*
X33347265Y-30506644D02*
X30834765Y-33019144D01*
D52*
%TO.N,SWCLK_1*%
X67622265Y-20418644D02*
X67872765Y-20669144D01*
X67300000Y-33750000D02*
X67324000Y-33774000D01*
X67300000Y-36396879D02*
X67921265Y-37018144D01*
X67921265Y-41864533D02*
X70076877Y-44020144D01*
X67300000Y-35819144D02*
X67300000Y-36396879D01*
X67622265Y-19919144D02*
X67622265Y-20418644D01*
X84371265Y-44020144D02*
X85972265Y-42419144D01*
X67872765Y-20669144D02*
X67972265Y-20669144D01*
X67300000Y-35819144D02*
X67300000Y-35968365D01*
X70076877Y-44020144D02*
X84371265Y-44020144D01*
X67300000Y-33750000D02*
X67300000Y-35819144D01*
X67921265Y-37018144D02*
X67921265Y-41864533D01*
X85972265Y-42419144D02*
X85972265Y-27519144D01*
%TO.N,SWD_1*%
X67700000Y-36146879D02*
X68272265Y-36719144D01*
X68272265Y-36719144D02*
X68272265Y-41719144D01*
X85372265Y-42419144D02*
X85372265Y-19619144D01*
X68008265Y-19583144D02*
X68008265Y-19919144D01*
X84175765Y-18422644D02*
X69168765Y-18422644D01*
X67700000Y-33750000D02*
X67700000Y-36146879D01*
X84122265Y-43669144D02*
X85372265Y-42419144D01*
X68272265Y-41719144D02*
X70222265Y-43669144D01*
X85372265Y-19619144D02*
X84175765Y-18422644D01*
X70222265Y-43669144D02*
X84122265Y-43669144D01*
X69168765Y-18422644D02*
X68008265Y-19583144D01*
D49*
%TO.N,/VREG_AVDD_1*%
X70911265Y-26530144D02*
X70566409Y-26875000D01*
X71522265Y-24039144D02*
X70911265Y-24650144D01*
X70566409Y-26875000D02*
X69700000Y-26875000D01*
X71522265Y-22999144D02*
X71522265Y-24039144D01*
X70911265Y-24650144D02*
X70911265Y-26530144D01*
D52*
%TO.N,/RUN_1*%
X68623265Y-41020144D02*
X68872265Y-41269144D01*
X68623265Y-36573755D02*
X68623265Y-41020144D01*
X68872265Y-41269144D02*
X69902265Y-41269144D01*
X68100000Y-33750000D02*
X68100000Y-36050490D01*
X68100000Y-36050490D02*
X68623265Y-36573755D01*
%TO.N,DATA1_1*%
X79072265Y-24819144D02*
X79122265Y-24769144D01*
X78422265Y-24819144D02*
X79072265Y-24819144D01*
%TO.N,SCL_cam_1*%
X61824336Y-36067073D02*
X62373265Y-35518144D01*
X61824336Y-36087651D02*
X61824336Y-36067073D01*
D49*
X79422265Y-33919144D02*
X79942265Y-33919144D01*
D52*
X62373265Y-35518144D02*
X62373265Y-32369144D01*
X62429909Y-32312500D02*
X63462500Y-32312500D01*
X62373265Y-32369144D02*
X62429909Y-32312500D01*
D50*
%TO.N,/~{USB_BOOT_1}*%
X61472265Y-19419144D02*
X61472265Y-20174144D01*
X61472265Y-20174144D02*
X63037265Y-21739144D01*
X63037265Y-21739144D02*
X63522265Y-21739144D01*
D49*
%TO.N,/VREG_LX_1*%
X70510265Y-25130847D02*
X70221968Y-25419144D01*
X68900000Y-25891409D02*
X68900000Y-26875000D01*
X69372265Y-25419144D02*
X68900000Y-25891409D01*
X69972265Y-22019144D02*
X70510265Y-22557144D01*
X70510265Y-22557144D02*
X70510265Y-25130847D01*
X70221968Y-25419144D02*
X69372265Y-25419144D01*
%TO.N,/QSPI_SS_1*%
X63522265Y-22699144D02*
X64100000Y-23276879D01*
X64100000Y-23276879D02*
X64100000Y-26875000D01*
D52*
%TO.N,/USB_D1+*%
X66522265Y-20969144D02*
X66522265Y-21739144D01*
X66822265Y-20669144D02*
X66522265Y-20969144D01*
X66822265Y-19919144D02*
X66822265Y-20669144D01*
%TO.N,/USB_D1-*%
X67222265Y-19919144D02*
X67222265Y-20644144D01*
X67222265Y-20644144D02*
X67522265Y-20944144D01*
X67522265Y-20944144D02*
X67522265Y-21739144D01*
D49*
%TO.N,/XCLK*%
X79422265Y-29919144D02*
X79922265Y-29919144D01*
X79922265Y-28919144D02*
X79922265Y-29919144D01*
%TO.N,PWDN_1*%
X79942265Y-30981594D02*
X79942265Y-30919144D01*
X79361265Y-32110430D02*
X79361265Y-31562594D01*
X79361265Y-31562594D02*
X79942265Y-30981594D01*
X79252137Y-32219558D02*
X79361265Y-32110430D01*
%TO.N,/XIN_mem1*%
X75072265Y-39569144D02*
X75072265Y-37919144D01*
X66222265Y-39419144D02*
X66222265Y-38819144D01*
X66919167Y-40010169D02*
X66813290Y-40010169D01*
X66813290Y-40010169D02*
X66222265Y-39419144D01*
X74775058Y-37621937D02*
X73728434Y-37621937D01*
X75972265Y-40519144D02*
X75972265Y-40469144D01*
X75072265Y-37919144D02*
X74775058Y-37621937D01*
X75972265Y-40469144D02*
X75072265Y-39569144D01*
D52*
%TO.N,SDA_cam_1*%
X62422265Y-36619144D02*
X62724265Y-36317144D01*
X62880909Y-32712500D02*
X63462500Y-32712500D01*
X62724265Y-36317144D02*
X62724265Y-32869144D01*
X62724265Y-32869144D02*
X62880909Y-32712500D01*
D49*
X79422265Y-34919144D02*
X79942265Y-34919144D01*
%TO.N,DGND*%
X83422265Y-36019144D02*
X80932265Y-36019144D01*
X84172265Y-35269144D02*
X83422265Y-36019144D01*
D52*
%TO.N,POSITION_OUT_1*%
X65372265Y-43119144D02*
X63218265Y-40965144D01*
X63218265Y-40965144D02*
X63218265Y-36787588D01*
X63722265Y-36283590D02*
X63722265Y-33372265D01*
X63218265Y-36787588D02*
X63722265Y-36283590D01*
X65372265Y-43519144D02*
X65372265Y-43119144D01*
X63722265Y-33372265D02*
X63462500Y-33112500D01*
D48*
%TO.N,Net-(D1-A)*%
X27459765Y-27019144D02*
X29009765Y-27019144D01*
%TO.N,Net-(D2-A)*%
X27422265Y-30019144D02*
X28972265Y-30019144D01*
%TO.N,Net-(D3-A)*%
X27459765Y-33019144D02*
X29009765Y-33019144D01*
D49*
%TO.N,INT_XCLK*%
X81972265Y-26669144D02*
X82622265Y-27319144D01*
X71397765Y-29512500D02*
X70337500Y-29512500D01*
X79272265Y-26669144D02*
X81972265Y-26669144D01*
X73891741Y-24769144D02*
X77372265Y-24769144D01*
X82622265Y-27319144D02*
X82622265Y-29369144D01*
X71822265Y-29088000D02*
X71397765Y-29512500D01*
X73122653Y-24000056D02*
X73891741Y-24769144D01*
X77372265Y-24769144D02*
X79272265Y-26669144D01*
X82072265Y-29919144D02*
X80882265Y-29919144D01*
X73122653Y-23987794D02*
X73122653Y-24000056D01*
X72722265Y-28512500D02*
X72722265Y-28919144D01*
X72553409Y-29088000D02*
X71822265Y-29088000D01*
X72722265Y-28919144D02*
X72553409Y-29088000D01*
X82622265Y-29369144D02*
X82072265Y-29919144D01*
D48*
%TO.N,Net-(D4-A)*%
X27459765Y-36019144D02*
X29009765Y-36019144D01*
D50*
%TO.N,Net-(JP2-B)*%
X71772265Y-41269144D02*
X72672265Y-42169144D01*
X70922265Y-41269144D02*
X71772265Y-41269144D01*
D49*
%TO.N,Net-(U3-XIN)*%
X66100000Y-37736879D02*
X66222265Y-37859144D01*
X66100000Y-33750000D02*
X66100000Y-37736879D01*
%TO.N,EXT_XCLK_1*%
X81806165Y-27070144D02*
X82073265Y-27337244D01*
X77229900Y-25193879D02*
X79106165Y-27070144D01*
X72332265Y-24111447D02*
X72382205Y-24111447D01*
X69300000Y-34789342D02*
X69300000Y-33750000D01*
X79106165Y-27070144D02*
X81806165Y-27070144D01*
X82073265Y-28618144D02*
X81772265Y-28919144D01*
X81772265Y-28919144D02*
X80882265Y-28919144D01*
X73464637Y-25193879D02*
X77229900Y-25193879D01*
X69526033Y-35015376D02*
X69300000Y-34789342D01*
X72382205Y-24111447D02*
X73464637Y-25193879D01*
X82073265Y-27337244D02*
X82073265Y-28618144D01*
%TO.N,Net-(U3-USB_DP)*%
X67300000Y-24196879D02*
X66522265Y-23419144D01*
X67300000Y-26875000D02*
X67300000Y-24196879D01*
X66522265Y-23419144D02*
X66522265Y-22699144D01*
%TO.N,Net-(U3-USB_DM)*%
X67522265Y-23813674D02*
X67522265Y-22699144D01*
X67700000Y-26875000D02*
X67700000Y-23991409D01*
X67700000Y-23991409D02*
X67522265Y-23813674D01*
%TO.N,/~{IMU_CS}*%
X63462500Y-29912500D02*
X62728909Y-29912500D01*
X61422265Y-31519144D02*
X61422265Y-32039144D01*
X59584765Y-30819144D02*
X60722265Y-30819144D01*
X61725163Y-30666246D02*
X61042263Y-30666246D01*
X62272265Y-30119144D02*
X61725163Y-30666246D01*
X62522265Y-30119144D02*
X62272265Y-30119144D01*
X60722265Y-30819144D02*
X61422265Y-31519144D01*
X62728909Y-29912500D02*
X62522265Y-30119144D01*
X60889365Y-30819144D02*
X60722265Y-30819144D01*
X61042263Y-30666246D02*
X60889365Y-30819144D01*
%TO.N,/IMU_SCLK*%
X63462500Y-29112500D02*
X61578909Y-29112500D01*
X60372265Y-30319144D02*
X59584765Y-30319144D01*
X61578909Y-29112500D02*
X60372265Y-30319144D01*
%TO.N,/IMU_SDI*%
X63462500Y-28712500D02*
X61378909Y-28712500D01*
X61378909Y-28712500D02*
X60272265Y-29819144D01*
X60272265Y-29819144D02*
X59584765Y-29819144D01*
%TO.N,/IMU_SDO*%
X59422265Y-29156644D02*
X59422265Y-28519144D01*
X59422265Y-28519144D02*
X59628909Y-28312500D01*
X59628909Y-28312500D02*
X63462500Y-28312500D01*
D52*
%TO.N,DATA9_1*%
X69391302Y-35651262D02*
X68900000Y-35159960D01*
X68900000Y-35159960D02*
X68900000Y-33750000D01*
%TO.N,DATA3_1*%
X72634613Y-31237500D02*
X72509613Y-31112500D01*
X72509613Y-31112500D02*
X70337500Y-31112500D01*
%TO.N,DATA2_1*%
X72622265Y-32288500D02*
X71991621Y-32288500D01*
X71991621Y-32288500D02*
X71615621Y-31912500D01*
X71615621Y-31912500D02*
X70337500Y-31912500D01*
%TO.N,DATA5_1*%
X71997265Y-31512500D02*
X70337500Y-31512500D01*
X72122265Y-31637500D02*
X71997265Y-31512500D01*
%TO.N,HSYNC_1*%
X68500000Y-35746879D02*
X68500000Y-33750000D01*
X69122598Y-36369477D02*
X68500000Y-35746879D01*
X69292333Y-36369477D02*
X69122598Y-36369477D01*
%TO.N,DATA8_1*%
X70915621Y-33112500D02*
X70337500Y-33112500D01*
X71747265Y-33944144D02*
X70915621Y-33112500D01*
X71747265Y-33944144D02*
X73122265Y-33944144D01*
%TO.N,DATA6_1*%
X71415621Y-32312500D02*
X71916621Y-32813500D01*
X71916621Y-32813500D02*
X73122265Y-32813500D01*
X70337500Y-32312500D02*
X71415621Y-32312500D01*
%TO.N,DATA4_1*%
X73146962Y-30837500D02*
X73021962Y-30712500D01*
X73021962Y-30712500D02*
X70337500Y-30712500D01*
%TO.N,VSYNC_1*%
X62643347Y-31112500D02*
X63462500Y-31112500D01*
X62518347Y-30987500D02*
X62643347Y-31112500D01*
%TO.N,DATA7_1*%
X73441621Y-33419144D02*
X73522265Y-33338500D01*
X71215621Y-32712500D02*
X71922265Y-33419144D01*
X70337500Y-32712500D02*
X71215621Y-32712500D01*
X72622265Y-33419144D02*
X73441621Y-33419144D01*
X71922265Y-33419144D02*
X72622265Y-33419144D01*
%TO.N,IMAGE_OUT_2_1-*%
X64500000Y-36706439D02*
X63934265Y-37272173D01*
X65437278Y-41584157D02*
X66172265Y-42319144D01*
X64500000Y-33750000D02*
X64500000Y-36706439D01*
X63934265Y-37272173D02*
X63934265Y-40081144D01*
X65276640Y-41423519D02*
X65437278Y-41584157D01*
X63934265Y-40081144D02*
X65276640Y-41423519D01*
X66172265Y-42319144D02*
X66172265Y-43519144D01*
%TO.N,IMAGE_OUT_1_1-*%
X65170459Y-42269144D02*
X65472265Y-42269144D01*
X65758265Y-42555144D02*
X65758265Y-43419144D01*
X65472265Y-42269144D02*
X65758265Y-42555144D01*
X63572265Y-40670950D02*
X65170459Y-42269144D01*
X64100000Y-36591409D02*
X63572265Y-37119144D01*
X63572265Y-40281642D02*
X63572265Y-39265718D01*
X63572265Y-40304056D02*
X63572265Y-40670950D01*
X63572265Y-40304056D02*
X63572265Y-40281642D01*
X63572265Y-37119144D02*
X63572265Y-38750181D01*
X63572265Y-38750181D02*
X63572265Y-39265718D01*
X64100000Y-33750000D02*
X64100000Y-36591409D01*
%TO.N,IMAGE_OUT_1_1+*%
X65300000Y-36899215D02*
X65300000Y-36543581D01*
X66972265Y-41819144D02*
X66147051Y-40993930D01*
X65300000Y-33750000D02*
X65300000Y-36050459D01*
X65300000Y-36543581D02*
X65300000Y-36061666D01*
X64636265Y-39483144D02*
X64636265Y-37562950D01*
X66147051Y-40993930D02*
X65874338Y-40721217D01*
X65300000Y-36050459D02*
X65300000Y-36061666D01*
X66972265Y-43519144D02*
X66972265Y-41819144D01*
X64636265Y-37562950D02*
X65300000Y-36899215D01*
X65874338Y-40721217D02*
X64636265Y-39483144D01*
%TO.N,IMAGE_OUT_2_1+*%
X65794749Y-41241628D02*
X65723769Y-41170648D01*
X64285265Y-39732144D02*
X64285265Y-37417562D01*
X66572265Y-43519144D02*
X66572265Y-42019144D01*
X66572265Y-42019144D02*
X65794749Y-41241628D01*
X64900000Y-36802827D02*
X64900000Y-33750000D01*
X65723769Y-41170648D02*
X64285265Y-39732144D01*
X64285265Y-37417562D02*
X64900000Y-36802827D01*
%TD*%
%TA.AperFunction,Conductor*%
%TO.N,+5V*%
G36*
X39652804Y-25588829D02*
G01*
X39698559Y-25641633D01*
X39709765Y-25693144D01*
X39709765Y-26520144D01*
X39690080Y-26587183D01*
X39637276Y-26632938D01*
X39585765Y-26644144D01*
X38309765Y-26644144D01*
X38309765Y-27789644D01*
X38290080Y-27856683D01*
X38237276Y-27902438D01*
X38185765Y-27913644D01*
X37725163Y-27913644D01*
X37722127Y-27913793D01*
X37722124Y-27913745D01*
X37713997Y-27914144D01*
X37533765Y-27914144D01*
X37466726Y-27894459D01*
X37420971Y-27841655D01*
X37409765Y-27790144D01*
X37409765Y-27493644D01*
X37429450Y-27426605D01*
X37482254Y-27380850D01*
X37533765Y-27369644D01*
X37722650Y-27369644D01*
X37722651Y-27369643D01*
X37741706Y-27365853D01*
X37779305Y-27358375D01*
X37779305Y-27358374D01*
X37779308Y-27358374D01*
X37843562Y-27315441D01*
X37886495Y-27251187D01*
X37897765Y-27194528D01*
X37897765Y-26943760D01*
X37897662Y-26943246D01*
X37886496Y-26887103D01*
X37886495Y-26887102D01*
X37886495Y-26887101D01*
X37843562Y-26822847D01*
X37779308Y-26779914D01*
X37779307Y-26779913D01*
X37779306Y-26779913D01*
X37779305Y-26779912D01*
X37722653Y-26768644D01*
X37722649Y-26768644D01*
X37533765Y-26768644D01*
X37466726Y-26748959D01*
X37420971Y-26696155D01*
X37409765Y-26644644D01*
X37409765Y-25693144D01*
X37429450Y-25626105D01*
X37482254Y-25580350D01*
X37533765Y-25569144D01*
X39585765Y-25569144D01*
X39652804Y-25588829D01*
G37*
%TD.AperFunction*%
%TD*%
%TA.AperFunction,Conductor*%
%TO.N,+3.3V*%
G36*
X39709765Y-29969144D02*
G01*
X39709765Y-30895144D01*
X39690080Y-30962183D01*
X39637276Y-31007938D01*
X39585765Y-31019144D01*
X38309765Y-31019144D01*
X38309765Y-32164644D01*
X38290080Y-32231683D01*
X38237276Y-32277438D01*
X38185765Y-32288644D01*
X37533765Y-32288644D01*
X37466726Y-32268959D01*
X37420971Y-32216155D01*
X37409765Y-32164644D01*
X37409765Y-31793644D01*
X37429450Y-31726605D01*
X37482254Y-31680850D01*
X37533765Y-31669644D01*
X37722650Y-31669644D01*
X37722651Y-31669643D01*
X37741706Y-31665853D01*
X37779305Y-31658375D01*
X37779305Y-31658374D01*
X37779308Y-31658374D01*
X37843562Y-31615441D01*
X37886495Y-31551187D01*
X37897765Y-31494528D01*
X37897765Y-31243760D01*
X37897662Y-31243246D01*
X37886496Y-31187103D01*
X37886495Y-31187102D01*
X37886495Y-31187101D01*
X37843562Y-31122847D01*
X37779308Y-31079914D01*
X37779307Y-31079913D01*
X37779306Y-31079913D01*
X37779305Y-31079912D01*
X37722653Y-31068644D01*
X37722649Y-31068644D01*
X37533765Y-31068644D01*
X37466726Y-31048959D01*
X37420971Y-30996155D01*
X37409765Y-30944644D01*
X37409765Y-29945059D01*
X39709765Y-29969144D01*
G37*
%TD.AperFunction*%
%TD*%
%TA.AperFunction,Conductor*%
%TO.N,+1V5*%
G36*
X35865304Y-34413829D02*
G01*
X35911059Y-34466633D01*
X35922265Y-34518144D01*
X35922265Y-35345144D01*
X35902580Y-35412183D01*
X35849776Y-35457938D01*
X35798265Y-35469144D01*
X33771265Y-35469144D01*
X33704226Y-35449459D01*
X33658471Y-35396655D01*
X33647265Y-35345144D01*
X33647265Y-34518144D01*
X33666950Y-34451105D01*
X33719754Y-34405350D01*
X33771265Y-34394144D01*
X35798265Y-34394144D01*
X35865304Y-34413829D01*
G37*
%TD.AperFunction*%
%TD*%
%TA.AperFunction,Conductor*%
%TO.N,AGND*%
G36*
X38886746Y-31195294D02*
G01*
X38958426Y-31243190D01*
X38958429Y-31243190D01*
X38958430Y-31243191D01*
X39028572Y-31257143D01*
X39028575Y-31257144D01*
X39028577Y-31257144D01*
X39245403Y-31257144D01*
X39312442Y-31276829D01*
X39333084Y-31293463D01*
X39726227Y-31686606D01*
X39709765Y-33019144D01*
X34567947Y-33019144D01*
X34098084Y-32549281D01*
X34064599Y-32487958D01*
X34061765Y-32461600D01*
X34061765Y-31669144D01*
X35384765Y-31669144D01*
X35384765Y-32394144D01*
X38509765Y-32394144D01*
X38509765Y-31194144D01*
X38886746Y-31195294D01*
G37*
%TD.AperFunction*%
%TD*%
%TA.AperFunction,Conductor*%
%TO.N,+1V1*%
G36*
X69165304Y-28038829D02*
G01*
X69211059Y-28091633D01*
X69222265Y-28143144D01*
X69222265Y-32395144D01*
X69202580Y-32462183D01*
X69149776Y-32507938D01*
X69098265Y-32519144D01*
X64746265Y-32519144D01*
X64679226Y-32499459D01*
X64633471Y-32446655D01*
X64622265Y-32395144D01*
X64622265Y-28740530D01*
X65099500Y-28740530D01*
X65099500Y-31884461D01*
X65114209Y-31958412D01*
X65114210Y-31958414D01*
X65147856Y-32008768D01*
X65170237Y-32042263D01*
X65254089Y-32098291D01*
X65254092Y-32098291D01*
X65254093Y-32098292D01*
X65291062Y-32105645D01*
X65328035Y-32113000D01*
X68471964Y-32112999D01*
X68545911Y-32098291D01*
X68629763Y-32042263D01*
X68685791Y-31958411D01*
X68700500Y-31884465D01*
X68700499Y-28740536D01*
X68685791Y-28666589D01*
X68685790Y-28666587D01*
X68685789Y-28666585D01*
X68663256Y-28632864D01*
X68629763Y-28582737D01*
X68545911Y-28526709D01*
X68545909Y-28526708D01*
X68545906Y-28526707D01*
X68471968Y-28512000D01*
X65328038Y-28512000D01*
X65254087Y-28526709D01*
X65254085Y-28526710D01*
X65170237Y-28582737D01*
X65114209Y-28666589D01*
X65114207Y-28666593D01*
X65099500Y-28740530D01*
X64622265Y-28740530D01*
X64622265Y-28143144D01*
X64641950Y-28076105D01*
X64694754Y-28030350D01*
X64746265Y-28019144D01*
X69098265Y-28019144D01*
X69165304Y-28038829D01*
G37*
%TD.AperFunction*%
%TD*%
%TA.AperFunction,Conductor*%
%TO.N,+3.3V*%
G36*
X39552804Y-34413829D02*
G01*
X39598559Y-34466633D01*
X39609765Y-34518144D01*
X39609765Y-35345144D01*
X39590080Y-35412183D01*
X39537276Y-35457938D01*
X39485765Y-35469144D01*
X38209765Y-35469144D01*
X38209765Y-36614644D01*
X38190080Y-36681683D01*
X38137276Y-36727438D01*
X38085765Y-36738644D01*
X37433765Y-36738644D01*
X37366726Y-36718959D01*
X37320971Y-36666155D01*
X37309765Y-36614644D01*
X37309765Y-36243644D01*
X37329450Y-36176605D01*
X37382254Y-36130850D01*
X37433765Y-36119644D01*
X37622650Y-36119644D01*
X37622651Y-36119643D01*
X37641706Y-36115853D01*
X37679305Y-36108375D01*
X37679305Y-36108374D01*
X37679308Y-36108374D01*
X37743562Y-36065441D01*
X37786495Y-36001187D01*
X37797765Y-35944528D01*
X37797765Y-35693760D01*
X37797662Y-35693246D01*
X37786496Y-35637103D01*
X37786495Y-35637102D01*
X37786495Y-35637101D01*
X37743562Y-35572847D01*
X37679308Y-35529914D01*
X37679307Y-35529913D01*
X37679306Y-35529913D01*
X37679305Y-35529912D01*
X37622653Y-35518644D01*
X37622649Y-35518644D01*
X37433765Y-35518644D01*
X37366726Y-35498959D01*
X37320971Y-35446155D01*
X37309765Y-35394644D01*
X37309765Y-34518144D01*
X37329450Y-34451105D01*
X37382254Y-34405350D01*
X37433765Y-34394144D01*
X39485765Y-34394144D01*
X39552804Y-34413829D01*
G37*
%TD.AperFunction*%
%TD*%
%TA.AperFunction,Conductor*%
%TO.N,+3.3V*%
G36*
X35965304Y-25588829D02*
G01*
X36011059Y-25641633D01*
X36022265Y-25693144D01*
X36022265Y-26520144D01*
X36002580Y-26587183D01*
X35949776Y-26632938D01*
X35898265Y-26644144D01*
X33747265Y-26644144D01*
X33747265Y-25569144D01*
X35898265Y-25569144D01*
X35965304Y-25588829D01*
G37*
%TD.AperFunction*%
%TD*%
%TA.AperFunction,Conductor*%
%TO.N,AGND*%
G36*
X38699265Y-35645028D02*
G01*
X38699265Y-35652836D01*
X38713217Y-35722978D01*
X38713218Y-35722981D01*
X38713219Y-35722983D01*
X38766374Y-35802535D01*
X38845926Y-35855690D01*
X38845929Y-35855690D01*
X38845930Y-35855691D01*
X38916072Y-35869643D01*
X38916075Y-35869644D01*
X38916077Y-35869644D01*
X39303455Y-35869644D01*
X39303456Y-35869643D01*
X39373604Y-35855690D01*
X39373605Y-35855688D01*
X39384887Y-35851017D01*
X39386250Y-35854307D01*
X39433032Y-35839664D01*
X39435234Y-35839644D01*
X39629896Y-35839644D01*
X39609765Y-37469144D01*
X33634765Y-37469144D01*
X33634765Y-36520144D01*
X34035765Y-36119144D01*
X35284765Y-36119144D01*
X35284765Y-36844144D01*
X38409765Y-36844144D01*
X38409765Y-35644144D01*
X38699265Y-35645028D01*
G37*
%TD.AperFunction*%
%TD*%
%TA.AperFunction,Conductor*%
%TO.N,AGND*%
G36*
X38905538Y-26820351D02*
G01*
X38958426Y-26855690D01*
X38958429Y-26855690D01*
X38958430Y-26855691D01*
X39028572Y-26869643D01*
X39028575Y-26869644D01*
X39028577Y-26869644D01*
X39415955Y-26869644D01*
X39415956Y-26869643D01*
X39486104Y-26855690D01*
X39536108Y-26822278D01*
X39732265Y-26822877D01*
X39709765Y-28644144D01*
X33734765Y-28644144D01*
X33734765Y-27294144D01*
X35384765Y-27294144D01*
X35384765Y-28019144D01*
X37494367Y-28019144D01*
X37496876Y-28019643D01*
X37496880Y-28019644D01*
X37496881Y-28019644D01*
X37722650Y-28019644D01*
X37722651Y-28019643D01*
X37725163Y-28019144D01*
X38509765Y-28019144D01*
X38509765Y-26819144D01*
X38905538Y-26820351D01*
G37*
%TD.AperFunction*%
%TD*%
%TA.AperFunction,Conductor*%
%TO.N,+3.3V*%
G36*
X33747265Y-26644144D02*
G01*
X33372265Y-26644144D01*
X33372265Y-28819144D01*
X39585765Y-28819144D01*
X39652804Y-28838829D01*
X39698559Y-28891633D01*
X39709765Y-28943144D01*
X39709765Y-29969144D01*
X37409765Y-29945059D01*
X37401955Y-29944978D01*
X37322265Y-29569144D01*
X32696265Y-29569144D01*
X32629226Y-29549459D01*
X32583471Y-29496655D01*
X32572265Y-29445144D01*
X32572265Y-25693144D01*
X32591950Y-25626105D01*
X32644754Y-25580350D01*
X32696265Y-25569144D01*
X33747265Y-25569144D01*
X33747265Y-26644144D01*
G37*
%TD.AperFunction*%
%TD*%
%TA.AperFunction,Conductor*%
%TO.N,+3.3V*%
G36*
X69690373Y-27501204D02*
G01*
X69697477Y-27518036D01*
X69747050Y-33095037D01*
X69740172Y-33112069D01*
X69723264Y-33119249D01*
X69723157Y-33119250D01*
X64121157Y-33144038D01*
X64104156Y-33137083D01*
X64097052Y-33120252D01*
X64072085Y-30311402D01*
X64299500Y-30311402D01*
X64299500Y-30416856D01*
X64326793Y-30518716D01*
X64379520Y-30610042D01*
X64454087Y-30684609D01*
X64504766Y-30713868D01*
X64515947Y-30728440D01*
X64516765Y-30734652D01*
X64516765Y-32395144D01*
X64518063Y-32407220D01*
X64519176Y-32417577D01*
X64530381Y-32469080D01*
X64552115Y-32512500D01*
X64553739Y-32515743D01*
X64599494Y-32568547D01*
X64649502Y-32600685D01*
X64716541Y-32620370D01*
X64746265Y-32624644D01*
X66519270Y-32624644D01*
X66536241Y-32631673D01*
X66542452Y-32642433D01*
X66549058Y-32667087D01*
X66601785Y-32758413D01*
X66676352Y-32832980D01*
X66767678Y-32885707D01*
X66869538Y-32913000D01*
X66869539Y-32913000D01*
X66974991Y-32913000D01*
X66974992Y-32913000D01*
X67076852Y-32885707D01*
X67168178Y-32832980D01*
X67242745Y-32758413D01*
X67295472Y-32667087D01*
X67302078Y-32642433D01*
X67313260Y-32627860D01*
X67325260Y-32624644D01*
X69098259Y-32624644D01*
X69098265Y-32624644D01*
X69120692Y-32622233D01*
X69120695Y-32622232D01*
X69120698Y-32622232D01*
X69141934Y-32617611D01*
X69172203Y-32611027D01*
X69218864Y-32587670D01*
X69271668Y-32541915D01*
X69303806Y-32491907D01*
X69323491Y-32424868D01*
X69327765Y-32395144D01*
X69327765Y-30667024D01*
X69334794Y-30650053D01*
X69339760Y-30646242D01*
X69345913Y-30642691D01*
X69420480Y-30568124D01*
X69473207Y-30476798D01*
X69500500Y-30374938D01*
X69500500Y-30269484D01*
X69473207Y-30167624D01*
X69420480Y-30076298D01*
X69345913Y-30001731D01*
X69345910Y-30001729D01*
X69345909Y-30001728D01*
X69339765Y-29998181D01*
X69328583Y-29983608D01*
X69327765Y-29977397D01*
X69327765Y-28143150D01*
X69327765Y-28143144D01*
X69325354Y-28120717D01*
X69325353Y-28120714D01*
X69325353Y-28120710D01*
X69314148Y-28069207D01*
X69314148Y-28069206D01*
X69290791Y-28022545D01*
X69245036Y-27969741D01*
X69245035Y-27969740D01*
X69195030Y-27937604D01*
X69195029Y-27937603D01*
X69195028Y-27937603D01*
X69127989Y-27917918D01*
X69127985Y-27917917D01*
X69105779Y-27914724D01*
X69098265Y-27913644D01*
X69098264Y-27913644D01*
X67286289Y-27913644D01*
X67269318Y-27906615D01*
X67265505Y-27901644D01*
X67245266Y-27866590D01*
X67245265Y-27866589D01*
X67245264Y-27866587D01*
X67170697Y-27792020D01*
X67079371Y-27739293D01*
X67079370Y-27739292D01*
X67079369Y-27739292D01*
X67010103Y-27720733D01*
X66977511Y-27712000D01*
X66872057Y-27712000D01*
X66844765Y-27719312D01*
X66770198Y-27739292D01*
X66678871Y-27792020D01*
X66604301Y-27866590D01*
X66584063Y-27901644D01*
X66569490Y-27912826D01*
X66563279Y-27913644D01*
X64746265Y-27913644D01*
X64735914Y-27914756D01*
X64723831Y-27916055D01*
X64672328Y-27927260D01*
X64625666Y-27950617D01*
X64572861Y-27996373D01*
X64540725Y-28046378D01*
X64540724Y-28046381D01*
X64521038Y-28113423D01*
X64516765Y-28143144D01*
X64516765Y-29993605D01*
X64509736Y-30010576D01*
X64504765Y-30014389D01*
X64454090Y-30043646D01*
X64379520Y-30118216D01*
X64326792Y-30209543D01*
X64306812Y-30284110D01*
X64299500Y-30311402D01*
X64072085Y-30311402D01*
X64047479Y-27543249D01*
X64054357Y-27526218D01*
X64071265Y-27519038D01*
X64071304Y-27519037D01*
X69673373Y-27494249D01*
X69690373Y-27501204D01*
G37*
%TD.AperFunction*%
%TD*%
%TA.AperFunction,Conductor*%
%TO.N,+2V8*%
G36*
X35965304Y-29963829D02*
G01*
X36011059Y-30016633D01*
X36022265Y-30068144D01*
X36022265Y-30895144D01*
X36002580Y-30962183D01*
X35949776Y-31007938D01*
X35898265Y-31019144D01*
X33871265Y-31019144D01*
X33804226Y-30999459D01*
X33758471Y-30946655D01*
X33747265Y-30895144D01*
X33747265Y-30068144D01*
X33766950Y-30001105D01*
X33819754Y-29955350D01*
X33871265Y-29944144D01*
X35898265Y-29944144D01*
X35965304Y-29963829D01*
G37*
%TD.AperFunction*%
%TD*%
%TA.AperFunction,Conductor*%
%TO.N,AGND*%
G36*
X84118747Y-18617829D02*
G01*
X84139389Y-18634463D01*
X85160446Y-19655520D01*
X85193931Y-19716843D01*
X85196765Y-19743201D01*
X85196765Y-42295087D01*
X85177080Y-42362126D01*
X85160446Y-42382768D01*
X84085889Y-43457325D01*
X84024566Y-43490810D01*
X83998208Y-43493644D01*
X70346321Y-43493644D01*
X70279282Y-43473959D01*
X70258640Y-43457325D01*
X68484084Y-41682768D01*
X68469380Y-41655840D01*
X68452788Y-41630022D01*
X68451896Y-41623821D01*
X68450599Y-41621445D01*
X68447765Y-41595087D01*
X68447765Y-41392201D01*
X68467450Y-41325162D01*
X68520254Y-41279407D01*
X68589412Y-41269463D01*
X68652968Y-41298488D01*
X68659446Y-41304520D01*
X68723483Y-41368557D01*
X68772852Y-41417926D01*
X68837356Y-41444644D01*
X69423497Y-41444644D01*
X69490536Y-41464329D01*
X69536291Y-41517133D01*
X69545114Y-41544452D01*
X69545427Y-41546027D01*
X69545428Y-41546030D01*
X69545429Y-41546032D01*
X69597479Y-41623930D01*
X69675377Y-41675980D01*
X69675379Y-41675980D01*
X69675380Y-41675981D01*
X69744066Y-41689644D01*
X69744069Y-41689644D01*
X70060463Y-41689644D01*
X70129149Y-41675981D01*
X70129149Y-41675980D01*
X70129153Y-41675980D01*
X70207051Y-41623930D01*
X70259101Y-41546032D01*
X70259415Y-41544452D01*
X70272765Y-41477342D01*
X70551764Y-41477342D01*
X70565427Y-41546028D01*
X70565428Y-41546030D01*
X70565429Y-41546032D01*
X70617479Y-41623930D01*
X70695377Y-41675980D01*
X70695379Y-41675980D01*
X70695380Y-41675981D01*
X70764066Y-41689644D01*
X70764069Y-41689644D01*
X71080463Y-41689644D01*
X71149149Y-41675981D01*
X71149149Y-41675980D01*
X71149153Y-41675980D01*
X71227051Y-41623930D01*
X71259910Y-41574752D01*
X71313522Y-41529948D01*
X71363012Y-41519644D01*
X71617142Y-41519644D01*
X71684181Y-41539329D01*
X71704823Y-41555963D01*
X72030446Y-41881586D01*
X72063931Y-41942909D01*
X72066765Y-41969267D01*
X72066765Y-42484975D01*
X72070359Y-42512273D01*
X72104436Y-42639447D01*
X72114971Y-42664881D01*
X72114977Y-42664893D01*
X72180798Y-42778899D01*
X72197566Y-42800751D01*
X72197570Y-42800756D01*
X72290652Y-42893838D01*
X72290657Y-42893842D01*
X72312509Y-42910610D01*
X72416003Y-42970362D01*
X72426522Y-42976435D01*
X72451966Y-42986974D01*
X72579133Y-43021049D01*
X72606439Y-43024644D01*
X72606446Y-43024644D01*
X73172264Y-43024644D01*
X73172265Y-43024644D01*
X73204866Y-43019480D01*
X73257616Y-42981155D01*
X73277765Y-42919144D01*
X73277765Y-41419144D01*
X73272601Y-41386543D01*
X73234276Y-41333793D01*
X73234275Y-41333792D01*
X73172266Y-41313644D01*
X73172265Y-41313644D01*
X72606439Y-41313644D01*
X72606433Y-41313644D01*
X72579135Y-41317238D01*
X72451961Y-41351315D01*
X72426527Y-41361850D01*
X72426515Y-41361856D01*
X72377508Y-41390151D01*
X72309607Y-41406624D01*
X72243581Y-41383771D01*
X72227827Y-41370445D01*
X71914162Y-41056780D01*
X71822094Y-41018644D01*
X71822093Y-41018644D01*
X71363012Y-41018644D01*
X71295973Y-40998959D01*
X71259910Y-40963535D01*
X71252983Y-40953168D01*
X71227051Y-40914358D01*
X71149153Y-40862308D01*
X71149151Y-40862307D01*
X71149149Y-40862306D01*
X71080463Y-40848644D01*
X71080461Y-40848644D01*
X70764069Y-40848644D01*
X70764067Y-40848644D01*
X70695380Y-40862306D01*
X70695377Y-40862308D01*
X70617479Y-40914358D01*
X70565429Y-40992256D01*
X70565427Y-40992259D01*
X70551765Y-41060945D01*
X70551765Y-41060948D01*
X70551765Y-41477340D01*
X70551765Y-41477342D01*
X70551764Y-41477342D01*
X70272765Y-41477342D01*
X70272765Y-41060945D01*
X70259102Y-40992259D01*
X70259101Y-40992258D01*
X70259101Y-40992256D01*
X70207051Y-40914358D01*
X70129153Y-40862308D01*
X70129151Y-40862307D01*
X70129149Y-40862306D01*
X70060463Y-40848644D01*
X70060461Y-40848644D01*
X69744069Y-40848644D01*
X69744067Y-40848644D01*
X69675380Y-40862306D01*
X69675377Y-40862308D01*
X69597479Y-40914358D01*
X69545429Y-40992256D01*
X69545427Y-40992260D01*
X69545114Y-40993836D01*
X69543483Y-40996952D01*
X69540754Y-41003542D01*
X69540164Y-41003297D01*
X69512728Y-41055747D01*
X69452012Y-41090321D01*
X69423497Y-41093644D01*
X68996322Y-41093644D01*
X68966881Y-41084999D01*
X68936895Y-41078476D01*
X68931879Y-41074721D01*
X68929283Y-41073959D01*
X68908641Y-41057325D01*
X68835084Y-40983768D01*
X68801599Y-40922445D01*
X68798765Y-40896087D01*
X68798765Y-38345026D01*
X68818450Y-38277987D01*
X68871254Y-38232232D01*
X68940412Y-38222288D01*
X68946957Y-38223409D01*
X69028574Y-38239644D01*
X69028577Y-38239644D01*
X69415955Y-38239644D01*
X69415956Y-38239643D01*
X69486104Y-38225690D01*
X69565656Y-38172535D01*
X69570857Y-38164750D01*
X69576947Y-38159661D01*
X69580245Y-38152441D01*
X69603372Y-38137577D01*
X69624470Y-38119947D01*
X69633843Y-38117995D01*
X69639023Y-38114667D01*
X69673958Y-38109644D01*
X69757997Y-38109644D01*
X69825036Y-38129329D01*
X69845682Y-38145966D01*
X69850044Y-38150329D01*
X69876441Y-38167966D01*
X69929595Y-38203483D01*
X69929597Y-38203483D01*
X69929599Y-38203484D01*
X69999741Y-38217436D01*
X69999744Y-38217437D01*
X69999746Y-38217437D01*
X70387124Y-38217437D01*
X70387125Y-38217436D01*
X70457273Y-38203483D01*
X70536825Y-38150328D01*
X70589980Y-38070776D01*
X70603934Y-38000625D01*
X70603934Y-37993644D01*
X70606484Y-37984958D01*
X70605196Y-37975997D01*
X70616174Y-37951956D01*
X70623619Y-37926605D01*
X70630459Y-37920677D01*
X70634221Y-37912441D01*
X70656455Y-37898151D01*
X70676423Y-37880850D01*
X70686937Y-37878562D01*
X70692999Y-37874667D01*
X70727934Y-37869644D01*
X70904434Y-37869644D01*
X70971473Y-37889329D01*
X71017228Y-37942133D01*
X71028434Y-37993644D01*
X71028434Y-39921937D01*
X74828434Y-39921937D01*
X74828434Y-39908225D01*
X74848119Y-39841186D01*
X74900923Y-39795431D01*
X74970081Y-39785487D01*
X75033637Y-39814512D01*
X75040115Y-39820544D01*
X75545279Y-40325708D01*
X75578764Y-40387031D01*
X75577374Y-40445478D01*
X75571765Y-40466411D01*
X75571765Y-40466417D01*
X75571765Y-40571871D01*
X75599058Y-40673731D01*
X75651785Y-40765057D01*
X75726352Y-40839624D01*
X75817678Y-40892351D01*
X75874980Y-40907704D01*
X75880161Y-40910862D01*
X75886219Y-40911296D01*
X75909649Y-40928836D01*
X75934638Y-40944067D01*
X75937291Y-40949529D01*
X75942152Y-40953168D01*
X75952378Y-40980584D01*
X75965168Y-41006913D01*
X75964447Y-41012943D01*
X75966569Y-41018632D01*
X75960348Y-41047227D01*
X75956874Y-41076289D01*
X75952677Y-41082489D01*
X75951717Y-41086905D01*
X75930566Y-41115159D01*
X75785037Y-41260688D01*
X75729455Y-41292780D01*
X75717682Y-41295934D01*
X75717678Y-41295936D01*
X75652111Y-41333792D01*
X75639556Y-41341041D01*
X75626349Y-41348666D01*
X75551786Y-41423229D01*
X75499059Y-41514554D01*
X75499058Y-41514557D01*
X75471765Y-41616417D01*
X75471765Y-41721871D01*
X75499058Y-41823731D01*
X75551785Y-41915057D01*
X75626352Y-41989624D01*
X75717678Y-42042351D01*
X75819538Y-42069644D01*
X75819540Y-42069644D01*
X75924990Y-42069644D01*
X75924992Y-42069644D01*
X76026852Y-42042351D01*
X76118178Y-41989624D01*
X76192745Y-41915057D01*
X76245472Y-41823731D01*
X76248625Y-41811961D01*
X76280718Y-41756371D01*
X78052735Y-39984356D01*
X78098879Y-39904432D01*
X78122765Y-39815288D01*
X78122765Y-39723000D01*
X78122765Y-36227342D01*
X80561764Y-36227342D01*
X80575427Y-36296028D01*
X80575428Y-36296030D01*
X80575429Y-36296032D01*
X80627479Y-36373930D01*
X80705377Y-36425980D01*
X80705379Y-36425980D01*
X80705380Y-36425981D01*
X80774066Y-36439644D01*
X80774069Y-36439644D01*
X81090463Y-36439644D01*
X81159149Y-36425981D01*
X81159149Y-36425980D01*
X81159153Y-36425980D01*
X81237051Y-36373930D01*
X81289101Y-36296032D01*
X81289101Y-36296030D01*
X81295886Y-36285877D01*
X81296835Y-36286511D01*
X81332878Y-36241786D01*
X81399173Y-36219723D01*
X81403596Y-36219644D01*
X83462145Y-36219644D01*
X83462147Y-36219644D01*
X83535839Y-36189120D01*
X84068995Y-35655962D01*
X84130318Y-35622478D01*
X84156676Y-35619644D01*
X84218407Y-35619644D01*
X84218409Y-35619644D01*
X84307553Y-35595758D01*
X84387477Y-35549613D01*
X84452734Y-35484356D01*
X84498879Y-35404432D01*
X84522765Y-35315288D01*
X84522765Y-35223000D01*
X84498879Y-35133856D01*
X84497641Y-35131711D01*
X84452738Y-35053938D01*
X84452735Y-35053935D01*
X84452734Y-35053932D01*
X84387477Y-34988675D01*
X84387474Y-34988673D01*
X84387470Y-34988670D01*
X84307558Y-34942532D01*
X84307555Y-34942531D01*
X84307554Y-34942530D01*
X84307553Y-34942530D01*
X84218409Y-34918644D01*
X84126121Y-34918644D01*
X84036977Y-34942530D01*
X84036976Y-34942530D01*
X84036974Y-34942531D01*
X84036971Y-34942532D01*
X83957059Y-34988670D01*
X83957050Y-34988677D01*
X83891798Y-35053929D01*
X83891791Y-35053938D01*
X83845653Y-35133850D01*
X83845652Y-35133853D01*
X83845651Y-35133855D01*
X83845651Y-35133856D01*
X83839162Y-35158074D01*
X83821765Y-35223000D01*
X83821765Y-35284731D01*
X83802080Y-35351770D01*
X83785446Y-35372412D01*
X83375534Y-35782325D01*
X83314211Y-35815810D01*
X83287853Y-35818644D01*
X81403596Y-35818644D01*
X81336557Y-35798959D01*
X81296099Y-35752268D01*
X81295886Y-35752411D01*
X81294751Y-35750712D01*
X81290802Y-35746155D01*
X81289111Y-35742272D01*
X81289101Y-35742257D01*
X81289101Y-35742256D01*
X81237051Y-35664358D01*
X81159153Y-35612308D01*
X81159151Y-35612307D01*
X81159149Y-35612306D01*
X81090463Y-35598644D01*
X81090461Y-35598644D01*
X80774069Y-35598644D01*
X80774067Y-35598644D01*
X80705380Y-35612306D01*
X80705377Y-35612308D01*
X80627479Y-35664358D01*
X80575429Y-35742256D01*
X80575427Y-35742259D01*
X80561765Y-35810945D01*
X80561765Y-35810948D01*
X80561765Y-36227340D01*
X80561765Y-36227342D01*
X80561764Y-36227342D01*
X78122765Y-36227342D01*
X78122765Y-35961260D01*
X78098879Y-35872116D01*
X78086759Y-35851124D01*
X78052735Y-35792192D01*
X77191868Y-34931325D01*
X77158383Y-34870002D01*
X77163367Y-34800310D01*
X77205239Y-34744377D01*
X77270703Y-34719960D01*
X77279549Y-34719644D01*
X77311825Y-34719644D01*
X77311827Y-34719644D01*
X77388253Y-34699165D01*
X77456776Y-34659604D01*
X77460417Y-34655963D01*
X77487344Y-34641259D01*
X77513163Y-34624667D01*
X77519363Y-34623775D01*
X77521740Y-34622478D01*
X77548098Y-34619644D01*
X77666865Y-34619644D01*
X77733904Y-34639329D01*
X77735719Y-34640517D01*
X77758426Y-34655690D01*
X77758427Y-34655690D01*
X77758428Y-34655691D01*
X77828572Y-34669643D01*
X77828575Y-34669644D01*
X77828577Y-34669644D01*
X78215955Y-34669644D01*
X78215956Y-34669643D01*
X78286104Y-34655690D01*
X78365656Y-34602535D01*
X78418811Y-34522983D01*
X78432765Y-34452832D01*
X78432765Y-34125456D01*
X78432765Y-34125453D01*
X78432764Y-34125451D01*
X78418812Y-34055309D01*
X78418811Y-34055308D01*
X78418811Y-34055305D01*
X78365656Y-33975753D01*
X78286104Y-33922598D01*
X78286102Y-33922597D01*
X78286099Y-33922596D01*
X78215956Y-33908644D01*
X78215953Y-33908644D01*
X77828577Y-33908644D01*
X77828574Y-33908644D01*
X77758430Y-33922596D01*
X77758426Y-33922598D01*
X77678871Y-33975755D01*
X77672298Y-33982328D01*
X77610974Y-34015811D01*
X77584620Y-34018644D01*
X76604916Y-34018644D01*
X76542915Y-34002031D01*
X76526460Y-33992530D01*
X76481887Y-33980587D01*
X76437315Y-33968644D01*
X76345027Y-33968644D01*
X76255883Y-33992530D01*
X76255882Y-33992530D01*
X76255880Y-33992531D01*
X76255877Y-33992532D01*
X76175965Y-34038670D01*
X76175956Y-34038677D01*
X76110704Y-34103929D01*
X76110697Y-34103938D01*
X76064559Y-34183850D01*
X76064558Y-34183853D01*
X76064557Y-34183855D01*
X76064557Y-34183856D01*
X76047905Y-34246004D01*
X76040671Y-34273000D01*
X76040671Y-34672453D01*
X76061633Y-34750686D01*
X76064556Y-34761596D01*
X76064558Y-34761600D01*
X76110698Y-34841518D01*
X76110701Y-34841522D01*
X77385446Y-36116267D01*
X77418931Y-36177590D01*
X77421765Y-36203948D01*
X77421765Y-39572599D01*
X77402080Y-39639638D01*
X77385446Y-39660280D01*
X76568281Y-40477445D01*
X76506958Y-40510930D01*
X76437266Y-40505946D01*
X76381333Y-40464074D01*
X76360825Y-40421857D01*
X76345472Y-40364557D01*
X76292745Y-40273231D01*
X76218178Y-40198664D01*
X76126852Y-40145937D01*
X76024992Y-40118644D01*
X75956677Y-40118644D01*
X75889638Y-40098959D01*
X75868996Y-40082325D01*
X75309084Y-39522413D01*
X75275599Y-39461090D01*
X75272765Y-39434732D01*
X75272765Y-37879263D01*
X75272764Y-37879260D01*
X75268781Y-37869644D01*
X75242241Y-37805570D01*
X75185839Y-37749168D01*
X74888632Y-37451961D01*
X74888630Y-37451959D01*
X74883539Y-37448557D01*
X74838736Y-37394943D01*
X74828434Y-37345458D01*
X74828434Y-36821937D01*
X73775187Y-36821937D01*
X73708148Y-36802252D01*
X73662393Y-36749448D01*
X73652449Y-36680290D01*
X73681474Y-36616734D01*
X73687506Y-36610256D01*
X74163969Y-36133793D01*
X74654629Y-35643133D01*
X74692765Y-35551064D01*
X74692765Y-35451408D01*
X74692765Y-31354644D01*
X74712450Y-31287605D01*
X74765254Y-31241850D01*
X74816765Y-31230644D01*
X77989475Y-31230644D01*
X78056514Y-31250329D01*
X78102269Y-31303133D01*
X78111787Y-31369334D01*
X78112362Y-31369391D01*
X78112131Y-31371727D01*
X78112213Y-31372291D01*
X78111891Y-31374168D01*
X78111765Y-31375453D01*
X78111765Y-31702836D01*
X78125717Y-31772978D01*
X78125718Y-31772981D01*
X78125719Y-31772983D01*
X78178874Y-31852535D01*
X78258426Y-31905690D01*
X78258429Y-31905690D01*
X78258430Y-31905691D01*
X78328572Y-31919643D01*
X78328575Y-31919644D01*
X78328577Y-31919644D01*
X78378571Y-31919644D01*
X78410663Y-31923869D01*
X78421513Y-31926776D01*
X78469538Y-31939644D01*
X78469540Y-31939644D01*
X78574990Y-31939644D01*
X78574992Y-31939644D01*
X78623017Y-31926776D01*
X78633867Y-31923869D01*
X78651626Y-31920475D01*
X78658767Y-31919644D01*
X78715953Y-31919644D01*
X78786104Y-31905690D01*
X78787670Y-31904643D01*
X78801533Y-31903030D01*
X78831244Y-31908122D01*
X78861265Y-31910809D01*
X78865327Y-31913964D01*
X78870398Y-31914834D01*
X78892635Y-31935177D01*
X78916443Y-31953671D01*
X78918154Y-31958522D01*
X78921950Y-31961995D01*
X78929660Y-31991136D01*
X78939688Y-32019561D01*
X78938505Y-32024566D01*
X78939821Y-32029540D01*
X78930553Y-32058220D01*
X78926392Y-32075827D01*
X78928635Y-32076756D01*
X78925524Y-32084267D01*
X78925523Y-32084269D01*
X78925523Y-32084270D01*
X78901637Y-32173414D01*
X78901637Y-32265702D01*
X78921277Y-32339000D01*
X78925524Y-32354848D01*
X78925525Y-32354851D01*
X78971663Y-32434763D01*
X78971666Y-32434767D01*
X78971668Y-32434770D01*
X79036925Y-32500027D01*
X79036928Y-32500028D01*
X79036931Y-32500031D01*
X79116843Y-32546169D01*
X79116844Y-32546169D01*
X79116849Y-32546172D01*
X79205993Y-32570058D01*
X79205995Y-32570058D01*
X79298277Y-32570058D01*
X79298281Y-32570058D01*
X79387425Y-32546172D01*
X79387430Y-32546168D01*
X79392460Y-32544821D01*
X79462310Y-32546484D01*
X79520173Y-32585646D01*
X79547678Y-32649874D01*
X79548386Y-32671062D01*
X79547918Y-32680011D01*
X79541765Y-32710948D01*
X79541765Y-32797870D01*
X79541596Y-32801107D01*
X79531047Y-32831141D01*
X79522080Y-32861680D01*
X79519551Y-32863870D01*
X79518443Y-32867028D01*
X79493325Y-32886595D01*
X79469276Y-32907435D01*
X79465530Y-32908249D01*
X79463325Y-32909968D01*
X79453547Y-32910856D01*
X79417765Y-32918641D01*
X79376121Y-32918641D01*
X79286977Y-32942527D01*
X79286976Y-32942527D01*
X79286974Y-32942528D01*
X79286971Y-32942529D01*
X79207059Y-32988667D01*
X79207050Y-32988674D01*
X79141798Y-33053926D01*
X79141791Y-33053935D01*
X79095653Y-33133847D01*
X79095652Y-33133850D01*
X79095651Y-33133852D01*
X79095651Y-33133853D01*
X79071765Y-33222997D01*
X79071765Y-33315285D01*
X79094279Y-33399309D01*
X79095652Y-33404431D01*
X79095653Y-33404434D01*
X79141791Y-33484346D01*
X79141798Y-33484355D01*
X79163904Y-33506461D01*
X79197389Y-33567784D01*
X79192405Y-33637476D01*
X79163906Y-33681822D01*
X79141796Y-33703932D01*
X79141791Y-33703938D01*
X79095653Y-33783850D01*
X79095652Y-33783853D01*
X79095651Y-33783855D01*
X79095651Y-33783856D01*
X79071765Y-33873000D01*
X79071765Y-33965288D01*
X79092737Y-34043557D01*
X79095652Y-34054434D01*
X79095653Y-34054437D01*
X79141791Y-34134349D01*
X79141794Y-34134353D01*
X79141796Y-34134356D01*
X79207053Y-34199613D01*
X79207056Y-34199614D01*
X79207059Y-34199617D01*
X79286971Y-34245755D01*
X79286972Y-34245755D01*
X79286977Y-34245758D01*
X79376121Y-34269644D01*
X79376123Y-34269644D01*
X79468406Y-34269644D01*
X79468409Y-34269644D01*
X79508826Y-34258814D01*
X79543351Y-34259636D01*
X79577971Y-34260254D01*
X79578424Y-34260471D01*
X79578674Y-34260477D01*
X79609809Y-34275487D01*
X79629500Y-34288644D01*
X79665358Y-34312604D01*
X79670504Y-34316042D01*
X79715309Y-34369654D01*
X79724016Y-34438979D01*
X79693862Y-34502006D01*
X79670502Y-34522247D01*
X79609807Y-34562801D01*
X79543130Y-34583678D01*
X79508826Y-34579473D01*
X79468410Y-34568644D01*
X79468409Y-34568644D01*
X79376121Y-34568644D01*
X79286977Y-34592530D01*
X79286976Y-34592530D01*
X79286974Y-34592531D01*
X79286971Y-34592532D01*
X79207059Y-34638670D01*
X79207050Y-34638677D01*
X79141798Y-34703929D01*
X79141791Y-34703938D01*
X79095653Y-34783850D01*
X79095652Y-34783853D01*
X79095651Y-34783855D01*
X79095651Y-34783856D01*
X79071765Y-34873000D01*
X79071765Y-34965288D01*
X79095516Y-35053929D01*
X79095652Y-35054434D01*
X79095653Y-35054437D01*
X79141791Y-35134349D01*
X79141794Y-35134353D01*
X79141796Y-35134356D01*
X79207053Y-35199613D01*
X79207056Y-35199614D01*
X79207059Y-35199617D01*
X79286971Y-35245755D01*
X79286972Y-35245755D01*
X79286977Y-35245758D01*
X79376121Y-35269644D01*
X79376123Y-35269644D01*
X79468406Y-35269644D01*
X79468409Y-35269644D01*
X79508826Y-35258814D01*
X79578674Y-35260477D01*
X79609808Y-35275487D01*
X79643397Y-35297930D01*
X79685377Y-35325980D01*
X79685378Y-35325980D01*
X79685380Y-35325981D01*
X79754066Y-35339644D01*
X79754069Y-35339644D01*
X80070463Y-35339644D01*
X80139149Y-35325981D01*
X80139149Y-35325980D01*
X80139153Y-35325980D01*
X80217051Y-35273930D01*
X80269101Y-35196032D01*
X80269102Y-35196028D01*
X80282765Y-35127342D01*
X80282765Y-34710945D01*
X80269102Y-34642259D01*
X80269101Y-34642258D01*
X80269101Y-34642256D01*
X80217051Y-34564358D01*
X80199265Y-34552474D01*
X80154556Y-34522600D01*
X80154025Y-34522245D01*
X80109220Y-34468634D01*
X80100513Y-34399309D01*
X80130667Y-34336282D01*
X80154026Y-34316042D01*
X80217051Y-34273930D01*
X80269101Y-34196032D01*
X80276396Y-34159358D01*
X80282765Y-34127342D01*
X80282765Y-33710945D01*
X80269102Y-33642259D01*
X80269101Y-33642258D01*
X80269101Y-33642256D01*
X80217051Y-33564358D01*
X80201899Y-33554234D01*
X80154026Y-33522246D01*
X80109220Y-33468634D01*
X80100513Y-33399309D01*
X80130667Y-33336282D01*
X80154026Y-33316042D01*
X80155159Y-33315285D01*
X80217051Y-33273930D01*
X80269101Y-33196032D01*
X80269784Y-33192600D01*
X80282765Y-33127342D01*
X80282765Y-32710945D01*
X80269102Y-32642259D01*
X80269101Y-32642258D01*
X80269101Y-32642256D01*
X80217051Y-32564358D01*
X80217048Y-32564355D01*
X80197872Y-32551542D01*
X80192782Y-32545451D01*
X80185562Y-32542154D01*
X80170697Y-32519023D01*
X80153068Y-32497928D01*
X80151116Y-32488555D01*
X80147788Y-32483376D01*
X80142765Y-32448441D01*
X80142765Y-32404246D01*
X80162450Y-32337207D01*
X80197874Y-32301144D01*
X80205754Y-32295878D01*
X80255656Y-32262535D01*
X80308811Y-32182983D01*
X80322765Y-32112832D01*
X80322765Y-31725456D01*
X80322765Y-31725453D01*
X80322764Y-31725451D01*
X80308812Y-31655309D01*
X80308811Y-31655308D01*
X80308811Y-31655305D01*
X80255656Y-31575753D01*
X80176104Y-31522598D01*
X80176103Y-31522597D01*
X80165949Y-31515813D01*
X80168231Y-31512396D01*
X80131538Y-31482803D01*
X80109499Y-31416501D01*
X80126805Y-31348808D01*
X80164528Y-31309024D01*
X80217051Y-31273930D01*
X80269101Y-31196032D01*
X80270877Y-31187103D01*
X80282765Y-31127342D01*
X80282765Y-30710945D01*
X80269102Y-30642259D01*
X80269101Y-30642258D01*
X80269101Y-30642256D01*
X80217051Y-30564358D01*
X80144023Y-30515562D01*
X80099220Y-30461952D01*
X80090513Y-30392627D01*
X80120667Y-30329600D01*
X80144019Y-30309364D01*
X80197051Y-30273930D01*
X80249101Y-30196032D01*
X80252284Y-30180030D01*
X80262765Y-30127342D01*
X80262765Y-29710945D01*
X80249102Y-29642259D01*
X80249101Y-29642258D01*
X80249101Y-29642256D01*
X80197051Y-29564358D01*
X80197048Y-29564355D01*
X80177872Y-29551542D01*
X80172782Y-29545451D01*
X80165562Y-29542154D01*
X80150697Y-29519023D01*
X80133068Y-29497928D01*
X80131116Y-29488555D01*
X80127788Y-29483376D01*
X80122765Y-29448441D01*
X80122765Y-29389845D01*
X80142450Y-29322806D01*
X80177872Y-29286744D01*
X80197051Y-29273930D01*
X80249101Y-29196032D01*
X80251741Y-29182762D01*
X80262765Y-29127342D01*
X80262765Y-28710945D01*
X80249102Y-28642259D01*
X80249101Y-28642258D01*
X80249101Y-28642256D01*
X80197051Y-28564358D01*
X80190964Y-28560291D01*
X80152186Y-28534380D01*
X80107380Y-28480768D01*
X80098673Y-28411443D01*
X80128827Y-28348416D01*
X80173625Y-28316716D01*
X80176096Y-28315691D01*
X80176104Y-28315690D01*
X80255656Y-28262535D01*
X80308811Y-28182983D01*
X80322765Y-28112832D01*
X80322765Y-27725456D01*
X80322765Y-27725453D01*
X80322764Y-27725451D01*
X80308812Y-27655309D01*
X80308811Y-27655308D01*
X80308811Y-27655305D01*
X80255656Y-27575753D01*
X80176104Y-27522598D01*
X80176102Y-27522597D01*
X80176099Y-27522596D01*
X80144250Y-27516261D01*
X80082339Y-27483876D01*
X80047765Y-27423160D01*
X80051504Y-27353391D01*
X80092371Y-27296719D01*
X80157389Y-27271138D01*
X80168441Y-27270644D01*
X81671752Y-27270644D01*
X81701188Y-27279287D01*
X81731178Y-27285811D01*
X81736195Y-27289566D01*
X81738791Y-27290329D01*
X81759433Y-27306962D01*
X81836446Y-27383974D01*
X81869931Y-27445297D01*
X81872765Y-27471656D01*
X81872765Y-28483732D01*
X81853080Y-28550771D01*
X81836446Y-28571413D01*
X81725534Y-28682325D01*
X81664211Y-28715810D01*
X81637853Y-28718644D01*
X81383596Y-28718644D01*
X81316557Y-28698959D01*
X81276099Y-28652268D01*
X81275886Y-28652411D01*
X81274751Y-28650712D01*
X81270802Y-28646155D01*
X81269111Y-28642272D01*
X81269101Y-28642257D01*
X81269101Y-28642256D01*
X81217051Y-28564358D01*
X81139153Y-28512308D01*
X81139151Y-28512307D01*
X81139149Y-28512306D01*
X81070463Y-28498644D01*
X81070461Y-28498644D01*
X80754069Y-28498644D01*
X80754067Y-28498644D01*
X80685380Y-28512306D01*
X80685377Y-28512308D01*
X80607479Y-28564358D01*
X80555429Y-28642256D01*
X80555427Y-28642259D01*
X80541765Y-28710945D01*
X80541765Y-28710948D01*
X80541765Y-29127340D01*
X80541765Y-29127342D01*
X80541764Y-29127342D01*
X80555427Y-29196028D01*
X80555428Y-29196030D01*
X80555429Y-29196032D01*
X80607479Y-29273930D01*
X80670504Y-29316042D01*
X80715309Y-29369654D01*
X80724016Y-29438979D01*
X80693861Y-29502007D01*
X80670504Y-29522245D01*
X80635775Y-29545451D01*
X80607479Y-29564358D01*
X80555429Y-29642256D01*
X80555427Y-29642259D01*
X80541765Y-29710945D01*
X80541765Y-29710948D01*
X80541765Y-30127340D01*
X80541765Y-30127342D01*
X80541764Y-30127342D01*
X80555427Y-30196028D01*
X80555428Y-30196030D01*
X80555429Y-30196032D01*
X80607479Y-30273930D01*
X80685377Y-30325980D01*
X80685379Y-30325980D01*
X80685380Y-30325981D01*
X80754066Y-30339644D01*
X80754069Y-30339644D01*
X81070463Y-30339644D01*
X81139149Y-30325981D01*
X81139149Y-30325980D01*
X81139153Y-30325980D01*
X81217051Y-30273930D01*
X81269101Y-30196032D01*
X81269101Y-30196030D01*
X81275886Y-30185877D01*
X81276835Y-30186511D01*
X81312878Y-30141786D01*
X81379173Y-30119723D01*
X81383596Y-30119644D01*
X82112145Y-30119644D01*
X82112147Y-30119644D01*
X82185839Y-30089120D01*
X82611084Y-29663872D01*
X82672407Y-29630388D01*
X82742098Y-29635372D01*
X82798032Y-29677243D01*
X82822449Y-29742708D01*
X82822765Y-29751554D01*
X82822765Y-30055400D01*
X82806152Y-30117400D01*
X82802785Y-30123230D01*
X82802785Y-30123231D01*
X82792072Y-30141786D01*
X82750059Y-30214554D01*
X82750058Y-30214557D01*
X82722765Y-30316417D01*
X82722765Y-30421871D01*
X82750058Y-30523731D01*
X82802785Y-30615057D01*
X82802788Y-30615060D01*
X82806152Y-30620886D01*
X82810302Y-30636375D01*
X82817742Y-30647952D01*
X82822765Y-30682887D01*
X82822765Y-30822309D01*
X82803080Y-30889348D01*
X82786446Y-30909990D01*
X81226851Y-32469584D01*
X81165528Y-32503069D01*
X81114980Y-32503521D01*
X81090461Y-32498644D01*
X80774069Y-32498644D01*
X80774067Y-32498644D01*
X80705380Y-32512306D01*
X80705377Y-32512308D01*
X80627479Y-32564358D01*
X80575429Y-32642256D01*
X80575427Y-32642259D01*
X80561765Y-32710945D01*
X80561765Y-32819354D01*
X80557540Y-32851446D01*
X80551765Y-32872998D01*
X80551765Y-34965287D01*
X80557540Y-34986840D01*
X80561765Y-35018933D01*
X80561765Y-35127340D01*
X80561765Y-35127342D01*
X80561764Y-35127342D01*
X80575427Y-35196028D01*
X80575428Y-35196030D01*
X80575429Y-35196032D01*
X80627479Y-35273930D01*
X80705377Y-35325980D01*
X80705379Y-35325980D01*
X80705380Y-35325981D01*
X80774066Y-35339644D01*
X80774069Y-35339644D01*
X81090463Y-35339644D01*
X81159149Y-35325981D01*
X81159149Y-35325980D01*
X81159153Y-35325980D01*
X81237051Y-35273930D01*
X81289101Y-35196032D01*
X81289102Y-35196028D01*
X81302765Y-35127342D01*
X81302765Y-34710945D01*
X81289102Y-34642259D01*
X81289101Y-34642258D01*
X81289101Y-34642256D01*
X81273662Y-34619150D01*
X81252785Y-34552474D01*
X81252765Y-34550261D01*
X81252765Y-34288027D01*
X81272450Y-34220988D01*
X81273664Y-34219135D01*
X81289101Y-34196032D01*
X81289101Y-34196030D01*
X81289102Y-34196028D01*
X81296396Y-34159358D01*
X81302765Y-34127342D01*
X81302765Y-33710945D01*
X81289102Y-33642259D01*
X81289101Y-33642258D01*
X81289101Y-33642256D01*
X81273662Y-33619150D01*
X81268012Y-33601105D01*
X81257788Y-33585196D01*
X81253336Y-33554234D01*
X81252785Y-33552474D01*
X81252765Y-33550261D01*
X81252765Y-33308565D01*
X81272450Y-33241526D01*
X81314766Y-33201177D01*
X81318249Y-33199166D01*
X81318253Y-33199165D01*
X81386775Y-33159604D01*
X81442724Y-33103655D01*
X83363725Y-31182654D01*
X83403287Y-31114131D01*
X83423765Y-31037705D01*
X83423765Y-30958581D01*
X83423765Y-30682887D01*
X83440378Y-30620886D01*
X83443741Y-30615060D01*
X83443745Y-30615057D01*
X83496472Y-30523731D01*
X83523765Y-30421871D01*
X83523765Y-30316417D01*
X83496472Y-30214557D01*
X83443745Y-30123231D01*
X83443743Y-30123229D01*
X83440378Y-30117400D01*
X83423765Y-30055400D01*
X83423765Y-26530584D01*
X83423764Y-26530580D01*
X83415467Y-26499613D01*
X83403287Y-26454156D01*
X83363725Y-26385633D01*
X81506776Y-24528684D01*
X81506774Y-24528683D01*
X81506769Y-24528679D01*
X81438260Y-24489126D01*
X81438255Y-24489123D01*
X81403942Y-24479929D01*
X81361827Y-24468644D01*
X81361825Y-24468644D01*
X81130741Y-24468644D01*
X81063702Y-24448959D01*
X81017947Y-24396155D01*
X81010969Y-24376746D01*
X80990095Y-24298845D01*
X80979556Y-24273401D01*
X80973177Y-24262352D01*
X80913731Y-24159388D01*
X80896963Y-24137536D01*
X80896959Y-24137531D01*
X80803877Y-24044449D01*
X80803872Y-24044445D01*
X80788933Y-24032982D01*
X80782022Y-24027679D01*
X80782011Y-24027672D01*
X80778649Y-24025426D01*
X80779650Y-24023926D01*
X80736510Y-23978619D01*
X80722765Y-23921875D01*
X80722765Y-21829584D01*
X80722764Y-21829579D01*
X80715892Y-21803931D01*
X80715892Y-21803932D01*
X80702287Y-21753156D01*
X80662725Y-21684633D01*
X78856776Y-19878684D01*
X78856775Y-19878683D01*
X78856772Y-19878681D01*
X78816868Y-19855643D01*
X78816868Y-19855642D01*
X78816866Y-19855642D01*
X78806508Y-19849662D01*
X78788255Y-19839123D01*
X78788256Y-19839123D01*
X78750040Y-19828883D01*
X78711827Y-19818644D01*
X73451827Y-19818644D01*
X73372703Y-19818644D01*
X73296275Y-19839122D01*
X73227754Y-19878684D01*
X73227751Y-19878686D01*
X71504113Y-21602325D01*
X71442790Y-21635810D01*
X71416432Y-21638644D01*
X71314067Y-21638644D01*
X71245380Y-21652306D01*
X71245377Y-21652308D01*
X71167479Y-21704358D01*
X71115429Y-21782256D01*
X71115427Y-21782259D01*
X71101765Y-21850945D01*
X71101765Y-21850948D01*
X71101765Y-22167340D01*
X71101765Y-22167342D01*
X71101764Y-22167342D01*
X71115427Y-22236028D01*
X71115428Y-22236030D01*
X71115429Y-22236032D01*
X71167479Y-22313930D01*
X71245377Y-22365980D01*
X71245379Y-22365980D01*
X71245380Y-22365981D01*
X71314066Y-22379644D01*
X71314069Y-22379644D01*
X71730463Y-22379644D01*
X71799149Y-22365981D01*
X71799149Y-22365980D01*
X71799153Y-22365980D01*
X71877051Y-22313930D01*
X71929101Y-22236032D01*
X71942765Y-22167340D01*
X71942765Y-22064977D01*
X71962450Y-21997938D01*
X71979084Y-21977296D01*
X73500417Y-20455963D01*
X73561740Y-20422478D01*
X73588098Y-20419644D01*
X78496432Y-20419644D01*
X78563471Y-20439329D01*
X78584113Y-20455963D01*
X80085446Y-21957296D01*
X80118931Y-22018619D01*
X80121765Y-22044977D01*
X80121765Y-23789644D01*
X80102080Y-23856683D01*
X80049276Y-23902438D01*
X80029486Y-23909518D01*
X80013894Y-23913644D01*
X79922265Y-23913644D01*
X79889664Y-23918808D01*
X79836914Y-23957133D01*
X79835725Y-23960791D01*
X79807263Y-23968323D01*
X79794574Y-23967981D01*
X79782618Y-23972247D01*
X79760311Y-23967059D01*
X79737419Y-23966443D01*
X79726928Y-23959295D01*
X79714565Y-23956420D01*
X79700938Y-23944268D01*
X79700163Y-23945336D01*
X79684275Y-23933792D01*
X79622266Y-23913644D01*
X79622265Y-23913644D01*
X79056439Y-23913644D01*
X79056433Y-23913644D01*
X79029135Y-23917238D01*
X78901961Y-23951315D01*
X78876527Y-23961850D01*
X78876515Y-23961856D01*
X78762509Y-24027677D01*
X78740657Y-24044445D01*
X78740652Y-24044449D01*
X78647570Y-24137531D01*
X78647566Y-24137536D01*
X78630798Y-24159388D01*
X78564977Y-24273394D01*
X78564971Y-24273406D01*
X78554434Y-24298846D01*
X78546960Y-24326739D01*
X78510595Y-24386399D01*
X78447747Y-24416927D01*
X78427186Y-24418644D01*
X78369538Y-24418644D01*
X78267678Y-24445937D01*
X78267675Y-24445938D01*
X78176350Y-24498665D01*
X78101786Y-24573229D01*
X78049059Y-24664554D01*
X78049058Y-24664557D01*
X78021765Y-24766417D01*
X78021765Y-24835732D01*
X78002080Y-24902771D01*
X77949276Y-24948526D01*
X77880118Y-24958470D01*
X77816562Y-24929445D01*
X77810084Y-24923413D01*
X77485839Y-24599168D01*
X77412148Y-24568644D01*
X77412147Y-24568644D01*
X74026153Y-24568644D01*
X73959114Y-24548959D01*
X73938472Y-24532325D01*
X73527734Y-24121587D01*
X73494249Y-24060264D01*
X73491415Y-24033906D01*
X73491415Y-23941652D01*
X73491415Y-23941650D01*
X73467529Y-23852506D01*
X73464852Y-23847869D01*
X73421388Y-23772588D01*
X73421385Y-23772585D01*
X73421384Y-23772582D01*
X73356127Y-23707325D01*
X73356124Y-23707323D01*
X73356120Y-23707320D01*
X73276208Y-23661182D01*
X73276205Y-23661181D01*
X73276204Y-23661180D01*
X73276203Y-23661180D01*
X73187059Y-23637294D01*
X73094771Y-23637294D01*
X73005627Y-23661180D01*
X73005626Y-23661180D01*
X73005624Y-23661181D01*
X73005621Y-23661182D01*
X72925709Y-23707320D01*
X72925700Y-23707327D01*
X72860448Y-23772579D01*
X72860441Y-23772588D01*
X72814301Y-23852502D01*
X72813473Y-23854504D01*
X72812321Y-23855932D01*
X72810236Y-23859545D01*
X72809672Y-23859219D01*
X72769631Y-23908908D01*
X72703337Y-23930972D01*
X72635638Y-23913692D01*
X72611231Y-23894732D01*
X72547479Y-23830980D01*
X72547477Y-23830978D01*
X72547474Y-23830976D01*
X72547470Y-23830973D01*
X72467558Y-23784835D01*
X72467555Y-23784834D01*
X72467554Y-23784833D01*
X72467553Y-23784833D01*
X72378409Y-23760947D01*
X72286121Y-23760947D01*
X72196977Y-23784833D01*
X72196976Y-23784833D01*
X72196974Y-23784834D01*
X72196971Y-23784835D01*
X72117059Y-23830973D01*
X72117046Y-23830983D01*
X72115332Y-23832698D01*
X72113530Y-23833681D01*
X72110607Y-23835925D01*
X72110256Y-23835468D01*
X72054007Y-23866179D01*
X71984316Y-23861190D01*
X71928385Y-23819315D01*
X71924555Y-23813902D01*
X71910153Y-23792348D01*
X71865656Y-23725753D01*
X71786104Y-23672598D01*
X71786103Y-23672597D01*
X71777874Y-23667099D01*
X71772783Y-23661007D01*
X71765562Y-23657710D01*
X71750698Y-23634582D01*
X71733069Y-23613487D01*
X71731117Y-23604112D01*
X71727788Y-23598932D01*
X71722765Y-23563997D01*
X71722765Y-23500475D01*
X71742450Y-23433436D01*
X71789140Y-23392978D01*
X71788998Y-23392765D01*
X71790696Y-23391630D01*
X71795254Y-23387681D01*
X71799136Y-23385990D01*
X71799150Y-23385980D01*
X71799153Y-23385980D01*
X71877051Y-23333930D01*
X71929101Y-23256032D01*
X71930246Y-23250278D01*
X71942765Y-23187342D01*
X71942765Y-22870945D01*
X71929102Y-22802259D01*
X71929101Y-22802258D01*
X71929101Y-22802256D01*
X71877051Y-22724358D01*
X71799153Y-22672308D01*
X71799151Y-22672307D01*
X71799149Y-22672306D01*
X71730463Y-22658644D01*
X71730461Y-22658644D01*
X71314069Y-22658644D01*
X71314067Y-22658644D01*
X71245380Y-22672306D01*
X71245377Y-22672308D01*
X71167479Y-22724358D01*
X71115429Y-22802256D01*
X71115427Y-22802259D01*
X71101765Y-22870945D01*
X71101765Y-22870948D01*
X71101765Y-23187340D01*
X71101765Y-23187342D01*
X71101764Y-23187342D01*
X71115427Y-23256028D01*
X71115428Y-23256030D01*
X71115429Y-23256032D01*
X71167479Y-23333930D01*
X71245377Y-23385980D01*
X71255532Y-23392765D01*
X71254897Y-23393714D01*
X71260784Y-23398457D01*
X71278968Y-23406762D01*
X71287432Y-23419932D01*
X71299623Y-23429757D01*
X71305935Y-23448724D01*
X71316742Y-23465540D01*
X71320705Y-23493105D01*
X71321686Y-23496052D01*
X71321765Y-23500475D01*
X71321765Y-23563997D01*
X71302080Y-23631036D01*
X71266656Y-23667099D01*
X71258426Y-23672597D01*
X71258426Y-23672598D01*
X71248453Y-23679262D01*
X71178874Y-23725753D01*
X71125719Y-23805305D01*
X71125717Y-23805309D01*
X71111765Y-23875451D01*
X71111765Y-24114731D01*
X71103120Y-24144171D01*
X71096597Y-24174158D01*
X71092842Y-24179173D01*
X71092080Y-24181770D01*
X71075446Y-24202412D01*
X70922446Y-24355412D01*
X70861123Y-24388897D01*
X70791431Y-24383913D01*
X70735498Y-24342041D01*
X70711081Y-24276577D01*
X70710765Y-24267731D01*
X70710765Y-22517263D01*
X70710764Y-22517260D01*
X70709657Y-22514587D01*
X70680241Y-22443570D01*
X70623839Y-22387168D01*
X70459083Y-22222412D01*
X70425598Y-22161089D01*
X70422764Y-22134731D01*
X70422764Y-21159249D01*
X70422763Y-21159241D01*
X70416934Y-21129931D01*
X70394722Y-21096686D01*
X70361479Y-21074476D01*
X70361480Y-21074476D01*
X70361478Y-21074475D01*
X70361476Y-21074474D01*
X70361473Y-21074473D01*
X70332166Y-21068644D01*
X69754539Y-21068644D01*
X69687500Y-21048959D01*
X69641745Y-20996155D01*
X69631801Y-20926997D01*
X69660826Y-20863441D01*
X69666844Y-20856977D01*
X69973725Y-20550097D01*
X69991307Y-20519644D01*
X70013286Y-20481575D01*
X70033765Y-20405148D01*
X70033765Y-20331977D01*
X70053450Y-20264938D01*
X70070084Y-20244296D01*
X70608417Y-19705963D01*
X70669740Y-19672478D01*
X70696098Y-19669644D01*
X71580769Y-19669644D01*
X71647808Y-19689329D01*
X71688156Y-19731644D01*
X71691745Y-19737860D01*
X71803549Y-19849664D01*
X71803551Y-19849665D01*
X71803555Y-19849668D01*
X71916530Y-19914893D01*
X71940481Y-19928721D01*
X72093208Y-19969644D01*
X72093210Y-19969644D01*
X72251320Y-19969644D01*
X72251322Y-19969644D01*
X72404049Y-19928721D01*
X72540981Y-19849664D01*
X72652785Y-19737860D01*
X72731842Y-19600928D01*
X72772765Y-19448201D01*
X72772765Y-19290087D01*
X72731842Y-19137360D01*
X72706483Y-19093437D01*
X72652789Y-19000434D01*
X72652783Y-19000426D01*
X72540982Y-18888625D01*
X72540981Y-18888624D01*
X72438628Y-18829531D01*
X72390413Y-18778965D01*
X72377189Y-18710358D01*
X72403157Y-18645493D01*
X72460071Y-18604964D01*
X72500628Y-18598144D01*
X84051708Y-18598144D01*
X84118747Y-18617829D01*
G37*
%TD.AperFunction*%
%TA.AperFunction,Conductor*%
G36*
X38648987Y-35594329D02*
G01*
X38692901Y-35645008D01*
X38409765Y-35644144D01*
X38409765Y-36844144D01*
X38085765Y-36844144D01*
X38108192Y-36841733D01*
X38159703Y-36830527D01*
X38206364Y-36807170D01*
X38259168Y-36761415D01*
X38291306Y-36711407D01*
X38310991Y-36644368D01*
X38315265Y-36614644D01*
X38315265Y-35698644D01*
X38317815Y-35689958D01*
X38316527Y-35680997D01*
X38327505Y-35656956D01*
X38334950Y-35631605D01*
X38341790Y-35625677D01*
X38345552Y-35617441D01*
X38367786Y-35603151D01*
X38387754Y-35585850D01*
X38398268Y-35583562D01*
X38404330Y-35579667D01*
X38439265Y-35574644D01*
X38581948Y-35574644D01*
X38648987Y-35594329D01*
G37*
%TD.AperFunction*%
%TA.AperFunction,Conductor*%
G36*
X58504203Y-33309329D02*
G01*
X58540263Y-33344750D01*
X58578874Y-33402535D01*
X58658426Y-33455690D01*
X58658429Y-33455690D01*
X58658430Y-33455691D01*
X58728572Y-33469643D01*
X58728575Y-33469644D01*
X58728577Y-33469644D01*
X59115955Y-33469644D01*
X59115956Y-33469643D01*
X59186104Y-33455690D01*
X59265656Y-33402535D01*
X59304265Y-33344751D01*
X59357876Y-33299948D01*
X59407366Y-33289644D01*
X60232383Y-33289644D01*
X60890024Y-33289644D01*
X60919974Y-33298438D01*
X60950411Y-33305342D01*
X60953219Y-33308200D01*
X60957063Y-33309329D01*
X60977499Y-33332914D01*
X60999377Y-33355182D01*
X61001193Y-33360258D01*
X61002818Y-33362133D01*
X61011419Y-33388358D01*
X61011534Y-33388913D01*
X61016880Y-33415786D01*
X61017246Y-33416334D01*
X61019763Y-33428417D01*
X61018280Y-33446845D01*
X61019787Y-33458290D01*
X61021765Y-33458290D01*
X61021765Y-33514021D01*
X61002080Y-33581060D01*
X60985446Y-33601702D01*
X60864823Y-33722325D01*
X60803500Y-33755810D01*
X60777142Y-33758644D01*
X60638574Y-33758644D01*
X60568430Y-33772596D01*
X60568426Y-33772598D01*
X60488874Y-33825753D01*
X60435719Y-33905305D01*
X60435717Y-33905309D01*
X60421765Y-33975451D01*
X60421765Y-34362836D01*
X60435717Y-34432981D01*
X60440392Y-34444265D01*
X60437584Y-34445427D01*
X60446742Y-34459677D01*
X60451188Y-34490604D01*
X60451745Y-34492380D01*
X60451765Y-34494612D01*
X60451765Y-34719955D01*
X60432080Y-34786994D01*
X60415446Y-34807636D01*
X60040757Y-35182325D01*
X59979434Y-35215810D01*
X59953076Y-35218644D01*
X55168809Y-35218644D01*
X55101770Y-35198959D01*
X55081128Y-35182325D01*
X54509084Y-34610281D01*
X54475599Y-34548958D01*
X54472765Y-34522600D01*
X54472765Y-33495310D01*
X54492450Y-33428271D01*
X54545254Y-33382516D01*
X54614412Y-33372572D01*
X54658765Y-33387923D01*
X54660284Y-33388800D01*
X54706977Y-33415758D01*
X54796121Y-33439644D01*
X54888409Y-33439644D01*
X57596796Y-33439644D01*
X57645883Y-33454057D01*
X57647143Y-33451017D01*
X57658426Y-33455690D01*
X57728572Y-33469643D01*
X57728575Y-33469644D01*
X57728577Y-33469644D01*
X58115955Y-33469644D01*
X58115956Y-33469643D01*
X58186104Y-33455690D01*
X58265656Y-33402535D01*
X58304265Y-33344751D01*
X58310354Y-33339662D01*
X58313653Y-33332441D01*
X58336781Y-33317577D01*
X58357876Y-33299948D01*
X58367250Y-33297996D01*
X58372431Y-33294667D01*
X58407366Y-33289644D01*
X58437164Y-33289644D01*
X58504203Y-33309329D01*
G37*
%TD.AperFunction*%
%TA.AperFunction,Conductor*%
G36*
X55203835Y-28438329D02*
G01*
X55224477Y-28454963D01*
X55615446Y-28845932D01*
X55648931Y-28907255D01*
X55651765Y-28933613D01*
X55651765Y-29133675D01*
X55637351Y-29182762D01*
X55640392Y-29184022D01*
X55635718Y-29195305D01*
X55621765Y-29265451D01*
X55621765Y-29652836D01*
X55635717Y-29722978D01*
X55635718Y-29722981D01*
X55635719Y-29722983D01*
X55688874Y-29802535D01*
X55734607Y-29833093D01*
X55746656Y-29841144D01*
X55751746Y-29847234D01*
X55758968Y-29850533D01*
X55773833Y-29873663D01*
X55791461Y-29894757D01*
X55793412Y-29904130D01*
X55796742Y-29909311D01*
X55801765Y-29944246D01*
X55801765Y-30084042D01*
X55782080Y-30151081D01*
X55746656Y-30187144D01*
X55688874Y-30225753D01*
X55635719Y-30305305D01*
X55635717Y-30305309D01*
X55621765Y-30375451D01*
X55621765Y-30762836D01*
X55635717Y-30832978D01*
X55635718Y-30832981D01*
X55635719Y-30832983D01*
X55688874Y-30912535D01*
X55768426Y-30965690D01*
X55768429Y-30965690D01*
X55768430Y-30965691D01*
X55838572Y-30979643D01*
X55838575Y-30979644D01*
X55838577Y-30979644D01*
X56165955Y-30979644D01*
X56165956Y-30979643D01*
X56236104Y-30965690D01*
X56315656Y-30912535D01*
X56315656Y-30912534D01*
X56325810Y-30905750D01*
X56327544Y-30908345D01*
X56371907Y-30884122D01*
X56441599Y-30889106D01*
X56497532Y-30930978D01*
X56521949Y-30996442D01*
X56522265Y-31005288D01*
X56522265Y-32614644D01*
X56502580Y-32681683D01*
X56449776Y-32727438D01*
X56398265Y-32738644D01*
X55038809Y-32738644D01*
X54971770Y-32718959D01*
X54951128Y-32702325D01*
X54509084Y-32260281D01*
X54475599Y-32198958D01*
X54472765Y-32172600D01*
X54472765Y-28853613D01*
X54492450Y-28786574D01*
X54509084Y-28765932D01*
X54820053Y-28454963D01*
X54846980Y-28440259D01*
X54872799Y-28423667D01*
X54878999Y-28422775D01*
X54881376Y-28421478D01*
X54907734Y-28418644D01*
X55136796Y-28418644D01*
X55203835Y-28438329D01*
G37*
%TD.AperFunction*%
%TA.AperFunction,Conductor*%
G36*
X37165948Y-29683342D02*
G01*
X37196110Y-29690008D01*
X37199182Y-29693101D01*
X37203364Y-29694329D01*
X37223582Y-29717662D01*
X37245352Y-29739576D01*
X37247406Y-29745156D01*
X37249119Y-29747133D01*
X37257577Y-29772685D01*
X37298749Y-29966861D01*
X37300924Y-29975157D01*
X37301517Y-29977926D01*
X37301297Y-29980863D01*
X37304265Y-30003885D01*
X37304265Y-30944646D01*
X37306675Y-30967070D01*
X37317882Y-31018582D01*
X37340332Y-31063431D01*
X37352738Y-31132190D01*
X37337012Y-31175531D01*
X37337708Y-31175820D01*
X37333033Y-31187103D01*
X37321765Y-31243755D01*
X37321765Y-31494532D01*
X37333033Y-31551184D01*
X37333034Y-31551186D01*
X37333035Y-31551187D01*
X37333164Y-31551381D01*
X37333317Y-31551867D01*
X37337708Y-31562468D01*
X37336758Y-31562861D01*
X37354040Y-31618057D01*
X37335554Y-31685437D01*
X37334378Y-31687303D01*
X37328227Y-31696873D01*
X37328224Y-31696880D01*
X37308540Y-31763914D01*
X37308539Y-31763919D01*
X37308539Y-31763920D01*
X37304672Y-31790818D01*
X37304265Y-31793647D01*
X37304265Y-32164646D01*
X37306675Y-32187070D01*
X37317882Y-32238582D01*
X37341239Y-32285244D01*
X37375218Y-32324457D01*
X37386994Y-32338047D01*
X37437002Y-32370185D01*
X37504041Y-32389870D01*
X37533765Y-32394144D01*
X35384765Y-32394144D01*
X35384765Y-31669144D01*
X34061765Y-31669144D01*
X34061765Y-31657006D01*
X34081450Y-31589967D01*
X34098084Y-31569325D01*
X34361446Y-31305963D01*
X34422769Y-31272478D01*
X34449127Y-31269644D01*
X34665955Y-31269644D01*
X34665956Y-31269643D01*
X34736104Y-31255690D01*
X34815656Y-31202535D01*
X34830878Y-31179754D01*
X34884490Y-31134948D01*
X34933980Y-31124644D01*
X35422765Y-31124644D01*
X35489804Y-31144329D01*
X35535559Y-31197133D01*
X35546765Y-31248644D01*
X35546765Y-31494532D01*
X35558033Y-31551184D01*
X35558034Y-31551185D01*
X35558034Y-31551186D01*
X35558035Y-31551187D01*
X35600968Y-31615441D01*
X35665222Y-31658374D01*
X35665223Y-31658374D01*
X35665224Y-31658375D01*
X35721876Y-31669643D01*
X35721880Y-31669644D01*
X35721881Y-31669644D01*
X35947650Y-31669644D01*
X35947651Y-31669643D01*
X35966706Y-31665853D01*
X36004305Y-31658375D01*
X36004305Y-31658374D01*
X36004308Y-31658374D01*
X36068562Y-31615441D01*
X36111495Y-31551187D01*
X36114450Y-31536334D01*
X36120939Y-31503709D01*
X36122765Y-31494528D01*
X36122765Y-31243760D01*
X36115981Y-31209654D01*
X36111496Y-31187103D01*
X36111495Y-31187102D01*
X36111495Y-31187101D01*
X36088779Y-31153105D01*
X36067902Y-31086428D01*
X36086387Y-31019048D01*
X36087567Y-31017175D01*
X36095207Y-31005288D01*
X36103806Y-30991907D01*
X36123491Y-30924868D01*
X36127765Y-30895144D01*
X36127765Y-30068144D01*
X36125354Y-30045717D01*
X36114148Y-29994206D01*
X36090791Y-29947545D01*
X36090790Y-29947543D01*
X36057083Y-29908644D01*
X36045036Y-29894741D01*
X36045031Y-29894738D01*
X36042284Y-29892357D01*
X36040315Y-29889293D01*
X36039229Y-29888040D01*
X36039409Y-29887883D01*
X36004510Y-29833578D01*
X36004510Y-29763709D01*
X36042285Y-29704931D01*
X36105840Y-29675906D01*
X36123487Y-29674644D01*
X37136325Y-29674644D01*
X37165948Y-29683342D01*
G37*
%TD.AperFunction*%
%TA.AperFunction,Conductor*%
G36*
X38835941Y-31144329D02*
G01*
X38872003Y-31179752D01*
X38878874Y-31190035D01*
X38886746Y-31195295D01*
X38509765Y-31194144D01*
X38509765Y-32394144D01*
X38185765Y-32394144D01*
X38208192Y-32391733D01*
X38259703Y-32380527D01*
X38306364Y-32357170D01*
X38359168Y-32311415D01*
X38391306Y-32261407D01*
X38410991Y-32194368D01*
X38415265Y-32164644D01*
X38415265Y-31248644D01*
X38417815Y-31239958D01*
X38416527Y-31230997D01*
X38427505Y-31206956D01*
X38434950Y-31181605D01*
X38441790Y-31175677D01*
X38445552Y-31167441D01*
X38467786Y-31153151D01*
X38487754Y-31135850D01*
X38498268Y-31133562D01*
X38504330Y-31129667D01*
X38539265Y-31124644D01*
X38768902Y-31124644D01*
X38835941Y-31144329D01*
G37*
%TD.AperFunction*%
%TA.AperFunction,Conductor*%
G36*
X68473539Y-28619879D02*
G01*
X68480545Y-28621273D01*
X68525252Y-28639788D01*
X68528969Y-28642272D01*
X68533191Y-28645093D01*
X68540970Y-28652872D01*
X68542455Y-28653649D01*
X68543392Y-28655294D01*
X68567404Y-28679307D01*
X68572709Y-28687247D01*
X68591220Y-28731933D01*
X68592614Y-28738938D01*
X68594999Y-28763140D01*
X68594999Y-31861860D01*
X68592614Y-31886065D01*
X68591220Y-31893069D01*
X68572709Y-31937752D01*
X68567406Y-31945689D01*
X68559605Y-31953489D01*
X68558828Y-31954976D01*
X68557183Y-31955912D01*
X68533196Y-31979901D01*
X68525257Y-31985206D01*
X68480560Y-32003722D01*
X68473557Y-32005115D01*
X68449362Y-32007499D01*
X65350639Y-32007499D01*
X65326437Y-32005114D01*
X65319432Y-32003720D01*
X65274743Y-31985207D01*
X65266805Y-31979903D01*
X65259008Y-31972106D01*
X65257524Y-31971330D01*
X65256588Y-31969686D01*
X65232596Y-31945695D01*
X65227293Y-31937759D01*
X65208774Y-31893045D01*
X65207378Y-31886028D01*
X65205000Y-31861857D01*
X65205000Y-28763136D01*
X65207381Y-28738955D01*
X65208773Y-28731954D01*
X65227292Y-28687240D01*
X65232600Y-28679298D01*
X65240380Y-28671517D01*
X65241153Y-28670040D01*
X65242790Y-28669107D01*
X65266799Y-28645098D01*
X65274738Y-28639793D01*
X65319448Y-28621275D01*
X65326472Y-28619878D01*
X65350640Y-28617500D01*
X68449365Y-28617500D01*
X68473539Y-28619879D01*
G37*
%TD.AperFunction*%
%TA.AperFunction,Conductor*%
G36*
X71970590Y-24299941D02*
G01*
X71989567Y-24297557D01*
X72004474Y-24304688D01*
X72020842Y-24306982D01*
X72050601Y-24325957D01*
X72054128Y-24328991D01*
X72117053Y-24391916D01*
X72148145Y-24409867D01*
X72156953Y-24417444D01*
X72194939Y-24476086D01*
X72195190Y-24545955D01*
X72157627Y-24604868D01*
X72138092Y-24618833D01*
X72117056Y-24630978D01*
X72117050Y-24630983D01*
X72051798Y-24696235D01*
X72051791Y-24696244D01*
X72005653Y-24776156D01*
X72005652Y-24776159D01*
X72005651Y-24776161D01*
X72005651Y-24776162D01*
X71981765Y-24865306D01*
X71981765Y-24957594D01*
X72001965Y-25032983D01*
X72005652Y-25046740D01*
X72005653Y-25046743D01*
X72051791Y-25126655D01*
X72051794Y-25126659D01*
X72051796Y-25126662D01*
X72117053Y-25191919D01*
X72117056Y-25191920D01*
X72117059Y-25191923D01*
X72196971Y-25238061D01*
X72196972Y-25238061D01*
X72196977Y-25238064D01*
X72286121Y-25261950D01*
X72286123Y-25261950D01*
X72380159Y-25261950D01*
X72447198Y-25281635D01*
X72467840Y-25298269D01*
X72934426Y-25764855D01*
X73008118Y-25795379D01*
X73087883Y-25795379D01*
X76913588Y-25795379D01*
X76980627Y-25815064D01*
X77001269Y-25831698D01*
X79035446Y-27865875D01*
X79068931Y-27927198D01*
X79071765Y-27953556D01*
X79071765Y-27965288D01*
X79086752Y-28021222D01*
X79095652Y-28054434D01*
X79095653Y-28054437D01*
X79141791Y-28134349D01*
X79141794Y-28134353D01*
X79141796Y-28134356D01*
X79207053Y-28199613D01*
X79207056Y-28199614D01*
X79207059Y-28199617D01*
X79286971Y-28245755D01*
X79286972Y-28245755D01*
X79286977Y-28245758D01*
X79376121Y-28269644D01*
X79376123Y-28269644D01*
X79468406Y-28269644D01*
X79468409Y-28269644D01*
X79536272Y-28251460D01*
X79570795Y-28252282D01*
X79605415Y-28252900D01*
X79605868Y-28253117D01*
X79606118Y-28253123D01*
X79637249Y-28268131D01*
X79680714Y-28297173D01*
X79725518Y-28350784D01*
X79734225Y-28420109D01*
X79704071Y-28483136D01*
X79674539Y-28504037D01*
X79675532Y-28505523D01*
X79665377Y-28512307D01*
X79665377Y-28512308D01*
X79629978Y-28535961D01*
X79587479Y-28564358D01*
X79535429Y-28642256D01*
X79535427Y-28642259D01*
X79521765Y-28710945D01*
X79521765Y-28710948D01*
X79521765Y-29127340D01*
X79521765Y-29127342D01*
X79521764Y-29127342D01*
X79535427Y-29196028D01*
X79535428Y-29196030D01*
X79535429Y-29196032D01*
X79587479Y-29273930D01*
X79650503Y-29316042D01*
X79671544Y-29341218D01*
X79693468Y-29365625D01*
X79693835Y-29367890D01*
X79695308Y-29369653D01*
X79699397Y-29402216D01*
X79704645Y-29434595D01*
X79703728Y-29436699D01*
X79704015Y-29438978D01*
X79689851Y-29468582D01*
X79676760Y-29498659D01*
X79674483Y-29500703D01*
X79673861Y-29502005D01*
X79650504Y-29522244D01*
X79595535Y-29558974D01*
X79528858Y-29579853D01*
X79494552Y-29575649D01*
X79468409Y-29568644D01*
X79376121Y-29568644D01*
X79286977Y-29592530D01*
X79286976Y-29592530D01*
X79286974Y-29592531D01*
X79286971Y-29592532D01*
X79207059Y-29638670D01*
X79207050Y-29638677D01*
X79141798Y-29703929D01*
X79141791Y-29703938D01*
X79095653Y-29783850D01*
X79095652Y-29783853D01*
X79095651Y-29783855D01*
X79095651Y-29783856D01*
X79071765Y-29873000D01*
X79071765Y-29965288D01*
X79095185Y-30052694D01*
X79095652Y-30054434D01*
X79095653Y-30054437D01*
X79141791Y-30134349D01*
X79141794Y-30134353D01*
X79141796Y-30134356D01*
X79207053Y-30199613D01*
X79207056Y-30199614D01*
X79207059Y-30199617D01*
X79286971Y-30245755D01*
X79286972Y-30245755D01*
X79286977Y-30245758D01*
X79376121Y-30269644D01*
X79376123Y-30269644D01*
X79468406Y-30269644D01*
X79468409Y-30269644D01*
X79494551Y-30262639D01*
X79529077Y-30263461D01*
X79563695Y-30264079D01*
X79564148Y-30264296D01*
X79564399Y-30264302D01*
X79595530Y-30279309D01*
X79660505Y-30322724D01*
X79705309Y-30376334D01*
X79714016Y-30445659D01*
X79683862Y-30508687D01*
X79660505Y-30528926D01*
X79607479Y-30564357D01*
X79555429Y-30642256D01*
X79555427Y-30642259D01*
X79541765Y-30710945D01*
X79541765Y-31047182D01*
X79522080Y-31114221D01*
X79505446Y-31134863D01*
X79191290Y-31449018D01*
X79191289Y-31449019D01*
X79171326Y-31497215D01*
X79127484Y-31551619D01*
X79061190Y-31573683D01*
X78993491Y-31556403D01*
X78945881Y-31505266D01*
X78932765Y-31449762D01*
X78932765Y-31375453D01*
X78932764Y-31375451D01*
X78918812Y-31305309D01*
X78918811Y-31305308D01*
X78918811Y-31305305D01*
X78865656Y-31225753D01*
X78786104Y-31172598D01*
X78786102Y-31172597D01*
X78786099Y-31172596D01*
X78715956Y-31158644D01*
X78715953Y-31158644D01*
X78665959Y-31158644D01*
X78657450Y-31156145D01*
X78633867Y-31154419D01*
X78567143Y-31136541D01*
X78567690Y-31134497D01*
X78514046Y-31110762D01*
X78475578Y-31052435D01*
X78474751Y-30982570D01*
X78511826Y-30923349D01*
X78562037Y-30896320D01*
X78576852Y-30892351D01*
X78576855Y-30892348D01*
X78576859Y-30892348D01*
X78584366Y-30889239D01*
X78585551Y-30892100D01*
X78598614Y-30888603D01*
X78617782Y-30880472D01*
X78624613Y-30881644D01*
X78632088Y-30879644D01*
X78715955Y-30879644D01*
X78715956Y-30879643D01*
X78786104Y-30865690D01*
X78865656Y-30812535D01*
X78918811Y-30732983D01*
X78932765Y-30662832D01*
X78932765Y-30335456D01*
X78932765Y-30335453D01*
X78932764Y-30335451D01*
X78918812Y-30265309D01*
X78918811Y-30265308D01*
X78918811Y-30265305D01*
X78865656Y-30185753D01*
X78786104Y-30132598D01*
X78786102Y-30132597D01*
X78786099Y-30132596D01*
X78715956Y-30118644D01*
X78715953Y-30118644D01*
X78328577Y-30118644D01*
X78328574Y-30118644D01*
X78258430Y-30132596D01*
X78258426Y-30132598D01*
X78178874Y-30185752D01*
X78178871Y-30185756D01*
X78164735Y-30206911D01*
X78149317Y-30225697D01*
X78101785Y-30273229D01*
X78049059Y-30364554D01*
X78049058Y-30364557D01*
X78021765Y-30466417D01*
X78021765Y-30514021D01*
X78013120Y-30543461D01*
X78006597Y-30573448D01*
X78002842Y-30578463D01*
X78002080Y-30581060D01*
X77985446Y-30601702D01*
X77893823Y-30693325D01*
X77832500Y-30726810D01*
X77806142Y-30729644D01*
X74948389Y-30729644D01*
X74881350Y-30709959D01*
X74860708Y-30693325D01*
X74845981Y-30678598D01*
X74812496Y-30617275D01*
X74812045Y-30566725D01*
X74822765Y-30512834D01*
X74822765Y-30125453D01*
X74822764Y-30125451D01*
X74822563Y-30124443D01*
X74808811Y-30055305D01*
X74755656Y-29975753D01*
X74749111Y-29971380D01*
X74675577Y-29922246D01*
X74630771Y-29868634D01*
X74622064Y-29799309D01*
X74652218Y-29736282D01*
X74675577Y-29716042D01*
X74676104Y-29715690D01*
X74755656Y-29662535D01*
X74808811Y-29582983D01*
X74822765Y-29512832D01*
X74822765Y-29125456D01*
X74822765Y-29125453D01*
X74822764Y-29125451D01*
X74808812Y-29055309D01*
X74808811Y-29055308D01*
X74808811Y-29055305D01*
X74755656Y-28975753D01*
X74750937Y-28972600D01*
X74675577Y-28922246D01*
X74630771Y-28868634D01*
X74622064Y-28799309D01*
X74652218Y-28736282D01*
X74675577Y-28716042D01*
X74683205Y-28710945D01*
X74755656Y-28662535D01*
X74808811Y-28582983D01*
X74822765Y-28512832D01*
X74822765Y-28125456D01*
X74822765Y-28125453D01*
X74822764Y-28125451D01*
X74808812Y-28055309D01*
X74808811Y-28055308D01*
X74808811Y-28055305D01*
X74755656Y-27975753D01*
X74704788Y-27941764D01*
X74697874Y-27937144D01*
X74692783Y-27931053D01*
X74685562Y-27927755D01*
X74670696Y-27904624D01*
X74653069Y-27883531D01*
X74651117Y-27874157D01*
X74647788Y-27868977D01*
X74642765Y-27834042D01*
X74642765Y-27804246D01*
X74662450Y-27737207D01*
X74697874Y-27701144D01*
X74705754Y-27695878D01*
X74755656Y-27662535D01*
X74808811Y-27582983D01*
X74822765Y-27512832D01*
X74822765Y-27125456D01*
X74822765Y-27125453D01*
X74822764Y-27125451D01*
X74808812Y-27055309D01*
X74808811Y-27055308D01*
X74808811Y-27055305D01*
X74755656Y-26975753D01*
X74676104Y-26922598D01*
X74676102Y-26922597D01*
X74676099Y-26922596D01*
X74605956Y-26908644D01*
X74605953Y-26908644D01*
X74278577Y-26908644D01*
X74278574Y-26908644D01*
X74208430Y-26922596D01*
X74208426Y-26922598D01*
X74128874Y-26975753D01*
X74075719Y-27055305D01*
X74075717Y-27055309D01*
X74061765Y-27125451D01*
X74061765Y-27188000D01*
X74042080Y-27255039D01*
X73989276Y-27300794D01*
X73937765Y-27312000D01*
X70658720Y-27312000D01*
X70591681Y-27292315D01*
X70545926Y-27239511D01*
X70535982Y-27170353D01*
X70565007Y-27106797D01*
X70611267Y-27073439D01*
X70630945Y-27065288D01*
X70679983Y-27044976D01*
X71081241Y-26643718D01*
X71111765Y-26570026D01*
X71111765Y-26490262D01*
X71111765Y-24784555D01*
X71131450Y-24717516D01*
X71148084Y-24696874D01*
X71388995Y-24455963D01*
X71450318Y-24422478D01*
X71476676Y-24419644D01*
X71715955Y-24419644D01*
X71715956Y-24419643D01*
X71786104Y-24405690D01*
X71865656Y-24352535D01*
X71866633Y-24351071D01*
X71869590Y-24348600D01*
X71874292Y-24343899D01*
X71874712Y-24344319D01*
X71879312Y-24340474D01*
X71888197Y-24326541D01*
X71905565Y-24318533D01*
X71920242Y-24306267D01*
X71936639Y-24304206D01*
X71951648Y-24297287D01*
X71970590Y-24299941D01*
G37*
%TD.AperFunction*%
%TA.AperFunction,Conductor*%
G36*
X58762759Y-27089329D02*
G01*
X58783401Y-27105963D01*
X58965446Y-27288008D01*
X58998931Y-27349331D01*
X59001765Y-27375689D01*
X59001765Y-27712836D01*
X59015717Y-27782978D01*
X59020392Y-27794263D01*
X59017266Y-27795557D01*
X59032101Y-27842919D01*
X59013623Y-27910300D01*
X58961649Y-27956996D01*
X58908121Y-27969144D01*
X56522265Y-27969144D01*
X56522265Y-28473960D01*
X56502580Y-28540999D01*
X56449776Y-28586754D01*
X56380618Y-28596698D01*
X56317062Y-28567673D01*
X56290878Y-28535961D01*
X56289091Y-28532866D01*
X56282735Y-28521857D01*
X55916703Y-28155825D01*
X55883218Y-28094502D01*
X55888202Y-28024810D01*
X55916703Y-27980463D01*
X56791203Y-27105963D01*
X56852526Y-27072478D01*
X56878884Y-27069644D01*
X58695720Y-27069644D01*
X58762759Y-27089329D01*
G37*
%TD.AperFunction*%
%TA.AperFunction,Conductor*%
G36*
X38844293Y-26769329D02*
G01*
X38869773Y-26794359D01*
X38870236Y-26793897D01*
X38878874Y-26802535D01*
X38905539Y-26820352D01*
X38509765Y-26819144D01*
X38509765Y-28019144D01*
X38185765Y-28019144D01*
X38208192Y-28016733D01*
X38259703Y-28005527D01*
X38306364Y-27982170D01*
X38359168Y-27936415D01*
X38391306Y-27886407D01*
X38410991Y-27819368D01*
X38415265Y-27789644D01*
X38415265Y-26873644D01*
X38417815Y-26864958D01*
X38416527Y-26855997D01*
X38427505Y-26831956D01*
X38434950Y-26806605D01*
X38441790Y-26800677D01*
X38445552Y-26792441D01*
X38467786Y-26778151D01*
X38487754Y-26760850D01*
X38498268Y-26758562D01*
X38504330Y-26754667D01*
X38539265Y-26749644D01*
X38777254Y-26749644D01*
X38844293Y-26769329D01*
G37*
%TD.AperFunction*%
%TA.AperFunction,Conductor*%
G36*
X70630099Y-25397077D02*
G01*
X70686032Y-25438949D01*
X70710449Y-25504413D01*
X70710765Y-25513259D01*
X70710765Y-26395732D01*
X70691080Y-26462771D01*
X70674446Y-26483413D01*
X70519678Y-26638181D01*
X70458355Y-26671666D01*
X70431997Y-26674500D01*
X70024500Y-26674500D01*
X69957461Y-26654815D01*
X69911706Y-26602011D01*
X69900500Y-26550500D01*
X69900500Y-26472677D01*
X69891768Y-26428782D01*
X69891767Y-26428781D01*
X69891767Y-26428778D01*
X69858504Y-26378996D01*
X69848929Y-26372598D01*
X69808724Y-26345734D01*
X69808717Y-26345731D01*
X69764822Y-26337000D01*
X69764820Y-26337000D01*
X69635180Y-26337000D01*
X69635178Y-26337000D01*
X69591282Y-26345731D01*
X69591275Y-26345734D01*
X69541496Y-26378995D01*
X69541495Y-26378996D01*
X69508234Y-26428775D01*
X69508231Y-26428782D01*
X69499500Y-26472677D01*
X69499500Y-27266063D01*
X69497027Y-27274483D01*
X69498315Y-27283166D01*
X69487333Y-27307496D01*
X69479815Y-27333102D01*
X69473183Y-27338848D01*
X69469572Y-27346850D01*
X69447177Y-27361382D01*
X69427011Y-27378857D01*
X69416784Y-27381105D01*
X69410962Y-27384884D01*
X69376049Y-27390062D01*
X69225049Y-27390731D01*
X69157923Y-27371343D01*
X69111935Y-27318743D01*
X69100500Y-27266732D01*
X69100500Y-26025821D01*
X69120185Y-25958782D01*
X69136819Y-25938140D01*
X69418996Y-25655963D01*
X69480319Y-25622478D01*
X69506677Y-25619644D01*
X70261848Y-25619644D01*
X70261850Y-25619644D01*
X70335542Y-25589120D01*
X70499084Y-25425578D01*
X70560407Y-25392093D01*
X70630099Y-25397077D01*
G37*
%TD.AperFunction*%
%TA.AperFunction,Conductor*%
G36*
X69465888Y-21037829D02*
G01*
X69511643Y-21090633D01*
X69522252Y-21154295D01*
X69521765Y-21159240D01*
X69521765Y-22879038D01*
X69521766Y-22879046D01*
X69527595Y-22908356D01*
X69549807Y-22941601D01*
X69566484Y-22952743D01*
X69583052Y-22963813D01*
X69583055Y-22963813D01*
X69583056Y-22963814D01*
X69590070Y-22965209D01*
X69612366Y-22969644D01*
X70185765Y-22969643D01*
X70252804Y-22989327D01*
X70298559Y-23042131D01*
X70309765Y-23093643D01*
X70309765Y-24996435D01*
X70301120Y-25025875D01*
X70294597Y-25055862D01*
X70290842Y-25060877D01*
X70290080Y-25063474D01*
X70273446Y-25084116D01*
X70175237Y-25182325D01*
X70113914Y-25215810D01*
X70087556Y-25218644D01*
X69412148Y-25218644D01*
X69332383Y-25218644D01*
X69332381Y-25218644D01*
X69332379Y-25218645D01*
X69298515Y-25232672D01*
X69229046Y-25240141D01*
X69166567Y-25208866D01*
X69130915Y-25148777D01*
X69133409Y-25078952D01*
X69147962Y-25049219D01*
X69158811Y-25032983D01*
X69172765Y-24962832D01*
X69172765Y-24575456D01*
X69172765Y-24575453D01*
X69172764Y-24575451D01*
X69158812Y-24505309D01*
X69158811Y-24505308D01*
X69158811Y-24505305D01*
X69105656Y-24425753D01*
X69096513Y-24419644D01*
X69025577Y-24372246D01*
X68980771Y-24318634D01*
X68972064Y-24249309D01*
X69002218Y-24186282D01*
X69025577Y-24166042D01*
X69026104Y-24165690D01*
X69105656Y-24112535D01*
X69158811Y-24032983D01*
X69172765Y-23962832D01*
X69172765Y-23575456D01*
X69172765Y-23575453D01*
X69172764Y-23575451D01*
X69158812Y-23505309D01*
X69158811Y-23505308D01*
X69158811Y-23505305D01*
X69105656Y-23425753D01*
X69026104Y-23372598D01*
X69026102Y-23372597D01*
X69026099Y-23372596D01*
X69022573Y-23371895D01*
X69015594Y-23368244D01*
X69014818Y-23367923D01*
X69014846Y-23367853D01*
X68994442Y-23357180D01*
X68965562Y-23343991D01*
X68963705Y-23341101D01*
X68960662Y-23339510D01*
X68944949Y-23311917D01*
X68927788Y-23285213D01*
X68927127Y-23280619D01*
X68926088Y-23278794D01*
X68922765Y-23250278D01*
X68922765Y-23055960D01*
X68942450Y-22988921D01*
X68977877Y-22952856D01*
X68994722Y-22941601D01*
X69003508Y-22928451D01*
X69016934Y-22908357D01*
X69022765Y-22879043D01*
X69022764Y-21159246D01*
X69022764Y-21159245D01*
X69022277Y-21154304D01*
X69035292Y-21085657D01*
X69083355Y-21034945D01*
X69145679Y-21018144D01*
X69398849Y-21018144D01*
X69465888Y-21037829D01*
G37*
%TD.AperFunction*%
%TA.AperFunction,Conductor*%
G36*
X104226804Y-16339329D02*
G01*
X104272559Y-16392133D01*
X104283765Y-16443644D01*
X104283765Y-46494644D01*
X104264080Y-46561683D01*
X104211276Y-46607438D01*
X104159765Y-46618644D01*
X68471020Y-46618644D01*
X68403981Y-46598959D01*
X68358226Y-46546155D01*
X68348282Y-46476997D01*
X68377307Y-46413441D01*
X68383339Y-46406963D01*
X68402745Y-46387557D01*
X68455472Y-46296231D01*
X68482765Y-46194371D01*
X68482765Y-45438917D01*
X68455472Y-45337057D01*
X68402745Y-45245731D01*
X68328178Y-45171164D01*
X68236852Y-45118437D01*
X68134992Y-45091144D01*
X67814992Y-45091144D01*
X67709538Y-45091144D01*
X67607678Y-45118437D01*
X67607675Y-45118438D01*
X67516350Y-45171165D01*
X67441786Y-45245729D01*
X67389059Y-45337054D01*
X67389058Y-45337057D01*
X67361765Y-45438917D01*
X67361765Y-45541867D01*
X67342080Y-45608906D01*
X67289276Y-45654661D01*
X67220118Y-45664605D01*
X67165695Y-45639751D01*
X67164879Y-45640973D01*
X67157337Y-45635933D01*
X67156562Y-45635580D01*
X67155938Y-45634999D01*
X67125043Y-45614357D01*
X67121478Y-45611975D01*
X67121476Y-45611974D01*
X67121473Y-45611973D01*
X67092166Y-45606144D01*
X66852370Y-45606144D01*
X66852362Y-45606145D01*
X66823054Y-45611974D01*
X66819713Y-45613358D01*
X66811841Y-45614203D01*
X66811072Y-45614357D01*
X66811058Y-45614288D01*
X66750243Y-45620824D01*
X66724808Y-45613355D01*
X66721473Y-45611973D01*
X66692166Y-45606144D01*
X66452370Y-45606144D01*
X66452362Y-45606145D01*
X66423054Y-45611974D01*
X66419713Y-45613358D01*
X66411841Y-45614203D01*
X66411072Y-45614357D01*
X66411058Y-45614288D01*
X66350243Y-45620824D01*
X66324808Y-45613355D01*
X66321473Y-45611973D01*
X66292166Y-45606144D01*
X66052370Y-45606144D01*
X66052362Y-45606145D01*
X66023054Y-45611974D01*
X66019713Y-45613358D01*
X66011841Y-45614203D01*
X66011072Y-45614357D01*
X66011058Y-45614288D01*
X65950243Y-45620824D01*
X65924808Y-45613355D01*
X65921473Y-45611973D01*
X65892166Y-45606144D01*
X65652370Y-45606144D01*
X65652362Y-45606145D01*
X65623054Y-45611974D01*
X65619713Y-45613358D01*
X65611841Y-45614203D01*
X65611072Y-45614357D01*
X65611058Y-45614288D01*
X65550243Y-45620824D01*
X65524808Y-45613355D01*
X65521473Y-45611973D01*
X65492166Y-45606144D01*
X65252370Y-45606144D01*
X65252362Y-45606145D01*
X65223054Y-45611974D01*
X65219713Y-45613358D01*
X65211841Y-45614203D01*
X65211072Y-45614357D01*
X65211058Y-45614288D01*
X65150243Y-45620824D01*
X65124808Y-45613355D01*
X65121473Y-45611973D01*
X65092166Y-45606144D01*
X64852370Y-45606144D01*
X64852362Y-45606145D01*
X64823054Y-45611974D01*
X64819713Y-45613358D01*
X64811841Y-45614203D01*
X64811072Y-45614357D01*
X64811058Y-45614288D01*
X64750243Y-45620824D01*
X64724808Y-45613355D01*
X64721473Y-45611973D01*
X64692166Y-45606144D01*
X64452370Y-45606144D01*
X64452362Y-45606145D01*
X64423052Y-45611974D01*
X64379651Y-45640973D01*
X64378012Y-45638521D01*
X64333123Y-45663033D01*
X64263431Y-45658049D01*
X64207498Y-45616177D01*
X64183081Y-45550713D01*
X64182765Y-45541867D01*
X64182765Y-45438919D01*
X64182765Y-45438917D01*
X64155472Y-45337057D01*
X64102745Y-45245731D01*
X64028178Y-45171164D01*
X63936852Y-45118437D01*
X63834992Y-45091144D01*
X63514992Y-45091144D01*
X63409538Y-45091144D01*
X63307678Y-45118437D01*
X63307675Y-45118438D01*
X63216350Y-45171165D01*
X63141786Y-45245729D01*
X63089059Y-45337054D01*
X63089058Y-45337057D01*
X63061765Y-45438917D01*
X63061765Y-46088917D01*
X63061765Y-46194371D01*
X63085284Y-46282144D01*
X63089058Y-46296230D01*
X63089059Y-46296233D01*
X63141786Y-46387558D01*
X63161191Y-46406963D01*
X63194676Y-46468286D01*
X63189692Y-46537978D01*
X63147820Y-46593911D01*
X63082356Y-46618328D01*
X63073510Y-46618644D01*
X19484765Y-46618644D01*
X19417726Y-46598959D01*
X19371971Y-46546155D01*
X19360765Y-46494644D01*
X19360765Y-42997117D01*
X20871765Y-42997117D01*
X20871765Y-43241170D01*
X20908635Y-43473959D01*
X20909944Y-43482220D01*
X20985361Y-43714329D01*
X21090879Y-43921421D01*
X21096161Y-43931786D01*
X21239604Y-44129220D01*
X21239608Y-44129225D01*
X21412183Y-44301800D01*
X21412188Y-44301804D01*
X21509004Y-44372144D01*
X21609626Y-44445250D01*
X21827080Y-44556048D01*
X22059189Y-44631465D01*
X22300238Y-44669644D01*
X22300239Y-44669644D01*
X22544291Y-44669644D01*
X22544292Y-44669644D01*
X22785341Y-44631465D01*
X23017450Y-44556048D01*
X23234904Y-44445250D01*
X23432348Y-44301799D01*
X23604920Y-44129227D01*
X23748371Y-43931783D01*
X23859169Y-43714329D01*
X23934586Y-43482220D01*
X23968370Y-43268917D01*
X63061765Y-43268917D01*
X63061765Y-44024370D01*
X63089058Y-44126230D01*
X63089059Y-44126233D01*
X63090788Y-44129227D01*
X63141785Y-44217557D01*
X63216352Y-44292124D01*
X63307678Y-44344851D01*
X63409538Y-44372144D01*
X63409540Y-44372144D01*
X63834990Y-44372144D01*
X63834992Y-44372144D01*
X63936852Y-44344851D01*
X64028178Y-44292124D01*
X64102745Y-44217557D01*
X64155472Y-44126231D01*
X64182765Y-44024371D01*
X64182765Y-43921421D01*
X64202450Y-43854382D01*
X64255254Y-43808627D01*
X64324412Y-43798683D01*
X64378834Y-43823536D01*
X64379651Y-43822315D01*
X64387192Y-43827354D01*
X64387968Y-43827708D01*
X64388591Y-43828288D01*
X64389808Y-43829101D01*
X64423052Y-43851313D01*
X64423055Y-43851313D01*
X64423056Y-43851314D01*
X64432912Y-43853274D01*
X64452366Y-43857144D01*
X64692163Y-43857143D01*
X64721478Y-43851313D01*
X64754722Y-43829101D01*
X64776934Y-43795857D01*
X64782765Y-43766543D01*
X64782764Y-43271746D01*
X64776934Y-43242431D01*
X64770527Y-43232842D01*
X64754722Y-43209186D01*
X64721479Y-43186976D01*
X64721480Y-43186976D01*
X64721478Y-43186975D01*
X64721476Y-43186974D01*
X64721473Y-43186973D01*
X64692166Y-43181144D01*
X64452370Y-43181144D01*
X64452362Y-43181145D01*
X64423052Y-43186974D01*
X64389807Y-43209186D01*
X64382649Y-43219901D01*
X64329037Y-43264706D01*
X64259712Y-43273414D01*
X64196684Y-43243260D01*
X64159965Y-43183818D01*
X64159771Y-43183102D01*
X64159247Y-43181145D01*
X64155472Y-43167057D01*
X64102745Y-43075731D01*
X64028178Y-43001164D01*
X63936852Y-42948437D01*
X63834992Y-42921144D01*
X63514992Y-42921144D01*
X63409538Y-42921144D01*
X63307678Y-42948437D01*
X63307675Y-42948438D01*
X63216350Y-43001165D01*
X63141786Y-43075729D01*
X63089059Y-43167054D01*
X63089058Y-43167057D01*
X63061765Y-43268917D01*
X23968370Y-43268917D01*
X23972765Y-43241171D01*
X23972765Y-42997117D01*
X23934586Y-42756068D01*
X23859169Y-42523959D01*
X23748371Y-42306505D01*
X23639390Y-42156505D01*
X23604925Y-42109067D01*
X23604921Y-42109062D01*
X23432346Y-41936487D01*
X23432341Y-41936483D01*
X23234907Y-41793040D01*
X23234906Y-41793039D01*
X23234904Y-41793038D01*
X23017450Y-41682240D01*
X22785341Y-41606823D01*
X22785339Y-41606822D01*
X22785337Y-41606822D01*
X22582862Y-41574753D01*
X22544292Y-41568644D01*
X22300238Y-41568644D01*
X22261668Y-41574753D01*
X22059192Y-41606822D01*
X21827077Y-41682241D01*
X21609622Y-41793040D01*
X21412188Y-41936483D01*
X21412183Y-41936487D01*
X21239608Y-42109062D01*
X21239604Y-42109067D01*
X21096161Y-42306501D01*
X20985362Y-42523956D01*
X20909943Y-42756071D01*
X20871765Y-42997117D01*
X19360765Y-42997117D01*
X19360765Y-35725484D01*
X26921765Y-35725484D01*
X26921765Y-36312796D01*
X26921766Y-36312802D01*
X26927886Y-36359297D01*
X26927887Y-36359299D01*
X26927887Y-36359300D01*
X26957007Y-36421748D01*
X26975466Y-36461333D01*
X27055076Y-36540943D01*
X27136467Y-36578896D01*
X27157110Y-36588522D01*
X27157111Y-36588523D01*
X27163232Y-36589328D01*
X27203606Y-36594644D01*
X27715923Y-36594643D01*
X27762418Y-36588523D01*
X27864454Y-36540943D01*
X27944064Y-36461333D01*
X27953434Y-36441237D01*
X27999607Y-36388800D01*
X28065816Y-36369644D01*
X29063450Y-36369644D01*
X29130489Y-36389329D01*
X29132316Y-36390525D01*
X29185377Y-36425980D01*
X29185379Y-36425980D01*
X29185380Y-36425981D01*
X29254066Y-36439644D01*
X29254069Y-36439644D01*
X29570463Y-36439644D01*
X29639149Y-36425981D01*
X29639149Y-36425980D01*
X29639153Y-36425980D01*
X29717051Y-36373930D01*
X29769101Y-36296032D01*
X29771524Y-36283850D01*
X29782765Y-36227342D01*
X29782765Y-35810945D01*
X29769102Y-35742259D01*
X29769101Y-35742258D01*
X29769101Y-35742256D01*
X29717051Y-35664358D01*
X29639153Y-35612308D01*
X29639151Y-35612307D01*
X29639149Y-35612306D01*
X29570463Y-35598644D01*
X29570461Y-35598644D01*
X29254069Y-35598644D01*
X29254067Y-35598644D01*
X29185380Y-35612306D01*
X29185378Y-35612307D01*
X29132339Y-35647747D01*
X29065662Y-35668624D01*
X29063449Y-35668644D01*
X28065816Y-35668644D01*
X27998777Y-35648959D01*
X27953434Y-35597050D01*
X27944064Y-35576955D01*
X27864454Y-35497345D01*
X27836584Y-35484349D01*
X27762419Y-35449765D01*
X27762418Y-35449764D01*
X27715924Y-35443644D01*
X27203612Y-35443644D01*
X27188873Y-35445584D01*
X27157112Y-35449765D01*
X27157110Y-35449766D01*
X27157108Y-35449766D01*
X27055075Y-35497345D01*
X26975466Y-35576954D01*
X26927886Y-35678989D01*
X26927885Y-35678990D01*
X26921765Y-35725484D01*
X19360765Y-35725484D01*
X19360765Y-32725484D01*
X26921765Y-32725484D01*
X26921765Y-33312796D01*
X26922633Y-33319392D01*
X26927886Y-33359297D01*
X26927887Y-33359299D01*
X26927887Y-33359300D01*
X26963418Y-33435496D01*
X26975466Y-33461333D01*
X27055076Y-33540943D01*
X27157108Y-33588521D01*
X27157110Y-33588522D01*
X27157111Y-33588523D01*
X27163232Y-33589328D01*
X27203606Y-33594644D01*
X27715923Y-33594643D01*
X27762418Y-33588523D01*
X27864454Y-33540943D01*
X27944064Y-33461333D01*
X27953434Y-33441237D01*
X27999607Y-33388800D01*
X28065816Y-33369644D01*
X29063450Y-33369644D01*
X29130489Y-33389329D01*
X29132316Y-33390525D01*
X29185377Y-33425980D01*
X29185379Y-33425980D01*
X29185380Y-33425981D01*
X29254066Y-33439644D01*
X29254069Y-33439644D01*
X29570463Y-33439644D01*
X29639149Y-33425981D01*
X29639149Y-33425980D01*
X29639153Y-33425980D01*
X29717051Y-33373930D01*
X29769101Y-33296032D01*
X29770699Y-33288000D01*
X29782765Y-33227342D01*
X29782765Y-32810945D01*
X29769102Y-32742259D01*
X29769101Y-32742258D01*
X29769101Y-32742256D01*
X29717051Y-32664358D01*
X29639153Y-32612308D01*
X29639151Y-32612307D01*
X29639149Y-32612306D01*
X29570463Y-32598644D01*
X29570461Y-32598644D01*
X29254069Y-32598644D01*
X29254067Y-32598644D01*
X29185380Y-32612306D01*
X29185378Y-32612307D01*
X29132339Y-32647747D01*
X29065662Y-32668624D01*
X29063449Y-32668644D01*
X28065816Y-32668644D01*
X27998777Y-32648959D01*
X27953434Y-32597050D01*
X27944064Y-32576955D01*
X27864454Y-32497345D01*
X27844414Y-32488000D01*
X27762419Y-32449765D01*
X27762418Y-32449764D01*
X27715924Y-32443644D01*
X27203612Y-32443644D01*
X27188873Y-32445584D01*
X27157112Y-32449765D01*
X27157110Y-32449766D01*
X27157108Y-32449766D01*
X27055075Y-32497345D01*
X26975466Y-32576954D01*
X26927886Y-32678989D01*
X26927885Y-32678990D01*
X26921765Y-32725484D01*
X19360765Y-32725484D01*
X19360765Y-29725484D01*
X26884265Y-29725484D01*
X26884265Y-30312796D01*
X26884266Y-30312802D01*
X26890386Y-30359297D01*
X26890387Y-30359299D01*
X26890387Y-30359300D01*
X26921480Y-30425979D01*
X26937966Y-30461333D01*
X27017576Y-30540943D01*
X27119608Y-30588521D01*
X27119610Y-30588522D01*
X27119611Y-30588523D01*
X27125732Y-30589328D01*
X27166106Y-30594644D01*
X27678423Y-30594643D01*
X27724918Y-30588523D01*
X27826954Y-30540943D01*
X27906564Y-30461333D01*
X27915934Y-30441237D01*
X27962107Y-30388800D01*
X28028316Y-30369644D01*
X29025950Y-30369644D01*
X29092989Y-30389329D01*
X29094816Y-30390525D01*
X29147877Y-30425980D01*
X29147879Y-30425980D01*
X29147880Y-30425981D01*
X29216566Y-30439644D01*
X29216569Y-30439644D01*
X29532963Y-30439644D01*
X29601649Y-30425981D01*
X29601649Y-30425980D01*
X29601653Y-30425980D01*
X29679551Y-30373930D01*
X29731601Y-30296032D01*
X29732976Y-30289119D01*
X29745265Y-30227342D01*
X30024264Y-30227342D01*
X30037927Y-30296028D01*
X30037928Y-30296030D01*
X30037929Y-30296032D01*
X30089979Y-30373930D01*
X30167877Y-30425980D01*
X30167879Y-30425980D01*
X30167880Y-30425981D01*
X30236566Y-30439644D01*
X30236569Y-30439644D01*
X30552963Y-30439644D01*
X30621649Y-30425981D01*
X30621649Y-30425980D01*
X30621653Y-30425980D01*
X30674689Y-30390541D01*
X30741367Y-30369664D01*
X30743580Y-30369644D01*
X31168407Y-30369644D01*
X31168409Y-30369644D01*
X31257553Y-30345758D01*
X31268143Y-30339644D01*
X31337477Y-30299614D01*
X31752735Y-29884356D01*
X32252735Y-29384356D01*
X32252736Y-29384353D01*
X32256820Y-29380270D01*
X32318143Y-29346785D01*
X32387834Y-29351769D01*
X32443768Y-29393640D01*
X32467790Y-29454690D01*
X32469175Y-29467566D01*
X32480382Y-29519082D01*
X32503739Y-29565744D01*
X32532248Y-29598644D01*
X32549494Y-29618547D01*
X32599502Y-29650685D01*
X32666541Y-29670370D01*
X32696265Y-29674644D01*
X33650145Y-29674644D01*
X33717184Y-29694329D01*
X33762939Y-29747133D01*
X33772883Y-29816291D01*
X33743858Y-29879847D01*
X33731349Y-29892356D01*
X33697861Y-29921373D01*
X33665725Y-29971379D01*
X33665724Y-29971380D01*
X33646039Y-30038419D01*
X33644403Y-30049796D01*
X33615376Y-30113350D01*
X33556596Y-30151122D01*
X33521666Y-30156144D01*
X33301119Y-30156144D01*
X33258275Y-30167624D01*
X33258274Y-30167623D01*
X33211981Y-30180028D01*
X33211974Y-30180031D01*
X33132056Y-30226171D01*
X33132051Y-30226175D01*
X30778389Y-32579836D01*
X30717066Y-32613321D01*
X30666516Y-32613772D01*
X30590463Y-32598644D01*
X30590461Y-32598644D01*
X30274069Y-32598644D01*
X30274067Y-32598644D01*
X30205380Y-32612306D01*
X30205377Y-32612308D01*
X30127479Y-32664358D01*
X30075429Y-32742256D01*
X30075427Y-32742259D01*
X30061765Y-32810945D01*
X30061765Y-32810948D01*
X30061765Y-33227340D01*
X30061765Y-33227342D01*
X30061764Y-33227342D01*
X30075427Y-33296028D01*
X30075428Y-33296030D01*
X30075429Y-33296032D01*
X30127479Y-33373930D01*
X30205377Y-33425980D01*
X30205379Y-33425980D01*
X30205380Y-33425981D01*
X30274066Y-33439644D01*
X30274069Y-33439644D01*
X30590463Y-33439644D01*
X30659149Y-33425981D01*
X30659149Y-33425980D01*
X30659153Y-33425980D01*
X30699069Y-33399309D01*
X30712192Y-33390541D01*
X30778869Y-33369663D01*
X30781082Y-33369643D01*
X30880909Y-33369643D01*
X30880914Y-33369642D01*
X30970050Y-33345759D01*
X30970050Y-33345758D01*
X30970053Y-33345758D01*
X31049977Y-33299614D01*
X33210736Y-31138854D01*
X33272057Y-31105371D01*
X33341749Y-31110355D01*
X33397682Y-31152227D01*
X33422099Y-31217691D01*
X33407247Y-31285964D01*
X33405803Y-31288535D01*
X33388421Y-31318641D01*
X33388422Y-31318642D01*
X33384652Y-31325171D01*
X33384651Y-31325174D01*
X33360765Y-31414318D01*
X33360765Y-32704289D01*
X33382084Y-32783854D01*
X33384650Y-32793429D01*
X33384652Y-32793435D01*
X33430792Y-32873352D01*
X33430796Y-32873357D01*
X34163809Y-33606370D01*
X34195902Y-33661953D01*
X34199058Y-33673730D01*
X34199059Y-33673733D01*
X34208351Y-33689827D01*
X34251785Y-33765057D01*
X34326352Y-33839624D01*
X34417678Y-33892351D01*
X34519538Y-33919644D01*
X34519540Y-33919644D01*
X34624990Y-33919644D01*
X34624992Y-33919644D01*
X34726852Y-33892351D01*
X34818178Y-33839624D01*
X34892745Y-33765057D01*
X34945472Y-33673731D01*
X34972765Y-33571871D01*
X34972765Y-33466417D01*
X34945472Y-33364557D01*
X34892745Y-33273231D01*
X34818178Y-33198664D01*
X34726852Y-33145937D01*
X34715074Y-33142781D01*
X34659491Y-33110688D01*
X34567947Y-33019144D01*
X39709765Y-33019144D01*
X39726227Y-31686606D01*
X39985446Y-31945825D01*
X40018931Y-32007148D01*
X40021765Y-32033506D01*
X40021765Y-34822600D01*
X40013120Y-34852040D01*
X40006597Y-34882027D01*
X40002842Y-34887042D01*
X40002080Y-34889639D01*
X39985446Y-34910281D01*
X39926946Y-34968781D01*
X39865623Y-35002266D01*
X39795931Y-34997282D01*
X39739998Y-34955410D01*
X39715581Y-34889946D01*
X39715265Y-34881100D01*
X39715265Y-34518144D01*
X39712854Y-34495717D01*
X39701648Y-34444206D01*
X39678291Y-34397545D01*
X39678290Y-34397543D01*
X39632535Y-34344740D01*
X39587879Y-34316042D01*
X39582528Y-34312603D01*
X39582065Y-34312467D01*
X39515494Y-34292919D01*
X39515490Y-34292918D01*
X39515489Y-34292918D01*
X39485765Y-34288644D01*
X37433765Y-34288644D01*
X37433762Y-34288644D01*
X37411338Y-34291054D01*
X37359826Y-34302261D01*
X37313164Y-34325618D01*
X37260361Y-34371373D01*
X37228225Y-34421379D01*
X37228224Y-34421380D01*
X37208540Y-34488414D01*
X37208539Y-34488419D01*
X37208539Y-34488420D01*
X37204266Y-34518141D01*
X37204265Y-34518147D01*
X37204265Y-35394646D01*
X37206675Y-35417070D01*
X37217882Y-35468582D01*
X37240332Y-35513431D01*
X37252738Y-35582190D01*
X37237012Y-35625531D01*
X37237708Y-35625820D01*
X37233033Y-35637103D01*
X37221765Y-35693755D01*
X37221765Y-35944532D01*
X37233033Y-36001184D01*
X37233034Y-36001186D01*
X37233035Y-36001187D01*
X37233164Y-36001381D01*
X37233317Y-36001867D01*
X37237708Y-36012468D01*
X37236758Y-36012861D01*
X37254040Y-36068057D01*
X37235554Y-36135437D01*
X37234378Y-36137303D01*
X37228227Y-36146873D01*
X37228224Y-36146880D01*
X37208540Y-36213914D01*
X37208539Y-36213919D01*
X37208539Y-36213920D01*
X37204533Y-36241786D01*
X37204265Y-36243647D01*
X37204265Y-36614646D01*
X37206675Y-36637070D01*
X37217882Y-36688582D01*
X37241239Y-36735244D01*
X37281879Y-36782144D01*
X37286994Y-36788047D01*
X37337002Y-36820185D01*
X37404041Y-36839870D01*
X37433765Y-36844144D01*
X35284765Y-36844144D01*
X35284765Y-36119144D01*
X34035765Y-36119144D01*
X34248946Y-35905963D01*
X34310269Y-35872478D01*
X34336627Y-35869644D01*
X34553455Y-35869644D01*
X34553456Y-35869643D01*
X34623604Y-35855690D01*
X34703156Y-35802535D01*
X34756311Y-35722983D01*
X34758502Y-35711970D01*
X34765965Y-35674453D01*
X34798350Y-35612542D01*
X34859065Y-35577968D01*
X34887582Y-35574644D01*
X35322765Y-35574644D01*
X35389804Y-35594329D01*
X35435559Y-35647133D01*
X35446765Y-35698644D01*
X35446765Y-35944532D01*
X35458033Y-36001184D01*
X35458034Y-36001185D01*
X35458034Y-36001186D01*
X35458035Y-36001187D01*
X35500968Y-36065441D01*
X35565222Y-36108374D01*
X35565223Y-36108374D01*
X35565224Y-36108375D01*
X35621876Y-36119643D01*
X35621880Y-36119644D01*
X35621881Y-36119644D01*
X35847650Y-36119644D01*
X35847651Y-36119643D01*
X35866706Y-36115853D01*
X35904305Y-36108375D01*
X35904305Y-36108374D01*
X35904308Y-36108374D01*
X35968562Y-36065441D01*
X36011495Y-36001187D01*
X36022765Y-35944528D01*
X36022765Y-35693760D01*
X36018871Y-35674184D01*
X36011496Y-35637103D01*
X36011495Y-35637102D01*
X36011495Y-35637101D01*
X35988779Y-35603105D01*
X35967902Y-35536428D01*
X35986387Y-35469048D01*
X35987567Y-35467175D01*
X35988488Y-35465743D01*
X36003806Y-35441907D01*
X36023491Y-35374868D01*
X36027765Y-35345144D01*
X36027765Y-34518144D01*
X36025354Y-34495717D01*
X36014148Y-34444206D01*
X35990791Y-34397545D01*
X35990790Y-34397543D01*
X35945035Y-34344740D01*
X35900379Y-34316042D01*
X35895028Y-34312603D01*
X35894565Y-34312467D01*
X35827994Y-34292919D01*
X35827990Y-34292918D01*
X35827989Y-34292918D01*
X35798265Y-34288644D01*
X33771265Y-34288644D01*
X33771262Y-34288644D01*
X33748838Y-34291054D01*
X33697326Y-34302261D01*
X33650664Y-34325618D01*
X33597861Y-34371373D01*
X33565725Y-34421379D01*
X33565724Y-34421380D01*
X33546040Y-34488414D01*
X33546039Y-34488419D01*
X33546039Y-34488420D01*
X33541766Y-34518141D01*
X33541765Y-34518147D01*
X33541765Y-34632144D01*
X33522080Y-34699183D01*
X33469276Y-34744938D01*
X33417765Y-34756144D01*
X31701121Y-34756144D01*
X31611977Y-34780030D01*
X31611974Y-34780031D01*
X31532056Y-34826171D01*
X31532051Y-34826175D01*
X30778389Y-35579836D01*
X30717066Y-35613321D01*
X30666516Y-35613772D01*
X30590463Y-35598644D01*
X30590461Y-35598644D01*
X30274069Y-35598644D01*
X30274067Y-35598644D01*
X30205380Y-35612306D01*
X30205377Y-35612308D01*
X30127479Y-35664358D01*
X30075429Y-35742256D01*
X30075427Y-35742259D01*
X30061765Y-35810945D01*
X30061765Y-35810948D01*
X30061765Y-36227340D01*
X30061765Y-36227342D01*
X30061764Y-36227342D01*
X30075427Y-36296028D01*
X30075428Y-36296030D01*
X30075429Y-36296032D01*
X30127479Y-36373930D01*
X30205377Y-36425980D01*
X30205379Y-36425980D01*
X30205380Y-36425981D01*
X30274066Y-36439644D01*
X30274069Y-36439644D01*
X30590463Y-36439644D01*
X30659149Y-36425981D01*
X30659149Y-36425980D01*
X30659153Y-36425980D01*
X30692150Y-36403932D01*
X30712192Y-36390541D01*
X30778869Y-36369663D01*
X30781082Y-36369643D01*
X30880909Y-36369643D01*
X30880914Y-36369642D01*
X30970050Y-36345759D01*
X30970050Y-36345758D01*
X30970053Y-36345758D01*
X31049977Y-36299614D01*
X31856128Y-35493463D01*
X31917451Y-35459978D01*
X31943809Y-35457144D01*
X33407038Y-35457144D01*
X33474077Y-35476829D01*
X33519832Y-35529633D01*
X33529776Y-35598791D01*
X33500751Y-35662347D01*
X33494719Y-35668825D01*
X32741796Y-36421748D01*
X32741790Y-36421756D01*
X32700368Y-36493503D01*
X32700367Y-36493505D01*
X32695651Y-36501671D01*
X32695651Y-36501672D01*
X32671765Y-36590818D01*
X32671765Y-38342001D01*
X32655153Y-38403999D01*
X32649060Y-38414552D01*
X32649058Y-38414557D01*
X32621765Y-38516417D01*
X32621765Y-38621871D01*
X32649058Y-38723731D01*
X32701785Y-38815057D01*
X32776352Y-38889624D01*
X32867678Y-38942351D01*
X32969538Y-38969644D01*
X32969540Y-38969644D01*
X33074990Y-38969644D01*
X33074992Y-38969644D01*
X33176852Y-38942351D01*
X33268178Y-38889624D01*
X33342745Y-38815057D01*
X33395472Y-38723731D01*
X33422765Y-38621871D01*
X33422765Y-38516417D01*
X33395472Y-38414557D01*
X33394520Y-38412908D01*
X33389377Y-38403999D01*
X33372765Y-38342001D01*
X33372765Y-36833506D01*
X33392450Y-36766467D01*
X33409084Y-36745825D01*
X33634765Y-36520144D01*
X33634765Y-37469144D01*
X39609765Y-37469144D01*
X39629896Y-35839644D01*
X39948407Y-35839644D01*
X39948409Y-35839644D01*
X40037553Y-35815758D01*
X40058036Y-35803932D01*
X40117477Y-35769614D01*
X40652734Y-35234356D01*
X40698879Y-35154432D01*
X40722765Y-35065288D01*
X40722765Y-31790818D01*
X40698879Y-31701674D01*
X40681983Y-31672409D01*
X40652735Y-31621750D01*
X39896719Y-30865734D01*
X39863234Y-30804411D01*
X39868218Y-30734719D01*
X39896719Y-30690372D01*
X42132128Y-28454963D01*
X42193451Y-28421478D01*
X42219809Y-28418644D01*
X53661687Y-28418644D01*
X53728726Y-28438329D01*
X53774481Y-28491133D01*
X53784425Y-28560291D01*
X53781464Y-28574726D01*
X53771765Y-28610925D01*
X53771765Y-32323000D01*
X53771765Y-34765288D01*
X53776739Y-34783850D01*
X53788070Y-34826141D01*
X53788077Y-34826164D01*
X53788080Y-34826175D01*
X53788897Y-34829224D01*
X53795651Y-34854433D01*
X53841792Y-34934352D01*
X53841794Y-34934355D01*
X53841795Y-34934356D01*
X54757053Y-35849614D01*
X54836809Y-35895661D01*
X54836977Y-35895758D01*
X54926121Y-35919644D01*
X54926122Y-35919644D01*
X54926123Y-35919644D01*
X60195762Y-35919644D01*
X60195764Y-35919644D01*
X60284908Y-35895758D01*
X60285076Y-35895661D01*
X60364832Y-35849614D01*
X60714523Y-35499922D01*
X60775845Y-35466438D01*
X60845536Y-35471422D01*
X60901470Y-35513293D01*
X60921976Y-35555508D01*
X60943840Y-35637102D01*
X60945652Y-35643864D01*
X60945653Y-35643867D01*
X60991791Y-35723779D01*
X60991794Y-35723783D01*
X60991796Y-35723786D01*
X61057053Y-35789043D01*
X61057056Y-35789044D01*
X61057059Y-35789047D01*
X61136971Y-35835185D01*
X61136972Y-35835185D01*
X61136977Y-35835188D01*
X61226121Y-35859074D01*
X61226123Y-35859074D01*
X61318407Y-35859074D01*
X61318409Y-35859074D01*
X61331064Y-35855683D01*
X61400911Y-35857342D01*
X61458776Y-35896503D01*
X61486282Y-35960730D01*
X61482935Y-36007548D01*
X61473836Y-36041505D01*
X61473836Y-36041507D01*
X61473836Y-36133795D01*
X61496860Y-36219723D01*
X61497723Y-36222941D01*
X61497724Y-36222944D01*
X61543862Y-36302856D01*
X61543865Y-36302860D01*
X61543867Y-36302863D01*
X61609124Y-36368120D01*
X61609127Y-36368121D01*
X61609130Y-36368124D01*
X61689042Y-36414262D01*
X61689043Y-36414262D01*
X61689048Y-36414265D01*
X61778192Y-36438151D01*
X61778194Y-36438151D01*
X61870478Y-36438151D01*
X61870480Y-36438151D01*
X61918806Y-36425202D01*
X61988654Y-36426864D01*
X62046517Y-36466025D01*
X62074022Y-36530253D01*
X62071557Y-36564777D01*
X62072826Y-36564944D01*
X62071765Y-36572998D01*
X62071765Y-36573000D01*
X62071765Y-36665288D01*
X62095181Y-36752679D01*
X62095652Y-36754434D01*
X62095653Y-36754437D01*
X62141791Y-36834349D01*
X62141794Y-36834353D01*
X62141796Y-36834356D01*
X62207053Y-36899613D01*
X62207056Y-36899614D01*
X62207059Y-36899617D01*
X62286971Y-36945755D01*
X62286972Y-36945755D01*
X62286977Y-36945758D01*
X62376121Y-36969644D01*
X62376123Y-36969644D01*
X62468407Y-36969644D01*
X62468409Y-36969644D01*
X62557553Y-36945758D01*
X62637477Y-36899613D01*
X62702734Y-36834356D01*
X62748879Y-36754432D01*
X62772765Y-36665288D01*
X62772765Y-36573000D01*
X62772765Y-36568201D01*
X62778262Y-36549479D01*
X62778804Y-36529976D01*
X62788767Y-36513702D01*
X62792450Y-36501162D01*
X62800961Y-36493787D01*
X62809084Y-36480520D01*
X62823678Y-36465926D01*
X62873047Y-36416557D01*
X62893126Y-36368081D01*
X62895658Y-36361970D01*
X62899764Y-36352056D01*
X62899765Y-36352054D01*
X62899765Y-36282235D01*
X62899765Y-33432186D01*
X62919450Y-33365147D01*
X62972254Y-33319392D01*
X63041412Y-33309448D01*
X63047957Y-33310569D01*
X63060178Y-33313000D01*
X63060180Y-33313000D01*
X63363442Y-33313000D01*
X63392878Y-33321643D01*
X63422868Y-33328167D01*
X63427885Y-33331922D01*
X63430481Y-33332685D01*
X63451123Y-33349318D01*
X63510446Y-33408640D01*
X63543931Y-33469963D01*
X63546765Y-33496322D01*
X63546765Y-36159531D01*
X63527080Y-36226570D01*
X63510446Y-36247212D01*
X63069483Y-36688174D01*
X63062122Y-36705945D01*
X63054762Y-36723715D01*
X63045632Y-36745758D01*
X63042765Y-36752679D01*
X63042765Y-40930235D01*
X63042765Y-41000053D01*
X63067987Y-41060945D01*
X63069483Y-41064557D01*
X65133962Y-43129036D01*
X65167447Y-43190359D01*
X65167898Y-43240908D01*
X65161765Y-43271740D01*
X65161765Y-43766538D01*
X65161766Y-43766546D01*
X65167595Y-43795856D01*
X65189807Y-43829101D01*
X65206484Y-43840243D01*
X65223052Y-43851313D01*
X65223055Y-43851313D01*
X65223056Y-43851314D01*
X65232912Y-43853274D01*
X65252366Y-43857144D01*
X65492163Y-43857143D01*
X65521478Y-43851313D01*
X65521485Y-43851308D01*
X65524807Y-43849933D01*
X65532674Y-43849086D01*
X65533458Y-43848931D01*
X65533471Y-43849001D01*
X65594276Y-43842461D01*
X65619725Y-43849934D01*
X65623047Y-43851310D01*
X65623052Y-43851313D01*
X65652366Y-43857144D01*
X65892163Y-43857143D01*
X65921478Y-43851313D01*
X65921485Y-43851308D01*
X65924807Y-43849933D01*
X65932674Y-43849086D01*
X65933458Y-43848931D01*
X65933471Y-43849001D01*
X65994276Y-43842461D01*
X66019725Y-43849934D01*
X66023047Y-43851310D01*
X66023052Y-43851313D01*
X66052366Y-43857144D01*
X66292163Y-43857143D01*
X66321478Y-43851313D01*
X66321485Y-43851308D01*
X66324807Y-43849933D01*
X66332674Y-43849086D01*
X66333458Y-43848931D01*
X66333471Y-43849001D01*
X66394276Y-43842461D01*
X66419725Y-43849934D01*
X66423047Y-43851310D01*
X66423052Y-43851313D01*
X66452366Y-43857144D01*
X66692163Y-43857143D01*
X66721478Y-43851313D01*
X66721485Y-43851308D01*
X66724807Y-43849933D01*
X66732674Y-43849086D01*
X66733458Y-43848931D01*
X66733471Y-43849001D01*
X66794276Y-43842461D01*
X66819725Y-43849934D01*
X66823047Y-43851310D01*
X66823052Y-43851313D01*
X66852366Y-43857144D01*
X67092163Y-43857143D01*
X67121478Y-43851313D01*
X67154722Y-43829101D01*
X67154721Y-43829101D01*
X67164879Y-43822315D01*
X67166517Y-43824766D01*
X67211407Y-43800255D01*
X67281099Y-43805239D01*
X67337032Y-43847111D01*
X67361449Y-43912575D01*
X67361765Y-43921421D01*
X67361765Y-44024370D01*
X67389058Y-44126230D01*
X67389059Y-44126233D01*
X67390788Y-44129227D01*
X67441785Y-44217557D01*
X67516352Y-44292124D01*
X67607678Y-44344851D01*
X67709538Y-44372144D01*
X67709540Y-44372144D01*
X68134990Y-44372144D01*
X68134992Y-44372144D01*
X68236852Y-44344851D01*
X68328178Y-44292124D01*
X68402745Y-44217557D01*
X68455472Y-44126231D01*
X68482765Y-44024371D01*
X68482765Y-43268917D01*
X68455472Y-43167057D01*
X68402745Y-43075731D01*
X68328178Y-43001164D01*
X68236852Y-42948437D01*
X68134992Y-42921144D01*
X67814992Y-42921144D01*
X67709538Y-42921144D01*
X67607678Y-42948437D01*
X67607675Y-42948438D01*
X67516350Y-43001165D01*
X67441786Y-43075729D01*
X67389056Y-43167058D01*
X67386326Y-43173652D01*
X67342485Y-43228056D01*
X67276191Y-43250121D01*
X67208492Y-43232842D01*
X67160881Y-43181705D01*
X67147765Y-43126200D01*
X67147765Y-41784236D01*
X67147765Y-41784235D01*
X67121047Y-41719731D01*
X67071678Y-41670362D01*
X66246464Y-40845148D01*
X66239399Y-40838083D01*
X66239392Y-40838077D01*
X66107174Y-40705859D01*
X65973751Y-40572435D01*
X64848084Y-39446768D01*
X64814599Y-39385445D01*
X64811765Y-39359087D01*
X64811765Y-39007342D01*
X65801764Y-39007342D01*
X65815427Y-39076028D01*
X65815428Y-39076030D01*
X65815429Y-39076032D01*
X65867479Y-39153930D01*
X65945377Y-39205980D01*
X65955532Y-39212765D01*
X65954897Y-39213714D01*
X65999623Y-39249757D01*
X66021686Y-39316052D01*
X66021765Y-39320475D01*
X66021765Y-39459027D01*
X66052289Y-39532718D01*
X66482348Y-39962777D01*
X66515833Y-40024100D01*
X66518667Y-40050458D01*
X66518667Y-40062896D01*
X66545960Y-40164756D01*
X66598687Y-40256082D01*
X66673254Y-40330649D01*
X66764580Y-40383376D01*
X66866440Y-40410669D01*
X66866442Y-40410669D01*
X66971892Y-40410669D01*
X66971894Y-40410669D01*
X67073754Y-40383376D01*
X67165080Y-40330649D01*
X67239647Y-40256082D01*
X67292374Y-40164756D01*
X67319667Y-40062896D01*
X67319667Y-39957442D01*
X67292374Y-39855582D01*
X67239647Y-39764256D01*
X67165080Y-39689689D01*
X67073754Y-39636962D01*
X66971894Y-39609669D01*
X66866440Y-39609669D01*
X66866438Y-39609669D01*
X66801436Y-39627086D01*
X66731586Y-39625423D01*
X66681663Y-39594992D01*
X66482203Y-39395532D01*
X66448718Y-39334209D01*
X66453702Y-39264517D01*
X66495574Y-39208584D01*
X66500946Y-39204781D01*
X66577051Y-39153930D01*
X66629101Y-39076032D01*
X66642765Y-39007340D01*
X66642765Y-38690948D01*
X66642765Y-38690945D01*
X66629102Y-38622259D01*
X66629101Y-38622258D01*
X66629101Y-38622256D01*
X66577051Y-38544358D01*
X66499153Y-38492308D01*
X66499151Y-38492307D01*
X66499149Y-38492306D01*
X66430463Y-38478644D01*
X66430461Y-38478644D01*
X66014069Y-38478644D01*
X66014067Y-38478644D01*
X65945380Y-38492306D01*
X65945377Y-38492308D01*
X65867479Y-38544358D01*
X65815429Y-38622256D01*
X65815427Y-38622259D01*
X65801765Y-38690945D01*
X65801765Y-38690948D01*
X65801765Y-39007340D01*
X65801765Y-39007342D01*
X65801764Y-39007342D01*
X64811765Y-39007342D01*
X64811765Y-38367612D01*
X64831450Y-38300573D01*
X64884254Y-38254818D01*
X64953412Y-38244874D01*
X64959956Y-38245995D01*
X65028572Y-38259643D01*
X65028575Y-38259644D01*
X65028577Y-38259644D01*
X65415955Y-38259644D01*
X65415956Y-38259643D01*
X65486104Y-38245690D01*
X65565656Y-38192535D01*
X65618811Y-38112983D01*
X65618812Y-38112975D01*
X65619837Y-38110504D01*
X65623525Y-38105927D01*
X65625596Y-38102828D01*
X65625873Y-38103013D01*
X65663678Y-38056100D01*
X65729971Y-38034034D01*
X65797671Y-38051312D01*
X65837501Y-38089065D01*
X65864404Y-38129329D01*
X65867479Y-38133930D01*
X65945377Y-38185980D01*
X65945379Y-38185980D01*
X65945380Y-38185981D01*
X66014066Y-38199644D01*
X66014069Y-38199644D01*
X66430463Y-38199644D01*
X66499149Y-38185981D01*
X66499149Y-38185980D01*
X66499153Y-38185980D01*
X66577051Y-38133930D01*
X66612144Y-38081409D01*
X66665752Y-38036606D01*
X66735077Y-38027897D01*
X66798105Y-38058051D01*
X66816701Y-38084319D01*
X66818934Y-38082828D01*
X66825718Y-38092982D01*
X66825719Y-38092983D01*
X66878874Y-38172535D01*
X66958426Y-38225690D01*
X66958429Y-38225690D01*
X66958430Y-38225691D01*
X67028572Y-38239643D01*
X67028575Y-38239644D01*
X67028577Y-38239644D01*
X67415955Y-38239644D01*
X67415956Y-38239643D01*
X67486104Y-38225690D01*
X67552875Y-38181074D01*
X67619551Y-38160197D01*
X67686932Y-38178681D01*
X67733622Y-38230660D01*
X67745765Y-38284177D01*
X67745765Y-41829624D01*
X67745765Y-41899442D01*
X67772483Y-41963946D01*
X69928095Y-44119557D01*
X69977464Y-44168926D01*
X70041968Y-44195644D01*
X70041970Y-44195644D01*
X84406172Y-44195644D01*
X84406174Y-44195644D01*
X84470678Y-44168926D01*
X85792487Y-42847117D01*
X99821765Y-42847117D01*
X99821765Y-43091170D01*
X99850365Y-43271746D01*
X99859944Y-43332220D01*
X99935361Y-43564329D01*
X100038395Y-43766546D01*
X100046161Y-43781786D01*
X100189604Y-43979220D01*
X100189608Y-43979225D01*
X100362183Y-44151800D01*
X100362188Y-44151804D01*
X100534401Y-44276923D01*
X100559626Y-44295250D01*
X100777080Y-44406048D01*
X101009189Y-44481465D01*
X101250238Y-44519644D01*
X101250239Y-44519644D01*
X101494291Y-44519644D01*
X101494292Y-44519644D01*
X101735341Y-44481465D01*
X101967450Y-44406048D01*
X102184904Y-44295250D01*
X102382348Y-44151799D01*
X102554920Y-43979227D01*
X102698371Y-43781783D01*
X102809169Y-43564329D01*
X102884586Y-43332220D01*
X102922765Y-43091171D01*
X102922765Y-42847117D01*
X102884586Y-42606068D01*
X102809169Y-42373959D01*
X102698371Y-42156505D01*
X102652700Y-42093644D01*
X102554925Y-41959067D01*
X102554921Y-41959062D01*
X102382346Y-41786487D01*
X102382341Y-41786483D01*
X102184907Y-41643040D01*
X102184906Y-41643039D01*
X102184904Y-41643038D01*
X101967450Y-41532240D01*
X101735341Y-41456823D01*
X101735339Y-41456822D01*
X101735337Y-41456822D01*
X101551336Y-41427679D01*
X101494292Y-41418644D01*
X101250238Y-41418644D01*
X101194358Y-41427494D01*
X101009192Y-41456822D01*
X100777077Y-41532241D01*
X100559622Y-41643040D01*
X100362188Y-41786483D01*
X100362183Y-41786487D01*
X100189608Y-41959062D01*
X100189604Y-41959067D01*
X100046161Y-42156501D01*
X99935362Y-42373956D01*
X99859943Y-42606071D01*
X99821765Y-42847117D01*
X85792487Y-42847117D01*
X86121047Y-42518557D01*
X86147765Y-42454053D01*
X86147765Y-42384235D01*
X86147765Y-27890687D01*
X86167450Y-27823648D01*
X86184084Y-27803006D01*
X86212371Y-27774719D01*
X86252734Y-27734356D01*
X86298879Y-27654432D01*
X86322765Y-27565288D01*
X86322765Y-27473000D01*
X86298879Y-27383856D01*
X86294164Y-27375689D01*
X86252738Y-27303938D01*
X86252735Y-27303935D01*
X86252734Y-27303932D01*
X86187477Y-27238675D01*
X86187474Y-27238673D01*
X86187470Y-27238670D01*
X86107558Y-27192532D01*
X86107555Y-27192531D01*
X86107554Y-27192530D01*
X86107553Y-27192530D01*
X86018409Y-27168644D01*
X85926121Y-27168644D01*
X85836977Y-27192530D01*
X85836976Y-27192530D01*
X85836974Y-27192531D01*
X85836971Y-27192532D01*
X85757059Y-27238670D01*
X85750607Y-27243622D01*
X85749247Y-27241850D01*
X85698123Y-27269767D01*
X85628431Y-27264783D01*
X85572498Y-27222911D01*
X85548081Y-27157447D01*
X85547765Y-27148601D01*
X85547765Y-19797117D01*
X99821765Y-19797117D01*
X99821765Y-20041170D01*
X99859689Y-20280615D01*
X99859944Y-20282220D01*
X99935193Y-20513813D01*
X99935362Y-20514331D01*
X99938068Y-20519642D01*
X100037754Y-20715288D01*
X100046161Y-20731786D01*
X100189604Y-20929220D01*
X100189608Y-20929225D01*
X100362183Y-21101800D01*
X100362188Y-21101804D01*
X100441251Y-21159246D01*
X100559626Y-21245250D01*
X100777080Y-21356048D01*
X101009189Y-21431465D01*
X101250238Y-21469644D01*
X101250239Y-21469644D01*
X101494291Y-21469644D01*
X101494292Y-21469644D01*
X101735341Y-21431465D01*
X101967450Y-21356048D01*
X102184904Y-21245250D01*
X102382348Y-21101799D01*
X102554920Y-20929227D01*
X102698371Y-20731783D01*
X102809169Y-20514329D01*
X102884586Y-20282220D01*
X102922765Y-20041171D01*
X102922765Y-19797117D01*
X102884586Y-19556068D01*
X102809169Y-19323959D01*
X102698371Y-19106505D01*
X102676217Y-19076012D01*
X102554925Y-18909067D01*
X102554921Y-18909062D01*
X102382346Y-18736487D01*
X102382341Y-18736483D01*
X102184907Y-18593040D01*
X102184906Y-18593039D01*
X102184904Y-18593038D01*
X101967450Y-18482240D01*
X101735341Y-18406823D01*
X101735339Y-18406822D01*
X101735337Y-18406822D01*
X101552769Y-18377906D01*
X101494292Y-18368644D01*
X101250238Y-18368644D01*
X101194358Y-18377494D01*
X101009192Y-18406822D01*
X100777077Y-18482241D01*
X100559622Y-18593040D01*
X100362188Y-18736483D01*
X100362183Y-18736487D01*
X100189608Y-18909062D01*
X100189604Y-18909067D01*
X100046161Y-19106501D01*
X99935362Y-19323956D01*
X99859943Y-19556071D01*
X99821765Y-19797117D01*
X85547765Y-19797117D01*
X85547765Y-19668495D01*
X85547766Y-19668486D01*
X85547766Y-19584236D01*
X85547766Y-19584235D01*
X85521047Y-19519731D01*
X85521045Y-19519729D01*
X85521045Y-19519728D01*
X84275178Y-18273862D01*
X84258906Y-18267122D01*
X84210674Y-18247144D01*
X84210673Y-18247144D01*
X69627974Y-18247144D01*
X69560935Y-18227459D01*
X69515180Y-18174655D01*
X69505236Y-18105497D01*
X69508195Y-18091065D01*
X69532765Y-17999371D01*
X69532765Y-17243917D01*
X69505472Y-17142057D01*
X69452745Y-17050731D01*
X69378178Y-16976164D01*
X69286852Y-16923437D01*
X69184992Y-16896144D01*
X68864992Y-16896144D01*
X68759538Y-16896144D01*
X68657678Y-16923437D01*
X68657675Y-16923438D01*
X68566350Y-16976165D01*
X68491786Y-17050729D01*
X68439059Y-17142054D01*
X68439058Y-17142057D01*
X68411765Y-17243917D01*
X68411765Y-17893917D01*
X68411765Y-17999371D01*
X68439058Y-18101231D01*
X68491785Y-18192557D01*
X68566352Y-18267124D01*
X68657678Y-18319851D01*
X68738628Y-18341541D01*
X68798289Y-18377906D01*
X68828818Y-18440753D01*
X68820523Y-18510128D01*
X68794216Y-18548997D01*
X67914566Y-19428647D01*
X67914562Y-19428651D01*
X67908852Y-19434362D01*
X67859483Y-19483731D01*
X67844576Y-19519717D01*
X67834597Y-19532704D01*
X67819061Y-19544030D01*
X67806997Y-19559001D01*
X67791411Y-19564188D01*
X67778138Y-19573865D01*
X67758943Y-19574993D01*
X67740702Y-19581065D01*
X67736279Y-19581144D01*
X67502370Y-19581144D01*
X67502362Y-19581145D01*
X67473054Y-19586974D01*
X67469713Y-19588358D01*
X67461841Y-19589203D01*
X67461072Y-19589357D01*
X67461058Y-19589288D01*
X67400243Y-19595824D01*
X67374808Y-19588355D01*
X67371473Y-19586973D01*
X67342166Y-19581144D01*
X67102370Y-19581144D01*
X67102362Y-19581145D01*
X67073054Y-19586974D01*
X67069713Y-19588358D01*
X67061841Y-19589203D01*
X67061072Y-19589357D01*
X67061058Y-19589288D01*
X67000243Y-19595824D01*
X66974808Y-19588355D01*
X66971473Y-19586973D01*
X66942166Y-19581144D01*
X66702370Y-19581144D01*
X66702362Y-19581145D01*
X66673052Y-19586974D01*
X66629651Y-19615973D01*
X66628012Y-19613521D01*
X66583123Y-19638033D01*
X66513431Y-19633049D01*
X66457498Y-19591177D01*
X66433081Y-19525713D01*
X66432765Y-19516867D01*
X66432765Y-19413919D01*
X66432765Y-19413917D01*
X66405472Y-19312057D01*
X66352745Y-19220731D01*
X66278178Y-19146164D01*
X66209480Y-19106501D01*
X66186854Y-19093438D01*
X66186853Y-19093437D01*
X66186852Y-19093437D01*
X66084992Y-19066144D01*
X65764992Y-19066144D01*
X65659538Y-19066144D01*
X65557678Y-19093437D01*
X65557675Y-19093438D01*
X65466350Y-19146165D01*
X65391786Y-19220729D01*
X65339059Y-19312054D01*
X65339058Y-19312057D01*
X65311765Y-19413917D01*
X65311765Y-20063917D01*
X65311765Y-20169371D01*
X65339058Y-20271231D01*
X65391785Y-20362557D01*
X65466352Y-20437124D01*
X65557678Y-20489851D01*
X65659538Y-20517144D01*
X65659540Y-20517144D01*
X66084990Y-20517144D01*
X66084992Y-20517144D01*
X66186852Y-20489851D01*
X66278178Y-20437124D01*
X66352745Y-20362557D01*
X66405472Y-20271231D01*
X66405473Y-20271229D01*
X66408203Y-20264638D01*
X66452042Y-20210233D01*
X66518336Y-20188166D01*
X66586035Y-20205443D01*
X66633647Y-20256579D01*
X66646765Y-20312087D01*
X66646765Y-20545087D01*
X66627080Y-20612126D01*
X66610446Y-20632768D01*
X66373483Y-20869730D01*
X66346765Y-20934235D01*
X66346765Y-21230376D01*
X66327080Y-21297415D01*
X66274276Y-21343170D01*
X66246957Y-21351993D01*
X66245381Y-21352306D01*
X66245377Y-21352308D01*
X66167479Y-21404358D01*
X66115429Y-21482256D01*
X66115427Y-21482259D01*
X66101765Y-21550945D01*
X66101765Y-21550948D01*
X66101765Y-21867340D01*
X66101765Y-21867342D01*
X66101764Y-21867342D01*
X66115427Y-21936028D01*
X66115428Y-21936030D01*
X66115429Y-21936032D01*
X66167479Y-22013930D01*
X66245377Y-22065980D01*
X66245379Y-22065980D01*
X66245380Y-22065981D01*
X66314066Y-22079644D01*
X66314069Y-22079644D01*
X66730463Y-22079644D01*
X66799149Y-22065981D01*
X66799149Y-22065980D01*
X66799153Y-22065980D01*
X66877051Y-22013930D01*
X66919163Y-21950904D01*
X66972775Y-21906099D01*
X67042100Y-21897392D01*
X67105127Y-21927546D01*
X67125367Y-21950905D01*
X67167268Y-22013615D01*
X67167479Y-22013930D01*
X67245377Y-22065980D01*
X67245379Y-22065980D01*
X67245380Y-22065981D01*
X67314066Y-22079644D01*
X67314069Y-22079644D01*
X67730463Y-22079644D01*
X67799149Y-22065981D01*
X67799149Y-22065980D01*
X67799153Y-22065980D01*
X67877051Y-22013930D01*
X67894664Y-21987570D01*
X67948273Y-21942766D01*
X68017598Y-21934057D01*
X68080626Y-21964211D01*
X68117346Y-22023653D01*
X68121765Y-22056461D01*
X68121765Y-22381826D01*
X68102080Y-22448865D01*
X68049276Y-22494620D01*
X67980118Y-22504564D01*
X67916562Y-22475539D01*
X67894665Y-22450720D01*
X67877051Y-22424358D01*
X67799153Y-22372308D01*
X67799151Y-22372307D01*
X67799149Y-22372306D01*
X67730463Y-22358644D01*
X67730461Y-22358644D01*
X67314069Y-22358644D01*
X67314067Y-22358644D01*
X67245380Y-22372306D01*
X67245377Y-22372308D01*
X67167479Y-22424358D01*
X67132388Y-22476876D01*
X67125367Y-22487383D01*
X67071755Y-22532188D01*
X67002430Y-22540895D01*
X66939402Y-22510740D01*
X66919163Y-22487383D01*
X66912143Y-22476877D01*
X66877051Y-22424358D01*
X66799153Y-22372308D01*
X66799151Y-22372307D01*
X66799149Y-22372306D01*
X66730463Y-22358644D01*
X66730461Y-22358644D01*
X66314069Y-22358644D01*
X66314067Y-22358644D01*
X66245380Y-22372306D01*
X66245377Y-22372308D01*
X66167479Y-22424358D01*
X66132388Y-22476876D01*
X66132387Y-22476877D01*
X66078775Y-22521682D01*
X66009450Y-22530389D01*
X65946422Y-22500234D01*
X65927833Y-22473965D01*
X65925596Y-22475460D01*
X65918811Y-22465305D01*
X65865656Y-22385753D01*
X65786104Y-22332598D01*
X65786102Y-22332597D01*
X65786099Y-22332596D01*
X65715956Y-22318644D01*
X65715953Y-22318644D01*
X65328577Y-22318644D01*
X65328574Y-22318644D01*
X65258430Y-22332596D01*
X65258426Y-22332598D01*
X65178874Y-22385753D01*
X65125367Y-22465832D01*
X65071755Y-22510637D01*
X65002430Y-22519344D01*
X64939402Y-22489189D01*
X64919163Y-22465832D01*
X64904287Y-22443569D01*
X64865656Y-22385753D01*
X64786104Y-22332598D01*
X64786102Y-22332597D01*
X64786099Y-22332596D01*
X64715956Y-22318644D01*
X64715953Y-22318644D01*
X64328577Y-22318644D01*
X64328574Y-22318644D01*
X64258430Y-22332596D01*
X64258426Y-22332598D01*
X64178874Y-22385753D01*
X64118934Y-22475460D01*
X64115519Y-22473178D01*
X64085899Y-22509887D01*
X64019591Y-22531910D01*
X63951902Y-22514587D01*
X63912145Y-22476880D01*
X63877051Y-22424358D01*
X63799153Y-22372308D01*
X63799151Y-22372307D01*
X63799149Y-22372306D01*
X63730463Y-22358644D01*
X63730461Y-22358644D01*
X63314069Y-22358644D01*
X63314067Y-22358644D01*
X63245380Y-22372306D01*
X63245377Y-22372308D01*
X63167479Y-22424358D01*
X63115429Y-22502256D01*
X63115427Y-22502259D01*
X63101765Y-22570945D01*
X63101765Y-22570948D01*
X63101765Y-22887340D01*
X63101765Y-22887342D01*
X63101764Y-22887342D01*
X63115427Y-22956028D01*
X63115428Y-22956030D01*
X63115429Y-22956032D01*
X63167479Y-23033930D01*
X63245377Y-23085980D01*
X63245379Y-23085980D01*
X63245380Y-23085981D01*
X63314066Y-23099644D01*
X63314069Y-23099644D01*
X63587853Y-23099644D01*
X63654892Y-23119329D01*
X63675534Y-23135963D01*
X63863181Y-23323610D01*
X63896666Y-23384933D01*
X63899500Y-23411291D01*
X63899500Y-27188000D01*
X63879815Y-27255039D01*
X63827011Y-27300794D01*
X63775500Y-27312000D01*
X63502382Y-27312000D01*
X62868791Y-27312000D01*
X62789027Y-27312000D01*
X62789026Y-27312000D01*
X62777047Y-27314383D01*
X62776768Y-27312984D01*
X62748321Y-27318644D01*
X62388909Y-27318644D01*
X62321870Y-27298959D01*
X62276115Y-27246155D01*
X62266171Y-27176997D01*
X62290481Y-27123764D01*
X62288871Y-27122689D01*
X62295656Y-27112535D01*
X62348811Y-27032983D01*
X62362765Y-26962832D01*
X62362765Y-26575456D01*
X62362765Y-26575453D01*
X62362764Y-26575451D01*
X62348812Y-26505309D01*
X62348811Y-26505308D01*
X62348811Y-26505305D01*
X62313983Y-26453182D01*
X62293106Y-26386505D01*
X62309700Y-26322290D01*
X62348878Y-26254434D01*
X62348879Y-26254432D01*
X62372765Y-26165288D01*
X62372765Y-26073000D01*
X62348879Y-25983856D01*
X62343454Y-25974459D01*
X62302738Y-25903938D01*
X62302735Y-25903935D01*
X62302734Y-25903932D01*
X62237477Y-25838675D01*
X62237474Y-25838673D01*
X62237470Y-25838670D01*
X62157558Y-25792532D01*
X62157555Y-25792531D01*
X62157554Y-25792530D01*
X62157553Y-25792530D01*
X62068409Y-25768644D01*
X61976121Y-25768644D01*
X61886977Y-25792530D01*
X61886976Y-25792530D01*
X61886974Y-25792531D01*
X61886971Y-25792532D01*
X61807059Y-25838670D01*
X61807050Y-25838677D01*
X61741798Y-25903929D01*
X61741791Y-25903938D01*
X61695653Y-25983850D01*
X61695652Y-25983853D01*
X61671765Y-26073000D01*
X61671765Y-26165287D01*
X61695651Y-26254433D01*
X61701503Y-26264568D01*
X61717977Y-26332468D01*
X61695126Y-26398495D01*
X61676738Y-26416345D01*
X61677510Y-26417117D01*
X61668874Y-26425752D01*
X61615719Y-26505305D01*
X61615717Y-26505309D01*
X61601765Y-26575451D01*
X61601765Y-26962836D01*
X61615717Y-27032978D01*
X61615718Y-27032981D01*
X61615719Y-27032983D01*
X61664483Y-27105963D01*
X61675659Y-27122689D01*
X61672896Y-27124534D01*
X61696787Y-27168286D01*
X61691803Y-27237978D01*
X61649931Y-27293911D01*
X61584467Y-27318328D01*
X61575621Y-27318644D01*
X59857412Y-27318644D01*
X59849775Y-27316401D01*
X59841918Y-27317672D01*
X59816730Y-27306698D01*
X59790373Y-27298959D01*
X59783528Y-27292233D01*
X59777863Y-27289765D01*
X59754287Y-27263500D01*
X59753640Y-27262531D01*
X59732784Y-27195847D01*
X59732765Y-27193675D01*
X59732765Y-27163003D01*
X59732765Y-27163001D01*
X59708879Y-27073857D01*
X59703931Y-27065287D01*
X59692657Y-27045759D01*
X59692655Y-27045757D01*
X59662735Y-26993933D01*
X59107476Y-26438674D01*
X59107475Y-26438673D01*
X59107472Y-26438671D01*
X59027554Y-26392531D01*
X59027553Y-26392530D01*
X59027552Y-26392530D01*
X58938408Y-26368644D01*
X56636196Y-26368644D01*
X56547052Y-26392530D01*
X56547049Y-26392531D01*
X56467131Y-26438671D01*
X56467126Y-26438675D01*
X55224477Y-27681325D01*
X55163154Y-27714810D01*
X55136796Y-27717644D01*
X41977121Y-27717644D01*
X41896325Y-27739293D01*
X41896324Y-27739293D01*
X41887979Y-27741528D01*
X41887978Y-27741529D01*
X41808056Y-27787671D01*
X41808051Y-27787675D01*
X40026946Y-29568781D01*
X39965623Y-29602266D01*
X39895931Y-29597282D01*
X39839998Y-29555410D01*
X39815581Y-29489946D01*
X39815265Y-29481100D01*
X39815265Y-28943144D01*
X39812854Y-28920717D01*
X39801648Y-28869206D01*
X39778291Y-28822545D01*
X39778290Y-28822543D01*
X39739103Y-28777320D01*
X39732536Y-28769741D01*
X39732535Y-28769740D01*
X39703251Y-28750921D01*
X39682528Y-28737603D01*
X39663290Y-28731954D01*
X39615494Y-28717919D01*
X39615490Y-28717918D01*
X39615489Y-28717918D01*
X39585765Y-28713644D01*
X39585761Y-28713644D01*
X33601765Y-28713644D01*
X33534726Y-28693959D01*
X33488971Y-28641155D01*
X33477765Y-28589644D01*
X33477765Y-26873644D01*
X33480315Y-26864958D01*
X33479027Y-26855997D01*
X33490005Y-26831956D01*
X33497450Y-26806605D01*
X33504290Y-26800677D01*
X33508052Y-26792441D01*
X33530286Y-26778151D01*
X33550254Y-26760850D01*
X33560768Y-26758562D01*
X33566830Y-26754667D01*
X33601765Y-26749644D01*
X33747265Y-26749644D01*
X33777254Y-26749644D01*
X33844293Y-26769329D01*
X33869773Y-26794359D01*
X33870236Y-26793897D01*
X33878874Y-26802535D01*
X33958426Y-26855690D01*
X33958429Y-26855690D01*
X33958430Y-26855691D01*
X34028572Y-26869643D01*
X34028575Y-26869644D01*
X34028577Y-26869644D01*
X34415955Y-26869644D01*
X34415956Y-26869643D01*
X34486104Y-26855690D01*
X34565656Y-26802535D01*
X34565658Y-26802531D01*
X34574294Y-26793897D01*
X34575601Y-26795204D01*
X34617783Y-26759950D01*
X34667276Y-26749644D01*
X35434282Y-26749644D01*
X35501321Y-26769329D01*
X35547076Y-26822133D01*
X35557020Y-26891291D01*
X35555900Y-26897834D01*
X35546765Y-26943761D01*
X35546765Y-27194532D01*
X35558033Y-27251184D01*
X35558034Y-27251185D01*
X35558034Y-27251186D01*
X35558035Y-27251187D01*
X35600968Y-27315441D01*
X35665222Y-27358374D01*
X35665223Y-27358374D01*
X35665224Y-27358375D01*
X35721876Y-27369643D01*
X35721880Y-27369644D01*
X35721881Y-27369644D01*
X35947650Y-27369644D01*
X35947651Y-27369643D01*
X35966706Y-27365853D01*
X36004305Y-27358375D01*
X36004305Y-27358374D01*
X36004308Y-27358374D01*
X36068562Y-27315441D01*
X36111495Y-27251187D01*
X36113353Y-27241850D01*
X36120569Y-27205570D01*
X36122765Y-27194528D01*
X36122765Y-26943760D01*
X36118556Y-26922598D01*
X36111496Y-26887103D01*
X36111495Y-26887102D01*
X36111495Y-26887101D01*
X36068562Y-26822847D01*
X36068561Y-26822846D01*
X36063623Y-26815456D01*
X36042745Y-26748778D01*
X36061230Y-26681398D01*
X36061758Y-26680550D01*
X36068734Y-26669456D01*
X36071668Y-26666915D01*
X36103806Y-26616907D01*
X36105575Y-26610876D01*
X36111158Y-26602001D01*
X36111493Y-26601191D01*
X36111493Y-26601189D01*
X36111495Y-26601187D01*
X36116870Y-26574156D01*
X36119509Y-26563425D01*
X36123488Y-26549877D01*
X36123491Y-26549868D01*
X36127765Y-26520144D01*
X36127765Y-25693144D01*
X36125354Y-25670717D01*
X36114208Y-25619480D01*
X36114104Y-25619003D01*
X36119088Y-25549311D01*
X36160959Y-25493377D01*
X36226423Y-25468960D01*
X36235270Y-25468644D01*
X37087221Y-25468644D01*
X37116661Y-25477288D01*
X37146648Y-25483812D01*
X37151663Y-25487566D01*
X37154260Y-25488329D01*
X37174902Y-25504963D01*
X37268148Y-25598209D01*
X37301633Y-25659532D01*
X37303720Y-25688715D01*
X37304265Y-25688715D01*
X37304265Y-26644646D01*
X37306675Y-26667070D01*
X37312668Y-26694615D01*
X37317882Y-26718582D01*
X37338589Y-26759950D01*
X37340332Y-26763431D01*
X37352738Y-26832190D01*
X37337012Y-26875531D01*
X37337708Y-26875820D01*
X37333033Y-26887103D01*
X37321765Y-26943755D01*
X37321765Y-27194532D01*
X37333033Y-27251184D01*
X37333034Y-27251186D01*
X37333035Y-27251187D01*
X37333164Y-27251381D01*
X37333317Y-27251867D01*
X37337708Y-27262468D01*
X37336758Y-27262861D01*
X37354040Y-27318057D01*
X37335554Y-27385437D01*
X37334378Y-27387303D01*
X37328227Y-27396873D01*
X37328224Y-27396880D01*
X37308540Y-27463914D01*
X37308539Y-27463919D01*
X37308539Y-27463920D01*
X37305350Y-27486102D01*
X37304265Y-27493647D01*
X37304265Y-27790146D01*
X37306675Y-27812570D01*
X37317882Y-27864082D01*
X37323304Y-27874914D01*
X37328831Y-27891037D01*
X37333036Y-27901189D01*
X37342798Y-27915799D01*
X37375968Y-27965441D01*
X37440222Y-28008374D01*
X37440223Y-28008374D01*
X37440224Y-28008375D01*
X37494367Y-28019144D01*
X35384765Y-28019144D01*
X35384765Y-27294144D01*
X33734765Y-27294144D01*
X33734765Y-28644144D01*
X39709765Y-28644144D01*
X39732265Y-26822877D01*
X39536108Y-26822278D01*
X39565656Y-26802535D01*
X39565657Y-26802533D01*
X39569363Y-26800057D01*
X39576588Y-26793921D01*
X39581573Y-26790342D01*
X39617477Y-26769614D01*
X39635351Y-26751739D01*
X39643568Y-26745841D01*
X39648875Y-26743981D01*
X39660368Y-26735693D01*
X39706364Y-26712670D01*
X39759168Y-26666915D01*
X39791306Y-26616907D01*
X39791306Y-26616904D01*
X39794992Y-26608836D01*
X39795969Y-26609282D01*
X39822464Y-26564625D01*
X40452734Y-25934357D01*
X40498879Y-25854432D01*
X40509223Y-25815826D01*
X40522765Y-25765288D01*
X40522765Y-23673000D01*
X40498879Y-23583856D01*
X40498876Y-23583850D01*
X40452738Y-23503938D01*
X40452735Y-23503935D01*
X40452734Y-23503932D01*
X40387477Y-23438675D01*
X39436185Y-22487383D01*
X38469084Y-21520281D01*
X38435599Y-21458958D01*
X38432765Y-21432600D01*
X38432765Y-20643643D01*
X38452450Y-20576604D01*
X38505254Y-20530849D01*
X38556765Y-20519643D01*
X38942160Y-20519643D01*
X38942163Y-20519643D01*
X38971478Y-20513813D01*
X39004722Y-20491601D01*
X39026934Y-20458357D01*
X39032765Y-20429043D01*
X39032764Y-19103312D01*
X60866765Y-19103312D01*
X60866765Y-19734975D01*
X60870359Y-19762273D01*
X60904436Y-19889447D01*
X60914971Y-19914881D01*
X60914977Y-19914893D01*
X60980798Y-20028899D01*
X60997566Y-20050751D01*
X60997570Y-20050756D01*
X61090652Y-20143838D01*
X61090657Y-20143842D01*
X61090658Y-20143843D01*
X61112508Y-20160609D01*
X61185158Y-20202553D01*
X61233372Y-20253117D01*
X61237717Y-20262484D01*
X61259901Y-20316041D01*
X62824901Y-21881041D01*
X62895368Y-21951508D01*
X62987437Y-21989644D01*
X63093517Y-21989644D01*
X63160556Y-22009329D01*
X63162407Y-22010542D01*
X63231131Y-22056461D01*
X63245377Y-22065980D01*
X63245378Y-22065980D01*
X63245380Y-22065981D01*
X63314066Y-22079644D01*
X63314069Y-22079644D01*
X63730463Y-22079644D01*
X63799149Y-22065981D01*
X63799149Y-22065980D01*
X63799153Y-22065980D01*
X63877051Y-22013930D01*
X63929101Y-21936032D01*
X63942765Y-21867340D01*
X63942765Y-21550948D01*
X63942765Y-21550945D01*
X63929102Y-21482259D01*
X63929101Y-21482258D01*
X63929101Y-21482256D01*
X63877051Y-21404358D01*
X63799153Y-21352308D01*
X63799151Y-21352307D01*
X63799149Y-21352306D01*
X63730463Y-21338644D01*
X63730461Y-21338644D01*
X63314069Y-21338644D01*
X63314067Y-21338644D01*
X63245380Y-21352306D01*
X63245375Y-21352308D01*
X63185707Y-21392177D01*
X63119030Y-21413054D01*
X63051650Y-21394569D01*
X63029137Y-21376755D01*
X62059248Y-20406866D01*
X62025763Y-20345543D01*
X62030747Y-20275851D01*
X62046614Y-20246295D01*
X62057611Y-20231158D01*
X62057616Y-20231155D01*
X62077765Y-20169144D01*
X62077765Y-18669144D01*
X62072601Y-18636543D01*
X62034276Y-18583793D01*
X62034275Y-18583792D01*
X61972266Y-18563644D01*
X61972265Y-18563644D01*
X61406439Y-18563644D01*
X61406433Y-18563644D01*
X61379135Y-18567238D01*
X61251961Y-18601315D01*
X61226527Y-18611850D01*
X61226515Y-18611856D01*
X61112509Y-18677677D01*
X61090657Y-18694445D01*
X61090652Y-18694449D01*
X60997570Y-18787531D01*
X60997566Y-18787536D01*
X60980798Y-18809388D01*
X60914977Y-18923394D01*
X60914971Y-18923406D01*
X60904436Y-18948840D01*
X60870359Y-19076014D01*
X60866765Y-19103312D01*
X39032764Y-19103312D01*
X39032764Y-18709246D01*
X39026934Y-18679931D01*
X39020722Y-18670633D01*
X39004722Y-18646686D01*
X38971479Y-18624476D01*
X38971480Y-18624476D01*
X38971478Y-18624475D01*
X38971476Y-18624474D01*
X38971473Y-18624473D01*
X38942166Y-18618644D01*
X37222370Y-18618644D01*
X37222362Y-18618645D01*
X37193052Y-18624474D01*
X37159807Y-18646686D01*
X37137597Y-18679929D01*
X37137594Y-18679935D01*
X37131765Y-18709242D01*
X37131765Y-20429038D01*
X37131766Y-20429046D01*
X37137595Y-20458356D01*
X37159807Y-20491601D01*
X37176484Y-20502743D01*
X37193052Y-20513813D01*
X37193055Y-20513813D01*
X37193056Y-20513814D01*
X37202912Y-20515774D01*
X37222366Y-20519644D01*
X37607765Y-20519643D01*
X37674804Y-20539327D01*
X37720559Y-20592131D01*
X37731765Y-20643643D01*
X37731765Y-21675288D01*
X37752629Y-21753155D01*
X37755651Y-21764432D01*
X37801794Y-21844354D01*
X37801796Y-21844357D01*
X39785446Y-23828006D01*
X39818931Y-23889329D01*
X39821765Y-23915687D01*
X39821765Y-25362841D01*
X39802080Y-25429880D01*
X39749276Y-25475635D01*
X39680118Y-25485579D01*
X39662830Y-25481818D01*
X39615498Y-25467920D01*
X39615493Y-25467919D01*
X39615489Y-25467918D01*
X39585765Y-25463644D01*
X39585761Y-25463644D01*
X38176309Y-25463644D01*
X38109270Y-25443959D01*
X38088628Y-25427325D01*
X37498978Y-24837675D01*
X37498973Y-24837671D01*
X37419055Y-24791531D01*
X37419054Y-24791530D01*
X37419053Y-24791530D01*
X37329909Y-24767644D01*
X31489621Y-24767644D01*
X31421816Y-24785812D01*
X31421815Y-24785811D01*
X31400479Y-24791529D01*
X31400474Y-24791531D01*
X31320556Y-24837671D01*
X31320551Y-24837675D01*
X30554296Y-25603930D01*
X30554292Y-25603935D01*
X30519950Y-25663419D01*
X30508152Y-25683854D01*
X30508151Y-25683855D01*
X30484265Y-25773000D01*
X30484265Y-26474644D01*
X30464580Y-26541683D01*
X30411776Y-26587438D01*
X30360265Y-26598644D01*
X30274067Y-26598644D01*
X30205380Y-26612306D01*
X30205377Y-26612308D01*
X30127479Y-26664358D01*
X30075429Y-26742256D01*
X30075427Y-26742259D01*
X30061765Y-26810945D01*
X30061765Y-26810948D01*
X30061765Y-27227340D01*
X30061765Y-27227342D01*
X30061764Y-27227342D01*
X30075427Y-27296028D01*
X30075428Y-27296030D01*
X30075429Y-27296032D01*
X30127479Y-27373930D01*
X30205377Y-27425980D01*
X30205379Y-27425980D01*
X30205380Y-27425981D01*
X30274066Y-27439644D01*
X30274069Y-27439644D01*
X30590463Y-27439644D01*
X30659149Y-27425981D01*
X30659149Y-27425980D01*
X30659153Y-27425980D01*
X30712189Y-27390541D01*
X30778867Y-27369664D01*
X30781080Y-27369644D01*
X30880907Y-27369644D01*
X30880909Y-27369644D01*
X30970053Y-27345758D01*
X31049977Y-27299613D01*
X31115234Y-27234356D01*
X31161379Y-27154432D01*
X31185265Y-27065288D01*
X31185265Y-26015688D01*
X31204950Y-25948649D01*
X31221584Y-25928007D01*
X31644628Y-25504963D01*
X31705951Y-25471478D01*
X31732309Y-25468644D01*
X32362586Y-25468644D01*
X32429625Y-25488329D01*
X32475380Y-25541133D01*
X32485545Y-25608678D01*
X32484292Y-25618284D01*
X32471039Y-25663420D01*
X32466765Y-25693144D01*
X32466765Y-25752694D01*
X32465724Y-25760678D01*
X32454745Y-25785577D01*
X32447080Y-25811683D01*
X32440858Y-25817074D01*
X32437536Y-25824609D01*
X32414837Y-25839620D01*
X32394276Y-25857438D01*
X32384772Y-25859505D01*
X32379259Y-25863152D01*
X32367287Y-25863309D01*
X32342765Y-25868644D01*
X32326121Y-25868644D01*
X32241074Y-25891432D01*
X32241073Y-25891432D01*
X32236975Y-25892529D01*
X32157059Y-25938670D01*
X32157050Y-25938677D01*
X31691796Y-26403930D01*
X31691792Y-26403935D01*
X31645652Y-26483853D01*
X31645651Y-26483856D01*
X31621765Y-26573000D01*
X31621765Y-28972600D01*
X31602080Y-29039639D01*
X31585446Y-29060281D01*
X31013402Y-29632325D01*
X30986474Y-29647028D01*
X30960656Y-29663621D01*
X30954455Y-29664512D01*
X30952079Y-29665810D01*
X30925721Y-29668644D01*
X30743580Y-29668644D01*
X30676541Y-29648959D01*
X30674689Y-29647746D01*
X30621653Y-29612308D01*
X30621651Y-29612307D01*
X30621649Y-29612306D01*
X30552963Y-29598644D01*
X30552961Y-29598644D01*
X30236569Y-29598644D01*
X30236567Y-29598644D01*
X30167880Y-29612306D01*
X30167877Y-29612308D01*
X30089979Y-29664358D01*
X30037929Y-29742256D01*
X30037927Y-29742259D01*
X30024265Y-29810945D01*
X30024265Y-29810948D01*
X30024265Y-30227340D01*
X30024265Y-30227342D01*
X30024264Y-30227342D01*
X29745265Y-30227342D01*
X29745265Y-29810945D01*
X29731602Y-29742259D01*
X29731601Y-29742258D01*
X29731601Y-29742256D01*
X29679551Y-29664358D01*
X29601653Y-29612308D01*
X29601651Y-29612307D01*
X29601649Y-29612306D01*
X29532963Y-29598644D01*
X29532961Y-29598644D01*
X29216569Y-29598644D01*
X29216567Y-29598644D01*
X29147880Y-29612306D01*
X29147878Y-29612307D01*
X29094839Y-29647747D01*
X29028162Y-29668624D01*
X29025949Y-29668644D01*
X28028316Y-29668644D01*
X27961277Y-29648959D01*
X27915934Y-29597050D01*
X27906564Y-29576955D01*
X27826954Y-29497345D01*
X27799219Y-29484412D01*
X27724919Y-29449765D01*
X27724918Y-29449764D01*
X27678424Y-29443644D01*
X27166112Y-29443644D01*
X27151373Y-29445584D01*
X27119612Y-29449765D01*
X27119610Y-29449766D01*
X27119608Y-29449766D01*
X27017575Y-29497345D01*
X26937966Y-29576954D01*
X26890386Y-29678989D01*
X26890385Y-29678990D01*
X26884265Y-29725484D01*
X19360765Y-29725484D01*
X19360765Y-26725484D01*
X26921765Y-26725484D01*
X26921765Y-27312796D01*
X26921766Y-27312802D01*
X26927886Y-27359297D01*
X26927887Y-27359299D01*
X26927887Y-27359300D01*
X26952928Y-27413000D01*
X26975466Y-27461333D01*
X27055076Y-27540943D01*
X27146570Y-27583607D01*
X27157110Y-27588522D01*
X27157111Y-27588523D01*
X27163232Y-27589328D01*
X27203606Y-27594644D01*
X27715923Y-27594643D01*
X27762418Y-27588523D01*
X27864454Y-27540943D01*
X27944064Y-27461333D01*
X27953434Y-27441237D01*
X27999607Y-27388800D01*
X28065816Y-27369644D01*
X29063450Y-27369644D01*
X29130489Y-27389329D01*
X29132316Y-27390525D01*
X29185377Y-27425980D01*
X29185379Y-27425980D01*
X29185380Y-27425981D01*
X29254066Y-27439644D01*
X29254069Y-27439644D01*
X29570463Y-27439644D01*
X29639149Y-27425981D01*
X29639149Y-27425980D01*
X29639153Y-27425980D01*
X29717051Y-27373930D01*
X29769101Y-27296032D01*
X29769102Y-27296028D01*
X29782765Y-27227342D01*
X29782765Y-26810945D01*
X29769102Y-26742259D01*
X29769101Y-26742258D01*
X29769101Y-26742256D01*
X29717051Y-26664358D01*
X29639153Y-26612308D01*
X29639151Y-26612307D01*
X29639149Y-26612306D01*
X29570463Y-26598644D01*
X29570461Y-26598644D01*
X29254069Y-26598644D01*
X29254067Y-26598644D01*
X29185380Y-26612306D01*
X29185378Y-26612307D01*
X29132339Y-26647747D01*
X29065662Y-26668624D01*
X29063449Y-26668644D01*
X28065816Y-26668644D01*
X27998777Y-26648959D01*
X27953434Y-26597050D01*
X27948952Y-26587438D01*
X27944064Y-26576955D01*
X27864454Y-26497345D01*
X27762419Y-26449765D01*
X27762418Y-26449764D01*
X27715924Y-26443644D01*
X27203612Y-26443644D01*
X27188873Y-26445584D01*
X27157112Y-26449765D01*
X27157110Y-26449766D01*
X27157108Y-26449766D01*
X27055075Y-26497345D01*
X26975466Y-26576954D01*
X26927886Y-26678989D01*
X26927885Y-26678990D01*
X26921765Y-26725484D01*
X19360765Y-26725484D01*
X19360765Y-20047117D01*
X20871765Y-20047117D01*
X20871765Y-20291170D01*
X20909726Y-20530849D01*
X20909944Y-20532220D01*
X20985361Y-20764329D01*
X21095515Y-20980520D01*
X21096161Y-20981786D01*
X21239604Y-21179220D01*
X21239608Y-21179225D01*
X21412183Y-21351800D01*
X21412188Y-21351804D01*
X21521833Y-21431465D01*
X21609626Y-21495250D01*
X21827080Y-21606048D01*
X22059189Y-21681465D01*
X22300238Y-21719644D01*
X22300239Y-21719644D01*
X22544291Y-21719644D01*
X22544292Y-21719644D01*
X22785341Y-21681465D01*
X23017450Y-21606048D01*
X23234904Y-21495250D01*
X23432348Y-21351799D01*
X23604920Y-21179227D01*
X23748371Y-20981783D01*
X23859169Y-20764329D01*
X23934586Y-20532220D01*
X23972765Y-20291171D01*
X23972765Y-20047117D01*
X23934586Y-19806068D01*
X23859169Y-19573959D01*
X23748371Y-19356505D01*
X23649726Y-19220731D01*
X23604925Y-19159067D01*
X23604921Y-19159062D01*
X23432346Y-18986487D01*
X23432341Y-18986483D01*
X23234907Y-18843040D01*
X23234906Y-18843039D01*
X23234904Y-18843038D01*
X23017450Y-18732240D01*
X22785341Y-18656823D01*
X22785339Y-18656822D01*
X22785337Y-18656822D01*
X22581113Y-18624476D01*
X22544292Y-18618644D01*
X22300238Y-18618644D01*
X22263423Y-18624475D01*
X22059192Y-18656822D01*
X21827077Y-18732241D01*
X21609622Y-18843040D01*
X21412188Y-18986483D01*
X21412183Y-18986487D01*
X21239608Y-19159062D01*
X21239604Y-19159067D01*
X21096161Y-19356501D01*
X20985362Y-19573956D01*
X20985361Y-19573958D01*
X20985361Y-19573959D01*
X20971710Y-19615973D01*
X20909943Y-19806071D01*
X20871765Y-20047117D01*
X19360765Y-20047117D01*
X19360765Y-17243917D01*
X65311765Y-17243917D01*
X65311765Y-17893917D01*
X65311765Y-17999371D01*
X65339058Y-18101231D01*
X65391785Y-18192557D01*
X65466352Y-18267124D01*
X65557678Y-18319851D01*
X65659538Y-18347144D01*
X65659540Y-18347144D01*
X66084990Y-18347144D01*
X66084992Y-18347144D01*
X66186852Y-18319851D01*
X66278178Y-18267124D01*
X66352745Y-18192557D01*
X66405472Y-18101231D01*
X66432765Y-17999371D01*
X66432765Y-17896421D01*
X66452450Y-17829382D01*
X66505254Y-17783627D01*
X66574412Y-17773683D01*
X66628834Y-17798536D01*
X66629651Y-17797315D01*
X66637192Y-17802354D01*
X66637968Y-17802708D01*
X66638591Y-17803288D01*
X66639808Y-17804101D01*
X66673052Y-17826313D01*
X66673055Y-17826313D01*
X66673056Y-17826314D01*
X66682912Y-17828274D01*
X66702366Y-17832144D01*
X66942163Y-17832143D01*
X66971478Y-17826313D01*
X66971485Y-17826308D01*
X66974807Y-17824933D01*
X66982674Y-17824086D01*
X66983458Y-17823931D01*
X66983471Y-17824001D01*
X67044276Y-17817461D01*
X67069725Y-17824934D01*
X67073047Y-17826310D01*
X67073052Y-17826313D01*
X67102366Y-17832144D01*
X67342163Y-17832143D01*
X67371478Y-17826313D01*
X67371485Y-17826308D01*
X67374807Y-17824933D01*
X67382674Y-17824086D01*
X67383458Y-17823931D01*
X67383471Y-17824001D01*
X67444276Y-17817461D01*
X67469725Y-17824934D01*
X67473047Y-17826310D01*
X67473052Y-17826313D01*
X67502366Y-17832144D01*
X67742163Y-17832143D01*
X67771478Y-17826313D01*
X67804722Y-17804101D01*
X67826934Y-17770857D01*
X67832765Y-17741543D01*
X67832764Y-17246746D01*
X67826934Y-17217431D01*
X67811881Y-17194901D01*
X67804722Y-17184186D01*
X67774940Y-17164288D01*
X67771478Y-17161975D01*
X67771476Y-17161974D01*
X67771473Y-17161973D01*
X67742166Y-17156144D01*
X67502370Y-17156144D01*
X67502362Y-17156145D01*
X67473054Y-17161974D01*
X67469713Y-17163358D01*
X67461841Y-17164203D01*
X67461072Y-17164357D01*
X67461058Y-17164288D01*
X67400243Y-17170824D01*
X67374808Y-17163355D01*
X67371473Y-17161973D01*
X67342166Y-17156144D01*
X67102370Y-17156144D01*
X67102362Y-17156145D01*
X67073054Y-17161974D01*
X67069713Y-17163358D01*
X67061841Y-17164203D01*
X67061072Y-17164357D01*
X67061058Y-17164288D01*
X67000243Y-17170824D01*
X66974808Y-17163355D01*
X66971473Y-17161973D01*
X66942166Y-17156144D01*
X66702370Y-17156144D01*
X66702362Y-17156145D01*
X66673052Y-17161974D01*
X66639807Y-17184186D01*
X66632649Y-17194901D01*
X66579037Y-17239706D01*
X66509712Y-17248414D01*
X66446684Y-17218260D01*
X66409965Y-17158818D01*
X66409771Y-17158102D01*
X66409247Y-17156145D01*
X66405472Y-17142057D01*
X66352745Y-17050731D01*
X66278178Y-16976164D01*
X66186852Y-16923437D01*
X66084992Y-16896144D01*
X65764992Y-16896144D01*
X65659538Y-16896144D01*
X65557678Y-16923437D01*
X65557675Y-16923438D01*
X65466350Y-16976165D01*
X65391786Y-17050729D01*
X65339059Y-17142054D01*
X65339058Y-17142057D01*
X65311765Y-17243917D01*
X19360765Y-17243917D01*
X19360765Y-16443644D01*
X19380450Y-16376605D01*
X19433254Y-16330850D01*
X19484765Y-16319644D01*
X104159765Y-16319644D01*
X104226804Y-16339329D01*
G37*
%TD.AperFunction*%
%TD*%
M02*
