%TF.GenerationSoftware,KiCad,Pcbnew,9.0.3*%
%TF.CreationDate,2025-12-12T23:43:23+00:00*%
%TF.ProjectId,FPSP Camera,46505350-2043-4616-9d65-72612e6b6963,rev?*%
%TF.SameCoordinates,Original*%
%TF.FileFunction,Copper,L4,Bot*%
%TF.FilePolarity,Positive*%
%FSLAX46Y46*%
G04 Gerber Fmt 4.6, Leading zero omitted, Abs format (unit mm)*
G04 Created by KiCad (PCBNEW 9.0.3) date 2025-12-12 23:43:23*
%MOMM*%
%LPD*%
G01*
G04 APERTURE LIST*
G04 Aperture macros list*
%AMRoundRect*
0 Rectangle with rounded corners*
0 $1 Rounding radius*
0 $2 $3 $4 $5 $6 $7 $8 $9 X,Y pos of 4 corners*
0 Add a 4 corners polygon primitive as box body*
4,1,4,$2,$3,$4,$5,$6,$7,$8,$9,$2,$3,0*
0 Add four circle primitives for the rounded corners*
1,1,$1+$1,$2,$3*
1,1,$1+$1,$4,$5*
1,1,$1+$1,$6,$7*
1,1,$1+$1,$8,$9*
0 Add four rect primitives between the rounded corners*
20,1,$1+$1,$2,$3,$4,$5,0*
20,1,$1+$1,$4,$5,$6,$7,0*
20,1,$1+$1,$6,$7,$8,$9,0*
20,1,$1+$1,$8,$9,$2,$3,0*%
G04 Aperture macros list end*
%TA.AperFunction,SMDPad,CuDef*%
%ADD10R,0.800000X0.300000*%
%TD*%
%TA.AperFunction,SMDPad,CuDef*%
%ADD11RoundRect,0.337688X1.212312X-0.787937X1.212312X0.787937X-1.212312X0.787937X-1.212312X-0.787937X0*%
%TD*%
%TA.AperFunction,SMDPad,CuDef*%
%ADD12RoundRect,0.337688X1.181062X-0.787937X1.181062X0.787937X-1.181062X0.787937X-1.181062X-0.787937X0*%
%TD*%
%TA.AperFunction,ComponentPad*%
%ADD13C,0.600000*%
%TD*%
%TA.AperFunction,ComponentPad*%
%ADD14R,1.700000X1.700000*%
%TD*%
%TA.AperFunction,ComponentPad*%
%ADD15C,1.700000*%
%TD*%
%TA.AperFunction,ViaPad*%
%ADD16C,0.450000*%
%TD*%
%TA.AperFunction,ViaPad*%
%ADD17C,0.600000*%
%TD*%
%TA.AperFunction,Conductor*%
%ADD18C,0.300000*%
%TD*%
%TA.AperFunction,Conductor*%
%ADD19C,0.400000*%
%TD*%
%TA.AperFunction,Conductor*%
%ADD20C,0.200000*%
%TD*%
%TA.AperFunction,Conductor*%
%ADD21C,0.500000*%
%TD*%
%TA.AperFunction,Conductor*%
%ADD22C,0.150000*%
%TD*%
G04 APERTURE END LIST*
D10*
%TO.P,J1,1,Pin_1*%
%TO.N,unconnected-(J1-Pin_1-Pad1)*%
X77091015Y-35794769D03*
%TO.P,J1,2,Pin_2*%
%TO.N,AGND*%
X77091015Y-35294769D03*
%TO.P,J1,3,Pin_3*%
%TO.N,SDA_cam_1*%
X77091015Y-34794769D03*
%TO.P,J1,4,Pin_4*%
%TO.N,+2V8*%
X77091015Y-34294769D03*
%TO.P,J1,5,Pin_5*%
%TO.N,SCL_cam_1*%
X77091015Y-33794769D03*
%TO.P,J1,6,Pin_6*%
%TO.N,~{RESET_1}*%
X77091015Y-33294769D03*
%TO.P,J1,7,Pin_7*%
%TO.N,VSYNC_1*%
X77091015Y-32794769D03*
%TO.P,J1,8,Pin_8*%
%TO.N,PWDN_1*%
X77091015Y-32294769D03*
%TO.P,J1,9,Pin_9*%
%TO.N,HSYNC_1*%
X77091015Y-31794769D03*
%TO.P,J1,10,Pin_10*%
%TO.N,+1V5*%
X77091015Y-31294769D03*
%TO.P,J1,11,Pin_11*%
%TO.N,+3.3V*%
X77091015Y-30794769D03*
%TO.P,J1,12,Pin_12*%
%TO.N,DATA9_1*%
X77091015Y-30294769D03*
%TO.P,J1,13,Pin_13*%
%TO.N,/XCLK*%
X77091015Y-29794769D03*
%TO.P,J1,14,Pin_14*%
%TO.N,DATA8_1*%
X77091015Y-29294769D03*
%TO.P,J1,15,Pin_15*%
%TO.N,DGND*%
X77091015Y-28794769D03*
%TO.P,J1,16,Pin_16*%
%TO.N,DATA7_1*%
X77091015Y-28294769D03*
%TO.P,J1,17,Pin_17*%
%TO.N,PCLK_1*%
X77091015Y-27794769D03*
%TO.P,J1,18,Pin_18*%
%TO.N,DATA6_1*%
X77091015Y-27294769D03*
%TO.P,J1,19,Pin_19*%
%TO.N,DATA2_1*%
X77091015Y-26794769D03*
%TO.P,J1,20,Pin_20*%
%TO.N,DATA5_1*%
X77091015Y-26294769D03*
%TO.P,J1,21,Pin_21*%
%TO.N,DATA3_1*%
X77091015Y-25794769D03*
%TO.P,J1,22,Pin_22*%
%TO.N,DATA4_1*%
X77091015Y-25294769D03*
%TO.P,J1,23,Pin_23*%
%TO.N,DATA1_1*%
X77091015Y-24794769D03*
%TO.P,J1,24,Pin_24*%
%TO.N,DATA0_1*%
X77091015Y-24294769D03*
D11*
%TO.P,J1,MP*%
%TO.N,AGND*%
X75141015Y-38170394D03*
D12*
X75172265Y-21919144D03*
%TD*%
D13*
%TO.P,U3,61,GND*%
%TO.N,AGND*%
X65525000Y-28937500D03*
X65525000Y-30312500D03*
X65525000Y-31687500D03*
X66900000Y-28937500D03*
X66900000Y-30312500D03*
X66900000Y-31687500D03*
X68275000Y-28937500D03*
X68275000Y-30312500D03*
X68275000Y-31687500D03*
%TD*%
D14*
%TO.P,J7,1,Pin_1*%
%TO.N,+5V*%
X38082265Y-19569144D03*
D15*
%TO.P,J7,2,Pin_2*%
%TO.N,AGND*%
X40622265Y-19569144D03*
%TD*%
D16*
%TO.N,+3.3V*%
X61901420Y-31291968D03*
D17*
X78422265Y-30519144D03*
X83123265Y-30369144D03*
X61422265Y-33519144D03*
%TO.N,+1V1*%
X61830381Y-29712500D03*
X66922265Y-32512500D03*
X69100000Y-30322211D03*
X68392266Y-23889145D03*
X66700000Y-34905276D03*
D16*
X62022265Y-26119144D03*
D17*
X72046292Y-29712500D03*
X66924784Y-28112500D03*
X64700000Y-30364129D03*
%TO.N,AGND*%
X60422265Y-26819144D03*
X36772265Y-33069144D03*
X65022265Y-21419144D03*
X70311265Y-26012461D03*
X36747265Y-37494144D03*
X35172265Y-28169144D03*
X67322265Y-39319144D03*
X71511265Y-25669144D03*
X35722265Y-37269144D03*
X63572265Y-17969144D03*
X36722265Y-25919144D03*
D16*
X79322265Y-36019144D03*
D17*
X69722265Y-24219144D03*
X57822265Y-27519144D03*
X75422265Y-43069144D03*
X34072265Y-28069144D03*
X80902265Y-31419144D03*
X55022265Y-28819144D03*
X65417755Y-39123654D03*
X35772265Y-32669144D03*
X57322265Y-34019144D03*
X81472265Y-27919144D03*
D16*
%TO.N,PCLK_1*%
X72332265Y-24911450D03*
X79422265Y-27919144D03*
D17*
X71282428Y-28779307D03*
D16*
%TO.N,~{RESET_1}*%
X79422265Y-33269141D03*
X61272265Y-35508574D03*
D17*
%TO.N,+1V5*%
X33022265Y-38569144D03*
X78522265Y-31539144D03*
%TO.N,+2V8*%
X34572265Y-33519144D03*
D16*
X76391171Y-34319144D03*
D17*
X75872265Y-41669144D03*
D16*
%TO.N,SWCLK_1*%
X85972265Y-27519144D03*
X67972265Y-20669144D03*
D17*
%TO.N,DATA1_1*%
X78422265Y-24819144D03*
D16*
%TO.N,SCL_cam_1*%
X79422265Y-33919144D03*
X61824336Y-36087651D03*
%TO.N,/XCLK*%
X79422265Y-29919144D03*
%TO.N,PWDN_1*%
X79252137Y-32219558D03*
D17*
%TO.N,/XIN_mem1*%
X75972265Y-40519144D03*
X66919167Y-40010169D03*
D16*
%TO.N,SDA_cam_1*%
X62422265Y-36619144D03*
X79422265Y-34919144D03*
%TO.N,DGND*%
X84172265Y-35269144D03*
%TO.N,INT_XCLK*%
X73140915Y-23987794D03*
X72722265Y-28512500D03*
%TO.N,EXT_XCLK_1*%
X72332265Y-24111447D03*
X69526033Y-35015376D03*
%TO.N,DATA9_1*%
X69391302Y-35651262D03*
%TO.N,DATA3_1*%
X72634613Y-31237500D03*
%TO.N,DATA2_1*%
X72622265Y-32288500D03*
%TO.N,DATA5_1*%
X72122265Y-31637500D03*
%TO.N,HSYNC_1*%
X69342000Y-36419144D03*
%TO.N,DATA8_1*%
X73122265Y-33944144D03*
%TO.N,DATA6_1*%
X73122265Y-32813500D03*
%TO.N,DATA4_1*%
X73146962Y-30837500D03*
%TO.N,VSYNC_1*%
X62518347Y-30987500D03*
%TO.N,DATA7_1*%
X73522265Y-33338500D03*
%TD*%
D18*
%TO.N,+3.3V*%
X78122265Y-30819144D02*
X78422265Y-30519144D01*
D19*
X78448265Y-30545144D02*
X79793536Y-30545144D01*
X78422265Y-30519144D02*
X78448265Y-30545144D01*
X80321537Y-30017144D02*
X82771265Y-30017144D01*
X82771265Y-30017144D02*
X83123265Y-30369144D01*
D20*
X61901420Y-31291968D02*
X61899441Y-31291968D01*
X61899441Y-31291968D02*
X61422265Y-31769144D01*
D18*
X77182265Y-30819144D02*
X78122265Y-30819144D01*
D19*
X79793536Y-30545144D02*
X80321537Y-30017144D01*
D20*
X61422265Y-31769144D02*
X61422265Y-33519144D01*
D21*
%TO.N,+1V1*%
X66586132Y-34905276D02*
X66272265Y-34591409D01*
X68022265Y-24259146D02*
X68022265Y-26219144D01*
X64255015Y-29919144D02*
X64700000Y-30364129D01*
D19*
X71968943Y-29819144D02*
X71468943Y-30319144D01*
D20*
X72046293Y-29712501D02*
X72046293Y-29749816D01*
D19*
X72115621Y-29819144D02*
X71968943Y-29819144D01*
D20*
X61830381Y-29712500D02*
X61830381Y-29709558D01*
D21*
X68392266Y-23889145D02*
X68022265Y-24259146D01*
X61830381Y-29720616D02*
X62028909Y-29919144D01*
D19*
X71468943Y-30319144D02*
X69103067Y-30319144D01*
D21*
X68022265Y-26219144D02*
X66924784Y-27316625D01*
D20*
X62022265Y-29517674D02*
X62022265Y-26119144D01*
D21*
X66700000Y-34905276D02*
X66586132Y-34905276D01*
X62028909Y-29919144D02*
X64255015Y-29919144D01*
X61830381Y-29712500D02*
X61830381Y-29720616D01*
D20*
X72046293Y-29749816D02*
X72115621Y-29819144D01*
D21*
X66272265Y-34591409D02*
X66272265Y-33162500D01*
D20*
X61830381Y-29709558D02*
X62022265Y-29517674D01*
D21*
X66272265Y-33162500D02*
X66922265Y-32512500D01*
D20*
X72046292Y-29712500D02*
X72046293Y-29712501D01*
D21*
X66924784Y-27316625D02*
X66924784Y-28112500D01*
D19*
X69103067Y-30319144D02*
X69100000Y-30322211D01*
D20*
%TO.N,AGND*%
X77072265Y-35319144D02*
X78622265Y-35319144D01*
X78622265Y-35319144D02*
X79322265Y-36019144D01*
%TO.N,PCLK_1*%
X79322265Y-27819144D02*
X79422265Y-27919144D01*
X72112265Y-25420201D02*
X72332265Y-25200201D01*
X77072265Y-27819144D02*
X79322265Y-27819144D01*
X71322265Y-28754553D02*
X71322265Y-26708087D01*
X72112265Y-25918087D02*
X72112265Y-25420201D01*
X71347019Y-28779307D02*
X71322265Y-28754553D01*
X72332265Y-25200201D02*
X72332265Y-24911450D01*
X71282428Y-28779307D02*
X71347019Y-28779307D01*
X71322265Y-26708087D02*
X72112265Y-25918087D01*
D22*
%TO.N,~{RESET_1}*%
X75841337Y-33319144D02*
X77182265Y-33319144D01*
X61270090Y-35510749D02*
X61630660Y-35510749D01*
X71658431Y-35522144D02*
X74032695Y-35522144D01*
X65389023Y-35019144D02*
X67939023Y-37569144D01*
D20*
X79372262Y-33319144D02*
X79422265Y-33269141D01*
D22*
X75427265Y-33733218D02*
X75841337Y-33319144D01*
D20*
X77072265Y-33319144D02*
X79372262Y-33319144D01*
D22*
X74032695Y-35522144D02*
X75427265Y-34127574D01*
X69611431Y-37569144D02*
X71658431Y-35522144D01*
X75427265Y-34127574D02*
X75427265Y-33733218D01*
X62122265Y-35019144D02*
X65389023Y-35019144D01*
X67939023Y-37569144D02*
X69611431Y-37569144D01*
X61630660Y-35510749D02*
X62122265Y-35019144D01*
D20*
%TO.N,+1V5*%
X78482265Y-31539144D02*
X78262265Y-31319144D01*
D21*
X79720190Y-31539144D02*
X78522265Y-31539144D01*
D20*
X78522265Y-31539144D02*
X78482265Y-31539144D01*
D21*
X80591190Y-30668144D02*
X79720190Y-31539144D01*
X36347265Y-42319144D02*
X76372265Y-42319144D01*
X82472265Y-36219144D02*
X82472265Y-31369144D01*
X82472265Y-31369144D02*
X81771265Y-30668144D01*
D20*
X78262265Y-31319144D02*
X77182265Y-31319144D01*
D21*
X33022265Y-38994144D02*
X36347265Y-42319144D01*
X81771265Y-30668144D02*
X80591190Y-30668144D01*
X76372265Y-42319144D02*
X82472265Y-36219144D01*
X33022265Y-38569144D02*
X33022265Y-38994144D01*
D22*
%TO.N,+2V8*%
X77182265Y-34319144D02*
X76391171Y-34319144D01*
D21*
X34572265Y-38169144D02*
X34572265Y-33519144D01*
X75872265Y-41669144D02*
X74972265Y-40769144D01*
X74972265Y-40769144D02*
X37172265Y-40769144D01*
X37172265Y-40769144D02*
X34572265Y-38169144D01*
D22*
%TO.N,SWCLK_1*%
X84672265Y-20669144D02*
X85972265Y-21969144D01*
D20*
X69838286Y-20119144D02*
X69288286Y-20669144D01*
D22*
X85972265Y-21969144D02*
X85972265Y-27519144D01*
D20*
X84122265Y-20119144D02*
X69838286Y-20119144D01*
X84672265Y-20669144D02*
X84122265Y-20119144D01*
X69288286Y-20669144D02*
X67972265Y-20669144D01*
D22*
%TO.N,DATA1_1*%
X77072265Y-24819144D02*
X78422265Y-24819144D01*
%TO.N,SCL_cam_1*%
X75928265Y-33819144D02*
X77182265Y-33819144D01*
X65292635Y-35419144D02*
X67792635Y-37919144D01*
X62492843Y-35419144D02*
X65292635Y-35419144D01*
X69757819Y-37919144D02*
X71803819Y-35873144D01*
D20*
X79322265Y-33819144D02*
X79422265Y-33919144D01*
D22*
X74178084Y-35873144D02*
X75778265Y-34272963D01*
X75778265Y-33969144D02*
X75928265Y-33819144D01*
X61824336Y-36087651D02*
X62492843Y-35419144D01*
D20*
X77072265Y-33819144D02*
X79322265Y-33819144D01*
D22*
X71803819Y-35873144D02*
X74178084Y-35873144D01*
X75778265Y-34272963D02*
X75778265Y-33969144D01*
X67792635Y-37919144D02*
X69757819Y-37919144D01*
D20*
%TO.N,/XCLK*%
X79222265Y-29819144D02*
X77072265Y-29819144D01*
X79322265Y-29919144D02*
X79222265Y-29819144D01*
X79422265Y-29919144D02*
X79322265Y-29919144D01*
%TO.N,PWDN_1*%
X79159221Y-32319144D02*
X77072265Y-32319144D01*
X79252137Y-32226228D02*
X79159221Y-32319144D01*
X79252137Y-32219558D02*
X79252137Y-32226228D01*
%TO.N,/XIN_mem1*%
X75572265Y-40119144D02*
X67028142Y-40119144D01*
X75972265Y-40519144D02*
X75572265Y-40119144D01*
X67028142Y-40119144D02*
X66919167Y-40010169D01*
D22*
%TO.N,SDA_cam_1*%
X65568156Y-36191054D02*
X67646246Y-38269144D01*
X67646246Y-38269144D02*
X70717265Y-38269144D01*
X70717265Y-38269144D02*
X72267265Y-39819144D01*
X77672265Y-39819144D02*
X79823265Y-37668144D01*
D20*
X79322265Y-34819144D02*
X79422265Y-34919144D01*
D22*
X62422265Y-36619144D02*
X62850355Y-36191054D01*
X79823265Y-37668144D02*
X79823265Y-35320144D01*
X79823265Y-35320144D02*
X79422265Y-34919144D01*
D20*
X77072265Y-34819144D02*
X79322265Y-34819144D01*
D22*
X72267265Y-39819144D02*
X77672265Y-39819144D01*
X62850355Y-36191054D02*
X65568156Y-36191054D01*
D20*
%TO.N,DGND*%
X84172265Y-35269144D02*
X84172265Y-30319144D01*
X82672265Y-28819144D02*
X77182265Y-28819144D01*
X84172265Y-30319144D02*
X82672265Y-28819144D01*
%TO.N,INT_XCLK*%
X72921265Y-26053044D02*
X72921265Y-28313500D01*
X73622265Y-25352044D02*
X72921265Y-26053044D01*
X72921265Y-28313500D02*
X72722265Y-28512500D01*
X73122653Y-23987794D02*
X73140915Y-23987794D01*
X73140915Y-23987794D02*
X73622265Y-24469144D01*
X73622265Y-24469144D02*
X73622265Y-25352044D01*
%TO.N,EXT_XCLK_1*%
X72382205Y-24111447D02*
X72332265Y-24111447D01*
X72121265Y-28761443D02*
X72121265Y-28263557D01*
X72722265Y-29362443D02*
X72121265Y-28761443D01*
X72479909Y-27911500D02*
X72520265Y-27871144D01*
X72520265Y-27871144D02*
X72520265Y-25619508D01*
X73022265Y-25117508D02*
X73022265Y-24751507D01*
X72121265Y-28263557D02*
X72473322Y-27911500D01*
X69425000Y-34914342D02*
X69425000Y-33218286D01*
X72520265Y-25619508D02*
X73022265Y-25117508D01*
X72722265Y-29921021D02*
X72722265Y-29362443D01*
X69425000Y-33218286D02*
X72722265Y-29921021D01*
X69526033Y-35015376D02*
X69425000Y-34914342D01*
X72473322Y-27911500D02*
X72479909Y-27911500D01*
X73022265Y-24751507D02*
X72382205Y-24111447D01*
D22*
%TO.N,DATA9_1*%
X74374265Y-33297050D02*
X75779267Y-31892046D01*
X74374265Y-33691410D02*
X74374265Y-33297050D01*
X69535184Y-35795144D02*
X69896265Y-35795144D01*
X76029267Y-30319144D02*
X77182265Y-30319144D01*
X75779267Y-30569144D02*
X76029267Y-30319144D01*
X70372265Y-35319144D02*
X70372265Y-34869144D01*
X69896265Y-35795144D02*
X70372265Y-35319144D01*
X73596531Y-34469144D02*
X74374265Y-33691410D01*
X69391302Y-35651262D02*
X69535184Y-35795144D01*
X75779267Y-31892046D02*
X75779267Y-30569144D01*
X70772265Y-34469144D02*
X73596531Y-34469144D01*
X70372265Y-34869144D02*
X70772265Y-34469144D01*
%TO.N,DATA3_1*%
X72634613Y-31237500D02*
X72735613Y-31338500D01*
X73673265Y-26364532D02*
X74218653Y-25819144D01*
X73673265Y-31019718D02*
X73673265Y-26364532D01*
X74218653Y-25819144D02*
X77182265Y-25819144D01*
X73354483Y-31338500D02*
X73673265Y-31019718D01*
X72735613Y-31338500D02*
X73354483Y-31338500D01*
%TO.N,DATA2_1*%
X74375265Y-27166144D02*
X74722265Y-26819144D01*
X73397260Y-32288500D02*
X74319441Y-31366320D01*
X74319441Y-31366320D02*
X74375265Y-31310495D01*
X72622265Y-32288500D02*
X73397260Y-32288500D01*
X74375265Y-31310495D02*
X74375265Y-27166144D01*
X74722265Y-26819144D02*
X77182265Y-26819144D01*
%TO.N,DATA5_1*%
X74024265Y-31165107D02*
X74024265Y-26817144D01*
X72223265Y-31738500D02*
X73450872Y-31738500D01*
X72122265Y-31637500D02*
X72223265Y-31738500D01*
X74024265Y-26817144D02*
X74522265Y-26319144D01*
X74522265Y-26319144D02*
X77182265Y-26319144D01*
X73450872Y-31738500D02*
X74024265Y-31165107D01*
%TO.N,HSYNC_1*%
X74725265Y-33836798D02*
X74725265Y-33442440D01*
X73741919Y-34820144D02*
X74725265Y-33836798D01*
X71367654Y-34820144D02*
X73741919Y-34820144D01*
X69292333Y-36369477D02*
X69342000Y-36419144D01*
X74725265Y-33442440D02*
X76348558Y-31819144D01*
X69342000Y-36419144D02*
X69768654Y-36419144D01*
X69768654Y-36419144D02*
X71367654Y-34820144D01*
X76348558Y-31819144D02*
X77182265Y-31819144D01*
%TO.N,DATA8_1*%
X73122265Y-33944144D02*
X73625142Y-33944144D01*
X75822265Y-29319144D02*
X77182265Y-29319144D01*
X73625142Y-33944144D02*
X74023265Y-33546021D01*
X74023265Y-33546021D02*
X74023265Y-33151661D01*
X75428267Y-29713142D02*
X75822265Y-29319144D01*
X75428267Y-31746657D02*
X75428267Y-29713142D01*
X74023265Y-33151661D02*
X75428267Y-31746657D01*
%TO.N,DATA6_1*%
X74726265Y-30569144D02*
X74726265Y-27665144D01*
X75072265Y-27319144D02*
X77182265Y-27319144D01*
X73368649Y-32813500D02*
X74726267Y-31455881D01*
X74726267Y-31455881D02*
X74726265Y-30569144D01*
X73122265Y-32813500D02*
X73368649Y-32813500D01*
X74726265Y-27665144D02*
X75072265Y-27319144D01*
%TO.N,DATA4_1*%
X73322265Y-30662197D02*
X73322265Y-26219144D01*
X73322265Y-26219144D02*
X74222265Y-25319144D01*
X74222265Y-25319144D02*
X77072265Y-25319144D01*
X73146962Y-30837500D02*
X73322265Y-30662197D01*
%TO.N,VSYNC_1*%
X73887307Y-35171144D02*
X71513042Y-35171144D01*
X62518347Y-31652079D02*
X62518347Y-30987500D01*
X75076265Y-33982186D02*
X73887307Y-35171144D01*
X77182265Y-32819144D02*
X75844948Y-32819144D01*
X68035412Y-37169144D02*
X62518347Y-31652079D01*
X75076265Y-33587830D02*
X75076265Y-33982186D01*
X69515042Y-37169144D02*
X68035412Y-37169144D01*
X71513042Y-35171144D02*
X69515042Y-37169144D01*
X75844948Y-32819144D02*
X75076265Y-33587830D01*
%TO.N,DATA7_1*%
X74796961Y-31881577D02*
X75077267Y-31601269D01*
X75077267Y-28614142D02*
X75372265Y-28319144D01*
X73522265Y-33338500D02*
X73522265Y-33156273D01*
X75372265Y-28319144D02*
X77182265Y-28319144D01*
X73522265Y-33156273D02*
X74796961Y-31881577D01*
X75077267Y-31601269D02*
X75077267Y-28614142D01*
%TD*%
%TA.AperFunction,Conductor*%
%TO.N,AGND*%
G36*
X81641760Y-31038329D02*
G01*
X81662402Y-31054963D01*
X82085446Y-31478007D01*
X82118931Y-31539330D01*
X82121765Y-31565688D01*
X82121765Y-36022600D01*
X82102080Y-36089639D01*
X82085446Y-36110281D01*
X76484446Y-41711281D01*
X76423123Y-41744766D01*
X76353431Y-41739782D01*
X76297498Y-41697910D01*
X76273081Y-41632446D01*
X76272765Y-41623600D01*
X76272765Y-41616419D01*
X76272765Y-41616417D01*
X76245472Y-41514557D01*
X76192745Y-41423231D01*
X76118178Y-41348664D01*
X76026852Y-41295937D01*
X76015074Y-41292781D01*
X76001187Y-41284763D01*
X75987745Y-41281839D01*
X75959491Y-41260688D01*
X75830128Y-41131325D01*
X75796643Y-41070002D01*
X75801627Y-41000310D01*
X75843499Y-40944377D01*
X75908963Y-40919960D01*
X75917809Y-40919644D01*
X76024990Y-40919644D01*
X76024992Y-40919644D01*
X76126852Y-40892351D01*
X76218178Y-40839624D01*
X76292745Y-40765057D01*
X76345472Y-40673731D01*
X76372765Y-40571871D01*
X76372765Y-40466417D01*
X76345472Y-40364557D01*
X76292745Y-40273231D01*
X76225839Y-40206325D01*
X76192354Y-40145002D01*
X76197338Y-40075310D01*
X76239210Y-40019377D01*
X76304674Y-39994960D01*
X76313520Y-39994644D01*
X77707172Y-39994644D01*
X77707174Y-39994644D01*
X77771678Y-39967926D01*
X79905236Y-37834365D01*
X79905239Y-37834364D01*
X79922677Y-37816926D01*
X79922678Y-37816926D01*
X79972047Y-37767557D01*
X79998765Y-37703053D01*
X79998765Y-35369495D01*
X79998766Y-35369486D01*
X79998766Y-35285236D01*
X79998766Y-35285235D01*
X79972047Y-35220731D01*
X79972045Y-35220729D01*
X79972045Y-35220728D01*
X79809084Y-35057767D01*
X79775599Y-34996444D01*
X79772765Y-34970086D01*
X79772765Y-34873002D01*
X79772765Y-34873000D01*
X79748879Y-34783856D01*
X79740724Y-34769731D01*
X79702738Y-34703938D01*
X79702735Y-34703935D01*
X79702734Y-34703932D01*
X79637477Y-34638675D01*
X79637474Y-34638673D01*
X79637470Y-34638670D01*
X79557558Y-34592532D01*
X79557555Y-34592531D01*
X79557554Y-34592530D01*
X79557553Y-34592530D01*
X79468409Y-34568644D01*
X79376121Y-34568644D01*
X79286975Y-34592530D01*
X79270521Y-34602031D01*
X79208520Y-34618644D01*
X77709993Y-34618644D01*
X77642954Y-34598959D01*
X77597199Y-34546155D01*
X77587255Y-34476997D01*
X77588375Y-34470454D01*
X77588560Y-34469521D01*
X77591515Y-34454668D01*
X77591514Y-34143643D01*
X77611198Y-34076605D01*
X77664002Y-34030850D01*
X77715514Y-34019644D01*
X79003975Y-34019644D01*
X79071014Y-34039329D01*
X79111360Y-34081641D01*
X79141796Y-34134356D01*
X79207053Y-34199613D01*
X79207056Y-34199614D01*
X79207059Y-34199617D01*
X79286971Y-34245755D01*
X79286972Y-34245755D01*
X79286977Y-34245758D01*
X79376121Y-34269644D01*
X79376123Y-34269644D01*
X79468407Y-34269644D01*
X79468409Y-34269644D01*
X79557553Y-34245758D01*
X79637477Y-34199613D01*
X79702734Y-34134356D01*
X79748879Y-34054432D01*
X79772765Y-33965288D01*
X79772765Y-33873000D01*
X79748879Y-33783856D01*
X79748876Y-33783850D01*
X79702738Y-33703938D01*
X79702735Y-33703935D01*
X79702734Y-33703932D01*
X79680625Y-33681823D01*
X79647140Y-33620500D01*
X79652124Y-33550808D01*
X79680622Y-33506464D01*
X79702734Y-33484353D01*
X79748879Y-33404429D01*
X79772765Y-33315285D01*
X79772765Y-33222997D01*
X79748879Y-33133853D01*
X79738777Y-33116356D01*
X79702738Y-33053935D01*
X79702735Y-33053932D01*
X79702734Y-33053929D01*
X79637477Y-32988672D01*
X79637474Y-32988670D01*
X79637470Y-32988667D01*
X79557558Y-32942529D01*
X79557555Y-32942528D01*
X79557554Y-32942527D01*
X79557553Y-32942527D01*
X79468409Y-32918641D01*
X79376121Y-32918641D01*
X79286977Y-32942527D01*
X79286976Y-32942527D01*
X79286974Y-32942528D01*
X79286971Y-32942529D01*
X79207059Y-32988667D01*
X79207054Y-32988671D01*
X79141795Y-33053929D01*
X79140226Y-33056648D01*
X79138299Y-33058484D01*
X79136850Y-33060374D01*
X79136555Y-33060147D01*
X79089657Y-33104862D01*
X79032841Y-33118644D01*
X77709993Y-33118644D01*
X77642954Y-33098959D01*
X77597199Y-33046155D01*
X77587255Y-32976997D01*
X77588375Y-32970454D01*
X77590000Y-32962282D01*
X77591515Y-32954668D01*
X77591514Y-32643643D01*
X77611198Y-32576605D01*
X77664002Y-32530850D01*
X77715514Y-32519644D01*
X79037675Y-32519644D01*
X79099676Y-32536257D01*
X79116845Y-32546170D01*
X79116849Y-32546172D01*
X79205993Y-32570058D01*
X79205995Y-32570058D01*
X79298279Y-32570058D01*
X79298281Y-32570058D01*
X79387425Y-32546172D01*
X79467349Y-32500027D01*
X79532606Y-32434770D01*
X79578751Y-32354846D01*
X79602637Y-32265702D01*
X79602637Y-32173414D01*
X79578751Y-32084270D01*
X79578750Y-32084269D01*
X79578750Y-32084267D01*
X79573772Y-32075646D01*
X79557298Y-32007746D01*
X79580149Y-31941719D01*
X79635070Y-31898527D01*
X79681158Y-31889644D01*
X79766332Y-31889644D01*
X79766334Y-31889644D01*
X79855478Y-31865758D01*
X79870410Y-31857137D01*
X79870411Y-31857137D01*
X79935395Y-31819618D01*
X79935394Y-31819618D01*
X79935402Y-31819614D01*
X80700053Y-31054963D01*
X80761376Y-31021478D01*
X80787734Y-31018644D01*
X81574721Y-31018644D01*
X81641760Y-31038329D01*
G37*
%TD.AperFunction*%
%TA.AperFunction,Conductor*%
G36*
X76000937Y-34401000D02*
G01*
X76056870Y-34442872D01*
X76064985Y-34455174D01*
X76110702Y-34534356D01*
X76175959Y-34599613D01*
X76175962Y-34599614D01*
X76175965Y-34599617D01*
X76255877Y-34645755D01*
X76255878Y-34645755D01*
X76255883Y-34645758D01*
X76345027Y-34669644D01*
X76345029Y-34669644D01*
X76437313Y-34669644D01*
X76437315Y-34669644D01*
X76437316Y-34669643D01*
X76445371Y-34668583D01*
X76445648Y-34670688D01*
X76504254Y-34672075D01*
X76562122Y-34711229D01*
X76589636Y-34775454D01*
X76590515Y-34790192D01*
X76590515Y-34954663D01*
X76590516Y-34954671D01*
X76596345Y-34983981D01*
X76618557Y-35017226D01*
X76626243Y-35022361D01*
X76651802Y-35039438D01*
X76651805Y-35039438D01*
X76651806Y-35039439D01*
X76661662Y-35041399D01*
X76681116Y-35045269D01*
X77500913Y-35045268D01*
X77530228Y-35039438D01*
X77530232Y-35039434D01*
X77541513Y-35034764D01*
X77542146Y-35036292D01*
X77595260Y-35019664D01*
X77597468Y-35019644D01*
X79003975Y-35019644D01*
X79071014Y-35039329D01*
X79111360Y-35081641D01*
X79141796Y-35134356D01*
X79207053Y-35199613D01*
X79207056Y-35199614D01*
X79207059Y-35199617D01*
X79286971Y-35245755D01*
X79286972Y-35245755D01*
X79286977Y-35245758D01*
X79376121Y-35269644D01*
X79376123Y-35269644D01*
X79473208Y-35269644D01*
X79502648Y-35278288D01*
X79532635Y-35284812D01*
X79537650Y-35288566D01*
X79540247Y-35289329D01*
X79560889Y-35305963D01*
X79611446Y-35356520D01*
X79644931Y-35417843D01*
X79647765Y-35444201D01*
X79647765Y-37544087D01*
X79628080Y-37611126D01*
X79611446Y-37631768D01*
X77635889Y-39607325D01*
X77574566Y-39640810D01*
X77548208Y-39643644D01*
X74952434Y-39643644D01*
X74885395Y-39623959D01*
X74839640Y-39571155D01*
X74828434Y-39519644D01*
X74828434Y-37168769D01*
X74848119Y-37101730D01*
X74900923Y-37055975D01*
X74952434Y-37044769D01*
X76141015Y-37044769D01*
X76141015Y-36244769D01*
X74841015Y-36244769D01*
X74841015Y-36697937D01*
X74821330Y-36764976D01*
X74768526Y-36810731D01*
X74717015Y-36821937D01*
X71402583Y-36821937D01*
X71335544Y-36802252D01*
X71289789Y-36749448D01*
X71279845Y-36680290D01*
X71308870Y-36616734D01*
X71314902Y-36610256D01*
X71840195Y-36084963D01*
X71901518Y-36051478D01*
X71927876Y-36048644D01*
X74212991Y-36048644D01*
X74212993Y-36048644D01*
X74277497Y-36021926D01*
X74664556Y-35634867D01*
X76590515Y-35634867D01*
X76590515Y-35954663D01*
X76590516Y-35954671D01*
X76596345Y-35983981D01*
X76618557Y-36017226D01*
X76625592Y-36021926D01*
X76651802Y-36039438D01*
X76651805Y-36039438D01*
X76651806Y-36039439D01*
X76661662Y-36041399D01*
X76681116Y-36045269D01*
X77500913Y-36045268D01*
X77530228Y-36039438D01*
X77563472Y-36017226D01*
X77585684Y-35983982D01*
X77591515Y-35954668D01*
X77591514Y-35634871D01*
X77585684Y-35605556D01*
X77580287Y-35597478D01*
X77563472Y-35572311D01*
X77530229Y-35550101D01*
X77530230Y-35550101D01*
X77530228Y-35550100D01*
X77530226Y-35550099D01*
X77530223Y-35550098D01*
X77500916Y-35544269D01*
X76681120Y-35544269D01*
X76681112Y-35544270D01*
X76651802Y-35550099D01*
X76618557Y-35572311D01*
X76596347Y-35605554D01*
X76596344Y-35605560D01*
X76590515Y-35634867D01*
X74664556Y-35634867D01*
X75869922Y-34429501D01*
X75931245Y-34396016D01*
X76000937Y-34401000D01*
G37*
%TD.AperFunction*%
%TA.AperFunction,Conductor*%
G36*
X104226804Y-16339329D02*
G01*
X104272559Y-16392133D01*
X104283765Y-16443644D01*
X104283765Y-46494644D01*
X104264080Y-46561683D01*
X104211276Y-46607438D01*
X104159765Y-46618644D01*
X68471020Y-46618644D01*
X68403981Y-46598959D01*
X68358226Y-46546155D01*
X68348282Y-46476997D01*
X68377307Y-46413441D01*
X68383339Y-46406963D01*
X68402745Y-46387557D01*
X68455472Y-46296231D01*
X68482765Y-46194371D01*
X68482765Y-45438917D01*
X68455472Y-45337057D01*
X68402745Y-45245731D01*
X68328178Y-45171164D01*
X68236852Y-45118437D01*
X68134992Y-45091144D01*
X67814992Y-45091144D01*
X67709538Y-45091144D01*
X67607678Y-45118437D01*
X67607675Y-45118438D01*
X67516350Y-45171165D01*
X67441786Y-45245729D01*
X67389059Y-45337054D01*
X67389058Y-45337057D01*
X67361765Y-45438917D01*
X67361765Y-46194370D01*
X67389058Y-46296230D01*
X67389059Y-46296233D01*
X67441786Y-46387558D01*
X67461191Y-46406963D01*
X67494676Y-46468286D01*
X67489692Y-46537978D01*
X67447820Y-46593911D01*
X67382356Y-46618328D01*
X67373510Y-46618644D01*
X64171020Y-46618644D01*
X64103981Y-46598959D01*
X64058226Y-46546155D01*
X64048282Y-46476997D01*
X64077307Y-46413441D01*
X64083339Y-46406963D01*
X64102745Y-46387557D01*
X64155472Y-46296231D01*
X64182765Y-46194371D01*
X64182765Y-45438917D01*
X64155472Y-45337057D01*
X64102745Y-45245731D01*
X64028178Y-45171164D01*
X63936852Y-45118437D01*
X63834992Y-45091144D01*
X63514992Y-45091144D01*
X63409538Y-45091144D01*
X63307678Y-45118437D01*
X63307675Y-45118438D01*
X63216350Y-45171165D01*
X63141786Y-45245729D01*
X63089059Y-45337054D01*
X63089058Y-45337057D01*
X63061765Y-45438917D01*
X63061765Y-46194370D01*
X63089058Y-46296230D01*
X63089059Y-46296233D01*
X63141786Y-46387558D01*
X63161191Y-46406963D01*
X63194676Y-46468286D01*
X63189692Y-46537978D01*
X63147820Y-46593911D01*
X63082356Y-46618328D01*
X63073510Y-46618644D01*
X19484765Y-46618644D01*
X19417726Y-46598959D01*
X19371971Y-46546155D01*
X19360765Y-46494644D01*
X19360765Y-42997117D01*
X20871765Y-42997117D01*
X20871765Y-43241171D01*
X20909944Y-43482220D01*
X20985361Y-43714329D01*
X21089603Y-43918917D01*
X21096161Y-43931786D01*
X21239604Y-44129220D01*
X21239608Y-44129225D01*
X21412183Y-44301800D01*
X21412188Y-44301804D01*
X21509004Y-44372144D01*
X21609626Y-44445250D01*
X21827080Y-44556048D01*
X22059189Y-44631465D01*
X22300238Y-44669644D01*
X22300239Y-44669644D01*
X22544291Y-44669644D01*
X22544292Y-44669644D01*
X22785341Y-44631465D01*
X23017450Y-44556048D01*
X23234904Y-44445250D01*
X23432348Y-44301799D01*
X23604920Y-44129227D01*
X23748371Y-43931783D01*
X23859169Y-43714329D01*
X23934586Y-43482220D01*
X23968370Y-43268917D01*
X63061765Y-43268917D01*
X63061765Y-44024370D01*
X63089058Y-44126230D01*
X63089059Y-44126233D01*
X63090788Y-44129227D01*
X63141785Y-44217557D01*
X63216352Y-44292124D01*
X63307678Y-44344851D01*
X63409538Y-44372144D01*
X63409540Y-44372144D01*
X63834990Y-44372144D01*
X63834992Y-44372144D01*
X63936852Y-44344851D01*
X64028178Y-44292124D01*
X64102745Y-44217557D01*
X64155472Y-44126231D01*
X64182765Y-44024371D01*
X64182765Y-43268917D01*
X67361765Y-43268917D01*
X67361765Y-44024370D01*
X67389058Y-44126230D01*
X67389059Y-44126233D01*
X67390788Y-44129227D01*
X67441785Y-44217557D01*
X67516352Y-44292124D01*
X67607678Y-44344851D01*
X67709538Y-44372144D01*
X67709540Y-44372144D01*
X68134990Y-44372144D01*
X68134992Y-44372144D01*
X68236852Y-44344851D01*
X68328178Y-44292124D01*
X68402745Y-44217557D01*
X68455472Y-44126231D01*
X68482765Y-44024371D01*
X68482765Y-43268917D01*
X68455472Y-43167057D01*
X68402745Y-43075731D01*
X68328178Y-43001164D01*
X68236852Y-42948437D01*
X68134992Y-42921144D01*
X67814992Y-42921144D01*
X67709538Y-42921144D01*
X67607678Y-42948437D01*
X67607675Y-42948438D01*
X67516350Y-43001165D01*
X67441786Y-43075729D01*
X67389059Y-43167054D01*
X67389058Y-43167057D01*
X67361765Y-43268917D01*
X64182765Y-43268917D01*
X64155472Y-43167057D01*
X64102745Y-43075731D01*
X64028178Y-43001164D01*
X63936852Y-42948437D01*
X63834992Y-42921144D01*
X63514992Y-42921144D01*
X63409538Y-42921144D01*
X63307678Y-42948437D01*
X63307675Y-42948438D01*
X63216350Y-43001165D01*
X63141786Y-43075729D01*
X63089059Y-43167054D01*
X63089058Y-43167057D01*
X63061765Y-43268917D01*
X23968370Y-43268917D01*
X23972765Y-43241171D01*
X23972765Y-42997117D01*
X23949007Y-42847117D01*
X99821765Y-42847117D01*
X99821765Y-43091170D01*
X99859943Y-43332216D01*
X99935362Y-43564331D01*
X100046161Y-43781786D01*
X100189604Y-43979220D01*
X100189608Y-43979225D01*
X100362183Y-44151800D01*
X100362188Y-44151804D01*
X100534401Y-44276923D01*
X100559626Y-44295250D01*
X100777080Y-44406048D01*
X101009189Y-44481465D01*
X101250238Y-44519644D01*
X101250239Y-44519644D01*
X101494291Y-44519644D01*
X101494292Y-44519644D01*
X101735341Y-44481465D01*
X101967450Y-44406048D01*
X102184904Y-44295250D01*
X102382348Y-44151799D01*
X102554920Y-43979227D01*
X102698371Y-43781783D01*
X102809169Y-43564329D01*
X102884586Y-43332220D01*
X102922765Y-43091171D01*
X102922765Y-42847117D01*
X102884586Y-42606068D01*
X102809169Y-42373959D01*
X102698371Y-42156505D01*
X102663901Y-42109061D01*
X102554925Y-41959067D01*
X102554921Y-41959062D01*
X102382346Y-41786487D01*
X102382341Y-41786483D01*
X102184907Y-41643040D01*
X102184906Y-41643039D01*
X102184904Y-41643038D01*
X101967450Y-41532240D01*
X101735341Y-41456823D01*
X101735339Y-41456822D01*
X101735337Y-41456822D01*
X101567034Y-41430165D01*
X101494292Y-41418644D01*
X101250238Y-41418644D01*
X101194358Y-41427494D01*
X101009192Y-41456822D01*
X100777077Y-41532241D01*
X100559622Y-41643040D01*
X100362188Y-41786483D01*
X100362183Y-41786487D01*
X100189608Y-41959062D01*
X100189604Y-41959067D01*
X100046161Y-42156501D01*
X99935362Y-42373956D01*
X99859943Y-42606071D01*
X99821765Y-42847117D01*
X23949007Y-42847117D01*
X23934586Y-42756068D01*
X23859169Y-42523959D01*
X23748371Y-42306505D01*
X23639390Y-42156505D01*
X23604925Y-42109067D01*
X23604921Y-42109062D01*
X23432346Y-41936487D01*
X23432341Y-41936483D01*
X23234907Y-41793040D01*
X23234906Y-41793039D01*
X23234904Y-41793038D01*
X23017450Y-41682240D01*
X22785341Y-41606823D01*
X22785339Y-41606822D01*
X22785337Y-41606822D01*
X22617034Y-41580165D01*
X22544292Y-41568644D01*
X22300238Y-41568644D01*
X22244358Y-41577494D01*
X22059192Y-41606822D01*
X21827077Y-41682241D01*
X21609622Y-41793040D01*
X21412188Y-41936483D01*
X21412183Y-41936487D01*
X21239608Y-42109062D01*
X21239604Y-42109067D01*
X21096161Y-42306501D01*
X20985362Y-42523956D01*
X20909943Y-42756071D01*
X20895523Y-42847117D01*
X20871765Y-42997117D01*
X19360765Y-42997117D01*
X19360765Y-38516417D01*
X32621765Y-38516417D01*
X32621765Y-38621870D01*
X32649059Y-38723733D01*
X32649059Y-38723734D01*
X32655150Y-38734283D01*
X32671765Y-38796286D01*
X32671765Y-39040287D01*
X32695651Y-39129431D01*
X32695652Y-39129434D01*
X32741792Y-39209352D01*
X32741794Y-39209355D01*
X32741795Y-39209356D01*
X36132053Y-42599614D01*
X36132054Y-42599615D01*
X36132056Y-42599616D01*
X36143237Y-42606071D01*
X36211977Y-42645758D01*
X36301121Y-42669644D01*
X36301123Y-42669644D01*
X76418407Y-42669644D01*
X76418409Y-42669644D01*
X76507553Y-42645758D01*
X76587477Y-42599614D01*
X82752735Y-36434356D01*
X82798879Y-36354432D01*
X82803101Y-36338675D01*
X82822765Y-36265288D01*
X82822765Y-31323000D01*
X82798879Y-31233856D01*
X82798878Y-31233855D01*
X82798878Y-31233853D01*
X82780829Y-31202593D01*
X82780827Y-31202590D01*
X82774341Y-31191356D01*
X82752735Y-31153932D01*
X82128128Y-30529325D01*
X82094643Y-30468002D01*
X82099627Y-30398310D01*
X82141499Y-30342377D01*
X82206963Y-30317960D01*
X82215809Y-30317644D01*
X82595432Y-30317644D01*
X82624872Y-30326288D01*
X82654859Y-30332812D01*
X82659874Y-30336566D01*
X82662471Y-30337329D01*
X82683113Y-30353963D01*
X82688928Y-30359778D01*
X82721022Y-30415365D01*
X82722765Y-30421869D01*
X82722765Y-30421871D01*
X82730665Y-30451355D01*
X82750058Y-30523732D01*
X82750059Y-30523733D01*
X82802785Y-30615057D01*
X82877352Y-30689624D01*
X82968678Y-30742351D01*
X83070538Y-30769644D01*
X83070540Y-30769644D01*
X83175990Y-30769644D01*
X83175992Y-30769644D01*
X83277852Y-30742351D01*
X83369178Y-30689624D01*
X83443745Y-30615057D01*
X83496472Y-30523731D01*
X83523765Y-30421871D01*
X83523765Y-30316417D01*
X83510956Y-30268612D01*
X83512619Y-30198764D01*
X83551782Y-30140902D01*
X83616010Y-30113398D01*
X83684912Y-30124985D01*
X83718412Y-30148840D01*
X83935446Y-30365874D01*
X83968931Y-30427197D01*
X83971765Y-30453555D01*
X83971765Y-34922601D01*
X83952080Y-34989640D01*
X83935446Y-35010282D01*
X83891798Y-35053929D01*
X83891791Y-35053938D01*
X83845653Y-35133850D01*
X83845652Y-35133853D01*
X83845651Y-35133855D01*
X83845651Y-35133856D01*
X83821765Y-35223000D01*
X83821765Y-35315288D01*
X83837305Y-35373286D01*
X83845652Y-35404434D01*
X83845653Y-35404437D01*
X83891791Y-35484349D01*
X83891794Y-35484353D01*
X83891796Y-35484356D01*
X83957053Y-35549613D01*
X83957056Y-35549614D01*
X83957059Y-35549617D01*
X84036971Y-35595755D01*
X84036972Y-35595755D01*
X84036977Y-35595758D01*
X84126121Y-35619644D01*
X84126123Y-35619644D01*
X84218407Y-35619644D01*
X84218409Y-35619644D01*
X84307553Y-35595758D01*
X84387477Y-35549613D01*
X84452734Y-35484356D01*
X84498879Y-35404432D01*
X84522765Y-35315288D01*
X84522765Y-35223000D01*
X84498879Y-35133856D01*
X84482503Y-35105492D01*
X84452738Y-35053938D01*
X84452735Y-35053935D01*
X84452734Y-35053932D01*
X84409084Y-35010282D01*
X84375599Y-34948959D01*
X84372765Y-34922601D01*
X84372765Y-30279263D01*
X84372764Y-30279260D01*
X84342241Y-30205570D01*
X84285839Y-30149168D01*
X84278774Y-30142103D01*
X84278767Y-30142097D01*
X82785839Y-28649168D01*
X82712148Y-28618644D01*
X82712147Y-28618644D01*
X77709993Y-28618644D01*
X77642954Y-28598959D01*
X77597199Y-28546155D01*
X77587255Y-28476997D01*
X77588375Y-28470454D01*
X77589388Y-28465360D01*
X77591515Y-28454668D01*
X77591514Y-28143643D01*
X77611198Y-28076605D01*
X77664002Y-28030850D01*
X77715514Y-28019644D01*
X79003975Y-28019644D01*
X79071014Y-28039329D01*
X79111360Y-28081641D01*
X79141796Y-28134356D01*
X79207053Y-28199613D01*
X79207056Y-28199614D01*
X79207059Y-28199617D01*
X79286971Y-28245755D01*
X79286972Y-28245755D01*
X79286977Y-28245758D01*
X79376121Y-28269644D01*
X79376123Y-28269644D01*
X79468407Y-28269644D01*
X79468409Y-28269644D01*
X79557553Y-28245758D01*
X79637477Y-28199613D01*
X79702734Y-28134356D01*
X79748879Y-28054432D01*
X79772765Y-27965288D01*
X79772765Y-27873000D01*
X79748879Y-27783856D01*
X79720296Y-27734349D01*
X79702738Y-27703938D01*
X79702735Y-27703935D01*
X79702734Y-27703932D01*
X79637477Y-27638675D01*
X79637474Y-27638673D01*
X79637470Y-27638670D01*
X79557558Y-27592532D01*
X79557555Y-27592531D01*
X79557554Y-27592530D01*
X79557553Y-27592530D01*
X79468409Y-27568644D01*
X79376121Y-27568644D01*
X79286975Y-27592530D01*
X79270521Y-27602031D01*
X79208520Y-27618644D01*
X77709993Y-27618644D01*
X77642954Y-27598959D01*
X77597199Y-27546155D01*
X77587255Y-27476997D01*
X77588375Y-27470454D01*
X77588560Y-27469521D01*
X77591515Y-27454668D01*
X77591514Y-27134871D01*
X77585684Y-27105556D01*
X77581011Y-27094273D01*
X77584566Y-27092800D01*
X77570220Y-27046977D01*
X77584062Y-26996525D01*
X77581011Y-26995262D01*
X77585681Y-26983986D01*
X77585684Y-26983982D01*
X77591515Y-26954668D01*
X77591514Y-26634871D01*
X77585684Y-26605556D01*
X77581011Y-26594273D01*
X77584566Y-26592800D01*
X77570220Y-26546977D01*
X77584062Y-26496525D01*
X77581011Y-26495262D01*
X77585681Y-26483986D01*
X77585684Y-26483982D01*
X77591515Y-26454668D01*
X77591514Y-26134871D01*
X77585684Y-26105556D01*
X77581011Y-26094273D01*
X77584566Y-26092800D01*
X77570220Y-26046977D01*
X77584062Y-25996525D01*
X77581011Y-25995262D01*
X77585681Y-25983986D01*
X77585684Y-25983982D01*
X77591515Y-25954668D01*
X77591514Y-25634871D01*
X77585684Y-25605556D01*
X77581011Y-25594273D01*
X77584566Y-25592800D01*
X77570220Y-25546977D01*
X77584062Y-25496525D01*
X77581011Y-25495262D01*
X77585681Y-25483986D01*
X77585684Y-25483982D01*
X77591515Y-25454668D01*
X77591514Y-25134871D01*
X77591514Y-25134870D01*
X77591514Y-25134866D01*
X77591113Y-25130794D01*
X77604134Y-25062149D01*
X77652200Y-25011440D01*
X77714516Y-24994644D01*
X77989541Y-24994644D01*
X78056580Y-25014329D01*
X78096927Y-25056643D01*
X78101785Y-25065057D01*
X78176352Y-25139624D01*
X78267678Y-25192351D01*
X78369538Y-25219644D01*
X78369540Y-25219644D01*
X78474990Y-25219644D01*
X78474992Y-25219644D01*
X78576852Y-25192351D01*
X78668178Y-25139624D01*
X78742745Y-25065057D01*
X78795472Y-24973731D01*
X78822765Y-24871871D01*
X78822765Y-24766417D01*
X78795472Y-24664557D01*
X78742745Y-24573231D01*
X78668178Y-24498664D01*
X78593743Y-24455689D01*
X78576854Y-24445938D01*
X78576853Y-24445937D01*
X78576852Y-24445937D01*
X78474992Y-24418644D01*
X78369538Y-24418644D01*
X78267678Y-24445937D01*
X78267675Y-24445938D01*
X78176350Y-24498665D01*
X78101787Y-24573228D01*
X78101785Y-24573231D01*
X78096927Y-24581644D01*
X78046362Y-24629859D01*
X77989541Y-24643644D01*
X77705020Y-24643644D01*
X77637981Y-24623959D01*
X77592226Y-24571155D01*
X77582282Y-24501997D01*
X77583403Y-24495453D01*
X77591514Y-24454672D01*
X77591514Y-24454671D01*
X77591515Y-24454668D01*
X77591514Y-24134871D01*
X77585684Y-24105556D01*
X77585683Y-24105554D01*
X77563472Y-24072311D01*
X77538511Y-24055634D01*
X77530228Y-24050100D01*
X77530226Y-24050099D01*
X77530223Y-24050098D01*
X77500916Y-24044269D01*
X76681120Y-24044269D01*
X76681112Y-24044270D01*
X76651802Y-24050099D01*
X76618557Y-24072311D01*
X76596347Y-24105554D01*
X76596344Y-24105560D01*
X76590515Y-24134867D01*
X76590515Y-24454663D01*
X76590516Y-24454671D01*
X76596345Y-24483981D01*
X76601019Y-24495265D01*
X76597464Y-24496737D01*
X76611810Y-24542574D01*
X76597965Y-24593010D01*
X76601019Y-24594276D01*
X76596344Y-24605560D01*
X76590515Y-24634867D01*
X76590515Y-24954663D01*
X76590516Y-24954671D01*
X76598628Y-24995458D01*
X76592398Y-25065049D01*
X76549533Y-25120225D01*
X76483642Y-25143467D01*
X76477010Y-25143644D01*
X74187356Y-25143644D01*
X74122851Y-25170362D01*
X74073482Y-25219732D01*
X74073481Y-25219733D01*
X74034445Y-25258768D01*
X73973122Y-25292253D01*
X73903430Y-25287267D01*
X73847497Y-25245395D01*
X73823081Y-25179930D01*
X73822765Y-25171086D01*
X73822765Y-24429263D01*
X73822764Y-24429260D01*
X73818367Y-24418644D01*
X73792241Y-24355570D01*
X73735839Y-24299168D01*
X73527734Y-24091063D01*
X73494249Y-24029740D01*
X73491415Y-24003382D01*
X73491415Y-23941652D01*
X73491415Y-23941650D01*
X73467529Y-23852506D01*
X73463062Y-23844769D01*
X74841015Y-23844769D01*
X76141015Y-23844769D01*
X76141015Y-23044769D01*
X74841015Y-23044769D01*
X74841015Y-23844769D01*
X73463062Y-23844769D01*
X73458242Y-23836420D01*
X73421388Y-23772588D01*
X73421385Y-23772585D01*
X73421384Y-23772582D01*
X73356127Y-23707325D01*
X73356124Y-23707323D01*
X73356120Y-23707320D01*
X73276208Y-23661182D01*
X73276205Y-23661181D01*
X73276204Y-23661180D01*
X73276203Y-23661180D01*
X73187059Y-23637294D01*
X73094771Y-23637294D01*
X73005627Y-23661180D01*
X73005626Y-23661180D01*
X73005624Y-23661181D01*
X73005621Y-23661182D01*
X72925709Y-23707320D01*
X72925700Y-23707327D01*
X72860448Y-23772579D01*
X72860441Y-23772588D01*
X72814301Y-23852502D01*
X72813473Y-23854504D01*
X72812321Y-23855932D01*
X72810236Y-23859545D01*
X72809672Y-23859219D01*
X72769631Y-23908908D01*
X72703337Y-23930972D01*
X72635638Y-23913692D01*
X72611231Y-23894732D01*
X72547479Y-23830980D01*
X72547477Y-23830978D01*
X72547474Y-23830976D01*
X72547470Y-23830973D01*
X72467558Y-23784835D01*
X72467555Y-23784834D01*
X72467554Y-23784833D01*
X72467553Y-23784833D01*
X72378409Y-23760947D01*
X72286121Y-23760947D01*
X72196977Y-23784833D01*
X72196976Y-23784833D01*
X72196974Y-23784834D01*
X72196971Y-23784835D01*
X72117059Y-23830973D01*
X72117050Y-23830980D01*
X72051798Y-23896232D01*
X72051791Y-23896241D01*
X72005653Y-23976153D01*
X72005652Y-23976156D01*
X72005651Y-23976158D01*
X72005651Y-23976159D01*
X71981765Y-24065303D01*
X71981765Y-24157591D01*
X71996612Y-24213002D01*
X72005652Y-24246737D01*
X72005653Y-24246740D01*
X72051791Y-24326652D01*
X72051794Y-24326656D01*
X72051796Y-24326659D01*
X72117053Y-24391916D01*
X72117056Y-24391917D01*
X72117059Y-24391920D01*
X72138089Y-24404062D01*
X72186304Y-24454629D01*
X72199526Y-24523236D01*
X72173558Y-24588101D01*
X72138092Y-24618833D01*
X72117056Y-24630978D01*
X72117050Y-24630983D01*
X72051798Y-24696235D01*
X72051791Y-24696244D01*
X72005653Y-24776156D01*
X72005652Y-24776159D01*
X72005651Y-24776161D01*
X72005651Y-24776162D01*
X71981765Y-24865306D01*
X71981765Y-24957594D01*
X72005123Y-25044769D01*
X72005652Y-25046740D01*
X72005652Y-25046741D01*
X72030010Y-25088930D01*
X72036574Y-25115989D01*
X72046307Y-25142079D01*
X72044698Y-25149474D01*
X72046483Y-25156830D01*
X72037376Y-25183141D01*
X72031458Y-25210352D01*
X72024948Y-25219048D01*
X72023630Y-25222857D01*
X72010308Y-25238607D01*
X71998695Y-25250221D01*
X71998691Y-25250225D01*
X71942290Y-25306625D01*
X71942289Y-25306626D01*
X71911765Y-25380317D01*
X71911765Y-25783675D01*
X71892080Y-25850714D01*
X71875446Y-25871356D01*
X71152290Y-26594511D01*
X71152289Y-26594512D01*
X71121765Y-26668203D01*
X71121765Y-28338016D01*
X71102080Y-28405055D01*
X71059767Y-28445402D01*
X71036518Y-28458825D01*
X71036512Y-28458829D01*
X70961949Y-28533392D01*
X70909222Y-28624717D01*
X70909221Y-28624720D01*
X70881928Y-28726580D01*
X70881928Y-28832034D01*
X70893226Y-28874197D01*
X70909221Y-28933893D01*
X70909222Y-28933896D01*
X70921212Y-28954663D01*
X70961948Y-29025220D01*
X71036515Y-29099787D01*
X71127841Y-29152514D01*
X71229701Y-29179807D01*
X71229703Y-29179807D01*
X71335153Y-29179807D01*
X71335155Y-29179807D01*
X71437015Y-29152514D01*
X71528341Y-29099787D01*
X71602908Y-29025220D01*
X71655635Y-28933894D01*
X71682928Y-28832034D01*
X71682928Y-28726580D01*
X71655635Y-28624720D01*
X71602908Y-28533394D01*
X71559084Y-28489570D01*
X71525599Y-28428247D01*
X71522765Y-28401889D01*
X71522765Y-26842499D01*
X71542450Y-26775460D01*
X71559084Y-26754818D01*
X72108084Y-26205818D01*
X72169407Y-26172333D01*
X72239099Y-26177317D01*
X72295032Y-26219189D01*
X72319449Y-26284653D01*
X72319765Y-26293499D01*
X72319765Y-27730145D01*
X72300080Y-27797184D01*
X72283446Y-27817826D01*
X71951290Y-28149981D01*
X71951289Y-28149982D01*
X71920765Y-28223673D01*
X71920765Y-28223675D01*
X71920765Y-28721561D01*
X71920765Y-28801325D01*
X71928617Y-28820283D01*
X71928618Y-28820284D01*
X71951289Y-28875017D01*
X72176591Y-29100319D01*
X72210076Y-29161642D01*
X72205092Y-29231334D01*
X72163220Y-29287267D01*
X72097756Y-29311684D01*
X72088910Y-29312000D01*
X71993565Y-29312000D01*
X71891705Y-29339293D01*
X71891702Y-29339294D01*
X71800377Y-29392021D01*
X71725813Y-29466585D01*
X71673086Y-29557910D01*
X71673085Y-29557913D01*
X71645792Y-29659773D01*
X71645792Y-29665962D01*
X71626107Y-29733001D01*
X71609473Y-29753643D01*
X71380791Y-29982325D01*
X71319468Y-30015810D01*
X71293110Y-30018644D01*
X69408432Y-30018644D01*
X69346432Y-30002031D01*
X69345913Y-30001731D01*
X69254587Y-29949004D01*
X69152727Y-29921711D01*
X69047273Y-29921711D01*
X68945413Y-29949004D01*
X68945410Y-29949005D01*
X68854085Y-30001732D01*
X68779521Y-30076296D01*
X68726794Y-30167621D01*
X68726793Y-30167624D01*
X68699500Y-30269484D01*
X68699500Y-30374938D01*
X68726793Y-30476798D01*
X68779520Y-30568124D01*
X68854087Y-30642691D01*
X68945413Y-30695418D01*
X69047273Y-30722711D01*
X69047275Y-30722711D01*
X69152725Y-30722711D01*
X69152727Y-30722711D01*
X69254587Y-30695418D01*
X69345913Y-30642691D01*
X69345914Y-30642689D01*
X69352951Y-30638627D01*
X69354187Y-30640769D01*
X69407730Y-30620073D01*
X69418040Y-30619644D01*
X71440730Y-30619644D01*
X71507769Y-30639329D01*
X71553524Y-30692133D01*
X71563468Y-30761291D01*
X71534443Y-30824847D01*
X71528411Y-30831325D01*
X69255025Y-33104710D01*
X69255024Y-33104711D01*
X69224500Y-33178402D01*
X69224500Y-34803420D01*
X69207887Y-34865420D01*
X69199420Y-34880084D01*
X69199420Y-34880085D01*
X69199419Y-34880087D01*
X69199419Y-34880088D01*
X69188796Y-34919733D01*
X69175533Y-34969232D01*
X69175533Y-35061519D01*
X69199419Y-35150664D01*
X69226905Y-35198270D01*
X69243378Y-35266170D01*
X69220526Y-35332197D01*
X69181526Y-35367654D01*
X69176093Y-35370790D01*
X69176087Y-35370795D01*
X69110835Y-35436047D01*
X69110828Y-35436056D01*
X69064690Y-35515968D01*
X69064689Y-35515971D01*
X69064688Y-35515973D01*
X69064688Y-35515974D01*
X69040802Y-35605118D01*
X69040802Y-35697406D01*
X69048024Y-35724360D01*
X69064689Y-35786552D01*
X69064690Y-35786555D01*
X69110828Y-35866467D01*
X69110835Y-35866476D01*
X69174972Y-35930613D01*
X69208457Y-35991936D01*
X69203473Y-36061628D01*
X69161601Y-36117561D01*
X69149296Y-36125678D01*
X69126794Y-36138670D01*
X69126785Y-36138677D01*
X69061533Y-36203929D01*
X69061526Y-36203938D01*
X69015388Y-36283850D01*
X69015387Y-36283853D01*
X69015386Y-36283855D01*
X69015386Y-36283856D01*
X68991500Y-36373000D01*
X68991500Y-36465288D01*
X69008907Y-36530253D01*
X69015387Y-36554434D01*
X69015388Y-36554437D01*
X69061526Y-36634349D01*
X69061529Y-36634353D01*
X69061531Y-36634356D01*
X69126788Y-36699613D01*
X69126791Y-36699614D01*
X69126794Y-36699617D01*
X69206706Y-36745755D01*
X69206707Y-36745755D01*
X69206712Y-36745758D01*
X69222057Y-36749869D01*
X69281717Y-36786234D01*
X69312246Y-36849081D01*
X69303951Y-36918456D01*
X69259466Y-36972334D01*
X69192914Y-36993609D01*
X69189963Y-36993644D01*
X68159469Y-36993644D01*
X68092430Y-36973959D01*
X68071788Y-36957325D01*
X66631920Y-35517457D01*
X66598435Y-35456134D01*
X66603419Y-35386442D01*
X66645291Y-35330509D01*
X66710755Y-35306092D01*
X66719601Y-35305776D01*
X66752725Y-35305776D01*
X66752727Y-35305776D01*
X66854587Y-35278483D01*
X66945913Y-35225756D01*
X67020480Y-35151189D01*
X67073207Y-35059863D01*
X67100500Y-34958003D01*
X67100500Y-34852549D01*
X67073207Y-34750689D01*
X67020480Y-34659363D01*
X66945913Y-34584796D01*
X66858548Y-34534356D01*
X66854589Y-34532070D01*
X66854588Y-34532069D01*
X66854587Y-34532069D01*
X66752727Y-34504776D01*
X66752726Y-34504776D01*
X66746765Y-34504776D01*
X66679726Y-34485091D01*
X66633971Y-34432287D01*
X66622765Y-34380776D01*
X66622765Y-33359043D01*
X66642450Y-33292004D01*
X66659080Y-33271366D01*
X67009492Y-32920953D01*
X67065082Y-32888860D01*
X67076852Y-32885707D01*
X67168178Y-32832980D01*
X67242745Y-32758413D01*
X67295472Y-32667087D01*
X67322765Y-32565227D01*
X67322765Y-32459773D01*
X67295472Y-32357913D01*
X67242745Y-32266587D01*
X67168178Y-32192020D01*
X67076852Y-32139293D01*
X66974992Y-32112000D01*
X66869538Y-32112000D01*
X66767678Y-32139293D01*
X66767675Y-32139294D01*
X66676350Y-32192021D01*
X66601787Y-32266584D01*
X66549057Y-32357913D01*
X66549055Y-32357917D01*
X66545901Y-32369690D01*
X66513809Y-32425272D01*
X65991797Y-32947285D01*
X65991795Y-32947287D01*
X65991795Y-32947288D01*
X65951093Y-33017786D01*
X65951092Y-33017786D01*
X65945652Y-33027209D01*
X65945651Y-33027212D01*
X65921765Y-33116356D01*
X65921765Y-34507940D01*
X65902080Y-34574979D01*
X65849276Y-34620734D01*
X65780118Y-34630678D01*
X65716562Y-34601653D01*
X65710084Y-34595621D01*
X62730166Y-31615703D01*
X62715462Y-31588775D01*
X62698870Y-31562957D01*
X62697978Y-31556756D01*
X62696681Y-31554380D01*
X62693847Y-31528022D01*
X62693847Y-31359043D01*
X62713532Y-31292004D01*
X62730166Y-31271362D01*
X62763728Y-31237800D01*
X62798816Y-31202712D01*
X62844961Y-31122788D01*
X62868847Y-31033644D01*
X62868847Y-30941356D01*
X62844961Y-30852212D01*
X62832902Y-30831325D01*
X62798820Y-30772294D01*
X62798817Y-30772291D01*
X62798816Y-30772288D01*
X62733559Y-30707031D01*
X62733556Y-30707029D01*
X62733552Y-30707026D01*
X62653640Y-30660888D01*
X62653637Y-30660887D01*
X62653636Y-30660886D01*
X62653635Y-30660886D01*
X62564491Y-30637000D01*
X62472203Y-30637000D01*
X62383059Y-30660886D01*
X62383058Y-30660886D01*
X62383056Y-30660887D01*
X62383053Y-30660888D01*
X62303141Y-30707026D01*
X62303132Y-30707033D01*
X62237880Y-30772285D01*
X62237873Y-30772294D01*
X62191735Y-30852206D01*
X62191732Y-30852211D01*
X62185155Y-30876759D01*
X62148789Y-30936419D01*
X62085941Y-30966947D01*
X62033289Y-30964438D01*
X61947564Y-30941468D01*
X61855276Y-30941468D01*
X61766132Y-30965354D01*
X61766131Y-30965354D01*
X61766129Y-30965355D01*
X61766126Y-30965356D01*
X61686214Y-31011494D01*
X61686205Y-31011501D01*
X61620953Y-31076753D01*
X61620946Y-31076762D01*
X61574808Y-31156674D01*
X61574807Y-31156677D01*
X61574806Y-31156679D01*
X61574806Y-31156680D01*
X61562504Y-31202591D01*
X61550920Y-31245824D01*
X61550920Y-31305576D01*
X61531235Y-31372615D01*
X61514601Y-31393257D01*
X61308691Y-31599168D01*
X61252290Y-31655568D01*
X61252289Y-31655569D01*
X61221765Y-31729260D01*
X61221765Y-33102666D01*
X61202080Y-33169705D01*
X61181386Y-33192204D01*
X61182099Y-33192917D01*
X61101785Y-33273231D01*
X61049059Y-33364554D01*
X61049058Y-33364557D01*
X61021765Y-33466417D01*
X61021765Y-33571871D01*
X61048156Y-33670362D01*
X61049058Y-33673730D01*
X61049059Y-33673733D01*
X61063187Y-33698203D01*
X61101785Y-33765057D01*
X61176352Y-33839624D01*
X61267678Y-33892351D01*
X61369538Y-33919644D01*
X61369540Y-33919644D01*
X61474990Y-33919644D01*
X61474992Y-33919644D01*
X61576852Y-33892351D01*
X61668178Y-33839624D01*
X61742745Y-33765057D01*
X61795472Y-33673731D01*
X61822765Y-33571871D01*
X61822765Y-33466417D01*
X61795472Y-33364557D01*
X61742745Y-33273231D01*
X61668178Y-33198664D01*
X61668177Y-33198663D01*
X61662431Y-33192917D01*
X61664112Y-33191235D01*
X61630068Y-33144592D01*
X61622765Y-33102666D01*
X61622765Y-31903555D01*
X61631409Y-31874114D01*
X61637933Y-31844128D01*
X61641687Y-31839112D01*
X61642450Y-31836516D01*
X61659080Y-31815878D01*
X61796171Y-31678786D01*
X61857494Y-31645302D01*
X61883852Y-31642468D01*
X61947562Y-31642468D01*
X61947564Y-31642468D01*
X62036708Y-31618582D01*
X62116632Y-31572437D01*
X62131166Y-31557903D01*
X62192489Y-31524418D01*
X62262181Y-31529402D01*
X62318114Y-31571274D01*
X62342531Y-31636738D01*
X62342847Y-31645584D01*
X62342847Y-31686988D01*
X62356410Y-31719732D01*
X62369565Y-31751492D01*
X65250036Y-34631963D01*
X65283521Y-34693286D01*
X65278537Y-34762978D01*
X65236665Y-34818911D01*
X65171201Y-34843328D01*
X65162355Y-34843644D01*
X62087356Y-34843644D01*
X62022851Y-34870362D01*
X61987695Y-34905519D01*
X61973483Y-34919731D01*
X61973482Y-34919732D01*
X61735139Y-35158074D01*
X61663973Y-35229240D01*
X61602650Y-35262724D01*
X61532958Y-35257740D01*
X61494128Y-35232784D01*
X61493923Y-35233052D01*
X61490721Y-35230595D01*
X61488611Y-35229239D01*
X61487479Y-35228107D01*
X61487477Y-35228105D01*
X61487474Y-35228103D01*
X61487470Y-35228100D01*
X61407558Y-35181962D01*
X61407555Y-35181961D01*
X61407554Y-35181960D01*
X61407553Y-35181960D01*
X61318409Y-35158074D01*
X61226121Y-35158074D01*
X61136977Y-35181960D01*
X61136976Y-35181960D01*
X61136974Y-35181961D01*
X61136971Y-35181962D01*
X61057059Y-35228100D01*
X61057050Y-35228107D01*
X60991798Y-35293359D01*
X60991791Y-35293368D01*
X60945653Y-35373280D01*
X60945652Y-35373283D01*
X60945651Y-35373285D01*
X60945651Y-35373286D01*
X60921765Y-35462430D01*
X60921765Y-35554718D01*
X60935386Y-35605554D01*
X60945652Y-35643864D01*
X60945653Y-35643867D01*
X60991791Y-35723779D01*
X60991794Y-35723783D01*
X60991796Y-35723786D01*
X61057053Y-35789043D01*
X61057056Y-35789044D01*
X61057059Y-35789047D01*
X61136971Y-35835185D01*
X61136972Y-35835185D01*
X61136977Y-35835188D01*
X61226121Y-35859074D01*
X61226123Y-35859074D01*
X61318407Y-35859074D01*
X61318409Y-35859074D01*
X61331064Y-35855683D01*
X61400911Y-35857342D01*
X61458776Y-35896503D01*
X61486282Y-35960730D01*
X61482935Y-36007548D01*
X61473836Y-36041505D01*
X61473836Y-36041507D01*
X61473836Y-36133795D01*
X61492629Y-36203932D01*
X61497723Y-36222941D01*
X61497724Y-36222944D01*
X61543862Y-36302856D01*
X61543865Y-36302860D01*
X61543867Y-36302863D01*
X61609124Y-36368120D01*
X61609127Y-36368121D01*
X61609130Y-36368124D01*
X61689042Y-36414262D01*
X61689043Y-36414262D01*
X61689048Y-36414265D01*
X61778192Y-36438151D01*
X61778194Y-36438151D01*
X61870478Y-36438151D01*
X61870480Y-36438151D01*
X61918806Y-36425202D01*
X61988654Y-36426864D01*
X62046517Y-36466025D01*
X62074022Y-36530253D01*
X62071557Y-36564777D01*
X62072826Y-36564944D01*
X62071765Y-36572998D01*
X62071765Y-36573000D01*
X62071765Y-36665288D01*
X62094428Y-36749869D01*
X62095652Y-36754434D01*
X62095653Y-36754437D01*
X62141791Y-36834349D01*
X62141794Y-36834353D01*
X62141796Y-36834356D01*
X62207053Y-36899613D01*
X62207056Y-36899614D01*
X62207059Y-36899617D01*
X62286971Y-36945755D01*
X62286972Y-36945755D01*
X62286977Y-36945758D01*
X62376121Y-36969644D01*
X62376123Y-36969644D01*
X62468407Y-36969644D01*
X62468409Y-36969644D01*
X62557553Y-36945758D01*
X62637477Y-36899613D01*
X62702734Y-36834356D01*
X62748879Y-36754432D01*
X62772765Y-36665288D01*
X62772765Y-36573000D01*
X62772765Y-36568201D01*
X62781409Y-36538763D01*
X62787933Y-36508773D01*
X62791688Y-36503756D01*
X62792450Y-36501162D01*
X62809084Y-36480519D01*
X62886732Y-36402872D01*
X62948056Y-36369388D01*
X62974413Y-36366554D01*
X65444099Y-36366554D01*
X65511138Y-36386239D01*
X65531779Y-36402872D01*
X67497464Y-38368557D01*
X67546833Y-38417926D01*
X67611337Y-38444644D01*
X70593208Y-38444644D01*
X70660247Y-38464329D01*
X70680889Y-38480963D01*
X70992115Y-38792189D01*
X71025600Y-38853512D01*
X71028434Y-38879870D01*
X71028434Y-39794644D01*
X71008749Y-39861683D01*
X70955945Y-39907438D01*
X70904434Y-39918644D01*
X67400374Y-39918644D01*
X67333335Y-39898959D01*
X67292987Y-39856644D01*
X67257191Y-39794644D01*
X67239647Y-39764256D01*
X67165080Y-39689689D01*
X67073754Y-39636962D01*
X66971894Y-39609669D01*
X66866440Y-39609669D01*
X66764580Y-39636962D01*
X66764577Y-39636963D01*
X66673252Y-39689690D01*
X66598688Y-39764254D01*
X66545961Y-39855579D01*
X66545960Y-39855582D01*
X66518667Y-39957442D01*
X66518667Y-40062896D01*
X66545960Y-40164756D01*
X66585157Y-40232647D01*
X66601629Y-40300543D01*
X66578777Y-40366570D01*
X66523856Y-40409761D01*
X66477769Y-40418644D01*
X37368808Y-40418644D01*
X37301769Y-40398959D01*
X37281127Y-40382325D01*
X34959084Y-38060281D01*
X34925599Y-37998958D01*
X34922765Y-37972600D01*
X34922765Y-33746286D01*
X34939380Y-33684283D01*
X34945470Y-33673734D01*
X34945472Y-33673731D01*
X34972765Y-33571871D01*
X34972765Y-33466417D01*
X34945472Y-33364557D01*
X34892745Y-33273231D01*
X34818178Y-33198664D01*
X34726852Y-33145937D01*
X34624992Y-33118644D01*
X34519538Y-33118644D01*
X34417678Y-33145937D01*
X34417675Y-33145938D01*
X34326350Y-33198665D01*
X34251786Y-33273229D01*
X34199059Y-33364554D01*
X34199058Y-33364557D01*
X34171765Y-33466417D01*
X34171765Y-33571871D01*
X34198155Y-33670362D01*
X34199059Y-33673733D01*
X34199059Y-33673734D01*
X34205150Y-33684283D01*
X34221765Y-33746286D01*
X34221765Y-38215287D01*
X34241428Y-38288673D01*
X34245650Y-38304429D01*
X34245652Y-38304434D01*
X34291792Y-38384352D01*
X34291794Y-38384355D01*
X34291795Y-38384356D01*
X36891796Y-40984356D01*
X36957053Y-41049613D01*
X36957056Y-41049614D01*
X36957059Y-41049617D01*
X37036971Y-41095755D01*
X37036972Y-41095755D01*
X37036977Y-41095758D01*
X37126121Y-41119644D01*
X74775721Y-41119644D01*
X74842760Y-41139329D01*
X74863402Y-41155963D01*
X75463809Y-41756370D01*
X75471822Y-41770247D01*
X75481999Y-41779495D01*
X75495897Y-41811937D01*
X75496056Y-41812530D01*
X75494405Y-41882381D01*
X75455253Y-41940250D01*
X75391029Y-41967765D01*
X75376287Y-41968644D01*
X36543809Y-41968644D01*
X36476770Y-41948959D01*
X36456128Y-41932325D01*
X33409084Y-38885281D01*
X33375599Y-38823958D01*
X33372765Y-38797600D01*
X33372765Y-38796286D01*
X33389380Y-38734283D01*
X33395470Y-38723734D01*
X33395472Y-38723731D01*
X33422765Y-38621871D01*
X33422765Y-38516417D01*
X33395472Y-38414557D01*
X33342745Y-38323231D01*
X33268178Y-38248664D01*
X33176852Y-38195937D01*
X33074992Y-38168644D01*
X32969538Y-38168644D01*
X32867678Y-38195937D01*
X32867675Y-38195938D01*
X32776350Y-38248665D01*
X32701786Y-38323229D01*
X32649059Y-38414554D01*
X32649058Y-38414557D01*
X32621765Y-38516417D01*
X19360765Y-38516417D01*
X19360765Y-32569144D01*
X56522265Y-32569144D01*
X60922265Y-32569144D01*
X60922265Y-29659773D01*
X61429881Y-29659773D01*
X61429881Y-29765227D01*
X61457174Y-29867087D01*
X61509901Y-29958413D01*
X61584468Y-30032980D01*
X61640013Y-30065049D01*
X61675790Y-30085705D01*
X61675794Y-30085707D01*
X61676480Y-30085890D01*
X61677093Y-30086244D01*
X61683301Y-30088816D01*
X61682962Y-30089633D01*
X61732067Y-30117984D01*
X61813697Y-30199614D01*
X61813698Y-30199615D01*
X61813700Y-30199616D01*
X61848544Y-30219733D01*
X61893621Y-30245758D01*
X61982765Y-30269644D01*
X64058471Y-30269644D01*
X64087911Y-30278288D01*
X64117898Y-30284812D01*
X64122913Y-30288566D01*
X64125510Y-30289329D01*
X64146152Y-30305963D01*
X64291544Y-30451355D01*
X64323637Y-30506938D01*
X64325617Y-30514329D01*
X64326793Y-30518715D01*
X64326794Y-30518718D01*
X64330259Y-30524719D01*
X64379520Y-30610042D01*
X64454087Y-30684609D01*
X64545413Y-30737336D01*
X64647273Y-30764629D01*
X64647275Y-30764629D01*
X64752725Y-30764629D01*
X64752727Y-30764629D01*
X64854587Y-30737336D01*
X64945913Y-30684609D01*
X65020480Y-30610042D01*
X65073207Y-30518716D01*
X65100500Y-30416856D01*
X65100500Y-30311402D01*
X65073207Y-30209542D01*
X65020480Y-30118216D01*
X64945913Y-30043649D01*
X64873309Y-30001731D01*
X64854589Y-29990923D01*
X64854588Y-29990922D01*
X64854587Y-29990922D01*
X64842809Y-29987766D01*
X64787226Y-29955673D01*
X64470228Y-29638675D01*
X64470223Y-29638671D01*
X64390305Y-29592531D01*
X64390304Y-29592530D01*
X64390303Y-29592530D01*
X64301159Y-29568644D01*
X64301158Y-29568644D01*
X62346765Y-29568644D01*
X62279726Y-29548959D01*
X62233971Y-29496155D01*
X62222765Y-29444644D01*
X62222765Y-28059773D01*
X66524284Y-28059773D01*
X66524284Y-28165227D01*
X66551577Y-28267087D01*
X66604304Y-28358413D01*
X66678871Y-28432980D01*
X66770197Y-28485707D01*
X66872057Y-28513000D01*
X66872059Y-28513000D01*
X66977509Y-28513000D01*
X66977511Y-28513000D01*
X67079371Y-28485707D01*
X67170697Y-28432980D01*
X67245264Y-28358413D01*
X67297991Y-28267087D01*
X67325284Y-28165227D01*
X67325284Y-28059773D01*
X67297991Y-27957913D01*
X67296115Y-27954663D01*
X67291896Y-27947355D01*
X67275284Y-27885357D01*
X67275284Y-27513169D01*
X67294969Y-27446130D01*
X67311603Y-27425488D01*
X67782423Y-26954668D01*
X68302735Y-26434356D01*
X68348879Y-26354432D01*
X68354258Y-26334356D01*
X68372765Y-26265288D01*
X68372765Y-24455689D01*
X68381408Y-24426252D01*
X68387932Y-24396263D01*
X68391687Y-24391245D01*
X68392450Y-24388650D01*
X68409080Y-24368011D01*
X68479492Y-24297598D01*
X68535083Y-24265505D01*
X68546853Y-24262352D01*
X68638179Y-24209625D01*
X68712746Y-24135058D01*
X68765473Y-24043732D01*
X68792766Y-23941872D01*
X68792766Y-23836418D01*
X68765473Y-23734558D01*
X68712746Y-23643232D01*
X68638179Y-23568665D01*
X68546853Y-23515938D01*
X68444993Y-23488645D01*
X68339539Y-23488645D01*
X68237679Y-23515938D01*
X68237676Y-23515939D01*
X68146351Y-23568666D01*
X68071787Y-23643230D01*
X68019060Y-23734555D01*
X68019056Y-23734563D01*
X68015902Y-23746336D01*
X67983810Y-23801918D01*
X67741796Y-24043932D01*
X67741792Y-24043937D01*
X67696098Y-24123083D01*
X67695652Y-24123853D01*
X67686613Y-24157590D01*
X67671765Y-24213002D01*
X67671765Y-24213004D01*
X67671765Y-26022600D01*
X67652080Y-26089639D01*
X67635446Y-26110281D01*
X66644315Y-27101411D01*
X66644311Y-27101416D01*
X66598171Y-27181334D01*
X66598170Y-27181337D01*
X66574284Y-27270481D01*
X66574284Y-27885357D01*
X66574171Y-27885777D01*
X66574281Y-27886161D01*
X66569032Y-27921062D01*
X66564879Y-27934872D01*
X66551577Y-27957913D01*
X66524284Y-28059773D01*
X62222765Y-28059773D01*
X62222765Y-26465687D01*
X62242450Y-26398648D01*
X62259084Y-26378006D01*
X62302733Y-26334357D01*
X62302738Y-26334349D01*
X62327282Y-26291838D01*
X62348879Y-26254432D01*
X62372765Y-26165288D01*
X62372765Y-26073000D01*
X62348879Y-25983856D01*
X62333933Y-25957969D01*
X62302738Y-25903938D01*
X62302735Y-25903935D01*
X62302734Y-25903932D01*
X62237477Y-25838675D01*
X62237474Y-25838673D01*
X62237470Y-25838670D01*
X62157558Y-25792532D01*
X62157555Y-25792531D01*
X62157554Y-25792530D01*
X62157553Y-25792530D01*
X62068409Y-25768644D01*
X61976121Y-25768644D01*
X61886977Y-25792530D01*
X61886976Y-25792530D01*
X61886974Y-25792531D01*
X61886971Y-25792532D01*
X61807059Y-25838670D01*
X61807050Y-25838677D01*
X61741798Y-25903929D01*
X61741791Y-25903938D01*
X61695653Y-25983850D01*
X61695652Y-25983853D01*
X61695651Y-25983855D01*
X61695651Y-25983856D01*
X61671765Y-26073000D01*
X61671765Y-26165288D01*
X61686353Y-26219732D01*
X61695652Y-26254434D01*
X61695653Y-26254437D01*
X61741791Y-26334349D01*
X61741797Y-26334357D01*
X61785446Y-26378006D01*
X61818931Y-26439329D01*
X61821765Y-26465687D01*
X61821765Y-29205032D01*
X61802080Y-29272071D01*
X61749276Y-29317826D01*
X61729860Y-29324806D01*
X61696791Y-29333667D01*
X61675794Y-29339293D01*
X61675791Y-29339294D01*
X61584466Y-29392021D01*
X61509902Y-29466585D01*
X61457175Y-29557910D01*
X61457174Y-29557913D01*
X61429881Y-29659773D01*
X60922265Y-29659773D01*
X60922265Y-27969144D01*
X56522265Y-27969144D01*
X56522265Y-32569144D01*
X19360765Y-32569144D01*
X19360765Y-20047117D01*
X20871765Y-20047117D01*
X20871765Y-20291170D01*
X20907951Y-20519642D01*
X20909944Y-20532220D01*
X20985361Y-20764329D01*
X21069380Y-20929227D01*
X21096161Y-20981786D01*
X21239604Y-21179220D01*
X21239608Y-21179225D01*
X21412183Y-21351800D01*
X21412188Y-21351804D01*
X21521833Y-21431465D01*
X21609626Y-21495250D01*
X21827080Y-21606048D01*
X22059189Y-21681465D01*
X22300238Y-21719644D01*
X22300239Y-21719644D01*
X22544291Y-21719644D01*
X22544292Y-21719644D01*
X22785341Y-21681465D01*
X23017450Y-21606048D01*
X23234904Y-21495250D01*
X23432348Y-21351799D01*
X23604920Y-21179227D01*
X23748371Y-20981783D01*
X23859169Y-20764329D01*
X23905090Y-20623000D01*
X67621765Y-20623000D01*
X67621765Y-20715288D01*
X67634905Y-20764329D01*
X67645652Y-20804434D01*
X67645653Y-20804437D01*
X67691791Y-20884349D01*
X67691794Y-20884353D01*
X67691796Y-20884356D01*
X67757053Y-20949613D01*
X67757056Y-20949614D01*
X67757059Y-20949617D01*
X67836971Y-20995755D01*
X67836972Y-20995755D01*
X67836977Y-20995758D01*
X67926121Y-21019644D01*
X67926123Y-21019644D01*
X68018407Y-21019644D01*
X68018409Y-21019644D01*
X68107553Y-20995758D01*
X68187477Y-20949613D01*
X68231127Y-20905963D01*
X68292450Y-20872478D01*
X68318808Y-20869644D01*
X69328166Y-20869644D01*
X69328168Y-20869644D01*
X69401860Y-20839120D01*
X69885016Y-20355962D01*
X69946339Y-20322478D01*
X69972697Y-20319644D01*
X83987853Y-20319644D01*
X84054892Y-20339329D01*
X84075534Y-20355963D01*
X84335496Y-20615924D01*
X84558691Y-20839119D01*
X84596258Y-20854680D01*
X84636486Y-20881560D01*
X85760446Y-22005520D01*
X85793931Y-22066843D01*
X85796765Y-22093201D01*
X85796765Y-27147600D01*
X85777080Y-27214639D01*
X85760447Y-27235281D01*
X85691795Y-27303933D01*
X85691791Y-27303938D01*
X85645653Y-27383850D01*
X85645652Y-27383853D01*
X85645651Y-27383855D01*
X85645651Y-27383856D01*
X85621765Y-27473000D01*
X85621765Y-27565288D01*
X85641429Y-27638677D01*
X85645652Y-27654434D01*
X85645653Y-27654437D01*
X85691791Y-27734349D01*
X85691794Y-27734353D01*
X85691796Y-27734356D01*
X85757053Y-27799613D01*
X85757056Y-27799614D01*
X85757059Y-27799617D01*
X85836971Y-27845755D01*
X85836972Y-27845755D01*
X85836977Y-27845758D01*
X85926121Y-27869644D01*
X85926123Y-27869644D01*
X86018407Y-27869644D01*
X86018409Y-27869644D01*
X86107553Y-27845758D01*
X86187477Y-27799613D01*
X86252734Y-27734356D01*
X86298879Y-27654432D01*
X86322765Y-27565288D01*
X86322765Y-27473000D01*
X86298879Y-27383856D01*
X86298876Y-27383850D01*
X86252738Y-27303938D01*
X86252736Y-27303935D01*
X86252734Y-27303932D01*
X86187477Y-27238675D01*
X86187476Y-27238674D01*
X86184083Y-27235281D01*
X86150599Y-27173957D01*
X86147765Y-27147600D01*
X86147765Y-22018495D01*
X86147766Y-22018486D01*
X86147766Y-21934236D01*
X86147766Y-21934235D01*
X86121047Y-21869731D01*
X86121045Y-21869729D01*
X86121045Y-21869728D01*
X84884681Y-20633365D01*
X84857801Y-20593137D01*
X84842239Y-20555568D01*
X84235839Y-19949168D01*
X84162148Y-19918644D01*
X84162147Y-19918644D01*
X69878168Y-19918644D01*
X69798403Y-19918644D01*
X69776819Y-19927584D01*
X69776818Y-19927584D01*
X69713428Y-19953842D01*
X69713404Y-19953784D01*
X69708276Y-19958228D01*
X69683173Y-19961837D01*
X69658970Y-19969414D01*
X69649174Y-19966726D01*
X69639118Y-19968172D01*
X69616046Y-19957635D01*
X69591591Y-19950925D01*
X69584803Y-19943367D01*
X69575562Y-19939147D01*
X69561850Y-19917811D01*
X69544904Y-19898943D01*
X69542273Y-19887349D01*
X69537788Y-19880369D01*
X69532765Y-19845434D01*
X69532765Y-19797117D01*
X99821765Y-19797117D01*
X99821765Y-20041170D01*
X99858203Y-20271233D01*
X99859944Y-20282220D01*
X99935361Y-20514329D01*
X100037754Y-20715288D01*
X100046161Y-20731786D01*
X100189604Y-20929220D01*
X100189608Y-20929225D01*
X100362183Y-21101800D01*
X100362188Y-21101804D01*
X100468743Y-21179220D01*
X100559626Y-21245250D01*
X100777080Y-21356048D01*
X101009189Y-21431465D01*
X101250238Y-21469644D01*
X101250239Y-21469644D01*
X101494291Y-21469644D01*
X101494292Y-21469644D01*
X101735341Y-21431465D01*
X101967450Y-21356048D01*
X102184904Y-21245250D01*
X102382348Y-21101799D01*
X102554920Y-20929227D01*
X102698371Y-20731783D01*
X102809169Y-20514329D01*
X102884586Y-20282220D01*
X102922765Y-20041171D01*
X102922765Y-19797117D01*
X102884586Y-19556068D01*
X102809169Y-19323959D01*
X102698371Y-19106505D01*
X102611173Y-18986487D01*
X102554925Y-18909067D01*
X102554921Y-18909062D01*
X102382346Y-18736487D01*
X102382341Y-18736483D01*
X102184907Y-18593040D01*
X102184906Y-18593039D01*
X102184904Y-18593038D01*
X101967450Y-18482240D01*
X101735341Y-18406823D01*
X101735339Y-18406822D01*
X101735337Y-18406822D01*
X101567034Y-18380165D01*
X101494292Y-18368644D01*
X101250238Y-18368644D01*
X101194358Y-18377494D01*
X101009192Y-18406822D01*
X100777077Y-18482241D01*
X100559622Y-18593040D01*
X100362188Y-18736483D01*
X100362183Y-18736487D01*
X100189608Y-18909062D01*
X100189604Y-18909067D01*
X100046161Y-19106501D01*
X99935362Y-19323956D01*
X99859943Y-19556071D01*
X99821765Y-19797117D01*
X69532765Y-19797117D01*
X69532765Y-19413919D01*
X69532765Y-19413917D01*
X69505472Y-19312057D01*
X69452745Y-19220731D01*
X69378178Y-19146164D01*
X69286852Y-19093437D01*
X69184992Y-19066144D01*
X68864992Y-19066144D01*
X68759538Y-19066144D01*
X68657678Y-19093437D01*
X68657675Y-19093438D01*
X68566350Y-19146165D01*
X68491786Y-19220729D01*
X68439059Y-19312054D01*
X68439058Y-19312057D01*
X68411765Y-19413917D01*
X68411765Y-20063917D01*
X68411765Y-20169371D01*
X68439058Y-20271231D01*
X68445402Y-20282220D01*
X68445648Y-20282645D01*
X68447079Y-20288546D01*
X68451054Y-20293133D01*
X68455219Y-20322103D01*
X68462119Y-20350546D01*
X68460133Y-20356281D01*
X68460998Y-20362291D01*
X68448839Y-20388914D01*
X68439267Y-20416572D01*
X68434494Y-20420324D01*
X68431973Y-20425847D01*
X68407350Y-20441670D01*
X68384345Y-20459762D01*
X68376995Y-20461178D01*
X68373195Y-20463621D01*
X68338260Y-20468644D01*
X68318808Y-20468644D01*
X68251769Y-20448959D01*
X68231127Y-20432325D01*
X68187479Y-20388677D01*
X68187477Y-20388675D01*
X68187474Y-20388673D01*
X68187470Y-20388670D01*
X68107558Y-20342532D01*
X68107555Y-20342531D01*
X68107554Y-20342530D01*
X68107553Y-20342530D01*
X68018409Y-20318644D01*
X67926121Y-20318644D01*
X67836977Y-20342530D01*
X67836976Y-20342530D01*
X67836974Y-20342531D01*
X67836971Y-20342532D01*
X67757059Y-20388670D01*
X67757050Y-20388677D01*
X67691798Y-20453929D01*
X67691791Y-20453938D01*
X67645653Y-20533850D01*
X67645652Y-20533853D01*
X67645651Y-20533855D01*
X67645651Y-20533856D01*
X67621765Y-20623000D01*
X23905090Y-20623000D01*
X23934586Y-20532220D01*
X23972765Y-20291171D01*
X23972765Y-20047117D01*
X23934586Y-19806068D01*
X23859169Y-19573959D01*
X23748371Y-19356505D01*
X23649726Y-19220731D01*
X23604925Y-19159067D01*
X23604921Y-19159062D01*
X23432346Y-18986487D01*
X23432341Y-18986483D01*
X23234907Y-18843040D01*
X23234906Y-18843039D01*
X23234904Y-18843038D01*
X23017450Y-18732240D01*
X22946670Y-18709242D01*
X37131765Y-18709242D01*
X37131765Y-20429038D01*
X37131766Y-20429046D01*
X37137595Y-20458356D01*
X37159807Y-20491601D01*
X37176484Y-20502743D01*
X37193052Y-20513813D01*
X37193055Y-20513813D01*
X37193056Y-20513814D01*
X37202912Y-20515774D01*
X37222366Y-20519644D01*
X38942163Y-20519643D01*
X38971478Y-20513813D01*
X39004722Y-20491601D01*
X39026934Y-20458357D01*
X39032765Y-20429043D01*
X39032764Y-19413917D01*
X65311765Y-19413917D01*
X65311765Y-20063917D01*
X65311765Y-20169371D01*
X65339058Y-20271231D01*
X65391785Y-20362557D01*
X65466352Y-20437124D01*
X65557678Y-20489851D01*
X65659538Y-20517144D01*
X65659540Y-20517144D01*
X66084990Y-20517144D01*
X66084992Y-20517144D01*
X66186852Y-20489851D01*
X66278178Y-20437124D01*
X66352745Y-20362557D01*
X66405472Y-20271231D01*
X66432765Y-20169371D01*
X66432765Y-19413917D01*
X66405472Y-19312057D01*
X66352745Y-19220731D01*
X66278178Y-19146164D01*
X66186852Y-19093437D01*
X66084992Y-19066144D01*
X65764992Y-19066144D01*
X65659538Y-19066144D01*
X65557678Y-19093437D01*
X65557675Y-19093438D01*
X65466350Y-19146165D01*
X65391786Y-19220729D01*
X65339059Y-19312054D01*
X65339058Y-19312057D01*
X65311765Y-19413917D01*
X39032764Y-19413917D01*
X39032764Y-18709246D01*
X39026934Y-18679931D01*
X39026933Y-18679929D01*
X39004722Y-18646686D01*
X38971479Y-18624476D01*
X38971480Y-18624476D01*
X38971478Y-18624475D01*
X38971476Y-18624474D01*
X38971473Y-18624473D01*
X38942166Y-18618644D01*
X37222370Y-18618644D01*
X37222362Y-18618645D01*
X37193052Y-18624474D01*
X37159807Y-18646686D01*
X37137597Y-18679929D01*
X37137594Y-18679935D01*
X37131765Y-18709242D01*
X22946670Y-18709242D01*
X22785341Y-18656823D01*
X22785339Y-18656822D01*
X22785337Y-18656822D01*
X22581113Y-18624476D01*
X22544292Y-18618644D01*
X22300238Y-18618644D01*
X22263423Y-18624475D01*
X22059192Y-18656822D01*
X21827077Y-18732241D01*
X21609622Y-18843040D01*
X21412188Y-18986483D01*
X21412183Y-18986487D01*
X21239608Y-19159062D01*
X21239604Y-19159067D01*
X21096161Y-19356501D01*
X20985362Y-19573956D01*
X20909943Y-19806071D01*
X20871765Y-20047117D01*
X19360765Y-20047117D01*
X19360765Y-17243917D01*
X65311765Y-17243917D01*
X65311765Y-17893917D01*
X65311765Y-17999371D01*
X65339058Y-18101231D01*
X65391785Y-18192557D01*
X65466352Y-18267124D01*
X65557678Y-18319851D01*
X65659538Y-18347144D01*
X65659540Y-18347144D01*
X66084990Y-18347144D01*
X66084992Y-18347144D01*
X66186852Y-18319851D01*
X66278178Y-18267124D01*
X66352745Y-18192557D01*
X66405472Y-18101231D01*
X66432765Y-17999371D01*
X66432765Y-17243917D01*
X68411765Y-17243917D01*
X68411765Y-17893917D01*
X68411765Y-17999371D01*
X68439058Y-18101231D01*
X68491785Y-18192557D01*
X68566352Y-18267124D01*
X68657678Y-18319851D01*
X68759538Y-18347144D01*
X68759540Y-18347144D01*
X69184990Y-18347144D01*
X69184992Y-18347144D01*
X69286852Y-18319851D01*
X69378178Y-18267124D01*
X69452745Y-18192557D01*
X69505472Y-18101231D01*
X69532765Y-17999371D01*
X69532765Y-17243917D01*
X69505472Y-17142057D01*
X69452745Y-17050731D01*
X69378178Y-16976164D01*
X69286852Y-16923437D01*
X69184992Y-16896144D01*
X68864992Y-16896144D01*
X68759538Y-16896144D01*
X68657678Y-16923437D01*
X68657675Y-16923438D01*
X68566350Y-16976165D01*
X68491786Y-17050729D01*
X68439059Y-17142054D01*
X68439058Y-17142057D01*
X68411765Y-17243917D01*
X66432765Y-17243917D01*
X66405472Y-17142057D01*
X66352745Y-17050731D01*
X66278178Y-16976164D01*
X66186852Y-16923437D01*
X66084992Y-16896144D01*
X65764992Y-16896144D01*
X65659538Y-16896144D01*
X65557678Y-16923437D01*
X65557675Y-16923438D01*
X65466350Y-16976165D01*
X65391786Y-17050729D01*
X65339059Y-17142054D01*
X65339058Y-17142057D01*
X65311765Y-17243917D01*
X19360765Y-17243917D01*
X19360765Y-16443644D01*
X19380450Y-16376605D01*
X19433254Y-16330850D01*
X19484765Y-16319644D01*
X104159765Y-16319644D01*
X104226804Y-16339329D01*
G37*
%TD.AperFunction*%
%TD*%
M02*
