%TF.GenerationSoftware,KiCad,Pcbnew,9.0.3*%
%TF.CreationDate,2025-12-12T23:43:23+00:00*%
%TF.ProjectId,FPSP Camera,46505350-2043-4616-9d65-72612e6b6963,rev?*%
%TF.SameCoordinates,Original*%
%TF.FileFunction,Soldermask,Top*%
%TF.FilePolarity,Negative*%
%FSLAX46Y46*%
G04 Gerber Fmt 4.6, Leading zero omitted, Abs format (unit mm)*
G04 Created by KiCad (PCBNEW 9.0.3) date 2025-12-12 23:43:23*
%MOMM*%
%LPD*%
G01*
G04 APERTURE LIST*
G04 Aperture macros list*
%AMRoundRect*
0 Rectangle with rounded corners*
0 $1 Rounding radius*
0 $2 $3 $4 $5 $6 $7 $8 $9 X,Y pos of 4 corners*
0 Add a 4 corners polygon primitive as box body*
4,1,4,$2,$3,$4,$5,$6,$7,$8,$9,$2,$3,0*
0 Add four circle primitives for the rounded corners*
1,1,$1+$1,$2,$3*
1,1,$1+$1,$4,$5*
1,1,$1+$1,$6,$7*
1,1,$1+$1,$8,$9*
0 Add four rect primitives between the rounded corners*
20,1,$1+$1,$2,$3,$4,$5,0*
20,1,$1+$1,$4,$5,$6,$7,0*
20,1,$1+$1,$6,$7,$8,$9,0*
20,1,$1+$1,$8,$9,$2,$3,0*%
%AMFreePoly0*
4,1,23,0.500000,-0.750000,0.000000,-0.750000,0.000000,-0.745722,-0.065263,-0.745722,-0.191342,-0.711940,-0.304381,-0.646677,-0.396677,-0.554381,-0.461940,-0.441342,-0.495722,-0.315263,-0.495722,-0.250000,-0.500000,-0.250000,-0.500000,0.250000,-0.495722,0.250000,-0.495722,0.315263,-0.461940,0.441342,-0.396677,0.554381,-0.304381,0.646677,-0.191342,0.711940,-0.065263,0.745722,0.000000,0.745722,
0.000000,0.750000,0.500000,0.750000,0.500000,-0.750000,0.500000,-0.750000,$1*%
%AMFreePoly1*
4,1,23,0.000000,0.745722,0.065263,0.745722,0.191342,0.711940,0.304381,0.646677,0.396677,0.554381,0.461940,0.441342,0.495722,0.315263,0.495722,0.250000,0.500000,0.250000,0.500000,-0.250000,0.495722,-0.250000,0.495722,-0.315263,0.461940,-0.441342,0.396677,-0.554381,0.304381,-0.646677,0.191342,-0.711940,0.065263,-0.745722,0.000000,-0.745722,0.000000,-0.750000,-0.500000,-0.750000,
-0.500000,0.750000,0.000000,0.750000,0.000000,0.745722,0.000000,0.745722,$1*%
%AMFreePoly2*
4,1,18,-0.437500,0.050000,-0.433694,0.069134,-0.422855,0.085355,-0.406634,0.096194,-0.387500,0.100000,0.387500,0.100000,0.437500,0.050000,0.437500,-0.050000,0.433694,-0.069134,0.422855,-0.085355,0.406634,-0.096194,0.387500,-0.100000,-0.387500,-0.100000,-0.406634,-0.096194,-0.422855,-0.085355,-0.433694,-0.069134,-0.437500,-0.050000,-0.437500,0.050000,-0.437500,0.050000,$1*%
%AMFreePoly3*
4,1,18,-0.437500,0.050000,-0.433694,0.069134,-0.422855,0.085355,-0.406634,0.096194,-0.387500,0.100000,0.387500,0.100000,0.406634,0.096194,0.422855,0.085355,0.433694,0.069134,0.437500,0.050000,0.437500,-0.050000,0.387500,-0.100000,-0.387500,-0.100000,-0.406634,-0.096194,-0.422855,-0.085355,-0.433694,-0.069134,-0.437500,-0.050000,-0.437500,0.050000,-0.437500,0.050000,$1*%
%AMFreePoly4*
4,1,18,-0.100000,0.387500,-0.050000,0.437500,0.050000,0.437500,0.069134,0.433694,0.085355,0.422855,0.096194,0.406634,0.100000,0.387500,0.100000,-0.387500,0.096194,-0.406634,0.085355,-0.422855,0.069134,-0.433694,0.050000,-0.437500,-0.050000,-0.437500,-0.069134,-0.433694,-0.085355,-0.422855,-0.096194,-0.406634,-0.100000,-0.387500,-0.100000,0.387500,-0.100000,0.387500,$1*%
%AMFreePoly5*
4,1,18,-0.100000,0.387500,-0.096194,0.406634,-0.085355,0.422855,-0.069134,0.433694,-0.050000,0.437500,0.050000,0.437500,0.100000,0.387500,0.100000,-0.387500,0.096194,-0.406634,0.085355,-0.422855,0.069134,-0.433694,0.050000,-0.437500,-0.050000,-0.437500,-0.069134,-0.433694,-0.085355,-0.422855,-0.096194,-0.406634,-0.100000,-0.387500,-0.100000,0.387500,-0.100000,0.387500,$1*%
%AMFreePoly6*
4,1,18,-0.437500,0.050000,-0.433694,0.069134,-0.422855,0.085355,-0.406634,0.096194,-0.387500,0.100000,0.387500,0.100000,0.406634,0.096194,0.422855,0.085355,0.433694,0.069134,0.437500,0.050000,0.437500,-0.050000,0.433694,-0.069134,0.422855,-0.085355,0.406634,-0.096194,0.387500,-0.100000,-0.387500,-0.100000,-0.437500,-0.050000,-0.437500,0.050000,-0.437500,0.050000,$1*%
%AMFreePoly7*
4,1,18,-0.437500,0.050000,-0.387500,0.100000,0.387500,0.100000,0.406634,0.096194,0.422855,0.085355,0.433694,0.069134,0.437500,0.050000,0.437500,-0.050000,0.433694,-0.069134,0.422855,-0.085355,0.406634,-0.096194,0.387500,-0.100000,-0.387500,-0.100000,-0.406634,-0.096194,-0.422855,-0.085355,-0.433694,-0.069134,-0.437500,-0.050000,-0.437500,0.050000,-0.437500,0.050000,$1*%
%AMFreePoly8*
4,1,18,-0.100000,0.387500,-0.096194,0.406634,-0.085355,0.422855,-0.069134,0.433694,-0.050000,0.437500,0.050000,0.437500,0.069134,0.433694,0.085355,0.422855,0.096194,0.406634,0.100000,0.387500,0.100000,-0.387500,0.050000,-0.437500,-0.050000,-0.437500,-0.069134,-0.433694,-0.085355,-0.422855,-0.096194,-0.406634,-0.100000,-0.387500,-0.100000,0.387500,-0.100000,0.387500,$1*%
%AMFreePoly9*
4,1,18,-0.100000,0.387500,-0.096194,0.406634,-0.085355,0.422855,-0.069134,0.433694,-0.050000,0.437500,0.050000,0.437500,0.069134,0.433694,0.085355,0.422855,0.096194,0.406634,0.100000,0.387500,0.100000,-0.387500,0.096194,-0.406634,0.085355,-0.422855,0.069134,-0.433694,0.050000,-0.437500,-0.050000,-0.437500,-0.100000,-0.387500,-0.100000,0.387500,-0.100000,0.387500,$1*%
G04 Aperture macros list end*
%ADD10C,0.010000*%
%ADD11RoundRect,0.140000X-0.170000X0.140000X-0.170000X-0.140000X0.170000X-0.140000X0.170000X0.140000X0*%
%ADD12RoundRect,0.140000X0.140000X0.170000X-0.140000X0.170000X-0.140000X-0.170000X0.140000X-0.170000X0*%
%ADD13RoundRect,0.135000X-0.185000X0.135000X-0.185000X-0.135000X0.185000X-0.135000X0.185000X0.135000X0*%
%ADD14RoundRect,0.135000X-0.135000X-0.185000X0.135000X-0.185000X0.135000X0.185000X-0.135000X0.185000X0*%
%ADD15R,0.700000X1.700000*%
%ADD16RoundRect,0.093750X-0.093750X-0.106250X0.093750X-0.106250X0.093750X0.106250X-0.093750X0.106250X0*%
%ADD17R,1.000000X1.600000*%
%ADD18FreePoly0,180.000000*%
%ADD19FreePoly1,180.000000*%
%ADD20C,2.700000*%
%ADD21RoundRect,0.135000X0.185000X-0.135000X0.185000X0.135000X-0.185000X0.135000X-0.185000X-0.135000X0*%
%ADD22RoundRect,0.140000X0.170000X-0.140000X0.170000X0.140000X-0.170000X0.140000X-0.170000X-0.140000X0*%
%ADD23RoundRect,0.135000X0.135000X0.185000X-0.135000X0.185000X-0.135000X-0.185000X0.135000X-0.185000X0*%
%ADD24RoundRect,0.140000X-0.140000X-0.170000X0.140000X-0.170000X0.140000X0.170000X-0.140000X0.170000X0*%
%ADD25FreePoly2,0.000000*%
%ADD26RoundRect,0.050000X-0.387500X-0.050000X0.387500X-0.050000X0.387500X0.050000X-0.387500X0.050000X0*%
%ADD27FreePoly3,0.000000*%
%ADD28FreePoly4,0.000000*%
%ADD29RoundRect,0.050000X-0.050000X-0.387500X0.050000X-0.387500X0.050000X0.387500X-0.050000X0.387500X0*%
%ADD30FreePoly5,0.000000*%
%ADD31FreePoly6,0.000000*%
%ADD32FreePoly7,0.000000*%
%ADD33FreePoly8,0.000000*%
%ADD34FreePoly9,0.000000*%
%ADD35RoundRect,0.153000X1.547000X-1.547000X1.547000X1.547000X-1.547000X1.547000X-1.547000X-1.547000X0*%
%ADD36RoundRect,0.218750X-0.218750X-0.256250X0.218750X-0.256250X0.218750X0.256250X-0.218750X0.256250X0*%
%ADD37R,1.700000X1.700000*%
%ADD38C,1.700000*%
%ADD39RoundRect,0.250000X-0.300000X-0.250000X0.300000X-0.250000X0.300000X0.250000X-0.300000X0.250000X0*%
%ADD40C,1.000000*%
%ADD41FreePoly0,0.000000*%
%ADD42FreePoly1,0.000000*%
%ADD43R,0.220000X0.475000*%
%ADD44RoundRect,0.160000X-0.160000X0.197500X-0.160000X-0.197500X0.160000X-0.197500X0.160000X0.197500X0*%
G04 APERTURE END LIST*
%TO.C,JP2*%
G36*
X73472265Y-42919144D02*
G01*
X73172265Y-42919144D01*
X73172265Y-41419144D01*
X73472265Y-41419144D01*
X73472265Y-42919144D01*
G37*
%TO.C,JP3*%
G36*
X79622265Y-24019144D02*
G01*
X79922265Y-24019144D01*
X79922265Y-25519144D01*
X79622265Y-25519144D01*
X79622265Y-24019144D01*
G37*
%TO.C,JP1*%
G36*
X62272265Y-20169144D02*
G01*
X61972265Y-20169144D01*
X61972265Y-18669144D01*
X62272265Y-18669144D01*
X62272265Y-20169144D01*
G37*
D10*
%TO.C,U1*%
X58047265Y-29994144D02*
X57472265Y-29994144D01*
X57472265Y-29644144D01*
X58047265Y-29644144D01*
X58047265Y-29994144D01*
G36*
X58047265Y-29994144D02*
G01*
X57472265Y-29994144D01*
X57472265Y-29644144D01*
X58047265Y-29644144D01*
X58047265Y-29994144D01*
G37*
X58047265Y-30494144D02*
X57472265Y-30494144D01*
X57472265Y-30144144D01*
X58047265Y-30144144D01*
X58047265Y-30494144D01*
G36*
X58047265Y-30494144D02*
G01*
X57472265Y-30494144D01*
X57472265Y-30144144D01*
X58047265Y-30144144D01*
X58047265Y-30494144D01*
G37*
X58047265Y-30994144D02*
X57472265Y-30994144D01*
X57472265Y-30644144D01*
X58047265Y-30644144D01*
X58047265Y-30994144D01*
G36*
X58047265Y-30994144D02*
G01*
X57472265Y-30994144D01*
X57472265Y-30644144D01*
X58047265Y-30644144D01*
X58047265Y-30994144D01*
G37*
X58097265Y-29444144D02*
X57747265Y-29444144D01*
X57747265Y-28869144D01*
X58097265Y-28869144D01*
X58097265Y-29444144D01*
G36*
X58097265Y-29444144D02*
G01*
X57747265Y-29444144D01*
X57747265Y-28869144D01*
X58097265Y-28869144D01*
X58097265Y-29444144D01*
G37*
X58097265Y-31769144D02*
X57747265Y-31769144D01*
X57747265Y-31194144D01*
X58097265Y-31194144D01*
X58097265Y-31769144D01*
G36*
X58097265Y-31769144D02*
G01*
X57747265Y-31769144D01*
X57747265Y-31194144D01*
X58097265Y-31194144D01*
X58097265Y-31769144D01*
G37*
X58597265Y-29444144D02*
X58247265Y-29444144D01*
X58247265Y-28869144D01*
X58597265Y-28869144D01*
X58597265Y-29444144D01*
G36*
X58597265Y-29444144D02*
G01*
X58247265Y-29444144D01*
X58247265Y-28869144D01*
X58597265Y-28869144D01*
X58597265Y-29444144D01*
G37*
X58597265Y-31769144D02*
X58247265Y-31769144D01*
X58247265Y-31194144D01*
X58597265Y-31194144D01*
X58597265Y-31769144D01*
G36*
X58597265Y-31769144D02*
G01*
X58247265Y-31769144D01*
X58247265Y-31194144D01*
X58597265Y-31194144D01*
X58597265Y-31769144D01*
G37*
X59097265Y-29444144D02*
X58747265Y-29444144D01*
X58747265Y-28869144D01*
X59097265Y-28869144D01*
X59097265Y-29444144D01*
G36*
X59097265Y-29444144D02*
G01*
X58747265Y-29444144D01*
X58747265Y-28869144D01*
X59097265Y-28869144D01*
X59097265Y-29444144D01*
G37*
X59097265Y-31769144D02*
X58747265Y-31769144D01*
X58747265Y-31194144D01*
X59097265Y-31194144D01*
X59097265Y-31769144D01*
G36*
X59097265Y-31769144D02*
G01*
X58747265Y-31769144D01*
X58747265Y-31194144D01*
X59097265Y-31194144D01*
X59097265Y-31769144D01*
G37*
X59597265Y-29444144D02*
X59247265Y-29444144D01*
X59247265Y-28869144D01*
X59597265Y-28869144D01*
X59597265Y-29444144D01*
G36*
X59597265Y-29444144D02*
G01*
X59247265Y-29444144D01*
X59247265Y-28869144D01*
X59597265Y-28869144D01*
X59597265Y-29444144D01*
G37*
X59597265Y-31769144D02*
X59247265Y-31769144D01*
X59247265Y-31194144D01*
X59597265Y-31194144D01*
X59597265Y-31769144D01*
G36*
X59597265Y-31769144D02*
G01*
X59247265Y-31769144D01*
X59247265Y-31194144D01*
X59597265Y-31194144D01*
X59597265Y-31769144D01*
G37*
X59872265Y-29994144D02*
X59297265Y-29994144D01*
X59297265Y-29644144D01*
X59872265Y-29644144D01*
X59872265Y-29994144D01*
G36*
X59872265Y-29994144D02*
G01*
X59297265Y-29994144D01*
X59297265Y-29644144D01*
X59872265Y-29644144D01*
X59872265Y-29994144D01*
G37*
X59872265Y-30494144D02*
X59297265Y-30494144D01*
X59297265Y-30144144D01*
X59872265Y-30144144D01*
X59872265Y-30494144D01*
G36*
X59872265Y-30494144D02*
G01*
X59297265Y-30494144D01*
X59297265Y-30144144D01*
X59872265Y-30144144D01*
X59872265Y-30494144D01*
G37*
X59872265Y-30994144D02*
X59297265Y-30994144D01*
X59297265Y-30644144D01*
X59872265Y-30644144D01*
X59872265Y-30994144D01*
G36*
X59872265Y-30994144D02*
G01*
X59297265Y-30994144D01*
X59297265Y-30644144D01*
X59872265Y-30644144D01*
X59872265Y-30994144D01*
G37*
%TD*%
D11*
%TO.C,C12*%
X65222265Y-37879144D03*
X65222265Y-38839144D03*
%TD*%
%TO.C,C5*%
X67222265Y-37859144D03*
X67222265Y-38819144D03*
%TD*%
D12*
%TO.C,C1*%
X56002265Y-29459144D03*
X55042265Y-29459144D03*
%TD*%
D13*
%TO.C,R10*%
X66222265Y-37829144D03*
X66222265Y-38849144D03*
%TD*%
D14*
%TO.C,R17*%
X79912265Y-30919144D03*
X80932265Y-30919144D03*
%TD*%
D15*
%TO.C,L1*%
X68572265Y-22019144D03*
X69972265Y-22019144D03*
%TD*%
D16*
%TO.C,U6*%
X35734765Y-35169144D03*
X35734765Y-35819144D03*
X35734765Y-36469144D03*
X37509765Y-36469144D03*
X37509765Y-35819144D03*
X37509765Y-35169144D03*
D17*
X36622265Y-35819144D03*
%TD*%
D18*
%TO.C,JP2*%
X73972265Y-42169144D03*
D19*
X72672265Y-42169144D03*
%TD*%
D20*
%TO.C,H2*%
X22422265Y-43119144D03*
%TD*%
D11*
%TO.C,C26*%
X39222265Y-26489144D03*
X39222265Y-27449144D03*
%TD*%
D21*
%TO.C,R6*%
X63522265Y-22729144D03*
X63522265Y-21709144D03*
%TD*%
D14*
%TO.C,R11*%
X79892265Y-28919144D03*
X80912265Y-28919144D03*
%TD*%
D13*
%TO.C,R4*%
X67522265Y-21709144D03*
X67522265Y-22729144D03*
%TD*%
D22*
%TO.C,C9*%
X65522265Y-22699144D03*
X65522265Y-21739144D03*
%TD*%
D12*
%TO.C,C4*%
X61982265Y-26769144D03*
X61022265Y-26769144D03*
%TD*%
D14*
%TO.C,R13*%
X79892265Y-29919144D03*
X80912265Y-29919144D03*
%TD*%
D11*
%TO.C,C31*%
X34359765Y-35489144D03*
X34359765Y-36449144D03*
%TD*%
D23*
%TO.C,R21*%
X30432265Y-36019144D03*
X29412265Y-36019144D03*
%TD*%
D11*
%TO.C,C30*%
X39109765Y-35489144D03*
X39109765Y-36449144D03*
%TD*%
%TO.C,C17*%
X71522265Y-24039144D03*
X71522265Y-24999144D03*
%TD*%
D23*
%TO.C,R20*%
X30432265Y-33019144D03*
X29412265Y-33019144D03*
%TD*%
D24*
%TO.C,C18*%
X68792265Y-24769144D03*
X69752265Y-24769144D03*
%TD*%
D11*
%TO.C,C27*%
X34222265Y-26489144D03*
X34222265Y-27449144D03*
%TD*%
D16*
%TO.C,U4*%
X35834765Y-26419144D03*
X35834765Y-27069144D03*
X35834765Y-27719144D03*
X37609765Y-27719144D03*
X37609765Y-27069144D03*
X37609765Y-26419144D03*
D17*
X36722265Y-27069144D03*
%TD*%
D24*
%TO.C,C24*%
X79942265Y-27919144D03*
X80902265Y-27919144D03*
%TD*%
D11*
%TO.C,C25*%
X70193434Y-37836937D03*
X70193434Y-38796937D03*
%TD*%
D25*
%TO.C,U3*%
X63462500Y-27512500D03*
D26*
X63462500Y-27912500D03*
X63462500Y-28312500D03*
X63462500Y-28712500D03*
X63462500Y-29112500D03*
X63462500Y-29512500D03*
X63462500Y-29912500D03*
X63462500Y-30312500D03*
X63462500Y-30712500D03*
X63462500Y-31112500D03*
X63462500Y-31512500D03*
X63462500Y-31912500D03*
X63462500Y-32312500D03*
X63462500Y-32712500D03*
D27*
X63462500Y-33112500D03*
D28*
X64100000Y-33750000D03*
D29*
X64500000Y-33750000D03*
X64900000Y-33750000D03*
X65300000Y-33750000D03*
X65700000Y-33750000D03*
X66100000Y-33750000D03*
X66500000Y-33750000D03*
X66900000Y-33750000D03*
X67300000Y-33750000D03*
X67700000Y-33750000D03*
X68100000Y-33750000D03*
X68500000Y-33750000D03*
X68900000Y-33750000D03*
X69300000Y-33750000D03*
D30*
X69700000Y-33750000D03*
D31*
X70337500Y-33112500D03*
D26*
X70337500Y-32712500D03*
X70337500Y-32312500D03*
X70337500Y-31912500D03*
X70337500Y-31512500D03*
X70337500Y-31112500D03*
X70337500Y-30712500D03*
X70337500Y-30312500D03*
X70337500Y-29912500D03*
X70337500Y-29512500D03*
X70337500Y-29112500D03*
X70337500Y-28712500D03*
X70337500Y-28312500D03*
X70337500Y-27912500D03*
D32*
X70337500Y-27512500D03*
D33*
X69700000Y-26875000D03*
D29*
X69300000Y-26875000D03*
X68900000Y-26875000D03*
X68500000Y-26875000D03*
X68100000Y-26875000D03*
X67700000Y-26875000D03*
X67300000Y-26875000D03*
X66900000Y-26875000D03*
X66500000Y-26875000D03*
X66100000Y-26875000D03*
X65700000Y-26875000D03*
X65300000Y-26875000D03*
X64900000Y-26875000D03*
X64500000Y-26875000D03*
D34*
X64100000Y-26875000D03*
D35*
X66900000Y-30312500D03*
%TD*%
D36*
%TO.C,D4*%
X25884765Y-36019144D03*
X27459765Y-36019144D03*
%TD*%
%TO.C,D2*%
X25847265Y-30019144D03*
X27422265Y-30019144D03*
%TD*%
D23*
%TO.C,R16*%
X80932265Y-32919144D03*
X79912265Y-32919144D03*
%TD*%
D22*
%TO.C,C32*%
X78522265Y-30499144D03*
X78522265Y-29539144D03*
%TD*%
D16*
%TO.C,U5*%
X35834765Y-30719144D03*
X35834765Y-31369144D03*
X35834765Y-32019144D03*
X37609765Y-32019144D03*
X37609765Y-31369144D03*
X37609765Y-30719144D03*
D17*
X36722265Y-31369144D03*
%TD*%
D24*
%TO.C,C7*%
X74442265Y-28319144D03*
X75402265Y-28319144D03*
%TD*%
D36*
%TO.C,D3*%
X25884765Y-33019144D03*
X27459765Y-33019144D03*
%TD*%
D13*
%TO.C,R3*%
X66522265Y-21709144D03*
X66522265Y-22729144D03*
%TD*%
D24*
%TO.C,C23*%
X79942265Y-31919144D03*
X80902265Y-31919144D03*
%TD*%
D37*
%TO.C,J7*%
X38082265Y-19569144D03*
D38*
X40622265Y-19569144D03*
%TD*%
D21*
%TO.C,R2*%
X71522265Y-23029144D03*
X71522265Y-22009144D03*
%TD*%
D23*
%TO.C,R14*%
X80932265Y-33919144D03*
X79912265Y-33919144D03*
%TD*%
D11*
%TO.C,C11*%
X69222265Y-37859144D03*
X69222265Y-38819144D03*
%TD*%
D39*
%TO.C,Y1*%
X71828434Y-39121937D03*
X73728434Y-39121937D03*
X73728434Y-37621937D03*
X71828434Y-37621937D03*
%TD*%
D20*
%TO.C,H1*%
X22422265Y-20169144D03*
%TD*%
D40*
%TO.C,TP1*%
X72172265Y-19369144D03*
%TD*%
D23*
%TO.C,R18*%
X30432265Y-27019144D03*
X29412265Y-27019144D03*
%TD*%
D24*
%TO.C,C19*%
X68792265Y-23769144D03*
X69752265Y-23769144D03*
%TD*%
%TO.C,C8*%
X74442265Y-27319144D03*
X75402265Y-27319144D03*
%TD*%
%TO.C,C3*%
X74442265Y-29319144D03*
X75402265Y-29319144D03*
%TD*%
D11*
%TO.C,C22*%
X78022265Y-34289144D03*
X78022265Y-35249144D03*
%TD*%
D23*
%TO.C,R12*%
X80932265Y-34919144D03*
X79912265Y-34919144D03*
%TD*%
D41*
%TO.C,JP3*%
X79122265Y-24769144D03*
D42*
X80422265Y-24769144D03*
%TD*%
D20*
%TO.C,H4*%
X101372265Y-19919144D03*
%TD*%
D22*
%TO.C,C10*%
X64522265Y-22699144D03*
X64522265Y-21739144D03*
%TD*%
D12*
%TO.C,C13*%
X59382265Y-27519144D03*
X58422265Y-27519144D03*
%TD*%
D18*
%TO.C,JP1*%
X62772265Y-19419144D03*
D19*
X61472265Y-19419144D03*
%TD*%
D14*
%TO.C,R15*%
X69902265Y-41269144D03*
X70922265Y-41269144D03*
%TD*%
D43*
%TO.C,J3*%
X66972265Y-43519144D03*
X66972265Y-45944144D03*
X66572265Y-43519144D03*
X66572265Y-45944144D03*
X66172265Y-43519144D03*
X66172265Y-45944144D03*
X65772265Y-43519144D03*
X65772265Y-45944144D03*
X65372265Y-43519144D03*
X65372265Y-45944144D03*
X64972265Y-43519144D03*
X64972265Y-45944144D03*
X64572265Y-43519144D03*
X64572265Y-45944144D03*
%TD*%
D11*
%TO.C,C29*%
X34472265Y-30889144D03*
X34472265Y-31849144D03*
%TD*%
%TO.C,C21*%
X78522265Y-31539144D03*
X78522265Y-32499144D03*
%TD*%
D23*
%TO.C,R19*%
X30394765Y-30019144D03*
X29374765Y-30019144D03*
%TD*%
D43*
%TO.C,J2*%
X66822265Y-19919144D03*
X66822265Y-17494144D03*
X67222265Y-19919144D03*
X67222265Y-17494144D03*
X67622265Y-19919144D03*
X67622265Y-17494144D03*
X68022265Y-19919144D03*
X68022265Y-17494144D03*
%TD*%
D11*
%TO.C,C2*%
X58922265Y-33089144D03*
X58922265Y-34049144D03*
%TD*%
D14*
%TO.C,R9*%
X79912265Y-36019144D03*
X80932265Y-36019144D03*
%TD*%
D12*
%TO.C,C14*%
X60802265Y-34169144D03*
X59842265Y-34169144D03*
%TD*%
D36*
%TO.C,D1*%
X25884765Y-27019144D03*
X27459765Y-27019144D03*
%TD*%
D24*
%TO.C,C6*%
X74442265Y-30319144D03*
X75402265Y-30319144D03*
%TD*%
D11*
%TO.C,C28*%
X39222265Y-30876644D03*
X39222265Y-31836644D03*
%TD*%
%TO.C,C16*%
X57922265Y-33089144D03*
X57922265Y-34049144D03*
%TD*%
D44*
%TO.C,R1*%
X61422265Y-31921644D03*
X61422265Y-33116644D03*
%TD*%
D20*
%TO.C,H3*%
X101372265Y-42969144D03*
%TD*%
D12*
%TO.C,C15*%
X56002265Y-30569144D03*
X55042265Y-30569144D03*
%TD*%
M02*
