%TF.GenerationSoftware,KiCad,Pcbnew,9.0.6*%
%TF.CreationDate,2025-12-12T21:10:22+00:00*%
%TF.ProjectId,FPSP Camera,46505350-2043-4616-9d65-72612e6b6963,rev?*%
%TF.SameCoordinates,Original*%
%TF.FileFunction,Paste,Top*%
%TF.FilePolarity,Positive*%
%FSLAX46Y46*%
G04 Gerber Fmt 4.6, Leading zero omitted, Abs format (unit mm)*
G04 Created by KiCad (PCBNEW 9.0.6) date 2025-12-12 21:10:22*
%MOMM*%
%LPD*%
G01*
G04 APERTURE LIST*
G04 Aperture macros list*
%AMRoundRect*
0 Rectangle with rounded corners*
0 $1 Rounding radius*
0 $2 $3 $4 $5 $6 $7 $8 $9 X,Y pos of 4 corners*
0 Add a 4 corners polygon primitive as box body*
4,1,4,$2,$3,$4,$5,$6,$7,$8,$9,$2,$3,0*
0 Add four circle primitives for the rounded corners*
1,1,$1+$1,$2,$3*
1,1,$1+$1,$4,$5*
1,1,$1+$1,$6,$7*
1,1,$1+$1,$8,$9*
0 Add four rect primitives between the rounded corners*
20,1,$1+$1,$2,$3,$4,$5,0*
20,1,$1+$1,$4,$5,$6,$7,0*
20,1,$1+$1,$6,$7,$8,$9,0*
20,1,$1+$1,$8,$9,$2,$3,0*%
%AMFreePoly0*
4,1,18,-0.437500,0.050000,-0.433694,0.069134,-0.422855,0.085355,-0.406634,0.096194,-0.387500,0.100000,0.387500,0.100000,0.437500,0.050000,0.437500,-0.050000,0.433694,-0.069134,0.422855,-0.085355,0.406634,-0.096194,0.387500,-0.100000,-0.387500,-0.100000,-0.406634,-0.096194,-0.422855,-0.085355,-0.433694,-0.069134,-0.437500,-0.050000,-0.437500,0.050000,-0.437500,0.050000,$1*%
%AMFreePoly1*
4,1,18,-0.437500,0.050000,-0.433694,0.069134,-0.422855,0.085355,-0.406634,0.096194,-0.387500,0.100000,0.387500,0.100000,0.406634,0.096194,0.422855,0.085355,0.433694,0.069134,0.437500,0.050000,0.437500,-0.050000,0.387500,-0.100000,-0.387500,-0.100000,-0.406634,-0.096194,-0.422855,-0.085355,-0.433694,-0.069134,-0.437500,-0.050000,-0.437500,0.050000,-0.437500,0.050000,$1*%
%AMFreePoly2*
4,1,18,-0.100000,0.387500,-0.050000,0.437500,0.050000,0.437500,0.069134,0.433694,0.085355,0.422855,0.096194,0.406634,0.100000,0.387500,0.100000,-0.387500,0.096194,-0.406634,0.085355,-0.422855,0.069134,-0.433694,0.050000,-0.437500,-0.050000,-0.437500,-0.069134,-0.433694,-0.085355,-0.422855,-0.096194,-0.406634,-0.100000,-0.387500,-0.100000,0.387500,-0.100000,0.387500,$1*%
%AMFreePoly3*
4,1,18,-0.100000,0.387500,-0.096194,0.406634,-0.085355,0.422855,-0.069134,0.433694,-0.050000,0.437500,0.050000,0.437500,0.100000,0.387500,0.100000,-0.387500,0.096194,-0.406634,0.085355,-0.422855,0.069134,-0.433694,0.050000,-0.437500,-0.050000,-0.437500,-0.069134,-0.433694,-0.085355,-0.422855,-0.096194,-0.406634,-0.100000,-0.387500,-0.100000,0.387500,-0.100000,0.387500,$1*%
%AMFreePoly4*
4,1,18,-0.437500,0.050000,-0.433694,0.069134,-0.422855,0.085355,-0.406634,0.096194,-0.387500,0.100000,0.387500,0.100000,0.406634,0.096194,0.422855,0.085355,0.433694,0.069134,0.437500,0.050000,0.437500,-0.050000,0.433694,-0.069134,0.422855,-0.085355,0.406634,-0.096194,0.387500,-0.100000,-0.387500,-0.100000,-0.437500,-0.050000,-0.437500,0.050000,-0.437500,0.050000,$1*%
%AMFreePoly5*
4,1,18,-0.437500,0.050000,-0.387500,0.100000,0.387500,0.100000,0.406634,0.096194,0.422855,0.085355,0.433694,0.069134,0.437500,0.050000,0.437500,-0.050000,0.433694,-0.069134,0.422855,-0.085355,0.406634,-0.096194,0.387500,-0.100000,-0.387500,-0.100000,-0.406634,-0.096194,-0.422855,-0.085355,-0.433694,-0.069134,-0.437500,-0.050000,-0.437500,0.050000,-0.437500,0.050000,$1*%
%AMFreePoly6*
4,1,18,-0.100000,0.387500,-0.096194,0.406634,-0.085355,0.422855,-0.069134,0.433694,-0.050000,0.437500,0.050000,0.437500,0.069134,0.433694,0.085355,0.422855,0.096194,0.406634,0.100000,0.387500,0.100000,-0.387500,0.050000,-0.437500,-0.050000,-0.437500,-0.069134,-0.433694,-0.085355,-0.422855,-0.096194,-0.406634,-0.100000,-0.387500,-0.100000,0.387500,-0.100000,0.387500,$1*%
%AMFreePoly7*
4,1,18,-0.100000,0.387500,-0.096194,0.406634,-0.085355,0.422855,-0.069134,0.433694,-0.050000,0.437500,0.050000,0.437500,0.069134,0.433694,0.085355,0.422855,0.096194,0.406634,0.100000,0.387500,0.100000,-0.387500,0.096194,-0.406634,0.085355,-0.422855,0.069134,-0.433694,0.050000,-0.437500,-0.050000,-0.437500,-0.100000,-0.387500,-0.100000,0.387500,-0.100000,0.387500,$1*%
G04 Aperture macros list end*
%ADD10R,0.220000X0.550000*%
%ADD11RoundRect,0.140000X-0.170000X0.140000X-0.170000X-0.140000X0.170000X-0.140000X0.170000X0.140000X0*%
%ADD12RoundRect,0.140000X0.140000X0.170000X-0.140000X0.170000X-0.140000X-0.170000X0.140000X-0.170000X0*%
%ADD13RoundRect,0.135000X-0.185000X0.135000X-0.185000X-0.135000X0.185000X-0.135000X0.185000X0.135000X0*%
%ADD14RoundRect,0.135000X-0.135000X-0.185000X0.135000X-0.185000X0.135000X0.185000X-0.135000X0.185000X0*%
%ADD15R,0.700000X1.700000*%
%ADD16RoundRect,0.160000X-0.245000X-0.160000X0.245000X-0.160000X0.245000X0.160000X-0.245000X0.160000X0*%
%ADD17RoundRect,0.093750X-0.093750X-0.106250X0.093750X-0.106250X0.093750X0.106250X-0.093750X0.106250X0*%
%ADD18RoundRect,0.135000X0.185000X-0.135000X0.185000X0.135000X-0.185000X0.135000X-0.185000X-0.135000X0*%
%ADD19RoundRect,0.140000X0.170000X-0.140000X0.170000X0.140000X-0.170000X0.140000X-0.170000X-0.140000X0*%
%ADD20RoundRect,0.135000X0.135000X0.185000X-0.135000X0.185000X-0.135000X-0.185000X0.135000X-0.185000X0*%
%ADD21RoundRect,0.140000X-0.140000X-0.170000X0.140000X-0.170000X0.140000X0.170000X-0.140000X0.170000X0*%
%ADD22RoundRect,0.250000X-0.350000X-0.350000X0.350000X-0.350000X0.350000X0.350000X-0.350000X0.350000X0*%
%ADD23FreePoly0,0.000000*%
%ADD24RoundRect,0.050000X-0.387500X-0.050000X0.387500X-0.050000X0.387500X0.050000X-0.387500X0.050000X0*%
%ADD25FreePoly1,0.000000*%
%ADD26FreePoly2,0.000000*%
%ADD27RoundRect,0.050000X-0.050000X-0.387500X0.050000X-0.387500X0.050000X0.387500X-0.050000X0.387500X0*%
%ADD28FreePoly3,0.000000*%
%ADD29FreePoly4,0.000000*%
%ADD30FreePoly5,0.000000*%
%ADD31FreePoly6,0.000000*%
%ADD32FreePoly7,0.000000*%
%ADD33RoundRect,0.218750X-0.218750X-0.256250X0.218750X-0.256250X0.218750X0.256250X-0.218750X0.256250X0*%
%ADD34RoundRect,0.250000X-0.300000X-0.250000X0.300000X-0.250000X0.300000X0.250000X-0.300000X0.250000X0*%
%ADD35R,0.250000X0.475000*%
%ADD36R,0.475000X0.250000*%
%ADD37RoundRect,0.160000X-0.160000X0.197500X-0.160000X-0.197500X0.160000X-0.197500X0.160000X0.197500X0*%
G04 APERTURE END LIST*
D10*
%TO.C,J3*%
X64796265Y-44056644D03*
X65196265Y-44056644D03*
X65596265Y-44056644D03*
X65996265Y-44056644D03*
X66396265Y-44056644D03*
X64796265Y-46406644D03*
X67196265Y-44056644D03*
X67196265Y-46406644D03*
X66796265Y-44056644D03*
X66796265Y-46406644D03*
X66396265Y-46406644D03*
X65996265Y-46406644D03*
X65596265Y-46406644D03*
X65196265Y-46406644D03*
%TD*%
%TO.C,J2*%
X67446265Y-18031644D03*
X67046265Y-20381644D03*
X67046265Y-18031644D03*
X67446265Y-20381644D03*
X67846265Y-20381644D03*
X67846265Y-18031644D03*
X68246265Y-20381644D03*
X68246265Y-18031644D03*
%TD*%
D11*
%TO.C,C12*%
X65446265Y-38379144D03*
X65446265Y-39339144D03*
%TD*%
%TO.C,C5*%
X67446265Y-38359144D03*
X67446265Y-39319144D03*
%TD*%
D12*
%TO.C,C1*%
X56226265Y-29959144D03*
X55266265Y-29959144D03*
%TD*%
D13*
%TO.C,R10*%
X66446265Y-38329144D03*
X66446265Y-39349144D03*
%TD*%
D14*
%TO.C,R17*%
X80136265Y-31419144D03*
X81156265Y-31419144D03*
%TD*%
D15*
%TO.C,L1*%
X68796265Y-22519144D03*
X70196265Y-22519144D03*
%TD*%
D16*
%TO.C,U6*%
X36846265Y-35919144D03*
X36846265Y-36719144D03*
D17*
X35958765Y-35669144D03*
X35958765Y-36319144D03*
X35958765Y-36969144D03*
X37733765Y-36969144D03*
X37733765Y-36319144D03*
X37733765Y-35669144D03*
%TD*%
D11*
%TO.C,C26*%
X39446265Y-26989144D03*
X39446265Y-27949144D03*
%TD*%
D18*
%TO.C,R6*%
X63746265Y-23229144D03*
X63746265Y-22209144D03*
%TD*%
D14*
%TO.C,R11*%
X80116265Y-29419144D03*
X81136265Y-29419144D03*
%TD*%
D13*
%TO.C,R4*%
X67746265Y-22209144D03*
X67746265Y-23229144D03*
%TD*%
D19*
%TO.C,C9*%
X65746265Y-23199144D03*
X65746265Y-22239144D03*
%TD*%
D12*
%TO.C,C4*%
X62206265Y-27269144D03*
X61246265Y-27269144D03*
%TD*%
D14*
%TO.C,R13*%
X80116265Y-30419144D03*
X81136265Y-30419144D03*
%TD*%
D11*
%TO.C,C31*%
X34583765Y-35989144D03*
X34583765Y-36949144D03*
%TD*%
D20*
%TO.C,R21*%
X30656265Y-36519144D03*
X29636265Y-36519144D03*
%TD*%
D11*
%TO.C,C30*%
X39333765Y-35989144D03*
X39333765Y-36949144D03*
%TD*%
%TO.C,C17*%
X71746265Y-24539144D03*
X71746265Y-25499144D03*
%TD*%
D20*
%TO.C,R20*%
X30656265Y-33519144D03*
X29636265Y-33519144D03*
%TD*%
D21*
%TO.C,C18*%
X69016265Y-25269144D03*
X69976265Y-25269144D03*
%TD*%
D11*
%TO.C,C27*%
X34446265Y-26989144D03*
X34446265Y-27949144D03*
%TD*%
D16*
%TO.C,U4*%
X36946265Y-27169144D03*
X36946265Y-27969144D03*
D17*
X36058765Y-26919144D03*
X36058765Y-27569144D03*
X36058765Y-28219144D03*
X37833765Y-28219144D03*
X37833765Y-27569144D03*
X37833765Y-26919144D03*
%TD*%
D21*
%TO.C,C24*%
X80166265Y-28419144D03*
X81126265Y-28419144D03*
%TD*%
D11*
%TO.C,C25*%
X70417434Y-38336937D03*
X70417434Y-39296937D03*
%TD*%
D22*
%TO.C,U3*%
X66424000Y-30112500D03*
X66424000Y-31512500D03*
X67824000Y-30112500D03*
X67824000Y-31512500D03*
D23*
X63686500Y-28012500D03*
D24*
X63686500Y-28412500D03*
X63686500Y-28812500D03*
X63686500Y-29212500D03*
X63686500Y-29612500D03*
X63686500Y-30012500D03*
X63686500Y-30412500D03*
X63686500Y-30812500D03*
X63686500Y-31212500D03*
X63686500Y-31612500D03*
X63686500Y-32012500D03*
X63686500Y-32412500D03*
X63686500Y-32812500D03*
X63686500Y-33212500D03*
D25*
X63686500Y-33612500D03*
D26*
X64324000Y-34250000D03*
D27*
X64724000Y-34250000D03*
X65124000Y-34250000D03*
X65524000Y-34250000D03*
X65924000Y-34250000D03*
X66324000Y-34250000D03*
X66724000Y-34250000D03*
X67124000Y-34250000D03*
X67524000Y-34250000D03*
X67924000Y-34250000D03*
X68324000Y-34250000D03*
X68724000Y-34250000D03*
X69124000Y-34250000D03*
X69524000Y-34250000D03*
D28*
X69924000Y-34250000D03*
D29*
X70561500Y-33612500D03*
D24*
X70561500Y-33212500D03*
X70561500Y-32812500D03*
X70561500Y-32412500D03*
X70561500Y-32012500D03*
X70561500Y-31612500D03*
X70561500Y-31212500D03*
X70561500Y-30812500D03*
X70561500Y-30412500D03*
X70561500Y-30012500D03*
X70561500Y-29612500D03*
X70561500Y-29212500D03*
X70561500Y-28812500D03*
X70561500Y-28412500D03*
D30*
X70561500Y-28012500D03*
D31*
X69924000Y-27375000D03*
D27*
X69524000Y-27375000D03*
X69124000Y-27375000D03*
X68724000Y-27375000D03*
X68324000Y-27375000D03*
X67924000Y-27375000D03*
X67524000Y-27375000D03*
X67124000Y-27375000D03*
X66724000Y-27375000D03*
X66324000Y-27375000D03*
X65924000Y-27375000D03*
X65524000Y-27375000D03*
X65124000Y-27375000D03*
X64724000Y-27375000D03*
D32*
X64324000Y-27375000D03*
%TD*%
D33*
%TO.C,D4*%
X26108765Y-36519144D03*
X27683765Y-36519144D03*
%TD*%
%TO.C,D2*%
X26071265Y-30519144D03*
X27646265Y-30519144D03*
%TD*%
D20*
%TO.C,R16*%
X81156265Y-33419144D03*
X80136265Y-33419144D03*
%TD*%
D19*
%TO.C,C32*%
X78746265Y-30999144D03*
X78746265Y-30039144D03*
%TD*%
D16*
%TO.C,U5*%
X36946265Y-31469144D03*
X36946265Y-32269144D03*
D17*
X36058765Y-31219144D03*
X36058765Y-31869144D03*
X36058765Y-32519144D03*
X37833765Y-32519144D03*
X37833765Y-31869144D03*
X37833765Y-31219144D03*
%TD*%
D21*
%TO.C,C7*%
X74666265Y-28819144D03*
X75626265Y-28819144D03*
%TD*%
D33*
%TO.C,D3*%
X26108765Y-33519144D03*
X27683765Y-33519144D03*
%TD*%
D13*
%TO.C,R3*%
X66746265Y-22209144D03*
X66746265Y-23229144D03*
%TD*%
D21*
%TO.C,C23*%
X80166265Y-32419144D03*
X81126265Y-32419144D03*
%TD*%
D18*
%TO.C,R2*%
X71746265Y-23529144D03*
X71746265Y-22509144D03*
%TD*%
D20*
%TO.C,R14*%
X81156265Y-34419144D03*
X80136265Y-34419144D03*
%TD*%
D11*
%TO.C,C11*%
X69446265Y-38359144D03*
X69446265Y-39319144D03*
%TD*%
D34*
%TO.C,Y1*%
X72052434Y-39621937D03*
X73952434Y-39621937D03*
X73952434Y-38121937D03*
X72052434Y-38121937D03*
%TD*%
D20*
%TO.C,R18*%
X30656265Y-27519144D03*
X29636265Y-27519144D03*
%TD*%
D21*
%TO.C,C19*%
X69016265Y-24269144D03*
X69976265Y-24269144D03*
%TD*%
%TO.C,C8*%
X74666265Y-27819144D03*
X75626265Y-27819144D03*
%TD*%
%TO.C,C3*%
X74666265Y-29819144D03*
X75626265Y-29819144D03*
%TD*%
D11*
%TO.C,C22*%
X78246265Y-34789144D03*
X78246265Y-35749144D03*
%TD*%
D20*
%TO.C,R12*%
X81156265Y-35419144D03*
X80136265Y-35419144D03*
%TD*%
D19*
%TO.C,C10*%
X64746265Y-23199144D03*
X64746265Y-22239144D03*
%TD*%
D12*
%TO.C,C13*%
X59606265Y-28019144D03*
X58646265Y-28019144D03*
%TD*%
D14*
%TO.C,R15*%
X70126265Y-41769144D03*
X71146265Y-41769144D03*
%TD*%
D35*
%TO.C,U1*%
X59646265Y-29656644D03*
X59146265Y-29656644D03*
X58646265Y-29656644D03*
X58146265Y-29656644D03*
D36*
X57983765Y-30319144D03*
X57983765Y-30819144D03*
X57983765Y-31319144D03*
D35*
X58146265Y-31981644D03*
X58646265Y-31981644D03*
X59146265Y-31981644D03*
X59646265Y-31981644D03*
D36*
X59808765Y-31319144D03*
X59808765Y-30819144D03*
X59808765Y-30319144D03*
%TD*%
D11*
%TO.C,C29*%
X34696265Y-31389144D03*
X34696265Y-32349144D03*
%TD*%
%TO.C,C21*%
X78746265Y-32039144D03*
X78746265Y-32999144D03*
%TD*%
D20*
%TO.C,R19*%
X30618765Y-30519144D03*
X29598765Y-30519144D03*
%TD*%
D11*
%TO.C,C2*%
X59146265Y-33589144D03*
X59146265Y-34549144D03*
%TD*%
D14*
%TO.C,R9*%
X80136265Y-36519144D03*
X81156265Y-36519144D03*
%TD*%
D12*
%TO.C,C14*%
X61026265Y-34669144D03*
X60066265Y-34669144D03*
%TD*%
D33*
%TO.C,D1*%
X26108765Y-27519144D03*
X27683765Y-27519144D03*
%TD*%
D21*
%TO.C,C6*%
X74666265Y-30819144D03*
X75626265Y-30819144D03*
%TD*%
D11*
%TO.C,C28*%
X39446265Y-31376644D03*
X39446265Y-32336644D03*
%TD*%
%TO.C,C16*%
X58146265Y-33589144D03*
X58146265Y-34549144D03*
%TD*%
D37*
%TO.C,R1*%
X61646265Y-32421644D03*
X61646265Y-33616644D03*
%TD*%
D12*
%TO.C,C15*%
X56226265Y-31069144D03*
X55266265Y-31069144D03*
%TD*%
M02*
