%TF.GenerationSoftware,KiCad,Pcbnew,9.0.3*%
%TF.CreationDate,2025-12-11T22:21:32+00:00*%
%TF.ProjectId,Connector_board,436f6e6e-6563-4746-9f72-5f626f617264,rev?*%
%TF.SameCoordinates,Original*%
%TF.FileFunction,Legend,Top*%
%TF.FilePolarity,Positive*%
%FSLAX46Y46*%
G04 Gerber Fmt 4.6, Leading zero omitted, Abs format (unit mm)*
G04 Created by KiCad (PCBNEW 9.0.3) date 2025-12-11 22:21:32*
%MOMM*%
%LPD*%
G01*
G04 APERTURE LIST*
%ADD10C,0.200000*%
%ADD11C,0.150000*%
%ADD12C,0.120000*%
G04 APERTURE END LIST*
D10*
X51169673Y-39367219D02*
X51169673Y-38367219D01*
X51836339Y-38367219D02*
X52026815Y-38367219D01*
X52026815Y-38367219D02*
X52122053Y-38414838D01*
X52122053Y-38414838D02*
X52217291Y-38510076D01*
X52217291Y-38510076D02*
X52264910Y-38700552D01*
X52264910Y-38700552D02*
X52264910Y-39033885D01*
X52264910Y-39033885D02*
X52217291Y-39224361D01*
X52217291Y-39224361D02*
X52122053Y-39319600D01*
X52122053Y-39319600D02*
X52026815Y-39367219D01*
X52026815Y-39367219D02*
X51836339Y-39367219D01*
X51836339Y-39367219D02*
X51741101Y-39319600D01*
X51741101Y-39319600D02*
X51645863Y-39224361D01*
X51645863Y-39224361D02*
X51598244Y-39033885D01*
X51598244Y-39033885D02*
X51598244Y-38700552D01*
X51598244Y-38700552D02*
X51645863Y-38510076D01*
X51645863Y-38510076D02*
X51741101Y-38414838D01*
X51741101Y-38414838D02*
X51836339Y-38367219D01*
X53217291Y-39367219D02*
X52645863Y-39367219D01*
X52931577Y-39367219D02*
X52931577Y-38367219D01*
X52931577Y-38367219D02*
X52836339Y-38510076D01*
X52836339Y-38510076D02*
X52741101Y-38605314D01*
X52741101Y-38605314D02*
X52645863Y-38652933D01*
X53645863Y-38986266D02*
X54407768Y-38986266D01*
X51069673Y-44417219D02*
X51069673Y-43417219D01*
X51736339Y-43417219D02*
X51926815Y-43417219D01*
X51926815Y-43417219D02*
X52022053Y-43464838D01*
X52022053Y-43464838D02*
X52117291Y-43560076D01*
X52117291Y-43560076D02*
X52164910Y-43750552D01*
X52164910Y-43750552D02*
X52164910Y-44083885D01*
X52164910Y-44083885D02*
X52117291Y-44274361D01*
X52117291Y-44274361D02*
X52022053Y-44369600D01*
X52022053Y-44369600D02*
X51926815Y-44417219D01*
X51926815Y-44417219D02*
X51736339Y-44417219D01*
X51736339Y-44417219D02*
X51641101Y-44369600D01*
X51641101Y-44369600D02*
X51545863Y-44274361D01*
X51545863Y-44274361D02*
X51498244Y-44083885D01*
X51498244Y-44083885D02*
X51498244Y-43750552D01*
X51498244Y-43750552D02*
X51545863Y-43560076D01*
X51545863Y-43560076D02*
X51641101Y-43464838D01*
X51641101Y-43464838D02*
X51736339Y-43417219D01*
X52545863Y-43512457D02*
X52593482Y-43464838D01*
X52593482Y-43464838D02*
X52688720Y-43417219D01*
X52688720Y-43417219D02*
X52926815Y-43417219D01*
X52926815Y-43417219D02*
X53022053Y-43464838D01*
X53022053Y-43464838D02*
X53069672Y-43512457D01*
X53069672Y-43512457D02*
X53117291Y-43607695D01*
X53117291Y-43607695D02*
X53117291Y-43702933D01*
X53117291Y-43702933D02*
X53069672Y-43845790D01*
X53069672Y-43845790D02*
X52498244Y-44417219D01*
X52498244Y-44417219D02*
X53117291Y-44417219D01*
X53545863Y-44036266D02*
X54307768Y-44036266D01*
X53926815Y-44417219D02*
X53926815Y-43655314D01*
X51169673Y-36867219D02*
X51169673Y-35867219D01*
X51169673Y-35867219D02*
X51550625Y-35867219D01*
X51550625Y-35867219D02*
X51645863Y-35914838D01*
X51645863Y-35914838D02*
X51693482Y-35962457D01*
X51693482Y-35962457D02*
X51741101Y-36057695D01*
X51741101Y-36057695D02*
X51741101Y-36200552D01*
X51741101Y-36200552D02*
X51693482Y-36295790D01*
X51693482Y-36295790D02*
X51645863Y-36343409D01*
X51645863Y-36343409D02*
X51550625Y-36391028D01*
X51550625Y-36391028D02*
X51169673Y-36391028D01*
X52360149Y-35867219D02*
X52550625Y-35867219D01*
X52550625Y-35867219D02*
X52645863Y-35914838D01*
X52645863Y-35914838D02*
X52741101Y-36010076D01*
X52741101Y-36010076D02*
X52788720Y-36200552D01*
X52788720Y-36200552D02*
X52788720Y-36533885D01*
X52788720Y-36533885D02*
X52741101Y-36724361D01*
X52741101Y-36724361D02*
X52645863Y-36819600D01*
X52645863Y-36819600D02*
X52550625Y-36867219D01*
X52550625Y-36867219D02*
X52360149Y-36867219D01*
X52360149Y-36867219D02*
X52264911Y-36819600D01*
X52264911Y-36819600D02*
X52169673Y-36724361D01*
X52169673Y-36724361D02*
X52122054Y-36533885D01*
X52122054Y-36533885D02*
X52122054Y-36200552D01*
X52122054Y-36200552D02*
X52169673Y-36010076D01*
X52169673Y-36010076D02*
X52264911Y-35914838D01*
X52264911Y-35914838D02*
X52360149Y-35867219D01*
X51119673Y-41867219D02*
X51119673Y-40867219D01*
X51786339Y-40867219D02*
X51976815Y-40867219D01*
X51976815Y-40867219D02*
X52072053Y-40914838D01*
X52072053Y-40914838D02*
X52167291Y-41010076D01*
X52167291Y-41010076D02*
X52214910Y-41200552D01*
X52214910Y-41200552D02*
X52214910Y-41533885D01*
X52214910Y-41533885D02*
X52167291Y-41724361D01*
X52167291Y-41724361D02*
X52072053Y-41819600D01*
X52072053Y-41819600D02*
X51976815Y-41867219D01*
X51976815Y-41867219D02*
X51786339Y-41867219D01*
X51786339Y-41867219D02*
X51691101Y-41819600D01*
X51691101Y-41819600D02*
X51595863Y-41724361D01*
X51595863Y-41724361D02*
X51548244Y-41533885D01*
X51548244Y-41533885D02*
X51548244Y-41200552D01*
X51548244Y-41200552D02*
X51595863Y-41010076D01*
X51595863Y-41010076D02*
X51691101Y-40914838D01*
X51691101Y-40914838D02*
X51786339Y-40867219D01*
X52595863Y-40962457D02*
X52643482Y-40914838D01*
X52643482Y-40914838D02*
X52738720Y-40867219D01*
X52738720Y-40867219D02*
X52976815Y-40867219D01*
X52976815Y-40867219D02*
X53072053Y-40914838D01*
X53072053Y-40914838D02*
X53119672Y-40962457D01*
X53119672Y-40962457D02*
X53167291Y-41057695D01*
X53167291Y-41057695D02*
X53167291Y-41152933D01*
X53167291Y-41152933D02*
X53119672Y-41295790D01*
X53119672Y-41295790D02*
X52548244Y-41867219D01*
X52548244Y-41867219D02*
X53167291Y-41867219D01*
X53595863Y-41486266D02*
X54357768Y-41486266D01*
X51069673Y-46967219D02*
X51069673Y-45967219D01*
X51736339Y-45967219D02*
X51926815Y-45967219D01*
X51926815Y-45967219D02*
X52022053Y-46014838D01*
X52022053Y-46014838D02*
X52117291Y-46110076D01*
X52117291Y-46110076D02*
X52164910Y-46300552D01*
X52164910Y-46300552D02*
X52164910Y-46633885D01*
X52164910Y-46633885D02*
X52117291Y-46824361D01*
X52117291Y-46824361D02*
X52022053Y-46919600D01*
X52022053Y-46919600D02*
X51926815Y-46967219D01*
X51926815Y-46967219D02*
X51736339Y-46967219D01*
X51736339Y-46967219D02*
X51641101Y-46919600D01*
X51641101Y-46919600D02*
X51545863Y-46824361D01*
X51545863Y-46824361D02*
X51498244Y-46633885D01*
X51498244Y-46633885D02*
X51498244Y-46300552D01*
X51498244Y-46300552D02*
X51545863Y-46110076D01*
X51545863Y-46110076D02*
X51641101Y-46014838D01*
X51641101Y-46014838D02*
X51736339Y-45967219D01*
X53117291Y-46967219D02*
X52545863Y-46967219D01*
X52831577Y-46967219D02*
X52831577Y-45967219D01*
X52831577Y-45967219D02*
X52736339Y-46110076D01*
X52736339Y-46110076D02*
X52641101Y-46205314D01*
X52641101Y-46205314D02*
X52545863Y-46252933D01*
X53545863Y-46586266D02*
X54307768Y-46586266D01*
X53926815Y-46967219D02*
X53926815Y-46205314D01*
D11*
X30316666Y-36004819D02*
X30316666Y-36719104D01*
X30316666Y-36719104D02*
X30269047Y-36861961D01*
X30269047Y-36861961D02*
X30173809Y-36957200D01*
X30173809Y-36957200D02*
X30030952Y-37004819D01*
X30030952Y-37004819D02*
X29935714Y-37004819D01*
X31269047Y-36004819D02*
X30792857Y-36004819D01*
X30792857Y-36004819D02*
X30745238Y-36481009D01*
X30745238Y-36481009D02*
X30792857Y-36433390D01*
X30792857Y-36433390D02*
X30888095Y-36385771D01*
X30888095Y-36385771D02*
X31126190Y-36385771D01*
X31126190Y-36385771D02*
X31221428Y-36433390D01*
X31221428Y-36433390D02*
X31269047Y-36481009D01*
X31269047Y-36481009D02*
X31316666Y-36576247D01*
X31316666Y-36576247D02*
X31316666Y-36814342D01*
X31316666Y-36814342D02*
X31269047Y-36909580D01*
X31269047Y-36909580D02*
X31221428Y-36957200D01*
X31221428Y-36957200D02*
X31126190Y-37004819D01*
X31126190Y-37004819D02*
X30888095Y-37004819D01*
X30888095Y-37004819D02*
X30792857Y-36957200D01*
X30792857Y-36957200D02*
X30745238Y-36909580D01*
X22683333Y-41204819D02*
X22350000Y-40728628D01*
X22111905Y-41204819D02*
X22111905Y-40204819D01*
X22111905Y-40204819D02*
X22492857Y-40204819D01*
X22492857Y-40204819D02*
X22588095Y-40252438D01*
X22588095Y-40252438D02*
X22635714Y-40300057D01*
X22635714Y-40300057D02*
X22683333Y-40395295D01*
X22683333Y-40395295D02*
X22683333Y-40538152D01*
X22683333Y-40538152D02*
X22635714Y-40633390D01*
X22635714Y-40633390D02*
X22588095Y-40681009D01*
X22588095Y-40681009D02*
X22492857Y-40728628D01*
X22492857Y-40728628D02*
X22111905Y-40728628D01*
X23635714Y-41204819D02*
X23064286Y-41204819D01*
X23350000Y-41204819D02*
X23350000Y-40204819D01*
X23350000Y-40204819D02*
X23254762Y-40347676D01*
X23254762Y-40347676D02*
X23159524Y-40442914D01*
X23159524Y-40442914D02*
X23064286Y-40490533D01*
X20266666Y-37104819D02*
X20266666Y-37819104D01*
X20266666Y-37819104D02*
X20219047Y-37961961D01*
X20219047Y-37961961D02*
X20123809Y-38057200D01*
X20123809Y-38057200D02*
X19980952Y-38104819D01*
X19980952Y-38104819D02*
X19885714Y-38104819D01*
X21266666Y-38104819D02*
X20695238Y-38104819D01*
X20980952Y-38104819D02*
X20980952Y-37104819D01*
X20980952Y-37104819D02*
X20885714Y-37247676D01*
X20885714Y-37247676D02*
X20790476Y-37342914D01*
X20790476Y-37342914D02*
X20695238Y-37390533D01*
X47121666Y-50884819D02*
X47121666Y-51599104D01*
X47121666Y-51599104D02*
X47074047Y-51741961D01*
X47074047Y-51741961D02*
X46978809Y-51837200D01*
X46978809Y-51837200D02*
X46835952Y-51884819D01*
X46835952Y-51884819D02*
X46740714Y-51884819D01*
X47502619Y-50884819D02*
X48121666Y-50884819D01*
X48121666Y-50884819D02*
X47788333Y-51265771D01*
X47788333Y-51265771D02*
X47931190Y-51265771D01*
X47931190Y-51265771D02*
X48026428Y-51313390D01*
X48026428Y-51313390D02*
X48074047Y-51361009D01*
X48074047Y-51361009D02*
X48121666Y-51456247D01*
X48121666Y-51456247D02*
X48121666Y-51694342D01*
X48121666Y-51694342D02*
X48074047Y-51789580D01*
X48074047Y-51789580D02*
X48026428Y-51837200D01*
X48026428Y-51837200D02*
X47931190Y-51884819D01*
X47931190Y-51884819D02*
X47645476Y-51884819D01*
X47645476Y-51884819D02*
X47550238Y-51837200D01*
X47550238Y-51837200D02*
X47502619Y-51789580D01*
D12*
%TO.C,J5*%
X24090000Y-35310000D02*
X24090000Y-37810000D01*
X24090000Y-37810000D02*
X25140000Y-37810000D01*
X28140000Y-33340000D02*
X25260000Y-33340000D01*
X28260000Y-37810000D02*
X28260000Y-38800000D01*
X29310000Y-35310000D02*
X29310000Y-37810000D01*
X29310000Y-37810000D02*
X28260000Y-37810000D01*
%TO.C,R1*%
X25172776Y-40327500D02*
X25682224Y-40327500D01*
X25172776Y-41372500D02*
X25682224Y-41372500D01*
%TO.C,J1*%
X17090000Y-39540000D02*
X17350000Y-39540000D01*
X17350000Y-47160000D02*
X17090000Y-47160000D01*
X19630000Y-39540000D02*
X21400000Y-39540000D01*
X21400000Y-39540000D02*
X21400000Y-39920000D01*
X21400000Y-47160000D02*
X19630000Y-47160000D01*
X21400000Y-47160000D02*
X21400000Y-46780000D01*
%TO.C,J3*%
X44805000Y-50430000D02*
X44805000Y-34970000D01*
X47455000Y-47780000D02*
X47455000Y-50430000D01*
X47455000Y-50430000D02*
X44805000Y-50430000D01*
X50105000Y-34970000D02*
X44805000Y-34970000D01*
X50105000Y-47780000D02*
X47455000Y-47780000D01*
X50105000Y-47780000D02*
X50105000Y-34970000D01*
X50105000Y-49050000D02*
X50105000Y-50430000D01*
X50105000Y-50430000D02*
X48725000Y-50430000D01*
%TO.C,D1*%
X28062500Y-41585000D02*
X30347500Y-41585000D01*
X30347500Y-40115000D02*
X28062500Y-40115000D01*
X30347500Y-41585000D02*
X30347500Y-40115000D01*
%TD*%
M02*
