%TF.GenerationSoftware,KiCad,Pcbnew,9.0.3*%
%TF.CreationDate,2025-12-11T22:21:32+00:00*%
%TF.ProjectId,Connector_board,436f6e6e-6563-4746-9f72-5f626f617264,rev?*%
%TF.SameCoordinates,Original*%
%TF.FileFunction,Profile,NP*%
%FSLAX46Y46*%
G04 Gerber Fmt 4.6, Leading zero omitted, Abs format (unit mm)*
G04 Created by KiCad (PCBNEW 9.0.3) date 2025-12-11 22:21:32*
%MOMM*%
%LPD*%
G01*
G04 APERTURE LIST*
%TA.AperFunction,Profile*%
%ADD10C,0.200000*%
%TD*%
%TA.AperFunction,Profile*%
%ADD11C,0.100000*%
%TD*%
G04 APERTURE END LIST*
D10*
X42300000Y-35700000D02*
G75*
G02*
X39300000Y-38700000I-3000000J0D01*
G01*
X36300000Y-49700000D02*
G75*
G02*
X39300000Y-46700000I3000000J0D01*
G01*
X45300000Y-52700000D02*
G75*
G02*
X42300000Y-49700000I0J3000000D01*
G01*
X36300000Y-49700000D02*
G75*
G02*
X33300000Y-52700000I-3000000J0D01*
G01*
X15300000Y-35700000D02*
X15300000Y-49700000D01*
X42300000Y-35700000D02*
G75*
G02*
X45300000Y-32700000I3000000J0D01*
G01*
X39300000Y-38700000D02*
G75*
G02*
X36300000Y-35700000I0J3000000D01*
G01*
X66450000Y-52700000D02*
X45300000Y-52700000D01*
X15300000Y-35700000D02*
G75*
G02*
X18300000Y-32700000I3000000J0D01*
G01*
X45300000Y-32700000D02*
X66450000Y-32700000D01*
X66450000Y-32700000D02*
G75*
G02*
X69450000Y-35700000I0J-3000000D01*
G01*
X69450000Y-35700000D02*
X69450000Y-49700000D01*
X18300000Y-52700000D02*
X33300000Y-52700000D01*
X33300000Y-32700000D02*
X18300000Y-32700000D01*
X18300000Y-52700000D02*
G75*
G02*
X15300000Y-49700000I0J3000000D01*
G01*
X39300000Y-46700000D02*
G75*
G02*
X42300000Y-49700000I0J-3000000D01*
G01*
X69450000Y-49700000D02*
G75*
G02*
X66450000Y-52700000I-3000000J0D01*
G01*
X33300000Y-32700000D02*
G75*
G02*
X36300000Y-35700000I0J-3000000D01*
G01*
D11*
%TO.C,J2*%
X34875000Y-40925000D02*
X35315000Y-40925000D01*
X34875000Y-41275000D02*
X34875000Y-40925000D01*
X34875000Y-44025000D02*
X35315000Y-44025000D01*
X34875000Y-44375000D02*
X34875000Y-44025000D01*
X35315000Y-40925000D02*
X35315000Y-41275000D01*
X35315000Y-41275000D02*
X34875000Y-41275000D01*
X35315000Y-44025000D02*
X35315000Y-44375000D01*
X35315000Y-44375000D02*
X34875000Y-44375000D01*
%TO.C,J4*%
X63735000Y-39725000D02*
X64175000Y-39725000D01*
X63735000Y-40075000D02*
X63735000Y-39725000D01*
X63735000Y-44025000D02*
X64175000Y-44025000D01*
X63735000Y-44375000D02*
X63735000Y-44025000D01*
X64175000Y-39725000D02*
X64175000Y-40075000D01*
X64175000Y-40075000D02*
X63735000Y-40075000D01*
X64175000Y-44025000D02*
X64175000Y-44375000D01*
X64175000Y-44375000D02*
X63735000Y-44375000D01*
%TD*%
M02*
