M48
; DRILL file {KiCad 9.0.3} date 2025-12-11T22:21:25+0000
; FORMAT={-:-/ absolute / inch / decimal}
; #@! TF.CreationDate,2025-12-11T22:21:25+00:00
; #@! TF.GenerationSoftware,Kicad,Pcbnew,9.0.3
; #@! TF.FileFunction,Plated,1,2,PTH
FMAT,2
INCH
; #@! TA.AperFunction,Plated,PTH,ViaDrill
T1C0.0118
; #@! TA.AperFunction,Plated,PTH,ViaDrill
T2C0.0315
; #@! TA.AperFunction,Plated,PTH,ComponentDrill
T3C0.0394
; #@! TA.AperFunction,Plated,PTH,ViaDrill
T4C0.0984
%
G90
G05
T1
X1.437Y-1.6339
X1.4606Y-1.6693
X1.4606Y-1.7165
X1.4626Y-1.6339
X2.5984Y-1.6476
X2.5984Y-1.7106
X2.6004Y-1.6142
X2.628Y-1.6575
X2.628Y-1.7028
T2
X1.5492Y-1.565
X1.5492Y-1.624
X1.5492Y-1.6811
X1.5492Y-1.7382
X1.5492Y-1.7953
T3
X1.8183Y-1.4311
X1.8183Y-1.5311
X1.8183Y-1.6311
X1.8183Y-1.7311
X1.8183Y-1.8311
X1.8183Y-1.9311
X1.9183Y-1.4311
X1.9183Y-1.5311
X1.9183Y-1.6311
X1.9183Y-1.7311
X1.9183Y-1.8311
X1.9183Y-1.9311
T4
X0.7106Y-1.3839
X0.7165Y-1.9941
X1.3189Y-1.9941
X1.3346Y-1.3819
X2.626Y-1.9902
X2.6319Y-1.376
M30
