%TF.GenerationSoftware,KiCad,Pcbnew,9.0.6*%
%TF.CreationDate,2025-12-12T16:25:11+00:00*%
%TF.ProjectId,FPSP Camera,46505350-2043-4616-9d65-72612e6b6963,rev?*%
%TF.SameCoordinates,Original*%
%TF.FileFunction,Copper,L1,Top*%
%TF.FilePolarity,Positive*%
%FSLAX46Y46*%
G04 Gerber Fmt 4.6, Leading zero omitted, Abs format (unit mm)*
G04 Created by KiCad (PCBNEW 9.0.6) date 2025-12-12 16:25:11*
%MOMM*%
%LPD*%
G01*
G04 APERTURE LIST*
G04 Aperture macros list*
%AMRoundRect*
0 Rectangle with rounded corners*
0 $1 Rounding radius*
0 $2 $3 $4 $5 $6 $7 $8 $9 X,Y pos of 4 corners*
0 Add a 4 corners polygon primitive as box body*
4,1,4,$2,$3,$4,$5,$6,$7,$8,$9,$2,$3,0*
0 Add four circle primitives for the rounded corners*
1,1,$1+$1,$2,$3*
1,1,$1+$1,$4,$5*
1,1,$1+$1,$6,$7*
1,1,$1+$1,$8,$9*
0 Add four rect primitives between the rounded corners*
20,1,$1+$1,$2,$3,$4,$5,0*
20,1,$1+$1,$4,$5,$6,$7,0*
20,1,$1+$1,$6,$7,$8,$9,0*
20,1,$1+$1,$8,$9,$2,$3,0*%
%AMFreePoly0*
4,1,23,0.500000,-0.750000,0.000000,-0.750000,0.000000,-0.745722,-0.065263,-0.745722,-0.191342,-0.711940,-0.304381,-0.646677,-0.396677,-0.554381,-0.461940,-0.441342,-0.495722,-0.315263,-0.495722,-0.250000,-0.500000,-0.250000,-0.500000,0.250000,-0.495722,0.250000,-0.495722,0.315263,-0.461940,0.441342,-0.396677,0.554381,-0.304381,0.646677,-0.191342,0.711940,-0.065263,0.745722,0.000000,0.745722,
0.000000,0.750000,0.500000,0.750000,0.500000,-0.750000,0.500000,-0.750000,$1*%
%AMFreePoly1*
4,1,23,0.000000,0.745722,0.065263,0.745722,0.191342,0.711940,0.304381,0.646677,0.396677,0.554381,0.461940,0.441342,0.495722,0.315263,0.495722,0.250000,0.500000,0.250000,0.500000,-0.250000,0.495722,-0.250000,0.495722,-0.315263,0.461940,-0.441342,0.396677,-0.554381,0.304381,-0.646677,0.191342,-0.711940,0.065263,-0.745722,0.000000,-0.745722,0.000000,-0.750000,-0.500000,-0.750000,
-0.500000,0.750000,0.000000,0.750000,0.000000,0.745722,0.000000,0.745722,$1*%
%AMFreePoly2*
4,1,18,-0.437500,0.050000,-0.433694,0.069134,-0.422855,0.085355,-0.406634,0.096194,-0.387500,0.100000,0.387500,0.100000,0.437500,0.050000,0.437500,-0.050000,0.433694,-0.069134,0.422855,-0.085355,0.406634,-0.096194,0.387500,-0.100000,-0.387500,-0.100000,-0.406634,-0.096194,-0.422855,-0.085355,-0.433694,-0.069134,-0.437500,-0.050000,-0.437500,0.050000,-0.437500,0.050000,$1*%
%AMFreePoly3*
4,1,18,-0.437500,0.050000,-0.433694,0.069134,-0.422855,0.085355,-0.406634,0.096194,-0.387500,0.100000,0.387500,0.100000,0.406634,0.096194,0.422855,0.085355,0.433694,0.069134,0.437500,0.050000,0.437500,-0.050000,0.387500,-0.100000,-0.387500,-0.100000,-0.406634,-0.096194,-0.422855,-0.085355,-0.433694,-0.069134,-0.437500,-0.050000,-0.437500,0.050000,-0.437500,0.050000,$1*%
%AMFreePoly4*
4,1,18,-0.100000,0.387500,-0.050000,0.437500,0.050000,0.437500,0.069134,0.433694,0.085355,0.422855,0.096194,0.406634,0.100000,0.387500,0.100000,-0.387500,0.096194,-0.406634,0.085355,-0.422855,0.069134,-0.433694,0.050000,-0.437500,-0.050000,-0.437500,-0.069134,-0.433694,-0.085355,-0.422855,-0.096194,-0.406634,-0.100000,-0.387500,-0.100000,0.387500,-0.100000,0.387500,$1*%
%AMFreePoly5*
4,1,18,-0.100000,0.387500,-0.096194,0.406634,-0.085355,0.422855,-0.069134,0.433694,-0.050000,0.437500,0.050000,0.437500,0.100000,0.387500,0.100000,-0.387500,0.096194,-0.406634,0.085355,-0.422855,0.069134,-0.433694,0.050000,-0.437500,-0.050000,-0.437500,-0.069134,-0.433694,-0.085355,-0.422855,-0.096194,-0.406634,-0.100000,-0.387500,-0.100000,0.387500,-0.100000,0.387500,$1*%
%AMFreePoly6*
4,1,18,-0.437500,0.050000,-0.433694,0.069134,-0.422855,0.085355,-0.406634,0.096194,-0.387500,0.100000,0.387500,0.100000,0.406634,0.096194,0.422855,0.085355,0.433694,0.069134,0.437500,0.050000,0.437500,-0.050000,0.433694,-0.069134,0.422855,-0.085355,0.406634,-0.096194,0.387500,-0.100000,-0.387500,-0.100000,-0.437500,-0.050000,-0.437500,0.050000,-0.437500,0.050000,$1*%
%AMFreePoly7*
4,1,18,-0.437500,0.050000,-0.387500,0.100000,0.387500,0.100000,0.406634,0.096194,0.422855,0.085355,0.433694,0.069134,0.437500,0.050000,0.437500,-0.050000,0.433694,-0.069134,0.422855,-0.085355,0.406634,-0.096194,0.387500,-0.100000,-0.387500,-0.100000,-0.406634,-0.096194,-0.422855,-0.085355,-0.433694,-0.069134,-0.437500,-0.050000,-0.437500,0.050000,-0.437500,0.050000,$1*%
%AMFreePoly8*
4,1,18,-0.100000,0.387500,-0.096194,0.406634,-0.085355,0.422855,-0.069134,0.433694,-0.050000,0.437500,0.050000,0.437500,0.069134,0.433694,0.085355,0.422855,0.096194,0.406634,0.100000,0.387500,0.100000,-0.387500,0.050000,-0.437500,-0.050000,-0.437500,-0.069134,-0.433694,-0.085355,-0.422855,-0.096194,-0.406634,-0.100000,-0.387500,-0.100000,0.387500,-0.100000,0.387500,$1*%
%AMFreePoly9*
4,1,18,-0.100000,0.387500,-0.096194,0.406634,-0.085355,0.422855,-0.069134,0.433694,-0.050000,0.437500,0.050000,0.437500,0.069134,0.433694,0.085355,0.422855,0.096194,0.406634,0.100000,0.387500,0.100000,-0.387500,0.096194,-0.406634,0.085355,-0.422855,0.069134,-0.433694,0.050000,-0.437500,-0.050000,-0.437500,-0.100000,-0.387500,-0.100000,0.387500,-0.100000,0.387500,$1*%
G04 Aperture macros list end*
%TA.AperFunction,SMDPad,CuDef*%
%ADD10RoundRect,0.140000X-0.170000X0.140000X-0.170000X-0.140000X0.170000X-0.140000X0.170000X0.140000X0*%
%TD*%
%TA.AperFunction,SMDPad,CuDef*%
%ADD11RoundRect,0.140000X0.140000X0.170000X-0.140000X0.170000X-0.140000X-0.170000X0.140000X-0.170000X0*%
%TD*%
%TA.AperFunction,SMDPad,CuDef*%
%ADD12RoundRect,0.135000X-0.185000X0.135000X-0.185000X-0.135000X0.185000X-0.135000X0.185000X0.135000X0*%
%TD*%
%TA.AperFunction,SMDPad,CuDef*%
%ADD13RoundRect,0.135000X-0.135000X-0.185000X0.135000X-0.185000X0.135000X0.185000X-0.135000X0.185000X0*%
%TD*%
%TA.AperFunction,SMDPad,CuDef*%
%ADD14R,0.700000X1.700000*%
%TD*%
%TA.AperFunction,SMDPad,CuDef*%
%ADD15RoundRect,0.093750X-0.093750X-0.106250X0.093750X-0.106250X0.093750X0.106250X-0.093750X0.106250X0*%
%TD*%
%TA.AperFunction,HeatsinkPad*%
%ADD16R,1.000000X1.600000*%
%TD*%
%TA.AperFunction,SMDPad,CuDef*%
%ADD17FreePoly0,180.000000*%
%TD*%
%TA.AperFunction,SMDPad,CuDef*%
%ADD18FreePoly1,180.000000*%
%TD*%
%TA.AperFunction,SMDPad,CuDef*%
%ADD19RoundRect,0.135000X0.185000X-0.135000X0.185000X0.135000X-0.185000X0.135000X-0.185000X-0.135000X0*%
%TD*%
%TA.AperFunction,SMDPad,CuDef*%
%ADD20RoundRect,0.140000X0.170000X-0.140000X0.170000X0.140000X-0.170000X0.140000X-0.170000X-0.140000X0*%
%TD*%
%TA.AperFunction,SMDPad,CuDef*%
%ADD21RoundRect,0.135000X0.135000X0.185000X-0.135000X0.185000X-0.135000X-0.185000X0.135000X-0.185000X0*%
%TD*%
%TA.AperFunction,SMDPad,CuDef*%
%ADD22RoundRect,0.140000X-0.140000X-0.170000X0.140000X-0.170000X0.140000X0.170000X-0.140000X0.170000X0*%
%TD*%
%TA.AperFunction,SMDPad,CuDef*%
%ADD23FreePoly2,0.000000*%
%TD*%
%TA.AperFunction,SMDPad,CuDef*%
%ADD24RoundRect,0.050000X-0.387500X-0.050000X0.387500X-0.050000X0.387500X0.050000X-0.387500X0.050000X0*%
%TD*%
%TA.AperFunction,SMDPad,CuDef*%
%ADD25FreePoly3,0.000000*%
%TD*%
%TA.AperFunction,SMDPad,CuDef*%
%ADD26FreePoly4,0.000000*%
%TD*%
%TA.AperFunction,SMDPad,CuDef*%
%ADD27RoundRect,0.050000X-0.050000X-0.387500X0.050000X-0.387500X0.050000X0.387500X-0.050000X0.387500X0*%
%TD*%
%TA.AperFunction,SMDPad,CuDef*%
%ADD28FreePoly5,0.000000*%
%TD*%
%TA.AperFunction,SMDPad,CuDef*%
%ADD29FreePoly6,0.000000*%
%TD*%
%TA.AperFunction,SMDPad,CuDef*%
%ADD30FreePoly7,0.000000*%
%TD*%
%TA.AperFunction,SMDPad,CuDef*%
%ADD31FreePoly8,0.000000*%
%TD*%
%TA.AperFunction,SMDPad,CuDef*%
%ADD32FreePoly9,0.000000*%
%TD*%
%TA.AperFunction,ComponentPad*%
%ADD33C,0.600000*%
%TD*%
%TA.AperFunction,SMDPad,CuDef*%
%ADD34RoundRect,0.153000X1.547000X-1.547000X1.547000X1.547000X-1.547000X1.547000X-1.547000X-1.547000X0*%
%TD*%
%TA.AperFunction,SMDPad,CuDef*%
%ADD35RoundRect,0.218750X-0.218750X-0.256250X0.218750X-0.256250X0.218750X0.256250X-0.218750X0.256250X0*%
%TD*%
%TA.AperFunction,ComponentPad*%
%ADD36R,1.700000X1.700000*%
%TD*%
%TA.AperFunction,ComponentPad*%
%ADD37C,1.700000*%
%TD*%
%TA.AperFunction,SMDPad,CuDef*%
%ADD38RoundRect,0.250000X-0.300000X-0.250000X0.300000X-0.250000X0.300000X0.250000X-0.300000X0.250000X0*%
%TD*%
%TA.AperFunction,SMDPad,CuDef*%
%ADD39C,1.000000*%
%TD*%
%TA.AperFunction,SMDPad,CuDef*%
%ADD40FreePoly0,0.000000*%
%TD*%
%TA.AperFunction,SMDPad,CuDef*%
%ADD41FreePoly1,0.000000*%
%TD*%
%TA.AperFunction,SMDPad,CuDef*%
%ADD42R,0.220000X0.475000*%
%TD*%
%TA.AperFunction,SMDPad,CuDef*%
%ADD43R,0.250000X0.475000*%
%TD*%
%TA.AperFunction,SMDPad,CuDef*%
%ADD44R,0.475000X0.250000*%
%TD*%
%TA.AperFunction,SMDPad,CuDef*%
%ADD45RoundRect,0.160000X-0.160000X0.197500X-0.160000X-0.197500X0.160000X-0.197500X0.160000X0.197500X0*%
%TD*%
%TA.AperFunction,ViaPad*%
%ADD46C,0.450000*%
%TD*%
%TA.AperFunction,Conductor*%
%ADD47C,0.500000*%
%TD*%
%TA.AperFunction,Conductor*%
%ADD48C,0.200000*%
%TD*%
%TA.AperFunction,Conductor*%
%ADD49C,0.300000*%
%TD*%
%TA.AperFunction,Conductor*%
%ADD50C,0.400000*%
%TD*%
%TA.AperFunction,Conductor*%
%ADD51C,0.150000*%
%TD*%
G04 APERTURE END LIST*
D10*
%TO.P,C12,1*%
%TO.N,+3.3V*%
X65446265Y-38379144D03*
%TO.P,C12,2*%
%TO.N,AGND*%
X65446265Y-39339144D03*
%TD*%
%TO.P,C5,1*%
%TO.N,+1V1*%
X67446265Y-38359144D03*
%TO.P,C5,2*%
%TO.N,AGND*%
X67446265Y-39319144D03*
%TD*%
D11*
%TO.P,C1,1*%
%TO.N,+3.3V*%
X56226265Y-29959144D03*
%TO.P,C1,2*%
%TO.N,AGND*%
X55266265Y-29959144D03*
%TD*%
D12*
%TO.P,R10,1*%
%TO.N,Net-(U3-XIN)*%
X66446265Y-38329144D03*
%TO.P,R10,2*%
%TO.N,/XIN_mem1*%
X66446265Y-39349144D03*
%TD*%
D13*
%TO.P,R17,1*%
%TO.N,PWDN_1*%
X80136265Y-31419144D03*
%TO.P,R17,2*%
%TO.N,AGND*%
X81156265Y-31419144D03*
%TD*%
D14*
%TO.P,L1,1,1*%
%TO.N,+1V1*%
X68796265Y-22519144D03*
%TO.P,L1,2,2*%
%TO.N,/VREG_LX_1*%
X70196265Y-22519144D03*
%TD*%
D15*
%TO.P,U6,1,OUT*%
%TO.N,+1V5*%
X35958765Y-35669144D03*
%TO.P,U6,2,NC*%
%TO.N,unconnected-(U6-NC-Pad2)*%
X35958765Y-36319144D03*
%TO.P,U6,3,GND*%
%TO.N,AGND*%
X35958765Y-36969144D03*
%TO.P,U6,4,EN*%
%TO.N,+3.3V*%
X37733765Y-36969144D03*
%TO.P,U6,5,NC*%
%TO.N,unconnected-(U6-NC-Pad5)*%
X37733765Y-36319144D03*
%TO.P,U6,6,IN*%
%TO.N,+3.3V*%
X37733765Y-35669144D03*
D16*
%TO.P,U6,7,GND*%
%TO.N,AGND*%
X36846265Y-36319144D03*
%TD*%
D17*
%TO.P,JP2,1,A*%
%TO.N,AGND*%
X74196265Y-42669144D03*
D18*
%TO.P,JP2,2,B*%
%TO.N,Net-(JP2-B)*%
X72896265Y-42669144D03*
%TD*%
D10*
%TO.P,C26,1*%
%TO.N,+5V*%
X39446265Y-26989144D03*
%TO.P,C26,2*%
%TO.N,AGND*%
X39446265Y-27949144D03*
%TD*%
D19*
%TO.P,R6,1*%
%TO.N,/QSPI_SS_1*%
X63746265Y-23229144D03*
%TO.P,R6,2*%
%TO.N,/~{USB_BOOT_1}*%
X63746265Y-22209144D03*
%TD*%
D13*
%TO.P,R11,1*%
%TO.N,/XCLK*%
X80116265Y-29419144D03*
%TO.P,R11,2*%
%TO.N,EXT_XCLK_1*%
X81136265Y-29419144D03*
%TD*%
D12*
%TO.P,R4,1*%
%TO.N,/USB_D1-*%
X67746265Y-22209144D03*
%TO.P,R4,2*%
%TO.N,Net-(U3-USB_DM)*%
X67746265Y-23229144D03*
%TD*%
D20*
%TO.P,C9,1*%
%TO.N,+3.3V*%
X65746265Y-23199144D03*
%TO.P,C9,2*%
%TO.N,AGND*%
X65746265Y-22239144D03*
%TD*%
D11*
%TO.P,C4,1*%
%TO.N,+1V1*%
X62206265Y-27269144D03*
%TO.P,C4,2*%
%TO.N,AGND*%
X61246265Y-27269144D03*
%TD*%
D13*
%TO.P,R13,1*%
%TO.N,/XCLK*%
X80116265Y-30419144D03*
%TO.P,R13,2*%
%TO.N,INT_XCLK*%
X81136265Y-30419144D03*
%TD*%
D10*
%TO.P,C31,1*%
%TO.N,+1V5*%
X34583765Y-35989144D03*
%TO.P,C31,2*%
%TO.N,AGND*%
X34583765Y-36949144D03*
%TD*%
D21*
%TO.P,R21,1*%
%TO.N,+1V5*%
X30656265Y-36519144D03*
%TO.P,R21,2*%
%TO.N,Net-(D4-A)*%
X29636265Y-36519144D03*
%TD*%
D10*
%TO.P,C30,1*%
%TO.N,+3.3V*%
X39333765Y-35989144D03*
%TO.P,C30,2*%
%TO.N,AGND*%
X39333765Y-36949144D03*
%TD*%
%TO.P,C17,1*%
%TO.N,/VREG_AVDD_1*%
X71746265Y-24539144D03*
%TO.P,C17,2*%
%TO.N,AGND*%
X71746265Y-25499144D03*
%TD*%
D21*
%TO.P,R20,1*%
%TO.N,+2V8*%
X30656265Y-33519144D03*
%TO.P,R20,2*%
%TO.N,Net-(D3-A)*%
X29636265Y-33519144D03*
%TD*%
D22*
%TO.P,C18,1*%
%TO.N,+3.3V*%
X69016265Y-25269144D03*
%TO.P,C18,2*%
%TO.N,AGND*%
X69976265Y-25269144D03*
%TD*%
D10*
%TO.P,C27,1*%
%TO.N,+3.3V*%
X34446265Y-26989144D03*
%TO.P,C27,2*%
%TO.N,AGND*%
X34446265Y-27949144D03*
%TD*%
D15*
%TO.P,U4,1,OUT*%
%TO.N,+3.3V*%
X36058765Y-26919144D03*
%TO.P,U4,2,NC*%
%TO.N,unconnected-(U4-NC-Pad2)*%
X36058765Y-27569144D03*
%TO.P,U4,3,GND*%
%TO.N,AGND*%
X36058765Y-28219144D03*
%TO.P,U4,4,EN*%
%TO.N,+5V*%
X37833765Y-28219144D03*
%TO.P,U4,5,NC*%
%TO.N,unconnected-(U4-NC-Pad5)*%
X37833765Y-27569144D03*
%TO.P,U4,6,IN*%
%TO.N,+5V*%
X37833765Y-26919144D03*
D16*
%TO.P,U4,7,GND*%
%TO.N,AGND*%
X36946265Y-27569144D03*
%TD*%
D22*
%TO.P,C24,1*%
%TO.N,PCLK_1*%
X80166265Y-28419144D03*
%TO.P,C24,2*%
%TO.N,AGND*%
X81126265Y-28419144D03*
%TD*%
D10*
%TO.P,C25,1*%
%TO.N,+3.3V*%
X70417434Y-38336937D03*
%TO.P,C25,2*%
%TO.N,AGND*%
X70417434Y-39296937D03*
%TD*%
D23*
%TO.P,U3,1,IOVDD*%
%TO.N,+3.3V*%
X63686500Y-28012500D03*
D24*
%TO.P,U3,2,GPIO0*%
%TO.N,/GPIO0_1*%
X63686500Y-28412500D03*
%TO.P,U3,3,GPIO1*%
%TO.N,/IMU_SDO*%
X63686500Y-28812500D03*
%TO.P,U3,4,GPIO2*%
%TO.N,/IMU_SDI*%
X63686500Y-29212500D03*
%TO.P,U3,5,GPIO3*%
%TO.N,/IMU_SCLK*%
X63686500Y-29612500D03*
%TO.P,U3,6,DVDD*%
%TO.N,+1V1*%
X63686500Y-30012500D03*
%TO.P,U3,7,GPIO4*%
%TO.N,/~{IMU_CS}*%
X63686500Y-30412500D03*
%TO.P,U3,8,GPIO5*%
%TO.N,unconnected-(U3-GPIO5-Pad8)*%
X63686500Y-30812500D03*
%TO.P,U3,9,GPIO6*%
%TO.N,unconnected-(U3-GPIO6-Pad9)*%
X63686500Y-31212500D03*
%TO.P,U3,10,GPIO7*%
%TO.N,VSYNC_1*%
X63686500Y-31612500D03*
%TO.P,U3,11,IOVDD*%
%TO.N,+3.3V*%
X63686500Y-32012500D03*
%TO.P,U3,12,GPIO8*%
%TO.N,~{RESET_1}*%
X63686500Y-32412500D03*
%TO.P,U3,13,GPIO9*%
%TO.N,SCL_cam_1*%
X63686500Y-32812500D03*
%TO.P,U3,14,GPIO10*%
%TO.N,SDA_cam_1*%
X63686500Y-33212500D03*
D25*
%TO.P,U3,15,GPIO11*%
%TO.N,POSITION_OUT_1*%
X63686500Y-33612500D03*
D26*
%TO.P,U3,16,GPIO12*%
%TO.N,IMAGE_OUT_1_1-*%
X64324000Y-34250000D03*
D27*
%TO.P,U3,17,GPIO13*%
%TO.N,IMAGE_OUT_2_1-*%
X64724000Y-34250000D03*
%TO.P,U3,18,GPIO14*%
%TO.N,IMAGE_OUT_2_1+*%
X65124000Y-34250000D03*
%TO.P,U3,19,GPIO15*%
%TO.N,IMAGE_OUT_1_1+*%
X65524000Y-34250000D03*
%TO.P,U3,20,IOVDD*%
%TO.N,+3.3V*%
X65924000Y-34250000D03*
%TO.P,U3,21,XIN*%
%TO.N,Net-(U3-XIN)*%
X66324000Y-34250000D03*
%TO.P,U3,22,XOUT*%
%TO.N,unconnected-(U3-XOUT-Pad22)*%
X66724000Y-34250000D03*
%TO.P,U3,23,DVDD*%
%TO.N,+1V1*%
X67124000Y-34250000D03*
%TO.P,U3,24,SWCLK*%
%TO.N,SWCLK_1*%
X67524000Y-34250000D03*
%TO.P,U3,25,SWD*%
%TO.N,SWD_1*%
X67924000Y-34250000D03*
%TO.P,U3,26,RUN*%
%TO.N,/RUN_1*%
X68324000Y-34250000D03*
%TO.P,U3,27,GPIO16*%
%TO.N,HSYNC_1*%
X68724000Y-34250000D03*
%TO.P,U3,28,GPIO17*%
%TO.N,DATA9_1*%
X69124000Y-34250000D03*
%TO.P,U3,29,GPIO18*%
%TO.N,EXT_XCLK_1*%
X69524000Y-34250000D03*
D28*
%TO.P,U3,30,IOVDD*%
%TO.N,+3.3V*%
X69924000Y-34250000D03*
D29*
%TO.P,U3,31,GPIO19*%
%TO.N,DATA8_1*%
X70561500Y-33612500D03*
D24*
%TO.P,U3,32,GPIO20*%
%TO.N,DATA7_1*%
X70561500Y-33212500D03*
%TO.P,U3,33,GPIO21*%
%TO.N,DATA6_1*%
X70561500Y-32812500D03*
%TO.P,U3,34,GPIO22*%
%TO.N,DATA2_1*%
X70561500Y-32412500D03*
%TO.P,U3,35,GPIO23*%
%TO.N,DATA5_1*%
X70561500Y-32012500D03*
%TO.P,U3,36,GPIO24*%
%TO.N,DATA3_1*%
X70561500Y-31612500D03*
%TO.P,U3,37,GPIO25*%
%TO.N,DATA4_1*%
X70561500Y-31212500D03*
%TO.P,U3,38,IOVDD*%
%TO.N,+3.3V*%
X70561500Y-30812500D03*
%TO.P,U3,39,DVDD*%
%TO.N,+1V1*%
X70561500Y-30412500D03*
%TO.P,U3,40,GPIO26_ADC0*%
%TO.N,INT_XCLK*%
X70561500Y-30012500D03*
%TO.P,U3,41,GPIO27_ADC1*%
%TO.N,PCLK_1*%
X70561500Y-29612500D03*
%TO.P,U3,42,GPIO28_ADC2*%
%TO.N,unconnected-(U3-GPIO28_ADC2-Pad42)*%
X70561500Y-29212500D03*
%TO.P,U3,43,GPIO29_ADC3*%
%TO.N,unconnected-(U3-GPIO29_ADC3-Pad43)*%
X70561500Y-28812500D03*
%TO.P,U3,44,ADC_AVDD*%
%TO.N,+3.3V*%
X70561500Y-28412500D03*
D30*
%TO.P,U3,45,IOVDD*%
X70561500Y-28012500D03*
D31*
%TO.P,U3,46,VREG_AVDD*%
%TO.N,/VREG_AVDD_1*%
X69924000Y-27375000D03*
D27*
%TO.P,U3,47,VREG_PGND*%
%TO.N,AGND*%
X69524000Y-27375000D03*
%TO.P,U3,48,VREG_LX*%
%TO.N,/VREG_LX_1*%
X69124000Y-27375000D03*
%TO.P,U3,49,VREG_VIN*%
%TO.N,+3.3V*%
X68724000Y-27375000D03*
%TO.P,U3,50,VREG_FB*%
%TO.N,+1V1*%
X68324000Y-27375000D03*
%TO.P,U3,51,USB_DM*%
%TO.N,Net-(U3-USB_DM)*%
X67924000Y-27375000D03*
%TO.P,U3,52,USB_DP*%
%TO.N,Net-(U3-USB_DP)*%
X67524000Y-27375000D03*
%TO.P,U3,53,USB_OTP_VDD*%
%TO.N,+3.3V*%
X67124000Y-27375000D03*
%TO.P,U3,54,QSPI_IOVDD*%
X66724000Y-27375000D03*
%TO.P,U3,55,QSPI_SD3*%
%TO.N,/QSPI_SD3_1*%
X66324000Y-27375000D03*
%TO.P,U3,56,QSPI_SCLK*%
%TO.N,/QSPI_SCLK_1*%
X65924000Y-27375000D03*
%TO.P,U3,57,QSPI_SD0*%
%TO.N,/QSPI_SD0_1*%
X65524000Y-27375000D03*
%TO.P,U3,58,QSPI_SD2*%
%TO.N,/QSPI_SD2_1*%
X65124000Y-27375000D03*
%TO.P,U3,59,QSPI_SD1*%
%TO.N,/QSPI_SD1_1*%
X64724000Y-27375000D03*
D32*
%TO.P,U3,60,QSPI_SS*%
%TO.N,/QSPI_SS_1*%
X64324000Y-27375000D03*
D33*
%TO.P,U3,61,GND*%
%TO.N,AGND*%
X65749000Y-29437500D03*
X65749000Y-30812500D03*
X65749000Y-32187500D03*
X67124000Y-29437500D03*
X67124000Y-30812500D03*
D34*
X67124000Y-30812500D03*
D33*
X67124000Y-32187500D03*
X68499000Y-29437500D03*
X68499000Y-30812500D03*
X68499000Y-32187500D03*
%TD*%
D35*
%TO.P,D4,1,K*%
%TO.N,AGND*%
X26108765Y-36519144D03*
%TO.P,D4,2,A*%
%TO.N,Net-(D4-A)*%
X27683765Y-36519144D03*
%TD*%
%TO.P,D2,1,K*%
%TO.N,AGND*%
X26071265Y-30519144D03*
%TO.P,D2,2,A*%
%TO.N,Net-(D2-A)*%
X27646265Y-30519144D03*
%TD*%
D21*
%TO.P,R16,1*%
%TO.N,+3.3V*%
X81156265Y-33419144D03*
%TO.P,R16,2*%
%TO.N,~{RESET_1}*%
X80136265Y-33419144D03*
%TD*%
D20*
%TO.P,C32,1*%
%TO.N,+3.3V*%
X78746265Y-30999144D03*
%TO.P,C32,2*%
%TO.N,AGND*%
X78746265Y-30039144D03*
%TD*%
D15*
%TO.P,U5,1,OUT*%
%TO.N,+2V8*%
X36058765Y-31219144D03*
%TO.P,U5,2,NC*%
%TO.N,unconnected-(U5-NC-Pad2)*%
X36058765Y-31869144D03*
%TO.P,U5,3,GND*%
%TO.N,AGND*%
X36058765Y-32519144D03*
%TO.P,U5,4,EN*%
%TO.N,+3.3V*%
X37833765Y-32519144D03*
%TO.P,U5,5,NC*%
%TO.N,unconnected-(U5-NC-Pad5)*%
X37833765Y-31869144D03*
%TO.P,U5,6,IN*%
%TO.N,+3.3V*%
X37833765Y-31219144D03*
D16*
%TO.P,U5,7,GND*%
%TO.N,AGND*%
X36946265Y-31869144D03*
%TD*%
D22*
%TO.P,C7,1*%
%TO.N,+3.3V*%
X74666265Y-28819144D03*
%TO.P,C7,2*%
%TO.N,AGND*%
X75626265Y-28819144D03*
%TD*%
D35*
%TO.P,D3,1,K*%
%TO.N,AGND*%
X26108765Y-33519144D03*
%TO.P,D3,2,A*%
%TO.N,Net-(D3-A)*%
X27683765Y-33519144D03*
%TD*%
D12*
%TO.P,R3,1*%
%TO.N,/USB_D1+*%
X66746265Y-22209144D03*
%TO.P,R3,2*%
%TO.N,Net-(U3-USB_DP)*%
X66746265Y-23229144D03*
%TD*%
D22*
%TO.P,C23,1*%
%TO.N,~{RESET_1}*%
X80166265Y-32419144D03*
%TO.P,C23,2*%
%TO.N,AGND*%
X81126265Y-32419144D03*
%TD*%
D36*
%TO.P,J7,1,Pin_1*%
%TO.N,+5V*%
X38306265Y-20069144D03*
D37*
%TO.P,J7,2,Pin_2*%
%TO.N,AGND*%
X40846265Y-20069144D03*
%TD*%
D19*
%TO.P,R2,1*%
%TO.N,/VREG_AVDD_1*%
X71746265Y-23529144D03*
%TO.P,R2,2*%
%TO.N,+3.3V*%
X71746265Y-22509144D03*
%TD*%
D21*
%TO.P,R14,1*%
%TO.N,+3.3V*%
X81156265Y-34419144D03*
%TO.P,R14,2*%
%TO.N,SCL_cam_1*%
X80136265Y-34419144D03*
%TD*%
D10*
%TO.P,C11,1*%
%TO.N,+3.3V*%
X69446265Y-38359144D03*
%TO.P,C11,2*%
%TO.N,AGND*%
X69446265Y-39319144D03*
%TD*%
D38*
%TO.P,Y1,1,OE*%
%TO.N,+3.3V*%
X72052434Y-39621937D03*
%TO.P,Y1,2,GND*%
%TO.N,AGND*%
X73952434Y-39621937D03*
%TO.P,Y1,3,OUT*%
%TO.N,/XIN_mem1*%
X73952434Y-38121937D03*
%TO.P,Y1,4,Vdd*%
%TO.N,+3.3V*%
X72052434Y-38121937D03*
%TD*%
D39*
%TO.P,TP1,1,1*%
%TO.N,+1V1*%
X72496265Y-20469144D03*
%TD*%
D21*
%TO.P,R18,1*%
%TO.N,+5V*%
X30656265Y-27519144D03*
%TO.P,R18,2*%
%TO.N,Net-(D1-A)*%
X29636265Y-27519144D03*
%TD*%
D22*
%TO.P,C19,1*%
%TO.N,+1V1*%
X69016265Y-24269144D03*
%TO.P,C19,2*%
%TO.N,AGND*%
X69976265Y-24269144D03*
%TD*%
%TO.P,C8,1*%
%TO.N,+3.3V*%
X74666265Y-27819144D03*
%TO.P,C8,2*%
%TO.N,AGND*%
X75626265Y-27819144D03*
%TD*%
%TO.P,C3,1*%
%TO.N,+1V1*%
X74666265Y-29819144D03*
%TO.P,C3,2*%
%TO.N,AGND*%
X75626265Y-29819144D03*
%TD*%
D10*
%TO.P,C22,1*%
%TO.N,+2V8*%
X78246265Y-34789144D03*
%TO.P,C22,2*%
%TO.N,AGND*%
X78246265Y-35749144D03*
%TD*%
D21*
%TO.P,R12,1*%
%TO.N,+3.3V*%
X81156265Y-35419144D03*
%TO.P,R12,2*%
%TO.N,SDA_cam_1*%
X80136265Y-35419144D03*
%TD*%
D40*
%TO.P,JP3,1,A*%
%TO.N,DATA1_1*%
X79346265Y-25269144D03*
D41*
%TO.P,JP3,2,B*%
%TO.N,+3.3V*%
X80646265Y-25269144D03*
%TD*%
D20*
%TO.P,C10,1*%
%TO.N,+3.3V*%
X64746265Y-23199144D03*
%TO.P,C10,2*%
%TO.N,AGND*%
X64746265Y-22239144D03*
%TD*%
D11*
%TO.P,C13,1*%
%TO.N,+3.3V*%
X59606265Y-28019144D03*
%TO.P,C13,2*%
%TO.N,AGND*%
X58646265Y-28019144D03*
%TD*%
D17*
%TO.P,JP1,1,A*%
%TO.N,AGND*%
X62996265Y-19919144D03*
D18*
%TO.P,JP1,2,B*%
%TO.N,/~{USB_BOOT_1}*%
X61696265Y-19919144D03*
%TD*%
D13*
%TO.P,R15,1*%
%TO.N,/RUN_1*%
X70126265Y-41769144D03*
%TO.P,R15,2*%
%TO.N,Net-(JP2-B)*%
X71146265Y-41769144D03*
%TD*%
D42*
%TO.P,J3,1,Pin_1*%
%TO.N,IMAGE_OUT_1_1+*%
X67196265Y-44019144D03*
%TO.P,J3,2,Pin_2*%
%TO.N,unconnected-(J3-Pin_2-Pad2)*%
X67196265Y-46444144D03*
%TO.P,J3,3,Pin_3*%
%TO.N,IMAGE_OUT_2_1+*%
X66796265Y-44019144D03*
%TO.P,J3,4,Pin_4*%
%TO.N,unconnected-(J3-Pin_4-Pad4)*%
X66796265Y-46444144D03*
%TO.P,J3,5,Pin_5*%
%TO.N,IMAGE_OUT_2_1-*%
X66396265Y-44019144D03*
%TO.P,J3,6,Pin_6*%
%TO.N,unconnected-(J3-Pin_6-Pad6)*%
X66396265Y-46444144D03*
%TO.P,J3,7,Pin_7*%
%TO.N,IMAGE_OUT_1_1-*%
X65996265Y-44019144D03*
%TO.P,J3,8,Pin_8*%
%TO.N,unconnected-(J3-Pin_8-Pad8)*%
X65996265Y-46444144D03*
%TO.P,J3,9,Pin_9*%
%TO.N,POSITION_OUT_1*%
X65596265Y-44019144D03*
%TO.P,J3,10,Pin_10*%
%TO.N,unconnected-(J3-Pin_10-Pad10)*%
X65596265Y-46444144D03*
%TO.P,J3,11,Pin_11*%
%TO.N,AGND*%
X65196265Y-44019144D03*
%TO.P,J3,12,Pin_12*%
%TO.N,unconnected-(J3-Pin_12-Pad12)*%
X65196265Y-46444144D03*
%TO.P,J3,13,Pin_13*%
%TO.N,unconnected-(J3-Pin_13-Pad13)*%
X64796265Y-44019144D03*
%TO.P,J3,14,Pin_14*%
%TO.N,unconnected-(J3-Pin_14-Pad14)*%
X64796265Y-46444144D03*
%TD*%
D43*
%TO.P,U1,1,ADDR/SDO*%
%TO.N,/IMU_SDO*%
X59646265Y-29656644D03*
%TO.P,U1,2,RESV/NC*%
%TO.N,unconnected-(U1-RESV{slash}NC-Pad2)*%
X59146265Y-29656644D03*
%TO.P,U1,3,RESV/NC*%
%TO.N,unconnected-(U1-RESV{slash}NC-Pad3)*%
X58646265Y-29656644D03*
%TO.P,U1,4,INT1/INT*%
%TO.N,unconnected-(U1-INT1{slash}INT-Pad4)*%
X58146265Y-29656644D03*
D44*
%TO.P,U1,5,VDDIO*%
%TO.N,+3.3V*%
X57983765Y-30319144D03*
%TO.P,U1,6,GND*%
%TO.N,AGND*%
X57983765Y-30819144D03*
%TO.P,U1,7,RESV/NC*%
%TO.N,unconnected-(U1-RESV{slash}NC-Pad7)*%
X57983765Y-31319144D03*
D43*
%TO.P,U1,8,VDD*%
%TO.N,+3.3V*%
X58146265Y-31981644D03*
%TO.P,U1,9,INT2/FSYNC/CLKIN*%
%TO.N,unconnected-(U1-INT2{slash}FSYNC{slash}CLKIN-Pad9)*%
X58646265Y-31981644D03*
%TO.P,U1,10,RESV/NC*%
%TO.N,unconnected-(U1-RESV{slash}NC-Pad10)*%
X59146265Y-31981644D03*
%TO.P,U1,11,RESV/NC*%
%TO.N,unconnected-(U1-RESV{slash}NC-Pad11)*%
X59646265Y-31981644D03*
D44*
%TO.P,U1,12,CS*%
%TO.N,/~{IMU_CS}*%
X59808765Y-31319144D03*
%TO.P,U1,13,SCLK*%
%TO.N,/IMU_SCLK*%
X59808765Y-30819144D03*
%TO.P,U1,14,SDA/SDI*%
%TO.N,/IMU_SDI*%
X59808765Y-30319144D03*
%TD*%
D10*
%TO.P,C29,1*%
%TO.N,+2V8*%
X34696265Y-31389144D03*
%TO.P,C29,2*%
%TO.N,AGND*%
X34696265Y-32349144D03*
%TD*%
%TO.P,C21,1*%
%TO.N,+1V5*%
X78746265Y-32039144D03*
%TO.P,C21,2*%
%TO.N,AGND*%
X78746265Y-32999144D03*
%TD*%
D21*
%TO.P,R19,1*%
%TO.N,+3.3V*%
X30618765Y-30519144D03*
%TO.P,R19,2*%
%TO.N,Net-(D2-A)*%
X29598765Y-30519144D03*
%TD*%
D42*
%TO.P,J2,1,Pin_1*%
%TO.N,/USB_D1+*%
X67046265Y-20419144D03*
%TO.P,J2,2,Pin_2*%
%TO.N,unconnected-(J2-Pin_2-Pad2)*%
X67046265Y-17994144D03*
%TO.P,J2,3,Pin_3*%
%TO.N,/USB_D1-*%
X67446265Y-20419144D03*
%TO.P,J2,4,Pin_4*%
%TO.N,unconnected-(J2-Pin_4-Pad4)*%
X67446265Y-17994144D03*
%TO.P,J2,5,Pin_5*%
%TO.N,SWCLK_1*%
X67846265Y-20419144D03*
%TO.P,J2,6,Pin_6*%
%TO.N,unconnected-(J2-Pin_6-Pad6)*%
X67846265Y-17994144D03*
%TO.P,J2,7,Pin_7*%
%TO.N,SWD_1*%
X68246265Y-20419144D03*
%TO.P,J2,8,Pin_8*%
%TO.N,AGND*%
X68246265Y-17994144D03*
%TD*%
D10*
%TO.P,C2,1*%
%TO.N,+3.3V*%
X59146265Y-33589144D03*
%TO.P,C2,2*%
%TO.N,AGND*%
X59146265Y-34549144D03*
%TD*%
D13*
%TO.P,R9,1*%
%TO.N,AGND*%
X80136265Y-36519144D03*
%TO.P,R9,2*%
%TO.N,DGND*%
X81156265Y-36519144D03*
%TD*%
D11*
%TO.P,C14,1*%
%TO.N,+3.3V*%
X61026265Y-34669144D03*
%TO.P,C14,2*%
%TO.N,AGND*%
X60066265Y-34669144D03*
%TD*%
D35*
%TO.P,D1,1,K*%
%TO.N,AGND*%
X26108765Y-27519144D03*
%TO.P,D1,2,A*%
%TO.N,Net-(D1-A)*%
X27683765Y-27519144D03*
%TD*%
D22*
%TO.P,C6,1*%
%TO.N,+3.3V*%
X74666265Y-30819144D03*
%TO.P,C6,2*%
%TO.N,AGND*%
X75626265Y-30819144D03*
%TD*%
D10*
%TO.P,C28,1*%
%TO.N,+3.3V*%
X39446265Y-31376644D03*
%TO.P,C28,2*%
%TO.N,AGND*%
X39446265Y-32336644D03*
%TD*%
%TO.P,C16,1*%
%TO.N,+3.3V*%
X58146265Y-33589144D03*
%TO.P,C16,2*%
%TO.N,AGND*%
X58146265Y-34549144D03*
%TD*%
D45*
%TO.P,R1,1*%
%TO.N,/~{IMU_CS}*%
X61646265Y-32421644D03*
%TO.P,R1,2*%
%TO.N,+3.3V*%
X61646265Y-33616644D03*
%TD*%
D11*
%TO.P,C15,1*%
%TO.N,+3.3V*%
X56226265Y-31069144D03*
%TO.P,C15,2*%
%TO.N,AGND*%
X55266265Y-31069144D03*
%TD*%
D46*
%TO.N,+3.3V*%
X62125420Y-31791968D03*
X78646265Y-31019144D03*
X83347265Y-30869144D03*
X61646265Y-34019144D03*
%TO.N,+1V1*%
X62054381Y-30212500D03*
X67146265Y-33012500D03*
X69324000Y-30822211D03*
X68616266Y-24389145D03*
X66924000Y-35405276D03*
X62246265Y-26619144D03*
X72270292Y-30212500D03*
X67148784Y-28612500D03*
X64924000Y-30864129D03*
%TO.N,AGND*%
X60646265Y-27319144D03*
X36996265Y-33569144D03*
X65246265Y-21919144D03*
X70535265Y-26512461D03*
X36971265Y-37994144D03*
X35396265Y-28669144D03*
X67546265Y-39819144D03*
X71735265Y-26169144D03*
X35946265Y-37769144D03*
X63796265Y-18469144D03*
X36946265Y-26419144D03*
X79546265Y-36519144D03*
X69946265Y-24719144D03*
X58046265Y-28019144D03*
X75646265Y-43569144D03*
X34296265Y-28569144D03*
X81126265Y-31919144D03*
X55246265Y-29319144D03*
X65641755Y-39623654D03*
X35996265Y-33169144D03*
X57546265Y-34519144D03*
X81696265Y-28419144D03*
%TO.N,PCLK_1*%
X72556265Y-25411450D03*
X79646265Y-28419144D03*
X71506428Y-29279307D03*
%TO.N,~{RESET_1}*%
X79646265Y-33769141D03*
X61496265Y-36008574D03*
%TO.N,+1V5*%
X33246265Y-39069144D03*
X78746265Y-32039144D03*
%TO.N,+2V8*%
X34796265Y-34019144D03*
X76615171Y-34819144D03*
X75596265Y-41269144D03*
%TO.N,SWCLK_1*%
X86196265Y-28019144D03*
X68196265Y-21169144D03*
%TO.N,DATA1_1*%
X78646265Y-25319144D03*
%TO.N,SCL_cam_1*%
X79646265Y-34419144D03*
X62048336Y-36587651D03*
%TO.N,/XCLK*%
X79646265Y-30419144D03*
%TO.N,PWDN_1*%
X79476137Y-32719558D03*
%TO.N,/XIN_mem1*%
X75346265Y-40119144D03*
X67143167Y-40510169D03*
%TO.N,SDA_cam_1*%
X62646265Y-37119144D03*
X79646265Y-35419144D03*
%TO.N,DGND*%
X84396265Y-35769144D03*
%TO.N,INT_XCLK*%
X73364915Y-24487794D03*
X72946265Y-29012500D03*
%TO.N,EXT_XCLK_1*%
X72556265Y-24611447D03*
X69750033Y-35515376D03*
%TO.N,DATA9_1*%
X69615302Y-36151262D03*
%TO.N,DATA3_1*%
X72858613Y-31737500D03*
%TO.N,DATA2_1*%
X72846265Y-32788500D03*
%TO.N,DATA5_1*%
X72346265Y-32137500D03*
%TO.N,HSYNC_1*%
X69566000Y-36919144D03*
%TO.N,DATA8_1*%
X73346265Y-34444144D03*
%TO.N,DATA6_1*%
X73346265Y-33313500D03*
%TO.N,DATA4_1*%
X73370962Y-31337500D03*
%TO.N,VSYNC_1*%
X62742347Y-31487500D03*
%TO.N,DATA7_1*%
X73746265Y-33838500D03*
%TD*%
D47*
%TO.N,+3.3V*%
X56226265Y-29237069D02*
X56226265Y-29959144D01*
X54346265Y-35219144D02*
X55196265Y-36069144D01*
X61026265Y-35416499D02*
X61026265Y-34669144D01*
D48*
X66846265Y-28019144D02*
X66869231Y-28042110D01*
X66724000Y-25176879D02*
X64746265Y-23199144D01*
D49*
X78185265Y-31480144D02*
X75017266Y-31480144D01*
D50*
X83347265Y-30869144D02*
X83347265Y-31498143D01*
D47*
X42247265Y-28568144D02*
X39446265Y-31369144D01*
D48*
X67053909Y-28011500D02*
X67124000Y-27941409D01*
D47*
X58146265Y-33589144D02*
X55066265Y-33589144D01*
D48*
X70417434Y-35440313D02*
X70417434Y-38336937D01*
X67124000Y-27375000D02*
X67124000Y-24896879D01*
X59146265Y-33589144D02*
X58146265Y-33589144D01*
D47*
X54346265Y-32869144D02*
X54346265Y-29157069D01*
X32596265Y-26719144D02*
X33246265Y-26719144D01*
X55066265Y-33589144D02*
X54346265Y-32869144D01*
X70417434Y-38336937D02*
X70735227Y-38019144D01*
D48*
X63686500Y-28012500D02*
X64139621Y-28012500D01*
X69924000Y-34946879D02*
X70417434Y-35440313D01*
X67124000Y-24896879D02*
X65746265Y-23519144D01*
D47*
X40596265Y-35519144D02*
X40126265Y-35989144D01*
D50*
X80646265Y-25269144D02*
X80646265Y-24514144D01*
D48*
X68724000Y-27375000D02*
X68724000Y-26191409D01*
D47*
X54946265Y-28568144D02*
X42247265Y-28568144D01*
D50*
X83347265Y-31498143D02*
X81426264Y-33419144D01*
D48*
X65746265Y-23519144D02*
X65746265Y-23199144D01*
X70561500Y-28412500D02*
X70282204Y-28133205D01*
D50*
X83347265Y-27070144D02*
X81546265Y-25269144D01*
D47*
X39446265Y-31376644D02*
X39635947Y-31376644D01*
X60373620Y-36069144D02*
X61026265Y-35416499D01*
D48*
X74666265Y-27819144D02*
X74472909Y-28012500D01*
X65924000Y-37901409D02*
X65446265Y-38379144D01*
D47*
X32196265Y-27119144D02*
X32596265Y-26719144D01*
D48*
X66746265Y-28019144D02*
X66846265Y-28019144D01*
X70354856Y-28219144D02*
X70196265Y-28219144D01*
X74259621Y-28412500D02*
X74666265Y-28819144D01*
X57983765Y-30319144D02*
X56586265Y-30319144D01*
X70561500Y-30812500D02*
X69952909Y-30812500D01*
X63686500Y-28012500D02*
X63052909Y-28012500D01*
D49*
X75017266Y-31480144D02*
X74666265Y-31129143D01*
D48*
X56586265Y-30319144D02*
X56226265Y-29959144D01*
X69924000Y-34250000D02*
X69924000Y-34946879D01*
X68724000Y-26191409D02*
X68946265Y-25969144D01*
X65924000Y-34250000D02*
X65924000Y-33546879D01*
D49*
X74666265Y-36001236D02*
X72545564Y-38121937D01*
D48*
X61476265Y-34189144D02*
X61646265Y-34019144D01*
X66724000Y-27996879D02*
X66746265Y-28019144D01*
X61556265Y-33589144D02*
X61646265Y-33499144D01*
X63686500Y-32012500D02*
X62345952Y-32012500D01*
X70282204Y-28133205D02*
X70196265Y-28219144D01*
D47*
X40126265Y-35989144D02*
X39333765Y-35989144D01*
X54346265Y-32869144D02*
X54346265Y-35219144D01*
X59606265Y-27709145D02*
X59606265Y-28019144D01*
D49*
X61646265Y-34019144D02*
X61117265Y-34548144D01*
D48*
X70561500Y-28412500D02*
X74259621Y-28412500D01*
D47*
X70735227Y-38019144D02*
X71949641Y-38019144D01*
D48*
X60496265Y-33589144D02*
X60626265Y-33589144D01*
D47*
X56906340Y-27219144D02*
X59116264Y-27219144D01*
D50*
X80646265Y-24514144D02*
X78641265Y-22509144D01*
D48*
X62345952Y-32012500D02*
X62125420Y-31791968D01*
X60496265Y-33589144D02*
X61556265Y-33589144D01*
D47*
X55557340Y-28568144D02*
X56906340Y-27219144D01*
X39446265Y-31369144D02*
X39446265Y-31376644D01*
X59116264Y-27219144D02*
X59606265Y-27709145D01*
X31346265Y-30519144D02*
X31696265Y-30169144D01*
D48*
X61646265Y-33499144D02*
X61646265Y-34019144D01*
X70561500Y-30812500D02*
X74659621Y-30812500D01*
D50*
X78641265Y-22509144D02*
X71746265Y-22509144D01*
D49*
X74666265Y-30819144D02*
X74666265Y-36001236D01*
D48*
X63046265Y-28019144D02*
X59606265Y-28019144D01*
D49*
X61117265Y-34548144D02*
X61117265Y-34669144D01*
D47*
X39635947Y-31376644D02*
X40596265Y-32336962D01*
X71949641Y-38019144D02*
X72052434Y-38121937D01*
X40596265Y-32336962D02*
X40596265Y-35519144D01*
X54946265Y-28568144D02*
X55557340Y-28568144D01*
D48*
X69952909Y-30812500D02*
X69925000Y-30840409D01*
D47*
X81126265Y-34419144D02*
X81126265Y-35419144D01*
X54346265Y-29157069D02*
X54935190Y-28568144D01*
D48*
X69925000Y-30869144D02*
X69925000Y-30840409D01*
X66899841Y-28011500D02*
X67053909Y-28011500D01*
D47*
X55196265Y-36069144D02*
X60373620Y-36069144D01*
D49*
X72545564Y-38121937D02*
X72052434Y-38121937D01*
D48*
X70561500Y-28012500D02*
X70354856Y-28219144D01*
X74659621Y-30812500D02*
X74666265Y-30819144D01*
X68724000Y-27375000D02*
X68724000Y-27996879D01*
D49*
X70395227Y-38359144D02*
X70417434Y-38336937D01*
D47*
X32196265Y-29669144D02*
X32196265Y-27119144D01*
X54935190Y-28568144D02*
X54946265Y-28568144D01*
D48*
X63052909Y-28012500D02*
X63046265Y-28019144D01*
X68724000Y-27996879D02*
X68746265Y-28019144D01*
X67124000Y-27941409D02*
X67124000Y-27375000D01*
D47*
X72052434Y-39621937D02*
X72052434Y-38121937D01*
D50*
X81426264Y-33419144D02*
X81156265Y-33419144D01*
D48*
X70196265Y-28219144D02*
X69896265Y-28219144D01*
D49*
X69446265Y-38359144D02*
X70395227Y-38359144D01*
D48*
X66724000Y-27375000D02*
X66724000Y-25176879D01*
D47*
X81126265Y-33419144D02*
X81126265Y-34419144D01*
D50*
X80646265Y-25269144D02*
X81546265Y-25269144D01*
D48*
X66869231Y-28042110D02*
X66899841Y-28011500D01*
X66724000Y-27375000D02*
X66724000Y-27996879D01*
X64139621Y-28012500D02*
X64466265Y-28339144D01*
X64439621Y-32012500D02*
X64446265Y-32019144D01*
X74666265Y-28819144D02*
X74666265Y-27819144D01*
X63686500Y-32012500D02*
X64439621Y-32012500D01*
X62125420Y-31791968D02*
X62169071Y-31791968D01*
X74472909Y-28012500D02*
X70561500Y-28012500D01*
D50*
X83347265Y-27070144D02*
X83347265Y-30869144D01*
D48*
X56226265Y-29959144D02*
X56226265Y-31069144D01*
X68946265Y-25339144D02*
X69016265Y-25269144D01*
X65924000Y-33546879D02*
X65896265Y-33519144D01*
D47*
X30618765Y-30519144D02*
X31346265Y-30519144D01*
D49*
X78646265Y-31019144D02*
X78185265Y-31480144D01*
X74666265Y-31129143D02*
X74666265Y-30819144D01*
D48*
X68946265Y-25969144D02*
X68946265Y-25339144D01*
X59146265Y-33589144D02*
X60496265Y-33589144D01*
X65924000Y-34250000D02*
X65924000Y-37901409D01*
X58146265Y-33589144D02*
X58146265Y-31981644D01*
D47*
X55557340Y-28568144D02*
X56226265Y-29237069D01*
X31696265Y-30169144D02*
X32196265Y-29669144D01*
%TO.N,+5V*%
X40396265Y-26219144D02*
X40396265Y-24219144D01*
X39626265Y-26989144D02*
X40396265Y-26219144D01*
X38496265Y-26606644D02*
X39446265Y-26606644D01*
X40396265Y-24219144D02*
X38306265Y-22129144D01*
X38306265Y-22129144D02*
X38306265Y-20069144D01*
X31058765Y-27519144D02*
X31058765Y-26319144D01*
X31058765Y-26319144D02*
X31759765Y-25618144D01*
X39446265Y-26989144D02*
X39626265Y-26989144D01*
X31759765Y-25618144D02*
X37507765Y-25618144D01*
X37507765Y-25618144D02*
X38496265Y-26606644D01*
D51*
%TO.N,+1V1*%
X67124000Y-35205276D02*
X67124000Y-34250000D01*
X66796265Y-35391409D02*
X66937867Y-35391409D01*
D47*
X66924000Y-35405276D02*
X66924000Y-35619144D01*
D50*
X68796265Y-22519144D02*
X68796265Y-21469144D01*
D48*
X72270292Y-30212500D02*
X72446265Y-30388472D01*
D47*
X66924000Y-35619144D02*
X66875000Y-35668144D01*
X68796265Y-22519144D02*
X68796265Y-24049144D01*
D48*
X62054381Y-30212500D02*
X62056968Y-30215087D01*
D50*
X68796265Y-21469144D02*
X69047765Y-21217644D01*
D51*
X66937867Y-35391409D02*
X67124000Y-35205276D01*
D47*
X68736267Y-24269144D02*
X69016265Y-24269144D01*
D48*
X72446265Y-30412500D02*
X74072909Y-30412500D01*
D47*
X66875000Y-35668144D02*
X66875000Y-37605407D01*
D48*
X68616266Y-24389145D02*
X68324000Y-24681411D01*
X62498849Y-30215087D02*
X62701436Y-30012500D01*
X62206265Y-27269144D02*
X62206265Y-26659144D01*
D50*
X69957265Y-20865586D02*
X69957265Y-20656144D01*
D48*
X74072909Y-30412500D02*
X74666265Y-29819144D01*
D47*
X68796265Y-24049144D02*
X69016265Y-24269144D01*
D48*
X62701436Y-30012500D02*
X63686500Y-30012500D01*
X67024000Y-35519144D02*
X67101735Y-35519144D01*
D47*
X67446265Y-38176672D02*
X67446265Y-38359144D01*
D50*
X70144265Y-20469144D02*
X72496265Y-20469144D01*
D48*
X68324000Y-24681411D02*
X68324000Y-27375000D01*
X66924000Y-35405276D02*
X66924000Y-35419144D01*
D47*
X68616266Y-24389145D02*
X68736267Y-24269144D01*
D48*
X70561500Y-30412500D02*
X72446265Y-30412500D01*
X72446265Y-30388472D02*
X72446265Y-30412500D01*
D51*
X66810132Y-35405276D02*
X66796265Y-35391409D01*
X66924000Y-35405276D02*
X66810132Y-35405276D01*
D47*
X66875000Y-37605407D02*
X67446265Y-38176672D01*
D48*
X66924000Y-35419144D02*
X67024000Y-35519144D01*
D50*
X69605207Y-21217644D02*
X69957265Y-20865586D01*
X69047765Y-21217644D02*
X69605207Y-21217644D01*
X69957265Y-20656144D02*
X70144265Y-20469144D01*
D48*
X62206265Y-26659144D02*
X62246265Y-26619144D01*
X62056968Y-30215087D02*
X62498849Y-30215087D01*
D51*
%TO.N,AGND*%
X65196265Y-44019144D02*
X65196265Y-44919144D01*
D48*
X69852948Y-26512461D02*
X70535265Y-26512461D01*
D47*
X57576265Y-34549144D02*
X57546265Y-34519144D01*
D48*
X65446265Y-39428164D02*
X65641755Y-39623654D01*
X79546265Y-36519144D02*
X80166265Y-36519144D01*
X71735265Y-26169144D02*
X71735265Y-25930144D01*
X71746265Y-25919144D02*
X71746265Y-25499144D01*
X55266265Y-29339144D02*
X55246265Y-29319144D01*
D47*
X36946265Y-27569144D02*
X36946265Y-26419144D01*
D48*
X71996265Y-26169144D02*
X72946265Y-27119144D01*
X65246265Y-22239144D02*
X64746265Y-22239144D01*
D47*
X58646265Y-28019144D02*
X58046265Y-28019144D01*
D48*
X67446265Y-39319144D02*
X67446265Y-39719144D01*
X55266265Y-29959144D02*
X55266265Y-29339144D01*
X55266265Y-29959144D02*
X55266265Y-31069144D01*
D47*
X62996265Y-19919144D02*
X63796265Y-19119144D01*
D48*
X69468472Y-39296937D02*
X69446265Y-39319144D01*
D47*
X69976265Y-24689144D02*
X69946265Y-24719144D01*
X36946265Y-31869144D02*
X36946265Y-33519144D01*
X81696265Y-28419144D02*
X81126265Y-28419144D01*
D48*
X69446265Y-39319144D02*
X69446265Y-40819144D01*
D47*
X75626265Y-28819144D02*
X75626265Y-27819144D01*
D48*
X65746265Y-22239144D02*
X65246265Y-22239144D01*
D47*
X60696265Y-27269144D02*
X60646265Y-27319144D01*
D48*
X57046265Y-31719144D02*
X56846265Y-31919144D01*
D47*
X36058765Y-33106644D02*
X35996265Y-33169144D01*
D48*
X56846265Y-31919144D02*
X55346265Y-31919144D01*
D47*
X81126265Y-32419144D02*
X81126265Y-31919144D01*
X35846265Y-28219144D02*
X35396265Y-28669144D01*
D48*
X55346265Y-31919144D02*
X55266265Y-31839144D01*
D47*
X36971265Y-37994144D02*
X36996265Y-38019144D01*
D48*
X70417434Y-39296937D02*
X69468472Y-39296937D01*
D47*
X61246265Y-27269144D02*
X60696265Y-27269144D01*
X34446265Y-28419144D02*
X34296265Y-28569144D01*
X69976265Y-24269144D02*
X69976265Y-24689144D01*
X59146265Y-34549144D02*
X58146265Y-34549144D01*
D48*
X57046265Y-30969144D02*
X57046265Y-31719144D01*
X73952434Y-40462975D02*
X73396265Y-41019144D01*
D47*
X75626265Y-30819144D02*
X75626265Y-29819144D01*
X36058765Y-32519144D02*
X36058765Y-33106644D01*
D48*
X69446265Y-40819144D02*
X69646265Y-41019144D01*
X71735265Y-25930144D02*
X71746265Y-25919144D01*
X65446265Y-39339144D02*
X65446265Y-39428164D01*
X71735265Y-26169144D02*
X71996265Y-26169144D01*
D47*
X75626265Y-29819144D02*
X75626265Y-28819144D01*
D48*
X69524000Y-27375000D02*
X69524000Y-26841409D01*
X72946265Y-27119144D02*
X75046265Y-27119144D01*
X65246265Y-22239144D02*
X65246265Y-21919144D01*
X55266265Y-31839144D02*
X55266265Y-31069144D01*
D47*
X36846265Y-37869144D02*
X36971265Y-37994144D01*
D48*
X57983765Y-30819144D02*
X57196265Y-30819144D01*
D47*
X36846265Y-36319144D02*
X36846265Y-37869144D01*
X69976265Y-24749144D02*
X69946265Y-24719144D01*
D48*
X57196265Y-30819144D02*
X57046265Y-30969144D01*
D47*
X63796265Y-19119144D02*
X63796265Y-18469144D01*
X81126265Y-31419144D02*
X81126265Y-31919144D01*
X69976265Y-25269144D02*
X69976265Y-24749144D01*
X36058765Y-28219144D02*
X35846265Y-28219144D01*
D48*
X75046265Y-27119144D02*
X75626265Y-27699144D01*
X73396265Y-41019144D02*
X69646265Y-41019144D01*
D47*
X35958765Y-36969144D02*
X35958765Y-37756644D01*
X34446265Y-27949144D02*
X34446265Y-28419144D01*
D48*
X67446265Y-39719144D02*
X67546265Y-39819144D01*
X75626265Y-27699144D02*
X75626265Y-27819144D01*
X73952434Y-39621937D02*
X73952434Y-40462975D01*
X69524000Y-26841409D02*
X69852948Y-26512461D01*
D50*
X75096265Y-43569144D02*
X74196265Y-42669144D01*
D47*
X36946265Y-33519144D02*
X36996265Y-33569144D01*
X35958765Y-37756644D02*
X35946265Y-37769144D01*
D50*
X75646265Y-43569144D02*
X75096265Y-43569144D01*
D47*
X58146265Y-34549144D02*
X57576265Y-34549144D01*
D48*
%TO.N,PCLK_1*%
X73272000Y-26094879D02*
X77272000Y-26094879D01*
X71506428Y-29279307D02*
X71506428Y-29343898D01*
X71237826Y-29612500D02*
X70561500Y-29612500D01*
X72556265Y-25411450D02*
X72588571Y-25411450D01*
X79646265Y-28419144D02*
X80166265Y-28419144D01*
X79596265Y-28419144D02*
X79646265Y-28419144D01*
X71506428Y-29343898D02*
X71237826Y-29612500D01*
X77272000Y-26094879D02*
X79596265Y-28419144D01*
X72588571Y-25411450D02*
X73272000Y-26094879D01*
D51*
%TO.N,~{RESET_1}*%
X61496265Y-36008574D02*
X61860446Y-36008574D01*
D48*
X79816268Y-33769141D02*
X80166265Y-33419144D01*
X80166265Y-32419144D02*
X80166265Y-33419144D01*
D51*
X61860446Y-36008574D02*
X62246265Y-35622756D01*
X62246265Y-35622756D02*
X62246265Y-32619144D01*
D48*
X79646265Y-33769141D02*
X79816268Y-33769141D01*
D51*
X62246265Y-32619144D02*
X62452909Y-32412500D01*
X61494090Y-36010749D02*
X61496265Y-36008574D01*
X62452909Y-32412500D02*
X63686500Y-32412500D01*
D47*
%TO.N,+1V5*%
X31971265Y-35606644D02*
X31058765Y-36519144D01*
X33246265Y-37136962D02*
X34394083Y-35989144D01*
X34583765Y-35606644D02*
X31971265Y-35606644D01*
X34394083Y-35989144D02*
X34583765Y-35989144D01*
X33246265Y-39069144D02*
X33246265Y-37136962D01*
%TO.N,+2V8*%
X33935265Y-33158144D02*
X34796265Y-34019144D01*
X76096265Y-40769144D02*
X76096265Y-35338050D01*
X34696265Y-31389144D02*
X34506583Y-31389144D01*
X33935265Y-31960462D02*
X33935265Y-33158144D01*
D50*
X76615171Y-34819144D02*
X77396265Y-34819144D01*
D49*
X34744525Y-31389144D02*
X34696265Y-31389144D01*
D50*
X77396265Y-34819144D02*
X77496265Y-34919144D01*
D47*
X34506583Y-31389144D02*
X33935265Y-31960462D01*
D50*
X78216265Y-34819144D02*
X78246265Y-34789144D01*
D47*
X75596265Y-41269144D02*
X76096265Y-40769144D01*
X34696265Y-31006644D02*
X33571265Y-31006644D01*
D48*
X76615171Y-34819144D02*
X76625171Y-34809144D01*
D50*
X77396265Y-34819144D02*
X78216265Y-34819144D01*
D47*
X76096265Y-35338050D02*
X76615171Y-34819144D01*
X33571265Y-31006644D02*
X31058765Y-33519144D01*
D51*
%TO.N,SWCLK_1*%
X67846265Y-20918644D02*
X68096765Y-21169144D01*
X67524000Y-34250000D02*
X67548000Y-34274000D01*
X67524000Y-36896879D02*
X68145265Y-37518144D01*
X68145265Y-42364533D02*
X70300877Y-44520144D01*
X67524000Y-36319144D02*
X67524000Y-36896879D01*
X67846265Y-20419144D02*
X67846265Y-20918644D01*
X84595265Y-44520144D02*
X86196265Y-42919144D01*
X68096765Y-21169144D02*
X68196265Y-21169144D01*
X67524000Y-36319144D02*
X67524000Y-36468365D01*
X70300877Y-44520144D02*
X84595265Y-44520144D01*
X67524000Y-34250000D02*
X67524000Y-36319144D01*
X68145265Y-37518144D02*
X68145265Y-42364533D01*
X86196265Y-42919144D02*
X86196265Y-28019144D01*
%TO.N,SWD_1*%
X67924000Y-36646879D02*
X68496265Y-37219144D01*
X68496265Y-37219144D02*
X68496265Y-42219144D01*
X85596265Y-42919144D02*
X85596265Y-20119144D01*
X68232265Y-20083144D02*
X68232265Y-20419144D01*
X84399765Y-18922644D02*
X69392765Y-18922644D01*
X67924000Y-34250000D02*
X67924000Y-36646879D01*
X84346265Y-44169144D02*
X85596265Y-42919144D01*
X68496265Y-42219144D02*
X70446265Y-44169144D01*
X85596265Y-20119144D02*
X84399765Y-18922644D01*
X70446265Y-44169144D02*
X84346265Y-44169144D01*
X69392765Y-18922644D02*
X68232265Y-20083144D01*
D48*
%TO.N,/VREG_AVDD_1*%
X71135265Y-27030144D02*
X70790409Y-27375000D01*
X71746265Y-24539144D02*
X71135265Y-25150144D01*
X70790409Y-27375000D02*
X69924000Y-27375000D01*
X71746265Y-23499144D02*
X71746265Y-24539144D01*
X71135265Y-25150144D02*
X71135265Y-27030144D01*
D51*
%TO.N,/RUN_1*%
X68847265Y-41520144D02*
X69096265Y-41769144D01*
X68847265Y-37073755D02*
X68847265Y-41520144D01*
X69096265Y-41769144D02*
X70126265Y-41769144D01*
X68324000Y-34250000D02*
X68324000Y-36550490D01*
X68324000Y-36550490D02*
X68847265Y-37073755D01*
%TO.N,DATA1_1*%
X79296265Y-25319144D02*
X79346265Y-25269144D01*
X78646265Y-25319144D02*
X79296265Y-25319144D01*
%TO.N,SCL_cam_1*%
X62048336Y-36567073D02*
X62597265Y-36018144D01*
X62048336Y-36587651D02*
X62048336Y-36567073D01*
D48*
X79646265Y-34419144D02*
X80166265Y-34419144D01*
D51*
X62597265Y-36018144D02*
X62597265Y-32869144D01*
X62653909Y-32812500D02*
X63686500Y-32812500D01*
X62597265Y-32869144D02*
X62653909Y-32812500D01*
D49*
%TO.N,/~{USB_BOOT_1}*%
X61696265Y-19919144D02*
X61696265Y-20674144D01*
X61696265Y-20674144D02*
X63261265Y-22239144D01*
X63261265Y-22239144D02*
X63746265Y-22239144D01*
D48*
%TO.N,/VREG_LX_1*%
X70734265Y-25630847D02*
X70445968Y-25919144D01*
X69124000Y-26391409D02*
X69124000Y-27375000D01*
X69596265Y-25919144D02*
X69124000Y-26391409D01*
X70196265Y-22519144D02*
X70734265Y-23057144D01*
X70734265Y-23057144D02*
X70734265Y-25630847D01*
X70445968Y-25919144D02*
X69596265Y-25919144D01*
%TO.N,/QSPI_SS_1*%
X63746265Y-23199144D02*
X64324000Y-23776879D01*
X64324000Y-23776879D02*
X64324000Y-27375000D01*
D51*
%TO.N,/USB_D1+*%
X66746265Y-21469144D02*
X66746265Y-22239144D01*
X67046265Y-21169144D02*
X66746265Y-21469144D01*
X67046265Y-20419144D02*
X67046265Y-21169144D01*
%TO.N,/USB_D1-*%
X67446265Y-20419144D02*
X67446265Y-21144144D01*
X67446265Y-21144144D02*
X67746265Y-21444144D01*
X67746265Y-21444144D02*
X67746265Y-22239144D01*
D48*
%TO.N,/XCLK*%
X79646265Y-30419144D02*
X80146265Y-30419144D01*
X80146265Y-29419144D02*
X80146265Y-30419144D01*
%TO.N,PWDN_1*%
X80166265Y-31481594D02*
X80166265Y-31419144D01*
X79585265Y-32610430D02*
X79585265Y-32062594D01*
X79585265Y-32062594D02*
X80166265Y-31481594D01*
X79476137Y-32719558D02*
X79585265Y-32610430D01*
%TO.N,/XIN_mem1*%
X66446265Y-39919144D02*
X66446265Y-39319144D01*
X67143167Y-40510169D02*
X67037290Y-40510169D01*
X75296265Y-40069144D02*
X75296265Y-38419144D01*
X75296265Y-38419144D02*
X74999058Y-38121937D01*
X74999058Y-38121937D02*
X73952434Y-38121937D01*
X67037290Y-40510169D02*
X66446265Y-39919144D01*
X75346265Y-40119144D02*
X75296265Y-40069144D01*
D51*
%TO.N,SDA_cam_1*%
X62646265Y-37119144D02*
X62948265Y-36817144D01*
X63104909Y-33212500D02*
X63686500Y-33212500D01*
X62948265Y-36817144D02*
X62948265Y-33369144D01*
X62948265Y-33369144D02*
X63104909Y-33212500D01*
D48*
X79646265Y-35419144D02*
X80166265Y-35419144D01*
%TO.N,DGND*%
X83646265Y-36519144D02*
X81156265Y-36519144D01*
X84396265Y-35769144D02*
X83646265Y-36519144D01*
D51*
%TO.N,POSITION_OUT_1*%
X65596265Y-43619144D02*
X63442265Y-41465144D01*
X63442265Y-41465144D02*
X63442265Y-37287588D01*
X63946265Y-36783590D02*
X63946265Y-33872265D01*
X63442265Y-37287588D02*
X63946265Y-36783590D01*
X65596265Y-44019144D02*
X65596265Y-43619144D01*
X63946265Y-33872265D02*
X63686500Y-33612500D01*
D47*
%TO.N,Net-(D1-A)*%
X27683765Y-27519144D02*
X29233765Y-27519144D01*
%TO.N,Net-(D2-A)*%
X27646265Y-30519144D02*
X29196265Y-30519144D01*
%TO.N,Net-(D3-A)*%
X27683765Y-33519144D02*
X29233765Y-33519144D01*
D48*
%TO.N,INT_XCLK*%
X82196265Y-27169144D02*
X82846265Y-27819144D01*
X71621765Y-30012500D02*
X70561500Y-30012500D01*
X79496265Y-27169144D02*
X82196265Y-27169144D01*
X74115741Y-25269144D02*
X77596265Y-25269144D01*
X82846265Y-27819144D02*
X82846265Y-29869144D01*
X72046265Y-29588000D02*
X71621765Y-30012500D01*
X73346653Y-24500056D02*
X74115741Y-25269144D01*
X77596265Y-25269144D02*
X79496265Y-27169144D01*
X82296265Y-30419144D02*
X81106265Y-30419144D01*
X73346653Y-24487794D02*
X73346653Y-24500056D01*
X72946265Y-29012500D02*
X72946265Y-29419144D01*
X72777409Y-29588000D02*
X72046265Y-29588000D01*
X72946265Y-29419144D02*
X72777409Y-29588000D01*
X82846265Y-29869144D02*
X82296265Y-30419144D01*
D47*
%TO.N,Net-(D4-A)*%
X27683765Y-36519144D02*
X29233765Y-36519144D01*
D49*
%TO.N,Net-(JP2-B)*%
X71996265Y-41769144D02*
X72896265Y-42669144D01*
X71146265Y-41769144D02*
X71996265Y-41769144D01*
D48*
%TO.N,Net-(U3-XIN)*%
X66324000Y-38236879D02*
X66446265Y-38359144D01*
X66324000Y-34250000D02*
X66324000Y-38236879D01*
%TO.N,EXT_XCLK_1*%
X82030165Y-27570144D02*
X82297265Y-27837244D01*
X77453900Y-25693879D02*
X79330165Y-27570144D01*
X72556265Y-24611447D02*
X72606205Y-24611447D01*
X69524000Y-35289342D02*
X69524000Y-34250000D01*
X79330165Y-27570144D02*
X82030165Y-27570144D01*
X82297265Y-29118144D02*
X81996265Y-29419144D01*
X81996265Y-29419144D02*
X81106265Y-29419144D01*
X73688637Y-25693879D02*
X77453900Y-25693879D01*
X69750033Y-35515376D02*
X69524000Y-35289342D01*
X72606205Y-24611447D02*
X73688637Y-25693879D01*
X82297265Y-27837244D02*
X82297265Y-29118144D01*
%TO.N,Net-(U3-USB_DP)*%
X67524000Y-24696879D02*
X66746265Y-23919144D01*
X67524000Y-27375000D02*
X67524000Y-24696879D01*
X66746265Y-23919144D02*
X66746265Y-23199144D01*
%TO.N,Net-(U3-USB_DM)*%
X67746265Y-24313674D02*
X67746265Y-23199144D01*
X67924000Y-27375000D02*
X67924000Y-24491409D01*
X67924000Y-24491409D02*
X67746265Y-24313674D01*
%TO.N,/~{IMU_CS}*%
X63686500Y-30412500D02*
X62952909Y-30412500D01*
X61646265Y-32019144D02*
X61646265Y-32539144D01*
X59808765Y-31319144D02*
X60946265Y-31319144D01*
X61949163Y-31166246D02*
X61266263Y-31166246D01*
X62496265Y-30619144D02*
X61949163Y-31166246D01*
X62746265Y-30619144D02*
X62496265Y-30619144D01*
X60946265Y-31319144D02*
X61646265Y-32019144D01*
X62952909Y-30412500D02*
X62746265Y-30619144D01*
X61113365Y-31319144D02*
X60946265Y-31319144D01*
X61266263Y-31166246D02*
X61113365Y-31319144D01*
%TO.N,/IMU_SCLK*%
X63686500Y-29612500D02*
X61802909Y-29612500D01*
X60596265Y-30819144D02*
X59808765Y-30819144D01*
X61802909Y-29612500D02*
X60596265Y-30819144D01*
%TO.N,/IMU_SDI*%
X63686500Y-29212500D02*
X61602909Y-29212500D01*
X61602909Y-29212500D02*
X60496265Y-30319144D01*
X60496265Y-30319144D02*
X59808765Y-30319144D01*
%TO.N,/IMU_SDO*%
X59646265Y-29656644D02*
X59646265Y-29019144D01*
X59646265Y-29019144D02*
X59852909Y-28812500D01*
X59852909Y-28812500D02*
X63686500Y-28812500D01*
D51*
%TO.N,DATA9_1*%
X69615302Y-36151262D02*
X69124000Y-35659960D01*
X69124000Y-35659960D02*
X69124000Y-34250000D01*
%TO.N,DATA3_1*%
X72858613Y-31737500D02*
X72733613Y-31612500D01*
X72733613Y-31612500D02*
X70561500Y-31612500D01*
%TO.N,DATA2_1*%
X72846265Y-32788500D02*
X72215621Y-32788500D01*
X72215621Y-32788500D02*
X71839621Y-32412500D01*
X71839621Y-32412500D02*
X70561500Y-32412500D01*
%TO.N,DATA5_1*%
X72221265Y-32012500D02*
X70561500Y-32012500D01*
X72346265Y-32137500D02*
X72221265Y-32012500D01*
%TO.N,HSYNC_1*%
X68724000Y-36246879D02*
X68724000Y-34250000D01*
X69346598Y-36869477D02*
X68724000Y-36246879D01*
X69516333Y-36869477D02*
X69346598Y-36869477D01*
%TO.N,DATA8_1*%
X71139621Y-33612500D02*
X70561500Y-33612500D01*
X71971265Y-34444144D02*
X71139621Y-33612500D01*
X71971265Y-34444144D02*
X73346265Y-34444144D01*
%TO.N,DATA6_1*%
X71639621Y-32812500D02*
X72140621Y-33313500D01*
X72140621Y-33313500D02*
X73346265Y-33313500D01*
X70561500Y-32812500D02*
X71639621Y-32812500D01*
%TO.N,DATA4_1*%
X73370962Y-31337500D02*
X73245962Y-31212500D01*
X73245962Y-31212500D02*
X70561500Y-31212500D01*
%TO.N,VSYNC_1*%
X62867347Y-31612500D02*
X63686500Y-31612500D01*
X62742347Y-31487500D02*
X62867347Y-31612500D01*
%TO.N,DATA7_1*%
X73665621Y-33919144D02*
X73746265Y-33838500D01*
X71439621Y-33212500D02*
X72146265Y-33919144D01*
X70561500Y-33212500D02*
X71439621Y-33212500D01*
X72846265Y-33919144D02*
X73665621Y-33919144D01*
X72146265Y-33919144D02*
X72846265Y-33919144D01*
%TO.N,IMAGE_OUT_2_1-*%
X64724000Y-37206439D02*
X64158265Y-37772173D01*
X65661278Y-42084157D02*
X66396265Y-42819144D01*
X64724000Y-34250000D02*
X64724000Y-37206439D01*
X64158265Y-37772173D02*
X64158265Y-40581144D01*
X65500640Y-41923519D02*
X65661278Y-42084157D01*
X64158265Y-40581144D02*
X65500640Y-41923519D01*
X66396265Y-42819144D02*
X66396265Y-44019144D01*
%TO.N,IMAGE_OUT_1_1-*%
X65394459Y-42769144D02*
X65696265Y-42769144D01*
X65982265Y-43055144D02*
X65982265Y-43919144D01*
X65696265Y-42769144D02*
X65982265Y-43055144D01*
X63796265Y-41170950D02*
X65394459Y-42769144D01*
X64324000Y-37091409D02*
X63796265Y-37619144D01*
X63796265Y-40781642D02*
X63796265Y-39765718D01*
X63796265Y-40804056D02*
X63796265Y-41170950D01*
X63796265Y-40804056D02*
X63796265Y-40781642D01*
X63796265Y-37619144D02*
X63796265Y-39250181D01*
X63796265Y-39250181D02*
X63796265Y-39765718D01*
X64324000Y-34250000D02*
X64324000Y-37091409D01*
%TO.N,IMAGE_OUT_1_1+*%
X65524000Y-37399215D02*
X65524000Y-37043581D01*
X67196265Y-42319144D02*
X66371051Y-41493930D01*
X65524000Y-34250000D02*
X65524000Y-36550459D01*
X65524000Y-37043581D02*
X65524000Y-36561666D01*
X64860265Y-39983144D02*
X64860265Y-38062950D01*
X66371051Y-41493930D02*
X66098338Y-41221217D01*
X65524000Y-36550459D02*
X65524000Y-36561666D01*
X67196265Y-44019144D02*
X67196265Y-42319144D01*
X64860265Y-38062950D02*
X65524000Y-37399215D01*
X66098338Y-41221217D02*
X64860265Y-39983144D01*
%TO.N,IMAGE_OUT_2_1+*%
X66018749Y-41741628D02*
X65947769Y-41670648D01*
X64509265Y-40232144D02*
X64509265Y-37917562D01*
X66796265Y-44019144D02*
X66796265Y-42519144D01*
X66796265Y-42519144D02*
X66018749Y-41741628D01*
X65124000Y-37302827D02*
X65124000Y-34250000D01*
X65947769Y-41670648D02*
X64509265Y-40232144D01*
X64509265Y-37917562D02*
X65124000Y-37302827D01*
%TD*%
%TA.AperFunction,Conductor*%
%TO.N,+5V*%
G36*
X39876804Y-26088829D02*
G01*
X39922559Y-26141633D01*
X39933765Y-26193144D01*
X39933765Y-27020144D01*
X39914080Y-27087183D01*
X39861276Y-27132938D01*
X39809765Y-27144144D01*
X38533765Y-27144144D01*
X38533765Y-28289644D01*
X38514080Y-28356683D01*
X38461276Y-28402438D01*
X38409765Y-28413644D01*
X37949163Y-28413644D01*
X37946127Y-28413793D01*
X37946124Y-28413745D01*
X37937997Y-28414144D01*
X37757765Y-28414144D01*
X37690726Y-28394459D01*
X37644971Y-28341655D01*
X37633765Y-28290144D01*
X37633765Y-27993644D01*
X37653450Y-27926605D01*
X37706254Y-27880850D01*
X37757765Y-27869644D01*
X37946650Y-27869644D01*
X37946651Y-27869643D01*
X37965706Y-27865853D01*
X38003305Y-27858375D01*
X38003305Y-27858374D01*
X38003308Y-27858374D01*
X38067562Y-27815441D01*
X38110495Y-27751187D01*
X38121765Y-27694528D01*
X38121765Y-27443760D01*
X38121662Y-27443246D01*
X38110496Y-27387103D01*
X38110495Y-27387102D01*
X38110495Y-27387101D01*
X38067562Y-27322847D01*
X38003308Y-27279914D01*
X38003307Y-27279913D01*
X38003306Y-27279913D01*
X38003305Y-27279912D01*
X37946653Y-27268644D01*
X37946649Y-27268644D01*
X37757765Y-27268644D01*
X37690726Y-27248959D01*
X37644971Y-27196155D01*
X37633765Y-27144644D01*
X37633765Y-26193144D01*
X37653450Y-26126105D01*
X37706254Y-26080350D01*
X37757765Y-26069144D01*
X39809765Y-26069144D01*
X39876804Y-26088829D01*
G37*
%TD.AperFunction*%
%TD*%
%TA.AperFunction,Conductor*%
%TO.N,+3.3V*%
G36*
X39933765Y-30469144D02*
G01*
X39933765Y-31395144D01*
X39914080Y-31462183D01*
X39861276Y-31507938D01*
X39809765Y-31519144D01*
X38533765Y-31519144D01*
X38533765Y-32664644D01*
X38514080Y-32731683D01*
X38461276Y-32777438D01*
X38409765Y-32788644D01*
X37757765Y-32788644D01*
X37690726Y-32768959D01*
X37644971Y-32716155D01*
X37633765Y-32664644D01*
X37633765Y-32293644D01*
X37653450Y-32226605D01*
X37706254Y-32180850D01*
X37757765Y-32169644D01*
X37946650Y-32169644D01*
X37946651Y-32169643D01*
X37965706Y-32165853D01*
X38003305Y-32158375D01*
X38003305Y-32158374D01*
X38003308Y-32158374D01*
X38067562Y-32115441D01*
X38110495Y-32051187D01*
X38121765Y-31994528D01*
X38121765Y-31743760D01*
X38121662Y-31743246D01*
X38110496Y-31687103D01*
X38110495Y-31687102D01*
X38110495Y-31687101D01*
X38067562Y-31622847D01*
X38003308Y-31579914D01*
X38003307Y-31579913D01*
X38003306Y-31579913D01*
X38003305Y-31579912D01*
X37946653Y-31568644D01*
X37946649Y-31568644D01*
X37757765Y-31568644D01*
X37690726Y-31548959D01*
X37644971Y-31496155D01*
X37633765Y-31444644D01*
X37633765Y-30445059D01*
X39933765Y-30469144D01*
G37*
%TD.AperFunction*%
%TD*%
%TA.AperFunction,Conductor*%
%TO.N,+1V5*%
G36*
X36089304Y-34913829D02*
G01*
X36135059Y-34966633D01*
X36146265Y-35018144D01*
X36146265Y-35845144D01*
X36126580Y-35912183D01*
X36073776Y-35957938D01*
X36022265Y-35969144D01*
X33995265Y-35969144D01*
X33928226Y-35949459D01*
X33882471Y-35896655D01*
X33871265Y-35845144D01*
X33871265Y-35018144D01*
X33890950Y-34951105D01*
X33943754Y-34905350D01*
X33995265Y-34894144D01*
X36022265Y-34894144D01*
X36089304Y-34913829D01*
G37*
%TD.AperFunction*%
%TD*%
%TA.AperFunction,Conductor*%
%TO.N,AGND*%
G36*
X39110746Y-31695294D02*
G01*
X39182426Y-31743190D01*
X39182429Y-31743190D01*
X39182430Y-31743191D01*
X39252572Y-31757143D01*
X39252575Y-31757144D01*
X39252577Y-31757144D01*
X39469403Y-31757144D01*
X39536442Y-31776829D01*
X39557084Y-31793463D01*
X39950227Y-32186606D01*
X39933765Y-33519144D01*
X34791947Y-33519144D01*
X34322084Y-33049281D01*
X34288599Y-32987958D01*
X34285765Y-32961600D01*
X34285765Y-32169144D01*
X35608765Y-32169144D01*
X35608765Y-32894144D01*
X38733765Y-32894144D01*
X38733765Y-31694144D01*
X39110746Y-31695294D01*
G37*
%TD.AperFunction*%
%TD*%
%TA.AperFunction,Conductor*%
%TO.N,+1V1*%
G36*
X69389304Y-28538829D02*
G01*
X69435059Y-28591633D01*
X69446265Y-28643144D01*
X69446265Y-32895144D01*
X69426580Y-32962183D01*
X69373776Y-33007938D01*
X69322265Y-33019144D01*
X64970265Y-33019144D01*
X64903226Y-32999459D01*
X64857471Y-32946655D01*
X64846265Y-32895144D01*
X64846265Y-29240530D01*
X65323500Y-29240530D01*
X65323500Y-32384461D01*
X65338209Y-32458412D01*
X65338210Y-32458414D01*
X65371856Y-32508768D01*
X65394237Y-32542263D01*
X65478089Y-32598291D01*
X65478092Y-32598291D01*
X65478093Y-32598292D01*
X65515062Y-32605645D01*
X65552035Y-32613000D01*
X68695964Y-32612999D01*
X68769911Y-32598291D01*
X68853763Y-32542263D01*
X68909791Y-32458411D01*
X68924500Y-32384465D01*
X68924499Y-29240536D01*
X68909791Y-29166589D01*
X68909790Y-29166587D01*
X68909789Y-29166585D01*
X68887256Y-29132864D01*
X68853763Y-29082737D01*
X68769911Y-29026709D01*
X68769909Y-29026708D01*
X68769906Y-29026707D01*
X68695968Y-29012000D01*
X65552038Y-29012000D01*
X65478087Y-29026709D01*
X65478085Y-29026710D01*
X65394237Y-29082737D01*
X65338209Y-29166589D01*
X65338207Y-29166593D01*
X65323500Y-29240530D01*
X64846265Y-29240530D01*
X64846265Y-28643144D01*
X64865950Y-28576105D01*
X64918754Y-28530350D01*
X64970265Y-28519144D01*
X69322265Y-28519144D01*
X69389304Y-28538829D01*
G37*
%TD.AperFunction*%
%TD*%
%TA.AperFunction,Conductor*%
%TO.N,+3.3V*%
G36*
X39776804Y-34913829D02*
G01*
X39822559Y-34966633D01*
X39833765Y-35018144D01*
X39833765Y-35845144D01*
X39814080Y-35912183D01*
X39761276Y-35957938D01*
X39709765Y-35969144D01*
X38433765Y-35969144D01*
X38433765Y-37114644D01*
X38414080Y-37181683D01*
X38361276Y-37227438D01*
X38309765Y-37238644D01*
X37657765Y-37238644D01*
X37590726Y-37218959D01*
X37544971Y-37166155D01*
X37533765Y-37114644D01*
X37533765Y-36743644D01*
X37553450Y-36676605D01*
X37606254Y-36630850D01*
X37657765Y-36619644D01*
X37846650Y-36619644D01*
X37846651Y-36619643D01*
X37865706Y-36615853D01*
X37903305Y-36608375D01*
X37903305Y-36608374D01*
X37903308Y-36608374D01*
X37967562Y-36565441D01*
X38010495Y-36501187D01*
X38021765Y-36444528D01*
X38021765Y-36193760D01*
X38021662Y-36193246D01*
X38010496Y-36137103D01*
X38010495Y-36137102D01*
X38010495Y-36137101D01*
X37967562Y-36072847D01*
X37903308Y-36029914D01*
X37903307Y-36029913D01*
X37903306Y-36029913D01*
X37903305Y-36029912D01*
X37846653Y-36018644D01*
X37846649Y-36018644D01*
X37657765Y-36018644D01*
X37590726Y-35998959D01*
X37544971Y-35946155D01*
X37533765Y-35894644D01*
X37533765Y-35018144D01*
X37553450Y-34951105D01*
X37606254Y-34905350D01*
X37657765Y-34894144D01*
X39709765Y-34894144D01*
X39776804Y-34913829D01*
G37*
%TD.AperFunction*%
%TD*%
%TA.AperFunction,Conductor*%
%TO.N,+3.3V*%
G36*
X36189304Y-26088829D02*
G01*
X36235059Y-26141633D01*
X36246265Y-26193144D01*
X36246265Y-27020144D01*
X36226580Y-27087183D01*
X36173776Y-27132938D01*
X36122265Y-27144144D01*
X33971265Y-27144144D01*
X33971265Y-26069144D01*
X36122265Y-26069144D01*
X36189304Y-26088829D01*
G37*
%TD.AperFunction*%
%TD*%
%TA.AperFunction,Conductor*%
%TO.N,AGND*%
G36*
X38923265Y-36145028D02*
G01*
X38923265Y-36152836D01*
X38937217Y-36222978D01*
X38937218Y-36222981D01*
X38937219Y-36222983D01*
X38990374Y-36302535D01*
X39069926Y-36355690D01*
X39069929Y-36355690D01*
X39069930Y-36355691D01*
X39140072Y-36369643D01*
X39140075Y-36369644D01*
X39140077Y-36369644D01*
X39527455Y-36369644D01*
X39527456Y-36369643D01*
X39597604Y-36355690D01*
X39597605Y-36355688D01*
X39608887Y-36351017D01*
X39610250Y-36354307D01*
X39657032Y-36339664D01*
X39659234Y-36339644D01*
X39853896Y-36339644D01*
X39833765Y-37969144D01*
X33858765Y-37969144D01*
X33858765Y-37020144D01*
X34259765Y-36619144D01*
X35508765Y-36619144D01*
X35508765Y-37344144D01*
X38633765Y-37344144D01*
X38633765Y-36144144D01*
X38923265Y-36145028D01*
G37*
%TD.AperFunction*%
%TD*%
%TA.AperFunction,Conductor*%
%TO.N,AGND*%
G36*
X39129538Y-27320351D02*
G01*
X39182426Y-27355690D01*
X39182429Y-27355690D01*
X39182430Y-27355691D01*
X39252572Y-27369643D01*
X39252575Y-27369644D01*
X39252577Y-27369644D01*
X39639955Y-27369644D01*
X39639956Y-27369643D01*
X39710104Y-27355690D01*
X39760108Y-27322278D01*
X39956265Y-27322877D01*
X39933765Y-29144144D01*
X33958765Y-29144144D01*
X33958765Y-27794144D01*
X35608765Y-27794144D01*
X35608765Y-28519144D01*
X37718367Y-28519144D01*
X37720876Y-28519643D01*
X37720880Y-28519644D01*
X37720881Y-28519644D01*
X37946650Y-28519644D01*
X37946651Y-28519643D01*
X37949163Y-28519144D01*
X38733765Y-28519144D01*
X38733765Y-27319144D01*
X39129538Y-27320351D01*
G37*
%TD.AperFunction*%
%TD*%
%TA.AperFunction,Conductor*%
%TO.N,+3.3V*%
G36*
X33971265Y-27144144D02*
G01*
X33596265Y-27144144D01*
X33596265Y-29319144D01*
X39809765Y-29319144D01*
X39876804Y-29338829D01*
X39922559Y-29391633D01*
X39933765Y-29443144D01*
X39933765Y-30469144D01*
X37633765Y-30445059D01*
X37627919Y-30444998D01*
X37625502Y-30391161D01*
X37625749Y-30390152D01*
X37625384Y-30386824D01*
X37622265Y-30069144D01*
X32920265Y-30069144D01*
X32853226Y-30049459D01*
X32807471Y-29996655D01*
X32796265Y-29945144D01*
X32796265Y-26193144D01*
X32815950Y-26126105D01*
X32868754Y-26080350D01*
X32920265Y-26069144D01*
X33971265Y-26069144D01*
X33971265Y-27144144D01*
G37*
%TD.AperFunction*%
%TD*%
%TA.AperFunction,Conductor*%
%TO.N,+3.3V*%
G36*
X69914373Y-28001204D02*
G01*
X69921477Y-28018036D01*
X69971050Y-33595037D01*
X69964172Y-33612069D01*
X69947264Y-33619249D01*
X69947157Y-33619250D01*
X64345157Y-33644038D01*
X64328156Y-33637083D01*
X64321052Y-33620252D01*
X64296143Y-30817985D01*
X64573500Y-30817985D01*
X64573500Y-30910273D01*
X64586155Y-30957501D01*
X64597386Y-30999418D01*
X64597386Y-30999419D01*
X64643528Y-31079337D01*
X64643529Y-31079338D01*
X64643531Y-31079341D01*
X64708788Y-31144598D01*
X64728766Y-31156132D01*
X64739947Y-31170704D01*
X64740765Y-31176916D01*
X64740765Y-32895144D01*
X64742063Y-32907220D01*
X64743176Y-32917577D01*
X64754381Y-32969080D01*
X64776115Y-33012500D01*
X64777739Y-33015743D01*
X64823494Y-33068547D01*
X64873502Y-33100685D01*
X64940541Y-33120370D01*
X64970265Y-33124644D01*
X66795034Y-33124644D01*
X66812005Y-33131673D01*
X66818216Y-33142433D01*
X66819650Y-33147787D01*
X66819651Y-33147790D01*
X66865793Y-33227708D01*
X66865794Y-33227709D01*
X66865796Y-33227712D01*
X66931053Y-33292969D01*
X66931055Y-33292970D01*
X66931056Y-33292971D01*
X67010974Y-33339113D01*
X67010976Y-33339113D01*
X67010977Y-33339114D01*
X67100121Y-33363000D01*
X67100122Y-33363000D01*
X67192408Y-33363000D01*
X67192409Y-33363000D01*
X67281553Y-33339114D01*
X67361477Y-33292969D01*
X67426734Y-33227712D01*
X67472879Y-33147788D01*
X67474314Y-33142433D01*
X67485496Y-33127860D01*
X67497496Y-33124644D01*
X69322259Y-33124644D01*
X69322265Y-33124644D01*
X69344692Y-33122233D01*
X69344695Y-33122232D01*
X69344698Y-33122232D01*
X69365934Y-33117611D01*
X69396203Y-33111027D01*
X69442864Y-33087670D01*
X69495668Y-33041915D01*
X69527806Y-32991907D01*
X69547491Y-32924868D01*
X69551765Y-32895144D01*
X69551765Y-31100068D01*
X69558793Y-31083098D01*
X69604469Y-31037423D01*
X69650614Y-30957499D01*
X69674500Y-30868355D01*
X69674500Y-30776067D01*
X69650614Y-30686923D01*
X69650613Y-30686921D01*
X69650613Y-30686920D01*
X69604469Y-30606999D01*
X69558794Y-30561323D01*
X69551765Y-30544353D01*
X69551765Y-28643150D01*
X69551765Y-28643144D01*
X69549354Y-28620717D01*
X69549353Y-28620714D01*
X69549353Y-28620710D01*
X69538148Y-28569207D01*
X69538148Y-28569206D01*
X69514791Y-28522545D01*
X69469036Y-28469741D01*
X69469035Y-28469740D01*
X69419030Y-28437604D01*
X69419029Y-28437603D01*
X69419028Y-28437603D01*
X69351989Y-28417918D01*
X69351985Y-28417917D01*
X69329779Y-28414724D01*
X69322265Y-28413644D01*
X69322264Y-28413644D01*
X67452552Y-28413644D01*
X67435581Y-28406615D01*
X67431767Y-28401643D01*
X67429254Y-28397290D01*
X67429253Y-28397288D01*
X67363996Y-28332031D01*
X67363993Y-28332029D01*
X67363992Y-28332028D01*
X67284074Y-28285886D01*
X67224642Y-28269962D01*
X67194928Y-28262000D01*
X67102640Y-28262000D01*
X67072925Y-28269962D01*
X67013494Y-28285886D01*
X67013493Y-28285886D01*
X66933575Y-28332028D01*
X66868313Y-28397290D01*
X66865801Y-28401643D01*
X66851229Y-28412826D01*
X66845016Y-28413644D01*
X64970265Y-28413644D01*
X64959914Y-28414756D01*
X64947831Y-28416055D01*
X64896328Y-28427260D01*
X64849666Y-28450617D01*
X64796861Y-28496373D01*
X64764725Y-28546378D01*
X64764724Y-28546381D01*
X64745038Y-28613423D01*
X64740765Y-28643144D01*
X64740765Y-30551340D01*
X64733736Y-30568311D01*
X64728766Y-30572124D01*
X64708792Y-30583656D01*
X64643528Y-30648920D01*
X64597386Y-30728838D01*
X64597386Y-30728839D01*
X64581462Y-30788270D01*
X64573500Y-30817985D01*
X64296143Y-30817985D01*
X64271479Y-28043249D01*
X64278357Y-28026218D01*
X64295265Y-28019038D01*
X64295304Y-28019037D01*
X69897373Y-27994249D01*
X69914373Y-28001204D01*
G37*
%TD.AperFunction*%
%TD*%
%TA.AperFunction,Conductor*%
%TO.N,+2V8*%
G36*
X36189304Y-30463829D02*
G01*
X36235059Y-30516633D01*
X36246265Y-30568144D01*
X36246265Y-31395144D01*
X36226580Y-31462183D01*
X36173776Y-31507938D01*
X36122265Y-31519144D01*
X34095265Y-31519144D01*
X34028226Y-31499459D01*
X33982471Y-31446655D01*
X33971265Y-31395144D01*
X33971265Y-30568144D01*
X33990950Y-30501105D01*
X34043754Y-30455350D01*
X34095265Y-30444144D01*
X36122265Y-30444144D01*
X36189304Y-30463829D01*
G37*
%TD.AperFunction*%
%TD*%
%TA.AperFunction,Conductor*%
%TO.N,AGND*%
G36*
X84342747Y-19117829D02*
G01*
X84363389Y-19134463D01*
X85384446Y-20155520D01*
X85417931Y-20216843D01*
X85420765Y-20243201D01*
X85420765Y-42795087D01*
X85401080Y-42862126D01*
X85384446Y-42882768D01*
X84309889Y-43957325D01*
X84248566Y-43990810D01*
X84222208Y-43993644D01*
X70570321Y-43993644D01*
X70503282Y-43973959D01*
X70482640Y-43957325D01*
X68708084Y-42182768D01*
X68693380Y-42155840D01*
X68676788Y-42130022D01*
X68675896Y-42123821D01*
X68674599Y-42121445D01*
X68671765Y-42095087D01*
X68671765Y-41892201D01*
X68691450Y-41825162D01*
X68744254Y-41779407D01*
X68813412Y-41769463D01*
X68876968Y-41798488D01*
X68883446Y-41804520D01*
X68947483Y-41868557D01*
X68996852Y-41917926D01*
X69061356Y-41944644D01*
X69647497Y-41944644D01*
X69714536Y-41964329D01*
X69760291Y-42017133D01*
X69769114Y-42044452D01*
X69769427Y-42046027D01*
X69769428Y-42046030D01*
X69769429Y-42046032D01*
X69821479Y-42123930D01*
X69899377Y-42175980D01*
X69899379Y-42175980D01*
X69899380Y-42175981D01*
X69968066Y-42189644D01*
X69968069Y-42189644D01*
X70284463Y-42189644D01*
X70353149Y-42175981D01*
X70353149Y-42175980D01*
X70353153Y-42175980D01*
X70431051Y-42123930D01*
X70483101Y-42046032D01*
X70483415Y-42044452D01*
X70496765Y-41977342D01*
X70775764Y-41977342D01*
X70789427Y-42046028D01*
X70789428Y-42046030D01*
X70789429Y-42046032D01*
X70841479Y-42123930D01*
X70919377Y-42175980D01*
X70919379Y-42175980D01*
X70919380Y-42175981D01*
X70988066Y-42189644D01*
X70988069Y-42189644D01*
X71304463Y-42189644D01*
X71373149Y-42175981D01*
X71373149Y-42175980D01*
X71373153Y-42175980D01*
X71451051Y-42123930D01*
X71483910Y-42074752D01*
X71537522Y-42029948D01*
X71587012Y-42019644D01*
X71841142Y-42019644D01*
X71908181Y-42039329D01*
X71928823Y-42055963D01*
X72254446Y-42381586D01*
X72287931Y-42442909D01*
X72290765Y-42469267D01*
X72290765Y-42984975D01*
X72294359Y-43012273D01*
X72328436Y-43139447D01*
X72338971Y-43164881D01*
X72338977Y-43164893D01*
X72404798Y-43278899D01*
X72421566Y-43300751D01*
X72421570Y-43300756D01*
X72514652Y-43393838D01*
X72514657Y-43393842D01*
X72536509Y-43410610D01*
X72640003Y-43470362D01*
X72650522Y-43476435D01*
X72675966Y-43486974D01*
X72803133Y-43521049D01*
X72830439Y-43524644D01*
X72830446Y-43524644D01*
X73396264Y-43524644D01*
X73396265Y-43524644D01*
X73428866Y-43519480D01*
X73481616Y-43481155D01*
X73501765Y-43419144D01*
X73501765Y-41919144D01*
X73496601Y-41886543D01*
X73458276Y-41833793D01*
X73458275Y-41833792D01*
X73396266Y-41813644D01*
X73396265Y-41813644D01*
X72830439Y-41813644D01*
X72830433Y-41813644D01*
X72803135Y-41817238D01*
X72675961Y-41851315D01*
X72650527Y-41861850D01*
X72650515Y-41861856D01*
X72601508Y-41890151D01*
X72533607Y-41906624D01*
X72467581Y-41883771D01*
X72451827Y-41870445D01*
X72138162Y-41556780D01*
X72046094Y-41518644D01*
X72046093Y-41518644D01*
X71587012Y-41518644D01*
X71519973Y-41498959D01*
X71483910Y-41463535D01*
X71451051Y-41414358D01*
X71373153Y-41362308D01*
X71373151Y-41362307D01*
X71373149Y-41362306D01*
X71304463Y-41348644D01*
X71304461Y-41348644D01*
X70988069Y-41348644D01*
X70988067Y-41348644D01*
X70919380Y-41362306D01*
X70919377Y-41362308D01*
X70841479Y-41414358D01*
X70789429Y-41492256D01*
X70789427Y-41492259D01*
X70775765Y-41560945D01*
X70775765Y-41560948D01*
X70775765Y-41977340D01*
X70775765Y-41977342D01*
X70775764Y-41977342D01*
X70496765Y-41977342D01*
X70496765Y-41560945D01*
X70483102Y-41492259D01*
X70483101Y-41492258D01*
X70483101Y-41492256D01*
X70431051Y-41414358D01*
X70353153Y-41362308D01*
X70353151Y-41362307D01*
X70353149Y-41362306D01*
X70284463Y-41348644D01*
X70284461Y-41348644D01*
X69968069Y-41348644D01*
X69968067Y-41348644D01*
X69899380Y-41362306D01*
X69899377Y-41362308D01*
X69821479Y-41414358D01*
X69769429Y-41492256D01*
X69769427Y-41492260D01*
X69769114Y-41493836D01*
X69767483Y-41496952D01*
X69764754Y-41503542D01*
X69764164Y-41503297D01*
X69736728Y-41555747D01*
X69676012Y-41590321D01*
X69647497Y-41593644D01*
X69220322Y-41593644D01*
X69190881Y-41584999D01*
X69160895Y-41578476D01*
X69155879Y-41574721D01*
X69153283Y-41573959D01*
X69132641Y-41557325D01*
X69059084Y-41483768D01*
X69025599Y-41422445D01*
X69022765Y-41396087D01*
X69022765Y-38845026D01*
X69042450Y-38777987D01*
X69095254Y-38732232D01*
X69164412Y-38722288D01*
X69170957Y-38723409D01*
X69252574Y-38739644D01*
X69252577Y-38739644D01*
X69639955Y-38739644D01*
X69639956Y-38739643D01*
X69710104Y-38725690D01*
X69789656Y-38672535D01*
X69794857Y-38664750D01*
X69800947Y-38659661D01*
X69804245Y-38652441D01*
X69827372Y-38637577D01*
X69848470Y-38619947D01*
X69857843Y-38617995D01*
X69863023Y-38614667D01*
X69897958Y-38609644D01*
X69981997Y-38609644D01*
X70049036Y-38629329D01*
X70069682Y-38645966D01*
X70074044Y-38650329D01*
X70100441Y-38667966D01*
X70153595Y-38703483D01*
X70153597Y-38703483D01*
X70153599Y-38703484D01*
X70223741Y-38717436D01*
X70223744Y-38717437D01*
X70223746Y-38717437D01*
X70611124Y-38717437D01*
X70611125Y-38717436D01*
X70681273Y-38703483D01*
X70760825Y-38650328D01*
X70813980Y-38570776D01*
X70827934Y-38500625D01*
X70827934Y-38493644D01*
X70830484Y-38484958D01*
X70829196Y-38475997D01*
X70840174Y-38451956D01*
X70847619Y-38426605D01*
X70854459Y-38420677D01*
X70858221Y-38412441D01*
X70880455Y-38398151D01*
X70900423Y-38380850D01*
X70910937Y-38378562D01*
X70916999Y-38374667D01*
X70951934Y-38369644D01*
X71128434Y-38369644D01*
X71195473Y-38389329D01*
X71241228Y-38442133D01*
X71252434Y-38493644D01*
X71252434Y-40421937D01*
X74752434Y-40421937D01*
X74752434Y-38458225D01*
X74772119Y-38391186D01*
X74824923Y-38345431D01*
X74894081Y-38335487D01*
X74957637Y-38364512D01*
X74964115Y-38370544D01*
X75059446Y-38465875D01*
X75092931Y-38527198D01*
X75095765Y-38553556D01*
X75095765Y-39822783D01*
X75076080Y-39889822D01*
X75070142Y-39898268D01*
X75065793Y-39903934D01*
X75019653Y-39983850D01*
X75019652Y-39983851D01*
X75019651Y-39983856D01*
X74995765Y-40073000D01*
X74995765Y-40165288D01*
X75013025Y-40229702D01*
X75019652Y-40254434D01*
X75019653Y-40254437D01*
X75065791Y-40334349D01*
X75065794Y-40334353D01*
X75065796Y-40334356D01*
X75131053Y-40399613D01*
X75131056Y-40399614D01*
X75131059Y-40399617D01*
X75210971Y-40445755D01*
X75210972Y-40445755D01*
X75210977Y-40445758D01*
X75300121Y-40469644D01*
X75300123Y-40469644D01*
X75392407Y-40469644D01*
X75392409Y-40469644D01*
X75481553Y-40445758D01*
X75481557Y-40445756D01*
X75536082Y-40414275D01*
X75559764Y-40400601D01*
X75565665Y-40399169D01*
X75570254Y-40395194D01*
X75599218Y-40391029D01*
X75627663Y-40384128D01*
X75633401Y-40386114D01*
X75639412Y-40385250D01*
X75666032Y-40397407D01*
X75693690Y-40406979D01*
X75697443Y-40411752D01*
X75702968Y-40414275D01*
X75718791Y-40438896D01*
X75736882Y-40461900D01*
X75738298Y-40469251D01*
X75740742Y-40473053D01*
X75745765Y-40507988D01*
X75745765Y-40572600D01*
X75726080Y-40639639D01*
X75709446Y-40660281D01*
X75315796Y-41053930D01*
X75315794Y-41053932D01*
X75291648Y-41095757D01*
X75291646Y-41095759D01*
X75269653Y-41133850D01*
X75269652Y-41133853D01*
X75269651Y-41133855D01*
X75269651Y-41133856D01*
X75245765Y-41223000D01*
X75245765Y-41315288D01*
X75251871Y-41338077D01*
X75260425Y-41370000D01*
X75260425Y-41370001D01*
X75269649Y-41404429D01*
X75269650Y-41404430D01*
X75315792Y-41484352D01*
X75315794Y-41484355D01*
X75315795Y-41484356D01*
X75381053Y-41549614D01*
X75381054Y-41549615D01*
X75381056Y-41549616D01*
X75393465Y-41556780D01*
X75460977Y-41595758D01*
X75550121Y-41619644D01*
X75550123Y-41619644D01*
X75642407Y-41619644D01*
X75642409Y-41619644D01*
X75731553Y-41595758D01*
X75811477Y-41549614D01*
X76376735Y-40984356D01*
X76422879Y-40904432D01*
X76446765Y-40815288D01*
X76446765Y-40723000D01*
X76446765Y-36727342D01*
X80785764Y-36727342D01*
X80799427Y-36796028D01*
X80799428Y-36796030D01*
X80799429Y-36796032D01*
X80851479Y-36873930D01*
X80929377Y-36925980D01*
X80929379Y-36925980D01*
X80929380Y-36925981D01*
X80998066Y-36939644D01*
X80998069Y-36939644D01*
X81314463Y-36939644D01*
X81383149Y-36925981D01*
X81383149Y-36925980D01*
X81383153Y-36925980D01*
X81461051Y-36873930D01*
X81513101Y-36796032D01*
X81513101Y-36796030D01*
X81519886Y-36785877D01*
X81520835Y-36786511D01*
X81556878Y-36741786D01*
X81623173Y-36719723D01*
X81627596Y-36719644D01*
X83686145Y-36719644D01*
X83686147Y-36719644D01*
X83759839Y-36689120D01*
X84292995Y-36155962D01*
X84354318Y-36122478D01*
X84380676Y-36119644D01*
X84442407Y-36119644D01*
X84442409Y-36119644D01*
X84531553Y-36095758D01*
X84611477Y-36049613D01*
X84676734Y-35984356D01*
X84722879Y-35904432D01*
X84746765Y-35815288D01*
X84746765Y-35723000D01*
X84722879Y-35633856D01*
X84721641Y-35631711D01*
X84676738Y-35553938D01*
X84676735Y-35553935D01*
X84676734Y-35553932D01*
X84611477Y-35488675D01*
X84611474Y-35488673D01*
X84611470Y-35488670D01*
X84531558Y-35442532D01*
X84531555Y-35442531D01*
X84531554Y-35442530D01*
X84531553Y-35442530D01*
X84442409Y-35418644D01*
X84350121Y-35418644D01*
X84260977Y-35442530D01*
X84260976Y-35442530D01*
X84260974Y-35442531D01*
X84260971Y-35442532D01*
X84181059Y-35488670D01*
X84181050Y-35488677D01*
X84115798Y-35553929D01*
X84115791Y-35553938D01*
X84069653Y-35633850D01*
X84069652Y-35633853D01*
X84069651Y-35633855D01*
X84069651Y-35633856D01*
X84063162Y-35658074D01*
X84045765Y-35723000D01*
X84045765Y-35784731D01*
X84026080Y-35851770D01*
X84009446Y-35872412D01*
X83599534Y-36282325D01*
X83538211Y-36315810D01*
X83511853Y-36318644D01*
X81627596Y-36318644D01*
X81560557Y-36298959D01*
X81520099Y-36252268D01*
X81519886Y-36252411D01*
X81518751Y-36250712D01*
X81514802Y-36246155D01*
X81513111Y-36242272D01*
X81513101Y-36242257D01*
X81513101Y-36242256D01*
X81461051Y-36164358D01*
X81383153Y-36112308D01*
X81383151Y-36112307D01*
X81383149Y-36112306D01*
X81314463Y-36098644D01*
X81314461Y-36098644D01*
X80998069Y-36098644D01*
X80998067Y-36098644D01*
X80929380Y-36112306D01*
X80929377Y-36112308D01*
X80851479Y-36164358D01*
X80799429Y-36242256D01*
X80799427Y-36242259D01*
X80785765Y-36310945D01*
X80785765Y-36310948D01*
X80785765Y-36727340D01*
X80785765Y-36727342D01*
X80785764Y-36727342D01*
X76446765Y-36727342D01*
X76446765Y-35534594D01*
X76466450Y-35467555D01*
X76483084Y-35446913D01*
X76774034Y-35155963D01*
X76835357Y-35122478D01*
X76861715Y-35119644D01*
X77220432Y-35119644D01*
X77287471Y-35139329D01*
X77308113Y-35155963D01*
X77311754Y-35159604D01*
X77380277Y-35199165D01*
X77456703Y-35219644D01*
X77456705Y-35219644D01*
X77535825Y-35219644D01*
X77535827Y-35219644D01*
X77612253Y-35199165D01*
X77680776Y-35159604D01*
X77684417Y-35155963D01*
X77711344Y-35141259D01*
X77737163Y-35124667D01*
X77743363Y-35123775D01*
X77745740Y-35122478D01*
X77772098Y-35119644D01*
X77890865Y-35119644D01*
X77957904Y-35139329D01*
X77959719Y-35140517D01*
X77982426Y-35155690D01*
X77982427Y-35155690D01*
X77982428Y-35155691D01*
X78052572Y-35169643D01*
X78052575Y-35169644D01*
X78052577Y-35169644D01*
X78439955Y-35169644D01*
X78439956Y-35169643D01*
X78510104Y-35155690D01*
X78589656Y-35102535D01*
X78642811Y-35022983D01*
X78656765Y-34952832D01*
X78656765Y-34625456D01*
X78656765Y-34625453D01*
X78656764Y-34625451D01*
X78642812Y-34555309D01*
X78642811Y-34555308D01*
X78642811Y-34555305D01*
X78589656Y-34475753D01*
X78510104Y-34422598D01*
X78510102Y-34422597D01*
X78510099Y-34422596D01*
X78439956Y-34408644D01*
X78439953Y-34408644D01*
X78052577Y-34408644D01*
X78052574Y-34408644D01*
X77982430Y-34422596D01*
X77982426Y-34422598D01*
X77902871Y-34475755D01*
X77896298Y-34482328D01*
X77834974Y-34515811D01*
X77808620Y-34518644D01*
X76828915Y-34518644D01*
X76766916Y-34502031D01*
X76750459Y-34492530D01*
X76661315Y-34468644D01*
X76569027Y-34468644D01*
X76479883Y-34492530D01*
X76479880Y-34492531D01*
X76399962Y-34538671D01*
X76399957Y-34538675D01*
X75815796Y-35122836D01*
X75815792Y-35122841D01*
X75771731Y-35199159D01*
X75771728Y-35199164D01*
X75769652Y-35202758D01*
X75769650Y-35202763D01*
X75745765Y-35291906D01*
X75745765Y-39730298D01*
X75744059Y-39736106D01*
X75745207Y-39742053D01*
X75734327Y-39769247D01*
X75726080Y-39797337D01*
X75721505Y-39801300D01*
X75719256Y-39806924D01*
X75695403Y-39823918D01*
X75673276Y-39843092D01*
X75667283Y-39843953D01*
X75662352Y-39847467D01*
X75633105Y-39848867D01*
X75604118Y-39853036D01*
X75597061Y-39850594D01*
X75592563Y-39850810D01*
X75559793Y-39837701D01*
X75558793Y-39837124D01*
X75510564Y-39786570D01*
X75496765Y-39729721D01*
X75496765Y-38379263D01*
X75496764Y-38379260D01*
X75490655Y-38364512D01*
X75466241Y-38305570D01*
X75409839Y-38249168D01*
X75112632Y-37951961D01*
X75092700Y-37943705D01*
X75038941Y-37921437D01*
X75038940Y-37921437D01*
X74876434Y-37921437D01*
X74809395Y-37901752D01*
X74763640Y-37848948D01*
X74752434Y-37797437D01*
X74752434Y-37321937D01*
X73999187Y-37321937D01*
X73932148Y-37302252D01*
X73886393Y-37249448D01*
X73876449Y-37180290D01*
X73905474Y-37116734D01*
X73911506Y-37110256D01*
X74387969Y-36633793D01*
X74878629Y-36143133D01*
X74916765Y-36051064D01*
X74916765Y-35951408D01*
X74916765Y-31854644D01*
X74936450Y-31787605D01*
X74989254Y-31741850D01*
X75040765Y-31730644D01*
X78213475Y-31730644D01*
X78280514Y-31750329D01*
X78326269Y-31803133D01*
X78335787Y-31869334D01*
X78336362Y-31869391D01*
X78336131Y-31871727D01*
X78336213Y-31872291D01*
X78335891Y-31874168D01*
X78335765Y-31875453D01*
X78335765Y-32202836D01*
X78349717Y-32272978D01*
X78349718Y-32272981D01*
X78349719Y-32272983D01*
X78402874Y-32352535D01*
X78482426Y-32405690D01*
X78482429Y-32405690D01*
X78482430Y-32405691D01*
X78552572Y-32419643D01*
X78552575Y-32419644D01*
X78552577Y-32419644D01*
X78939955Y-32419644D01*
X79015674Y-32404582D01*
X79085265Y-32410809D01*
X79140443Y-32453671D01*
X79163688Y-32519561D01*
X79150392Y-32575827D01*
X79152635Y-32576756D01*
X79149524Y-32584267D01*
X79149523Y-32584269D01*
X79149523Y-32584270D01*
X79125637Y-32673414D01*
X79125637Y-32765702D01*
X79145277Y-32839000D01*
X79149524Y-32854848D01*
X79149525Y-32854851D01*
X79195663Y-32934763D01*
X79195666Y-32934767D01*
X79195668Y-32934770D01*
X79260925Y-33000027D01*
X79260928Y-33000028D01*
X79260931Y-33000031D01*
X79340843Y-33046169D01*
X79340844Y-33046169D01*
X79340849Y-33046172D01*
X79429993Y-33070058D01*
X79429995Y-33070058D01*
X79522277Y-33070058D01*
X79522281Y-33070058D01*
X79611425Y-33046172D01*
X79611430Y-33046168D01*
X79616460Y-33044821D01*
X79686310Y-33046484D01*
X79744173Y-33085646D01*
X79771678Y-33149874D01*
X79772386Y-33171062D01*
X79771918Y-33180011D01*
X79765765Y-33210948D01*
X79765765Y-33297870D01*
X79765596Y-33301107D01*
X79755047Y-33331141D01*
X79746080Y-33361680D01*
X79743551Y-33363870D01*
X79742443Y-33367028D01*
X79717325Y-33386595D01*
X79693276Y-33407435D01*
X79689530Y-33408249D01*
X79687325Y-33409968D01*
X79677547Y-33410856D01*
X79641765Y-33418641D01*
X79600121Y-33418641D01*
X79510977Y-33442527D01*
X79510976Y-33442527D01*
X79510974Y-33442528D01*
X79510971Y-33442529D01*
X79431059Y-33488667D01*
X79431050Y-33488674D01*
X79365798Y-33553926D01*
X79365791Y-33553935D01*
X79319653Y-33633847D01*
X79319652Y-33633850D01*
X79319651Y-33633852D01*
X79319651Y-33633853D01*
X79295765Y-33722997D01*
X79295765Y-33815285D01*
X79318279Y-33899309D01*
X79319652Y-33904431D01*
X79319653Y-33904434D01*
X79365791Y-33984346D01*
X79365798Y-33984355D01*
X79387904Y-34006461D01*
X79421389Y-34067784D01*
X79416405Y-34137476D01*
X79387906Y-34181822D01*
X79365796Y-34203932D01*
X79365791Y-34203938D01*
X79319653Y-34283850D01*
X79319652Y-34283853D01*
X79319651Y-34283855D01*
X79319651Y-34283856D01*
X79295765Y-34373000D01*
X79295765Y-34465288D01*
X79316737Y-34543557D01*
X79319652Y-34554434D01*
X79319653Y-34554437D01*
X79365791Y-34634349D01*
X79365794Y-34634353D01*
X79365796Y-34634356D01*
X79431053Y-34699613D01*
X79431056Y-34699614D01*
X79431059Y-34699617D01*
X79510971Y-34745755D01*
X79510972Y-34745755D01*
X79510977Y-34745758D01*
X79600121Y-34769644D01*
X79600123Y-34769644D01*
X79692406Y-34769644D01*
X79692409Y-34769644D01*
X79732826Y-34758814D01*
X79767351Y-34759636D01*
X79801971Y-34760254D01*
X79802424Y-34760471D01*
X79802674Y-34760477D01*
X79833809Y-34775487D01*
X79853500Y-34788644D01*
X79889358Y-34812604D01*
X79894504Y-34816042D01*
X79939309Y-34869654D01*
X79948016Y-34938979D01*
X79917862Y-35002006D01*
X79894502Y-35022247D01*
X79833807Y-35062801D01*
X79767130Y-35083678D01*
X79732826Y-35079473D01*
X79692410Y-35068644D01*
X79692409Y-35068644D01*
X79600121Y-35068644D01*
X79510977Y-35092530D01*
X79510976Y-35092530D01*
X79510974Y-35092531D01*
X79510971Y-35092532D01*
X79431059Y-35138670D01*
X79431050Y-35138677D01*
X79365798Y-35203929D01*
X79365791Y-35203938D01*
X79319652Y-35283851D01*
X79307495Y-35329224D01*
X79295765Y-35373000D01*
X79295765Y-35465288D01*
X79319516Y-35553929D01*
X79319652Y-35554434D01*
X79319653Y-35554437D01*
X79365791Y-35634349D01*
X79365794Y-35634353D01*
X79365796Y-35634356D01*
X79431053Y-35699613D01*
X79431056Y-35699614D01*
X79431059Y-35699617D01*
X79510971Y-35745755D01*
X79510972Y-35745755D01*
X79510977Y-35745758D01*
X79600121Y-35769644D01*
X79600123Y-35769644D01*
X79692406Y-35769644D01*
X79692409Y-35769644D01*
X79732826Y-35758814D01*
X79802674Y-35760477D01*
X79833808Y-35775487D01*
X79867397Y-35797930D01*
X79909377Y-35825980D01*
X79909378Y-35825980D01*
X79909380Y-35825981D01*
X79978066Y-35839644D01*
X79978069Y-35839644D01*
X80294463Y-35839644D01*
X80363149Y-35825981D01*
X80363149Y-35825980D01*
X80363153Y-35825980D01*
X80441051Y-35773930D01*
X80493101Y-35696032D01*
X80493102Y-35696028D01*
X80506765Y-35627342D01*
X80506765Y-35210945D01*
X80493102Y-35142259D01*
X80493101Y-35142258D01*
X80493101Y-35142256D01*
X80441051Y-35064358D01*
X80423265Y-35052474D01*
X80378556Y-35022600D01*
X80378025Y-35022245D01*
X80333220Y-34968634D01*
X80324513Y-34899309D01*
X80354667Y-34836282D01*
X80378026Y-34816042D01*
X80441051Y-34773930D01*
X80493101Y-34696032D01*
X80500396Y-34659358D01*
X80506765Y-34627342D01*
X80506765Y-34210945D01*
X80493102Y-34142259D01*
X80493101Y-34142258D01*
X80493101Y-34142256D01*
X80441051Y-34064358D01*
X80431287Y-34057834D01*
X80378026Y-34022246D01*
X80333220Y-33968634D01*
X80324513Y-33899309D01*
X80354667Y-33836282D01*
X80378026Y-33816042D01*
X80379159Y-33815285D01*
X80441051Y-33773930D01*
X80493101Y-33696032D01*
X80493784Y-33692600D01*
X80506765Y-33627342D01*
X80506765Y-33210945D01*
X80493102Y-33142259D01*
X80493101Y-33142258D01*
X80493101Y-33142256D01*
X80441051Y-33064358D01*
X80441048Y-33064355D01*
X80421872Y-33051542D01*
X80416782Y-33045451D01*
X80409562Y-33042154D01*
X80394697Y-33019023D01*
X80377068Y-32997928D01*
X80375116Y-32988555D01*
X80371788Y-32983376D01*
X80366765Y-32948441D01*
X80366765Y-32904246D01*
X80386450Y-32837207D01*
X80421874Y-32801144D01*
X80429754Y-32795878D01*
X80479656Y-32762535D01*
X80532811Y-32682983D01*
X80546765Y-32612832D01*
X80546765Y-32225456D01*
X80546765Y-32225453D01*
X80546764Y-32225451D01*
X80532812Y-32155309D01*
X80532811Y-32155308D01*
X80532811Y-32155305D01*
X80479656Y-32075753D01*
X80400104Y-32022598D01*
X80400103Y-32022597D01*
X80389949Y-32015813D01*
X80392231Y-32012396D01*
X80355538Y-31982803D01*
X80333499Y-31916501D01*
X80350805Y-31848808D01*
X80388528Y-31809024D01*
X80441051Y-31773930D01*
X80493101Y-31696032D01*
X80494877Y-31687103D01*
X80506765Y-31627342D01*
X80506765Y-31210945D01*
X80493102Y-31142259D01*
X80493101Y-31142258D01*
X80493101Y-31142256D01*
X80441051Y-31064358D01*
X80368023Y-31015562D01*
X80323220Y-30961952D01*
X80314513Y-30892627D01*
X80344667Y-30829600D01*
X80368019Y-30809364D01*
X80421051Y-30773930D01*
X80473101Y-30696032D01*
X80476284Y-30680030D01*
X80486765Y-30627342D01*
X80486765Y-30210945D01*
X80473102Y-30142259D01*
X80473101Y-30142258D01*
X80473101Y-30142256D01*
X80421051Y-30064358D01*
X80421048Y-30064355D01*
X80401872Y-30051542D01*
X80396782Y-30045451D01*
X80389562Y-30042154D01*
X80374697Y-30019023D01*
X80357068Y-29997928D01*
X80355116Y-29988555D01*
X80351788Y-29983376D01*
X80346765Y-29948441D01*
X80346765Y-29889845D01*
X80366450Y-29822806D01*
X80401872Y-29786744D01*
X80421051Y-29773930D01*
X80473101Y-29696032D01*
X80478023Y-29671290D01*
X80486765Y-29627342D01*
X80486765Y-29210945D01*
X80473102Y-29142259D01*
X80473101Y-29142258D01*
X80473101Y-29142256D01*
X80421051Y-29064358D01*
X80420666Y-29064101D01*
X80376186Y-29034380D01*
X80331380Y-28980768D01*
X80322673Y-28911443D01*
X80352827Y-28848416D01*
X80397625Y-28816716D01*
X80400096Y-28815691D01*
X80400104Y-28815690D01*
X80479656Y-28762535D01*
X80532811Y-28682983D01*
X80546765Y-28612832D01*
X80546765Y-28225456D01*
X80546765Y-28225453D01*
X80546764Y-28225451D01*
X80532812Y-28155309D01*
X80532811Y-28155308D01*
X80532811Y-28155305D01*
X80479656Y-28075753D01*
X80400104Y-28022598D01*
X80400102Y-28022597D01*
X80400099Y-28022596D01*
X80368250Y-28016261D01*
X80306339Y-27983876D01*
X80271765Y-27923160D01*
X80275504Y-27853391D01*
X80316371Y-27796719D01*
X80381389Y-27771138D01*
X80392441Y-27770644D01*
X81895752Y-27770644D01*
X81925188Y-27779287D01*
X81955178Y-27785811D01*
X81960195Y-27789566D01*
X81962791Y-27790329D01*
X81983433Y-27806962D01*
X82060446Y-27883974D01*
X82093931Y-27945297D01*
X82096765Y-27971656D01*
X82096765Y-28983732D01*
X82077080Y-29050771D01*
X82060446Y-29071413D01*
X81949534Y-29182325D01*
X81888211Y-29215810D01*
X81861853Y-29218644D01*
X81607596Y-29218644D01*
X81540557Y-29198959D01*
X81500099Y-29152268D01*
X81499886Y-29152411D01*
X81498751Y-29150712D01*
X81494802Y-29146155D01*
X81493111Y-29142272D01*
X81493101Y-29142257D01*
X81493101Y-29142256D01*
X81441051Y-29064358D01*
X81363153Y-29012308D01*
X81363151Y-29012307D01*
X81363149Y-29012306D01*
X81294463Y-28998644D01*
X81294461Y-28998644D01*
X80978069Y-28998644D01*
X80978067Y-28998644D01*
X80909380Y-29012306D01*
X80909377Y-29012308D01*
X80831479Y-29064358D01*
X80779429Y-29142256D01*
X80779427Y-29142259D01*
X80765765Y-29210945D01*
X80765765Y-29210948D01*
X80765765Y-29627340D01*
X80765765Y-29627342D01*
X80765764Y-29627342D01*
X80779427Y-29696028D01*
X80779428Y-29696030D01*
X80779429Y-29696032D01*
X80831479Y-29773930D01*
X80894504Y-29816042D01*
X80939309Y-29869654D01*
X80948016Y-29938979D01*
X80917861Y-30002007D01*
X80894504Y-30022245D01*
X80859775Y-30045451D01*
X80831479Y-30064358D01*
X80779429Y-30142256D01*
X80779427Y-30142259D01*
X80765765Y-30210945D01*
X80765765Y-30210948D01*
X80765765Y-30627340D01*
X80765765Y-30627342D01*
X80765764Y-30627342D01*
X80779427Y-30696028D01*
X80779428Y-30696030D01*
X80779429Y-30696032D01*
X80831479Y-30773930D01*
X80909377Y-30825980D01*
X80909379Y-30825980D01*
X80909380Y-30825981D01*
X80978066Y-30839644D01*
X80978069Y-30839644D01*
X81294463Y-30839644D01*
X81363149Y-30825981D01*
X81363149Y-30825980D01*
X81363153Y-30825980D01*
X81441051Y-30773930D01*
X81493101Y-30696032D01*
X81493101Y-30696030D01*
X81499886Y-30685877D01*
X81500835Y-30686511D01*
X81536878Y-30641786D01*
X81603173Y-30619723D01*
X81607596Y-30619644D01*
X82336145Y-30619644D01*
X82336147Y-30619644D01*
X82409839Y-30589120D01*
X82835084Y-30163872D01*
X82896407Y-30130388D01*
X82966098Y-30135372D01*
X83022032Y-30177243D01*
X83046449Y-30242708D01*
X83046765Y-30251554D01*
X83046765Y-30655399D01*
X83030152Y-30717400D01*
X83020651Y-30733854D01*
X82997664Y-30819644D01*
X82996765Y-30823000D01*
X82996765Y-30915288D01*
X82998355Y-30921222D01*
X83020651Y-31004433D01*
X83030150Y-31020884D01*
X83034300Y-31036372D01*
X83041742Y-31047952D01*
X83046765Y-31082887D01*
X83046765Y-31322309D01*
X83027080Y-31389348D01*
X83010446Y-31409990D01*
X81450851Y-32969584D01*
X81389528Y-33003069D01*
X81338980Y-33003521D01*
X81314461Y-32998644D01*
X80998069Y-32998644D01*
X80998067Y-32998644D01*
X80929380Y-33012306D01*
X80929377Y-33012308D01*
X80851479Y-33064358D01*
X80799429Y-33142256D01*
X80799427Y-33142259D01*
X80785765Y-33210945D01*
X80785765Y-33319354D01*
X80781540Y-33351446D01*
X80775765Y-33372998D01*
X80775765Y-33373000D01*
X80775765Y-34373000D01*
X80775765Y-35465288D01*
X80780573Y-35483232D01*
X80781540Y-35486840D01*
X80785765Y-35518933D01*
X80785765Y-35627340D01*
X80785765Y-35627342D01*
X80785764Y-35627342D01*
X80799427Y-35696028D01*
X80799428Y-35696030D01*
X80799429Y-35696032D01*
X80851479Y-35773930D01*
X80929377Y-35825980D01*
X80929379Y-35825980D01*
X80929380Y-35825981D01*
X80998066Y-35839644D01*
X80998069Y-35839644D01*
X81314463Y-35839644D01*
X81383149Y-35825981D01*
X81383149Y-35825980D01*
X81383153Y-35825980D01*
X81461051Y-35773930D01*
X81513101Y-35696032D01*
X81513102Y-35696028D01*
X81526765Y-35627342D01*
X81526765Y-35210945D01*
X81513102Y-35142259D01*
X81513101Y-35142258D01*
X81513101Y-35142256D01*
X81497662Y-35119150D01*
X81476785Y-35052474D01*
X81476765Y-35050261D01*
X81476765Y-34788027D01*
X81496450Y-34720988D01*
X81497664Y-34719135D01*
X81513101Y-34696032D01*
X81513101Y-34696030D01*
X81513102Y-34696028D01*
X81520396Y-34659358D01*
X81526765Y-34627342D01*
X81526765Y-34210945D01*
X81513102Y-34142259D01*
X81513101Y-34142258D01*
X81513101Y-34142256D01*
X81497662Y-34119150D01*
X81492012Y-34101105D01*
X81481788Y-34085196D01*
X81477336Y-34054234D01*
X81476785Y-34052474D01*
X81476765Y-34050261D01*
X81476765Y-33808565D01*
X81496450Y-33741526D01*
X81538766Y-33701177D01*
X81542249Y-33699166D01*
X81542253Y-33699165D01*
X81610775Y-33659604D01*
X81666724Y-33603655D01*
X83587725Y-31682654D01*
X83627287Y-31614131D01*
X83647765Y-31537705D01*
X83647765Y-31458581D01*
X83647765Y-31082887D01*
X83664380Y-31020884D01*
X83667556Y-31015383D01*
X83673879Y-31004432D01*
X83697765Y-30915288D01*
X83697765Y-30823000D01*
X83673879Y-30733856D01*
X83664378Y-30717400D01*
X83647765Y-30655399D01*
X83647765Y-27030584D01*
X83647764Y-27030580D01*
X83639467Y-26999613D01*
X83627287Y-26954156D01*
X83587725Y-26885633D01*
X81730776Y-25028684D01*
X81730775Y-25028683D01*
X81730772Y-25028681D01*
X81708505Y-25015825D01*
X81708503Y-25015825D01*
X81668159Y-24992532D01*
X81662255Y-24989123D01*
X81627942Y-24979929D01*
X81585827Y-24968644D01*
X81585825Y-24968644D01*
X81354741Y-24968644D01*
X81287702Y-24948959D01*
X81241947Y-24896155D01*
X81234969Y-24876746D01*
X81214095Y-24798845D01*
X81203556Y-24773401D01*
X81200282Y-24767731D01*
X81137731Y-24659388D01*
X81120963Y-24637536D01*
X81120959Y-24637531D01*
X81027877Y-24544449D01*
X81027872Y-24544445D01*
X81012933Y-24532982D01*
X81006022Y-24527679D01*
X80997229Y-24522602D01*
X80949016Y-24472036D01*
X80939458Y-24447316D01*
X80926286Y-24398155D01*
X80926282Y-24398148D01*
X80886729Y-24329639D01*
X80886723Y-24329631D01*
X80830776Y-24273684D01*
X78825780Y-22268687D01*
X78825779Y-22268686D01*
X78825776Y-22268684D01*
X78818411Y-22264432D01*
X78784219Y-22244691D01*
X78757255Y-22229123D01*
X78731778Y-22222296D01*
X78680827Y-22208644D01*
X78680825Y-22208644D01*
X72145080Y-22208644D01*
X72078041Y-22188959D01*
X72076189Y-22187746D01*
X72066789Y-22181465D01*
X72023153Y-22152308D01*
X72023151Y-22152307D01*
X72023149Y-22152306D01*
X71954463Y-22138644D01*
X71954461Y-22138644D01*
X71538069Y-22138644D01*
X71538067Y-22138644D01*
X71469380Y-22152306D01*
X71469377Y-22152308D01*
X71391479Y-22204358D01*
X71339429Y-22282256D01*
X71339427Y-22282259D01*
X71325765Y-22350945D01*
X71325765Y-22350948D01*
X71325765Y-22667340D01*
X71325765Y-22667342D01*
X71325764Y-22667342D01*
X71339427Y-22736028D01*
X71339428Y-22736030D01*
X71339429Y-22736032D01*
X71391479Y-22813930D01*
X71469377Y-22865980D01*
X71469379Y-22865980D01*
X71469380Y-22865981D01*
X71538066Y-22879644D01*
X71538069Y-22879644D01*
X71954463Y-22879644D01*
X72023149Y-22865981D01*
X72023149Y-22865980D01*
X72023153Y-22865980D01*
X72076189Y-22830541D01*
X72142867Y-22809664D01*
X72145080Y-22809644D01*
X78465432Y-22809644D01*
X78532471Y-22829329D01*
X78553113Y-22845963D01*
X79909113Y-24201963D01*
X79942598Y-24263286D01*
X79937614Y-24332978D01*
X79895742Y-24388911D01*
X79830278Y-24413328D01*
X79821432Y-24413644D01*
X79280433Y-24413644D01*
X79253135Y-24417238D01*
X79125961Y-24451315D01*
X79100527Y-24461850D01*
X79100515Y-24461856D01*
X78986509Y-24527677D01*
X78964657Y-24544445D01*
X78964652Y-24544449D01*
X78871570Y-24637531D01*
X78871566Y-24637536D01*
X78854798Y-24659388D01*
X78788977Y-24773394D01*
X78788971Y-24773406D01*
X78778436Y-24798840D01*
X78773132Y-24818634D01*
X78757562Y-24876740D01*
X78721199Y-24936398D01*
X78658352Y-24966927D01*
X78637789Y-24968644D01*
X78600121Y-24968644D01*
X78510977Y-24992530D01*
X78510976Y-24992530D01*
X78510974Y-24992531D01*
X78510971Y-24992532D01*
X78431059Y-25038670D01*
X78431050Y-25038677D01*
X78365798Y-25103929D01*
X78365791Y-25103938D01*
X78319653Y-25183850D01*
X78319652Y-25183853D01*
X78295765Y-25273000D01*
X78295765Y-25365286D01*
X78296572Y-25371417D01*
X78285804Y-25440452D01*
X78239423Y-25492706D01*
X78172153Y-25511590D01*
X78105353Y-25491108D01*
X78085951Y-25475280D01*
X77709839Y-25099168D01*
X77636148Y-25068644D01*
X77636147Y-25068644D01*
X74250153Y-25068644D01*
X74183114Y-25048959D01*
X74162472Y-25032325D01*
X73751734Y-24621587D01*
X73718249Y-24560264D01*
X73715415Y-24533906D01*
X73715415Y-24441652D01*
X73715415Y-24441650D01*
X73691529Y-24352506D01*
X73691526Y-24352500D01*
X73645388Y-24272588D01*
X73645385Y-24272585D01*
X73645384Y-24272582D01*
X73580127Y-24207325D01*
X73580124Y-24207323D01*
X73580120Y-24207320D01*
X73500208Y-24161182D01*
X73500205Y-24161181D01*
X73500204Y-24161180D01*
X73500203Y-24161180D01*
X73411059Y-24137294D01*
X73318771Y-24137294D01*
X73229627Y-24161180D01*
X73229626Y-24161180D01*
X73229624Y-24161181D01*
X73229621Y-24161182D01*
X73149709Y-24207320D01*
X73149700Y-24207327D01*
X73084448Y-24272579D01*
X73084441Y-24272588D01*
X73038301Y-24352502D01*
X73037473Y-24354504D01*
X73036321Y-24355932D01*
X73034236Y-24359545D01*
X73033672Y-24359219D01*
X72993631Y-24408908D01*
X72927337Y-24430972D01*
X72859638Y-24413692D01*
X72835231Y-24394732D01*
X72771479Y-24330980D01*
X72771477Y-24330978D01*
X72771474Y-24330976D01*
X72771470Y-24330973D01*
X72691558Y-24284835D01*
X72691555Y-24284834D01*
X72691554Y-24284833D01*
X72691553Y-24284833D01*
X72602409Y-24260947D01*
X72510121Y-24260947D01*
X72420977Y-24284833D01*
X72420976Y-24284833D01*
X72420974Y-24284834D01*
X72420971Y-24284835D01*
X72341059Y-24330973D01*
X72341046Y-24330983D01*
X72339332Y-24332698D01*
X72337530Y-24333681D01*
X72334607Y-24335925D01*
X72334256Y-24335468D01*
X72278007Y-24366179D01*
X72208316Y-24361190D01*
X72152385Y-24319315D01*
X72148555Y-24313902D01*
X72129133Y-24284835D01*
X72089656Y-24225753D01*
X72010104Y-24172598D01*
X72010103Y-24172597D01*
X72001874Y-24167099D01*
X71996783Y-24161007D01*
X71989562Y-24157710D01*
X71974698Y-24134582D01*
X71957069Y-24113487D01*
X71955117Y-24104112D01*
X71951788Y-24098932D01*
X71946765Y-24063997D01*
X71946765Y-24000475D01*
X71966450Y-23933436D01*
X72013140Y-23892978D01*
X72012998Y-23892765D01*
X72014696Y-23891630D01*
X72019254Y-23887681D01*
X72023136Y-23885990D01*
X72023150Y-23885980D01*
X72023153Y-23885980D01*
X72101051Y-23833930D01*
X72153101Y-23756032D01*
X72154246Y-23750278D01*
X72166765Y-23687342D01*
X72166765Y-23370945D01*
X72153102Y-23302259D01*
X72153101Y-23302258D01*
X72153101Y-23302256D01*
X72101051Y-23224358D01*
X72023153Y-23172308D01*
X72023151Y-23172307D01*
X72023149Y-23172306D01*
X71954463Y-23158644D01*
X71954461Y-23158644D01*
X71538069Y-23158644D01*
X71538067Y-23158644D01*
X71469380Y-23172306D01*
X71469377Y-23172308D01*
X71391479Y-23224358D01*
X71339429Y-23302256D01*
X71339427Y-23302259D01*
X71325765Y-23370945D01*
X71325765Y-23370948D01*
X71325765Y-23687340D01*
X71325765Y-23687342D01*
X71325764Y-23687342D01*
X71339427Y-23756028D01*
X71339428Y-23756030D01*
X71339429Y-23756032D01*
X71391479Y-23833930D01*
X71469377Y-23885980D01*
X71479532Y-23892765D01*
X71478897Y-23893714D01*
X71484784Y-23898457D01*
X71502968Y-23906762D01*
X71511432Y-23919932D01*
X71523623Y-23929757D01*
X71529935Y-23948724D01*
X71540742Y-23965540D01*
X71544705Y-23993105D01*
X71545686Y-23996052D01*
X71545765Y-24000475D01*
X71545765Y-24063997D01*
X71526080Y-24131036D01*
X71490656Y-24167099D01*
X71482426Y-24172597D01*
X71482426Y-24172598D01*
X71480431Y-24173931D01*
X71402874Y-24225753D01*
X71349719Y-24305305D01*
X71349717Y-24305309D01*
X71335765Y-24375451D01*
X71335765Y-24614731D01*
X71327120Y-24644171D01*
X71320597Y-24674158D01*
X71316842Y-24679173D01*
X71316080Y-24681770D01*
X71299446Y-24702412D01*
X71146446Y-24855412D01*
X71085123Y-24888897D01*
X71015431Y-24883913D01*
X70959498Y-24842041D01*
X70935081Y-24776577D01*
X70934765Y-24767731D01*
X70934765Y-23017263D01*
X70934764Y-23017260D01*
X70933657Y-23014587D01*
X70904241Y-22943570D01*
X70847839Y-22887168D01*
X70683083Y-22722412D01*
X70649598Y-22661089D01*
X70646764Y-22634731D01*
X70646764Y-21659249D01*
X70646763Y-21659241D01*
X70640934Y-21629931D01*
X70618722Y-21596686D01*
X70585479Y-21574476D01*
X70585480Y-21574476D01*
X70585478Y-21574475D01*
X70585476Y-21574474D01*
X70585473Y-21574473D01*
X70556166Y-21568644D01*
X69978539Y-21568644D01*
X69911500Y-21548959D01*
X69865745Y-21496155D01*
X69855801Y-21426997D01*
X69884826Y-21363441D01*
X69890844Y-21356977D01*
X70197725Y-21050097D01*
X70215307Y-21019644D01*
X70237286Y-20981575D01*
X70257765Y-20905148D01*
X70257765Y-20874621D01*
X70263467Y-20856474D01*
X70272750Y-20842610D01*
X70277450Y-20826605D01*
X70291785Y-20814183D01*
X70302342Y-20798418D01*
X70317647Y-20791773D01*
X70330254Y-20780850D01*
X70355423Y-20775374D01*
X70366433Y-20770595D01*
X70372697Y-20771616D01*
X70381765Y-20769644D01*
X71904769Y-20769644D01*
X71971808Y-20789329D01*
X72012156Y-20831644D01*
X72015745Y-20837860D01*
X72127549Y-20949664D01*
X72127551Y-20949665D01*
X72127555Y-20949668D01*
X72248757Y-21019643D01*
X72264481Y-21028721D01*
X72417208Y-21069644D01*
X72417210Y-21069644D01*
X72575320Y-21069644D01*
X72575322Y-21069644D01*
X72728049Y-21028721D01*
X72864981Y-20949664D01*
X72976785Y-20837860D01*
X73055842Y-20700928D01*
X73096765Y-20548201D01*
X73096765Y-20390087D01*
X73055842Y-20237360D01*
X73055838Y-20237353D01*
X72976789Y-20100434D01*
X72976783Y-20100426D01*
X72864982Y-19988625D01*
X72864974Y-19988619D01*
X72728055Y-19909570D01*
X72728051Y-19909568D01*
X72728049Y-19909567D01*
X72575322Y-19868644D01*
X72417208Y-19868644D01*
X72264481Y-19909567D01*
X72264474Y-19909570D01*
X72127555Y-19988619D01*
X72127547Y-19988625D01*
X72015744Y-20100428D01*
X72012157Y-20106643D01*
X71961590Y-20154859D01*
X71904769Y-20168644D01*
X70104703Y-20168644D01*
X70066489Y-20178883D01*
X70028274Y-20189123D01*
X69992134Y-20209989D01*
X69987687Y-20212557D01*
X69959754Y-20228684D01*
X69956480Y-20231957D01*
X69946062Y-20238411D01*
X69918117Y-20246114D01*
X69891085Y-20256566D01*
X69884845Y-20255286D01*
X69878705Y-20256979D01*
X69851035Y-20248352D01*
X69822640Y-20242529D01*
X69818082Y-20238078D01*
X69812002Y-20236183D01*
X69793388Y-20213966D01*
X69772649Y-20193716D01*
X69770936Y-20187169D01*
X69767130Y-20182626D01*
X69764665Y-20163196D01*
X69756765Y-20132996D01*
X69756765Y-19913919D01*
X69756765Y-19913917D01*
X69729472Y-19812057D01*
X69676745Y-19720731D01*
X69602178Y-19646164D01*
X69533480Y-19606501D01*
X69510854Y-19593438D01*
X69510853Y-19593437D01*
X69510852Y-19593437D01*
X69408992Y-19566144D01*
X69408991Y-19566144D01*
X69296822Y-19566144D01*
X69229783Y-19546459D01*
X69184028Y-19493655D01*
X69174084Y-19424497D01*
X69203109Y-19360941D01*
X69209141Y-19354463D01*
X69429141Y-19134463D01*
X69490464Y-19100978D01*
X69516822Y-19098144D01*
X84275708Y-19098144D01*
X84342747Y-19117829D01*
G37*
%TD.AperFunction*%
%TA.AperFunction,Conductor*%
G36*
X38872987Y-36094329D02*
G01*
X38916901Y-36145008D01*
X38633765Y-36144144D01*
X38633765Y-37344144D01*
X38309765Y-37344144D01*
X38332192Y-37341733D01*
X38383703Y-37330527D01*
X38430364Y-37307170D01*
X38483168Y-37261415D01*
X38515306Y-37211407D01*
X38534991Y-37144368D01*
X38539265Y-37114644D01*
X38539265Y-36198644D01*
X38541815Y-36189958D01*
X38540527Y-36180997D01*
X38551505Y-36156956D01*
X38558950Y-36131605D01*
X38565790Y-36125677D01*
X38569552Y-36117441D01*
X38591786Y-36103151D01*
X38611754Y-36085850D01*
X38622268Y-36083562D01*
X38628330Y-36079667D01*
X38663265Y-36074644D01*
X38805948Y-36074644D01*
X38872987Y-36094329D01*
G37*
%TD.AperFunction*%
%TA.AperFunction,Conductor*%
G36*
X58728203Y-33809329D02*
G01*
X58764263Y-33844750D01*
X58802874Y-33902535D01*
X58882426Y-33955690D01*
X58882429Y-33955690D01*
X58882430Y-33955691D01*
X58952572Y-33969643D01*
X58952575Y-33969644D01*
X58952577Y-33969644D01*
X59339955Y-33969644D01*
X59339956Y-33969643D01*
X59410104Y-33955690D01*
X59489656Y-33902535D01*
X59528265Y-33844751D01*
X59581876Y-33799948D01*
X59631366Y-33789644D01*
X60456383Y-33789644D01*
X61114024Y-33789644D01*
X61181063Y-33809329D01*
X61226818Y-33862133D01*
X61230389Y-33870804D01*
X61233746Y-33879924D01*
X61240880Y-33915786D01*
X61254396Y-33936015D01*
X61259482Y-33949828D01*
X61260878Y-33970593D01*
X61267097Y-33990454D01*
X61263175Y-34004749D01*
X61264170Y-34019540D01*
X61254119Y-34037762D01*
X61248613Y-34057834D01*
X61230799Y-34080349D01*
X61088821Y-34222326D01*
X61027501Y-34255810D01*
X61001142Y-34258644D01*
X60862574Y-34258644D01*
X60792430Y-34272596D01*
X60792426Y-34272598D01*
X60712874Y-34325753D01*
X60659719Y-34405305D01*
X60659717Y-34405309D01*
X60645765Y-34475451D01*
X60645765Y-34862836D01*
X60659717Y-34932981D01*
X60664392Y-34944265D01*
X60661584Y-34945427D01*
X60670742Y-34959677D01*
X60675188Y-34990604D01*
X60675745Y-34992380D01*
X60675765Y-34994612D01*
X60675765Y-35219955D01*
X60656080Y-35286994D01*
X60639446Y-35307636D01*
X60264757Y-35682325D01*
X60203434Y-35715810D01*
X60177076Y-35718644D01*
X55392809Y-35718644D01*
X55325770Y-35698959D01*
X55305128Y-35682325D01*
X54733084Y-35110281D01*
X54699599Y-35048958D01*
X54696765Y-35022600D01*
X54696765Y-33995310D01*
X54716450Y-33928271D01*
X54769254Y-33882516D01*
X54838412Y-33872572D01*
X54882765Y-33887923D01*
X54930977Y-33915758D01*
X55020121Y-33939644D01*
X55112409Y-33939644D01*
X57820796Y-33939644D01*
X57869883Y-33954057D01*
X57871143Y-33951017D01*
X57882426Y-33955690D01*
X57952572Y-33969643D01*
X57952575Y-33969644D01*
X57952577Y-33969644D01*
X58339955Y-33969644D01*
X58339956Y-33969643D01*
X58410104Y-33955690D01*
X58489656Y-33902535D01*
X58528265Y-33844751D01*
X58534354Y-33839662D01*
X58537653Y-33832441D01*
X58560781Y-33817577D01*
X58581876Y-33799948D01*
X58591250Y-33797996D01*
X58596431Y-33794667D01*
X58631366Y-33789644D01*
X58661164Y-33789644D01*
X58728203Y-33809329D01*
G37*
%TD.AperFunction*%
%TA.AperFunction,Conductor*%
G36*
X55427835Y-28938329D02*
G01*
X55448477Y-28954963D01*
X55839446Y-29345932D01*
X55872931Y-29407255D01*
X55875765Y-29433613D01*
X55875765Y-29633675D01*
X55861351Y-29682762D01*
X55864392Y-29684022D01*
X55859718Y-29695305D01*
X55845765Y-29765451D01*
X55845765Y-30152836D01*
X55859717Y-30222978D01*
X55859718Y-30222981D01*
X55859719Y-30222983D01*
X55912874Y-30302535D01*
X55958607Y-30333093D01*
X55970656Y-30341144D01*
X55975746Y-30347234D01*
X55982968Y-30350533D01*
X55997833Y-30373663D01*
X56015461Y-30394757D01*
X56017412Y-30404130D01*
X56020742Y-30409311D01*
X56025765Y-30444246D01*
X56025765Y-30584042D01*
X56006080Y-30651081D01*
X55970656Y-30687144D01*
X55912874Y-30725753D01*
X55859719Y-30805305D01*
X55859717Y-30805309D01*
X55845765Y-30875451D01*
X55845765Y-31262836D01*
X55859717Y-31332978D01*
X55859718Y-31332981D01*
X55859719Y-31332983D01*
X55912874Y-31412535D01*
X55992426Y-31465690D01*
X55992429Y-31465690D01*
X55992430Y-31465691D01*
X56062572Y-31479643D01*
X56062575Y-31479644D01*
X56062577Y-31479644D01*
X56389955Y-31479644D01*
X56389956Y-31479643D01*
X56460104Y-31465690D01*
X56539656Y-31412535D01*
X56539656Y-31412534D01*
X56549810Y-31405750D01*
X56551544Y-31408345D01*
X56595907Y-31384122D01*
X56665599Y-31389106D01*
X56721532Y-31430978D01*
X56745949Y-31496442D01*
X56746265Y-31505288D01*
X56746265Y-33114644D01*
X56726580Y-33181683D01*
X56673776Y-33227438D01*
X56622265Y-33238644D01*
X55262809Y-33238644D01*
X55195770Y-33218959D01*
X55175128Y-33202325D01*
X54733084Y-32760281D01*
X54699599Y-32698958D01*
X54696765Y-32672600D01*
X54696765Y-29353613D01*
X54716450Y-29286574D01*
X54733084Y-29265932D01*
X55044053Y-28954963D01*
X55070980Y-28940259D01*
X55096799Y-28923667D01*
X55102999Y-28922775D01*
X55105376Y-28921478D01*
X55131734Y-28918644D01*
X55360796Y-28918644D01*
X55427835Y-28938329D01*
G37*
%TD.AperFunction*%
%TA.AperFunction,Conductor*%
G36*
X37403018Y-30176996D02*
G01*
X37411272Y-30175715D01*
X37436049Y-30186695D01*
X37462046Y-30194329D01*
X37467514Y-30200639D01*
X37475151Y-30204024D01*
X37490059Y-30226658D01*
X37507801Y-30247133D01*
X37509985Y-30256909D01*
X37513584Y-30262373D01*
X37518916Y-30296878D01*
X37518999Y-30297249D01*
X37519003Y-30297620D01*
X37519889Y-30387860D01*
X37520048Y-30390535D01*
X37520082Y-30393535D01*
X37520012Y-30393780D01*
X37522524Y-30449725D01*
X37522525Y-30449733D01*
X37526386Y-30471657D01*
X37528265Y-30493160D01*
X37528265Y-31444646D01*
X37530675Y-31467070D01*
X37541882Y-31518582D01*
X37564332Y-31563431D01*
X37576738Y-31632190D01*
X37561012Y-31675531D01*
X37561708Y-31675820D01*
X37557033Y-31687103D01*
X37545765Y-31743755D01*
X37545765Y-31994532D01*
X37557033Y-32051184D01*
X37557034Y-32051186D01*
X37557035Y-32051187D01*
X37557164Y-32051381D01*
X37557317Y-32051867D01*
X37561708Y-32062468D01*
X37560758Y-32062861D01*
X37578040Y-32118057D01*
X37559554Y-32185437D01*
X37558378Y-32187303D01*
X37552227Y-32196873D01*
X37552224Y-32196880D01*
X37532540Y-32263914D01*
X37532539Y-32263919D01*
X37532539Y-32263920D01*
X37528672Y-32290818D01*
X37528265Y-32293647D01*
X37528265Y-32664646D01*
X37530675Y-32687070D01*
X37541882Y-32738582D01*
X37565239Y-32785244D01*
X37599218Y-32824457D01*
X37610994Y-32838047D01*
X37661002Y-32870185D01*
X37728041Y-32889870D01*
X37757765Y-32894144D01*
X35608765Y-32894144D01*
X35608765Y-32169144D01*
X34285765Y-32169144D01*
X34285765Y-32157006D01*
X34305450Y-32089967D01*
X34322084Y-32069325D01*
X34585446Y-31805963D01*
X34646769Y-31772478D01*
X34673127Y-31769644D01*
X34889955Y-31769644D01*
X34889956Y-31769643D01*
X34960104Y-31755690D01*
X35039656Y-31702535D01*
X35054878Y-31679754D01*
X35108490Y-31634948D01*
X35157980Y-31624644D01*
X35646765Y-31624644D01*
X35713804Y-31644329D01*
X35759559Y-31697133D01*
X35770765Y-31748644D01*
X35770765Y-31994532D01*
X35782033Y-32051184D01*
X35782034Y-32051185D01*
X35782034Y-32051186D01*
X35782035Y-32051187D01*
X35824968Y-32115441D01*
X35889222Y-32158374D01*
X35889223Y-32158374D01*
X35889224Y-32158375D01*
X35945876Y-32169643D01*
X35945880Y-32169644D01*
X35945881Y-32169644D01*
X36171650Y-32169644D01*
X36171651Y-32169643D01*
X36190706Y-32165853D01*
X36228305Y-32158375D01*
X36228305Y-32158374D01*
X36228308Y-32158374D01*
X36292562Y-32115441D01*
X36335495Y-32051187D01*
X36338450Y-32036334D01*
X36344939Y-32003709D01*
X36346765Y-31994528D01*
X36346765Y-31743760D01*
X36339981Y-31709654D01*
X36335496Y-31687103D01*
X36335495Y-31687102D01*
X36335495Y-31687101D01*
X36312779Y-31653105D01*
X36291902Y-31586428D01*
X36310387Y-31519048D01*
X36311567Y-31517175D01*
X36311682Y-31516997D01*
X36327806Y-31491907D01*
X36347491Y-31424868D01*
X36351765Y-31395144D01*
X36351765Y-30568144D01*
X36349354Y-30545717D01*
X36338148Y-30494206D01*
X36314791Y-30447545D01*
X36314790Y-30447543D01*
X36281083Y-30408644D01*
X36269036Y-30394741D01*
X36269031Y-30394738D01*
X36266284Y-30392357D01*
X36264315Y-30389293D01*
X36263229Y-30388040D01*
X36263409Y-30387883D01*
X36228510Y-30333578D01*
X36228510Y-30263709D01*
X36266285Y-30204931D01*
X36329840Y-30175906D01*
X36347487Y-30174644D01*
X37395007Y-30174644D01*
X37403018Y-30176996D01*
G37*
%TD.AperFunction*%
%TA.AperFunction,Conductor*%
G36*
X39059941Y-31644329D02*
G01*
X39096003Y-31679752D01*
X39102874Y-31690035D01*
X39110746Y-31695295D01*
X38733765Y-31694144D01*
X38733765Y-32894144D01*
X38409765Y-32894144D01*
X38432192Y-32891733D01*
X38483703Y-32880527D01*
X38530364Y-32857170D01*
X38583168Y-32811415D01*
X38615306Y-32761407D01*
X38634991Y-32694368D01*
X38639265Y-32664644D01*
X38639265Y-31748644D01*
X38641815Y-31739958D01*
X38640527Y-31730997D01*
X38651505Y-31706956D01*
X38658950Y-31681605D01*
X38665790Y-31675677D01*
X38669552Y-31667441D01*
X38691786Y-31653151D01*
X38711754Y-31635850D01*
X38722268Y-31633562D01*
X38728330Y-31629667D01*
X38763265Y-31624644D01*
X38992902Y-31624644D01*
X39059941Y-31644329D01*
G37*
%TD.AperFunction*%
%TA.AperFunction,Conductor*%
G36*
X68697539Y-29119879D02*
G01*
X68704545Y-29121273D01*
X68749252Y-29139788D01*
X68757191Y-29145093D01*
X68764970Y-29152872D01*
X68766455Y-29153649D01*
X68767392Y-29155294D01*
X68791404Y-29179307D01*
X68796709Y-29187247D01*
X68815220Y-29231933D01*
X68816614Y-29238938D01*
X68818999Y-29263140D01*
X68818999Y-32361860D01*
X68816614Y-32386065D01*
X68815220Y-32393069D01*
X68796709Y-32437752D01*
X68791406Y-32445689D01*
X68783605Y-32453489D01*
X68782828Y-32454976D01*
X68781183Y-32455912D01*
X68757196Y-32479901D01*
X68749257Y-32485206D01*
X68704560Y-32503722D01*
X68697557Y-32505115D01*
X68673362Y-32507499D01*
X65574639Y-32507499D01*
X65550437Y-32505114D01*
X65543432Y-32503720D01*
X65498743Y-32485207D01*
X65490805Y-32479903D01*
X65483008Y-32472106D01*
X65481524Y-32471330D01*
X65480588Y-32469686D01*
X65456596Y-32445695D01*
X65451293Y-32437759D01*
X65432774Y-32393045D01*
X65431378Y-32386028D01*
X65429000Y-32361857D01*
X65429000Y-29263136D01*
X65431381Y-29238955D01*
X65432773Y-29231954D01*
X65451292Y-29187240D01*
X65456600Y-29179298D01*
X65464380Y-29171517D01*
X65465153Y-29170040D01*
X65466790Y-29169107D01*
X65490799Y-29145098D01*
X65498738Y-29139793D01*
X65543448Y-29121275D01*
X65550472Y-29119878D01*
X65574640Y-29117500D01*
X68673365Y-29117500D01*
X68697539Y-29119879D01*
G37*
%TD.AperFunction*%
%TA.AperFunction,Conductor*%
G36*
X72194590Y-24799941D02*
G01*
X72213567Y-24797557D01*
X72228474Y-24804688D01*
X72244842Y-24806982D01*
X72274601Y-24825957D01*
X72278128Y-24828991D01*
X72341053Y-24891916D01*
X72372145Y-24909867D01*
X72380953Y-24917444D01*
X72418939Y-24976086D01*
X72419190Y-25045955D01*
X72381627Y-25104868D01*
X72362092Y-25118833D01*
X72341056Y-25130978D01*
X72341050Y-25130983D01*
X72275798Y-25196235D01*
X72275791Y-25196244D01*
X72229653Y-25276156D01*
X72229652Y-25276159D01*
X72229651Y-25276161D01*
X72229651Y-25276162D01*
X72205765Y-25365306D01*
X72205765Y-25457594D01*
X72226333Y-25534356D01*
X72229652Y-25546740D01*
X72229653Y-25546743D01*
X72275791Y-25626655D01*
X72275794Y-25626659D01*
X72275796Y-25626662D01*
X72341053Y-25691919D01*
X72341056Y-25691920D01*
X72341059Y-25691923D01*
X72420971Y-25738061D01*
X72420972Y-25738061D01*
X72420977Y-25738064D01*
X72510121Y-25761950D01*
X72510123Y-25761950D01*
X72604159Y-25761950D01*
X72671198Y-25781635D01*
X72691840Y-25798269D01*
X73158426Y-26264855D01*
X73232118Y-26295379D01*
X73311883Y-26295379D01*
X77137588Y-26295379D01*
X77204627Y-26315064D01*
X77225269Y-26331698D01*
X79259446Y-28365875D01*
X79292931Y-28427198D01*
X79295765Y-28453556D01*
X79295765Y-28465288D01*
X79310752Y-28521222D01*
X79319652Y-28554434D01*
X79319653Y-28554437D01*
X79365791Y-28634349D01*
X79365794Y-28634353D01*
X79365796Y-28634356D01*
X79431053Y-28699613D01*
X79431056Y-28699614D01*
X79431059Y-28699617D01*
X79510971Y-28745755D01*
X79510972Y-28745755D01*
X79510977Y-28745758D01*
X79600121Y-28769644D01*
X79600123Y-28769644D01*
X79692406Y-28769644D01*
X79692409Y-28769644D01*
X79760272Y-28751460D01*
X79794795Y-28752282D01*
X79829415Y-28752900D01*
X79829868Y-28753117D01*
X79830118Y-28753123D01*
X79861249Y-28768131D01*
X79904714Y-28797173D01*
X79949518Y-28850784D01*
X79958225Y-28920109D01*
X79928071Y-28983136D01*
X79898539Y-29004037D01*
X79899532Y-29005523D01*
X79889377Y-29012307D01*
X79889377Y-29012308D01*
X79853978Y-29035961D01*
X79811479Y-29064358D01*
X79759429Y-29142256D01*
X79759427Y-29142259D01*
X79745765Y-29210945D01*
X79745765Y-29210948D01*
X79745765Y-29627340D01*
X79745765Y-29627342D01*
X79745764Y-29627342D01*
X79759427Y-29696028D01*
X79759428Y-29696030D01*
X79759429Y-29696032D01*
X79811479Y-29773930D01*
X79874503Y-29816042D01*
X79895544Y-29841218D01*
X79917468Y-29865625D01*
X79917835Y-29867890D01*
X79919308Y-29869653D01*
X79923397Y-29902216D01*
X79928645Y-29934595D01*
X79927728Y-29936699D01*
X79928015Y-29938978D01*
X79913851Y-29968582D01*
X79900760Y-29998659D01*
X79898483Y-30000703D01*
X79897861Y-30002005D01*
X79874504Y-30022244D01*
X79819535Y-30058974D01*
X79752858Y-30079853D01*
X79718552Y-30075649D01*
X79692409Y-30068644D01*
X79600121Y-30068644D01*
X79510977Y-30092530D01*
X79510976Y-30092530D01*
X79510974Y-30092531D01*
X79510971Y-30092532D01*
X79431059Y-30138670D01*
X79431050Y-30138677D01*
X79365798Y-30203929D01*
X79365791Y-30203938D01*
X79319653Y-30283850D01*
X79319652Y-30283853D01*
X79319651Y-30283855D01*
X79319651Y-30283856D01*
X79295765Y-30373000D01*
X79295765Y-30465288D01*
X79319185Y-30552694D01*
X79319652Y-30554434D01*
X79319653Y-30554437D01*
X79365791Y-30634349D01*
X79365794Y-30634353D01*
X79365796Y-30634356D01*
X79431053Y-30699613D01*
X79431056Y-30699614D01*
X79431059Y-30699617D01*
X79510971Y-30745755D01*
X79510972Y-30745755D01*
X79510977Y-30745758D01*
X79600121Y-30769644D01*
X79600123Y-30769644D01*
X79692406Y-30769644D01*
X79692409Y-30769644D01*
X79718551Y-30762639D01*
X79753077Y-30763461D01*
X79787695Y-30764079D01*
X79788148Y-30764296D01*
X79788399Y-30764302D01*
X79819530Y-30779309D01*
X79884505Y-30822724D01*
X79929309Y-30876334D01*
X79938016Y-30945659D01*
X79907862Y-31008687D01*
X79884505Y-31028926D01*
X79831479Y-31064357D01*
X79779429Y-31142256D01*
X79779427Y-31142259D01*
X79765765Y-31210945D01*
X79765765Y-31547182D01*
X79746080Y-31614221D01*
X79729446Y-31634863D01*
X79415290Y-31949018D01*
X79415289Y-31949019D01*
X79395326Y-31997215D01*
X79351484Y-32051619D01*
X79285190Y-32073683D01*
X79217491Y-32056403D01*
X79169881Y-32005266D01*
X79156765Y-31949762D01*
X79156765Y-31875453D01*
X79156764Y-31875451D01*
X79142812Y-31805309D01*
X79142811Y-31805308D01*
X79142811Y-31805305D01*
X79089656Y-31725753D01*
X79010104Y-31672598D01*
X79010102Y-31672597D01*
X79010099Y-31672596D01*
X78939956Y-31658644D01*
X78939953Y-31658644D01*
X78660388Y-31658644D01*
X78639142Y-31652405D01*
X78617054Y-31650826D01*
X78606270Y-31642753D01*
X78593349Y-31638959D01*
X78578849Y-31622225D01*
X78561121Y-31608954D01*
X78556413Y-31596333D01*
X78547594Y-31586155D01*
X78544442Y-31564237D01*
X78536704Y-31543490D01*
X78539566Y-31530329D01*
X78537650Y-31516997D01*
X78546849Y-31496853D01*
X78551556Y-31475217D01*
X78564824Y-31457491D01*
X78566675Y-31453441D01*
X78572707Y-31446963D01*
X78603707Y-31415963D01*
X78665030Y-31382478D01*
X78691388Y-31379644D01*
X78939955Y-31379644D01*
X78939956Y-31379643D01*
X79010104Y-31365690D01*
X79089656Y-31312535D01*
X79142811Y-31232983D01*
X79156765Y-31162832D01*
X79156765Y-30835456D01*
X79156765Y-30835453D01*
X79156764Y-30835451D01*
X79142812Y-30765309D01*
X79142811Y-30765308D01*
X79142811Y-30765305D01*
X79089656Y-30685753D01*
X79010104Y-30632598D01*
X79010102Y-30632597D01*
X79010099Y-30632596D01*
X78939956Y-30618644D01*
X78939953Y-30618644D01*
X78552577Y-30618644D01*
X78552574Y-30618644D01*
X78482430Y-30632596D01*
X78482426Y-30632598D01*
X78402874Y-30685753D01*
X78349719Y-30765305D01*
X78349717Y-30765309D01*
X78334576Y-30841430D01*
X78334454Y-30841405D01*
X78331797Y-30855367D01*
X78327595Y-30870095D01*
X78319651Y-30883856D01*
X78295765Y-30973000D01*
X78295765Y-30981684D01*
X78291138Y-30997905D01*
X78277155Y-31020036D01*
X78266564Y-31043976D01*
X78259576Y-31051572D01*
X78117821Y-31193326D01*
X78056501Y-31226810D01*
X78030142Y-31229644D01*
X75172389Y-31229644D01*
X75105350Y-31209959D01*
X75084708Y-31193325D01*
X75069981Y-31178598D01*
X75036496Y-31117275D01*
X75036045Y-31066725D01*
X75046765Y-31012834D01*
X75046765Y-30625453D01*
X75046764Y-30625451D01*
X75032812Y-30555309D01*
X75032811Y-30555308D01*
X75032811Y-30555305D01*
X74979656Y-30475753D01*
X74973111Y-30471380D01*
X74899577Y-30422246D01*
X74854771Y-30368634D01*
X74846064Y-30299309D01*
X74876218Y-30236282D01*
X74899577Y-30216042D01*
X74916206Y-30204931D01*
X74979656Y-30162535D01*
X75032811Y-30082983D01*
X75046765Y-30012832D01*
X75046765Y-29625456D01*
X75046765Y-29625453D01*
X75046764Y-29625451D01*
X75032812Y-29555309D01*
X75032811Y-29555308D01*
X75032811Y-29555305D01*
X74979656Y-29475753D01*
X74974937Y-29472600D01*
X74899577Y-29422246D01*
X74854771Y-29368634D01*
X74846064Y-29299309D01*
X74876218Y-29236282D01*
X74899577Y-29216042D01*
X74907205Y-29210945D01*
X74979656Y-29162535D01*
X75032811Y-29082983D01*
X75046765Y-29012832D01*
X75046765Y-28625456D01*
X75046765Y-28625453D01*
X75046764Y-28625451D01*
X75032812Y-28555309D01*
X75032811Y-28555308D01*
X75032811Y-28555305D01*
X74979656Y-28475753D01*
X74928788Y-28441764D01*
X74921874Y-28437144D01*
X74916783Y-28431053D01*
X74909562Y-28427755D01*
X74894696Y-28404624D01*
X74877069Y-28383531D01*
X74875117Y-28374157D01*
X74871788Y-28368977D01*
X74866765Y-28334042D01*
X74866765Y-28304246D01*
X74886450Y-28237207D01*
X74921874Y-28201144D01*
X74929754Y-28195878D01*
X74979656Y-28162535D01*
X75032811Y-28082983D01*
X75046765Y-28012832D01*
X75046765Y-27625456D01*
X75046765Y-27625453D01*
X75046764Y-27625451D01*
X75032812Y-27555309D01*
X75032811Y-27555308D01*
X75032811Y-27555305D01*
X74979656Y-27475753D01*
X74900104Y-27422598D01*
X74900102Y-27422597D01*
X74900099Y-27422596D01*
X74829956Y-27408644D01*
X74829953Y-27408644D01*
X74502577Y-27408644D01*
X74502574Y-27408644D01*
X74432430Y-27422596D01*
X74432426Y-27422598D01*
X74352874Y-27475753D01*
X74299719Y-27555305D01*
X74299717Y-27555309D01*
X74285765Y-27625451D01*
X74285765Y-27688000D01*
X74266080Y-27755039D01*
X74213276Y-27800794D01*
X74161765Y-27812000D01*
X70882720Y-27812000D01*
X70815681Y-27792315D01*
X70769926Y-27739511D01*
X70759982Y-27670353D01*
X70789007Y-27606797D01*
X70835267Y-27573439D01*
X70854945Y-27565288D01*
X70903983Y-27544976D01*
X71305241Y-27143718D01*
X71335765Y-27070026D01*
X71335765Y-26990262D01*
X71335765Y-25284555D01*
X71355450Y-25217516D01*
X71372084Y-25196874D01*
X71612995Y-24955963D01*
X71674318Y-24922478D01*
X71700676Y-24919644D01*
X71939955Y-24919644D01*
X71939956Y-24919643D01*
X72010104Y-24905690D01*
X72089656Y-24852535D01*
X72090633Y-24851071D01*
X72093590Y-24848600D01*
X72098292Y-24843899D01*
X72098712Y-24844319D01*
X72103312Y-24840474D01*
X72112197Y-24826541D01*
X72129565Y-24818533D01*
X72144242Y-24806267D01*
X72160639Y-24804206D01*
X72175648Y-24797287D01*
X72194590Y-24799941D01*
G37*
%TD.AperFunction*%
%TA.AperFunction,Conductor*%
G36*
X58986759Y-27589329D02*
G01*
X59007401Y-27605963D01*
X59189446Y-27788008D01*
X59222931Y-27849331D01*
X59225765Y-27875689D01*
X59225765Y-28212836D01*
X59239717Y-28282978D01*
X59244392Y-28294263D01*
X59241266Y-28295557D01*
X59256101Y-28342919D01*
X59237623Y-28410300D01*
X59185649Y-28456996D01*
X59132121Y-28469144D01*
X56746265Y-28469144D01*
X56746265Y-28973960D01*
X56726580Y-29040999D01*
X56673776Y-29086754D01*
X56604618Y-29096698D01*
X56541062Y-29067673D01*
X56514878Y-29035961D01*
X56513091Y-29032866D01*
X56506735Y-29021857D01*
X56140703Y-28655825D01*
X56107218Y-28594502D01*
X56112202Y-28524810D01*
X56140703Y-28480463D01*
X57015203Y-27605963D01*
X57076526Y-27572478D01*
X57102884Y-27569644D01*
X58919720Y-27569644D01*
X58986759Y-27589329D01*
G37*
%TD.AperFunction*%
%TA.AperFunction,Conductor*%
G36*
X39068293Y-27269329D02*
G01*
X39093773Y-27294359D01*
X39094236Y-27293897D01*
X39102874Y-27302535D01*
X39129539Y-27320352D01*
X38733765Y-27319144D01*
X38733765Y-28519144D01*
X38409765Y-28519144D01*
X38432192Y-28516733D01*
X38483703Y-28505527D01*
X38530364Y-28482170D01*
X38583168Y-28436415D01*
X38615306Y-28386407D01*
X38634991Y-28319368D01*
X38639265Y-28289644D01*
X38639265Y-27373644D01*
X38641815Y-27364958D01*
X38640527Y-27355997D01*
X38651505Y-27331956D01*
X38658950Y-27306605D01*
X38665790Y-27300677D01*
X38669552Y-27292441D01*
X38691786Y-27278151D01*
X38711754Y-27260850D01*
X38722268Y-27258562D01*
X38728330Y-27254667D01*
X38763265Y-27249644D01*
X39001254Y-27249644D01*
X39068293Y-27269329D01*
G37*
%TD.AperFunction*%
%TA.AperFunction,Conductor*%
G36*
X70854099Y-25897077D02*
G01*
X70910032Y-25938949D01*
X70934449Y-26004413D01*
X70934765Y-26013259D01*
X70934765Y-26895732D01*
X70915080Y-26962771D01*
X70898446Y-26983413D01*
X70743678Y-27138181D01*
X70682355Y-27171666D01*
X70655997Y-27174500D01*
X70248500Y-27174500D01*
X70181461Y-27154815D01*
X70135706Y-27102011D01*
X70124500Y-27050500D01*
X70124500Y-26972677D01*
X70115768Y-26928782D01*
X70115767Y-26928781D01*
X70115767Y-26928778D01*
X70082504Y-26878996D01*
X70072929Y-26872598D01*
X70032724Y-26845734D01*
X70032717Y-26845731D01*
X69988822Y-26837000D01*
X69988820Y-26837000D01*
X69859180Y-26837000D01*
X69859178Y-26837000D01*
X69815282Y-26845731D01*
X69815275Y-26845734D01*
X69765496Y-26878995D01*
X69765495Y-26878996D01*
X69732234Y-26928775D01*
X69732231Y-26928782D01*
X69723500Y-26972677D01*
X69723500Y-27766063D01*
X69721027Y-27774483D01*
X69722315Y-27783166D01*
X69711333Y-27807496D01*
X69703815Y-27833102D01*
X69697183Y-27838848D01*
X69693572Y-27846850D01*
X69671177Y-27861382D01*
X69651011Y-27878857D01*
X69640784Y-27881105D01*
X69634962Y-27884884D01*
X69600049Y-27890062D01*
X69449049Y-27890731D01*
X69381923Y-27871343D01*
X69335935Y-27818743D01*
X69324500Y-27766732D01*
X69324500Y-26525821D01*
X69344185Y-26458782D01*
X69360819Y-26438140D01*
X69642996Y-26155963D01*
X69704319Y-26122478D01*
X69730677Y-26119644D01*
X70485848Y-26119644D01*
X70485850Y-26119644D01*
X70559542Y-26089120D01*
X70723084Y-25925578D01*
X70784407Y-25892093D01*
X70854099Y-25897077D01*
G37*
%TD.AperFunction*%
%TA.AperFunction,Conductor*%
G36*
X69689888Y-21537829D02*
G01*
X69735643Y-21590633D01*
X69746252Y-21654295D01*
X69745765Y-21659240D01*
X69745765Y-23379038D01*
X69745766Y-23379046D01*
X69751595Y-23408356D01*
X69773807Y-23441601D01*
X69790484Y-23452743D01*
X69807052Y-23463813D01*
X69807055Y-23463813D01*
X69807056Y-23463814D01*
X69814070Y-23465209D01*
X69836366Y-23469644D01*
X70409765Y-23469643D01*
X70476804Y-23489327D01*
X70522559Y-23542131D01*
X70533765Y-23593643D01*
X70533765Y-25496435D01*
X70525120Y-25525875D01*
X70518597Y-25555862D01*
X70514842Y-25560877D01*
X70514080Y-25563474D01*
X70497446Y-25584116D01*
X70399237Y-25682325D01*
X70337914Y-25715810D01*
X70311556Y-25718644D01*
X69636148Y-25718644D01*
X69556383Y-25718644D01*
X69556381Y-25718644D01*
X69556379Y-25718645D01*
X69522515Y-25732672D01*
X69453046Y-25740141D01*
X69390567Y-25708866D01*
X69354915Y-25648777D01*
X69357409Y-25578952D01*
X69371962Y-25549219D01*
X69382811Y-25532983D01*
X69396765Y-25462832D01*
X69396765Y-25075456D01*
X69396765Y-25075453D01*
X69396764Y-25075451D01*
X69382812Y-25005309D01*
X69382811Y-25005308D01*
X69382811Y-25005305D01*
X69329656Y-24925753D01*
X69320513Y-24919644D01*
X69249577Y-24872246D01*
X69204771Y-24818634D01*
X69196064Y-24749309D01*
X69226218Y-24686282D01*
X69249577Y-24666042D01*
X69250104Y-24665690D01*
X69329656Y-24612535D01*
X69382811Y-24532983D01*
X69396765Y-24462832D01*
X69396765Y-24075456D01*
X69396765Y-24075453D01*
X69396764Y-24075451D01*
X69382812Y-24005309D01*
X69382811Y-24005308D01*
X69382811Y-24005305D01*
X69329656Y-23925753D01*
X69250104Y-23872598D01*
X69250102Y-23872597D01*
X69250099Y-23872596D01*
X69246573Y-23871895D01*
X69239594Y-23868244D01*
X69238818Y-23867923D01*
X69238846Y-23867853D01*
X69218442Y-23857180D01*
X69189562Y-23843991D01*
X69187705Y-23841101D01*
X69184662Y-23839510D01*
X69168949Y-23811917D01*
X69151788Y-23785213D01*
X69151127Y-23780619D01*
X69150088Y-23778794D01*
X69146765Y-23750278D01*
X69146765Y-23555960D01*
X69166450Y-23488921D01*
X69201877Y-23452856D01*
X69218722Y-23441601D01*
X69227508Y-23428451D01*
X69240934Y-23408357D01*
X69246765Y-23379043D01*
X69246764Y-21659246D01*
X69246764Y-21659245D01*
X69246277Y-21654304D01*
X69259292Y-21585657D01*
X69307355Y-21534945D01*
X69369679Y-21518144D01*
X69622849Y-21518144D01*
X69689888Y-21537829D01*
G37*
%TD.AperFunction*%
%TA.AperFunction,Conductor*%
G36*
X104388804Y-16939329D02*
G01*
X104434559Y-16992133D01*
X104445765Y-17043644D01*
X104445765Y-46994644D01*
X104426080Y-47061683D01*
X104373276Y-47107438D01*
X104321765Y-47118644D01*
X68695020Y-47118644D01*
X68627981Y-47098959D01*
X68582226Y-47046155D01*
X68572282Y-46976997D01*
X68601307Y-46913441D01*
X68607339Y-46906963D01*
X68626745Y-46887557D01*
X68679472Y-46796231D01*
X68706765Y-46694371D01*
X68706765Y-45938917D01*
X68679472Y-45837057D01*
X68626745Y-45745731D01*
X68552178Y-45671164D01*
X68460852Y-45618437D01*
X68358992Y-45591144D01*
X68038992Y-45591144D01*
X67933538Y-45591144D01*
X67831678Y-45618437D01*
X67831675Y-45618438D01*
X67740350Y-45671165D01*
X67665786Y-45745729D01*
X67613059Y-45837054D01*
X67613058Y-45837057D01*
X67585765Y-45938917D01*
X67585765Y-46041867D01*
X67566080Y-46108906D01*
X67513276Y-46154661D01*
X67444118Y-46164605D01*
X67389695Y-46139751D01*
X67388879Y-46140973D01*
X67381337Y-46135933D01*
X67380562Y-46135580D01*
X67379938Y-46134999D01*
X67349043Y-46114357D01*
X67345478Y-46111975D01*
X67345476Y-46111974D01*
X67345473Y-46111973D01*
X67316166Y-46106144D01*
X67076370Y-46106144D01*
X67076362Y-46106145D01*
X67047054Y-46111974D01*
X67043713Y-46113358D01*
X67035841Y-46114203D01*
X67035072Y-46114357D01*
X67035058Y-46114288D01*
X66974243Y-46120824D01*
X66948808Y-46113355D01*
X66945473Y-46111973D01*
X66916166Y-46106144D01*
X66676370Y-46106144D01*
X66676362Y-46106145D01*
X66647054Y-46111974D01*
X66643713Y-46113358D01*
X66635841Y-46114203D01*
X66635072Y-46114357D01*
X66635058Y-46114288D01*
X66574243Y-46120824D01*
X66548808Y-46113355D01*
X66545473Y-46111973D01*
X66516166Y-46106144D01*
X66276370Y-46106144D01*
X66276362Y-46106145D01*
X66247054Y-46111974D01*
X66243713Y-46113358D01*
X66235841Y-46114203D01*
X66235072Y-46114357D01*
X66235058Y-46114288D01*
X66174243Y-46120824D01*
X66148808Y-46113355D01*
X66145473Y-46111973D01*
X66116166Y-46106144D01*
X65876370Y-46106144D01*
X65876362Y-46106145D01*
X65847054Y-46111974D01*
X65843713Y-46113358D01*
X65835841Y-46114203D01*
X65835072Y-46114357D01*
X65835058Y-46114288D01*
X65774243Y-46120824D01*
X65748808Y-46113355D01*
X65745473Y-46111973D01*
X65716166Y-46106144D01*
X65476370Y-46106144D01*
X65476362Y-46106145D01*
X65447054Y-46111974D01*
X65443713Y-46113358D01*
X65435841Y-46114203D01*
X65435072Y-46114357D01*
X65435058Y-46114288D01*
X65374243Y-46120824D01*
X65348808Y-46113355D01*
X65345473Y-46111973D01*
X65316166Y-46106144D01*
X65076370Y-46106144D01*
X65076362Y-46106145D01*
X65047054Y-46111974D01*
X65043713Y-46113358D01*
X65035841Y-46114203D01*
X65035072Y-46114357D01*
X65035058Y-46114288D01*
X64974243Y-46120824D01*
X64948808Y-46113355D01*
X64945473Y-46111973D01*
X64916166Y-46106144D01*
X64676370Y-46106144D01*
X64676362Y-46106145D01*
X64647052Y-46111974D01*
X64603651Y-46140973D01*
X64602012Y-46138521D01*
X64557123Y-46163033D01*
X64487431Y-46158049D01*
X64431498Y-46116177D01*
X64407081Y-46050713D01*
X64406765Y-46041867D01*
X64406765Y-45938919D01*
X64406765Y-45938917D01*
X64379472Y-45837057D01*
X64326745Y-45745731D01*
X64252178Y-45671164D01*
X64160852Y-45618437D01*
X64058992Y-45591144D01*
X63738992Y-45591144D01*
X63633538Y-45591144D01*
X63531678Y-45618437D01*
X63531675Y-45618438D01*
X63440350Y-45671165D01*
X63365786Y-45745729D01*
X63313059Y-45837054D01*
X63313058Y-45837057D01*
X63285765Y-45938917D01*
X63285765Y-46588917D01*
X63285765Y-46694371D01*
X63309284Y-46782144D01*
X63313058Y-46796230D01*
X63313059Y-46796233D01*
X63365786Y-46887558D01*
X63385191Y-46906963D01*
X63418676Y-46968286D01*
X63413692Y-47037978D01*
X63371820Y-47093911D01*
X63306356Y-47118328D01*
X63297510Y-47118644D01*
X19546765Y-47118644D01*
X19479726Y-47098959D01*
X19433971Y-47046155D01*
X19422765Y-46994644D01*
X19422765Y-43497117D01*
X21095765Y-43497117D01*
X21095765Y-43741170D01*
X21132635Y-43973959D01*
X21133944Y-43982220D01*
X21209361Y-44214329D01*
X21314879Y-44421421D01*
X21320161Y-44431786D01*
X21463604Y-44629220D01*
X21463608Y-44629225D01*
X21636183Y-44801800D01*
X21636188Y-44801804D01*
X21733004Y-44872144D01*
X21833626Y-44945250D01*
X22051080Y-45056048D01*
X22283189Y-45131465D01*
X22524238Y-45169644D01*
X22524239Y-45169644D01*
X22768291Y-45169644D01*
X22768292Y-45169644D01*
X23009341Y-45131465D01*
X23241450Y-45056048D01*
X23458904Y-44945250D01*
X23656348Y-44801799D01*
X23828920Y-44629227D01*
X23972371Y-44431783D01*
X24083169Y-44214329D01*
X24158586Y-43982220D01*
X24192370Y-43768917D01*
X63285765Y-43768917D01*
X63285765Y-44524370D01*
X63313058Y-44626230D01*
X63313059Y-44626233D01*
X63314788Y-44629227D01*
X63365785Y-44717557D01*
X63440352Y-44792124D01*
X63531678Y-44844851D01*
X63633538Y-44872144D01*
X63633540Y-44872144D01*
X64058990Y-44872144D01*
X64058992Y-44872144D01*
X64160852Y-44844851D01*
X64252178Y-44792124D01*
X64326745Y-44717557D01*
X64379472Y-44626231D01*
X64406765Y-44524371D01*
X64406765Y-44421421D01*
X64426450Y-44354382D01*
X64479254Y-44308627D01*
X64548412Y-44298683D01*
X64602834Y-44323536D01*
X64603651Y-44322315D01*
X64611192Y-44327354D01*
X64611968Y-44327708D01*
X64612591Y-44328288D01*
X64613808Y-44329101D01*
X64647052Y-44351313D01*
X64647055Y-44351313D01*
X64647056Y-44351314D01*
X64656912Y-44353274D01*
X64676366Y-44357144D01*
X64916163Y-44357143D01*
X64945478Y-44351313D01*
X64978722Y-44329101D01*
X65000934Y-44295857D01*
X65006765Y-44266543D01*
X65006764Y-43771746D01*
X65000934Y-43742431D01*
X64994527Y-43732842D01*
X64978722Y-43709186D01*
X64945479Y-43686976D01*
X64945480Y-43686976D01*
X64945478Y-43686975D01*
X64945476Y-43686974D01*
X64945473Y-43686973D01*
X64916166Y-43681144D01*
X64676370Y-43681144D01*
X64676362Y-43681145D01*
X64647052Y-43686974D01*
X64613807Y-43709186D01*
X64606649Y-43719901D01*
X64553037Y-43764706D01*
X64483712Y-43773414D01*
X64420684Y-43743260D01*
X64383965Y-43683818D01*
X64383771Y-43683102D01*
X64383247Y-43681145D01*
X64379472Y-43667057D01*
X64326745Y-43575731D01*
X64252178Y-43501164D01*
X64160852Y-43448437D01*
X64058992Y-43421144D01*
X63738992Y-43421144D01*
X63633538Y-43421144D01*
X63531678Y-43448437D01*
X63531675Y-43448438D01*
X63440350Y-43501165D01*
X63365786Y-43575729D01*
X63313059Y-43667054D01*
X63313058Y-43667057D01*
X63285765Y-43768917D01*
X24192370Y-43768917D01*
X24196765Y-43741171D01*
X24196765Y-43497117D01*
X24158586Y-43256068D01*
X24083169Y-43023959D01*
X23972371Y-42806505D01*
X23863390Y-42656505D01*
X23828925Y-42609067D01*
X23828921Y-42609062D01*
X23656346Y-42436487D01*
X23656341Y-42436483D01*
X23458907Y-42293040D01*
X23458906Y-42293039D01*
X23458904Y-42293038D01*
X23241450Y-42182240D01*
X23009341Y-42106823D01*
X23009339Y-42106822D01*
X23009337Y-42106822D01*
X22806862Y-42074753D01*
X22768292Y-42068644D01*
X22524238Y-42068644D01*
X22485668Y-42074753D01*
X22283192Y-42106822D01*
X22051077Y-42182241D01*
X21833622Y-42293040D01*
X21636188Y-42436483D01*
X21636183Y-42436487D01*
X21463608Y-42609062D01*
X21463604Y-42609067D01*
X21320161Y-42806501D01*
X21209362Y-43023956D01*
X21133943Y-43256071D01*
X21095765Y-43497117D01*
X19422765Y-43497117D01*
X19422765Y-36225484D01*
X27145765Y-36225484D01*
X27145765Y-36812796D01*
X27145766Y-36812802D01*
X27151886Y-36859297D01*
X27151887Y-36859299D01*
X27151887Y-36859300D01*
X27181007Y-36921748D01*
X27199466Y-36961333D01*
X27279076Y-37040943D01*
X27360467Y-37078896D01*
X27381110Y-37088522D01*
X27381111Y-37088523D01*
X27387232Y-37089328D01*
X27427606Y-37094644D01*
X27939923Y-37094643D01*
X27986418Y-37088523D01*
X28088454Y-37040943D01*
X28168064Y-36961333D01*
X28177434Y-36941237D01*
X28223607Y-36888800D01*
X28289816Y-36869644D01*
X29287450Y-36869644D01*
X29354489Y-36889329D01*
X29356316Y-36890525D01*
X29409377Y-36925980D01*
X29409379Y-36925980D01*
X29409380Y-36925981D01*
X29478066Y-36939644D01*
X29478069Y-36939644D01*
X29794463Y-36939644D01*
X29863149Y-36925981D01*
X29863149Y-36925980D01*
X29863153Y-36925980D01*
X29941051Y-36873930D01*
X29993101Y-36796032D01*
X29995524Y-36783850D01*
X30006765Y-36727342D01*
X30006765Y-36310945D01*
X29993102Y-36242259D01*
X29993101Y-36242258D01*
X29993101Y-36242256D01*
X29941051Y-36164358D01*
X29863153Y-36112308D01*
X29863151Y-36112307D01*
X29863149Y-36112306D01*
X29794463Y-36098644D01*
X29794461Y-36098644D01*
X29478069Y-36098644D01*
X29478067Y-36098644D01*
X29409380Y-36112306D01*
X29409378Y-36112307D01*
X29356339Y-36147747D01*
X29289662Y-36168624D01*
X29287449Y-36168644D01*
X28289816Y-36168644D01*
X28222777Y-36148959D01*
X28177434Y-36097050D01*
X28168064Y-36076955D01*
X28088454Y-35997345D01*
X28060584Y-35984349D01*
X27986419Y-35949765D01*
X27986418Y-35949764D01*
X27939924Y-35943644D01*
X27427612Y-35943644D01*
X27412873Y-35945584D01*
X27381112Y-35949765D01*
X27381110Y-35949766D01*
X27381108Y-35949766D01*
X27279075Y-35997345D01*
X27199466Y-36076954D01*
X27151886Y-36178989D01*
X27151885Y-36178990D01*
X27145765Y-36225484D01*
X19422765Y-36225484D01*
X19422765Y-33225484D01*
X27145765Y-33225484D01*
X27145765Y-33812796D01*
X27146633Y-33819392D01*
X27151886Y-33859297D01*
X27151887Y-33859299D01*
X27151887Y-33859300D01*
X27188119Y-33937000D01*
X27199466Y-33961333D01*
X27279076Y-34040943D01*
X27381108Y-34088521D01*
X27381110Y-34088522D01*
X27381111Y-34088523D01*
X27387232Y-34089328D01*
X27427606Y-34094644D01*
X27939923Y-34094643D01*
X27986418Y-34088523D01*
X28088454Y-34040943D01*
X28168064Y-33961333D01*
X28177434Y-33941237D01*
X28223607Y-33888800D01*
X28289816Y-33869644D01*
X29287450Y-33869644D01*
X29354489Y-33889329D01*
X29356316Y-33890525D01*
X29409377Y-33925980D01*
X29409379Y-33925980D01*
X29409380Y-33925981D01*
X29478066Y-33939644D01*
X29478069Y-33939644D01*
X29794463Y-33939644D01*
X29863149Y-33925981D01*
X29863149Y-33925980D01*
X29863153Y-33925980D01*
X29941051Y-33873930D01*
X29993101Y-33796032D01*
X29994699Y-33788000D01*
X30006765Y-33727342D01*
X30006765Y-33310945D01*
X29993102Y-33242259D01*
X29993101Y-33242258D01*
X29993101Y-33242256D01*
X29941051Y-33164358D01*
X29863153Y-33112308D01*
X29863151Y-33112307D01*
X29863149Y-33112306D01*
X29794463Y-33098644D01*
X29794461Y-33098644D01*
X29478069Y-33098644D01*
X29478067Y-33098644D01*
X29409380Y-33112306D01*
X29409378Y-33112307D01*
X29356339Y-33147747D01*
X29289662Y-33168624D01*
X29287449Y-33168644D01*
X28289816Y-33168644D01*
X28222777Y-33148959D01*
X28177434Y-33097050D01*
X28177169Y-33096481D01*
X28168064Y-33076955D01*
X28088454Y-32997345D01*
X28068414Y-32988000D01*
X27986419Y-32949765D01*
X27986418Y-32949764D01*
X27939924Y-32943644D01*
X27427612Y-32943644D01*
X27412873Y-32945584D01*
X27381112Y-32949765D01*
X27381110Y-32949766D01*
X27381108Y-32949766D01*
X27279075Y-32997345D01*
X27199466Y-33076954D01*
X27151886Y-33178989D01*
X27151885Y-33178990D01*
X27145765Y-33225484D01*
X19422765Y-33225484D01*
X19422765Y-30225484D01*
X27108265Y-30225484D01*
X27108265Y-30812796D01*
X27108266Y-30812802D01*
X27114386Y-30859297D01*
X27114387Y-30859299D01*
X27114387Y-30859300D01*
X27140494Y-30915286D01*
X27161966Y-30961333D01*
X27241576Y-31040943D01*
X27343608Y-31088521D01*
X27343610Y-31088522D01*
X27343611Y-31088523D01*
X27349732Y-31089328D01*
X27390106Y-31094644D01*
X27902423Y-31094643D01*
X27948918Y-31088523D01*
X28050954Y-31040943D01*
X28130564Y-30961333D01*
X28139934Y-30941237D01*
X28186107Y-30888800D01*
X28252316Y-30869644D01*
X29249950Y-30869644D01*
X29316989Y-30889329D01*
X29318816Y-30890525D01*
X29371877Y-30925980D01*
X29371879Y-30925980D01*
X29371880Y-30925981D01*
X29440566Y-30939644D01*
X29440569Y-30939644D01*
X29756963Y-30939644D01*
X29825649Y-30925981D01*
X29825649Y-30925980D01*
X29825653Y-30925980D01*
X29903551Y-30873930D01*
X29955601Y-30796032D01*
X29956976Y-30789119D01*
X29969265Y-30727342D01*
X30248264Y-30727342D01*
X30261927Y-30796028D01*
X30261928Y-30796030D01*
X30261929Y-30796032D01*
X30313979Y-30873930D01*
X30391877Y-30925980D01*
X30391879Y-30925980D01*
X30391880Y-30925981D01*
X30460566Y-30939644D01*
X30460569Y-30939644D01*
X30776963Y-30939644D01*
X30845649Y-30925981D01*
X30845649Y-30925980D01*
X30845653Y-30925980D01*
X30898689Y-30890541D01*
X30965367Y-30869664D01*
X30967580Y-30869644D01*
X31392407Y-30869644D01*
X31392409Y-30869644D01*
X31481553Y-30845758D01*
X31492143Y-30839644D01*
X31561477Y-30799614D01*
X31976735Y-30384356D01*
X32476735Y-29884356D01*
X32476736Y-29884353D01*
X32480820Y-29880270D01*
X32542143Y-29846785D01*
X32611834Y-29851769D01*
X32667768Y-29893640D01*
X32691790Y-29954690D01*
X32693175Y-29967566D01*
X32704382Y-30019082D01*
X32727739Y-30065744D01*
X32756248Y-30098644D01*
X32773494Y-30118547D01*
X32823502Y-30150685D01*
X32890541Y-30170370D01*
X32920265Y-30174644D01*
X33874145Y-30174644D01*
X33941184Y-30194329D01*
X33986939Y-30247133D01*
X33996883Y-30316291D01*
X33967858Y-30379847D01*
X33955349Y-30392356D01*
X33921861Y-30421373D01*
X33889725Y-30471379D01*
X33889724Y-30471380D01*
X33870039Y-30538419D01*
X33868403Y-30549796D01*
X33839376Y-30613350D01*
X33780596Y-30651122D01*
X33745666Y-30656144D01*
X33525119Y-30656144D01*
X33471792Y-30670433D01*
X33471791Y-30670432D01*
X33435981Y-30680028D01*
X33435974Y-30680031D01*
X33356056Y-30726171D01*
X33356051Y-30726175D01*
X31002389Y-33079836D01*
X30941066Y-33113321D01*
X30890516Y-33113772D01*
X30814463Y-33098644D01*
X30814461Y-33098644D01*
X30498069Y-33098644D01*
X30498067Y-33098644D01*
X30429380Y-33112306D01*
X30429377Y-33112308D01*
X30351479Y-33164358D01*
X30299429Y-33242256D01*
X30299427Y-33242259D01*
X30285765Y-33310945D01*
X30285765Y-33310948D01*
X30285765Y-33727340D01*
X30285765Y-33727342D01*
X30285764Y-33727342D01*
X30299427Y-33796028D01*
X30299428Y-33796030D01*
X30299429Y-33796032D01*
X30351479Y-33873930D01*
X30429377Y-33925980D01*
X30429379Y-33925980D01*
X30429380Y-33925981D01*
X30498066Y-33939644D01*
X30498069Y-33939644D01*
X30814463Y-33939644D01*
X30883149Y-33925981D01*
X30883149Y-33925980D01*
X30883153Y-33925980D01*
X30923069Y-33899309D01*
X30936192Y-33890541D01*
X31002869Y-33869663D01*
X31005082Y-33869643D01*
X31104909Y-33869643D01*
X31104914Y-33869642D01*
X31194050Y-33845759D01*
X31194050Y-33845758D01*
X31194053Y-33845758D01*
X31273977Y-33799614D01*
X33434736Y-31638854D01*
X33496057Y-31605371D01*
X33565749Y-31610355D01*
X33621682Y-31652227D01*
X33646099Y-31717691D01*
X33631247Y-31785964D01*
X33629803Y-31788535D01*
X33612421Y-31818641D01*
X33612422Y-31818642D01*
X33608652Y-31825171D01*
X33608651Y-31825174D01*
X33584765Y-31914318D01*
X33584765Y-33204289D01*
X33606084Y-33283854D01*
X33608650Y-33293429D01*
X33608652Y-33293435D01*
X33654792Y-33373352D01*
X33654794Y-33373355D01*
X33654795Y-33373356D01*
X34581053Y-34299614D01*
X34597061Y-34308856D01*
X34659193Y-34344729D01*
X34659194Y-34344729D01*
X34659421Y-34344860D01*
X34660977Y-34345758D01*
X34750121Y-34369644D01*
X34750123Y-34369644D01*
X34842407Y-34369644D01*
X34842409Y-34369644D01*
X34931553Y-34345758D01*
X34933109Y-34344860D01*
X34933336Y-34344729D01*
X34951800Y-34334068D01*
X35011477Y-34299614D01*
X35076735Y-34234356D01*
X35122879Y-34154432D01*
X35125465Y-34144782D01*
X35146765Y-34065288D01*
X35146765Y-33973000D01*
X35122879Y-33883856D01*
X35102852Y-33849168D01*
X35076735Y-33803932D01*
X34791947Y-33519144D01*
X39933765Y-33519144D01*
X39950227Y-32186606D01*
X40209446Y-32445825D01*
X40242931Y-32507148D01*
X40245765Y-32533506D01*
X40245765Y-35322600D01*
X40237120Y-35352040D01*
X40230597Y-35382027D01*
X40226842Y-35387042D01*
X40226080Y-35389639D01*
X40209446Y-35410281D01*
X40150946Y-35468781D01*
X40089623Y-35502266D01*
X40019931Y-35497282D01*
X39963998Y-35455410D01*
X39939581Y-35389946D01*
X39939265Y-35381100D01*
X39939265Y-35018144D01*
X39936854Y-34995717D01*
X39925648Y-34944206D01*
X39902291Y-34897545D01*
X39902290Y-34897543D01*
X39856535Y-34844740D01*
X39811879Y-34816042D01*
X39806528Y-34812603D01*
X39806065Y-34812467D01*
X39739494Y-34792919D01*
X39739490Y-34792918D01*
X39739489Y-34792918D01*
X39709765Y-34788644D01*
X37657765Y-34788644D01*
X37657762Y-34788644D01*
X37635338Y-34791054D01*
X37583826Y-34802261D01*
X37537164Y-34825618D01*
X37484361Y-34871373D01*
X37452225Y-34921379D01*
X37452224Y-34921380D01*
X37432540Y-34988414D01*
X37432539Y-34988419D01*
X37432539Y-34988420D01*
X37428266Y-35018141D01*
X37428265Y-35018147D01*
X37428265Y-35894646D01*
X37430675Y-35917070D01*
X37441882Y-35968582D01*
X37464332Y-36013431D01*
X37476738Y-36082190D01*
X37461012Y-36125531D01*
X37461708Y-36125820D01*
X37457033Y-36137103D01*
X37445765Y-36193755D01*
X37445765Y-36444532D01*
X37457033Y-36501184D01*
X37457034Y-36501186D01*
X37457035Y-36501187D01*
X37457164Y-36501381D01*
X37457317Y-36501867D01*
X37461708Y-36512468D01*
X37460758Y-36512861D01*
X37478040Y-36568057D01*
X37459554Y-36635437D01*
X37458378Y-36637303D01*
X37452227Y-36646873D01*
X37452224Y-36646880D01*
X37432540Y-36713914D01*
X37432539Y-36713919D01*
X37432539Y-36713920D01*
X37428533Y-36741786D01*
X37428265Y-36743647D01*
X37428265Y-37114646D01*
X37430675Y-37137070D01*
X37441882Y-37188582D01*
X37465239Y-37235244D01*
X37505879Y-37282144D01*
X37510994Y-37288047D01*
X37561002Y-37320185D01*
X37628041Y-37339870D01*
X37657765Y-37344144D01*
X35508765Y-37344144D01*
X35508765Y-36619144D01*
X34259765Y-36619144D01*
X34472946Y-36405963D01*
X34534269Y-36372478D01*
X34560627Y-36369644D01*
X34777455Y-36369644D01*
X34777456Y-36369643D01*
X34847604Y-36355690D01*
X34927156Y-36302535D01*
X34980311Y-36222983D01*
X34982502Y-36211970D01*
X34989965Y-36174453D01*
X35022350Y-36112542D01*
X35083065Y-36077968D01*
X35111582Y-36074644D01*
X35546765Y-36074644D01*
X35613804Y-36094329D01*
X35659559Y-36147133D01*
X35670765Y-36198644D01*
X35670765Y-36444532D01*
X35682033Y-36501184D01*
X35682034Y-36501185D01*
X35682034Y-36501186D01*
X35682035Y-36501187D01*
X35724968Y-36565441D01*
X35789222Y-36608374D01*
X35789223Y-36608374D01*
X35789224Y-36608375D01*
X35845876Y-36619643D01*
X35845880Y-36619644D01*
X35845881Y-36619644D01*
X36071650Y-36619644D01*
X36071651Y-36619643D01*
X36090706Y-36615853D01*
X36128305Y-36608375D01*
X36128305Y-36608374D01*
X36128308Y-36608374D01*
X36192562Y-36565441D01*
X36235495Y-36501187D01*
X36246765Y-36444528D01*
X36246765Y-36193760D01*
X36242871Y-36174184D01*
X36235496Y-36137103D01*
X36235495Y-36137102D01*
X36235495Y-36137101D01*
X36212779Y-36103105D01*
X36191902Y-36036428D01*
X36210387Y-35969048D01*
X36211567Y-35967175D01*
X36212488Y-35965743D01*
X36227806Y-35941907D01*
X36247491Y-35874868D01*
X36251765Y-35845144D01*
X36251765Y-35018144D01*
X36249354Y-34995717D01*
X36238148Y-34944206D01*
X36214791Y-34897545D01*
X36214790Y-34897543D01*
X36169035Y-34844740D01*
X36124379Y-34816042D01*
X36119028Y-34812603D01*
X36118565Y-34812467D01*
X36051994Y-34792919D01*
X36051990Y-34792918D01*
X36051989Y-34792918D01*
X36022265Y-34788644D01*
X33995265Y-34788644D01*
X33995262Y-34788644D01*
X33972838Y-34791054D01*
X33921326Y-34802261D01*
X33874664Y-34825618D01*
X33821861Y-34871373D01*
X33789725Y-34921379D01*
X33789724Y-34921380D01*
X33770040Y-34988414D01*
X33770039Y-34988419D01*
X33770039Y-34988420D01*
X33765766Y-35018141D01*
X33765765Y-35018147D01*
X33765765Y-35132144D01*
X33746080Y-35199183D01*
X33693276Y-35244938D01*
X33641765Y-35256144D01*
X31925121Y-35256144D01*
X31837447Y-35279635D01*
X31837440Y-35279638D01*
X31835977Y-35280030D01*
X31835974Y-35280031D01*
X31756056Y-35326171D01*
X31756051Y-35326175D01*
X31002389Y-36079836D01*
X30941066Y-36113321D01*
X30890516Y-36113772D01*
X30814463Y-36098644D01*
X30814461Y-36098644D01*
X30498069Y-36098644D01*
X30498067Y-36098644D01*
X30429380Y-36112306D01*
X30429377Y-36112308D01*
X30351479Y-36164358D01*
X30299429Y-36242256D01*
X30299427Y-36242259D01*
X30285765Y-36310945D01*
X30285765Y-36310948D01*
X30285765Y-36727340D01*
X30285765Y-36727342D01*
X30285764Y-36727342D01*
X30299427Y-36796028D01*
X30299428Y-36796030D01*
X30299429Y-36796032D01*
X30351479Y-36873930D01*
X30429377Y-36925980D01*
X30429379Y-36925980D01*
X30429380Y-36925981D01*
X30498066Y-36939644D01*
X30498069Y-36939644D01*
X30814463Y-36939644D01*
X30883149Y-36925981D01*
X30883149Y-36925980D01*
X30883153Y-36925980D01*
X30916150Y-36903932D01*
X30936192Y-36890541D01*
X31002869Y-36869663D01*
X31005082Y-36869643D01*
X31104909Y-36869643D01*
X31104914Y-36869642D01*
X31194050Y-36845759D01*
X31194050Y-36845758D01*
X31194053Y-36845758D01*
X31273977Y-36799614D01*
X32080128Y-35993463D01*
X32141451Y-35959978D01*
X32167809Y-35957144D01*
X33631038Y-35957144D01*
X33698077Y-35976829D01*
X33743832Y-36029633D01*
X33753776Y-36098791D01*
X33724751Y-36162347D01*
X33718719Y-36168825D01*
X32965796Y-36921748D01*
X32965790Y-36921756D01*
X32924368Y-36993503D01*
X32924367Y-36993505D01*
X32919651Y-37001671D01*
X32919651Y-37001672D01*
X32902698Y-37064944D01*
X32895765Y-37090818D01*
X32895765Y-39023000D01*
X32895765Y-39115288D01*
X32916037Y-39190945D01*
X32919652Y-39204434D01*
X32919653Y-39204437D01*
X32965791Y-39284349D01*
X32965794Y-39284353D01*
X32965796Y-39284356D01*
X33031053Y-39349613D01*
X33031056Y-39349614D01*
X33031059Y-39349617D01*
X33110971Y-39395755D01*
X33110972Y-39395755D01*
X33110977Y-39395758D01*
X33200121Y-39419644D01*
X33200123Y-39419644D01*
X33292407Y-39419644D01*
X33292409Y-39419644D01*
X33381553Y-39395758D01*
X33461477Y-39349613D01*
X33526734Y-39284356D01*
X33572879Y-39204432D01*
X33596765Y-39115288D01*
X33596765Y-39023000D01*
X33596765Y-37333506D01*
X33616450Y-37266467D01*
X33633084Y-37245825D01*
X33858765Y-37020144D01*
X33858765Y-37969144D01*
X39833765Y-37969144D01*
X39853896Y-36339644D01*
X40172407Y-36339644D01*
X40172409Y-36339644D01*
X40261553Y-36315758D01*
X40282036Y-36303932D01*
X40341477Y-36269614D01*
X40876734Y-35734356D01*
X40922879Y-35654432D01*
X40946765Y-35565288D01*
X40946765Y-32290818D01*
X40922879Y-32201674D01*
X40905983Y-32172409D01*
X40876735Y-32121750D01*
X40120719Y-31365734D01*
X40087234Y-31304411D01*
X40092218Y-31234719D01*
X40120719Y-31190372D01*
X42356128Y-28954963D01*
X42417451Y-28921478D01*
X42443809Y-28918644D01*
X53885687Y-28918644D01*
X53952726Y-28938329D01*
X53998481Y-28991133D01*
X54008425Y-29060291D01*
X54005464Y-29074726D01*
X53995765Y-29110925D01*
X53995765Y-32823000D01*
X53995765Y-35265288D01*
X54000739Y-35283851D01*
X54012070Y-35326141D01*
X54012077Y-35326164D01*
X54012080Y-35326175D01*
X54012897Y-35329224D01*
X54019651Y-35354433D01*
X54065792Y-35434352D01*
X54065794Y-35434355D01*
X54065795Y-35434356D01*
X54981053Y-36349614D01*
X55060809Y-36395661D01*
X55060977Y-36395758D01*
X55150121Y-36419644D01*
X55150122Y-36419644D01*
X55150123Y-36419644D01*
X60419762Y-36419644D01*
X60419764Y-36419644D01*
X60508908Y-36395758D01*
X60509076Y-36395661D01*
X60588832Y-36349614D01*
X60938523Y-35999922D01*
X60999845Y-35966438D01*
X61069536Y-35971422D01*
X61125470Y-36013293D01*
X61145976Y-36055508D01*
X61167840Y-36137102D01*
X61169652Y-36143864D01*
X61169653Y-36143867D01*
X61215791Y-36223779D01*
X61215794Y-36223783D01*
X61215796Y-36223786D01*
X61281053Y-36289043D01*
X61281056Y-36289044D01*
X61281059Y-36289047D01*
X61360971Y-36335185D01*
X61360972Y-36335185D01*
X61360977Y-36335188D01*
X61450121Y-36359074D01*
X61450123Y-36359074D01*
X61542407Y-36359074D01*
X61542409Y-36359074D01*
X61555064Y-36355683D01*
X61624911Y-36357342D01*
X61682776Y-36396503D01*
X61710282Y-36460730D01*
X61706935Y-36507548D01*
X61697836Y-36541505D01*
X61697836Y-36541507D01*
X61697836Y-36633795D01*
X61720860Y-36719723D01*
X61721723Y-36722941D01*
X61721724Y-36722944D01*
X61767862Y-36802856D01*
X61767865Y-36802860D01*
X61767867Y-36802863D01*
X61833124Y-36868120D01*
X61833127Y-36868121D01*
X61833130Y-36868124D01*
X61913042Y-36914262D01*
X61913043Y-36914262D01*
X61913048Y-36914265D01*
X62002192Y-36938151D01*
X62002194Y-36938151D01*
X62094478Y-36938151D01*
X62094480Y-36938151D01*
X62142806Y-36925202D01*
X62212654Y-36926864D01*
X62270517Y-36966025D01*
X62298022Y-37030253D01*
X62295557Y-37064777D01*
X62296826Y-37064944D01*
X62295765Y-37072998D01*
X62295765Y-37073000D01*
X62295765Y-37165288D01*
X62319181Y-37252679D01*
X62319652Y-37254434D01*
X62319653Y-37254437D01*
X62365791Y-37334349D01*
X62365794Y-37334353D01*
X62365796Y-37334356D01*
X62431053Y-37399613D01*
X62431056Y-37399614D01*
X62431059Y-37399617D01*
X62510971Y-37445755D01*
X62510972Y-37445755D01*
X62510977Y-37445758D01*
X62600121Y-37469644D01*
X62600123Y-37469644D01*
X62692407Y-37469644D01*
X62692409Y-37469644D01*
X62781553Y-37445758D01*
X62861477Y-37399613D01*
X62926734Y-37334356D01*
X62972879Y-37254432D01*
X62996765Y-37165288D01*
X62996765Y-37073000D01*
X62996765Y-37068201D01*
X63002262Y-37049479D01*
X63002804Y-37029976D01*
X63012767Y-37013702D01*
X63016450Y-37001162D01*
X63024961Y-36993787D01*
X63033084Y-36980520D01*
X63047678Y-36965926D01*
X63097047Y-36916557D01*
X63117126Y-36868081D01*
X63119658Y-36861970D01*
X63123764Y-36852056D01*
X63123765Y-36852054D01*
X63123765Y-36782235D01*
X63123765Y-33932186D01*
X63143450Y-33865147D01*
X63196254Y-33819392D01*
X63265412Y-33809448D01*
X63271957Y-33810569D01*
X63284178Y-33813000D01*
X63284180Y-33813000D01*
X63587442Y-33813000D01*
X63616878Y-33821643D01*
X63646868Y-33828167D01*
X63651885Y-33831922D01*
X63654481Y-33832685D01*
X63675123Y-33849318D01*
X63734446Y-33908640D01*
X63767931Y-33969963D01*
X63770765Y-33996322D01*
X63770765Y-36659531D01*
X63751080Y-36726570D01*
X63734446Y-36747212D01*
X63293483Y-37188174D01*
X63286122Y-37205945D01*
X63278762Y-37223715D01*
X63269632Y-37245758D01*
X63266765Y-37252679D01*
X63266765Y-41430235D01*
X63266765Y-41500053D01*
X63291987Y-41560945D01*
X63293483Y-41564557D01*
X65357962Y-43629036D01*
X65391447Y-43690359D01*
X65391898Y-43740908D01*
X65385765Y-43771740D01*
X65385765Y-44266538D01*
X65385766Y-44266546D01*
X65391595Y-44295856D01*
X65413807Y-44329101D01*
X65430484Y-44340243D01*
X65447052Y-44351313D01*
X65447055Y-44351313D01*
X65447056Y-44351314D01*
X65456912Y-44353274D01*
X65476366Y-44357144D01*
X65716163Y-44357143D01*
X65745478Y-44351313D01*
X65745485Y-44351308D01*
X65748807Y-44349933D01*
X65756674Y-44349086D01*
X65757458Y-44348931D01*
X65757471Y-44349001D01*
X65818276Y-44342461D01*
X65843725Y-44349934D01*
X65847047Y-44351310D01*
X65847052Y-44351313D01*
X65876366Y-44357144D01*
X66116163Y-44357143D01*
X66145478Y-44351313D01*
X66145485Y-44351308D01*
X66148807Y-44349933D01*
X66156674Y-44349086D01*
X66157458Y-44348931D01*
X66157471Y-44349001D01*
X66218276Y-44342461D01*
X66243725Y-44349934D01*
X66247047Y-44351310D01*
X66247052Y-44351313D01*
X66276366Y-44357144D01*
X66516163Y-44357143D01*
X66545478Y-44351313D01*
X66545485Y-44351308D01*
X66548807Y-44349933D01*
X66556674Y-44349086D01*
X66557458Y-44348931D01*
X66557471Y-44349001D01*
X66618276Y-44342461D01*
X66643725Y-44349934D01*
X66647047Y-44351310D01*
X66647052Y-44351313D01*
X66676366Y-44357144D01*
X66916163Y-44357143D01*
X66945478Y-44351313D01*
X66945485Y-44351308D01*
X66948807Y-44349933D01*
X66956674Y-44349086D01*
X66957458Y-44348931D01*
X66957471Y-44349001D01*
X67018276Y-44342461D01*
X67043725Y-44349934D01*
X67047047Y-44351310D01*
X67047052Y-44351313D01*
X67076366Y-44357144D01*
X67316163Y-44357143D01*
X67345478Y-44351313D01*
X67378722Y-44329101D01*
X67378721Y-44329101D01*
X67388879Y-44322315D01*
X67390517Y-44324766D01*
X67435407Y-44300255D01*
X67505099Y-44305239D01*
X67561032Y-44347111D01*
X67585449Y-44412575D01*
X67585765Y-44421421D01*
X67585765Y-44524370D01*
X67613058Y-44626230D01*
X67613059Y-44626233D01*
X67614788Y-44629227D01*
X67665785Y-44717557D01*
X67740352Y-44792124D01*
X67831678Y-44844851D01*
X67933538Y-44872144D01*
X67933540Y-44872144D01*
X68358990Y-44872144D01*
X68358992Y-44872144D01*
X68460852Y-44844851D01*
X68552178Y-44792124D01*
X68626745Y-44717557D01*
X68679472Y-44626231D01*
X68706765Y-44524371D01*
X68706765Y-43768917D01*
X68679472Y-43667057D01*
X68626745Y-43575731D01*
X68552178Y-43501164D01*
X68460852Y-43448437D01*
X68358992Y-43421144D01*
X68038992Y-43421144D01*
X67933538Y-43421144D01*
X67831678Y-43448437D01*
X67831675Y-43448438D01*
X67740350Y-43501165D01*
X67665786Y-43575729D01*
X67613056Y-43667058D01*
X67610326Y-43673652D01*
X67566485Y-43728056D01*
X67500191Y-43750121D01*
X67432492Y-43732842D01*
X67384881Y-43681705D01*
X67371765Y-43626200D01*
X67371765Y-42284236D01*
X67371765Y-42284235D01*
X67345047Y-42219731D01*
X67295678Y-42170362D01*
X66470464Y-41345148D01*
X66463399Y-41338083D01*
X66463392Y-41338077D01*
X66331174Y-41205859D01*
X66197751Y-41072435D01*
X65072084Y-39946768D01*
X65038599Y-39885445D01*
X65035765Y-39859087D01*
X65035765Y-39507342D01*
X66025764Y-39507342D01*
X66039427Y-39576028D01*
X66039428Y-39576030D01*
X66039429Y-39576032D01*
X66091479Y-39653930D01*
X66169377Y-39705980D01*
X66179532Y-39712765D01*
X66178897Y-39713714D01*
X66223623Y-39749757D01*
X66245686Y-39816052D01*
X66245765Y-39820475D01*
X66245765Y-39959027D01*
X66276289Y-40032718D01*
X66766531Y-40522960D01*
X66798624Y-40578545D01*
X66814005Y-40635950D01*
X66816554Y-40645461D01*
X66816555Y-40645462D01*
X66862693Y-40725374D01*
X66862696Y-40725378D01*
X66862698Y-40725381D01*
X66927955Y-40790638D01*
X66927958Y-40790639D01*
X66927961Y-40790642D01*
X67007873Y-40836780D01*
X67007874Y-40836780D01*
X67007879Y-40836783D01*
X67097023Y-40860669D01*
X67097025Y-40860669D01*
X67189309Y-40860669D01*
X67189311Y-40860669D01*
X67278455Y-40836783D01*
X67358379Y-40790638D01*
X67423636Y-40725381D01*
X67469781Y-40645457D01*
X67493667Y-40556313D01*
X67493667Y-40464025D01*
X67469781Y-40374881D01*
X67446385Y-40334358D01*
X67423640Y-40294963D01*
X67423637Y-40294960D01*
X67423636Y-40294957D01*
X67358379Y-40229700D01*
X67358376Y-40229698D01*
X67358372Y-40229695D01*
X67278460Y-40183557D01*
X67278457Y-40183556D01*
X67278456Y-40183555D01*
X67278455Y-40183555D01*
X67189311Y-40159669D01*
X67097023Y-40159669D01*
X67097018Y-40159669D01*
X67066260Y-40167911D01*
X66996410Y-40166247D01*
X66946488Y-40135817D01*
X66706203Y-39895532D01*
X66672718Y-39834209D01*
X66677702Y-39764517D01*
X66719574Y-39708584D01*
X66724946Y-39704781D01*
X66801051Y-39653930D01*
X66853101Y-39576032D01*
X66866765Y-39507340D01*
X66866765Y-39190948D01*
X66866765Y-39190945D01*
X66853102Y-39122259D01*
X66853101Y-39122258D01*
X66853101Y-39122256D01*
X66801051Y-39044358D01*
X66723153Y-38992308D01*
X66723151Y-38992307D01*
X66723149Y-38992306D01*
X66654463Y-38978644D01*
X66654461Y-38978644D01*
X66238069Y-38978644D01*
X66238067Y-38978644D01*
X66169380Y-38992306D01*
X66169377Y-38992308D01*
X66091479Y-39044358D01*
X66039429Y-39122256D01*
X66039427Y-39122259D01*
X66025765Y-39190945D01*
X66025765Y-39190948D01*
X66025765Y-39507340D01*
X66025765Y-39507342D01*
X66025764Y-39507342D01*
X65035765Y-39507342D01*
X65035765Y-38867612D01*
X65055450Y-38800573D01*
X65108254Y-38754818D01*
X65177412Y-38744874D01*
X65183956Y-38745995D01*
X65252572Y-38759643D01*
X65252575Y-38759644D01*
X65252577Y-38759644D01*
X65639955Y-38759644D01*
X65639956Y-38759643D01*
X65710104Y-38745690D01*
X65789656Y-38692535D01*
X65842811Y-38612983D01*
X65842812Y-38612975D01*
X65843837Y-38610504D01*
X65847525Y-38605927D01*
X65849596Y-38602828D01*
X65849873Y-38603013D01*
X65887678Y-38556100D01*
X65953971Y-38534034D01*
X66021671Y-38551312D01*
X66061501Y-38589065D01*
X66088404Y-38629329D01*
X66091479Y-38633930D01*
X66169377Y-38685980D01*
X66169379Y-38685980D01*
X66169380Y-38685981D01*
X66238066Y-38699644D01*
X66238069Y-38699644D01*
X66654463Y-38699644D01*
X66723149Y-38685981D01*
X66723149Y-38685980D01*
X66723153Y-38685980D01*
X66801051Y-38633930D01*
X66836144Y-38581409D01*
X66889752Y-38536606D01*
X66959077Y-38527897D01*
X67022105Y-38558051D01*
X67040701Y-38584319D01*
X67042934Y-38582828D01*
X67049718Y-38592982D01*
X67049719Y-38592983D01*
X67102874Y-38672535D01*
X67182426Y-38725690D01*
X67182429Y-38725690D01*
X67182430Y-38725691D01*
X67252572Y-38739643D01*
X67252575Y-38739644D01*
X67252577Y-38739644D01*
X67639955Y-38739644D01*
X67639956Y-38739643D01*
X67710104Y-38725690D01*
X67776875Y-38681074D01*
X67843551Y-38660197D01*
X67910932Y-38678681D01*
X67957622Y-38730660D01*
X67969765Y-38784177D01*
X67969765Y-42329624D01*
X67969765Y-42399442D01*
X67996483Y-42463946D01*
X70152095Y-44619557D01*
X70201464Y-44668926D01*
X70265968Y-44695644D01*
X70265970Y-44695644D01*
X84630172Y-44695644D01*
X84630174Y-44695644D01*
X84694678Y-44668926D01*
X86016487Y-43347117D01*
X99695765Y-43347117D01*
X99695765Y-43591170D01*
X99724365Y-43771746D01*
X99733944Y-43832220D01*
X99809361Y-44064329D01*
X99912395Y-44266546D01*
X99920161Y-44281786D01*
X100063604Y-44479220D01*
X100063608Y-44479225D01*
X100236183Y-44651800D01*
X100236188Y-44651804D01*
X100408401Y-44776923D01*
X100433626Y-44795250D01*
X100651080Y-44906048D01*
X100883189Y-44981465D01*
X101124238Y-45019644D01*
X101124239Y-45019644D01*
X101368291Y-45019644D01*
X101368292Y-45019644D01*
X101609341Y-44981465D01*
X101841450Y-44906048D01*
X102058904Y-44795250D01*
X102256348Y-44651799D01*
X102428920Y-44479227D01*
X102572371Y-44281783D01*
X102683169Y-44064329D01*
X102758586Y-43832220D01*
X102796765Y-43591171D01*
X102796765Y-43347117D01*
X102758586Y-43106068D01*
X102683169Y-42873959D01*
X102572371Y-42656505D01*
X102526700Y-42593644D01*
X102428925Y-42459067D01*
X102428921Y-42459062D01*
X102256346Y-42286487D01*
X102256341Y-42286483D01*
X102058907Y-42143040D01*
X102058906Y-42143039D01*
X102058904Y-42143038D01*
X101841450Y-42032240D01*
X101609341Y-41956823D01*
X101609339Y-41956822D01*
X101609337Y-41956822D01*
X101425336Y-41927679D01*
X101368292Y-41918644D01*
X101124238Y-41918644D01*
X101068358Y-41927494D01*
X100883192Y-41956822D01*
X100651077Y-42032241D01*
X100433622Y-42143040D01*
X100236188Y-42286483D01*
X100236183Y-42286487D01*
X100063608Y-42459062D01*
X100063604Y-42459067D01*
X99920161Y-42656501D01*
X99809362Y-42873956D01*
X99733943Y-43106071D01*
X99695765Y-43347117D01*
X86016487Y-43347117D01*
X86345047Y-43018557D01*
X86371765Y-42954053D01*
X86371765Y-42884235D01*
X86371765Y-28390687D01*
X86391450Y-28323648D01*
X86408084Y-28303006D01*
X86436371Y-28274719D01*
X86476734Y-28234356D01*
X86522879Y-28154432D01*
X86546765Y-28065288D01*
X86546765Y-27973000D01*
X86522879Y-27883856D01*
X86518164Y-27875689D01*
X86476738Y-27803938D01*
X86476735Y-27803935D01*
X86476734Y-27803932D01*
X86411477Y-27738675D01*
X86411474Y-27738673D01*
X86411470Y-27738670D01*
X86331558Y-27692532D01*
X86331555Y-27692531D01*
X86331554Y-27692530D01*
X86331553Y-27692530D01*
X86242409Y-27668644D01*
X86150121Y-27668644D01*
X86060977Y-27692530D01*
X86060976Y-27692530D01*
X86060974Y-27692531D01*
X86060971Y-27692532D01*
X85981059Y-27738670D01*
X85974607Y-27743622D01*
X85973247Y-27741850D01*
X85922123Y-27769767D01*
X85852431Y-27764783D01*
X85796498Y-27722911D01*
X85772081Y-27657447D01*
X85771765Y-27648601D01*
X85771765Y-20297117D01*
X100045765Y-20297117D01*
X100045765Y-20541171D01*
X100047282Y-20550751D01*
X100083689Y-20780615D01*
X100083944Y-20782220D01*
X100159193Y-21013813D01*
X100159362Y-21014331D01*
X100162068Y-21019642D01*
X100261754Y-21215288D01*
X100270161Y-21231786D01*
X100413604Y-21429220D01*
X100413608Y-21429225D01*
X100586183Y-21601800D01*
X100586188Y-21601804D01*
X100665251Y-21659246D01*
X100783626Y-21745250D01*
X101001080Y-21856048D01*
X101233189Y-21931465D01*
X101474238Y-21969644D01*
X101474239Y-21969644D01*
X101718291Y-21969644D01*
X101718292Y-21969644D01*
X101959341Y-21931465D01*
X102191450Y-21856048D01*
X102408904Y-21745250D01*
X102606348Y-21601799D01*
X102778920Y-21429227D01*
X102922371Y-21231783D01*
X103033169Y-21014329D01*
X103108586Y-20782220D01*
X103146765Y-20541171D01*
X103146765Y-20297117D01*
X103108586Y-20056068D01*
X103033169Y-19823959D01*
X102922371Y-19606505D01*
X102835173Y-19486487D01*
X102778925Y-19409067D01*
X102778921Y-19409062D01*
X102606346Y-19236487D01*
X102606341Y-19236483D01*
X102408907Y-19093040D01*
X102408906Y-19093039D01*
X102408904Y-19093038D01*
X102191450Y-18982240D01*
X101959341Y-18906823D01*
X101959339Y-18906822D01*
X101959337Y-18906822D01*
X101776769Y-18877906D01*
X101718292Y-18868644D01*
X101474238Y-18868644D01*
X101418358Y-18877494D01*
X101233192Y-18906822D01*
X101001077Y-18982241D01*
X100783622Y-19093040D01*
X100586188Y-19236483D01*
X100586183Y-19236487D01*
X100413608Y-19409062D01*
X100413604Y-19409067D01*
X100270161Y-19606501D01*
X100159362Y-19823956D01*
X100083943Y-20056071D01*
X100053843Y-20246114D01*
X100045765Y-20297117D01*
X85771765Y-20297117D01*
X85771765Y-20168495D01*
X85771766Y-20168486D01*
X85771766Y-20084236D01*
X85771766Y-20084235D01*
X85745047Y-20019731D01*
X85745045Y-20019729D01*
X85745045Y-20019728D01*
X84499178Y-18773862D01*
X84482906Y-18767122D01*
X84434674Y-18747144D01*
X84434673Y-18747144D01*
X69851974Y-18747144D01*
X69784935Y-18727459D01*
X69739180Y-18674655D01*
X69729236Y-18605497D01*
X69732195Y-18591065D01*
X69756765Y-18499371D01*
X69756765Y-17743917D01*
X69729472Y-17642057D01*
X69676745Y-17550731D01*
X69602178Y-17476164D01*
X69510852Y-17423437D01*
X69408992Y-17396144D01*
X69088992Y-17396144D01*
X68983538Y-17396144D01*
X68881678Y-17423437D01*
X68881675Y-17423438D01*
X68790350Y-17476165D01*
X68715786Y-17550729D01*
X68663059Y-17642054D01*
X68663058Y-17642057D01*
X68635765Y-17743917D01*
X68635765Y-18393917D01*
X68635765Y-18499371D01*
X68663058Y-18601231D01*
X68715785Y-18692557D01*
X68790352Y-18767124D01*
X68881678Y-18819851D01*
X68962628Y-18841541D01*
X69022289Y-18877906D01*
X69052818Y-18940753D01*
X69044523Y-19010128D01*
X69018216Y-19048997D01*
X68138566Y-19928647D01*
X68138562Y-19928651D01*
X68132852Y-19934362D01*
X68083483Y-19983731D01*
X68068576Y-20019717D01*
X68058597Y-20032704D01*
X68043061Y-20044030D01*
X68030997Y-20059001D01*
X68015411Y-20064188D01*
X68002138Y-20073865D01*
X67982943Y-20074993D01*
X67964702Y-20081065D01*
X67960279Y-20081144D01*
X67726370Y-20081144D01*
X67726362Y-20081145D01*
X67697054Y-20086974D01*
X67693713Y-20088358D01*
X67685841Y-20089203D01*
X67685072Y-20089357D01*
X67685058Y-20089288D01*
X67624243Y-20095824D01*
X67598808Y-20088355D01*
X67595473Y-20086973D01*
X67566166Y-20081144D01*
X67326370Y-20081144D01*
X67326362Y-20081145D01*
X67297054Y-20086974D01*
X67293713Y-20088358D01*
X67285841Y-20089203D01*
X67285072Y-20089357D01*
X67285058Y-20089288D01*
X67224243Y-20095824D01*
X67198808Y-20088355D01*
X67195473Y-20086973D01*
X67166166Y-20081144D01*
X66926370Y-20081144D01*
X66926362Y-20081145D01*
X66897052Y-20086974D01*
X66853651Y-20115973D01*
X66852012Y-20113521D01*
X66807123Y-20138033D01*
X66737431Y-20133049D01*
X66681498Y-20091177D01*
X66657081Y-20025713D01*
X66656765Y-20016867D01*
X66656765Y-19913919D01*
X66656765Y-19913917D01*
X66629472Y-19812057D01*
X66576745Y-19720731D01*
X66502178Y-19646164D01*
X66433480Y-19606501D01*
X66410854Y-19593438D01*
X66410853Y-19593437D01*
X66410852Y-19593437D01*
X66308992Y-19566144D01*
X65988992Y-19566144D01*
X65883538Y-19566144D01*
X65781678Y-19593437D01*
X65781675Y-19593438D01*
X65690350Y-19646165D01*
X65615786Y-19720729D01*
X65563059Y-19812054D01*
X65563058Y-19812057D01*
X65535765Y-19913917D01*
X65535765Y-20563917D01*
X65535765Y-20669371D01*
X65563058Y-20771229D01*
X65563058Y-20771230D01*
X65563059Y-20771233D01*
X65569400Y-20782216D01*
X65615785Y-20862557D01*
X65690352Y-20937124D01*
X65781678Y-20989851D01*
X65883538Y-21017144D01*
X65883540Y-21017144D01*
X66308990Y-21017144D01*
X66308992Y-21017144D01*
X66410852Y-20989851D01*
X66502178Y-20937124D01*
X66576745Y-20862557D01*
X66629472Y-20771231D01*
X66629473Y-20771229D01*
X66632203Y-20764638D01*
X66676042Y-20710233D01*
X66742336Y-20688166D01*
X66810035Y-20705443D01*
X66857647Y-20756579D01*
X66870765Y-20812087D01*
X66870765Y-21045087D01*
X66851080Y-21112126D01*
X66834446Y-21132768D01*
X66597483Y-21369730D01*
X66570765Y-21434235D01*
X66570765Y-21730376D01*
X66551080Y-21797415D01*
X66498276Y-21843170D01*
X66470957Y-21851993D01*
X66469381Y-21852306D01*
X66469377Y-21852308D01*
X66391479Y-21904358D01*
X66339429Y-21982256D01*
X66339427Y-21982259D01*
X66325765Y-22050945D01*
X66325765Y-22050948D01*
X66325765Y-22367340D01*
X66325765Y-22367342D01*
X66325764Y-22367342D01*
X66339427Y-22436028D01*
X66339428Y-22436030D01*
X66339429Y-22436032D01*
X66391479Y-22513930D01*
X66469377Y-22565980D01*
X66469379Y-22565980D01*
X66469380Y-22565981D01*
X66538066Y-22579644D01*
X66538069Y-22579644D01*
X66954463Y-22579644D01*
X67023149Y-22565981D01*
X67023149Y-22565980D01*
X67023153Y-22565980D01*
X67101051Y-22513930D01*
X67143163Y-22450904D01*
X67196775Y-22406099D01*
X67266100Y-22397392D01*
X67329127Y-22427546D01*
X67349367Y-22450905D01*
X67388404Y-22509329D01*
X67391479Y-22513930D01*
X67469377Y-22565980D01*
X67469379Y-22565980D01*
X67469380Y-22565981D01*
X67538066Y-22579644D01*
X67538069Y-22579644D01*
X67954463Y-22579644D01*
X68023149Y-22565981D01*
X68023149Y-22565980D01*
X68023153Y-22565980D01*
X68101051Y-22513930D01*
X68118664Y-22487570D01*
X68172273Y-22442766D01*
X68241598Y-22434057D01*
X68304626Y-22464211D01*
X68341346Y-22523653D01*
X68345765Y-22556461D01*
X68345765Y-22881826D01*
X68326080Y-22948865D01*
X68273276Y-22994620D01*
X68204118Y-23004564D01*
X68140562Y-22975539D01*
X68118665Y-22950720D01*
X68101051Y-22924358D01*
X68023153Y-22872308D01*
X68023151Y-22872307D01*
X68023149Y-22872306D01*
X67954463Y-22858644D01*
X67954461Y-22858644D01*
X67538069Y-22858644D01*
X67538067Y-22858644D01*
X67469380Y-22872306D01*
X67469377Y-22872308D01*
X67391479Y-22924358D01*
X67356388Y-22976876D01*
X67349367Y-22987383D01*
X67295755Y-23032188D01*
X67226430Y-23040895D01*
X67163402Y-23010740D01*
X67143163Y-22987383D01*
X67136143Y-22976877D01*
X67101051Y-22924358D01*
X67023153Y-22872308D01*
X67023151Y-22872307D01*
X67023149Y-22872306D01*
X66954463Y-22858644D01*
X66954461Y-22858644D01*
X66538069Y-22858644D01*
X66538067Y-22858644D01*
X66469380Y-22872306D01*
X66469377Y-22872308D01*
X66391479Y-22924358D01*
X66356388Y-22976876D01*
X66356387Y-22976877D01*
X66302775Y-23021682D01*
X66233450Y-23030389D01*
X66170422Y-23000234D01*
X66151833Y-22973965D01*
X66149596Y-22975460D01*
X66142811Y-22965305D01*
X66089656Y-22885753D01*
X66010104Y-22832598D01*
X66010102Y-22832597D01*
X66010099Y-22832596D01*
X65939956Y-22818644D01*
X65939953Y-22818644D01*
X65552577Y-22818644D01*
X65552574Y-22818644D01*
X65482430Y-22832596D01*
X65482426Y-22832598D01*
X65402874Y-22885753D01*
X65349367Y-22965832D01*
X65295755Y-23010637D01*
X65226430Y-23019344D01*
X65163402Y-22989189D01*
X65143163Y-22965832D01*
X65128287Y-22943569D01*
X65089656Y-22885753D01*
X65010104Y-22832598D01*
X65010102Y-22832597D01*
X65010099Y-22832596D01*
X64939956Y-22818644D01*
X64939953Y-22818644D01*
X64552577Y-22818644D01*
X64552574Y-22818644D01*
X64482430Y-22832596D01*
X64482426Y-22832598D01*
X64402874Y-22885753D01*
X64342934Y-22975460D01*
X64339519Y-22973178D01*
X64309899Y-23009887D01*
X64243591Y-23031910D01*
X64175902Y-23014587D01*
X64136145Y-22976880D01*
X64101051Y-22924358D01*
X64023153Y-22872308D01*
X64023151Y-22872307D01*
X64023149Y-22872306D01*
X63954463Y-22858644D01*
X63954461Y-22858644D01*
X63538069Y-22858644D01*
X63538067Y-22858644D01*
X63469380Y-22872306D01*
X63469377Y-22872308D01*
X63391479Y-22924358D01*
X63339429Y-23002256D01*
X63339427Y-23002259D01*
X63325765Y-23070945D01*
X63325765Y-23070948D01*
X63325765Y-23387340D01*
X63325765Y-23387342D01*
X63325764Y-23387342D01*
X63339427Y-23456028D01*
X63339428Y-23456030D01*
X63339429Y-23456032D01*
X63391479Y-23533930D01*
X63469377Y-23585980D01*
X63469379Y-23585980D01*
X63469380Y-23585981D01*
X63538066Y-23599644D01*
X63538069Y-23599644D01*
X63811853Y-23599644D01*
X63878892Y-23619329D01*
X63899534Y-23635963D01*
X64087181Y-23823610D01*
X64120666Y-23884933D01*
X64123500Y-23911291D01*
X64123500Y-27688000D01*
X64103815Y-27755039D01*
X64051011Y-27800794D01*
X63999500Y-27812000D01*
X63726382Y-27812000D01*
X63092791Y-27812000D01*
X63013027Y-27812000D01*
X63013026Y-27812000D01*
X63001047Y-27814383D01*
X63000768Y-27812984D01*
X62972321Y-27818644D01*
X62612909Y-27818644D01*
X62545870Y-27798959D01*
X62500115Y-27746155D01*
X62490171Y-27676997D01*
X62514481Y-27623764D01*
X62512871Y-27622689D01*
X62519656Y-27612535D01*
X62572811Y-27532983D01*
X62586765Y-27462832D01*
X62586765Y-27075456D01*
X62586765Y-27075453D01*
X62586764Y-27075451D01*
X62572812Y-27005309D01*
X62572811Y-27005308D01*
X62572811Y-27005305D01*
X62537983Y-26953182D01*
X62517106Y-26886505D01*
X62533700Y-26822290D01*
X62572878Y-26754434D01*
X62572879Y-26754432D01*
X62596765Y-26665288D01*
X62596765Y-26573000D01*
X62572879Y-26483856D01*
X62567454Y-26474459D01*
X62526738Y-26403938D01*
X62526735Y-26403935D01*
X62526734Y-26403932D01*
X62461477Y-26338675D01*
X62461474Y-26338673D01*
X62461470Y-26338670D01*
X62381558Y-26292532D01*
X62381555Y-26292531D01*
X62381554Y-26292530D01*
X62381553Y-26292530D01*
X62292409Y-26268644D01*
X62200121Y-26268644D01*
X62110977Y-26292530D01*
X62110976Y-26292530D01*
X62110974Y-26292531D01*
X62110971Y-26292532D01*
X62031059Y-26338670D01*
X62031050Y-26338677D01*
X61965798Y-26403929D01*
X61965791Y-26403938D01*
X61919653Y-26483850D01*
X61919652Y-26483853D01*
X61895765Y-26573000D01*
X61895765Y-26665287D01*
X61919651Y-26754433D01*
X61925503Y-26764568D01*
X61941977Y-26832468D01*
X61919126Y-26898495D01*
X61900738Y-26916345D01*
X61901510Y-26917117D01*
X61892874Y-26925752D01*
X61839719Y-27005305D01*
X61839717Y-27005309D01*
X61825765Y-27075451D01*
X61825765Y-27462836D01*
X61839717Y-27532978D01*
X61839718Y-27532981D01*
X61839719Y-27532983D01*
X61888483Y-27605963D01*
X61899659Y-27622689D01*
X61896896Y-27624534D01*
X61920787Y-27668286D01*
X61915803Y-27737978D01*
X61873931Y-27793911D01*
X61808467Y-27818328D01*
X61799621Y-27818644D01*
X60081412Y-27818644D01*
X60073775Y-27816401D01*
X60065918Y-27817672D01*
X60040730Y-27806698D01*
X60014373Y-27798959D01*
X60007528Y-27792233D01*
X60001863Y-27789765D01*
X59978287Y-27763500D01*
X59977640Y-27762531D01*
X59956784Y-27695847D01*
X59956765Y-27693675D01*
X59956765Y-27663003D01*
X59956765Y-27663001D01*
X59932879Y-27573857D01*
X59927931Y-27565287D01*
X59916657Y-27545759D01*
X59916655Y-27545757D01*
X59886735Y-27493933D01*
X59331476Y-26938674D01*
X59331475Y-26938673D01*
X59331472Y-26938671D01*
X59251554Y-26892531D01*
X59251553Y-26892530D01*
X59251552Y-26892530D01*
X59162408Y-26868644D01*
X56860196Y-26868644D01*
X56771052Y-26892530D01*
X56771049Y-26892531D01*
X56691131Y-26938671D01*
X56691126Y-26938675D01*
X55448477Y-28181325D01*
X55387154Y-28214810D01*
X55360796Y-28217644D01*
X42201121Y-28217644D01*
X42111977Y-28241530D01*
X42111974Y-28241531D01*
X42032056Y-28287671D01*
X42032051Y-28287675D01*
X40250946Y-30068781D01*
X40189623Y-30102266D01*
X40119931Y-30097282D01*
X40063998Y-30055410D01*
X40039581Y-29989946D01*
X40039265Y-29981100D01*
X40039265Y-29443144D01*
X40036854Y-29420717D01*
X40025648Y-29369206D01*
X40002291Y-29322545D01*
X40002290Y-29322543D01*
X39959153Y-29272761D01*
X39956536Y-29269741D01*
X39956535Y-29269740D01*
X39927251Y-29250921D01*
X39906528Y-29237603D01*
X39891414Y-29233165D01*
X39839494Y-29217919D01*
X39839490Y-29217918D01*
X39839489Y-29217918D01*
X39809765Y-29213644D01*
X39809761Y-29213644D01*
X33825765Y-29213644D01*
X33758726Y-29193959D01*
X33712971Y-29141155D01*
X33701765Y-29089644D01*
X33701765Y-27373644D01*
X33704315Y-27364958D01*
X33703027Y-27355997D01*
X33714005Y-27331956D01*
X33721450Y-27306605D01*
X33728290Y-27300677D01*
X33732052Y-27292441D01*
X33754286Y-27278151D01*
X33774254Y-27260850D01*
X33784768Y-27258562D01*
X33790830Y-27254667D01*
X33825765Y-27249644D01*
X33971265Y-27249644D01*
X34001254Y-27249644D01*
X34068293Y-27269329D01*
X34093773Y-27294359D01*
X34094236Y-27293897D01*
X34102874Y-27302535D01*
X34182426Y-27355690D01*
X34182429Y-27355690D01*
X34182430Y-27355691D01*
X34252572Y-27369643D01*
X34252575Y-27369644D01*
X34252577Y-27369644D01*
X34639955Y-27369644D01*
X34639956Y-27369643D01*
X34710104Y-27355690D01*
X34789656Y-27302535D01*
X34789658Y-27302531D01*
X34798294Y-27293897D01*
X34799601Y-27295204D01*
X34841783Y-27259950D01*
X34891276Y-27249644D01*
X35658282Y-27249644D01*
X35725321Y-27269329D01*
X35771076Y-27322133D01*
X35781020Y-27391291D01*
X35779900Y-27397834D01*
X35770765Y-27443761D01*
X35770765Y-27694532D01*
X35782033Y-27751184D01*
X35782034Y-27751185D01*
X35782034Y-27751186D01*
X35782035Y-27751187D01*
X35824968Y-27815441D01*
X35889222Y-27858374D01*
X35889223Y-27858374D01*
X35889224Y-27858375D01*
X35945876Y-27869643D01*
X35945880Y-27869644D01*
X35945881Y-27869644D01*
X36171650Y-27869644D01*
X36171651Y-27869643D01*
X36190706Y-27865853D01*
X36228305Y-27858375D01*
X36228305Y-27858374D01*
X36228308Y-27858374D01*
X36292562Y-27815441D01*
X36335495Y-27751187D01*
X36337353Y-27741850D01*
X36344569Y-27705570D01*
X36346765Y-27694528D01*
X36346765Y-27443760D01*
X36342556Y-27422598D01*
X36335496Y-27387103D01*
X36335495Y-27387102D01*
X36335495Y-27387101D01*
X36292562Y-27322847D01*
X36292561Y-27322846D01*
X36287623Y-27315456D01*
X36266745Y-27248778D01*
X36285230Y-27181398D01*
X36285758Y-27180550D01*
X36292734Y-27169456D01*
X36295668Y-27166915D01*
X36327806Y-27116907D01*
X36329575Y-27110876D01*
X36335158Y-27102001D01*
X36335493Y-27101191D01*
X36335493Y-27101189D01*
X36335495Y-27101187D01*
X36340870Y-27074156D01*
X36343509Y-27063425D01*
X36347488Y-27049877D01*
X36347491Y-27049868D01*
X36351765Y-27020144D01*
X36351765Y-26193144D01*
X36349354Y-26170717D01*
X36338208Y-26119480D01*
X36338104Y-26119003D01*
X36343088Y-26049311D01*
X36384959Y-25993377D01*
X36450423Y-25968960D01*
X36459270Y-25968644D01*
X37311221Y-25968644D01*
X37340661Y-25977288D01*
X37370648Y-25983812D01*
X37375663Y-25987566D01*
X37378260Y-25988329D01*
X37398902Y-26004963D01*
X37492148Y-26098209D01*
X37525633Y-26159532D01*
X37527720Y-26188715D01*
X37528265Y-26188715D01*
X37528265Y-27144646D01*
X37530675Y-27167070D01*
X37536668Y-27194615D01*
X37541882Y-27218582D01*
X37562589Y-27259950D01*
X37564332Y-27263431D01*
X37576738Y-27332190D01*
X37561012Y-27375531D01*
X37561708Y-27375820D01*
X37557033Y-27387103D01*
X37545765Y-27443755D01*
X37545765Y-27694532D01*
X37557033Y-27751184D01*
X37557034Y-27751186D01*
X37557035Y-27751187D01*
X37557164Y-27751381D01*
X37557317Y-27751867D01*
X37561708Y-27762468D01*
X37560758Y-27762861D01*
X37578040Y-27818057D01*
X37559554Y-27885437D01*
X37558378Y-27887303D01*
X37552227Y-27896873D01*
X37552224Y-27896880D01*
X37532540Y-27963914D01*
X37532539Y-27963919D01*
X37532539Y-27963920D01*
X37529350Y-27986102D01*
X37528265Y-27993647D01*
X37528265Y-28290146D01*
X37530675Y-28312570D01*
X37541882Y-28364082D01*
X37547304Y-28374914D01*
X37552831Y-28391037D01*
X37557036Y-28401189D01*
X37566798Y-28415799D01*
X37599968Y-28465441D01*
X37664222Y-28508374D01*
X37664223Y-28508374D01*
X37664224Y-28508375D01*
X37718367Y-28519144D01*
X35608765Y-28519144D01*
X35608765Y-27794144D01*
X33958765Y-27794144D01*
X33958765Y-29144144D01*
X39933765Y-29144144D01*
X39956265Y-27322877D01*
X39760108Y-27322278D01*
X39789656Y-27302535D01*
X39789657Y-27302533D01*
X39793363Y-27300057D01*
X39800588Y-27293921D01*
X39805573Y-27290342D01*
X39841477Y-27269614D01*
X39859351Y-27251739D01*
X39867568Y-27245841D01*
X39872875Y-27243981D01*
X39884368Y-27235693D01*
X39930364Y-27212670D01*
X39983168Y-27166915D01*
X40015306Y-27116907D01*
X40015306Y-27116904D01*
X40018992Y-27108836D01*
X40019969Y-27109282D01*
X40046464Y-27064625D01*
X40676734Y-26434357D01*
X40722879Y-26354432D01*
X40733223Y-26315826D01*
X40746765Y-26265288D01*
X40746765Y-24173000D01*
X40722879Y-24083856D01*
X40722876Y-24083850D01*
X40676738Y-24003938D01*
X40676735Y-24003935D01*
X40676734Y-24003932D01*
X40611477Y-23938675D01*
X39660185Y-22987383D01*
X38693084Y-22020281D01*
X38659599Y-21958958D01*
X38656765Y-21932600D01*
X38656765Y-21143643D01*
X38676450Y-21076604D01*
X38729254Y-21030849D01*
X38780765Y-21019643D01*
X39166160Y-21019643D01*
X39166163Y-21019643D01*
X39195478Y-21013813D01*
X39228722Y-20991601D01*
X39250934Y-20958357D01*
X39256765Y-20929043D01*
X39256764Y-19603312D01*
X61090765Y-19603312D01*
X61090765Y-20234975D01*
X61094359Y-20262273D01*
X61128436Y-20389447D01*
X61138971Y-20414881D01*
X61138977Y-20414893D01*
X61204798Y-20528899D01*
X61221566Y-20550751D01*
X61221570Y-20550756D01*
X61314652Y-20643838D01*
X61314657Y-20643842D01*
X61314658Y-20643843D01*
X61336508Y-20660609D01*
X61409158Y-20702553D01*
X61457372Y-20753117D01*
X61461717Y-20762484D01*
X61483901Y-20816041D01*
X63048901Y-22381041D01*
X63119368Y-22451508D01*
X63211437Y-22489644D01*
X63317517Y-22489644D01*
X63384556Y-22509329D01*
X63386407Y-22510542D01*
X63455131Y-22556461D01*
X63469377Y-22565980D01*
X63469378Y-22565980D01*
X63469380Y-22565981D01*
X63538066Y-22579644D01*
X63538069Y-22579644D01*
X63954463Y-22579644D01*
X64023149Y-22565981D01*
X64023149Y-22565980D01*
X64023153Y-22565980D01*
X64101051Y-22513930D01*
X64153101Y-22436032D01*
X64166765Y-22367340D01*
X64166765Y-22050948D01*
X64166765Y-22050945D01*
X64153102Y-21982259D01*
X64153101Y-21982258D01*
X64153101Y-21982256D01*
X64101051Y-21904358D01*
X64023153Y-21852308D01*
X64023151Y-21852307D01*
X64023149Y-21852306D01*
X63954463Y-21838644D01*
X63954461Y-21838644D01*
X63538069Y-21838644D01*
X63538067Y-21838644D01*
X63469380Y-21852306D01*
X63469375Y-21852308D01*
X63409707Y-21892177D01*
X63343030Y-21913054D01*
X63275650Y-21894569D01*
X63253137Y-21876755D01*
X62283248Y-20906866D01*
X62249763Y-20845543D01*
X62254747Y-20775851D01*
X62270614Y-20746295D01*
X62281611Y-20731158D01*
X62281616Y-20731155D01*
X62301765Y-20669144D01*
X62301765Y-19169144D01*
X62296601Y-19136543D01*
X62258276Y-19083793D01*
X62258275Y-19083792D01*
X62196266Y-19063644D01*
X62196265Y-19063644D01*
X61630439Y-19063644D01*
X61630433Y-19063644D01*
X61603135Y-19067238D01*
X61475961Y-19101315D01*
X61450527Y-19111850D01*
X61450515Y-19111856D01*
X61336509Y-19177677D01*
X61314657Y-19194445D01*
X61314652Y-19194449D01*
X61221570Y-19287531D01*
X61221566Y-19287536D01*
X61204798Y-19309388D01*
X61138977Y-19423394D01*
X61138971Y-19423406D01*
X61128436Y-19448840D01*
X61094359Y-19576014D01*
X61090765Y-19603312D01*
X39256764Y-19603312D01*
X39256764Y-19209246D01*
X39250934Y-19179931D01*
X39249428Y-19177677D01*
X39228722Y-19146686D01*
X39195479Y-19124476D01*
X39195480Y-19124476D01*
X39195478Y-19124475D01*
X39195476Y-19124474D01*
X39195473Y-19124473D01*
X39166166Y-19118644D01*
X37446370Y-19118644D01*
X37446362Y-19118645D01*
X37417052Y-19124474D01*
X37383807Y-19146686D01*
X37361597Y-19179929D01*
X37361594Y-19179935D01*
X37355765Y-19209242D01*
X37355765Y-20929038D01*
X37355766Y-20929046D01*
X37361595Y-20958356D01*
X37383807Y-20991601D01*
X37400484Y-21002743D01*
X37417052Y-21013813D01*
X37417055Y-21013813D01*
X37417056Y-21013814D01*
X37426912Y-21015774D01*
X37446366Y-21019644D01*
X37831765Y-21019643D01*
X37898804Y-21039327D01*
X37944559Y-21092131D01*
X37955765Y-21143643D01*
X37955765Y-22175288D01*
X37963555Y-22204358D01*
X37979651Y-22264431D01*
X37979651Y-22264432D01*
X38025792Y-22344352D01*
X38025796Y-22344357D01*
X40009446Y-24328006D01*
X40042931Y-24389329D01*
X40045765Y-24415687D01*
X40045765Y-25862841D01*
X40026080Y-25929880D01*
X39973276Y-25975635D01*
X39904118Y-25985579D01*
X39886830Y-25981818D01*
X39839498Y-25967920D01*
X39839493Y-25967919D01*
X39839489Y-25967918D01*
X39809765Y-25963644D01*
X39809761Y-25963644D01*
X38400309Y-25963644D01*
X38333270Y-25943959D01*
X38312628Y-25927325D01*
X37722978Y-25337675D01*
X37722973Y-25337671D01*
X37643055Y-25291531D01*
X37643054Y-25291530D01*
X37643053Y-25291530D01*
X37553909Y-25267644D01*
X31713621Y-25267644D01*
X31645816Y-25285812D01*
X31645815Y-25285811D01*
X31624479Y-25291529D01*
X31624474Y-25291531D01*
X31544556Y-25337671D01*
X31544551Y-25337675D01*
X30778296Y-26103930D01*
X30778292Y-26103935D01*
X30743950Y-26163419D01*
X30732152Y-26183854D01*
X30732151Y-26183855D01*
X30708265Y-26273000D01*
X30708265Y-26974644D01*
X30688580Y-27041683D01*
X30635776Y-27087438D01*
X30584265Y-27098644D01*
X30498067Y-27098644D01*
X30429380Y-27112306D01*
X30429377Y-27112308D01*
X30351479Y-27164358D01*
X30299429Y-27242256D01*
X30299427Y-27242259D01*
X30285765Y-27310945D01*
X30285765Y-27310948D01*
X30285765Y-27727340D01*
X30285765Y-27727342D01*
X30285764Y-27727342D01*
X30299427Y-27796028D01*
X30299428Y-27796030D01*
X30299429Y-27796032D01*
X30351479Y-27873930D01*
X30429377Y-27925980D01*
X30429379Y-27925980D01*
X30429380Y-27925981D01*
X30498066Y-27939644D01*
X30498069Y-27939644D01*
X30814463Y-27939644D01*
X30883149Y-27925981D01*
X30883149Y-27925980D01*
X30883153Y-27925980D01*
X30936189Y-27890541D01*
X31002867Y-27869664D01*
X31005080Y-27869644D01*
X31104907Y-27869644D01*
X31104909Y-27869644D01*
X31194053Y-27845758D01*
X31273977Y-27799613D01*
X31339234Y-27734356D01*
X31385379Y-27654432D01*
X31409265Y-27565288D01*
X31409265Y-26515688D01*
X31428950Y-26448649D01*
X31445584Y-26428007D01*
X31868628Y-26004963D01*
X31929951Y-25971478D01*
X31956309Y-25968644D01*
X32586586Y-25968644D01*
X32653625Y-25988329D01*
X32699380Y-26041133D01*
X32709545Y-26108678D01*
X32708292Y-26118284D01*
X32695039Y-26163420D01*
X32690765Y-26193144D01*
X32690765Y-26252694D01*
X32689724Y-26260678D01*
X32678745Y-26285577D01*
X32671080Y-26311683D01*
X32664858Y-26317074D01*
X32661536Y-26324609D01*
X32638837Y-26339620D01*
X32618276Y-26357438D01*
X32608772Y-26359505D01*
X32603259Y-26363152D01*
X32591287Y-26363309D01*
X32566765Y-26368644D01*
X32550121Y-26368644D01*
X32465074Y-26391432D01*
X32465073Y-26391432D01*
X32460975Y-26392529D01*
X32381059Y-26438670D01*
X32381050Y-26438677D01*
X31915796Y-26903930D01*
X31915792Y-26903935D01*
X31869652Y-26983853D01*
X31869651Y-26983856D01*
X31845765Y-27073000D01*
X31845765Y-29472600D01*
X31826080Y-29539639D01*
X31809446Y-29560281D01*
X31237402Y-30132325D01*
X31210474Y-30147028D01*
X31184656Y-30163621D01*
X31178455Y-30164512D01*
X31176079Y-30165810D01*
X31149721Y-30168644D01*
X30967580Y-30168644D01*
X30900541Y-30148959D01*
X30898689Y-30147746D01*
X30845653Y-30112308D01*
X30845651Y-30112307D01*
X30845649Y-30112306D01*
X30776963Y-30098644D01*
X30776961Y-30098644D01*
X30460569Y-30098644D01*
X30460567Y-30098644D01*
X30391880Y-30112306D01*
X30391877Y-30112308D01*
X30313979Y-30164358D01*
X30261929Y-30242256D01*
X30261927Y-30242259D01*
X30248265Y-30310945D01*
X30248265Y-30310948D01*
X30248265Y-30727340D01*
X30248265Y-30727342D01*
X30248264Y-30727342D01*
X29969265Y-30727342D01*
X29969265Y-30310945D01*
X29955602Y-30242259D01*
X29955601Y-30242258D01*
X29955601Y-30242256D01*
X29903551Y-30164358D01*
X29825653Y-30112308D01*
X29825651Y-30112307D01*
X29825649Y-30112306D01*
X29756963Y-30098644D01*
X29756961Y-30098644D01*
X29440569Y-30098644D01*
X29440567Y-30098644D01*
X29371880Y-30112306D01*
X29371878Y-30112307D01*
X29318839Y-30147747D01*
X29252162Y-30168624D01*
X29249949Y-30168644D01*
X28252316Y-30168644D01*
X28185277Y-30148959D01*
X28139934Y-30097050D01*
X28130564Y-30076955D01*
X28050954Y-29997345D01*
X28023219Y-29984412D01*
X27948919Y-29949765D01*
X27948918Y-29949764D01*
X27902424Y-29943644D01*
X27390112Y-29943644D01*
X27375373Y-29945584D01*
X27343612Y-29949765D01*
X27343610Y-29949766D01*
X27343608Y-29949766D01*
X27241575Y-29997345D01*
X27161966Y-30076954D01*
X27114386Y-30178989D01*
X27114385Y-30178990D01*
X27108265Y-30225484D01*
X19422765Y-30225484D01*
X19422765Y-27225484D01*
X27145765Y-27225484D01*
X27145765Y-27812796D01*
X27145766Y-27812802D01*
X27151886Y-27859297D01*
X27151887Y-27859299D01*
X27151887Y-27859300D01*
X27176928Y-27913000D01*
X27199466Y-27961333D01*
X27279076Y-28040943D01*
X27370570Y-28083607D01*
X27381110Y-28088522D01*
X27381111Y-28088523D01*
X27387232Y-28089328D01*
X27427606Y-28094644D01*
X27939923Y-28094643D01*
X27986418Y-28088523D01*
X28088454Y-28040943D01*
X28168064Y-27961333D01*
X28177434Y-27941237D01*
X28223607Y-27888800D01*
X28289816Y-27869644D01*
X29287450Y-27869644D01*
X29354489Y-27889329D01*
X29356316Y-27890525D01*
X29409377Y-27925980D01*
X29409379Y-27925980D01*
X29409380Y-27925981D01*
X29478066Y-27939644D01*
X29478069Y-27939644D01*
X29794463Y-27939644D01*
X29863149Y-27925981D01*
X29863149Y-27925980D01*
X29863153Y-27925980D01*
X29941051Y-27873930D01*
X29993101Y-27796032D01*
X29993102Y-27796028D01*
X30006765Y-27727342D01*
X30006765Y-27310945D01*
X29993102Y-27242259D01*
X29993101Y-27242258D01*
X29993101Y-27242256D01*
X29941051Y-27164358D01*
X29863153Y-27112308D01*
X29863151Y-27112307D01*
X29863149Y-27112306D01*
X29794463Y-27098644D01*
X29794461Y-27098644D01*
X29478069Y-27098644D01*
X29478067Y-27098644D01*
X29409380Y-27112306D01*
X29409378Y-27112307D01*
X29356339Y-27147747D01*
X29289662Y-27168624D01*
X29287449Y-27168644D01*
X28289816Y-27168644D01*
X28222777Y-27148959D01*
X28177434Y-27097050D01*
X28172952Y-27087438D01*
X28168064Y-27076955D01*
X28088454Y-26997345D01*
X27986419Y-26949765D01*
X27986418Y-26949764D01*
X27939924Y-26943644D01*
X27427612Y-26943644D01*
X27412873Y-26945584D01*
X27381112Y-26949765D01*
X27381110Y-26949766D01*
X27381108Y-26949766D01*
X27279075Y-26997345D01*
X27199466Y-27076954D01*
X27151886Y-27178989D01*
X27151885Y-27178990D01*
X27145765Y-27225484D01*
X19422765Y-27225484D01*
X19422765Y-20547117D01*
X21095765Y-20547117D01*
X21095765Y-20791171D01*
X21096913Y-20798418D01*
X21133726Y-21030849D01*
X21133944Y-21032220D01*
X21209361Y-21264329D01*
X21319515Y-21480520D01*
X21320161Y-21481786D01*
X21463604Y-21679220D01*
X21463608Y-21679225D01*
X21636183Y-21851800D01*
X21636188Y-21851804D01*
X21745833Y-21931465D01*
X21833626Y-21995250D01*
X22051080Y-22106048D01*
X22283189Y-22181465D01*
X22524238Y-22219644D01*
X22524239Y-22219644D01*
X22768291Y-22219644D01*
X22768292Y-22219644D01*
X23009341Y-22181465D01*
X23241450Y-22106048D01*
X23458904Y-21995250D01*
X23656348Y-21851799D01*
X23828920Y-21679227D01*
X23972371Y-21481783D01*
X24083169Y-21264329D01*
X24158586Y-21032220D01*
X24196765Y-20791171D01*
X24196765Y-20547117D01*
X24158586Y-20306068D01*
X24083169Y-20073959D01*
X23972371Y-19856505D01*
X23873726Y-19720731D01*
X23828925Y-19659067D01*
X23828921Y-19659062D01*
X23656346Y-19486487D01*
X23656341Y-19486483D01*
X23458907Y-19343040D01*
X23458906Y-19343039D01*
X23458904Y-19343038D01*
X23241450Y-19232240D01*
X23009341Y-19156823D01*
X23009339Y-19156822D01*
X23009337Y-19156822D01*
X22805113Y-19124476D01*
X22768292Y-19118644D01*
X22524238Y-19118644D01*
X22487423Y-19124475D01*
X22283192Y-19156822D01*
X22051077Y-19232241D01*
X21833622Y-19343040D01*
X21636188Y-19486483D01*
X21636183Y-19486487D01*
X21463608Y-19659062D01*
X21463604Y-19659067D01*
X21320161Y-19856501D01*
X21209362Y-20073956D01*
X21209361Y-20073958D01*
X21209361Y-20073959D01*
X21195710Y-20115973D01*
X21133943Y-20306071D01*
X21116582Y-20415684D01*
X21095765Y-20547117D01*
X19422765Y-20547117D01*
X19422765Y-17743917D01*
X65535765Y-17743917D01*
X65535765Y-18393917D01*
X65535765Y-18499371D01*
X65563058Y-18601231D01*
X65615785Y-18692557D01*
X65690352Y-18767124D01*
X65781678Y-18819851D01*
X65883538Y-18847144D01*
X65883540Y-18847144D01*
X66308990Y-18847144D01*
X66308992Y-18847144D01*
X66410852Y-18819851D01*
X66502178Y-18767124D01*
X66576745Y-18692557D01*
X66629472Y-18601231D01*
X66656765Y-18499371D01*
X66656765Y-18396421D01*
X66676450Y-18329382D01*
X66729254Y-18283627D01*
X66798412Y-18273683D01*
X66852834Y-18298536D01*
X66853651Y-18297315D01*
X66861192Y-18302354D01*
X66861968Y-18302708D01*
X66862591Y-18303288D01*
X66863808Y-18304101D01*
X66897052Y-18326313D01*
X66897055Y-18326313D01*
X66897056Y-18326314D01*
X66906912Y-18328274D01*
X66926366Y-18332144D01*
X67166163Y-18332143D01*
X67195478Y-18326313D01*
X67195485Y-18326308D01*
X67198807Y-18324933D01*
X67206674Y-18324086D01*
X67207458Y-18323931D01*
X67207471Y-18324001D01*
X67268276Y-18317461D01*
X67293725Y-18324934D01*
X67297047Y-18326310D01*
X67297052Y-18326313D01*
X67326366Y-18332144D01*
X67566163Y-18332143D01*
X67595478Y-18326313D01*
X67595485Y-18326308D01*
X67598807Y-18324933D01*
X67606674Y-18324086D01*
X67607458Y-18323931D01*
X67607471Y-18324001D01*
X67668276Y-18317461D01*
X67693725Y-18324934D01*
X67697047Y-18326310D01*
X67697052Y-18326313D01*
X67726366Y-18332144D01*
X67966163Y-18332143D01*
X67995478Y-18326313D01*
X68028722Y-18304101D01*
X68050934Y-18270857D01*
X68056765Y-18241543D01*
X68056764Y-17746746D01*
X68050934Y-17717431D01*
X68035881Y-17694901D01*
X68028722Y-17684186D01*
X67998940Y-17664288D01*
X67995478Y-17661975D01*
X67995476Y-17661974D01*
X67995473Y-17661973D01*
X67966166Y-17656144D01*
X67726370Y-17656144D01*
X67726362Y-17656145D01*
X67697054Y-17661974D01*
X67693713Y-17663358D01*
X67685841Y-17664203D01*
X67685072Y-17664357D01*
X67685058Y-17664288D01*
X67624243Y-17670824D01*
X67598808Y-17663355D01*
X67595473Y-17661973D01*
X67566166Y-17656144D01*
X67326370Y-17656144D01*
X67326362Y-17656145D01*
X67297054Y-17661974D01*
X67293713Y-17663358D01*
X67285841Y-17664203D01*
X67285072Y-17664357D01*
X67285058Y-17664288D01*
X67224243Y-17670824D01*
X67198808Y-17663355D01*
X67195473Y-17661973D01*
X67166166Y-17656144D01*
X66926370Y-17656144D01*
X66926362Y-17656145D01*
X66897052Y-17661974D01*
X66863807Y-17684186D01*
X66856649Y-17694901D01*
X66803037Y-17739706D01*
X66733712Y-17748414D01*
X66670684Y-17718260D01*
X66633965Y-17658818D01*
X66633771Y-17658102D01*
X66633247Y-17656145D01*
X66629472Y-17642057D01*
X66576745Y-17550731D01*
X66502178Y-17476164D01*
X66410852Y-17423437D01*
X66308992Y-17396144D01*
X65988992Y-17396144D01*
X65883538Y-17396144D01*
X65781678Y-17423437D01*
X65781675Y-17423438D01*
X65690350Y-17476165D01*
X65615786Y-17550729D01*
X65563059Y-17642054D01*
X65563058Y-17642057D01*
X65535765Y-17743917D01*
X19422765Y-17743917D01*
X19422765Y-17043644D01*
X19442450Y-16976605D01*
X19495254Y-16930850D01*
X19546765Y-16919644D01*
X104321765Y-16919644D01*
X104388804Y-16939329D01*
G37*
%TD.AperFunction*%
%TD*%
M02*
