%TF.GenerationSoftware,KiCad,Pcbnew,9.0.6*%
%TF.CreationDate,2025-12-12T16:25:11+00:00*%
%TF.ProjectId,FPSP Camera,46505350-2043-4616-9d65-72612e6b6963,rev?*%
%TF.SameCoordinates,Original*%
%TF.FileFunction,Copper,L4,Bot*%
%TF.FilePolarity,Positive*%
%FSLAX46Y46*%
G04 Gerber Fmt 4.6, Leading zero omitted, Abs format (unit mm)*
G04 Created by KiCad (PCBNEW 9.0.6) date 2025-12-12 16:25:11*
%MOMM*%
%LPD*%
G01*
G04 APERTURE LIST*
%TA.AperFunction,ComponentPad*%
%ADD10C,0.600000*%
%TD*%
%TA.AperFunction,ComponentPad*%
%ADD11R,1.700000X1.700000*%
%TD*%
%TA.AperFunction,ComponentPad*%
%ADD12C,1.700000*%
%TD*%
%TA.AperFunction,SMDPad,CuDef*%
%ADD13R,1.100000X0.300000*%
%TD*%
%TA.AperFunction,SMDPad,CuDef*%
%ADD14R,3.100000X2.300000*%
%TD*%
%TA.AperFunction,ViaPad*%
%ADD15C,0.450000*%
%TD*%
%TA.AperFunction,Conductor*%
%ADD16C,0.300000*%
%TD*%
%TA.AperFunction,Conductor*%
%ADD17C,0.400000*%
%TD*%
%TA.AperFunction,Conductor*%
%ADD18C,0.200000*%
%TD*%
%TA.AperFunction,Conductor*%
%ADD19C,0.500000*%
%TD*%
%TA.AperFunction,Conductor*%
%ADD20C,0.150000*%
%TD*%
G04 APERTURE END LIST*
D10*
%TO.P,U3,61,GND*%
%TO.N,AGND*%
X65749000Y-29437500D03*
X65749000Y-30812500D03*
X65749000Y-32187500D03*
X67124000Y-29437500D03*
X67124000Y-30812500D03*
X67124000Y-32187500D03*
X68499000Y-29437500D03*
X68499000Y-30812500D03*
X68499000Y-32187500D03*
%TD*%
D11*
%TO.P,J7,1,Pin_1*%
%TO.N,+5V*%
X38306265Y-20069144D03*
D12*
%TO.P,J7,2,Pin_2*%
%TO.N,AGND*%
X40846265Y-20069144D03*
%TD*%
D13*
%TO.P,J1,1,Pin_1*%
%TO.N,unconnected-(J1-Pin_1-Pad1)*%
X77406265Y-36319144D03*
%TO.P,J1,2,Pin_2*%
%TO.N,AGND*%
X77406265Y-35819144D03*
%TO.P,J1,3,Pin_3*%
%TO.N,SDA_cam_1*%
X77406265Y-35319144D03*
%TO.P,J1,4,Pin_4*%
%TO.N,+2V8*%
X77406265Y-34819144D03*
%TO.P,J1,5,Pin_5*%
%TO.N,SCL_cam_1*%
X77406265Y-34319144D03*
%TO.P,J1,6,Pin_6*%
%TO.N,~{RESET_1}*%
X77406265Y-33819144D03*
%TO.P,J1,7,Pin_7*%
%TO.N,VSYNC_1*%
X77406265Y-33319144D03*
%TO.P,J1,8,Pin_8*%
%TO.N,PWDN_1*%
X77406265Y-32819144D03*
%TO.P,J1,9,Pin_9*%
%TO.N,HSYNC_1*%
X77406265Y-32319144D03*
%TO.P,J1,10,Pin_10*%
%TO.N,+1V5*%
X77406265Y-31819144D03*
%TO.P,J1,11,Pin_11*%
%TO.N,+3.3V*%
X77406265Y-31319144D03*
%TO.P,J1,12,Pin_12*%
%TO.N,DATA9_1*%
X77406265Y-30819144D03*
%TO.P,J1,13,Pin_13*%
%TO.N,/XCLK*%
X77406265Y-30319144D03*
%TO.P,J1,14,Pin_14*%
%TO.N,DATA8_1*%
X77406265Y-29819144D03*
%TO.P,J1,15,Pin_15*%
%TO.N,DGND*%
X77406265Y-29319144D03*
%TO.P,J1,16,Pin_16*%
%TO.N,DATA7_1*%
X77406265Y-28819144D03*
%TO.P,J1,17,Pin_17*%
%TO.N,PCLK_1*%
X77406265Y-28319144D03*
%TO.P,J1,18,Pin_18*%
%TO.N,DATA6_1*%
X77406265Y-27819144D03*
%TO.P,J1,19,Pin_19*%
%TO.N,DATA2_1*%
X77406265Y-27319144D03*
%TO.P,J1,20,Pin_20*%
%TO.N,DATA5_1*%
X77406265Y-26819144D03*
%TO.P,J1,21,Pin_21*%
%TO.N,DATA3_1*%
X77406265Y-26319144D03*
%TO.P,J1,22,Pin_22*%
%TO.N,DATA4_1*%
X77406265Y-25819144D03*
%TO.P,J1,23,Pin_23*%
%TO.N,DATA1_1*%
X77406265Y-25319144D03*
D14*
%TO.P,J1,MP*%
%TO.N,N/C*%
X75706265Y-37989144D03*
X75706265Y-23649144D03*
%TD*%
D15*
%TO.N,+3.3V*%
X62125420Y-31791968D03*
X78646265Y-31019144D03*
X83347265Y-30869144D03*
X61646265Y-34019144D03*
%TO.N,+1V1*%
X62054381Y-30212500D03*
X67146265Y-33012500D03*
X69324000Y-30822211D03*
X68616266Y-24389145D03*
X66924000Y-35405276D03*
X62246265Y-26619144D03*
X72270292Y-30212500D03*
X67148784Y-28612500D03*
X64924000Y-30864129D03*
%TO.N,AGND*%
X60646265Y-27319144D03*
X36996265Y-33569144D03*
X65246265Y-21919144D03*
X70535265Y-26512461D03*
X36971265Y-37994144D03*
X35396265Y-28669144D03*
X67546265Y-39819144D03*
X71735265Y-26169144D03*
X35946265Y-37769144D03*
X63796265Y-18469144D03*
X36946265Y-26419144D03*
X79546265Y-36519144D03*
X69946265Y-24719144D03*
X58046265Y-28019144D03*
X75646265Y-43569144D03*
X34296265Y-28569144D03*
X81126265Y-31919144D03*
X55246265Y-29319144D03*
X65641755Y-39623654D03*
X35996265Y-33169144D03*
X57546265Y-34519144D03*
X81696265Y-28419144D03*
%TO.N,PCLK_1*%
X72556265Y-25411450D03*
X79646265Y-28419144D03*
X71506428Y-29279307D03*
%TO.N,~{RESET_1}*%
X79646265Y-33769141D03*
X61496265Y-36008574D03*
%TO.N,+1V5*%
X33246265Y-39069144D03*
X78746265Y-32039144D03*
%TO.N,+2V8*%
X34796265Y-34019144D03*
X76615171Y-34819144D03*
X75596265Y-41269144D03*
%TO.N,SWCLK_1*%
X86196265Y-28019144D03*
X68196265Y-21169144D03*
%TO.N,DATA1_1*%
X78646265Y-25319144D03*
%TO.N,SCL_cam_1*%
X79646265Y-34419144D03*
X62048336Y-36587651D03*
%TO.N,/XCLK*%
X79646265Y-30419144D03*
%TO.N,PWDN_1*%
X79476137Y-32719558D03*
%TO.N,/XIN_mem1*%
X75346265Y-40119144D03*
X67143167Y-40510169D03*
%TO.N,SDA_cam_1*%
X62646265Y-37119144D03*
X79646265Y-35419144D03*
%TO.N,DGND*%
X84396265Y-35769144D03*
%TO.N,INT_XCLK*%
X73364915Y-24487794D03*
X72946265Y-29012500D03*
%TO.N,EXT_XCLK_1*%
X72556265Y-24611447D03*
X69750033Y-35515376D03*
%TO.N,DATA9_1*%
X69615302Y-36151262D03*
%TO.N,DATA3_1*%
X72858613Y-31737500D03*
%TO.N,DATA2_1*%
X72846265Y-32788500D03*
%TO.N,DATA5_1*%
X72346265Y-32137500D03*
%TO.N,HSYNC_1*%
X69566000Y-36919144D03*
%TO.N,DATA8_1*%
X73346265Y-34444144D03*
%TO.N,DATA6_1*%
X73346265Y-33313500D03*
%TO.N,DATA4_1*%
X73370962Y-31337500D03*
%TO.N,VSYNC_1*%
X62742347Y-31487500D03*
%TO.N,DATA7_1*%
X73746265Y-33838500D03*
%TD*%
D16*
%TO.N,+3.3V*%
X78346265Y-31319144D02*
X78646265Y-31019144D01*
D17*
X78672265Y-31045144D02*
X80017536Y-31045144D01*
X78646265Y-31019144D02*
X78672265Y-31045144D01*
X80545537Y-30517144D02*
X82995265Y-30517144D01*
X82995265Y-30517144D02*
X83347265Y-30869144D01*
D18*
X62125420Y-31791968D02*
X62123441Y-31791968D01*
X62123441Y-31791968D02*
X61646265Y-32269144D01*
D16*
X77406265Y-31319144D02*
X78346265Y-31319144D01*
D17*
X80017536Y-31045144D02*
X80545537Y-30517144D01*
D18*
X61646265Y-32269144D02*
X61646265Y-34019144D01*
D19*
%TO.N,+1V1*%
X66810132Y-35405276D02*
X66496265Y-35091409D01*
X68246265Y-24759146D02*
X68246265Y-26719144D01*
X64479015Y-30419144D02*
X64924000Y-30864129D01*
D17*
X72192943Y-30319144D02*
X71692943Y-30819144D01*
D18*
X72270293Y-30212501D02*
X72270293Y-30249816D01*
D17*
X72339621Y-30319144D02*
X72192943Y-30319144D01*
D18*
X62054381Y-30212500D02*
X62054381Y-30209558D01*
D19*
X68616266Y-24389145D02*
X68246265Y-24759146D01*
X62054381Y-30220616D02*
X62252909Y-30419144D01*
D17*
X71692943Y-30819144D02*
X69327067Y-30819144D01*
D19*
X68246265Y-26719144D02*
X67148784Y-27816625D01*
D18*
X62246265Y-30017674D02*
X62246265Y-26619144D01*
D19*
X66924000Y-35405276D02*
X66810132Y-35405276D01*
X62252909Y-30419144D02*
X64479015Y-30419144D01*
X62054381Y-30212500D02*
X62054381Y-30220616D01*
D18*
X72270293Y-30249816D02*
X72339621Y-30319144D01*
D19*
X66496265Y-35091409D02*
X66496265Y-33662500D01*
D18*
X62054381Y-30209558D02*
X62246265Y-30017674D01*
D19*
X66496265Y-33662500D02*
X67146265Y-33012500D01*
D18*
X72270292Y-30212500D02*
X72270293Y-30212501D01*
D19*
X67148784Y-27816625D02*
X67148784Y-28612500D01*
D17*
X69327067Y-30819144D02*
X69324000Y-30822211D01*
D18*
%TO.N,AGND*%
X77296265Y-35819144D02*
X78846265Y-35819144D01*
X78846265Y-35819144D02*
X79546265Y-36519144D01*
%TO.N,PCLK_1*%
X79546265Y-28319144D02*
X79646265Y-28419144D01*
X72336265Y-25920201D02*
X72556265Y-25700201D01*
X77296265Y-28319144D02*
X79546265Y-28319144D01*
X71546265Y-29254553D02*
X71546265Y-27208087D01*
X72336265Y-26418087D02*
X72336265Y-25920201D01*
X71571019Y-29279307D02*
X71546265Y-29254553D01*
X72556265Y-25700201D02*
X72556265Y-25411450D01*
X71506428Y-29279307D02*
X71571019Y-29279307D01*
X71546265Y-27208087D02*
X72336265Y-26418087D01*
D20*
%TO.N,~{RESET_1}*%
X76065337Y-33819144D02*
X77406265Y-33819144D01*
X61494090Y-36010749D02*
X61854660Y-36010749D01*
X71882431Y-36022144D02*
X74256695Y-36022144D01*
X65613023Y-35519144D02*
X68163023Y-38069144D01*
D18*
X79596262Y-33819144D02*
X79646265Y-33769141D01*
D20*
X75651265Y-34233218D02*
X76065337Y-33819144D01*
D18*
X77296265Y-33819144D02*
X79596262Y-33819144D01*
D20*
X74256695Y-36022144D02*
X75651265Y-34627574D01*
X69835431Y-38069144D02*
X71882431Y-36022144D01*
X75651265Y-34627574D02*
X75651265Y-34233218D01*
X62346265Y-35519144D02*
X65613023Y-35519144D01*
X68163023Y-38069144D02*
X69835431Y-38069144D01*
X61854660Y-36010749D02*
X62346265Y-35519144D01*
D18*
%TO.N,+1V5*%
X78706265Y-32039144D02*
X78486265Y-31819144D01*
D19*
X79944190Y-32039144D02*
X78746265Y-32039144D01*
D18*
X78746265Y-32039144D02*
X78706265Y-32039144D01*
D19*
X80815190Y-31168144D02*
X79944190Y-32039144D01*
X36571265Y-42819144D02*
X76596265Y-42819144D01*
X82696265Y-36719144D02*
X82696265Y-31869144D01*
X82696265Y-31869144D02*
X81995265Y-31168144D01*
D18*
X78486265Y-31819144D02*
X77406265Y-31819144D01*
D19*
X33246265Y-39494144D02*
X36571265Y-42819144D01*
X81995265Y-31168144D02*
X80815190Y-31168144D01*
X76596265Y-42819144D02*
X82696265Y-36719144D01*
X33246265Y-39069144D02*
X33246265Y-39494144D01*
D20*
%TO.N,+2V8*%
X77406265Y-34819144D02*
X76615171Y-34819144D01*
D19*
X75596265Y-41269144D02*
X37396265Y-41269144D01*
X34796265Y-38669144D02*
X34796265Y-34019144D01*
X37396265Y-41269144D02*
X34796265Y-38669144D01*
D20*
%TO.N,SWCLK_1*%
X84896265Y-21169144D02*
X86196265Y-22469144D01*
X86196265Y-22469144D02*
X86196265Y-28019144D01*
X68196265Y-21169144D02*
X84896265Y-21169144D01*
%TO.N,DATA1_1*%
X77296265Y-25319144D02*
X78646265Y-25319144D01*
%TO.N,SCL_cam_1*%
X76152265Y-34319144D02*
X77406265Y-34319144D01*
X65516635Y-35919144D02*
X68016635Y-38419144D01*
X62716843Y-35919144D02*
X65516635Y-35919144D01*
X69981819Y-38419144D02*
X72027819Y-36373144D01*
D18*
X79546265Y-34319144D02*
X79646265Y-34419144D01*
D20*
X74402084Y-36373144D02*
X76002265Y-34772963D01*
X76002265Y-34469144D02*
X76152265Y-34319144D01*
X62048336Y-36587651D02*
X62716843Y-35919144D01*
D18*
X77296265Y-34319144D02*
X79546265Y-34319144D01*
D20*
X72027819Y-36373144D02*
X74402084Y-36373144D01*
X76002265Y-34772963D02*
X76002265Y-34469144D01*
X68016635Y-38419144D02*
X69981819Y-38419144D01*
D18*
%TO.N,/XCLK*%
X79446265Y-30319144D02*
X77296265Y-30319144D01*
X79546265Y-30419144D02*
X79446265Y-30319144D01*
X79646265Y-30419144D02*
X79546265Y-30419144D01*
%TO.N,PWDN_1*%
X79383221Y-32819144D02*
X77296265Y-32819144D01*
X79476137Y-32726228D02*
X79383221Y-32819144D01*
X79476137Y-32719558D02*
X79476137Y-32726228D01*
%TO.N,/XIN_mem1*%
X74846265Y-40619144D02*
X75346265Y-40119144D01*
X67143167Y-40510169D02*
X67252142Y-40619144D01*
X67252142Y-40619144D02*
X74846265Y-40619144D01*
D20*
%TO.N,SDA_cam_1*%
X62646265Y-37119144D02*
X63074355Y-36691054D01*
D18*
X79546265Y-35319144D02*
X79646265Y-35419144D01*
D20*
X80047265Y-35820144D02*
X79646265Y-35419144D01*
X71587265Y-39415144D02*
X77532265Y-39415144D01*
X77532265Y-39415144D02*
X80047265Y-36900144D01*
X63074355Y-36691054D02*
X65792156Y-36691054D01*
D18*
X77296265Y-35319144D02*
X79546265Y-35319144D01*
D20*
X80047265Y-36900144D02*
X80047265Y-35820144D01*
X70941265Y-38769144D02*
X71587265Y-39415144D01*
X65792156Y-36691054D02*
X67870246Y-38769144D01*
X67870246Y-38769144D02*
X70941265Y-38769144D01*
D18*
%TO.N,DGND*%
X84396265Y-35769144D02*
X84396265Y-30819144D01*
X82896265Y-29319144D02*
X77406265Y-29319144D01*
X84396265Y-30819144D02*
X82896265Y-29319144D01*
%TO.N,INT_XCLK*%
X73145265Y-26553044D02*
X73145265Y-28813500D01*
X73846265Y-25852044D02*
X73145265Y-26553044D01*
X73145265Y-28813500D02*
X72946265Y-29012500D01*
X73346653Y-24487794D02*
X73364915Y-24487794D01*
X73364915Y-24487794D02*
X73846265Y-24969144D01*
X73846265Y-24969144D02*
X73846265Y-25852044D01*
%TO.N,EXT_XCLK_1*%
X72606205Y-24611447D02*
X72556265Y-24611447D01*
X72345265Y-29261443D02*
X72345265Y-28763557D01*
X72946265Y-29862443D02*
X72345265Y-29261443D01*
X72703909Y-28411500D02*
X72744265Y-28371144D01*
X72744265Y-28371144D02*
X72744265Y-26119508D01*
X73246265Y-25617508D02*
X73246265Y-25251507D01*
X72345265Y-28763557D02*
X72697322Y-28411500D01*
X69649000Y-35414342D02*
X69649000Y-33718286D01*
X72744265Y-26119508D02*
X73246265Y-25617508D01*
X72946265Y-30421021D02*
X72946265Y-29862443D01*
X69649000Y-33718286D02*
X72946265Y-30421021D01*
X69750033Y-35515376D02*
X69649000Y-35414342D01*
X72697322Y-28411500D02*
X72703909Y-28411500D01*
X73246265Y-25251507D02*
X72606205Y-24611447D01*
D20*
%TO.N,DATA9_1*%
X74598265Y-33797050D02*
X76003267Y-32392046D01*
X74598265Y-34191410D02*
X74598265Y-33797050D01*
X69759184Y-36295144D02*
X70120265Y-36295144D01*
X76253267Y-30819144D02*
X77406265Y-30819144D01*
X76003267Y-31069144D02*
X76253267Y-30819144D01*
X70596265Y-35819144D02*
X70596265Y-35369144D01*
X70120265Y-36295144D02*
X70596265Y-35819144D01*
X73820531Y-34969144D02*
X74598265Y-34191410D01*
X69615302Y-36151262D02*
X69759184Y-36295144D01*
X76003267Y-32392046D02*
X76003267Y-31069144D01*
X70996265Y-34969144D02*
X73820531Y-34969144D01*
X70596265Y-35369144D02*
X70996265Y-34969144D01*
%TO.N,DATA3_1*%
X72858613Y-31737500D02*
X72959613Y-31838500D01*
X73897265Y-26864532D02*
X74442653Y-26319144D01*
X73897265Y-31519718D02*
X73897265Y-26864532D01*
X74442653Y-26319144D02*
X77406265Y-26319144D01*
X73578483Y-31838500D02*
X73897265Y-31519718D01*
X72959613Y-31838500D02*
X73578483Y-31838500D01*
%TO.N,DATA2_1*%
X74599265Y-27666144D02*
X74946265Y-27319144D01*
X73621260Y-32788500D02*
X74543441Y-31866320D01*
X74543441Y-31866320D02*
X74599265Y-31810495D01*
X72846265Y-32788500D02*
X73621260Y-32788500D01*
X74599265Y-31810495D02*
X74599265Y-27666144D01*
X74946265Y-27319144D02*
X77406265Y-27319144D01*
%TO.N,DATA5_1*%
X74248265Y-31665107D02*
X74248265Y-27317144D01*
X72447265Y-32238500D02*
X73674872Y-32238500D01*
X72346265Y-32137500D02*
X72447265Y-32238500D01*
X74248265Y-27317144D02*
X74746265Y-26819144D01*
X74746265Y-26819144D02*
X77406265Y-26819144D01*
X73674872Y-32238500D02*
X74248265Y-31665107D01*
%TO.N,HSYNC_1*%
X74949265Y-34336798D02*
X74949265Y-33942440D01*
X73965919Y-35320144D02*
X74949265Y-34336798D01*
X71591654Y-35320144D02*
X73965919Y-35320144D01*
X69516333Y-36869477D02*
X69566000Y-36919144D01*
X74949265Y-33942440D02*
X76572558Y-32319144D01*
X69566000Y-36919144D02*
X69992654Y-36919144D01*
X69992654Y-36919144D02*
X71591654Y-35320144D01*
X76572558Y-32319144D02*
X77406265Y-32319144D01*
%TO.N,DATA8_1*%
X73346265Y-34444144D02*
X73849142Y-34444144D01*
X76046265Y-29819144D02*
X77406265Y-29819144D01*
X73849142Y-34444144D02*
X74247265Y-34046021D01*
X74247265Y-34046021D02*
X74247265Y-33651661D01*
X75652267Y-30213142D02*
X76046265Y-29819144D01*
X75652267Y-32246657D02*
X75652267Y-30213142D01*
X74247265Y-33651661D02*
X75652267Y-32246657D01*
%TO.N,DATA6_1*%
X74950265Y-31069144D02*
X74950265Y-28165144D01*
X75296265Y-27819144D02*
X77406265Y-27819144D01*
X73592649Y-33313500D02*
X74950267Y-31955881D01*
X74950267Y-31955881D02*
X74950265Y-31069144D01*
X73346265Y-33313500D02*
X73592649Y-33313500D01*
X74950265Y-28165144D02*
X75296265Y-27819144D01*
%TO.N,DATA4_1*%
X73546265Y-31162197D02*
X73546265Y-26719144D01*
X73546265Y-26719144D02*
X74446265Y-25819144D01*
X74446265Y-25819144D02*
X77296265Y-25819144D01*
X73370962Y-31337500D02*
X73546265Y-31162197D01*
%TO.N,VSYNC_1*%
X74111307Y-35671144D02*
X71737042Y-35671144D01*
X62742347Y-32152079D02*
X62742347Y-31487500D01*
X75300265Y-34482186D02*
X74111307Y-35671144D01*
X77406265Y-33319144D02*
X76068948Y-33319144D01*
X68259412Y-37669144D02*
X62742347Y-32152079D01*
X75300265Y-34087830D02*
X75300265Y-34482186D01*
X69739042Y-37669144D02*
X68259412Y-37669144D01*
X71737042Y-35671144D02*
X69739042Y-37669144D01*
X76068948Y-33319144D02*
X75300265Y-34087830D01*
%TO.N,DATA7_1*%
X75020961Y-32381577D02*
X75301267Y-32101269D01*
X75301267Y-29114142D02*
X75596265Y-28819144D01*
X73746265Y-33838500D02*
X73746265Y-33656273D01*
X75596265Y-28819144D02*
X77406265Y-28819144D01*
X73746265Y-33656273D02*
X75020961Y-32381577D01*
X75301267Y-32101269D02*
X75301267Y-29114142D01*
%TD*%
%TA.AperFunction,Conductor*%
%TO.N,AGND*%
G36*
X76214429Y-34900248D02*
G01*
X76224937Y-34901000D01*
X76244951Y-34915982D01*
X76267172Y-34927438D01*
X76277076Y-34940032D01*
X76280870Y-34942872D01*
X76288985Y-34955174D01*
X76334702Y-35034356D01*
X76399959Y-35099613D01*
X76399962Y-35099614D01*
X76399965Y-35099617D01*
X76479877Y-35145755D01*
X76479878Y-35145755D01*
X76479883Y-35145758D01*
X76569027Y-35169644D01*
X76569029Y-35169644D01*
X76631765Y-35169644D01*
X76698804Y-35189329D01*
X76744559Y-35242133D01*
X76755765Y-35293643D01*
X76755765Y-35479038D01*
X76755766Y-35479046D01*
X76761595Y-35508356D01*
X76783807Y-35541601D01*
X76800484Y-35552743D01*
X76817052Y-35563813D01*
X76817055Y-35563813D01*
X76817056Y-35563814D01*
X76826912Y-35565774D01*
X76846366Y-35569644D01*
X77966163Y-35569643D01*
X77995478Y-35563813D01*
X78028722Y-35541601D01*
X78028722Y-35541599D01*
X78030309Y-35540540D01*
X78096987Y-35519664D01*
X78099198Y-35519644D01*
X79227975Y-35519644D01*
X79295014Y-35539329D01*
X79335360Y-35581641D01*
X79365796Y-35634356D01*
X79431053Y-35699613D01*
X79431056Y-35699614D01*
X79431059Y-35699617D01*
X79510971Y-35745755D01*
X79510972Y-35745755D01*
X79510977Y-35745758D01*
X79600121Y-35769644D01*
X79600123Y-35769644D01*
X79697208Y-35769644D01*
X79726648Y-35778288D01*
X79756635Y-35784812D01*
X79761650Y-35788566D01*
X79764247Y-35789329D01*
X79784889Y-35805963D01*
X79835446Y-35856520D01*
X79868931Y-35917843D01*
X79871765Y-35944201D01*
X79871765Y-36776087D01*
X79852080Y-36843126D01*
X79835446Y-36863768D01*
X77568445Y-39130768D01*
X77507122Y-39164253D01*
X77437430Y-39159269D01*
X77381497Y-39117397D01*
X77357080Y-39051933D01*
X77356764Y-39043113D01*
X77356764Y-36829246D01*
X77350934Y-36799931D01*
X77341120Y-36785242D01*
X77325946Y-36762532D01*
X77305069Y-36695854D01*
X77323555Y-36628474D01*
X77375534Y-36581785D01*
X77429046Y-36569643D01*
X77966163Y-36569643D01*
X77995478Y-36563813D01*
X78028722Y-36541601D01*
X78050934Y-36508357D01*
X78056765Y-36479043D01*
X78056764Y-36159246D01*
X78050934Y-36129931D01*
X78040510Y-36114329D01*
X78028722Y-36096686D01*
X77995479Y-36074476D01*
X77995480Y-36074476D01*
X77995478Y-36074475D01*
X77995476Y-36074474D01*
X77995473Y-36074473D01*
X77966166Y-36068644D01*
X76846370Y-36068644D01*
X76846362Y-36068645D01*
X76817052Y-36074474D01*
X76783807Y-36096686D01*
X76761597Y-36129929D01*
X76761594Y-36129935D01*
X76755765Y-36159242D01*
X76755765Y-36479038D01*
X76755766Y-36479046D01*
X76761595Y-36508355D01*
X76786584Y-36545757D01*
X76807459Y-36612435D01*
X76788972Y-36679815D01*
X76736991Y-36726503D01*
X76683479Y-36738644D01*
X74584140Y-36738644D01*
X74517101Y-36718959D01*
X74471346Y-36666155D01*
X74461402Y-36596997D01*
X74490427Y-36533441D01*
X74496459Y-36526963D01*
X74501495Y-36521926D01*
X74501497Y-36521926D01*
X76093922Y-34929501D01*
X76115864Y-34917519D01*
X76135516Y-34902065D01*
X76146000Y-34901063D01*
X76155245Y-34896016D01*
X76180183Y-34897799D01*
X76205069Y-34895423D01*
X76214429Y-34900248D01*
G37*
%TD.AperFunction*%
%TA.AperFunction,Conductor*%
G36*
X104388804Y-16939329D02*
G01*
X104434559Y-16992133D01*
X104445765Y-17043644D01*
X104445765Y-46994644D01*
X104426080Y-47061683D01*
X104373276Y-47107438D01*
X104321765Y-47118644D01*
X68695020Y-47118644D01*
X68627981Y-47098959D01*
X68582226Y-47046155D01*
X68572282Y-46976997D01*
X68601307Y-46913441D01*
X68607339Y-46906963D01*
X68626745Y-46887557D01*
X68679472Y-46796231D01*
X68706765Y-46694371D01*
X68706765Y-45938917D01*
X68679472Y-45837057D01*
X68626745Y-45745731D01*
X68552178Y-45671164D01*
X68460852Y-45618437D01*
X68358992Y-45591144D01*
X68038992Y-45591144D01*
X67933538Y-45591144D01*
X67831678Y-45618437D01*
X67831675Y-45618438D01*
X67740350Y-45671165D01*
X67665786Y-45745729D01*
X67613059Y-45837054D01*
X67613058Y-45837057D01*
X67585765Y-45938917D01*
X67585765Y-46694370D01*
X67613058Y-46796230D01*
X67613059Y-46796233D01*
X67665786Y-46887558D01*
X67685191Y-46906963D01*
X67718676Y-46968286D01*
X67713692Y-47037978D01*
X67671820Y-47093911D01*
X67606356Y-47118328D01*
X67597510Y-47118644D01*
X64395020Y-47118644D01*
X64327981Y-47098959D01*
X64282226Y-47046155D01*
X64272282Y-46976997D01*
X64301307Y-46913441D01*
X64307339Y-46906963D01*
X64326745Y-46887557D01*
X64379472Y-46796231D01*
X64406765Y-46694371D01*
X64406765Y-45938917D01*
X64379472Y-45837057D01*
X64326745Y-45745731D01*
X64252178Y-45671164D01*
X64160852Y-45618437D01*
X64058992Y-45591144D01*
X63738992Y-45591144D01*
X63633538Y-45591144D01*
X63531678Y-45618437D01*
X63531675Y-45618438D01*
X63440350Y-45671165D01*
X63365786Y-45745729D01*
X63313059Y-45837054D01*
X63313058Y-45837057D01*
X63285765Y-45938917D01*
X63285765Y-46694370D01*
X63313058Y-46796230D01*
X63313059Y-46796233D01*
X63365786Y-46887558D01*
X63385191Y-46906963D01*
X63418676Y-46968286D01*
X63413692Y-47037978D01*
X63371820Y-47093911D01*
X63306356Y-47118328D01*
X63297510Y-47118644D01*
X19546765Y-47118644D01*
X19479726Y-47098959D01*
X19433971Y-47046155D01*
X19422765Y-46994644D01*
X19422765Y-43497117D01*
X21095765Y-43497117D01*
X21095765Y-43741171D01*
X21133944Y-43982220D01*
X21209361Y-44214329D01*
X21313603Y-44418917D01*
X21320161Y-44431786D01*
X21463604Y-44629220D01*
X21463608Y-44629225D01*
X21636183Y-44801800D01*
X21636188Y-44801804D01*
X21733004Y-44872144D01*
X21833626Y-44945250D01*
X22051080Y-45056048D01*
X22283189Y-45131465D01*
X22524238Y-45169644D01*
X22524239Y-45169644D01*
X22768291Y-45169644D01*
X22768292Y-45169644D01*
X23009341Y-45131465D01*
X23241450Y-45056048D01*
X23458904Y-44945250D01*
X23656348Y-44801799D01*
X23828920Y-44629227D01*
X23972371Y-44431783D01*
X24083169Y-44214329D01*
X24158586Y-43982220D01*
X24192370Y-43768917D01*
X63285765Y-43768917D01*
X63285765Y-44524370D01*
X63313058Y-44626230D01*
X63313059Y-44626233D01*
X63314788Y-44629227D01*
X63365785Y-44717557D01*
X63440352Y-44792124D01*
X63531678Y-44844851D01*
X63633538Y-44872144D01*
X63633540Y-44872144D01*
X64058990Y-44872144D01*
X64058992Y-44872144D01*
X64160852Y-44844851D01*
X64252178Y-44792124D01*
X64326745Y-44717557D01*
X64379472Y-44626231D01*
X64406765Y-44524371D01*
X64406765Y-43768917D01*
X67585765Y-43768917D01*
X67585765Y-44524370D01*
X67613058Y-44626230D01*
X67613059Y-44626233D01*
X67614788Y-44629227D01*
X67665785Y-44717557D01*
X67740352Y-44792124D01*
X67831678Y-44844851D01*
X67933538Y-44872144D01*
X67933540Y-44872144D01*
X68358990Y-44872144D01*
X68358992Y-44872144D01*
X68460852Y-44844851D01*
X68552178Y-44792124D01*
X68626745Y-44717557D01*
X68679472Y-44626231D01*
X68706765Y-44524371D01*
X68706765Y-43768917D01*
X68679472Y-43667057D01*
X68626745Y-43575731D01*
X68552178Y-43501164D01*
X68460852Y-43448437D01*
X68358992Y-43421144D01*
X68038992Y-43421144D01*
X67933538Y-43421144D01*
X67831678Y-43448437D01*
X67831675Y-43448438D01*
X67740350Y-43501165D01*
X67665786Y-43575729D01*
X67613059Y-43667054D01*
X67613058Y-43667057D01*
X67585765Y-43768917D01*
X64406765Y-43768917D01*
X64379472Y-43667057D01*
X64326745Y-43575731D01*
X64252178Y-43501164D01*
X64160852Y-43448437D01*
X64058992Y-43421144D01*
X63738992Y-43421144D01*
X63633538Y-43421144D01*
X63531678Y-43448437D01*
X63531675Y-43448438D01*
X63440350Y-43501165D01*
X63365786Y-43575729D01*
X63313059Y-43667054D01*
X63313058Y-43667057D01*
X63285765Y-43768917D01*
X24192370Y-43768917D01*
X24196765Y-43741171D01*
X24196765Y-43497117D01*
X24173007Y-43347117D01*
X99695765Y-43347117D01*
X99695765Y-43591170D01*
X99733943Y-43832216D01*
X99809362Y-44064331D01*
X99920161Y-44281786D01*
X100063604Y-44479220D01*
X100063608Y-44479225D01*
X100236183Y-44651800D01*
X100236188Y-44651804D01*
X100408401Y-44776923D01*
X100433626Y-44795250D01*
X100651080Y-44906048D01*
X100883189Y-44981465D01*
X101124238Y-45019644D01*
X101124239Y-45019644D01*
X101368291Y-45019644D01*
X101368292Y-45019644D01*
X101609341Y-44981465D01*
X101841450Y-44906048D01*
X102058904Y-44795250D01*
X102256348Y-44651799D01*
X102428920Y-44479227D01*
X102572371Y-44281783D01*
X102683169Y-44064329D01*
X102758586Y-43832220D01*
X102796765Y-43591171D01*
X102796765Y-43347117D01*
X102758586Y-43106068D01*
X102683169Y-42873959D01*
X102572371Y-42656505D01*
X102537901Y-42609061D01*
X102428925Y-42459067D01*
X102428921Y-42459062D01*
X102256346Y-42286487D01*
X102256341Y-42286483D01*
X102058907Y-42143040D01*
X102058906Y-42143039D01*
X102058904Y-42143038D01*
X101841450Y-42032240D01*
X101609341Y-41956823D01*
X101609339Y-41956822D01*
X101609337Y-41956822D01*
X101441034Y-41930165D01*
X101368292Y-41918644D01*
X101124238Y-41918644D01*
X101068358Y-41927494D01*
X100883192Y-41956822D01*
X100651077Y-42032241D01*
X100433622Y-42143040D01*
X100236188Y-42286483D01*
X100236183Y-42286487D01*
X100063608Y-42459062D01*
X100063604Y-42459067D01*
X99920161Y-42656501D01*
X99809362Y-42873956D01*
X99733943Y-43106071D01*
X99695765Y-43347117D01*
X24173007Y-43347117D01*
X24158586Y-43256068D01*
X24083169Y-43023959D01*
X23972371Y-42806505D01*
X23863390Y-42656505D01*
X23828925Y-42609067D01*
X23828921Y-42609062D01*
X23656346Y-42436487D01*
X23656341Y-42436483D01*
X23458907Y-42293040D01*
X23458906Y-42293039D01*
X23458904Y-42293038D01*
X23241450Y-42182240D01*
X23009341Y-42106823D01*
X23009339Y-42106822D01*
X23009337Y-42106822D01*
X22841034Y-42080165D01*
X22768292Y-42068644D01*
X22524238Y-42068644D01*
X22468358Y-42077494D01*
X22283192Y-42106822D01*
X22051077Y-42182241D01*
X21833622Y-42293040D01*
X21636188Y-42436483D01*
X21636183Y-42436487D01*
X21463608Y-42609062D01*
X21463604Y-42609067D01*
X21320161Y-42806501D01*
X21209362Y-43023956D01*
X21133943Y-43256071D01*
X21119523Y-43347117D01*
X21095765Y-43497117D01*
X19422765Y-43497117D01*
X19422765Y-39023000D01*
X32895765Y-39023000D01*
X32895765Y-39540287D01*
X32909258Y-39590644D01*
X32919651Y-39629433D01*
X32919652Y-39629434D01*
X32965792Y-39709352D01*
X32965794Y-39709355D01*
X32965795Y-39709356D01*
X36356053Y-43099614D01*
X36356054Y-43099615D01*
X36356056Y-43099616D01*
X36367237Y-43106071D01*
X36435977Y-43145758D01*
X36525121Y-43169644D01*
X36525123Y-43169644D01*
X76642407Y-43169644D01*
X76642409Y-43169644D01*
X76731553Y-43145758D01*
X76811477Y-43099614D01*
X82976735Y-36934356D01*
X83022879Y-36854432D01*
X83027101Y-36838675D01*
X83029628Y-36829246D01*
X83036696Y-36802865D01*
X83046765Y-36765288D01*
X83046765Y-31823000D01*
X83022879Y-31733856D01*
X83022875Y-31733849D01*
X83013458Y-31717537D01*
X83013458Y-31717538D01*
X82976735Y-31653932D01*
X82352128Y-31029325D01*
X82318643Y-30968002D01*
X82323627Y-30898310D01*
X82365499Y-30842377D01*
X82430963Y-30817960D01*
X82439809Y-30817644D01*
X82819432Y-30817644D01*
X82848872Y-30826288D01*
X82878859Y-30832812D01*
X82883874Y-30836566D01*
X82886471Y-30837329D01*
X82907113Y-30853963D01*
X82983638Y-30930488D01*
X83015731Y-30986073D01*
X83020649Y-31004427D01*
X83020650Y-31004429D01*
X83020651Y-31004432D01*
X83026662Y-31014843D01*
X83066793Y-31084352D01*
X83066795Y-31084354D01*
X83066796Y-31084356D01*
X83132053Y-31149613D01*
X83132056Y-31149614D01*
X83132059Y-31149617D01*
X83211971Y-31195755D01*
X83211972Y-31195755D01*
X83211977Y-31195758D01*
X83301121Y-31219644D01*
X83301123Y-31219644D01*
X83393407Y-31219644D01*
X83393409Y-31219644D01*
X83482553Y-31195758D01*
X83562477Y-31149613D01*
X83627734Y-31084356D01*
X83673879Y-31004432D01*
X83697765Y-30915288D01*
X83697765Y-30823000D01*
X83673879Y-30733856D01*
X83673878Y-30733855D01*
X83673878Y-30733853D01*
X83661859Y-30713037D01*
X83645385Y-30645137D01*
X83668236Y-30579110D01*
X83723157Y-30535918D01*
X83792710Y-30529275D01*
X83854813Y-30561291D01*
X83856926Y-30563354D01*
X84159446Y-30865874D01*
X84192931Y-30927197D01*
X84195765Y-30953555D01*
X84195765Y-35422601D01*
X84176080Y-35489640D01*
X84159446Y-35510282D01*
X84115798Y-35553929D01*
X84115791Y-35553938D01*
X84069653Y-35633850D01*
X84069652Y-35633853D01*
X84069651Y-35633855D01*
X84069651Y-35633856D01*
X84045765Y-35723000D01*
X84045765Y-35815288D01*
X84061305Y-35873286D01*
X84069652Y-35904434D01*
X84069653Y-35904437D01*
X84115791Y-35984349D01*
X84115794Y-35984353D01*
X84115796Y-35984356D01*
X84181053Y-36049613D01*
X84181056Y-36049614D01*
X84181059Y-36049617D01*
X84260971Y-36095755D01*
X84260972Y-36095755D01*
X84260977Y-36095758D01*
X84350121Y-36119644D01*
X84350123Y-36119644D01*
X84442407Y-36119644D01*
X84442409Y-36119644D01*
X84531553Y-36095758D01*
X84611477Y-36049613D01*
X84676734Y-35984356D01*
X84722879Y-35904432D01*
X84746765Y-35815288D01*
X84746765Y-35723000D01*
X84722879Y-35633856D01*
X84706503Y-35605492D01*
X84676738Y-35553938D01*
X84676735Y-35553935D01*
X84676734Y-35553932D01*
X84633084Y-35510282D01*
X84599599Y-35448959D01*
X84596765Y-35422601D01*
X84596765Y-30779263D01*
X84596764Y-30779260D01*
X84566241Y-30705570D01*
X84509839Y-30649168D01*
X84502774Y-30642103D01*
X84502767Y-30642097D01*
X83009839Y-29149168D01*
X82936148Y-29118644D01*
X82936147Y-29118644D01*
X78179829Y-29118644D01*
X78112790Y-29098959D01*
X78067035Y-29046155D01*
X78056865Y-28985135D01*
X78056765Y-28985135D01*
X78056764Y-28984536D01*
X78056425Y-28982497D01*
X78056763Y-28979052D01*
X78056765Y-28979043D01*
X78056764Y-28659246D01*
X78056762Y-28659240D01*
X78056424Y-28655801D01*
X78056764Y-28654007D01*
X78056764Y-28653155D01*
X78056926Y-28653155D01*
X78069441Y-28587155D01*
X78117505Y-28536443D01*
X78179827Y-28519644D01*
X79227975Y-28519644D01*
X79295014Y-28539329D01*
X79335360Y-28581641D01*
X79365796Y-28634356D01*
X79431053Y-28699613D01*
X79431056Y-28699614D01*
X79431059Y-28699617D01*
X79510971Y-28745755D01*
X79510972Y-28745755D01*
X79510977Y-28745758D01*
X79600121Y-28769644D01*
X79600123Y-28769644D01*
X79692407Y-28769644D01*
X79692409Y-28769644D01*
X79781553Y-28745758D01*
X79861477Y-28699613D01*
X79926734Y-28634356D01*
X79972879Y-28554432D01*
X79996765Y-28465288D01*
X79996765Y-28373000D01*
X79972879Y-28283856D01*
X79944296Y-28234349D01*
X79926738Y-28203938D01*
X79926735Y-28203935D01*
X79926734Y-28203932D01*
X79861477Y-28138675D01*
X79861474Y-28138673D01*
X79861470Y-28138670D01*
X79781558Y-28092532D01*
X79781555Y-28092531D01*
X79781554Y-28092530D01*
X79781553Y-28092530D01*
X79692409Y-28068644D01*
X79600121Y-28068644D01*
X79510975Y-28092530D01*
X79494521Y-28102031D01*
X79432520Y-28118644D01*
X78179829Y-28118644D01*
X78112790Y-28098959D01*
X78067035Y-28046155D01*
X78056865Y-27985135D01*
X78056765Y-27985135D01*
X78056764Y-27984536D01*
X78056425Y-27982497D01*
X78056763Y-27979052D01*
X78056765Y-27979043D01*
X78056764Y-27659246D01*
X78050934Y-27629931D01*
X78046261Y-27618648D01*
X78049816Y-27617175D01*
X78035470Y-27571352D01*
X78049312Y-27520900D01*
X78046261Y-27519637D01*
X78050931Y-27508361D01*
X78050934Y-27508357D01*
X78056765Y-27479043D01*
X78056764Y-27159246D01*
X78050934Y-27129931D01*
X78046261Y-27118648D01*
X78049816Y-27117175D01*
X78035470Y-27071352D01*
X78049312Y-27020900D01*
X78046261Y-27019637D01*
X78050931Y-27008361D01*
X78050934Y-27008357D01*
X78056765Y-26979043D01*
X78056764Y-26659246D01*
X78050934Y-26629931D01*
X78046261Y-26618648D01*
X78049816Y-26617175D01*
X78035470Y-26571352D01*
X78049312Y-26520900D01*
X78046261Y-26519637D01*
X78050931Y-26508361D01*
X78050934Y-26508357D01*
X78056765Y-26479043D01*
X78056764Y-26159246D01*
X78050934Y-26129931D01*
X78046261Y-26118648D01*
X78049816Y-26117175D01*
X78035470Y-26071352D01*
X78049312Y-26020900D01*
X78046261Y-26019637D01*
X78050931Y-26008361D01*
X78050934Y-26008357D01*
X78056765Y-25979043D01*
X78056764Y-25659246D01*
X78053499Y-25642828D01*
X78055377Y-25621846D01*
X78052380Y-25600997D01*
X78058431Y-25587745D01*
X78059731Y-25573236D01*
X78072654Y-25556601D01*
X78081405Y-25537441D01*
X78093659Y-25529565D01*
X78102597Y-25518062D01*
X78122462Y-25511055D01*
X78140183Y-25499667D01*
X78164774Y-25496131D01*
X78168489Y-25494821D01*
X78175118Y-25494644D01*
X78274722Y-25494644D01*
X78341761Y-25514329D01*
X78362403Y-25530963D01*
X78365796Y-25534356D01*
X78431053Y-25599613D01*
X78431056Y-25599614D01*
X78431059Y-25599617D01*
X78510971Y-25645755D01*
X78510972Y-25645755D01*
X78510977Y-25645758D01*
X78600121Y-25669644D01*
X78600123Y-25669644D01*
X78692407Y-25669644D01*
X78692409Y-25669644D01*
X78781553Y-25645758D01*
X78861477Y-25599613D01*
X78926734Y-25534356D01*
X78972879Y-25454432D01*
X78996765Y-25365288D01*
X78996765Y-25273000D01*
X78972879Y-25183856D01*
X78958668Y-25159242D01*
X78926738Y-25103938D01*
X78926735Y-25103935D01*
X78926734Y-25103932D01*
X78861477Y-25038675D01*
X78861474Y-25038673D01*
X78861470Y-25038670D01*
X78781558Y-24992532D01*
X78781555Y-24992531D01*
X78781554Y-24992530D01*
X78781553Y-24992530D01*
X78692409Y-24968644D01*
X78600121Y-24968644D01*
X78510977Y-24992530D01*
X78510976Y-24992530D01*
X78510974Y-24992531D01*
X78510971Y-24992532D01*
X78431059Y-25038670D01*
X78431050Y-25038677D01*
X78362403Y-25107325D01*
X78335475Y-25122028D01*
X78309657Y-25138621D01*
X78303456Y-25139512D01*
X78301080Y-25140810D01*
X78274722Y-25143644D01*
X78126378Y-25143644D01*
X78059339Y-25123959D01*
X78038848Y-25103833D01*
X78037359Y-25105323D01*
X78028724Y-25096688D01*
X77995479Y-25074476D01*
X77995480Y-25074476D01*
X77995478Y-25074475D01*
X77995476Y-25074474D01*
X77995473Y-25074473D01*
X77966166Y-25068644D01*
X77429049Y-25068644D01*
X77362010Y-25048959D01*
X77316255Y-24996155D01*
X77306311Y-24926997D01*
X77325946Y-24875755D01*
X77328720Y-24871601D01*
X77328722Y-24871601D01*
X77350934Y-24838357D01*
X77356765Y-24809043D01*
X77356764Y-22489246D01*
X77350934Y-22459931D01*
X77333766Y-22434236D01*
X77328722Y-22426686D01*
X77295479Y-22404476D01*
X77295480Y-22404476D01*
X77295478Y-22404475D01*
X77295476Y-22404474D01*
X77295473Y-22404473D01*
X77266166Y-22398644D01*
X74146370Y-22398644D01*
X74146362Y-22398645D01*
X74117052Y-22404474D01*
X74083807Y-22426686D01*
X74061597Y-22459929D01*
X74061594Y-22459935D01*
X74055765Y-22489242D01*
X74055765Y-24595732D01*
X74049526Y-24616977D01*
X74047947Y-24639066D01*
X74039874Y-24649849D01*
X74036080Y-24662771D01*
X74019346Y-24677270D01*
X74006075Y-24694999D01*
X73993454Y-24699706D01*
X73983276Y-24708526D01*
X73961358Y-24711677D01*
X73940611Y-24719416D01*
X73927450Y-24716553D01*
X73914118Y-24718470D01*
X73893974Y-24709270D01*
X73872338Y-24704564D01*
X73854612Y-24691295D01*
X73850562Y-24689445D01*
X73844084Y-24683413D01*
X73751734Y-24591063D01*
X73718249Y-24529740D01*
X73715415Y-24503382D01*
X73715415Y-24441652D01*
X73715415Y-24441650D01*
X73691529Y-24352506D01*
X73691526Y-24352500D01*
X73645388Y-24272588D01*
X73645385Y-24272585D01*
X73645384Y-24272582D01*
X73580127Y-24207325D01*
X73580124Y-24207323D01*
X73580120Y-24207320D01*
X73500208Y-24161182D01*
X73500205Y-24161181D01*
X73500204Y-24161180D01*
X73500203Y-24161180D01*
X73411059Y-24137294D01*
X73318771Y-24137294D01*
X73229627Y-24161180D01*
X73229626Y-24161180D01*
X73229624Y-24161181D01*
X73229621Y-24161182D01*
X73149709Y-24207320D01*
X73149700Y-24207327D01*
X73084448Y-24272579D01*
X73084441Y-24272588D01*
X73038301Y-24352502D01*
X73037473Y-24354504D01*
X73036321Y-24355932D01*
X73034236Y-24359545D01*
X73033672Y-24359219D01*
X72993631Y-24408908D01*
X72927337Y-24430972D01*
X72859638Y-24413692D01*
X72835231Y-24394732D01*
X72771479Y-24330980D01*
X72771477Y-24330978D01*
X72771474Y-24330976D01*
X72771470Y-24330973D01*
X72691558Y-24284835D01*
X72691555Y-24284834D01*
X72691554Y-24284833D01*
X72691553Y-24284833D01*
X72602409Y-24260947D01*
X72510121Y-24260947D01*
X72420977Y-24284833D01*
X72420976Y-24284833D01*
X72420974Y-24284834D01*
X72420971Y-24284835D01*
X72341059Y-24330973D01*
X72341050Y-24330980D01*
X72275798Y-24396232D01*
X72275791Y-24396241D01*
X72229653Y-24476153D01*
X72229652Y-24476156D01*
X72229651Y-24476158D01*
X72229651Y-24476159D01*
X72205765Y-24565303D01*
X72205765Y-24657591D01*
X72222077Y-24718470D01*
X72229652Y-24746737D01*
X72229653Y-24746740D01*
X72275791Y-24826652D01*
X72275794Y-24826656D01*
X72275796Y-24826659D01*
X72341053Y-24891916D01*
X72341056Y-24891917D01*
X72341059Y-24891920D01*
X72362089Y-24904062D01*
X72410304Y-24954629D01*
X72423526Y-25023236D01*
X72397558Y-25088101D01*
X72362092Y-25118833D01*
X72341056Y-25130978D01*
X72341050Y-25130983D01*
X72275798Y-25196235D01*
X72275791Y-25196244D01*
X72229653Y-25276156D01*
X72229652Y-25276159D01*
X72229651Y-25276161D01*
X72229651Y-25276162D01*
X72205765Y-25365306D01*
X72205765Y-25457594D01*
X72226333Y-25534356D01*
X72229652Y-25546740D01*
X72229652Y-25546741D01*
X72254010Y-25588930D01*
X72260574Y-25615989D01*
X72270307Y-25642079D01*
X72268698Y-25649474D01*
X72270483Y-25656830D01*
X72261376Y-25683141D01*
X72255458Y-25710352D01*
X72248948Y-25719048D01*
X72247630Y-25722857D01*
X72234308Y-25738607D01*
X72222695Y-25750221D01*
X72222691Y-25750225D01*
X72166290Y-25806625D01*
X72166289Y-25806626D01*
X72135765Y-25880317D01*
X72135765Y-26283675D01*
X72116080Y-26350714D01*
X72099446Y-26371356D01*
X71376290Y-27094511D01*
X71376289Y-27094512D01*
X71345765Y-27168203D01*
X71345765Y-28895830D01*
X71326080Y-28962869D01*
X71297255Y-28994203D01*
X71291219Y-28998834D01*
X71225958Y-29064096D01*
X71225954Y-29064101D01*
X71179816Y-29144013D01*
X71179815Y-29144016D01*
X71179814Y-29144018D01*
X71179814Y-29144019D01*
X71155928Y-29233163D01*
X71155928Y-29325451D01*
X71171427Y-29383295D01*
X71179815Y-29414597D01*
X71179816Y-29414600D01*
X71225954Y-29494512D01*
X71225957Y-29494516D01*
X71225959Y-29494519D01*
X71291216Y-29559776D01*
X71291219Y-29559777D01*
X71291222Y-29559780D01*
X71371134Y-29605918D01*
X71371135Y-29605918D01*
X71371140Y-29605921D01*
X71460284Y-29629807D01*
X71460286Y-29629807D01*
X71552570Y-29629807D01*
X71552572Y-29629807D01*
X71641716Y-29605921D01*
X71721640Y-29559776D01*
X71786897Y-29494519D01*
X71833042Y-29414595D01*
X71856928Y-29325451D01*
X71856928Y-29233163D01*
X71833042Y-29144019D01*
X71833039Y-29144013D01*
X71786901Y-29064101D01*
X71786898Y-29064098D01*
X71786897Y-29064095D01*
X71783084Y-29060282D01*
X71749599Y-28998959D01*
X71746765Y-28972601D01*
X71746765Y-27342499D01*
X71766450Y-27275460D01*
X71783084Y-27254818D01*
X72332084Y-26705818D01*
X72393407Y-26672333D01*
X72463099Y-26677317D01*
X72519032Y-26719189D01*
X72543449Y-26784653D01*
X72543765Y-26793499D01*
X72543765Y-28230145D01*
X72524080Y-28297184D01*
X72507446Y-28317826D01*
X72175290Y-28649981D01*
X72175289Y-28649982D01*
X72144765Y-28723673D01*
X72144765Y-29301326D01*
X72170223Y-29362787D01*
X72175289Y-29375017D01*
X72459524Y-29659252D01*
X72461627Y-29661354D01*
X72495112Y-29722677D01*
X72490128Y-29792368D01*
X72448257Y-29848302D01*
X72382792Y-29872719D01*
X72341855Y-29868811D01*
X72316436Y-29862000D01*
X72224148Y-29862000D01*
X72135004Y-29885886D01*
X72135003Y-29885886D01*
X72135001Y-29885887D01*
X72134998Y-29885888D01*
X72055086Y-29932026D01*
X72055077Y-29932033D01*
X71989825Y-29997285D01*
X71989818Y-29997294D01*
X71943680Y-30077206D01*
X71943678Y-30077210D01*
X71943678Y-30077212D01*
X71929552Y-30129931D01*
X71928037Y-30135586D01*
X71895943Y-30191172D01*
X71604791Y-30482325D01*
X71543468Y-30515810D01*
X71517110Y-30518644D01*
X69532433Y-30518644D01*
X69470433Y-30502031D01*
X69459291Y-30495598D01*
X69459288Y-30495597D01*
X69370144Y-30471711D01*
X69277856Y-30471711D01*
X69188712Y-30495597D01*
X69188711Y-30495597D01*
X69188709Y-30495598D01*
X69188706Y-30495599D01*
X69108794Y-30541737D01*
X69108785Y-30541744D01*
X69043533Y-30606996D01*
X69043526Y-30607005D01*
X68997388Y-30686917D01*
X68997387Y-30686920D01*
X68997386Y-30686922D01*
X68997386Y-30686923D01*
X68973500Y-30776067D01*
X68973500Y-30868355D01*
X68996765Y-30955183D01*
X68997387Y-30957501D01*
X68997388Y-30957504D01*
X69043526Y-31037416D01*
X69043529Y-31037420D01*
X69043531Y-31037423D01*
X69108788Y-31102680D01*
X69108791Y-31102681D01*
X69108794Y-31102684D01*
X69188706Y-31148822D01*
X69188707Y-31148822D01*
X69188712Y-31148825D01*
X69277856Y-31172711D01*
X69277858Y-31172711D01*
X69370142Y-31172711D01*
X69370144Y-31172711D01*
X69459288Y-31148825D01*
X69481056Y-31136257D01*
X69543057Y-31119644D01*
X71664730Y-31119644D01*
X71731769Y-31139329D01*
X71777524Y-31192133D01*
X71787468Y-31261291D01*
X71758443Y-31324847D01*
X71752411Y-31331325D01*
X69479025Y-33604710D01*
X69479024Y-33604711D01*
X69448500Y-33678402D01*
X69448500Y-35303420D01*
X69431887Y-35365420D01*
X69423420Y-35380084D01*
X69423420Y-35380085D01*
X69423419Y-35380087D01*
X69423419Y-35380088D01*
X69399533Y-35469232D01*
X69399533Y-35561520D01*
X69423419Y-35650664D01*
X69443673Y-35685745D01*
X69450905Y-35698270D01*
X69467378Y-35766170D01*
X69444526Y-35832197D01*
X69405526Y-35867654D01*
X69400093Y-35870790D01*
X69400087Y-35870795D01*
X69334835Y-35936047D01*
X69334828Y-35936056D01*
X69288690Y-36015968D01*
X69288689Y-36015971D01*
X69288688Y-36015973D01*
X69288688Y-36015974D01*
X69264802Y-36105118D01*
X69264802Y-36197406D01*
X69272024Y-36224360D01*
X69288689Y-36286552D01*
X69288690Y-36286555D01*
X69334828Y-36366467D01*
X69334835Y-36366476D01*
X69398972Y-36430613D01*
X69432457Y-36491936D01*
X69427473Y-36561628D01*
X69385601Y-36617561D01*
X69373296Y-36625678D01*
X69350794Y-36638670D01*
X69350785Y-36638677D01*
X69285533Y-36703929D01*
X69285526Y-36703938D01*
X69239388Y-36783850D01*
X69239387Y-36783853D01*
X69239386Y-36783855D01*
X69239386Y-36783856D01*
X69215500Y-36873000D01*
X69215500Y-36965288D01*
X69232907Y-37030253D01*
X69239387Y-37054434D01*
X69239388Y-37054437D01*
X69285526Y-37134349D01*
X69285529Y-37134353D01*
X69285531Y-37134356D01*
X69350788Y-37199613D01*
X69350791Y-37199614D01*
X69350794Y-37199617D01*
X69430706Y-37245755D01*
X69430707Y-37245755D01*
X69430712Y-37245758D01*
X69446057Y-37249869D01*
X69505717Y-37286234D01*
X69536246Y-37349081D01*
X69527951Y-37418456D01*
X69483466Y-37472334D01*
X69416914Y-37493609D01*
X69413963Y-37493644D01*
X68383469Y-37493644D01*
X68316430Y-37473959D01*
X68295788Y-37457325D01*
X66805920Y-35967457D01*
X66772435Y-35906134D01*
X66777419Y-35836442D01*
X66819291Y-35780509D01*
X66884755Y-35756092D01*
X66893601Y-35755776D01*
X66970142Y-35755776D01*
X66970144Y-35755776D01*
X67059288Y-35731890D01*
X67139212Y-35685745D01*
X67204469Y-35620488D01*
X67250614Y-35540564D01*
X67274500Y-35451420D01*
X67274500Y-35359132D01*
X67250614Y-35269988D01*
X67250466Y-35269731D01*
X67204473Y-35190070D01*
X67204470Y-35190067D01*
X67204469Y-35190064D01*
X67139212Y-35124807D01*
X67139209Y-35124805D01*
X67139205Y-35124802D01*
X67059293Y-35078664D01*
X67059292Y-35078663D01*
X67026523Y-35069882D01*
X66981977Y-35057946D01*
X66968090Y-35049928D01*
X66954645Y-35047004D01*
X66926391Y-35025853D01*
X66883084Y-34982546D01*
X66849599Y-34921223D01*
X66846765Y-34894865D01*
X66846765Y-33859044D01*
X66866450Y-33792005D01*
X66883084Y-33771363D01*
X67154084Y-33500363D01*
X67426735Y-33227712D01*
X67472879Y-33147788D01*
X67496765Y-33058644D01*
X67496765Y-32966356D01*
X67472879Y-32877212D01*
X67426735Y-32797288D01*
X67361477Y-32732030D01*
X67361476Y-32732029D01*
X67361473Y-32732027D01*
X67281555Y-32685887D01*
X67281554Y-32685886D01*
X67281553Y-32685886D01*
X67192409Y-32662000D01*
X67100121Y-32662000D01*
X67010977Y-32685886D01*
X67010974Y-32685887D01*
X66931056Y-32732027D01*
X66931051Y-32732031D01*
X66215797Y-33447285D01*
X66215795Y-33447288D01*
X66191903Y-33488671D01*
X66177855Y-33513002D01*
X66169653Y-33527208D01*
X66169651Y-33527211D01*
X66165795Y-33541601D01*
X66145765Y-33616356D01*
X66145765Y-33616358D01*
X66145765Y-35007940D01*
X66126080Y-35074979D01*
X66073276Y-35120734D01*
X66004118Y-35130678D01*
X65940562Y-35101653D01*
X65934084Y-35095621D01*
X62954166Y-32115703D01*
X62939462Y-32088775D01*
X62922870Y-32062957D01*
X62921978Y-32056756D01*
X62920681Y-32054380D01*
X62917847Y-32028022D01*
X62917847Y-31859043D01*
X62937532Y-31792004D01*
X62954166Y-31771362D01*
X62987728Y-31737800D01*
X63022816Y-31702712D01*
X63068961Y-31622788D01*
X63092847Y-31533644D01*
X63092847Y-31441356D01*
X63068961Y-31352212D01*
X63068958Y-31352206D01*
X63022820Y-31272294D01*
X63022817Y-31272291D01*
X63022816Y-31272288D01*
X62957559Y-31207031D01*
X62957556Y-31207029D01*
X62957552Y-31207026D01*
X62877640Y-31160888D01*
X62877637Y-31160887D01*
X62877636Y-31160886D01*
X62877635Y-31160886D01*
X62788491Y-31137000D01*
X62696203Y-31137000D01*
X62607059Y-31160886D01*
X62607058Y-31160886D01*
X62607056Y-31160887D01*
X62607053Y-31160888D01*
X62527141Y-31207026D01*
X62527132Y-31207033D01*
X62461880Y-31272285D01*
X62461873Y-31272294D01*
X62415735Y-31352206D01*
X62415732Y-31352211D01*
X62409155Y-31376759D01*
X62372789Y-31436419D01*
X62309941Y-31466947D01*
X62257289Y-31464438D01*
X62171564Y-31441468D01*
X62079276Y-31441468D01*
X61990132Y-31465354D01*
X61990131Y-31465354D01*
X61990129Y-31465355D01*
X61990126Y-31465356D01*
X61910214Y-31511494D01*
X61910205Y-31511501D01*
X61844953Y-31576753D01*
X61844946Y-31576762D01*
X61798808Y-31656674D01*
X61798807Y-31656677D01*
X61798806Y-31656679D01*
X61798806Y-31656680D01*
X61782499Y-31717538D01*
X61774920Y-31745824D01*
X61774920Y-31805576D01*
X61755235Y-31872615D01*
X61738601Y-31893257D01*
X61532691Y-32099168D01*
X61476290Y-32155568D01*
X61476289Y-32155569D01*
X61445765Y-32229260D01*
X61445765Y-33672601D01*
X61426080Y-33739640D01*
X61409446Y-33760282D01*
X61365798Y-33803929D01*
X61365791Y-33803938D01*
X61319653Y-33883850D01*
X61319652Y-33883853D01*
X61319651Y-33883855D01*
X61319651Y-33883856D01*
X61295765Y-33973000D01*
X61295765Y-34065288D01*
X61317239Y-34145432D01*
X61319652Y-34154434D01*
X61319653Y-34154437D01*
X61365791Y-34234349D01*
X61365794Y-34234353D01*
X61365796Y-34234356D01*
X61431053Y-34299613D01*
X61431056Y-34299614D01*
X61431059Y-34299617D01*
X61510971Y-34345755D01*
X61510972Y-34345755D01*
X61510977Y-34345758D01*
X61600121Y-34369644D01*
X61600123Y-34369644D01*
X61692407Y-34369644D01*
X61692409Y-34369644D01*
X61781553Y-34345758D01*
X61861477Y-34299613D01*
X61926734Y-34234356D01*
X61972879Y-34154432D01*
X61996765Y-34065288D01*
X61996765Y-33973000D01*
X61972879Y-33883856D01*
X61972876Y-33883850D01*
X61926738Y-33803938D01*
X61926735Y-33803935D01*
X61926734Y-33803932D01*
X61883084Y-33760282D01*
X61849599Y-33698959D01*
X61846765Y-33672601D01*
X61846765Y-32403555D01*
X61855409Y-32374114D01*
X61861933Y-32344128D01*
X61865687Y-32339112D01*
X61866450Y-32336516D01*
X61883080Y-32315878D01*
X62020171Y-32178786D01*
X62081494Y-32145302D01*
X62107852Y-32142468D01*
X62171562Y-32142468D01*
X62171564Y-32142468D01*
X62260708Y-32118582D01*
X62340632Y-32072437D01*
X62355166Y-32057903D01*
X62416489Y-32024418D01*
X62486181Y-32029402D01*
X62542114Y-32071274D01*
X62566531Y-32136738D01*
X62566847Y-32145584D01*
X62566847Y-32186988D01*
X62580410Y-32219732D01*
X62593565Y-32251492D01*
X65474036Y-35131963D01*
X65507521Y-35193286D01*
X65502537Y-35262978D01*
X65460665Y-35318911D01*
X65395201Y-35343328D01*
X65386355Y-35343644D01*
X62311356Y-35343644D01*
X62246851Y-35370362D01*
X62211695Y-35405519D01*
X62197483Y-35419731D01*
X62197482Y-35419732D01*
X61959139Y-35658074D01*
X61887973Y-35729240D01*
X61826650Y-35762724D01*
X61756958Y-35757740D01*
X61718128Y-35732784D01*
X61717923Y-35733052D01*
X61714721Y-35730595D01*
X61712611Y-35729239D01*
X61711479Y-35728107D01*
X61711477Y-35728105D01*
X61711474Y-35728103D01*
X61711470Y-35728100D01*
X61631558Y-35681962D01*
X61631555Y-35681961D01*
X61631554Y-35681960D01*
X61631553Y-35681960D01*
X61542409Y-35658074D01*
X61450121Y-35658074D01*
X61360977Y-35681960D01*
X61360976Y-35681960D01*
X61360974Y-35681961D01*
X61360971Y-35681962D01*
X61281059Y-35728100D01*
X61281050Y-35728107D01*
X61215798Y-35793359D01*
X61215791Y-35793368D01*
X61169653Y-35873280D01*
X61169652Y-35873283D01*
X61169651Y-35873285D01*
X61169651Y-35873286D01*
X61145765Y-35962430D01*
X61145765Y-36054718D01*
X61165919Y-36129935D01*
X61169652Y-36143864D01*
X61169653Y-36143867D01*
X61215791Y-36223779D01*
X61215794Y-36223783D01*
X61215796Y-36223786D01*
X61281053Y-36289043D01*
X61281056Y-36289044D01*
X61281059Y-36289047D01*
X61360971Y-36335185D01*
X61360972Y-36335185D01*
X61360977Y-36335188D01*
X61450121Y-36359074D01*
X61450123Y-36359074D01*
X61542407Y-36359074D01*
X61542409Y-36359074D01*
X61555064Y-36355683D01*
X61624911Y-36357342D01*
X61682776Y-36396503D01*
X61710282Y-36460730D01*
X61706935Y-36507548D01*
X61697836Y-36541505D01*
X61697836Y-36541507D01*
X61697836Y-36633795D01*
X61718371Y-36710434D01*
X61721723Y-36722941D01*
X61721724Y-36722944D01*
X61767862Y-36802856D01*
X61767865Y-36802860D01*
X61767867Y-36802863D01*
X61833124Y-36868120D01*
X61833127Y-36868121D01*
X61833130Y-36868124D01*
X61913042Y-36914262D01*
X61913043Y-36914262D01*
X61913048Y-36914265D01*
X62002192Y-36938151D01*
X62002194Y-36938151D01*
X62094478Y-36938151D01*
X62094480Y-36938151D01*
X62142806Y-36925202D01*
X62212654Y-36926864D01*
X62270517Y-36966025D01*
X62298022Y-37030253D01*
X62295557Y-37064777D01*
X62296826Y-37064944D01*
X62295765Y-37072998D01*
X62295765Y-37073000D01*
X62295765Y-37165288D01*
X62318428Y-37249869D01*
X62319652Y-37254434D01*
X62319653Y-37254437D01*
X62365791Y-37334349D01*
X62365794Y-37334353D01*
X62365796Y-37334356D01*
X62431053Y-37399613D01*
X62431056Y-37399614D01*
X62431059Y-37399617D01*
X62510971Y-37445755D01*
X62510972Y-37445755D01*
X62510977Y-37445758D01*
X62600121Y-37469644D01*
X62600123Y-37469644D01*
X62692407Y-37469644D01*
X62692409Y-37469644D01*
X62781553Y-37445758D01*
X62861477Y-37399613D01*
X62926734Y-37334356D01*
X62972879Y-37254432D01*
X62996765Y-37165288D01*
X62996765Y-37073000D01*
X62996765Y-37068201D01*
X63005409Y-37038763D01*
X63011933Y-37008773D01*
X63015688Y-37003756D01*
X63016450Y-37001162D01*
X63033084Y-36980519D01*
X63110732Y-36902872D01*
X63172056Y-36869388D01*
X63198413Y-36866554D01*
X65668099Y-36866554D01*
X65735138Y-36886239D01*
X65755779Y-36902872D01*
X67721464Y-38868557D01*
X67770833Y-38917926D01*
X67835337Y-38944644D01*
X70817208Y-38944644D01*
X70884247Y-38964329D01*
X70904889Y-38980963D01*
X71216115Y-39292189D01*
X71249600Y-39353512D01*
X71252434Y-39379870D01*
X71252434Y-40294644D01*
X71232749Y-40361683D01*
X71179945Y-40407438D01*
X71128434Y-40418644D01*
X67566639Y-40418644D01*
X67499600Y-40398959D01*
X67459253Y-40356645D01*
X67423639Y-40294963D01*
X67423636Y-40294957D01*
X67358379Y-40229700D01*
X67358376Y-40229698D01*
X67358372Y-40229695D01*
X67278460Y-40183557D01*
X67278457Y-40183556D01*
X67278456Y-40183555D01*
X67278455Y-40183555D01*
X67189311Y-40159669D01*
X67097023Y-40159669D01*
X67007879Y-40183555D01*
X67007878Y-40183555D01*
X67007876Y-40183556D01*
X67007873Y-40183557D01*
X66927961Y-40229695D01*
X66927952Y-40229702D01*
X66862700Y-40294954D01*
X66862693Y-40294963D01*
X66816555Y-40374875D01*
X66816554Y-40374878D01*
X66816553Y-40374880D01*
X66816553Y-40374881D01*
X66804827Y-40418644D01*
X66792667Y-40464025D01*
X66792667Y-40556312D01*
X66816554Y-40645459D01*
X66816555Y-40645462D01*
X66866761Y-40732419D01*
X66863721Y-40734173D01*
X66883114Y-40784286D01*
X66869098Y-40852735D01*
X66820301Y-40902741D01*
X66759547Y-40918644D01*
X37592808Y-40918644D01*
X37525769Y-40898959D01*
X37505127Y-40882325D01*
X35183084Y-38560281D01*
X35149599Y-38498958D01*
X35146765Y-38472600D01*
X35146765Y-33973002D01*
X35146765Y-33973000D01*
X35122879Y-33883856D01*
X35122876Y-33883850D01*
X35076738Y-33803938D01*
X35076735Y-33803935D01*
X35076734Y-33803932D01*
X35011477Y-33738675D01*
X35011474Y-33738673D01*
X35011470Y-33738670D01*
X34931558Y-33692532D01*
X34931555Y-33692531D01*
X34931554Y-33692530D01*
X34931553Y-33692530D01*
X34842409Y-33668644D01*
X34750121Y-33668644D01*
X34660977Y-33692530D01*
X34660976Y-33692530D01*
X34660974Y-33692531D01*
X34660971Y-33692532D01*
X34581059Y-33738670D01*
X34581050Y-33738677D01*
X34515798Y-33803929D01*
X34515791Y-33803938D01*
X34469653Y-33883850D01*
X34469652Y-33883853D01*
X34469651Y-33883855D01*
X34469651Y-33883856D01*
X34445765Y-33973000D01*
X34445765Y-38715288D01*
X34453065Y-38742530D01*
X34459307Y-38765826D01*
X34459307Y-38765827D01*
X34469650Y-38804430D01*
X34515792Y-38884352D01*
X34515794Y-38884355D01*
X34515795Y-38884356D01*
X37115796Y-41484356D01*
X37181053Y-41549613D01*
X37181056Y-41549614D01*
X37181059Y-41549617D01*
X37260971Y-41595755D01*
X37260972Y-41595755D01*
X37260977Y-41595758D01*
X37350121Y-41619644D01*
X37350123Y-41619644D01*
X75642407Y-41619644D01*
X75642409Y-41619644D01*
X75731553Y-41595758D01*
X75811477Y-41549613D01*
X75876734Y-41484356D01*
X75922879Y-41404432D01*
X75946765Y-41315288D01*
X75946765Y-41223000D01*
X75922879Y-41133856D01*
X75922876Y-41133850D01*
X75876738Y-41053938D01*
X75876735Y-41053935D01*
X75876734Y-41053932D01*
X75811477Y-40988675D01*
X75811474Y-40988673D01*
X75811470Y-40988670D01*
X75731558Y-40942532D01*
X75731555Y-40942531D01*
X75731554Y-40942530D01*
X75731553Y-40942530D01*
X75642409Y-40918644D01*
X75642408Y-40918644D01*
X75129677Y-40918644D01*
X75062638Y-40898959D01*
X75016883Y-40846155D01*
X75006939Y-40776997D01*
X75035964Y-40713441D01*
X75041996Y-40706963D01*
X75242995Y-40505963D01*
X75304318Y-40472478D01*
X75330676Y-40469644D01*
X75392407Y-40469644D01*
X75392409Y-40469644D01*
X75481553Y-40445758D01*
X75561477Y-40399613D01*
X75626734Y-40334356D01*
X75672879Y-40254432D01*
X75696765Y-40165288D01*
X75696765Y-40073000D01*
X75672879Y-39983856D01*
X75672876Y-39983850D01*
X75626738Y-39903938D01*
X75626735Y-39903935D01*
X75626734Y-39903932D01*
X75561477Y-39838675D01*
X75532648Y-39822030D01*
X75484434Y-39771462D01*
X75471212Y-39702855D01*
X75497181Y-39637991D01*
X75554095Y-39597463D01*
X75594650Y-39590644D01*
X77567172Y-39590644D01*
X77567174Y-39590644D01*
X77631678Y-39563926D01*
X80196047Y-36999557D01*
X80222765Y-36935053D01*
X80222765Y-36865235D01*
X80222765Y-35869495D01*
X80222766Y-35869486D01*
X80222766Y-35785236D01*
X80222766Y-35785235D01*
X80196047Y-35720731D01*
X80196045Y-35720729D01*
X80196045Y-35720728D01*
X80033084Y-35557767D01*
X79999599Y-35496444D01*
X79996765Y-35470086D01*
X79996765Y-35373002D01*
X79996765Y-35373000D01*
X79972879Y-35283856D01*
X79972876Y-35283850D01*
X79926738Y-35203938D01*
X79926735Y-35203935D01*
X79926734Y-35203932D01*
X79861477Y-35138675D01*
X79861474Y-35138673D01*
X79861470Y-35138670D01*
X79781558Y-35092532D01*
X79781555Y-35092531D01*
X79781554Y-35092530D01*
X79781553Y-35092530D01*
X79692409Y-35068644D01*
X79600121Y-35068644D01*
X79510975Y-35092530D01*
X79494521Y-35102031D01*
X79432520Y-35118644D01*
X78179829Y-35118644D01*
X78112790Y-35098959D01*
X78067035Y-35046155D01*
X78056865Y-34985135D01*
X78056765Y-34985135D01*
X78056764Y-34984536D01*
X78056425Y-34982497D01*
X78056763Y-34979052D01*
X78056765Y-34979043D01*
X78056764Y-34659246D01*
X78056762Y-34659240D01*
X78056424Y-34655801D01*
X78056764Y-34654007D01*
X78056764Y-34653155D01*
X78056926Y-34653155D01*
X78069441Y-34587155D01*
X78117505Y-34536443D01*
X78179827Y-34519644D01*
X79227975Y-34519644D01*
X79295014Y-34539329D01*
X79335360Y-34581641D01*
X79365796Y-34634356D01*
X79431053Y-34699613D01*
X79431056Y-34699614D01*
X79431059Y-34699617D01*
X79510971Y-34745755D01*
X79510972Y-34745755D01*
X79510977Y-34745758D01*
X79600121Y-34769644D01*
X79600123Y-34769644D01*
X79692407Y-34769644D01*
X79692409Y-34769644D01*
X79781553Y-34745758D01*
X79861477Y-34699613D01*
X79926734Y-34634356D01*
X79972879Y-34554432D01*
X79996765Y-34465288D01*
X79996765Y-34373000D01*
X79972879Y-34283856D01*
X79972876Y-34283850D01*
X79926738Y-34203938D01*
X79926735Y-34203935D01*
X79926734Y-34203932D01*
X79904625Y-34181823D01*
X79871140Y-34120500D01*
X79876124Y-34050808D01*
X79904622Y-34006464D01*
X79926734Y-33984353D01*
X79972879Y-33904429D01*
X79996765Y-33815285D01*
X79996765Y-33722997D01*
X79972879Y-33633853D01*
X79963006Y-33616752D01*
X79926738Y-33553935D01*
X79926735Y-33553932D01*
X79926734Y-33553929D01*
X79861477Y-33488672D01*
X79861474Y-33488670D01*
X79861470Y-33488667D01*
X79781558Y-33442529D01*
X79781555Y-33442528D01*
X79781554Y-33442527D01*
X79781553Y-33442527D01*
X79692409Y-33418641D01*
X79600121Y-33418641D01*
X79510977Y-33442527D01*
X79510976Y-33442527D01*
X79510974Y-33442528D01*
X79510971Y-33442529D01*
X79431059Y-33488667D01*
X79431054Y-33488671D01*
X79365795Y-33553929D01*
X79364226Y-33556648D01*
X79362299Y-33558484D01*
X79360850Y-33560374D01*
X79360555Y-33560147D01*
X79313657Y-33604862D01*
X79256841Y-33618644D01*
X78179829Y-33618644D01*
X78112790Y-33598959D01*
X78067035Y-33546155D01*
X78056865Y-33485135D01*
X78056765Y-33485135D01*
X78056764Y-33484536D01*
X78056425Y-33482497D01*
X78056763Y-33479052D01*
X78056765Y-33479043D01*
X78056764Y-33159246D01*
X78056762Y-33159240D01*
X78056424Y-33155801D01*
X78056764Y-33154007D01*
X78056764Y-33153155D01*
X78056926Y-33153155D01*
X78069441Y-33087155D01*
X78117505Y-33036443D01*
X78179827Y-33019644D01*
X79261675Y-33019644D01*
X79323676Y-33036257D01*
X79340845Y-33046170D01*
X79340849Y-33046172D01*
X79429993Y-33070058D01*
X79429995Y-33070058D01*
X79522279Y-33070058D01*
X79522281Y-33070058D01*
X79611425Y-33046172D01*
X79691349Y-33000027D01*
X79756606Y-32934770D01*
X79802751Y-32854846D01*
X79826637Y-32765702D01*
X79826637Y-32673414D01*
X79802751Y-32584270D01*
X79802750Y-32584269D01*
X79802750Y-32584267D01*
X79797772Y-32575646D01*
X79781298Y-32507746D01*
X79804149Y-32441719D01*
X79859070Y-32398527D01*
X79905158Y-32389644D01*
X79990332Y-32389644D01*
X79990334Y-32389644D01*
X80079478Y-32365758D01*
X80159402Y-32319614D01*
X80924053Y-31554963D01*
X80985376Y-31521478D01*
X81011734Y-31518644D01*
X81798721Y-31518644D01*
X81865760Y-31538329D01*
X81886402Y-31554963D01*
X82309446Y-31978007D01*
X82342931Y-32039330D01*
X82345765Y-32065688D01*
X82345765Y-36522600D01*
X82326080Y-36589639D01*
X82309446Y-36610281D01*
X76487402Y-42432325D01*
X76426079Y-42465810D01*
X76399721Y-42468644D01*
X36767809Y-42468644D01*
X36700770Y-42448959D01*
X36680128Y-42432325D01*
X33633084Y-39385281D01*
X33599599Y-39323958D01*
X33596765Y-39297600D01*
X33596765Y-39023002D01*
X33596765Y-39023000D01*
X33572879Y-38933856D01*
X33563682Y-38917926D01*
X33526738Y-38853938D01*
X33526735Y-38853935D01*
X33526734Y-38853932D01*
X33461477Y-38788675D01*
X33461474Y-38788673D01*
X33461470Y-38788670D01*
X33381558Y-38742532D01*
X33381555Y-38742531D01*
X33381554Y-38742530D01*
X33381553Y-38742530D01*
X33292409Y-38718644D01*
X33200121Y-38718644D01*
X33110977Y-38742530D01*
X33110976Y-38742530D01*
X33110974Y-38742531D01*
X33110971Y-38742532D01*
X33031059Y-38788670D01*
X33031050Y-38788677D01*
X32965798Y-38853929D01*
X32965791Y-38853938D01*
X32919653Y-38933850D01*
X32919652Y-38933853D01*
X32919651Y-38933855D01*
X32919651Y-38933856D01*
X32911486Y-38964329D01*
X32895765Y-39023000D01*
X19422765Y-39023000D01*
X19422765Y-33069144D01*
X56746265Y-33069144D01*
X61146265Y-33069144D01*
X61146265Y-30166356D01*
X61703881Y-30166356D01*
X61703881Y-30266760D01*
X61721532Y-30332633D01*
X61724043Y-30342005D01*
X61724044Y-30342013D01*
X61727766Y-30355902D01*
X61773908Y-30435824D01*
X61773910Y-30435827D01*
X61773911Y-30435828D01*
X62037697Y-30699614D01*
X62037698Y-30699615D01*
X62037700Y-30699616D01*
X62072544Y-30719733D01*
X62117621Y-30745758D01*
X62206765Y-30769644D01*
X64282471Y-30769644D01*
X64349510Y-30789329D01*
X64370152Y-30805963D01*
X64708788Y-31144599D01*
X64708789Y-31144600D01*
X64708791Y-31144601D01*
X64717479Y-31149617D01*
X64788712Y-31190743D01*
X64877856Y-31214629D01*
X64877858Y-31214629D01*
X64970142Y-31214629D01*
X64970144Y-31214629D01*
X65059288Y-31190743D01*
X65139212Y-31144599D01*
X65204470Y-31079341D01*
X65250614Y-30999417D01*
X65274500Y-30910273D01*
X65274500Y-30817985D01*
X65250614Y-30728841D01*
X65210437Y-30659252D01*
X65204472Y-30648920D01*
X65204468Y-30648915D01*
X64694228Y-30138675D01*
X64694223Y-30138671D01*
X64614305Y-30092531D01*
X64614304Y-30092530D01*
X64614303Y-30092530D01*
X64525159Y-30068644D01*
X64525158Y-30068644D01*
X62570765Y-30068644D01*
X62503726Y-30048959D01*
X62457971Y-29996155D01*
X62446765Y-29944644D01*
X62446765Y-27770481D01*
X66798284Y-27770481D01*
X66798284Y-28658644D01*
X66821626Y-28745758D01*
X66822171Y-28747790D01*
X66822172Y-28747793D01*
X66868310Y-28827705D01*
X66868313Y-28827709D01*
X66868315Y-28827712D01*
X66933572Y-28892969D01*
X66933575Y-28892970D01*
X66933578Y-28892973D01*
X67013490Y-28939111D01*
X67013491Y-28939111D01*
X67013496Y-28939114D01*
X67102640Y-28963000D01*
X67102642Y-28963000D01*
X67194926Y-28963000D01*
X67194928Y-28963000D01*
X67284072Y-28939114D01*
X67363996Y-28892969D01*
X67429253Y-28827712D01*
X67475398Y-28747788D01*
X67499284Y-28658644D01*
X67499284Y-28013169D01*
X67518969Y-27946130D01*
X67535603Y-27925488D01*
X67982048Y-27479043D01*
X68526735Y-26934356D01*
X68572879Y-26854432D01*
X68578258Y-26834356D01*
X68596765Y-26765288D01*
X68596765Y-24955689D01*
X68616450Y-24888650D01*
X68633084Y-24868008D01*
X68754357Y-24746735D01*
X68896735Y-24604357D01*
X68942880Y-24524433D01*
X68945466Y-24514783D01*
X68966766Y-24435289D01*
X68966766Y-24343001D01*
X68942880Y-24253857D01*
X68942877Y-24253851D01*
X68896739Y-24173939D01*
X68896736Y-24173936D01*
X68896735Y-24173933D01*
X68831478Y-24108676D01*
X68831475Y-24108674D01*
X68831471Y-24108671D01*
X68751559Y-24062533D01*
X68751556Y-24062532D01*
X68751555Y-24062531D01*
X68751554Y-24062531D01*
X68662410Y-24038645D01*
X68570122Y-24038645D01*
X68480978Y-24062531D01*
X68480977Y-24062531D01*
X68480975Y-24062532D01*
X68480972Y-24062533D01*
X68401060Y-24108671D01*
X68401051Y-24108678D01*
X67965797Y-24543931D01*
X67965795Y-24543933D01*
X67965795Y-24543934D01*
X67920099Y-24623082D01*
X67920098Y-24623084D01*
X67920097Y-24623083D01*
X67919652Y-24623853D01*
X67915576Y-24639066D01*
X67895765Y-24713002D01*
X67895765Y-24713004D01*
X67895765Y-26522600D01*
X67876080Y-26589639D01*
X67859446Y-26610281D01*
X66868315Y-27601411D01*
X66868311Y-27601416D01*
X66822171Y-27681334D01*
X66822170Y-27681337D01*
X66798284Y-27770481D01*
X62446765Y-27770481D01*
X62446765Y-26965687D01*
X62466450Y-26898648D01*
X62483084Y-26878006D01*
X62526733Y-26834357D01*
X62526738Y-26834349D01*
X62551282Y-26791838D01*
X62572879Y-26754432D01*
X62596765Y-26665288D01*
X62596765Y-26573000D01*
X62572879Y-26483856D01*
X62572876Y-26483850D01*
X62526738Y-26403938D01*
X62526735Y-26403935D01*
X62526734Y-26403932D01*
X62461477Y-26338675D01*
X62461474Y-26338673D01*
X62461470Y-26338670D01*
X62381558Y-26292532D01*
X62381555Y-26292531D01*
X62381554Y-26292530D01*
X62381553Y-26292530D01*
X62292409Y-26268644D01*
X62200121Y-26268644D01*
X62110977Y-26292530D01*
X62110976Y-26292530D01*
X62110974Y-26292531D01*
X62110971Y-26292532D01*
X62031059Y-26338670D01*
X62031050Y-26338677D01*
X61965798Y-26403929D01*
X61965791Y-26403938D01*
X61919653Y-26483850D01*
X61919652Y-26483853D01*
X61919651Y-26483855D01*
X61919651Y-26483856D01*
X61895765Y-26573000D01*
X61895765Y-26665288D01*
X61910353Y-26719732D01*
X61919652Y-26754434D01*
X61919653Y-26754437D01*
X61965791Y-26834349D01*
X61965797Y-26834357D01*
X62009446Y-26878006D01*
X62042931Y-26939329D01*
X62045765Y-26965687D01*
X62045765Y-29756796D01*
X62026080Y-29823835D01*
X61973276Y-29869590D01*
X61953864Y-29876569D01*
X61933203Y-29882105D01*
X61919088Y-29885887D01*
X61919087Y-29885888D01*
X61839175Y-29932026D01*
X61839166Y-29932033D01*
X61773914Y-29997285D01*
X61773907Y-29997294D01*
X61727769Y-30077206D01*
X61727768Y-30077209D01*
X61727767Y-30077211D01*
X61727767Y-30077212D01*
X61703881Y-30166356D01*
X61146265Y-30166356D01*
X61146265Y-28469144D01*
X56746265Y-28469144D01*
X56746265Y-33069144D01*
X19422765Y-33069144D01*
X19422765Y-20547117D01*
X21095765Y-20547117D01*
X21095765Y-20791171D01*
X21100116Y-20818644D01*
X21131951Y-21019642D01*
X21133944Y-21032220D01*
X21209361Y-21264329D01*
X21293380Y-21429227D01*
X21320161Y-21481786D01*
X21463604Y-21679220D01*
X21463608Y-21679225D01*
X21636183Y-21851800D01*
X21636188Y-21851804D01*
X21745833Y-21931465D01*
X21833626Y-21995250D01*
X22051080Y-22106048D01*
X22283189Y-22181465D01*
X22524238Y-22219644D01*
X22524239Y-22219644D01*
X22768291Y-22219644D01*
X22768292Y-22219644D01*
X23009341Y-22181465D01*
X23241450Y-22106048D01*
X23458904Y-21995250D01*
X23656348Y-21851799D01*
X23828920Y-21679227D01*
X23972371Y-21481783D01*
X24083169Y-21264329D01*
X24129090Y-21123000D01*
X67845765Y-21123000D01*
X67845765Y-21215288D01*
X67858905Y-21264329D01*
X67869652Y-21304434D01*
X67869653Y-21304437D01*
X67915791Y-21384349D01*
X67915794Y-21384353D01*
X67915796Y-21384356D01*
X67981053Y-21449613D01*
X67981056Y-21449614D01*
X67981059Y-21449617D01*
X68060971Y-21495755D01*
X68060972Y-21495755D01*
X68060977Y-21495758D01*
X68150121Y-21519644D01*
X68150123Y-21519644D01*
X68242407Y-21519644D01*
X68242409Y-21519644D01*
X68331553Y-21495758D01*
X68411477Y-21449613D01*
X68476734Y-21384356D01*
X68476734Y-21384355D01*
X68480127Y-21380963D01*
X68541450Y-21347478D01*
X68567808Y-21344644D01*
X84772208Y-21344644D01*
X84839247Y-21364329D01*
X84859889Y-21380963D01*
X85984446Y-22505520D01*
X86017931Y-22566843D01*
X86020765Y-22593201D01*
X86020765Y-27647600D01*
X86001080Y-27714639D01*
X85984447Y-27735281D01*
X85915795Y-27803933D01*
X85915791Y-27803938D01*
X85869653Y-27883850D01*
X85869652Y-27883853D01*
X85869651Y-27883855D01*
X85869651Y-27883856D01*
X85845765Y-27973000D01*
X85845765Y-28065288D01*
X85866544Y-28142838D01*
X85869652Y-28154434D01*
X85869653Y-28154437D01*
X85915791Y-28234349D01*
X85915794Y-28234353D01*
X85915796Y-28234356D01*
X85981053Y-28299613D01*
X85981056Y-28299614D01*
X85981059Y-28299617D01*
X86060971Y-28345755D01*
X86060972Y-28345755D01*
X86060977Y-28345758D01*
X86150121Y-28369644D01*
X86150123Y-28369644D01*
X86242407Y-28369644D01*
X86242409Y-28369644D01*
X86331553Y-28345758D01*
X86411477Y-28299613D01*
X86476734Y-28234356D01*
X86522879Y-28154432D01*
X86546765Y-28065288D01*
X86546765Y-27973000D01*
X86522879Y-27883856D01*
X86522876Y-27883850D01*
X86476738Y-27803938D01*
X86476736Y-27803935D01*
X86476734Y-27803932D01*
X86411477Y-27738675D01*
X86411476Y-27738674D01*
X86408083Y-27735281D01*
X86374599Y-27673957D01*
X86371765Y-27647600D01*
X86371765Y-22518495D01*
X86371766Y-22518486D01*
X86371766Y-22434236D01*
X86371766Y-22434235D01*
X86345047Y-22369731D01*
X86345045Y-22369729D01*
X86345045Y-22369728D01*
X84995678Y-21020362D01*
X84987909Y-21017144D01*
X84931174Y-20993644D01*
X84931173Y-20993644D01*
X69815836Y-20993644D01*
X69748797Y-20973959D01*
X69703042Y-20921155D01*
X69693098Y-20851997D01*
X69708449Y-20807644D01*
X69708915Y-20806835D01*
X69729472Y-20771231D01*
X69756765Y-20669371D01*
X69756765Y-20297117D01*
X100045765Y-20297117D01*
X100045765Y-20541170D01*
X100082203Y-20771233D01*
X100083944Y-20782220D01*
X100159361Y-21014329D01*
X100261754Y-21215288D01*
X100270161Y-21231786D01*
X100413604Y-21429220D01*
X100413608Y-21429225D01*
X100586183Y-21601800D01*
X100586188Y-21601804D01*
X100692743Y-21679220D01*
X100783626Y-21745250D01*
X101001080Y-21856048D01*
X101233189Y-21931465D01*
X101474238Y-21969644D01*
X101474239Y-21969644D01*
X101718291Y-21969644D01*
X101718292Y-21969644D01*
X101959341Y-21931465D01*
X102191450Y-21856048D01*
X102408904Y-21745250D01*
X102606348Y-21601799D01*
X102778920Y-21429227D01*
X102922371Y-21231783D01*
X103033169Y-21014329D01*
X103108586Y-20782220D01*
X103146765Y-20541171D01*
X103146765Y-20297117D01*
X103108586Y-20056068D01*
X103033169Y-19823959D01*
X102922371Y-19606505D01*
X102835173Y-19486487D01*
X102778925Y-19409067D01*
X102778921Y-19409062D01*
X102606346Y-19236487D01*
X102606341Y-19236483D01*
X102408907Y-19093040D01*
X102408906Y-19093039D01*
X102408904Y-19093038D01*
X102191450Y-18982240D01*
X101959341Y-18906823D01*
X101959339Y-18906822D01*
X101959337Y-18906822D01*
X101791034Y-18880165D01*
X101718292Y-18868644D01*
X101474238Y-18868644D01*
X101418358Y-18877494D01*
X101233192Y-18906822D01*
X101001077Y-18982241D01*
X100783622Y-19093040D01*
X100586188Y-19236483D01*
X100586183Y-19236487D01*
X100413608Y-19409062D01*
X100413604Y-19409067D01*
X100270161Y-19606501D01*
X100159362Y-19823956D01*
X100083943Y-20056071D01*
X100045765Y-20297117D01*
X69756765Y-20297117D01*
X69756765Y-19913917D01*
X69729472Y-19812057D01*
X69676745Y-19720731D01*
X69602178Y-19646164D01*
X69510852Y-19593437D01*
X69408992Y-19566144D01*
X69088992Y-19566144D01*
X68983538Y-19566144D01*
X68881678Y-19593437D01*
X68881675Y-19593438D01*
X68790350Y-19646165D01*
X68715786Y-19720729D01*
X68663059Y-19812054D01*
X68663058Y-19812057D01*
X68635765Y-19913917D01*
X68635765Y-20669370D01*
X68663058Y-20771230D01*
X68663059Y-20771233D01*
X68684081Y-20807644D01*
X68685512Y-20813545D01*
X68689488Y-20818133D01*
X68693652Y-20847097D01*
X68700554Y-20875544D01*
X68698567Y-20881282D01*
X68699432Y-20887291D01*
X68687272Y-20913915D01*
X68677701Y-20941571D01*
X68672929Y-20945323D01*
X68670407Y-20950847D01*
X68645784Y-20966670D01*
X68622780Y-20984762D01*
X68615429Y-20986178D01*
X68611629Y-20988621D01*
X68576694Y-20993644D01*
X68567808Y-20993644D01*
X68500769Y-20973959D01*
X68480127Y-20957325D01*
X68411479Y-20888677D01*
X68411477Y-20888675D01*
X68411474Y-20888673D01*
X68411470Y-20888670D01*
X68331558Y-20842532D01*
X68331555Y-20842531D01*
X68331554Y-20842530D01*
X68331553Y-20842530D01*
X68242409Y-20818644D01*
X68150121Y-20818644D01*
X68060977Y-20842530D01*
X68060976Y-20842530D01*
X68060974Y-20842531D01*
X68060971Y-20842532D01*
X67981059Y-20888670D01*
X67981050Y-20888677D01*
X67915798Y-20953929D01*
X67915791Y-20953938D01*
X67869653Y-21033850D01*
X67869652Y-21033853D01*
X67869651Y-21033855D01*
X67869651Y-21033856D01*
X67845765Y-21123000D01*
X24129090Y-21123000D01*
X24158586Y-21032220D01*
X24196765Y-20791171D01*
X24196765Y-20547117D01*
X24158586Y-20306068D01*
X24083169Y-20073959D01*
X23972371Y-19856505D01*
X23873726Y-19720731D01*
X23828925Y-19659067D01*
X23828921Y-19659062D01*
X23656346Y-19486487D01*
X23656341Y-19486483D01*
X23458907Y-19343040D01*
X23458906Y-19343039D01*
X23458904Y-19343038D01*
X23241450Y-19232240D01*
X23170670Y-19209242D01*
X37355765Y-19209242D01*
X37355765Y-20929038D01*
X37355766Y-20929046D01*
X37361595Y-20958356D01*
X37383807Y-20991601D01*
X37400484Y-21002743D01*
X37417052Y-21013813D01*
X37417055Y-21013813D01*
X37417056Y-21013814D01*
X37426912Y-21015774D01*
X37446366Y-21019644D01*
X39166163Y-21019643D01*
X39195478Y-21013813D01*
X39228722Y-20991601D01*
X39250934Y-20958357D01*
X39256765Y-20929043D01*
X39256764Y-19913917D01*
X65535765Y-19913917D01*
X65535765Y-20563917D01*
X65535765Y-20669371D01*
X65563058Y-20771231D01*
X65615785Y-20862557D01*
X65690352Y-20937124D01*
X65781678Y-20989851D01*
X65883538Y-21017144D01*
X65883540Y-21017144D01*
X66308990Y-21017144D01*
X66308992Y-21017144D01*
X66410852Y-20989851D01*
X66502178Y-20937124D01*
X66576745Y-20862557D01*
X66629472Y-20771231D01*
X66656765Y-20669371D01*
X66656765Y-19913917D01*
X66629472Y-19812057D01*
X66576745Y-19720731D01*
X66502178Y-19646164D01*
X66410852Y-19593437D01*
X66308992Y-19566144D01*
X65988992Y-19566144D01*
X65883538Y-19566144D01*
X65781678Y-19593437D01*
X65781675Y-19593438D01*
X65690350Y-19646165D01*
X65615786Y-19720729D01*
X65563059Y-19812054D01*
X65563058Y-19812057D01*
X65535765Y-19913917D01*
X39256764Y-19913917D01*
X39256764Y-19209246D01*
X39250934Y-19179931D01*
X39250933Y-19179929D01*
X39228722Y-19146686D01*
X39195479Y-19124476D01*
X39195480Y-19124476D01*
X39195478Y-19124475D01*
X39195476Y-19124474D01*
X39195473Y-19124473D01*
X39166166Y-19118644D01*
X37446370Y-19118644D01*
X37446362Y-19118645D01*
X37417052Y-19124474D01*
X37383807Y-19146686D01*
X37361597Y-19179929D01*
X37361594Y-19179935D01*
X37355765Y-19209242D01*
X23170670Y-19209242D01*
X23009341Y-19156823D01*
X23009339Y-19156822D01*
X23009337Y-19156822D01*
X22805113Y-19124476D01*
X22768292Y-19118644D01*
X22524238Y-19118644D01*
X22487423Y-19124475D01*
X22283192Y-19156822D01*
X22051077Y-19232241D01*
X21833622Y-19343040D01*
X21636188Y-19486483D01*
X21636183Y-19486487D01*
X21463608Y-19659062D01*
X21463604Y-19659067D01*
X21320161Y-19856501D01*
X21209362Y-20073956D01*
X21133943Y-20306071D01*
X21096707Y-20541170D01*
X21095765Y-20547117D01*
X19422765Y-20547117D01*
X19422765Y-17743917D01*
X65535765Y-17743917D01*
X65535765Y-18393917D01*
X65535765Y-18499371D01*
X65563058Y-18601231D01*
X65615785Y-18692557D01*
X65690352Y-18767124D01*
X65781678Y-18819851D01*
X65883538Y-18847144D01*
X65883540Y-18847144D01*
X66308990Y-18847144D01*
X66308992Y-18847144D01*
X66410852Y-18819851D01*
X66502178Y-18767124D01*
X66576745Y-18692557D01*
X66629472Y-18601231D01*
X66656765Y-18499371D01*
X66656765Y-17743917D01*
X68635765Y-17743917D01*
X68635765Y-18393917D01*
X68635765Y-18499371D01*
X68663058Y-18601231D01*
X68715785Y-18692557D01*
X68790352Y-18767124D01*
X68881678Y-18819851D01*
X68983538Y-18847144D01*
X68983540Y-18847144D01*
X69408990Y-18847144D01*
X69408992Y-18847144D01*
X69510852Y-18819851D01*
X69602178Y-18767124D01*
X69676745Y-18692557D01*
X69729472Y-18601231D01*
X69756765Y-18499371D01*
X69756765Y-17743917D01*
X69729472Y-17642057D01*
X69676745Y-17550731D01*
X69602178Y-17476164D01*
X69510852Y-17423437D01*
X69408992Y-17396144D01*
X69088992Y-17396144D01*
X68983538Y-17396144D01*
X68881678Y-17423437D01*
X68881675Y-17423438D01*
X68790350Y-17476165D01*
X68715786Y-17550729D01*
X68663059Y-17642054D01*
X68663058Y-17642057D01*
X68635765Y-17743917D01*
X66656765Y-17743917D01*
X66629472Y-17642057D01*
X66576745Y-17550731D01*
X66502178Y-17476164D01*
X66410852Y-17423437D01*
X66308992Y-17396144D01*
X65988992Y-17396144D01*
X65883538Y-17396144D01*
X65781678Y-17423437D01*
X65781675Y-17423438D01*
X65690350Y-17476165D01*
X65615786Y-17550729D01*
X65563059Y-17642054D01*
X65563058Y-17642057D01*
X65535765Y-17743917D01*
X19422765Y-17743917D01*
X19422765Y-17043644D01*
X19442450Y-16976605D01*
X19495254Y-16930850D01*
X19546765Y-16919644D01*
X104321765Y-16919644D01*
X104388804Y-16939329D01*
G37*
%TD.AperFunction*%
%TD*%
M02*
