M48
; DRILL file {KiCad 9.0.6} date 2025-12-12T16:25:15+0000
; FORMAT={-:-/ absolute / metric / decimal}
; #@! TF.CreationDate,2025-12-12T16:25:15+00:00
; #@! TF.GenerationSoftware,Kicad,Pcbnew,9.0.6
; #@! TF.FileFunction,Plated,1,4,PTH
FMAT,2
METRIC
; #@! TA.AperFunction,Plated,PTH,ComponentDrill
T1C0.250
; #@! TA.AperFunction,Plated,PTH,ViaDrill
T2C0.300
; #@! TA.AperFunction,Plated,PTH,ComponentDrill
T3C1.000
%
G90
G05
T1
X65.749Y-29.438
X65.749Y-30.812
X65.749Y-32.188
X67.124Y-29.438
X67.124Y-30.812
X67.124Y-32.188
X68.499Y-29.438
X68.499Y-30.812
X68.499Y-32.188
T2
X33.246Y-39.069
X34.296Y-28.569
X34.796Y-34.019
X35.396Y-28.669
X35.946Y-37.769
X35.996Y-33.169
X36.946Y-26.419
X36.971Y-37.994
X36.996Y-33.569
X55.246Y-29.319
X57.546Y-34.519
X58.046Y-28.019
X60.646Y-27.319
X61.496Y-36.009
X61.646Y-34.019
X62.048Y-36.588
X62.054Y-30.212
X62.125Y-31.792
X62.246Y-26.619
X62.646Y-37.119
X62.742Y-31.487
X63.796Y-18.469
X64.924Y-30.864
X65.246Y-21.919
X65.642Y-39.624
X66.924Y-35.405
X67.143Y-40.51
X67.146Y-33.012
X67.149Y-28.612
X67.546Y-39.819
X68.196Y-21.169
X68.616Y-24.389
X69.324Y-30.822
X69.566Y-36.919
X69.615Y-36.151
X69.75Y-35.515
X69.946Y-24.719
X70.535Y-26.512
X71.506Y-29.279
X71.735Y-26.169
X72.27Y-30.212
X72.346Y-32.137
X72.556Y-24.611
X72.556Y-25.411
X72.846Y-32.788
X72.859Y-31.737
X72.946Y-29.012
X73.346Y-33.313
X73.346Y-34.444
X73.365Y-24.488
X73.371Y-31.337
X73.746Y-33.838
X75.346Y-40.119
X75.596Y-41.269
X75.646Y-43.569
X76.615Y-34.819
X78.646Y-25.319
X78.646Y-31.019
X78.746Y-32.039
X79.476Y-32.72
X79.546Y-36.519
X79.646Y-28.419
X79.646Y-30.419
X79.646Y-33.769
X79.646Y-34.419
X79.646Y-35.419
X81.126Y-31.919
X81.696Y-28.419
X83.347Y-30.869
X84.396Y-35.769
X86.196Y-28.019
T3
X38.306Y-20.069
X40.846Y-20.069
M30
