%TF.GenerationSoftware,KiCad,Pcbnew,9.0.6-9.0.6~ubuntu24.04.1*%
%TF.CreationDate,2025-12-11T23:04:45+00:00*%
%TF.ProjectId,FPSP Camera,46505350-2043-4616-9d65-72612e6b6963,rev?*%
%TF.SameCoordinates,Original*%
%TF.FileFunction,Profile,NP*%
%FSLAX46Y46*%
G04 Gerber Fmt 4.6, Leading zero omitted, Abs format (unit mm)*
G04 Created by KiCad (PCBNEW 9.0.6-9.0.6~ubuntu24.04.1) date 2025-12-11 23:04:45*
%MOMM*%
%LPD*%
G01*
G04 APERTURE LIST*
%TA.AperFunction,Profile*%
%ADD10C,0.200000*%
%TD*%
%TA.AperFunction,Profile*%
%ADD11C,0.100000*%
%TD*%
G04 APERTURE END LIST*
D10*
X18960265Y-15919144D02*
X104684265Y-15919144D01*
X104684265Y-47019144D01*
X18960265Y-47019144D01*
X18960265Y-15919144D01*
D11*
%TO.C,J3*%
X63462265Y-43321644D02*
X63462265Y-43971644D01*
X63462265Y-43971644D02*
X63782265Y-43971644D01*
X63462265Y-45491644D02*
X63462265Y-46141644D01*
X63462265Y-46141644D02*
X63782265Y-46141644D01*
X63782265Y-43321644D02*
X63462265Y-43321644D01*
X63782265Y-43971644D02*
X63782265Y-43321644D01*
X63782265Y-45491644D02*
X63462265Y-45491644D01*
X63782265Y-46141644D02*
X63782265Y-45491644D01*
X67762265Y-43321644D02*
X67762265Y-43971644D01*
X67762265Y-43971644D02*
X68082265Y-43971644D01*
X67762265Y-45491644D02*
X67762265Y-46141644D01*
X67762265Y-46141644D02*
X68082265Y-46141644D01*
X68082265Y-43321644D02*
X67762265Y-43321644D01*
X68082265Y-43971644D02*
X68082265Y-43321644D01*
X68082265Y-45491644D02*
X67762265Y-45491644D01*
X68082265Y-46141644D02*
X68082265Y-45491644D01*
%TO.C,J2*%
X65712265Y-17296644D02*
X65712265Y-17946644D01*
X65712265Y-17946644D02*
X66032265Y-17946644D01*
X65712265Y-19466644D02*
X65712265Y-20116644D01*
X65712265Y-20116644D02*
X66032265Y-20116644D01*
X66032265Y-17296644D02*
X65712265Y-17296644D01*
X66032265Y-17946644D02*
X66032265Y-17296644D01*
X66032265Y-19466644D02*
X65712265Y-19466644D01*
X66032265Y-20116644D02*
X66032265Y-19466644D01*
X68812265Y-17296644D02*
X68812265Y-17946644D01*
X68812265Y-17946644D02*
X69132265Y-17946644D01*
X68812265Y-19466644D02*
X68812265Y-20116644D01*
X68812265Y-20116644D02*
X69132265Y-20116644D01*
X69132265Y-17296644D02*
X68812265Y-17296644D01*
X69132265Y-17946644D02*
X69132265Y-17296644D01*
X69132265Y-19466644D02*
X68812265Y-19466644D01*
X69132265Y-20116644D02*
X69132265Y-19466644D01*
%TD*%
M02*
